<?xml version="1.0" encoding="UTF-8"?>
<svg id="Layer_1" data-name="Layer 1" xmlns="http://www.w3.org/2000/svg" viewBox="0 0 2000 2001.53">
  <defs>
    <style>
      .cls-1 {
        fill: #8a916c;
      }
    </style>
  </defs>
  <g>
    <path class="cls-1" d="M839.52,494.43v7.9c55.33,0,77.92,1.13,77.92,53.08v157.76c16.06,28.22,31.44,57.24,46.28,86.76v-244.52c0-51.94,22.59-53.08,77.92-53.08v-7.9h-202.11ZM922.46,977.03c-1.68-3.88-3.37-7.75-5.03-11.61v216.62c0,127.58-64.37,243.87-200.98,243.87-312.76,1.13-300.33-485.5,12.41-485.5v-6.78c-377.11,0-388.39,500.19-12.41,500.19,156.93,0,247.26-110.65,247.26-251.79v-110.7c-13.99-31.44-27.67-62.99-41.25-94.31Z"/>
    <path class="cls-1" d="M1454.82,715.86l-270.98,614.21c88.06,150.17,194.2,264.22,354.52,291.3l-1.13,6.78c-312.49-53.59-448.28-343.31-573.53-631.42-15.49-35.62-30.8-71.22-46.28-106.34-109.9-249.42-227.5-474.9-465.23-515.52l1.13-6.78c224.1,38.57,357.87,206.32,464.09,407.43,15.98,30.25,31.34,61.26,46.28,92.69,71.92,151.25,134.36,312.43,211.11,447.17l250.65-567.93c40.65-91.44,19.19-98.22-50.81-98.22v-7.9h185.17v7.9c-59.84,0-75.65,0-105,66.62Z"/>
  </g>
  <g>
    <path class="cls-1" d="M1937.39,651.42c-20.08-53.9-44.64-105.75-73.51-155.14-28.86-49.39-62.03-96.33-99.26-140.53-7.12-8.44-13.67-15.94-20-22.98-36.28-40.5-76.2-78.36-118.68-112.53-6.46-5.2-13.22-10.47-20.05-15.7-85.25-65.07-179.65-115.67-280.58-150.39C1220.88,18.21,1111.44,0,999.99,0s-221.21,18.26-325.77,54.3c-101.08,34.83-195.59,85.57-280.89,150.82-6.36,4.88-12.85,9.97-19.23,15.12-42.51,34.17-82.43,72.03-118.71,112.53-6.86,7.65-13.59,15.36-20,22.98-74.48,88.36-132.61,187.83-172.74,295.67C21.08,763.02,0,880.57,0,1000.75c0,171.98,44.3,341.55,128.13,490.44,35.7,63.46,78.5,123.19,127.25,177.54,36.28,40.5,76.2,78.39,118.71,112.56,6.33,5.09,12.8,10.16,19.23,15.09,85.3,65.25,179.81,115.99,280.89,150.82,104.56,36.04,214.17,54.33,325.77,54.33s220.89-18.21,325.33-54.14c100.92-34.75,195.33-85.35,280.58-150.42,6.83-5.2,13.59-10.47,20.03-15.67,42.51-34.17,82.43-72.03,118.71-112.53,48.73-54.35,91.56-114.09,127.25-177.57,83.82-148.89,128.13-318.47,128.13-490.44,0-120.18-21.08-237.73-62.61-349.34ZM999.99,1990.98c-110.45,0-218.89-18.07-322.34-53.75-100.03-34.46-193.51-84.67-277.91-149.23-6.36-4.86-12.77-9.89-19.05-14.93-42.03-33.83-81.56-71.29-117.44-111.37-48.23-53.77-90.61-112.9-125.91-175.67C54.41,1338.72,10.55,1170.91,10.55,1000.75c0-118.92,20.84-235.22,61.98-345.67,39.71-106.67,97.23-205.12,170.92-292.56,6.33-7.52,13.01-15.14,19.79-22.72,35.88-40.08,75.41-77.55,117.44-111.37,6.36-5.09,12.77-10.11,19.05-14.93,84.41-64.56,177.91-114.77,277.91-149.23,103.46-35.65,211.9-53.72,322.34-53.72,218.76,0,426.04,69.97,599.52,202.4,6.75,5.15,13.43,10.37,19.82,15.49,42.03,33.83,81.56,71.29,117.44,111.37,6.28,6.97,12.74,14.41,19.79,22.74,73.69,87.41,131.21,185.86,170.95,292.53,41.11,110.45,61.95,226.75,61.95,345.67,0,170.16-43.83,337.96-126.75,485.27-35.36,62.8-77.73,121.92-125.93,175.7-35.88,40.08-75.41,77.55-117.44,111.34-6.38,5.15-13.06,10.37-19.84,15.51-173.45,132.43-380.73,202.4-599.49,202.4Z"/>
    <path class="cls-1" d="M1712.48,351.84l-2.3-2.51-3.22,1.03c-7.36,2.32-15.04,3.51-22.85,3.51-41.98,0-76.15-34.17-76.15-76.17,0-6.52.82-12.98,2.43-19.18l.16-.69v-3.17l-1.93-1.58c-84.06-68.86-178.23-122.56-279.86-159.58-105.2-38.28-215.8-57.7-328.78-57.7s-223.56,19.42-328.76,57.7c-101.66,37.02-195.83,90.68-279.89,159.55l-1.93,1.61v3.19l.18.66c1.61,6.2,2.45,12.66,2.45,19.18,0,42-34.17,76.17-76.17,76.17-7.81,0-15.49-1.19-22.88-3.51l-3.22-1.03-2.27,2.51C126.88,529.12,38.42,758.64,38.42,998.14s89.84,472.61,252.95,650.47l2.14,2.32,3.09-.79c6.28-1.64,12.77-2.48,19.29-2.48,37.76,0,70.18,28.15,75.41,65.49.5,3.51.76,7.1.76,10.66s-.26,7.18-.76,10.71c-.21,1.48-.45,2.93-.74,4.35l-.63,3.11,2.48,2.03c83.98,68.63,178.02,122.11,279.47,158.97,104.99,38.15,215.41,57.49,328.12,57.49s223.14-19.34,328.12-57.49c101.48-36.86,195.51-90.34,279.49-158.97l2.48-2-.63-3.11c-.98-4.93-1.48-10-1.48-15.09,0-41.98,34.17-76.15,76.15-76.15,6.54,0,13.03.84,19.29,2.48l3.09.82,2.14-2.35c163.11-177.86,252.95-408.89,252.95-650.47s-88.47-469.02-249.1-646.3ZM1684.12,1637.1c-47.81,0-86.7,38.89-86.7,86.7,0,4.7.37,9.39,1.11,13.98-82.45,66.94-174.64,119.18-274.01,155.28-103.85,37.73-213.03,56.86-324.53,56.86s-220.68-19.13-324.51-56.86c-99.39-36.09-191.55-88.34-274.01-155.28.11-.61.18-1.21.26-1.82.58-3.98.87-8.07.87-12.16s-.29-8.15-.87-12.14c-5.94-42.51-42.85-74.56-85.86-74.56-6.36,0-12.66.69-18.84,2.06-160-175.59-248.07-403.11-248.07-641.02s86.67-461.76,244.14-636.75c7.39,2.01,15.04,3.03,22.77,3.03,47.81,0,86.73-38.92,86.73-86.73,0-6.28-.69-12.51-2.01-18.55,82.48-67.12,174.75-119.5,274.24-155.72,104.04-37.86,213.43-57.07,325.14-57.07s221.13,19.21,325.17,57.07c99.5,36.23,191.74,88.63,274.24,155.72-1.32,6.07-1.98,12.3-1.98,18.55,0,47.81,38.89,86.73,86.7,86.73,7.73,0,15.36-1.03,22.74-3.03,157.49,174.98,244.17,400.97,244.17,636.75s-88.07,465.43-248.07,641.02c-6.15-1.37-12.45-2.06-18.84-2.06Z"/>
  </g>
</svg>