<?xml version="1.0" encoding="UTF-8"?>
<svg id="Layer_1" data-name="Layer 1" xmlns="http://www.w3.org/2000/svg" viewBox="0 0 1217.3 379.68" fill="#EFEBDE">
  <path d="M79.33,360.67c-18.77,1.17-36.35-5.45-52.72-19.84S1.41,309.87.15,291.1c-1.26-18.76,5.33-36.36,19.76-52.79,11.79-13.42,25.63-22.3,41.5-26.63l23.82,15.61-1.19,1.35c-10.55-5.36-21.1-6.74-31.66-4.12-10.55,2.62-19.88,8.54-27.98,17.75-11.53,13.12-16.19,27.62-13.99,43.49,2.21,15.87,10.82,30.41,25.84,43.61,15.02,13.2,30.53,19.95,46.51,20.24,15.98.29,29.72-5.79,41.2-18.25,9.86-11.22,15.03-23.27,15.52-36.15.52-13.92-5.94-28.29-19.36-43.11l1.06-1.2,22,22.53c6.92,22.23,2.01,42.86-14.71,61.89-14.01,15.74-30.4,24.19-49.17,25.35Z"/>
  <path d="M178.34,277.14c2.51-1.98,3.99-4.46,4.44-7.45.45-2.98-.18-5.67-1.9-8.06l-58.84-74.59c-1.82-2.3-4.23-3.54-7.25-3.7-3.02-.17-5.78.74-8.3,2.72l-2.2,1.73-1.24-1.57,45.85-36.17c4.29-3.38,7.81-6.67,10.56-9.86,2.75-3.19,4.43-5.36,5.04-6.53l14.12,17.9-1.85,1.21-1.86-2.36c-1.73-2.2-3.95-3.5-6.66-3.92-2.71-.41-5.21.29-7.51,2.1l-32.66,25.76,31.46,39.88,26.85-21.18c2.09-1.65,3.2-3.54,3.3-5.66.11-2.12-.58-4.13-2.07-6.01l-1.61-2.04,1.73-1.36,17.34,21.98-1.73,1.36-1.61-2.04c-2.31-2.93-4.98-4.05-8-3.37-1.09.35-2.14.84-3.17,1.48l-27.32,21.55,31.46,39.88,24.65-19.45c4.81-3.8,8.21-7.84,10.19-12.11,1.98-4.27,2.92-8.25,2.83-11.91-.09-3.66-.73-8.08-1.92-13.26l1.57-1.24,9.08,29.27-63.75,50.29-1.24-1.57,2.2-1.73Z"/>
  <path d="M259.59,215.11c2.79-1.56,4.65-3.78,5.56-6.66.91-2.88.71-5.63-.6-8.25l-46.15-82.58c-1.55-2.49-3.86-4.1-6.94-4.83-3.08-.72-6.01-.31-8.81,1.26l-2.09,1.17-.98-1.75,36.14-20.2.98,1.75-2.09,1.17c-2.79,1.56-4.69,3.84-5.68,6.84-1,3-.78,5.78.65,8.34l49.27,88.17,27.23-15.22c5.35-2.99,9.37-6.46,12.06-10.4,2.68-3.94,4.27-7.73,4.76-11.37.49-3.63.49-8.07.01-13.3l1.75-.98,4.35,30.33-70.88,39.61-.98-1.75,2.44-1.37Z"/>
  <path d="M345.17,168.79c3.01-1.09,5.2-2.98,6.56-5.67,1.37-2.69,1.61-5.44.74-8.24l-32.32-89.33c-1-2.76-2.9-4.69-5.71-5.8-2.81-1.11-5.72-1.12-8.73-.03l-2.63.95-.68-1.88,54.92-19.87c5.14-1.86,9.52-3.87,13.13-6.03,3.61-2.16,5.9-3.69,6.84-4.6l7.76,21.44-2.14.56-1.02-2.82c-.95-2.63-2.65-4.57-5.08-5.82-2.44-1.24-5.04-1.37-7.79-.37l-39.12,14.15,17.28,47.77,32.16-11.64c2.51-.91,4.15-2.35,4.92-4.33.77-1.98.75-4.1-.07-6.36l-.88-2.45,2.07-.75,9.53,26.33-2.07.75-.88-2.45c-1.27-3.51-3.45-5.42-6.54-5.72-1.14-.01-2.29.12-3.47.4l-32.72,11.84,17.28,47.77,29.53-10.68c5.77-2.09,10.26-4.85,13.49-8.28,3.22-3.43,5.37-6.91,6.44-10.41,1.07-3.5,1.85-7.9,2.35-13.19l1.88-.68-.61,30.64-76.36,27.63-.68-1.88,2.63-.95Z"/>
  <path d="M499.35,22.55c2.64,3.47,4.43,7.89,5.37,13.27.94,5.39-.35,10.72-3.89,16.01-3.54,5.29-8.07,9.17-13.6,11.62,9.77-.63,18.29,1.46,25.57,6.28,7.27,4.82,11.53,10.74,12.76,17.76,1.23,7.03.89,13.01-1.02,17.95-1.91,4.94-4.89,8.98-8.94,12.13-7.73,6.1-16.98,10.08-27.75,11.97l-48.86,8.56-.35-1.97,2.36-.41c3.28-.58,5.86-2.07,7.74-4.5,1.88-2.43,2.61-5.16,2.22-8.21l-16.3-92.98c-.89-4.31-3.4-7.05-7.53-8.22-1.87-.62-3.92-.73-6.15-.34l-2.36.42-.35-1.97,40.19-7.04c19.57-3.43,33.2-.2,40.89,9.69ZM511.79,91.23c-3.43-19.57-20.45-26.67-51.05-21.31l-.34-1.97c23.11-4.05,33.25-14.15,30.42-30.31-2.76-15.76-13.27-22.04-31.53-18.84l-13.4,2.35,18.65,106.38,22.06-3.87c8.93-1.57,15.76-5.1,20.48-10.59,4.72-5.5,6.29-12.78,4.7-21.84Z"/>
  <path d="M584.94,6.8l-10.6-.17-1.61,100.99c.06,4.14,1.88,7.3,5.45,9.49,1.72.96,3.64,1.46,5.78,1.49l2.6.04.17,2-40.99-.66.03-2,2.8.04c3.07.05,5.72-.94,7.95-2.97,2.23-2.03,3.37-4.51,3.42-7.45l1.52-94.99c.05-2.93-1.01-5.42-3.18-7.45s-4.79-3.08-7.85-3.13l-2.8-.04.03-2,50.19.8c12.53.2,22.38,3.23,29.56,9.07,7.17,5.85,10.69,13.44,10.54,22.77-.15,9.33-3.21,17.09-9.17,23.26-5.97,6.17-13.49,9.65-22.57,10.44,4.24,1.94,9.29,7.22,15.15,15.84-.13,0,2.12,2.97,6.76,8.91,4.64,5.94,8.36,10.57,11.18,13.88,2.81,3.31,5.14,5.85,6.98,7.61,4.86,4.75,10.49,7.17,16.89,7.27l-.03,2-6.2-.1c-10.53-.17-18.76-2.37-24.7-6.6-4.48-3.14-8.56-7-12.22-11.6-.78-1.08-4.08-5.83-9.87-14.26-5.8-8.42-8.89-12.91-9.29-13.45-7.06-9.05-13.72-13.62-19.98-13.72l.03-2c15.6.25,25.01-.4,28.23-1.95,4.44-2.2,7.47-4.55,9.11-7.06,3.42-5.28,5.18-11.12,5.28-17.52.13-8.13-2.17-14.44-6.9-18.91-4.73-4.48-11.16-6.98-19.28-7.51-3.6-.19-7.73-.32-12.39-.4Z"/>
  <path d="M668.68,121.47c3.15.54,5.99-.02,8.51-1.69,2.52-1.67,4.09-3.93,4.71-6.8l15.98-93.65c.49-2.89-.21-5.51-2.11-7.87-1.9-2.35-4.42-3.8-7.58-4.34l-2.76-.47.34-1.97,57.57,9.82c5.39.92,10.19,1.33,14.4,1.24,4.21-.09,6.95-.3,8.22-.63l-3.83,22.48-2.13-.57.5-2.96c.47-2.76-.05-5.28-1.55-7.57-1.51-2.29-3.7-3.68-6.59-4.17l-41.01-7-8.54,50.08,33.71,5.75c2.63.45,4.77,0,6.42-1.34,1.65-1.34,2.68-3.2,3.08-5.56l.44-2.56,2.17.37-4.71,27.6-2.17-.37.44-2.56c.63-3.68-.33-6.41-2.86-8.2-.99-.57-2.06-1.03-3.22-1.36l-34.3-5.85-8.54,50.08,30.95,5.28c6.04,1.03,11.32.85,15.82-.55,4.5-1.39,8.08-3.35,10.74-5.88,2.66-2.52,5.51-5.96,8.56-10.31l1.97.34-15.65,26.34-80.04-13.66.34-1.97,2.76.47Z"/>
  <path d="M915.87,197.21l2.77,1.14-.76,1.85-38.46-15.85.69-1.66,2.77,1.14c1.85.76,3.77.73,5.78-.11,2-.83,3.28-2.29,3.85-4.36l21.77-80.15-63.29,54.39c-6.55,6.1-11.3,11.5-14.24,16.2l-1.85-.76-9.14-104.35-39.03,71.09c-1.01,1.75-1.11,3.65-.3,5.72.81,2.06,2.2,3.5,4.17,4.31l2.59,1.07-.69,1.67-34.21-14.1.76-1.85,2.77,1.14c4.44,1.83,8.55,1.65,12.34-.54,1.89-1.09,3.42-2.7,4.58-4.82l56.1-95.21,1.85.76,10.11,114.05,85.86-74.51,1.66.69-26.85,107.69c-.78,3.29-.38,6.33,1.21,9.15,1.58,2.81,3.97,4.88,7.18,6.2Z"/>
  <path d="M1015.13,132.78c11.35,2.06,21.93,6.83,31.72,14.33,9.79,7.5,17.16,16.46,22.12,26.88,4.95,10.42,6.92,21.29,5.9,32.6-1.02,11.31-5.21,21.79-12.59,31.42-7.38,9.64-16.39,16.42-27.04,20.36-10.65,3.93-21.66,4.88-33.01,2.82-11.36-2.06-21.32-6.37-29.9-12.93-8.58-6.56-15.21-13.58-19.92-21.04-4.7-7.46-7.8-15.2-9.29-23.23-1.5-8.03-1.26-16.24.72-24.63,1.97-8.39,6.18-16.8,12.63-25.22,6.44-8.42,14.99-14.59,25.64-18.53,10.65-3.94,21.65-4.87,33.01-2.82ZM953.97,206.61c1.55,14.54,8.25,26.34,20.11,35.42,11.86,9.08,25.03,12.49,39.52,10.23,14.49-2.26,26.8-10,36.93-23.24,10.13-13.23,14.39-27.14,12.79-41.72-1.6-14.58-8.34-26.4-20.19-35.48-11.86-9.08-25.01-12.47-39.44-10.17-14.44,2.3-26.72,10.07-36.85,23.3-10.13,13.24-14.42,27.12-12.87,41.66Z"/>
  <path d="M1039.73,293.97c.93-1.36,3.23-3.68,6.92-6.97,3.68-3.28,7.99-5.96,12.93-8.03l1.6,1.79c-.99.7-1.93,1.45-2.82,2.24-5.38,4.79-8.21,10.48-8.5,17.07-.29,6.59,2.36,13.03,7.95,19.3,5.85,6.57,11.94,10.35,18.25,11.33,6.32.98,11.89-.68,16.72-4.98,4.83-4.3,7.24-9.66,7.24-16.08l-3.6-50.36c-.17-8.42,3.18-15.68,10.05-21.8,3.88-3.46,8.42-5.58,13.61-6.37,5.19-.79,10.46-.13,15.82,1.98,5.35,2.1,10.34,5.75,14.95,10.92,4.61,5.18,8.24,10.16,10.89,14.94l4.39,4.93-16.01,14.8-1.46-1.64c4.18-3.72,6.13-8.05,5.85-12.98-.28-4.93-2.82-10.08-7.6-15.46-4.79-5.38-10.1-8.59-15.94-9.64-5.84-1.05-10.93.36-15.26,4.21-4.33,3.86-6.36,9.15-6.09,15.87l3.57,50.92c.29,7.95-2.94,14.94-9.71,20.97-6.77,6.03-14.78,8.56-24.03,7.6-9.25-.96-17.15-5.13-23.71-12.49-4.34-4.88-8.09-10.29-11.24-16.23-3.15-5.94-4.73-11.23-4.75-15.86Z"/>
  <path d="M1103.9,379.54c-2.42-.4-4.36-1.64-5.83-3.7-1.47-2.06-2.01-4.3-1.6-6.72.4-2.42,1.64-4.36,3.7-5.83,2.06-1.47,4.3-2.01,6.72-1.6,2.42.4,4.36,1.64,5.83,3.7,1.47,2.06,2,4.3,1.6,6.72-.41,2.42-1.64,4.36-3.7,5.83-2.06,1.47-4.3,2-6.72,1.6ZM1167.23,332.63l-40.37,23.65-1.16-1.63,35.61-30.33,47.28-36.69,8.71,12.21-50.07,32.78Z"/>
</svg>