<?xml version="1.0"?>
<svg id="Layer_1" data-name="Layer 1" xmlns="http://www.w3.org/2000/svg" viewBox="0 0 1081.39 368.08" fill="#EFEBDE">
  <path d="M80.86,334.46c-18.75,1.56-36.45-4.69-53.12-18.74-16.67-14.05-25.83-30.44-27.48-49.17-1.65-18.74,4.57-36.46,18.66-53.19,11.51-13.66,25.16-22.82,40.94-27.49l24.14,15.11-1.16,1.38c-10.66-5.14-21.24-6.3-31.74-3.46-10.5,2.84-19.7,8.95-27.6,18.33-11.26,13.36-15.61,27.95-13.08,43.77,2.53,15.83,11.45,30.18,26.75,43.06s30.94,19.31,46.92,19.27c15.99-.04,29.59-6.41,40.81-19.1,9.62-11.42,14.55-23.57,14.77-36.46.23-13.93-6.52-28.16-20.25-42.7l1.03-1.22,22.47,22.07c7.38,22.08,2.9,42.81-13.42,62.18-13.68,16.03-29.89,24.82-48.63,26.37Z"></path>
  <path d="M177.71,250.69c2.57-1.91,4.12-4.34,4.66-7.31.54-2.97-.02-5.67-1.66-8.11l-56.58-76.31c-1.75-2.35-4.13-3.66-7.14-3.92-3.01-.25-5.8.57-8.37,2.47l-2.25,1.67-1.19-1.61,46.91-34.78c4.39-3.25,8.01-6.44,10.85-9.54,2.84-3.1,4.59-5.23,5.23-6.37l13.58,18.31-1.89,1.15-1.79-2.41c-1.67-2.25-3.85-3.62-6.54-4.12-2.69-.49-5.22.13-7.57,1.88l-33.42,24.78,30.26,40.81,27.47-20.37c2.14-1.59,3.3-3.44,3.47-5.56.17-2.12-.46-4.14-1.89-6.07l-1.55-2.09,1.77-1.31,16.68,22.49-1.77,1.31-1.55-2.09c-2.22-3-4.86-4.2-7.9-3.6-1.1.31-2.16.78-3.21,1.38l-27.95,20.73,30.26,40.81,25.22-18.7c4.93-3.65,8.44-7.59,10.54-11.8,2.1-4.21,3.17-8.16,3.18-11.82.02-3.67-.49-8.1-1.53-13.31l1.61-1.19,8.2,29.53-65.23,48.36-1.19-1.61,2.25-1.67Z"></path>
  <path d="M244.63,75.57l-9.65,4.38,41.71,91.98c1.83,3.71,4.82,5.79,8.98,6.25,1.96.14,3.92-.24,5.86-1.12l2.37-1.07,1.01,1.74-37.34,16.93-.83-1.82,2.55-1.16c2.79-1.27,4.76-3.29,5.91-6.09,1.15-2.79,1.12-5.52-.09-8.19l-39.24-86.52c-1.21-2.67-3.23-4.46-6.06-5.38-2.83-.91-5.64-.74-8.43.53l-2.55,1.16-.83-1.82,45.72-20.73c11.41-5.18,21.61-6.65,30.6-4.43,8.99,2.22,15.41,7.58,19.26,16.08,3.85,8.5,4.4,16.82,1.65,24.95-2.76,8.13-8.07,14.5-15.94,19.09,4.66-.06,11.48,2.55,20.47,7.85-.12.06,3.18,1.78,9.92,5.17,6.73,3.39,12.08,5.98,16.04,7.77,3.96,1.79,7.15,3.09,9.56,3.9,6.42,2.22,12.54,2,18.37-.65l.83,1.82-5.65,2.56c-9.59,4.35-17.97,5.88-25.15,4.6-5.4-.92-10.73-2.67-16-5.26-1.17-.64-6.18-3.53-15.02-8.67-8.85-5.14-13.56-7.87-14.14-8.19-10.25-5.16-18.23-6.45-23.93-3.86l-.83-1.82c14.21-6.44,22.44-11.05,24.69-13.83,3.07-3.88,4.81-7.3,5.22-10.27.83-6.23-.07-12.26-2.71-18.09-3.36-7.41-8.13-12.12-14.32-14.15-6.19-2.03-13.07-1.54-20.64,1.46-3.33,1.37-7.13,3.01-11.38,4.94Z"></path>
  <path d="M368.9,145.48c3.12-.7,5.53-2.3,7.23-4.8,1.69-2.5,2.29-5.19,1.77-8.08l-20.79-92.7c-.64-2.86-2.29-5.02-4.94-6.48-2.65-1.46-5.54-1.83-8.66-1.13l-2.73.61-.44-1.95,56.98-12.78c5.33-1.2,9.93-2.64,13.79-4.32,3.86-1.68,6.31-2.92,7.37-3.7l4.99,22.25-2.19.29-.66-2.93c-.61-2.73-2.05-4.87-4.31-6.41-2.26-1.54-4.82-1.99-7.68-1.35l-40.59,9.1,11.12,49.57,33.37-7.48c2.6-.58,4.41-1.81,5.43-3.68,1.02-1.87,1.26-3.97.74-6.31l-.57-2.54,2.15-.48,6.13,27.32-2.15.48-.57-2.54c-.82-3.64-2.74-5.81-5.76-6.5-1.13-.16-2.29-.17-3.49-.04l-33.96,7.62,11.12,49.57,30.64-6.87c5.98-1.34,10.79-3.51,14.42-6.51,3.63-3,6.2-6.17,7.7-9.52,1.5-3.34,2.83-7.61,4-12.79l1.95-.44-4.47,30.31-79.23,17.77-.44-1.95,2.73-.61Z"></path>
  <path d="M626.33,120.28l3-.05.03,2-41.59.7-.03-1.8,3-.05c2-.03,3.75-.83,5.26-2.39,1.5-1.56,2.11-3.4,1.81-5.53l-11.79-82.21-36.54,75.03c-3.6,8.2-5.81,15.04-6.65,20.52l-2,.03-49.77-92.17-7.63,80.74c-.23,2,.43,3.79,1.99,5.37,1.56,1.57,3.41,2.34,5.54,2.31l2.8-.05.03,1.8-37,.63-.03-2,3-.05c4.8-.08,8.5-1.88,11.11-5.39,1.3-1.75,2.07-3.83,2.29-6.24L486.9,1.82l2-.03,54.51,100.69L592.69.03l1.8-.03,18.06,109.51c.59,3.32,2.17,5.96,4.73,7.92,2.57,1.96,5.58,2.91,9.05,2.85Z"></path>
  <path d="M690.72,19.95c11.17-2.88,22.77-2.97,34.81-.27,12.03,2.71,22.48,7.76,31.34,15.15,8.86,7.39,15.19,16.44,19.01,27.13,3.81,10.7,4.39,21.97,1.72,33.8-2.66,11.84-8.01,21.77-16.03,29.81-8.03,8.03-17.63,13.5-28.8,16.38-11.17,2.88-22.03,3.14-32.56.77-10.54-2.37-19.5-5.96-26.89-10.76-7.39-4.81-13.45-10.54-18.17-17.21-4.72-6.66-7.94-14.22-9.66-22.67-1.72-8.45-1.42-17.85.91-28.19,2.33-10.34,7.5-19.53,15.53-27.56,8.02-8.04,17.62-13.49,28.8-16.38ZM666.08,112.6c7.49,12.55,18.53,20.46,33.1,23.74,14.57,3.28,27.96.86,40.17-7.26,12.21-8.12,20.15-20.3,23.81-36.57,3.66-16.26,1.71-30.67-5.85-43.24-7.56-12.57-18.63-20.49-33.19-23.76-14.57-3.28-27.93-.85-40.08,7.28-12.15,8.13-20.05,20.33-23.71,36.59-3.66,16.26-1.74,30.67,5.76,43.22Z"></path>
  <path d="M949.51,117.5c-2.58-1.39-5.28-1.74-8.07-1.04-2.8.69-4.92,2.24-6.36,4.64l-40.33,75.05c-3.66,6.81-6.72,13.49-9.18,20.04l-1.35,3.36-1.59-.85-44.94-136.08-39.48,73.46c-1.39,2.58-1.62,5.26-.68,8.03.93,2.77,2.75,4.88,5.45,6.33l3,1.61-.95,1.76-33.3-17.89.95-1.76,3,1.61c2.7,1.45,5.46,1.8,8.29,1.05,2.82-.75,4.93-2.42,6.32-5l40.52-75.4c3.85-7.16,6.88-13.79,9.09-19.87l1.16-3.01,1.84,1.22,45.14,135.28,39.29-73.11c1.09-2.59,1.15-5.25.19-7.96-.97-2.71-2.74-4.76-5.32-6.15l-2.99-1.61.95-1.76,33.3,17.89-.95,1.76-2.99-1.61Z"></path>
  <path d="M906.24,233.79c2.73,2.34,5.81,3.57,9.22,3.68,3.41.11,6.07-.94,7.98-3.17l61.4-71.71c1.91-2.23,2.54-5.02,1.91-8.37-.64-3.35-2.38-6.25-5.21-8.67l-1.97-1.69,1.3-1.52,34.33,29.4-1.3,1.52-1.97-1.69c-2.73-2.34-5.74-3.6-9.02-3.77-3.28-.17-5.97.77-8.08,2.82l-61.79,72.16c-1.81,2.31-2.37,5.12-1.69,8.43.68,3.31,2.39,6.13,5.12,8.47l1.97,1.69-1.15,1.65-34.49-29.53,1.3-1.52,2.13,1.82Z"></path>
  <path d="M1027.13,365.58l1,1.25-1.57,1.24-25.51-32.1,1.57-1.24,1,1.25c1.57,1.98,3.46,2.96,5.64,2.92,2.18-.04,3.88-.53,5.08-1.48,1.2-.95,2.21-2.1,3.03-3.43l13.98-25.16-31.48-39.62-27.2,7.56c-1.77.55-3.26,1.31-4.46,2.27-1.2.95-2.09,2.51-2.67,4.68-.58,2.16-.04,4.29,1.62,6.38l1,1.25-1.57,1.24-23.76-29.91,1.57-1.24,1,1.25c1.74,2.19,4.26,3.81,7.56,4.85,3.29,1.04,7.04,1.09,11.23.15,67.02-15.96,102.05-24.38,105.1-25.26,5.79-1.71,9.46-3.09,11.01-4.15l1.12,1.41-54.77,106.61c-3.65,7.84-3.48,14.26.5,19.27ZM1006.18,267.53l28.37,35.7,28.97-51.63-57.34,15.93Z"></path>
</svg>