<?xml version="1.0"?>
<svg id="Layer_1" data-name="Layer 1" xmlns="http://www.w3.org/2000/svg" viewBox="0 0 2580.5 2000">
  <defs>
    
  </defs>
  <path class="cls-1" d="M2124.77,1924.53c-3.33-2.73-6.82-5.45-10.37-8.08-1.86-1.38-3.37-1.94-4.67-1.73-1.25.19-2.44,1.09-3.62,2.73-1.28,1.76-4.36,2.7-6.68,2.83-7.71.41-15.55.74-23.14,1.05-7.96.32-16.19.66-24.27,1.11-17.88.97-32.03-4.49-43.38-16.76-8.74-9.44-19.57-12.32-32.18-8.53-4.04,1.22-8.34,3.21-13.51,6.25-10.18,5.99-19.87,12.12-28,17.34-21.74,13.94-42.91,20.9-64.73,21.31-31.95.66-63.66-6.2-93.3-13.22-11.66-2.76-21.27-2.18-30.24,1.84-5.54,2.5-11.03,5.36-16.34,8.14-34.47,18.03-69.13,19.3-103.16,3.84-21.4-9.73-42.33-21.4-62.56-32.7l-6.28-3.5c-9.81-5.47-18.41-7.03-27.08-4.88-7.23,1.78-14.81,4.15-22.51,7.04-23.3,8.72-43.32,13.32-62.99,14.47-24.8,1.47-49.62-3.64-75.84-15.59-10.94-4.99-19.39-4.91-27.4.27-2.14,1.39-4.29,2.75-6.44,4.12-4.26,2.7-8.66,5.5-12.9,8.4-30.88,21.07-66.59,32.78-106.18,34.8-20.22,1.01-37.24-2.71-51.9-11.42-6.18-3.67-12.72-8.68-14.38-17.92-1.93-10.67-9.19-17.27-20.47-18.58-8.45-1-16.76.94-25.36,5.89-6.16,3.54-12.34,7.27-18.32,10.89-4.45,2.7-8.9,5.38-13.38,8.02-20.16,11.88-37.67,20.58-57.64,24.41-21.26,4.1-39.62-1.45-54.56-16.47-9.21-9.27-17.03-19.94-22.8-28.2-7.33-10.5-14.83-13.8-25.9-11.39-5.35,1.16-10.35,3.05-14.46,5.45-4.88,2.85-9.68,6.06-14.32,9.17-3.97,2.65-8.09,5.39-12.24,7.91-2.84,1.73-5.68,3.46-8.51,5.21-11.39,6.99-23.17,14.22-35.3,20.3-15.02,7.54-29.63,9.92-43.49,7.06-11.52-2.38-22.98-5.87-34.06-9.25-3.24-.99-6.48-1.98-9.73-2.94-2.29-.67-4.69-2.42-6.08-4.45-7.74-11.23-15.51-13.89-27.72-9.53-6.06,2.18-11.97,5.21-17.68,8.16l-1.31.67c-23.63,12.13-49.04,24.24-76.87,27.35-34.92,3.84-61.81-6.8-80.01-31.8-13.22-18.15-21.12-35.83-24.14-54.05-.84-5.05-3.77-9.08-8.07-11.05-4.36-1.99-9.43-1.6-13.89,1.11-4.14,2.51-7.71,6.26-11.02,9.89-4.44,4.89-8.85,9.95-13.13,14.86-7.95,9.13-16.17,18.57-24.93,27.2-9.93,9.78-20.32,17.69-30.91,23.5-16.35,8.99-33.84,5.34-46.79-9.72-3.93-4.56-7.15-9.65-10.8-15.88-1.33-2.27-2.07-5.48-1.98-8.59.58-22.09,1.24-44.18,1.89-66.27.47-15.7.93-31.39,1.38-47.09.24-8.7.44-17.21.1-25.65-2.72-66.94,1.8-134.08,6.26-191.77,3.97-51.39,9.84-103.49,15.5-153.88,1.61-14.27,3.21-28.55,4.78-42.83,2.63-23.95,5.55-48.28,8.38-71.79,3.21-26.67,6.52-54.24,9.41-81.39,2.76-25.78,4.68-52.1,6.55-77.55.46-6.31.92-12.62,1.4-18.93.35-4.8,3.31-5.29,6.17-5.75,53.59-8.77,107.37-11.56,159.86-8.25,62.83,3.94,127.04,4.91,196.3,2.98l7.96-.23c63.27-1.78,128.7-3.64,193.14-1.22,13.21.49,27.16.56,41.47.21,76.23-1.9,156.92-1.11,246.6,2.41,54.49,2.13,109.93,3.54,163.55,4.91,13.13.33,26.27.67,39.4,1.02,17.3.45,34.89.73,51.91,1,27.72.44,56.39.91,84.55,2.12,83.6,3.57,165.17,12.07,255.51,21.97,38.77,4.25,78.5,5.9,116.92,7.49,13,.54,26.43,1.1,39.62,1.75,19.04.91,37.74-2.55,55.52-10.4,4.4-1.94,7.41-5.01,8.47-8.65,1.02-3.5.23-7.32-2.27-11.04-2.02-2.99-5.29-7.04-9.46-9.28-1.28-.69-2.56-1.4-3.85-2.1-7.51-4.13-15.28-8.41-23.38-10.11-17.79-3.75-36.15-6.29-54.57-7.57-74.59-5.19-141.09-9.4-203.28-12.87-16.8-.94-33.62-1.9-50.42-2.86-69.77-4-141.92-8.14-212.93-10.45-78.91-2.56-159.17-4-236.79-5.38-34.23-.61-68.45-1.22-102.69-1.93l-8.2-.21,2.09-1.51c2.25-1.62,4.55-2.17,6.5-2.5,6.71-1.11,13.43-2.2,20.15-3.28,13.86-2.24,28.19-4.55,42.23-7.09,16.58-3.01,33.87-7.42,47.92-19.29,12.66-10.69,18.91-25.09,17.14-39.5-1.71-13.92-10.81-25.91-24.97-32.88-12.08-5.95-24.95-9.94-37.22-11.54-63.4-8.27-124.54,3.18-181.64,34-18.12,9.77-31.62,23.5-40.1,40.78-1.69,3.44-2.32,6.22-1.81,8.06.5,1.79,3.49,3.82,5.72,4.37,1.06.28,1.92.15,2.56-.31.88-.65,1.42-2,1.54-3.9.13-1.98,1.31-3.82,2.34-5.45.42-.66.84-1.31,1.15-1.94l1.09-2.12.53,2.32c.66,2.84,1.12,5.72,1.57,8.52,1,6.22,1.95,12.1,4.8,16.76,2.81,4.6,7.73,8.07,12.48,11.44,2.08,1.48,4.24,3,6.17,4.59l1.79,1.48-36.89.88c-17.79.42-35.89.73-53.39,1.02-39.76.67-80.87,1.36-121.22,3.46-55.65,2.89-120.45,5.77-185.21,3.08-67.22-2.75-146.5-3.15-225.35,14.92-.71.16-1.42.06-2.29-.06-.44-.06-.93-.13-1.51-.18l-1.62-.14,1.02-1.27c.68-.84,1.28-1.6,1.83-2.29,1.02-1.3,1.89-2.41,2.83-3.46,13.31-15.06,26.63-30.1,39.95-45.15l28.64-32.36c7.49-8.46,15.23-17.21,16.06-29.61.17-2.39,4.52-4.38,5.01-4.6,21.25-9.36,45.33-19.96,65.81-35.48.66-.5,1.41-.84,2.27-1.22.42-.19.88-.4,1.38-.66l1.82-.92-.6,1.95c-3.1,10-.99,14.98,8.07,19.04,4.35,1.94,8.17,3.14,11.68,3.68,17.7,2.69,35.99,5.47,54.1,7.58,51.98,6.07,103.27-3.15,152.41-27.39,10.45-5.15,20.34-12.6,27.82-20.99,6.75-7.54,10.02-16.7,9.24-25.78-.79-9.21-5.71-17.82-13.82-24.24-5.85-4.62-13-7.89-19.91-11.06-2.91-1.33-5.92-2.72-8.8-4.18-1.22-.62-2.57-1.01-4-1.42-.67-.19-1.34-.38-2-.6l-3.1-1.02,3.19-.65c6.16-1.25,12.14-1.62,17.92-1.97,1.4-.09,2.79-.17,4.19-.27,6.08-.44,10.67-1,14.9-1.81,3.53-.69,7.69-2.76,7.38-8.72-.22-4.4-2.81-6.64-8.65-7.49-.8-.12-1.65-.18-2.51-.19l-18.96-.08c-25.21-.12-51.26-.25-76.92-.25h-1.67c-2.72,0-6.49.35-9,1.97-2.11,1.38-4.51,4.68-4.33,6.73.17,1.9,3.19,4.65,5.55,5.56,2.09.81,4.47.9,6.97,1,1.28.05,2.59.1,3.88.25,1.54.19,3.07.5,4.55.81.64.14,1.29.27,1.93.39l.97.19-.74,2.23-55.33,9.82-.32-.45c-.24-.33-.48-.68-.71-1.02l-.44-.64,82.3-69.82.48,1.04c4.55,9.93,15.37,12.81,24.07,15.12,25.84,6.86,53.2,6.45,83.67-1.25,17.61-4.45,40.18-11.54,58.4-26.93,8.54-7.2,13.23-16.55,13.2-26.31-.03-9.85-4.83-19.28-13.53-26.54-4.49-3.74-10.11-7.13-17.2-10.37-17.02-7.76-35.27-10.51-54.3-8.15-12.37,1.53-24.55,3.84-37.44,6.28-5.8,1.1-11.7,2.21-17.75,3.29l-1.27.22.27-1.26c.23-1.07.44-2.14.66-3.22.47-2.38.95-4.85,1.63-7.24.6-2.1,1.36-4.2,2.09-6.22,1.24-3.44,2.54-7,3.03-10.56.97-7.09-.68-13.87-4.68-19.12-4.14-5.43-10.53-8.97-18.01-9.97-9.11-1.18-18.1.49-27.56,5.16-15.71,7.76-29.9,19.46-44.65,36.82-4.53,5.34-9.94,10.02-15.18,14.55-2.34,2.03-4.77,4.13-7.08,6.26l-2.11,1.95.68-2.79c14.58-59.68,10.71-115.98-11.81-172.11l-.59-1.48,1.56.3c2.81.55,5.66,1.11,8.55,1.68,6.1,1.21,12.4,2.45,18.68,3.6,15.05,2.73,30.26,5.97,44.97,9.11,30.06,6.41,61.15,13.04,92.39,15.62,8.19.68,13.89,1.74,18.33,10.09,4.86,9.13,16.09,11.9,25.11,14.13,26.09,6.44,53.16,6.08,80.46-1.06,9.73-2.55,19.71-7.2,28.11-13.11,6.82-4.78,11.05-12.66,11.63-21.62.58-9.06-2.77-17.85-8.97-23.49-4.72-4.31-10.83-5.4-14.55-2.61-4.47,3.36-3.49,7.6-1.75,12.8.17.53.37,1.04.57,1.56.19.51.39,1.02.57,1.53,2.35,6.92,3.44,11.94,1.56,15.59s-6.62,5.7-13.65,7.8c-1.94.59-4.06,1.1-6.47,1.58-20.24,4.04-40.85,4.53-61.27,1.51-2.52-.38-5.05-.86-7.51-1.34-1.18-.22-2.36-.45-3.54-.67l-1.6-.29,1.13-1.16c1.65-1.7,3.11-2.14,4.44-2.37,33.12-5.58,62.89-20.76,91.02-46.41,7.82-7.13,15.93-14.18,23.79-21.01l6.41-5.58c.94-.82,2-1.46,3.33-2.27.68-.41,1.42-.86,2.27-1.4l1.46-.95-.39,5.32c-.16,2.12-.29,3.84-.37,5.57-.23,5.23-.48,10.47-.74,15.71-.66,13.4-1.33,27.26-1.51,40.89-.06,5.37.84,10.84,1.73,16.12.4,2.42.79,4.81,1.1,7.18l.1.77-.76.18c-2.07.49-4.28.96-6.57,1.45-5.5,1.18-11.19,2.41-16.83,4.2-10.31,3.28-16.23,10.98-17.14,22.26-.34,4.27-.39,8.65-.43,12.89-.03,2.28-.05,4.56-.12,6.83-.15,5.44-.28,10.89-.41,16.33-.32,13.44-.64,27.34-1.44,40.99-.63,10.98-2.55,22.18-12.23,29.63-8.78,6.76-13.39,15.84-14.1,27.77-3.26,54.77-6.32,110.63-9.02,159.92-.17,3.12.15,6.37.46,9.5l.15,1.55c1.72,18.1,10.86,27.97,28.77,31.06,4.13.71,8.37,1.22,12.48,1.72,3.03.37,6.05.73,9.06,1.18,19.98,2.92,29.06-3.28,32.56-22.18,7-37.7,10.02-69.08,9.53-98.73-.31-18.61.12-36.97.62-54.06.38-12.93.06-28.18-5.21-43.23-.62-1.77-.34-3.86-.09-5.7l.06-.39c.25-1.89.6-3.77.95-5.61.57-3.03,1.15-6.16,1.26-9.22.97-28.34,1.91-59.52,2.94-98.14.26-10.18-.1-19.24-7.35-27.13l-1.18-1.29,1.74-.17c10.47-.98,12.86-8.14,13.82-15.01.14-1.02.3-2.05.46-3.06.38-2.4.77-4.88.88-7.31.24-5.36.48-10.73.73-16.09.82-17.81,1.68-36.23,2-54.34l.03-1.69c.24-13.73.46-26.7,10.76-37.67,1.94-2.08,2.85-5.7,3.41-8.61.97-4.99-.82-9.09-5.29-12.19-4.41-3.05-8.69-2.75-12.09.79-2.76,2.88-5.6,5.73-8.43,8.58-8.34,8.38-16.97,17.05-23.89,26.66-16.94,23.54-39.38,43.44-72.76,64.49-9.15,5.78-19.41,9.82-29.99,13.79-29.11,10.96-59.19,7.58-85.11,3.56-18.57-2.88-37.37-6.26-55.55-9.53-13.71-2.47-27.89-5.01-41.85-7.33-15.93-2.63-30.22-4.39-43.71-5.36-4.99-.34-8.57.54-10.51,2.7-1.96,2.18-2.47,5.72-1.56,10.81l.16.86-.87.15c-4.2.69-6.41,1.64-7.38,3.17-.99,1.56-.88,4.06.36,8.35,7.2,25.11,11.39,50.03,12.46,74.06,1.01,22.61-2.74,45.1-6.38,66.86l-.45,2.72c-.19,1.09-.38,2.19-.58,3.29-1.59,8.85-3.1,17.21,2.72,25l.51.68-.68.53c-3.06,2.34-6.08,4.69-9.08,7.02-7.18,5.57-13.96,10.83-21.06,15.99-7.29,5.29-15,10.04-21.58,14-2.04,1.2-5.4,1.95-7.49,1.09-11.16-4.62-23.12-4.15-36.55,1.44-12.35,5.14-24.77,10.7-36.8,16.08-5.61,2.51-11.22,5.02-16.84,7.5-.8.35-1.63.59-2.51.84-.4.12-.82.24-1.26.37l-.87.27-.23-.88c-.15-.57-.29-1.09-.44-1.58-.29-1.01-.55-1.89-.64-2.82-.63-6.5-1.29-13-1.95-19.5-1.67-16.59-3.41-33.75-4.68-50.67-.59-7.84-.77-15.84-.95-23.59-.28-12.37-.57-25.17-2.52-37.47-3.08-19.42-7.66-38.94-12.08-57.82-1.98-8.45-4.03-17.2-5.92-25.82l-.09-.41c-.45-2.03-.95-4.33-.45-6.37,1.29-5.14,2.73-10.33,4.12-15.35,1.42-5.13,2.89-10.44,4.2-15.68,1.46-5.83,2.75-11.83,4-17.64,2.41-11.14,4.89-22.65,8.61-33.57,11.64-34.11,34.89-61.38,58.28-85.78,17.9-18.68,28.38-38.58,32-60.84.76-4.67,1.86-8.41,3.36-11.45,1.83-3.69,1.35-5.56-1.95-7.67-1.66-1.08-3.41-3.57-3.35-5.57.5-19.52-3.88-39.71-13.84-63.53-11.94-28.61-17.03-60.21-15.12-93.93,1.83-32.35,24.06-56.5,56.61-61.54,24.28-3.77,45.76,4.92,63.68,25.81,10.76,12.54,20.41,28,27.91,44.71,7.82,17.4,19.87,28.84,37.92,36.01,7.72,3.07,10.99,7.96,10.61,15.85-.13,2.85-.85,5.97-2.25,9.79-4.01,10.93-2.52,19.85,4.53,27.28,3.71,3.89,1.96,7.43.28,10.85l-.12.26c-3.2,6.53-6.5,13.28-9.09,20.24-2.41,6.44-4.35,13.19-6.22,19.71l-1.02,3.5c-2.9,10.02-8.68,17.2-17.65,21.96-6.41,3.4-11.9,6.75-16.77,10.23-17.88,12.77-24.88,31.56-19.75,52.92,4.48,18.59,13.4,32.5,26.51,41.33,21.06,14.2,45.66,30.46,71.12,43.74,19.6,10.21,38.72,20.42,56.99,33.04,7.93,5.47,15.75,9.95,23.24,13.33,4.03,1.82,9.99,2.67,12.93.97,4.25-2.47,8.53-2.98,12.66-3.48,1.48-.17,2.97-.35,4.47-.62l1.58-.28c5.29-.92,10.76-1.88,15.08-4.44,2.88-1.71,5.76-3.4,8.65-5.09,14.84-8.73,30.19-17.75,43.94-28.34,8.64-6.66,17.07-13.89,25.22-20.9,13.32-11.43,27.1-23.25,42.24-32.99,6.74-4.33,12.5-10.41,17.25-15.79,2.7-3.06,3.97-6.66,3.59-10.15-.35-3.08-2-5.85-4.67-7.78-3.33-2.41-3.89-4.78-3.76-8.3.25-6.99-4.4-12.08-11.57-12.68-2.49-.21-5.05-.17-7.53-.12-2.7.06-5.51.1-8.28-.18-3.77-.38-8.02-1.06-10.93-3.25-9.96-7.47-13.88-17.94-18.34-31.94l-.5-1.58,6.19,1.9c22.8,7.06,44.33,13.73,69.19,4.65l1.6-.58-6.17,21.64c5.62-4.91,9.19-11.21,10.39-18.38.55-3.27,2.55-6.91,4.98-9.04,10.31-9.09,11.77-20.95,3.91-31.74-1.87-2.57-4.14-5.03-6.56-7.09-22.93-19.56-51.09-26.32-86.01-20.61-7.83,1.27-13,4.28-15.35,8.94-2.54,5.02-1.67,11.99,2.5,20.17l.43.85-.88.35c-8.78,3.48-11.99,10.43-10.42,22.52,2.26,17.33,6.79,32.21,13.86,45.48,8.46,15.92,19.87,25.31,34.89,28.7.63.14,1.13.51,1.66.91.23.17.46.35.73.52l.91.57-.75.77c-1.31,1.33-2.56,2.63-3.79,3.91-2.61,2.7-5.06,5.25-7.64,7.72-28.87,27.5-57.75,53.68-93.53,71.63-5.67,2.85-11.88,4.79-17.88,6.66-1.69.53-3.37,1.05-5.03,1.59-1.92.63-4.76.68-6.45-.39-8.06-5.14-16.02-10.48-23.72-15.64l-7.51-5.03.17-.6c.53-1.98,1.13-3.9,1.71-5.79,1.24-3.99,2.41-7.76,2.84-11.61,3.88-34.23-.3-67.18-12.43-97.92-2.95-7.49-6.87-14.77-10.66-21.81-3.48-6.47-7.09-13.15-9.96-20.04-2.02-4.85-3.78-9.9-5.47-14.79-4.29-12.32-8.72-25.06-17.78-35.45l-.56-.64.64-.57c1.28-1.15,2.48-2.26,3.64-3.32,2.32-2.14,4.52-4.15,6.77-6.05,16.49-13.78,21.75-30,16.11-49.58-1.05-3.64,1.31-9.47,4.08-12.44,11.3-12.08,11.47-20.9.64-32.5-4.86-5.23-6.68-10.98-5.89-18.68l.62-5.82c1.47-13.78,2.98-28.02,2.34-41.9-1.09-23.58-11.8-40.36-31.86-49.86-14.97-7.09-32.18-9.85-51.02-8.25-27.03,2.32-50.71,12.55-78.84,25.69l-.24.11c-.78.36-1.76.81-2.05,1.34-2.82,5.2-7.02,4.09-10.71,3.14l-1.08-.28c-56.17-13.92-95.39,19.43-108.13,56.24-.29.82-.66,1.56-1.14,2.51-.24.5-.52,1.04-.82,1.69l-.59,1.25-2.03-2.53c-1.04-1.29-1.91-2.37-2.8-3.44-23.68-28.55-50.18-45.59-81.04-52.09-9.08-1.91-18.29-4.01-27.19-6.03-15.1-3.44-30.71-6.98-46.2-9.76-14.72-2.63-31.89-5.27-48.82-5.27-1.09,0-2.17,0-3.25.03-21.9.46-38.24,8.65-48.57,24.34-.87,1.32-2.32,2.26-3.6,3.08-25.24,16.13-42.27,40.24-52.18,73.79-4.38,14.83-4.48,31.02-.33,52.51,2.27,11.74,1.01,21.24-3.97,29.88-2.21,3.82-4.6,8.36-5.74,13-.26,1.04-.53,2.1-.81,3.17-1.51,5.77-3.06,11.73-2.11,17.03,5.34,29.74,19.32,49.03,42.73,58.96,19.04,8.07,19.35,8.62,16.44,29.08-2.52,17.77-7.64,35.28-27.82,43.11-29.58,11.49-52.44,33.36-69.89,66.87-22.47,43.15-32.47,89.16-40.58,144.97-1.06,7.33-1.4,14.91-1.71,22.24-.35,8.03-.71,16.32-2.03,24.35-18.92,115.25-22.48,218.48-10.88,315.56,1.94,16.31,4.14,29.27,6.91,40.78,1.52,6.35,5.03,13.14,9.64,18.64,2.52,3.01,5.79,4.39,9.03,3.81,3.56-.64,6.57-3.55,8.07-7.77,1.16-3.28,2.52-7.6,2.72-11.91.51-11.55,1.09-23.11,1.68-34.67,1.53-30.27,3.12-61.56,3.27-92.35.05-11.27.02-22.54,0-33.81-.1-47.7-.21-97.03,5.65-145.39.49-4.02.86-8.16,1.21-12.17.89-10.12,1.81-20.59,4.78-30.29,10.53-34.43,16.35-65.62,17.78-95.36.84-17.56,2.44-31.96,5.03-45.28,9.29-47.81,28.24-80.74,59.63-103.6,15.41-11.23,25.06-27.55,29.47-49.89,1.31-6.58,2.14-13.38,2.95-19.96.3-2.45.6-4.91.93-7.37,2.2-16.49-3.58-27.98-17.68-35.11-10.3-5.21-17.41-13.34-21.14-24.15-.99-2.85-2.26-5.61-3.79-8.21-7.72-13.11-7.49-26.03.71-39.51,4.78-7.85,6.71-16.82,5.92-27.4-.23-3.01-.51-6.03-.79-9.04-.53-5.65-1.08-11.5-1.22-17.28-.85-32.3,11.75-60.68,40.86-91.99,2.08-2.25,5.43-3.4,8.39-4.42l.62-.21c16.52-5.77,33.86-5.97,53.01-.62l6.78,1.9c28.26,7.92,57.48,16.11,87.29,20.18,22.16,3.02,43.31,13.45,64.64,31.87,5.82,5.03,9.19,11.32,10.03,18.7,3.1,27.3-.75,46.96-12.51,63.75-1.75,2.5-3.21,5.2-4.29,7.28-5.12,9.93-4.16,18.3,3.11,27.14,2.69,3.28,5.72,7.21,7.78,11.56,5.71,12.01,8.32,25.78,7.98,42.12-.1,5.44-2.43,11.51-5.63,14.76-16.56,16.77-26.88,31.51-33.46,47.79-7.2,17.81-19.56,27.8-36.74,29.67-13.31,1.44-22.69,9.07-27.86,22.67-5.14,13.49-7.02,28.4-6.12,48.32.53,11.32,3.6,20.9,9.42,29.26,7.47,10.75,12.84,23.29,16.89,39.46,1.11,4.44,2.12,8.99,3.08,13.38,1.22,5.52,2.47,11.23,3.96,16.76,18.33,68.3,27.4,129.18,27.73,186.13.11,18.22,3.64,36.26,6.69,49.94,2.09,9.32,6.51,15.94,12.79,19.12,6.62,3.36,15.18,2.9,24.74-1.29,2.88-1.26,5.75-2.52,8.63-3.79,10.43-4.6,21.21-9.35,32-13.6,4.51-1.77,9.3-2.94,13.94-4.07,2.52-.62,5.11-1.25,7.62-1.98,4.36-1.23,6.35.85,7.98,4.38,1.62,3.5,3.45,7,5.23,10.38,2.87,5.45,5.83,11.09,7.97,16.96,3.44,9.44,5.25,19.37,6.71,28.7.48,3.07-2.21,7.67-4.74,9.42-4.36,3.01-8.72,6.04-13.07,9.07-19.33,13.45-39.32,27.35-59.66,39.94-23.17,14.33-49.33,25.33-77.77,32.7-30.3,7.85-52.73-1.91-66.66-29.06-8.12-15.86-14.7-31.87-19.53-47.58-6.28-20.37-12-41.28-17.54-61.49-3.31-12.08-6.73-24.56-10.23-36.8-3.25-11.35-7.27-23.67-12.64-38.77-.81-2.26-3.71-4.96-5.36-4.99h-.03c-1.85,0-4.47,3.21-5.88,4.93-.86,1.04-1.38,2.94-1.4,5.06-.02,1.76-.08,3.53-.15,5.29-.19,5.18-.39,10.53.53,15.53,1.23,6.67,2.45,13.35,3.66,20.03,5.42,29.77,11.03,60.55,18.03,90.47,4.17,17.79,10.73,36.45,20.65,58.74,15.67,35.18,43.22,52,82.19,50,1.59-.09,3.15-.01,4.8.06.73.03,1.47.07,2.21.09l1.03.02-.2,1.01c-.07.36-.1.65-.13.88-.07.53-.12.97-.47,1.34l-4.88,5.16c-12.8,13.53-26.03,27.51-39.17,41.14-1.32,1.38-4.3,2.13-5.99,1.5-9.44-3.47-19.85-4.04-32.77-1.74-19.67,3.47-39.63,7.18-58.93,10.77-15.57,2.9-31.15,5.79-46.74,8.6-4.33.78-8.67,1.58-13,2.37-32.12,5.88-65.33,11.95-98.69,13.03-9.36.35-21.51-.13-32.41-6.26-2.71-1.51-4.85-3.65-5.74-5.71-1.42-3.31-3.31-5.37-5.46-5.97-1.85-.52-3.95.05-6.23,1.68-3.6,2.59-6.66,6.57-7.78,10.15-4.06,12.81-.34,24.3,11.37,35.12,9.57,8.84,20.53,14.14,31.7,15.32,17.49,1.85,34.62,3.4,51.66,2.16,53.01-3.87,109.31-13.3,177.17-29.66,1.6-.39,3.2-.73,5-1.13l4.29-.95-.13,1.21c-.09.8-.17,1.6-.25,2.38-.77,7.6-1.49,14.79-11.41,17.46-4.26,1.15-8.16,4.32-11.93,7.38-.68.55-1.36,1.1-2.03,1.63-3.19,2.53-6.08,7.14-3.69,11.82.94,1.85,3.13,3.16,5.45,4.54,1.06.64,2.16,1.29,3.13,2.01l.23.24c1.16,1.88.92,4.67.52,7.87-.91,7.28-1.85,14.56-2.77,21.84-1.71,13.42-3.43,26.85-5.07,40.27-1.35,10.99-2.61,22.18-3.84,33.01-2.48,22.04-5.05,44.82-8.5,67.09-13.56,87.46-21.96,155.01-27.24,219.02-5.74,69.63-14.14,138.33-24.96,204.17-9.49,57.8-10.13,116.68-9.97,172.04.03,9.71,2.68,20.83,7.44,31.32,3.73,8.22,9.38,13.34,16.33,14.83,7.27,1.53,15.33-1.16,22.66-7.64.41-.37.92-.55,1.44-.75.24-.09.5-.19.79-.32l.66-.29,1.56,2.32c.84,1.24,1.66,2.48,2.51,3.7,9.92,14.24,23.72,22.49,41.03,24.52,13.8,1.65,27.77-1.42,42.62-9.3,21.89-11.62,42.07-27.57,59.97-47.41l6.06-6.68.59,1.06c1.44,2.61,2.85,5.16,4.24,7.65,3.17,5.7,6.19,11.14,9.14,16.63,12.21,22.79,30.54,38.7,54.46,47.27,16.42,5.88,32.83,8.5,48.84,7.86,36.24-1.51,68.14-7.85,97.56-19.35,12.93-5.07,22.59-4.29,34.44,2.74,36.24,21.49,75.4,24.06,116.39,7.65,21.01-8.41,40.59-19.03,58.22-31.56,1.06-.75,2.16-1.42,3.32-2.14.55-.34,1.12-.69,1.71-1.06l.68-.43.48.64c1.44,1.95,2.84,3.87,4.21,5.77,2.9,4.01,5.64,7.79,8.62,11.44,20.61,25.23,46.98,37.37,78.1,36.21,21.84-.83,43.74-6.35,65.07-16.4,8.9-4.2,17.84-8.72,26.49-13.09,7.17-3.62,14.58-7.36,21.94-10.91,2.12-1.02,6.5-1.36,8.18.3,21.71,21.08,49.49,30.66,82.78,28.38,19.56-1.33,39.46-4.31,58.05-7.34,30.31-4.94,54.75-11.79,75.54-29.15,1.76-1.48,5.78-.93,8,.01,25.27,10.76,51.81,17.03,78.86,18.64,38.83,2.29,76.1-5.11,110.83-21.98,4.43-2.15,8.13-2.91,12.89,0,3.26,1.99,6.52,3.99,9.77,5.99,12.63,7.76,25.69,15.78,38.87,23.03,32.98,18.1,67.09,23.23,101.34,15.28,14.45-3.35,29.65-8.03,46.47-14.28,9.12-3.38,16.8-3.25,25.67.44,42.73,17.81,86.21,22.02,129.25,12.51,31.53-6.97,58.35-23.07,78.19-36.31,4.53-3.03,8.29-3.4,13-1.28,9.16,4.11,18.57,8.08,27.68,11.92,4.5,1.9,9,3.79,13.49,5.72,18.25,7.8,36.96,9.57,55.59,5.25,13.19-3.06,23.2-9.53,29.74-19.25,7.87-11.68,6.06-23.96-4.83-32.87ZM1044.23,1028.06c.9-14.57,6.64-23.08,18.62-27.59,43.74-16.46,85.77-24.17,128.45-23.4,1.02.01,2.03.19,3.19.39.61.1,1.26.21,2.01.32l.97.14-.26.95c-2.49,8.92-6.71,15.75-13.29,21.52-2.82,2.47-5.54,6.44-5.09,8.41.64,2.82,3.72,5.46,6.43,7.78l1.23,1.06c1.09.95,3.62.97,5.12.98h.2c8.49,0,17.24-4,24.03-11,6.9-7.11,10.68-16.15,10.36-24.8-.02-.48.06-.95.17-1.59.06-.35.14-.77.22-1.3l.12-.86.86.12c12.3,1.79,25.21,4.2,36.03,12.12,7.08,5.17,8.52,13.89,3.59,21.71-6.29,9.97-14.35,16.18-23.95,18.44-14.39,3.39-29.88,6.69-50.21,10.71-9.34,1.85-18.81,3.46-27.96,5.03-4.13.71-8.24,1.41-12.29,2.13l-1.44.25.47-1.38c.56-1.65,1.14-3.22,1.71-4.76,1.24-3.37,2.41-6.55,3.11-9.79.41-1.88.08-3.67-.97-5.18-1.31-1.9-3.69-3.24-6.53-3.66-6.45-.97-11.83,1.64-15.96,7.71-4.02,5.9-3.29,11.36,2.31,17.21l1.19,1.24-1.71.21c-1.41.18-2.69.38-3.9.57-2.39.38-4.46.7-6.57.7-1.75-.02-3.62-.01-5.44-.01-3.68,0-7.35.02-11.03.03-3.61.02-7.26.03-10.91.03-11.23,0-22.64-.16-33.86-1-16-1.19-20.09-6.24-19.02-23.5ZM1032.6,904.94c-1.51,6.32-3.77,12.54-5.96,18.55-.79,2.16-1.57,4.31-2.32,6.47-1.26,3.65-3.48,5.45-6.73,5.45-.92,0-1.92-.15-3.01-.44-3.25-.85-6.62-1.53-9.87-2.19-4.38-.88-8.9-1.8-13.24-3.15-2.78-.86-5.54-4.6-6.16-7.39-.8-3.56-.6-7.35-.41-11.01.04-.77.08-1.55.12-2.32.81-19.69,1.63-39.38,2.46-59.07,1.23-29.48,2.47-58.96,3.65-88.45.12-3.18,0-6.44-.14-9.59-.12-2.88-.24-5.86-.17-8.8.06-2.19,1.16-4.77,2.63-6.12,13.86-12.86,20.56-28.84,20.5-48.85-.03-9.34-.12-18.68-.21-28.03-.08-7.35-.15-14.7-.19-22.05-.02-2.89.11-5.93.41-9.3,1.04-11.86,2.97-13.42,17.2-13.94l.93-.03-.25,9.73c-.18,7.4-.36,14.61-.57,21.81-.2,6.95-.53,14.03-.84,20.88-.7,15.17-1.42,30.86-.84,46.23.61,15.97,2.24,32.18,3.82,47.85.99,9.85,2.02,20.03,2.78,30.06,2.67,35.15,5.69,74.99-3.59,113.69ZM1010.36,310.19l1.02-.42c.45-.19.91-.45,1.38-.71,1.18-.66,2.38-1.36,3.59-1.06,18.69,4.64,36.71,9.32,58.31,14.95.58.15.91.59,1.46,1.32.29.4.68.93,1.25,1.6l1.02,1.22-1.58.2c-1.68.21-3.26.49-4.77.75-2.68.46-5.23.9-7.73.9-.39,0-.77-.01-1.15-.03-15.66-.92-31.59-5.29-48.71-13.38-1.19-.56-1.9-1.81-2.59-3.01-.28-.49-.56-.98-.86-1.41l-.65-.89ZM824.34,333.2c1.91,6.48,3.89,13.19,5.93,19.76,12.47,40.26,15.89,74.63,10.77,108.17l-.15.97-.95-.27c-.39-.11-.81-.22-1.24-.33-1-.26-2.14-.56-3.23-.96-22-8.07-41.79-20.79-60.91-33.1-5.25-3.37-10.67-6.86-16.05-10.2-9.32-5.78-15.86-15.24-19.44-28.11-3.08-11.09-.19-20.08,8.58-26.71,3.86-2.91,7.92-5.66,11.85-8.33l2.23-1.51c11.72-7.98,19-18.55,22.27-32.31,1.77-7.47,4.24-17.25,7.7-26.67,1.4-3.82,3.64-7.36,5.8-10.79.97-1.54,1.95-3.08,2.85-4.65l.31-.54,4.58.85.17.44c1.09,2.7,2.21,5.39,3.34,8.08,2.47,5.88,5.03,11.96,7.03,18.12,3.03,9.31,5.85,18.85,8.57,28.08ZM712.08,77.1l.27-.74.37.35c24.78-8.86,54.28-16.62,85.31-7.19,20.66,6.28,29.6,18.05,29.88,39.36.17,12.45-.3,25.53-1.35,38.9-.99,12.49,2.49,22.46,10.63,30.48,3.31,3.26,3.51,6.12.68,9.55-8.43,10.21-10.62,20.98-6.69,32.91,3.32,10.04.36,19.31-8.54,26.83-2.52,2.12-5.06,4.21-7.87,6.53l-5.18,4.29-.14-1.66c-1.12-13.7-6.11-23.22-15.72-29.94-1.55-1.09-1.96-4.2-1.76-5.97.19-1.65.82-3.22,1.43-4.74.3-.75.6-1.51.85-2.27,2.57-8.03,1.67-15.95-2.49-21.73-4.07-5.66-10.81-8.84-18.97-8.95-7.43-.09-12.37-3.29-15.09-9.76-3.77-8.97-7.29-17.76-9.06-26.78-3.99-20.23-8.33-38.16-21.06-52.68-3.19-3.64-6.67-6.95-10.35-10.45-1.57-1.49-3.16-3.01-4.75-4.56l-.6-.06-.1-.71c-.03-.28.05-.69.3-1ZM494.12,511.05c-1.28,4.11-2.61,8.36-4,12.45l-.62,1.82-.95-1.66c-.98-1.71-1.94-3.59-2.94-5.56-2.26-4.43-4.82-9.46-8.27-13.56-13.93-16.56-12.41-35.03-8.7-52.51,1.15-5.39,3.82-8.02,9.2-9.06,29.86-5.74,48.71-24.63,54.52-54.64,2.02-10.41,5.54-17.94,11.41-24.42,6.26-6.91,11.5-15.06,16.13-22.24,9.12-14.16,9.02-29.67,6.08-48.59-2.81-18.06-8.18-31.6-16.86-42.61-1.18-1.5-1.57-4.53-.77-6.11,3.06-6.15,6.39-12.23,9.31-17.6.91-1.67,1.79-3.28,2.63-4.82l.86-1.6.71,1.68c2.46,5.88,4.97,11.81,7.51,17.81,5.86,13.87,11.92,28.2,17.68,42.55,4.88,12.15,5.93,25.13,6.95,37.69.21,2.56.41,5.14.66,7.7,2.5,26.74-12.01,44.49-28.07,59.68-14.79,14.01-25.55,31.44-35.94,48.3l-.71,1.14c-8.9,14.41-18.17,29.95-25.58,45.91-4.22,9.07-7.26,18.82-10.2,28.24ZM806.76,749.57c5.04-.75,10.07-1.51,15.1-2.27,19.61-2.96,39.89-6.03,59.91-8.55,12.7-1.58,25.51,1.19,39.24,8.5,4.81,2.57,6.82,4.51,6.93,6.68.1,2.21-1.77,4.39-6.48,7.53-17.17,11.43-37.24,18.61-63.15,22.56-8.84,1.35-17.63,1.9-26.39,1.9-16.24,0-32.43-1.89-48.82-4.06l-1.4-.18,5.34-7.85c5.06-7.44,9.84-14.47,14.81-21.48,1.1-1.57,3.32-2.54,4.92-2.78ZM637.5,793.36c1.19-3.49,3.53-6.16,6.41-7.31,22.94-9.17,43.49-23.24,63.35-36.84,6.1-4.19,12.43-8.52,18.72-12.64,7.67-5.03,13.51-14.12,17.23-20.52,9.2-15.86,20.77-27.01,35.36-34.09,4.51-2.18,10-2.7,14.28-2.9,2.97-.21,5.45.77,6.82,2.58.95,1.25,1.83,3.52.62,7.15-1.62,4.85-2.98,9.91-4.29,14.8-3.44,12.88-7,26.21-15.91,37.25-2.31,2.85-4.58,5.74-6.86,8.63-7.42,9.41-15.1,19.13-23.7,27.68-27.62,27.51-59.36,48.92-92.97,71.59l-6.1,4.11-.12-1.48c-.09-1.17-.19-2.21-.28-3.17-.17-1.82-.31-3.41-.35-4.98-.32-14.03-4.2-27.35-11.52-39.62-1.67-2.81-1.94-6.64-.71-10.25ZM593.38,935.48c1.78-1.3,3.72-2.66,5.77-4.09,4.79-3.35,10.22-7.13,15.19-11.36,17.61-14.96,37.58-23.99,61.05-27.59,3.42-.53,6.85-1.06,10.27-1.6,30.43-4.78,61.89-9.71,93.42-6.3,8.32.91,16.57,3.41,24.54,5.84,2.46.75,4.92,1.49,7.38,2.19,1.93.56,3.59,1.73,5.7,3.22,1.08.75,2.27,1.6,3.69,2.49l1.13.71-1.11.75c-2.01,1.37-3.85,2.7-5.6,3.97-3.62,2.62-6.74,4.89-10.24,6.64-36.6,18.43-73.78,27.46-113.21,27.46-4.82,0-9.68-.14-14.59-.41-19.35-1.08-38.91-.82-57.81-.56-8.04.11-16.34.21-24.39.21h-3.34l2.14-1.56Z"></path>
  <path class="cls-1" d="M2304.09,150.14c-9.39-19.91-23.34-32.05-42.64-37.12-11.59-3.04-21.88-9.01-32.38-18.79-20.58-19.15-44.63-31.98-71.47-38.1-22.7-5.18-45.75-6.25-63.29-6.6-.94-.01-1.88-.03-2.82-.03-24.36,0-48.57,6.34-73.92,19.33l-7.11,3.62-.34-.92c-.35-.97-.67-1.87-.96-2.71-.59-1.69-1.11-3.15-1.73-4.56-1.27-2.88-2.48-5.79-3.7-8.71-2.79-6.71-5.67-13.65-9.33-19.95-18.36-31.52-40.18-41-75.29-32.83-19.09,4.46-38.81,6.64-62.06,6.86-35.16.33-62.73,14.57-81.94,42.31-4.99,7.22-6.21,14.46-3.35,19.88l.19.37-.16.38c-1.06,2.52-2.12,4.85-3.12,7.06-2.07,4.57-3.86,8.51-5.07,12.67-4.19,14.41-2.78,29.32-1.41,43.74.26,2.79.53,5.56.75,8.34.96,11.92-.55,20.92-11.03,28.85-14.79,11.22-17.59,28.68-7.31,45.57,4.93,8.08,7.01,17.12,6.37,27.61-.32,5.29-.24,10.97.26,16.88.48,5.75,1.19,11.43,1.94,17.45.32,2.59.66,5.22.97,7.9l.08.7-.66.23c-2.15.72-4.3,1.47-6.46,2.21-4.76,1.65-9.67,3.34-14.59,4.82-42.3,12.82-78.66,8.42-111.19-13.38-6.3-4.22-13.6-7.27-20.65-10.23-3.32-1.39-6.76-2.83-10.06-4.37-3.41-1.6-6.84-3.15-10.26-4.7-7.82-3.55-15.91-7.21-23.6-11.36-18.15-9.82-36.14-18.88-56.51-21.93-.01,0-2.06-.35-2.32-1.2l-.16-.53.23-.21c.15-5.63.33-11.18.51-16.69.44-13.85.87-26.94.79-40.24-.06-8.24-1.77-16.64-3.43-24.76l-.08-.37c-.85-4.16-4.02-6.41-8.35-5.87-3.73.47-5.7,2.78-6.36,7.49l-.1.69c-.19,1.24-.37,2.53-.35,3.76.26,13.54.53,27.08.79,40.62.21,10.16.41,20.33.6,30.5.01.37.03.77.06,1.17.11,1.65.23,3.35-.69,4.43-.92,1.09-2.12,1.9-3.27,2.69-1.22.83-2.37,1.61-3.11,2.65-.95,1.33-1.41,3.06-1.99,5.25-.29,1.09-.6,2.26-1.01,3.52l-.93,2.88-.73-2.94c-.18-.74-.34-1.29-.46-1.71-.23-.77-.36-1.23-.32-1.76.71-8.64,1.42-17.27,2.14-25.91,1.53-18.41,3.12-37.44,4.51-56.18.3-4.14.01-8.34-.24-12.05-.1-1.57-.21-3.04-.26-4.39v-.35s12.53-13.99,12.53-13.99c-4.41-.21-8.5-2.51-11.69-6.64-5.41-7-6.91-17.45-3.73-26.03l1.16-3.12.51,3.3c.37,2.4.5,4.83.64,7.2.12,2.24.26,4.56.59,6.79.27,1.82,2.07,4.33,2.93,4.41,1.71.15,4.54-1.22,5.36-2.66,1.42-2.51,1.69-5.97,1.66-8.43-.22-17.27-.48-34.18-1.29-51.18-.07-1.35-1.52-2.87-2.93-4.33-.51-.53-1.03-1.08-1.51-1.63-.62.46-1.27.9-1.91,1.32-1.87,1.26-3.64,2.45-4.42,4.04-2.62,5.34-4.89,10.97-7.09,16.42-1.2,2.97-2.4,5.93-3.66,8.86-.84,1.97-1.79,3.91-2.72,5.79-1.16,2.38-2.37,4.85-3.34,7.33-5.99,15.36-3.48,29.59,7.65,43.51.6.75,1.24,1.48,2,2.34l2.14,2.44-1.32.37c-7.13,1.99-10.2,6.65-10.24,15.59l-.17,33.44c-.1,20.71-.2,41.42-.35,62.13-.01,2.43-.41,4.47-1.18,6.05-4.11,8.43-2.64,16.21,4.48,23.77,2.18,2.32,4.81,4.34,7.35,6.3,1.42,1.09,2.83,2.18,4.18,3.32.24.2.5.41.78.64,1.49,1.18,3.03,2.4,2.85,3.74-.95,8.08,2.16,14.83,8.79,18.99l.82.52-12.29,15.3-.08-2.32c-.03-.9-.06-1.84-.08-2.81-.04-2.15-.08-4.38-.28-6.6-.62-6.97-3.76-11.03-8.85-11.44-5.34-.42-9.8,3.66-11.16,10.18-1.14,5.47-1.89,11.13-2.21,16.83-2.34,40.41-4.2,88.11-.3,135.58.4,4.98-1.18,7.48-6.02,9.58-9.03,3.91-15.95,7.63-21.8,11.71-5.3,3.68-10.2,8.02-14.94,12.21-2.07,1.82-4.11,3.63-6.15,5.35l-.84.71-.5-.97c-30.07-59.59-83.62-60.95-132.04-54.42l-2.94.4,2.26-1.92c15.44-13.1,12.45-28.88,8.06-43.92-.95-3.24-1.98-6.46-3.02-9.68-2.45-7.6-4.97-15.45-6.18-23.4-2.89-19.02-5.04-38.45-7.11-57.26-.59-5.34-1.18-10.68-1.79-16.02-1.71-15.02-3.26-30.33-4.75-45.12l-.54-5.34c-.1-.98-.24-1.98-.39-2.98-.45-3.1-.91-6.31-.15-9.24,1.44-5.58.77-11.21-1.87-15.45-2.12-3.41-5.34-5.65-9.31-6.48-7.89-1.65-16.76-1.78-24.96-.37-5.55.95-10.29,4.62-11.8,9.14-1.44,4.33.06,9.01,4.33,13.54l.45.48-.33.56c-.39.66-.75,1.38-1.1,2.11-.84,1.72-1.7,3.5-3.18,4.65-6.32,4.89-7.59,11.87-8.02,18.68-.65,10.38-.75,20.79-.77,29.59-.07,28.56-4.2,51.38-13.02,71.83-3.12,7.27-5.32,13.74-6.7,19.78-5.79,25.38,1.88,49.64,9.29,73.1,1.93,6.11,5.57,9.35,10.82,9.62,5.03.17,8.54-2.29,10.91-8l-1.13-.17,1.67-1c.28-.32.76-.53,1.04-.49l.64.03.06.21,29.15,4.38-3.47,2.42c-1.58,1.1-2.77,1.94-3.96,2.78-15.12,10.76-25.69,21.24-33.26,33.01-5.43,8.45-7.7,16.62-6.95,25.02.66,7.44,4.39,13.61,10.22,16.94,5.39,3.08,11.92,3.21,17.87.38,2.36-1.12,4.56-2.78,6.69-4.38.63-.48,1.26-.95,1.89-1.4,2.17-1.58,4.69-3.71,4.92-6.2.15-1.71-.73-3.54-2.68-5.59l-.66-.69.75-.59c17.54-13.75,36.72-27.44,61.09-30.73l3.28-.44-2.63,1.99c-8.32,6.29-11.51,13.44-10.02,22.52,1.16,7.09,1.37,10.78-.63,12.59-2.05,1.85-5.77,1.24-13.33-.79-.39-.1-.82-.19-1.24-.28-1.45-.32-2.96-.64-4.04-1.6-1.69-1.51-3.99-3.79-4.39-6.27-.5-3.15-1.63-5.23-3.28-6.03-1.59-.78-3.69-.46-6.27.95-5.59,3.06-8.29,7.72-7.23,12.49.89,3.97,3.08,11.37,7.8,16.18,8.8,8.96,20.31,14.56,33.28,16.19,5.22.63,12.01-.7,17.65-3.55,6.76-3.41,9.97-10.22,8.82-18.66-.94-6.89-5.08-11.41-12.31-13.43-.66-.19-1.18-.61-1.63-.98-.18-.15-.35-.29-.54-.41l-.57-.4,1.48-3.64.81.34c.71.3,1.42.57,2.14.84,1.58.61,3.21,1.24,4.73,2.07,4.71,2.63,8.8,3.16,11.82,1.52,2.97-1.61,4.73-5.23,5.09-10.48.55-7.96-4.6-15.55-12.55-18.47-1.35-.5-2.74-.93-4.11-1.35l-5.55-1.76,3.86-.5c21.91-2.86,40.06,1.35,55.52,12.8,11.99,8.88,14.57,21.38,7.09,34.29-13.35,23-34.14,37.08-61.8,41.83-33.57,5.74-67.19,1.72-96.06-2.51-2.22-.3-5.92.6-6.37,1.23-.57,2.46-.21,6.28,1.28,7.94,2.51,2.76,6.19,5.33,10.94,7.63,23.7,11.5,49.62,16.51,77.05,14.97,47.6-2.72,83.77-26.43,107.53-70.47.86-1.59,1.59-3.27,2.36-5.05.37-.87.76-1.76,1.18-2.68l.59-1.29.88,1.11c8.62,10.82,27.21,17.68,51.01,18.81,21.19.97,43.42-2.78,56.63-9.66l1.31-.68-.04,1.47c-.03,1.43-.06,2.83-.07,4.22-.04,3.1-.08,6.02-.31,8.98-.73,9.32-2.75,20.04-12.15,28.92-3.84,3.63-7,9.84-8.25,16.2-2.14,10.89-4.64,25.25-5.03,39.66-1.22,45.18-1.94,91.53-2.15,137.76-.05,10.14,1.67,20.5,3.32,30.51l.65,3.94c1.33,8.14,6.47,13.06,15.73,15.04,13.64,2.9,27.41,6.26,40.74,9.49l2.85.69c5.63,1.38,10.66.74,14.52-1.78,3.75-2.47,6.24-6.66,7.18-12.1.76-4.41.87-9.05.88-13,.02-7.76-.02-15.53-.06-23.29-.06-12.03-.12-24.48.06-36.72.19-13.44-.41-27.12-.99-40.37-1.26-28.65-2.55-58.27,4.06-87.3,1.54-6.79-1.24-13.2-7.82-18.07-1.8-1.33-3.92-3.63-4.47-6.1-2.08-9.13-.1-17.79,1.82-26.17.55-2.38,1.09-4.74,1.53-7.09l.15-.83.84.13c1.94.31,3.78.7,5.56,1.07,3.53.75,6.89,1.42,10.08,1.34,29.81-.98,60.42-4.48,78.55-34.78l.41-.68.71.34c10.29,4.91,15.42,5.62,27.42,3.72,16.18-2.56,32.17-8.79,50.35-19.64,2.98-1.78,4.74-4.66,4.57-7.52-.15-2.59-1.83-4.78-4.6-6.03-4.74-2.13-11-2.92-16.65-2.17-8.97,1.21-18.03,2.93-26.79,4.6-5.45,1.04-11.08,2.11-16.64,3.05-2.12.36-5.52-.65-6.52-2.3-2.7-4.47-5.03-9.12-7.09-13.22-.68-1.33-1.31-2.61-1.92-3.79l-.21-.41.22-.41c.9-1.61,1.78-3.15,2.63-4.67,1.85-3.27,3.61-6.35,5.21-9.52.36-.71.71-1.42,1.06-2.14,3.13-6.38,6.37-12.97,15.02-14.71.36-.3,1.25-2.88.93-3.67-1.38-3.35-3.89-5.85-6.88-6.84-2.51-.84-5.12-.53-7.51.88-6.21,3.68-12.34,8.78-18.75,15.59-4.07,4.33-4.9,10.15-2.34,16.39,1.06,2.56.72,5.77.43,7.45-.84,4.82-1.86,9.63-2.85,14.28-.41,1.91-.81,3.82-1.2,5.7l-.2.98-.94-.34c-2.12-.75-4.31-1.59-6.55-2.45-5.31-2.03-10.8-4.12-16.49-5.58-11.27-2.9-20.3-2.23-27.59,2.03-3.19,1.87-5.74,6.67-6.37,10.23-.86,4.87,3.69,7.36,7.66,8.6,1.14.35,2.35.49,3.64.63.68.08,1.36.15,2.04.26,8.74,1.42,20.03,4.28,29.8,13.86l.85.84-1.06.55c-23.09,12.01-46.76,13.37-66.93,13.3h-.93s.07-.93.07-.93c.21-2.78.37-5.49.54-8.16.37-6,.72-11.68,1.45-17.36,1.26-9.95-3.73-21.45-13.2-22.72-2.23-.28-4.71.7-7.31,1.77-2.25.92-4.58,1.87-6.93,2.02-2.4.17-4.97-.45-7.41-1.04-2.84-.69-5.55-1.32-7.93-.79-6.68,1.52-8.52,8.14-9.82,14.78-.66,3.41-1.12,6.89-1.49,9.69-.15,1.13-.28,2.16-.41,3.03l-.12.87-.87-.14c-2.41-.39-4.75-.88-7.01-1.37-4.79-1.02-9.37-1.94-13.74-1.78-11.38.53-22.94,1.8-34.11,3.04-3.26.36-6.5.72-9.75,1.06-8.19.86-17.63,1.34-26.12-3.79-3.3-1.99-5.02-3.99-5.42-6.28-.38-2.21.55-4.64,2.82-7.41,8.2-10.03,17.59-16.51,28.72-19.83,4.74-1.4,7.46-1.09,9.2,4.55,1.13,3.68,3.7,6.2,6.85,6.75,2.8.5,5.49-.66,7.38-3.18,3.24-4.28,6.27-8.85,8.95-12.88,1.14-1.71,2.23-3.35,3.28-4.89l.21-.31.37-.06c1.53-.24,3.08-.32,4.59-.39,2.69-.13,5.23-.26,6.08-1.33,5.55-6.95,11.54-4.94,17.29-3l1.34.45c2.21.73,4.41,1.51,6.6,2.29,4.33,1.54,8.81,3.13,13.3,4.23,1.97.5,5.68-.68,6.37-1.97,1.04-1.95.57-5.48-.41-7.81-.91-2.18-3.16-4.09-5.45-5.83-9.03-6.88-19.14-12.83-31.72-9.88l-1.04.24-.02-1.06-3.3-137.6,1.42,1.02c15.01,10.87,32.65,18.15,53.93,22.26l.78.15-.08.79c-1.62,14.66,5.46,26.16,12.62,35.47,16.78,21.86,38.73,40.53,67.08,57.08,4.05,2.36,9.85,3.77,15.91,3.87h.26c4.14,0,7.61-1.62,9.55-4.47s2.15-6.68.58-10.49c-2.45-5.94-6.16-11.2-10.18-14.41-6.74-5.38-14.13-10.23-21.28-14.91-3.01-1.98-6.02-3.95-8.99-5.97-2.75-1.87-5.54-3.68-8.33-5.48-6.52-4.24-13.27-8.61-19.32-13.65-4.45-3.69-8.14-8.23-12.06-13.04-1.78-2.19-3.62-4.45-5.58-6.7l-.68-.78.89-.54c23.85-14.28,25.23-36.44,23.43-56.24l-.17-1.85,9,6.24c5.03,3.48,9.53,6.59,13.98,9.75,16.84,11.9,35.44,19.49,55.28,22.54,25.16,3.85,51.52,1.4,82.98-7.76,20.97-6.12,40.04-4.85,58.28,3.85,6.26,2.98,12.91,5.15,19.03.83l.68-.49,23.05,30.84-.39.52c-5.98,7.98-4.95,17.09,3.07,27.09,4.43,5.52,9.79,10.48,14.97,15.28,2.36,2.18,4.71,4.37,7,6.61l.38.37-.16.51c-1.06,3.32-2.18,6.73-3.34,10.22-2.74,8.26-5.56,16.8-7.83,25.53-1.71,6.62-3.01,13.47-4.29,20.09-1.17,6.11-2.38,12.43-3.9,18.57-2.27,9.16-5.02,16.89-8.39,23.67-2.23,4.51-5.89,7.35-10.29,8-4.74.68-9.65-1.25-13.5-5.34-1.01-1.06-2-2.15-2.99-3.24-2.51-2.76-5.11-5.62-7.92-8.09-18.21-16.02-39.43-20.9-63.07-14.52-8.88,2.4-13.61,7.95-12.97,15.21.6,6.82,5.94,11.23,15.03,12.41,11.5,1.49,21.06,2.61,30.1,3.52,8.43.85,14.83,4,19.55,9.64,1.47,1.75,3.16,3.57,5.33,5.75,9.54,9.59,22.21,14.26,34.86,12.81,12.25-1.41,23.19-8.55,30.03-19.6,4.62-7.46,8.32-16.56,11-27.03,2.32-9.04,3.92-18.44,5.47-27.53.84-4.96,1.72-10.09,2.7-15.12,1.58-8.08,3.29-16.09,5.1-24.56.82-3.79,1.65-7.67,2.48-11.65l.32-1.54,1.13,1.1c27.45,26.7,58.06,23.61,87.06,16.29l.88-.22.18.9c2.43,12.31,11.34,20.5,21.86,29.18l1.09.91-1.3.56c-11.58,5-13.83,14.16-13.65,26.36.08,4.83.25,9.75.42,14.5.21,6.05.44,12.3.45,18.46.06,17.56-.17,35.43-.37,52.69l-.02,1.31c-.1,7.64-3.46,14.4-10.29,20.65-5.46,5.01-10.88,10.07-16.3,15.12-9.84,9.18-20.02,18.67-30.29,27.72-23.47,20.67-40.62,45.71-50.97,74.45-7.39,20.5-15.77,43.75-17.77,68.59l-.17,2.16-1.37-1.69c-6.72-8.32-14.55-18.26-21.66-28.98-38.54-58.13-73.8-111.6-107.8-163.43-2.33-3.55-4.15-7.47-5.91-11.27-1.15-2.48-2.34-5.05-3.66-7.47l-3.02-5.59c-5.13-9.52-10.43-19.36-16.35-28.58-1.27-1.98-5.38-3.74-8.18-3.74-.5,0-.96.06-1.35.18-2.56.78-5.81,5.32-6.01,8.38-.27,4.47.73,9.15,1.69,13.67.3,1.39.59,2.78.86,4.17.37,1.94.97,3.9,1.55,5.79.37,1.2.73,2.39,1.04,3.59.55,2.05.96,4.18,1.37,6.24.83,4.24,1.69,8.63,3.65,12.27,7.06,13.11,15.24,26.78,24.33,40.65,37.8,57.71,80.19,113.5,121.2,167.45,23.18,30.5,47.16,62.05,70.04,93.6,2.91,4.02,4.76,7.8,4.28,13.17-.77,8.56,3.17,14.07,11.37,15.95,3.3.75,6.79,2.93,8.7,5.43,4.52,5.96,8.93,12.15,13.2,18.14,4.14,5.8,8.42,11.8,12.78,17.57,6.35,8.41,12.75,16.78,19.15,25.15,28.22,36.93,57.39,75.12,81.94,115.69,4.11,6.79,8.85,13.37,13.45,19.73l1.8,2.5c2.48,3.45,4.87,6.11,7.31,8.12,3.88,3.19,8.02,3.42,11.66.65,3.56-2.71,4.19-6.45,1.92-11.42-.72-1.57-1.63-3.11-2.52-4.6-.33-.55-.66-1.1-.98-1.65-26.51-46.11-58.47-89.61-89.38-131.66-4.33-5.9-8.66-11.79-12.98-17.7-7.56-10.33-15.43-20.68-23.04-30.7-6.77-8.9-13.76-18.11-20.52-27.27-1.78-2.41-2.96-6.84-1.89-9.59,8.16-21.08,13.49-44.69,16.29-72.19,4.26-41.84,15.98-77.01,35.83-107.52,10.36-15.91,21.37-31.78,32.03-47.11l6.97-10.04c1.16-1.69,3.48-3.23,5.75-3.82l1.35-.36c7.31-1.94,14.87-3.95,22.45-5.19,16.53-2.7,30.35,2.21,39.95,14.17,7.75,9.67,13.8,20.09,17.47,30.15,11.47,31.37,16.04,66.66,13.58,104.88-2.34,36.3-12.34,73.61-31.48,117.43-7.98,18.29-14.67,37.53-21.14,56.14-2.07,5.96-4.15,11.92-6.26,17.86-1.35,3.79-2.01,8.36-2.04,13.97-.03,8.07,3.78,13.85,11.02,16.72,6.93,2.76,13.53,1.25,19.06-4.3,3.26-3.27,6.1-7.24,8.23-11.5,11.65-23.29,19.39-45.99,23.63-69.39l.93-5.22c2.88-15.97,5.85-32.5,10.29-48.35,14.29-50.84,17.83-97.42,10.84-142.43-3.93-25.31-8.9-52.02-22.27-75.77-14-24.88-32.72-38.05-57.24-40.27-6.26-.57-12.51-.19-19.14.19-3.04.18-6.12.36-9.24.45l-1.15.03.29-1.11c.75-2.94,1.53-5.88,2.31-8.84,1.79-6.77,3.64-13.78,5.23-20.75,2.45-10.78,4.96-22.38,6.75-34.11.2-1.31-.99-3.08-2.14-4.78-.41-.62-.84-1.25-1.22-1.88-.59.3-1.2.59-1.8.87-1.96.92-3.82,1.79-5.14,3.15-1.62,1.64-2.5,4.2-3.35,6.68l-.21.6c-1.45,4.18-2.94,8.34-4.44,12.5-3.92,10.93-7.97,22.23-11.23,33.54-9.31,32.3-22.34,58.44-39.85,79.89-9.93,12.17-17.47,22.43-23.76,32.29l-1.56,2.44c-6.98,10.91-14.2,22.18-18.48,34.22-7.85,22.04-14.82,44.83-21.56,66.87-2.52,8.25-5.05,16.51-7.62,24.74-.75,2.4-1.33,4.91-2,7.81-.35,1.51-.73,3.15-1.18,4.96l-.44,1.79-42.66-57.62,1.28-.3c13.29-3.17,16-5.21,22.31-16.8l.64-1.17c1.13-2.07,2.31-4.2,3.13-6.39,2.95-7.92,6.12-15.93,9.17-23.68,7.18-18.19,14.61-37,19.89-56.04,9.95-35.8,30.78-62.64,63.66-82.04,13.41-7.91,20.56-18.24,21.87-31.56,3.82-39.06,3.8-74.71-.08-108.98-.23-2.05-.73-4.08-1.27-6.23-.26-1.05-.52-2.12-.77-3.22l-.26-1.22,1.24.18c2.29.33,4.53.62,6.71.91,5.41.7,10.53,1.36,15.54,2.55,2.89.68,5.7,3.62,7,6.16,1.56,3.09,2.14,6.66,2.69,10.12l.15.91c2.13,13.16,5.14,27.06,12.68,39.58.81,1.35,1.18,2.92,1.34,4,.77,5.11,2.33,8.36,4.78,9.93,2.39,1.52,5.79,1.63,10.45.3,8.76-2.5,17.43-5.94,25.82-9.28l2.54-1.01c9.85-3.91,19.67-7.89,29.5-11.88,15.15-6.15,30.82-12.51,46.35-18.47,15.76-6.05,31.96-11.75,47.61-17.27,5.83-2.05,11.65-4.11,17.47-6.18,6.46-2.31,9.38-5.99,9.17-11.58-.2-5.48-4.65-9.71-11.06-10.54-4.58-.57-9.26-.53-13.51.17-41.78,6.74-80.77,20.47-115.91,40.82-5.8,3.35-11.57,6.53-17.68,9.88-2.81,1.54-5.64,3.1-8.52,4.71l-.96.53-.3-1.06c-.18-.64-.36-1.2-.52-1.7-.32-1.01-.61-1.89-.67-2.8-1.18-16.67-8.75-31.44-23.83-46.47-6.69-6.67-14.77-10.44-24.01-11.21-2.94-.24-5.53-.54-7.92-.91-15.52-2.41-27.21-11.14-36.62-19.37-6.08-5.32-7-12.4-7.88-19.25-.21-1.63-.42-3.26-.71-4.87-.15-.92-.36-1.82-.56-2.74-.28-1.22-.56-2.49-.73-3.76-.5-3.68-1.06-7.36-1.62-11.05-1.38-8.96-2.8-18.22-3.13-27.39-.33-9.19-1.23-18.1-8.53-25.97-7.64-8.23-7.76-20.32-.29-28.13,6.7-7,9.12-15.25,7.65-25.98-.63-4.56-1.04-9.19-1.44-13.67-.17-1.94-.35-3.86-.53-5.79l-.13-1.34,1.28.44c3.68,1.26,7.25,2.52,10.76,3.76,8.41,2.97,16.34,5.77,24.44,8.14,5.49,1.59,7.56,4.13,7.91,9.71,2.82,44.02,17.56,79.51,45.05,108.48,27.71,29.19,55.84,37.66,88.47,26.7,11.54-3.86,22.43-2.99,34.31,2.75,16.22,7.81,30.65,10.73,44.14,8.97,21.96-2.92,40.28-15.39,56.01-38.16,18.71-27.1,21.83-57.97,9.28-91.76-6.24-16.8-6.54-33.23-.98-53.28,3.47-12.53,5.08-25.44,4.65-37.36-.76-20.97-6.24-41.99-16.73-64.25ZM1205.65,429.7l-.22-.59c-.96-2.54-1.92-5.12-2.88-7.69-2.27-6.09-4.63-12.38-7.05-18.56-3.82-9.8-3.49-19.22,1.03-28.77,1.07-2.27,2.04-4.66,2.97-6.97,1.09-2.7,2.23-5.5,3.55-8.16,12.93-26.02,16.91-54.87,12.52-90.8-.55-4.58-1.06-9.15-1.54-13.74-.06-.48.15-.87.38-1.33.1-.2.22-.44.35-.73l.23-.55.59.02,14.82.38.11.72c2.74,18.23,4.72,36.95,6.64,55.05,4.12,39.05,8.38,79.42,20.65,118.51l.34,1.09-52.47,2.1ZM1515.86,610.82c.37-5.91,2.54-10.98,7.02-16.44,3.17-3.86,5.82-8.2,8.62-12.79,1.26-2.09,2.57-4.22,3.97-6.39l1.67-2.6-.08,3.09c-.06,2.23-.13,4.4-.21,6.54-.19,5.07-.35,9.86-.24,14.68.08,2.97.37,6.67,1.99,9.08,5.29,7.87,5.23,16.47,5.18,24.77-.02,2.25-.03,4.58.06,6.85.37,9.1.91,18.37,1.43,27.33.8,13.89,1.63,28.27,1.87,42.42.35,20.77.24,41.9.14,62.33-.06,11.74-.12,23.48-.1,35.22,0,3.42-.63,5.5-2.06,6.71-.99.85-2.34,1.26-4.2,1.26-.88,0-1.88-.09-3.01-.27-7.69-1.24-15.66-1.97-23.36-2.68-3.32-.3-6.66-.61-10.02-.95l-.66-.07-.1-.66c-.04-.28-.1-.55-.16-.82-.14-.62-.28-1.27-.24-1.95,1.62-25.29,3.25-50.57,4.88-75.85,2.55-39.6,5.1-79.2,7.62-118.81ZM1476.61,473.14c-5.12-3.46-5.01-4.02-2.39-18.46l1.04-5.77,2.91,25.29-1.56-1.06ZM1559.97,330.65l-.26.7-.73-.15c-4.51-.95-8.99-1.99-13.31-3-9.95-2.32-19.35-4.51-29-5.56-15.01-1.65-21.65-12.27-27.51-21.64-1.03-1.65.03-5.09,1.26-6.48,2.68-3.01,3.88-5.71,3.66-8.25-.22-2.47-1.78-4.82-4.77-7.17-2.21-1.74-4.58-3.36-6.88-4.92-2.52-1.72-5.13-3.49-7.55-5.44-3.04-2.45-4.3-4.47-3.95-6.34.35-1.89,2.29-3.32,6.08-4.52,9.06-2.88,18.03-3.55,29.12-2.12,20.6,2.62,36.93,12.32,54.65,23.78,1.51.97,3.12,2.85,3.29,4.56,1.94,19.39.68,33.75-4.08,46.56ZM1825.05,211.67c-5.16,26.47-5.95,53.72-2.34,80.99.15,1.1.06,2.2,0,3.08-.02.33-.05.64-.06.9l-.02,1.18-1.13-.38c-3.07-1.05-6.3-1.95-9.42-2.81-7.31-2.03-14.86-4.11-20.82-8.33-5.26-3.71-9.6-5.87-16.25-5.94-3.48-.03-6.19-1.03-8.07-2.96-2.22-2.29-3.24-5.78-3.13-10.67.03-1.63.08-3.27.13-4.91.23-7.66.46-15.57-.77-23.07-1.53-9.34-4.45-19.11-8.66-29.03-2.21-5.19-3.09-9.62-.21-14.3,2.63-4.29,5.43-8.04,8.32-11.15,9.02-9.77,12.98-20.07,12.12-31.51-.43-5.59-.44-11.28-.45-16.78v-2.36c-.02-3.31.09-6.64.21-10.15.06-1.56.1-3.16.15-4.82l.03-1.26,1.17.48c.57.24,1.04.4,1.44.54.74.26,1.32.46,1.8.87,11.21,9.51,25.41,16.08,43.42,20.07,6.89,1.53,8.21,4.92,8.22,10.65.06,21.67-1.8,41.85-5.67,61.68ZM1987.68,357.23l.47.28c1.67.97,3.57,2.07,3.77,3.6.53,4,1.4,8.05,2.26,11.98,2.14,9.87,4.35,20.08,1.57,31.25l-.26,1.06-.97-.49c-11.84-5.95-22.89-3.73-35.81,1.44-4.12,1.65-8.14,2.46-12.02,2.46-9.09,0-17.36-4.46-23.99-13.15-.66-.86-1.29-1.78-1.94-2.69-1.88-2.7-3.82-5.47-6.34-6.91-4.03-2.3-9.1-3.35-12.93-2.7-6.59,1.13-11.6.1-16.14-3.4-4.15-3.18-8.16-6.44-12.4-9.89-1.88-1.53-3.79-3.08-5.74-4.65l-.99-.79,1.11-.64c1.71-.98,3.31-1.82,4.8-2.59,2.92-1.53,5.45-2.84,7.49-4.62,5.18-4.53,7.59-22.63,3.73-28.06-.84-1.18-3.84-1.49-7.82-.79l-.62.1-.3-.55c-.22-.42-.45-.84-.68-1.24-.5-.89-1.01-1.81-1.43-2.78-24.37-55.91-33.33-117.46-27.39-188.18.82-9.74-.48-11.85-9.95-16.11-11.97-5.38-23.99-11.16-35.62-16.76-3.61-1.74-7.22-3.48-10.82-5.21-3.85-1.85-6.12-4.29-4.67-10.2.72-2.91.3-6.08-.13-9.44-.29-2.21-.59-4.51-.54-6.75.05-2.38.46-6.79,2.74-9.59,4.62-5.69,9.34-11.5,15.21-15.62,19.49-13.66,40.29-19.96,63.57-19.18,12.43.36,25.26-.84,37.61-2.04,5.47-.53,11.14-1.09,16.71-1.49,1.18-.08,2.35-.18,3.53-.27,2.11-.17,4.22-.33,6.34-.45,10.82-.68,18.86,4.09,23.72,13.93,8.87,17.98,18.93,38.35,28.53,58.67.99,2.07.08,5.46-1.18,7.74-1.76,3.19-3.71,6.35-5.6,9.41-2.76,4.47-5.61,9.09-7.89,13.87-4.6,9.68-3.79,17.83,2.5,24.93,1.32,1.49,1.04,4.84.35,6.59-11.44,28.71-11.13,55.02.95,80.43,1.64,3.44,2.16,7.4,2.65,11.23.24,1.86.49,3.78.86,5.6l1.58,7.76c1.94,9.5,3.93,19.33,6.15,28.93,1.06,4.59.21,8.05-2.87,11.56-7.85,8.95-11.28,19.4-9.67,29.43,1.62,10.06,8.19,18.95,18.51,25.02ZM2271.77,405.27c-11,8.95-22.31,13.43-33.82,13.43-7.6,0-15.28-1.96-23.01-5.87-14.21-7.19-28.85-9.46-44.7-6.9-17.41,2.78-33.45-2.16-47.64-14.72-33.12-29.32-50.13-62.77-52-102.24-.06-1.26-.21-2.52-.35-3.78-.15-1.33-.31-2.72-.37-4.1-.69-17.4-9.44-27.94-26.74-32.22-18-4.47-30.64-11.36-39.79-21.73-2.09-2.36-3.28-5.47-4.44-8.47-.48-1.23-.95-2.45-1.48-3.63-.26-.57-.39-1.2-.5-1.79-.12-.66-.26-1.33-.55-1.64-7.32-7.38-7.35-16.64-7.39-25.59,0-.96-.01-1.91-.02-2.86-.12-9.5.64-19.14,1.38-28.47l.24-3.05c.14-1.78,1.7-3.37,3.08-4.77l.42-.43c8.75-9.05,17.56-18.03,26.38-27.02l2.64-2.7c21.4-21.82,38.12-28.25,68.52-26.18l.33-1.76.85.16c6.92,1.28,13.85,2.52,20.78,3.76,16.33,2.93,33.22,5.95,49.71,9.49,14.49,3.1,27.95,10.37,40,21.59,15.65,14.56,32.35,22.29,51.07,23.62,14.01,1,24.6,8.18,32.38,21.96,15.73,27.89,19.31,53.98,10.96,79.79-6.55,20.26-6.06,40.08,1.53,60.57,11.48,31.03-.84,73.88-27.46,95.52Z"></path>
  <path class="cls-1" d="M2562.28,1479.99c-3.82-.14-7.87-.21-11.59.57-8.84,1.84-17.85,3.6-26.57,5.31-22.02,4.31-44.78,8.77-66.7,14.81-60.35,16.67-116.49,23.42-171.6,20.61-11.41-.57-22.94-2-34.09-3.38-5.59-.69-11.36-1.4-17.04-2-4.85-.52-9.82-.59-12.52,4.31-2.55,4.6-1.68,9.36,2.59,14.16,3.07,3.45,6.21,6.02,9.37,7.65,6.65,3.44,13.51,6.4,20.39,8.81l.62.21c12.6,4.42,12.87,4.93,9.4,18.46-4.21,16.47-8.33,32.83-12.45,49.18-8.82,35.03-17.94,71.24-27.53,106.71l-2.98,10.99c-9.61,35.35-19.53,71.9-24.5,109.02l-1.02,7.61-.71-7.65c-.08-.93-.18-1.87-.28-2.81-.21-2.04-.43-4.15-.53-6.24-.75-15.1-1.53-30.21-2.31-45.32-1.84-35.43-3.74-72.06-5.03-108.1-1.08-29.93-1.82-60.37-2.54-89.81-.78-31.91-1.59-64.9-2.82-97.33-.99-25.92-2.63-52.25-4.23-77.72-1.12-17.88-2.27-36.37-3.19-54.56-.59-11.53-1.09-23.07-1.58-34.6-1.83-42.39-3.73-86.22-10.01-128.98-2.28-15.49-4.71-27.16-7.89-37.85-3.19-10.71-11.7-17.43-21.88-17.43-.41,0-.82,0-1.23.03-10.76.58-18.99,8.34-21.47,20.25-1.46,7.01-2.13,14.63-1.93,22.03.28,10.42.84,21.02,1.37,31.27.46,8.95.95,18.21,1.24,27.33,2.53,77.07,6.66,178.42,16.18,278.96,7.07,74.76,10.85,150.94,14.49,224.62v.37c.55,10.87,1.07,21.73,1.58,32.61,1.57,32.9,3.18,66.91,5.38,100.33,1.09,16.47,3.78,32.7,7.49,52.02,1.91,9.97,9.57,16.41,19.18,15.93,9.12-.41,15.75-7,17.74-17.61.72-3.84,1.13-7.76,1.23-11.64.28-11.9.47-23.79.66-35.69l.27-15.72c.02-1.5.06-3,.1-4.5l.17-6.24,1.56,4.16c4.39,11.69,11.34,19.56,21.25,24.06,15.06,6.83,32.59,14.68,50.22,21.48,14.52,5.59,25.64,1.08,32.14-13.09,4.09-8.9,7.36-18.69,9.74-29.1,11.39-49.83,23.01-98.45,39.8-145.48,4.48-12.56,9.53-25.15,14.41-37.33,6.21-15.49,12.63-31.52,17.94-47.6l.21-.66c8.42-25.51,17.12-51.89,11.17-80.16l-.18-.85,2.63-.56c1.4-.3,2.88-.63,4.36-.92,8.47-1.66,17.12-3.25,25.48-4.78,18.84-3.46,38.34-7.04,57.2-11.71,25.38-6.28,50.79-14.3,75.37-22.05l9.19-2.9c9.2-2.88,13.87-10.01,12.19-18.59-1.49-7.6-8.34-12.53-17.88-12.9ZM2374.67,1559.49c-.57,1.9-1.1,3.78-1.62,5.63-1.13,4-2.19,7.78-3.62,11.51l-.54,1.41c-12.37,32.39-25.16,65.89-32.58,100.49-1.87,8.68-3.66,17.53-5.4,26.09-4.03,19.82-8.19,40.31-13.46,60.17-8.46,31.94-18.45,64.03-28.11,95.07l-3.41,10.96c-2.14,6.88-3.42,10.22-5.94,11.16-.45.17-.92.25-1.42.25-2.4,0-5.5-1.87-10.81-5.2-7.47-4.68-15.5-9.6-25.27-15.48-8.82-5.3-9.55-6.08-6.72-16.29,2.28-8.18,4.78-16.46,7.2-24.46,3.77-12.47,7.67-25.37,10.8-38.22,14.73-60.44,28.87-120.82,44.52-187.84,1.62-6.95,2.54-14.23,3.41-21.26.31-2.44.62-4.87.95-7.31.44-3.21,1.19-5.88,5.9-6.03,14.06-.46,28.36-1.06,42.18-1.65,6.55-.28,13.09-.55,19.65-.82.05,0,.1,0,.15,0,.58,0,1.14.15,1.89.34.44.11.95.24,1.6.37l.93.19-.28.91Z"></path>
  <path class="cls-1" d="M320.75,1395.3c-2.63-36.41-33.47-73.58-70.21-84.62-27.08-8.14-55.9-6.71-88.16,4.35-1.66.57-3.34,1.09-4.84,1.56l-2.74.86-.19-.95c-.55-2.64-1.06-5.21-1.56-7.72-1.06-5.36-2.07-10.42-3.28-15.46-2.97-12.3-6-24.6-9.03-36.9-6.23-25.24-12.67-51.35-18.39-77.16-2.34-10.49-3.62-21.38-4.86-31.91-.79-6.67-1.6-13.57-2.68-20.29-1.67-10.53-8.08-16.91-17.15-17.09h-.37c-8.96,0-15.66,6.22-17.55,16.32-1.77,9.5-2.72,19.14-2.81,28.63-.47,47.87,8.58,93.75,26.9,136.39l.93,2.16c5.59,13.08,11.36,26.6,25.05,34.76l1.11.66-1.04.77c-1.02.77-2.01,1.45-2.96,2.12-2.01,1.4-3.75,2.61-5.2,4.11-.94.97-1.91,1.94-2.88,2.91-3.77,3.76-7.66,7.66-10.31,12.11-3.77,6.32-2.97,13.33,2.19,19.23,4.57,5.22,10.77,6.68,18.39,4.35,1.2-.37,2.4-.87,3.56-1.35,1.23-.52,2.51-1.05,3.83-1.44,5.57-1.68,11.22-3.56,16.68-5.37,12.64-4.2,25.7-8.54,38.93-10.83,34.72-6.03,62.48,4.58,82.33,31.53,6.32,8.58,8.97,17.51,7.64,25.83-1.26,7.94-6.16,15.15-14.15,20.85-7.06,5.05-15.28,8.65-23.23,12.13-2.45,1.08-4.9,2.15-7.31,3.26-1.58.71-3.46.39-5.31.08-.73-.12-1.44-.25-2.14-.3-2.22-.17-4.47-.47-6.66-.76-4.63-.61-9.42-1.23-13.93-.67-18.01,2.32-36.59,5.35-55.23,9-46.02,9.01-93.81,7.13-142.07-5.59-2.3-.61-4.69-.95-7.23-1.31-.96-.14-1.95-.28-2.96-.44-.06.62-.11,1.2-.17,1.74-.15,1.54-.27,2.75-.3,3.98-.14,4.94-.25,9.87-.36,14.81-.24,10.71-.49,21.77-1.02,32.65-.22,4.66,1.15,6.4,5.87,7.45,43.26,9.6,81.89,12.77,118.17,9.68,2.76-.24,5.52-.42,8.5-.62l4.67-.32.05.88c.06,1.04.13,1.99.19,2.9.12,1.74.22,3.28.26,4.84.13,4.73.24,9.46.35,14.18.17,7.35.35,14.7.59,22.04.59,17.85,1.25,35.7,1.91,53.54,1.48,40.3,3.01,81.97,3.76,122.97.5,27.52,4.42,53.34,11.97,78.94,1.76,5.97,4.09,10.8,6.93,14.37,4.27,5.36,10.42,8.01,16.89,7.18,6.58-.81,12.24-5.12,15.15-11.52,1.06-2.35,1.83-4.88,2.23-7.32,4.45-27.85,7.85-57.89,2.6-88.81-7.03-41.44-13.76-83.65-20.27-124.46-4.48-28.08-9.11-57.11-13.8-85.65-.58-3.53-.32-5.81.86-7.42,1.39-1.89,3.88-2.6,7.22-3.08,14.99-2.16,30.28-4.76,46.74-7.92,13.49-2.59,22.04-9.6,25.42-20.82,1.69-5.59,5.14-7.9,9.13-10.15,3.21-1.8,6.44-3.58,9.66-5.35,11.77-6.46,23.92-13.14,34.73-21.21,15.3-11.41,22.53-29.16,20.94-51.33Z"></path>
  <path class="cls-1" d="M2502.86,1358.54l.55,3.71c.62,4.21,2.76,9.22,9.48,9.22h.06c4.91-.02,8.07-3,9.39-8.87,1.75-7.79,3.57-15.84,3.66-23.83.42-37.2.38-65.84-.14-92.87-.62-32.6-1.42-65.74-2.19-97.8-1.17-48.51-2.37-98.68-2.99-148.02-1.13-87.95-10.38-167.82-28.28-244.16-13-55.43-28.62-99.24-49.15-137.87-26.54-49.95-63.2-91.2-110.06-137.77-3.8-3.78-9.02-6.44-13.62-8.55-9.1-4.17-17.88-4.39-26.09-.68-4.42,2-8.47,4.64-8.29,10.3.18,5.07,3.25,8.74,8.43,10.09,11.57,2.98,19,11.06,26.21,19.78,16.52,20,30.47,36.76,44.82,53.59,17.75,20.81,34.55,41.56,45.07,66.59l1.27,3.03c12.93,30.76,26.3,62.56,35.88,94.92,10.52,35.54,18.78,72.37,26.78,108,1.5,6.68,2.99,13.36,4.51,20.03,8.17,35.99,16.27,74.42,17.83,113.95.57,14.34,1.04,28.67,1.52,43.01.46,13.78.91,27.55,1.45,41.32,1.4,35.66,2.85,71.32,4.31,106.97l1.88,46.04-1.22.04-.15,6.21c-.12,4.69-.24,9.38-.39,14.07-.3,9.75-.64,19.51-.97,29.26-.83,24.08-1.69,48.98-2.12,73.47-.15,8.9,1.22,18.02,2.55,26.83Z"></path>
  <path class="cls-1" d="M1566.5,971.68c4.13,2.39,8.25,3.95,11.9,4.52l3.29.52c9.39,1.49,19.1,3.02,28.62,3.07,31.97.13,64.47-.41,94.83-1.03,13.7-.28,25.8-3.68,35.99-10.1,13.71-8.65,28.4-12.17,45.12-10.76,2.47.21,4.95.18,7.49.2,3.06.01,6.45,0,9.66.44,5.26.72,10.63,1.35,15.82,1.96,21.86,2.56,44.47,5.22,65.24,15.27,3.43,1.67,7.82,2.72,13.03,3.15,4.36.32,9.91-.64,12.11-7.29,2.27-6.88-2.35-10.7-5.3-12.37-6.03-3.38-12.26-6.88-18.88-8.57-5.82-1.49-11.64-3.02-17.45-4.56-31.16-8.19-63.38-16.67-96.53-18.41l-5.5-.28,5.33-1.42c1.06-.28,2.13-.57,3.2-.86,2.03-.56,4.06-1.11,6.1-1.62,15.6-3.85,32.05-8.77,46.6-18.58,12.86-8.66,20.52-20.68,21.55-33.82,1.03-13.08-4.61-26.06-15.88-36.55-3.94-3.66-9.94-8.79-16.55-11.01-2.83-.95-5.66-1.94-8.51-2.94-12.62-4.42-25.67-9-38.66-9.77-30.17-1.78-60.91-.32-88.04.95-10.89.51-21.77,3.92-32.88,7.67-4.1,1.38-8.71,5.91-10.07,9.91-1.4,4.11-3.29,5.34-6.75,6.41-11.56,3.55-26.31,9.13-37.9,20.86-11.03,11.16-12.45,24.72-3.9,37.21,2.99,4.38,7.86,10.38,13.99,14.02,9.98,5.93,19.54,10.28,28.42,12.91,39.8,11.83,80.23,10.81,118,7.98,1.35-.1,2.7-.18,4.33-.27l5.66-.32-2.92,1.8c-2,1.23-3.95,2.3-5.84,3.34-3.75,2.05-7.28,4-9.96,6.63-13,12.76-29.05,17.36-52,14.91-6.3-.68-12.6-1.38-18.9-2.09-12.69-1.42-25.81-2.89-38.74-4.1-3.5-.32-7.16-.28-10.69-.23-5.45.07-11.07.16-16.35-1.14-3.23-.79-6.41-1.09-9.57-1.09-4.97,0-9.85.75-14.63,1.47-3.22.49-6.55,1-9.86,1.27-5.25.44-8.99,4.24-9.98,10.2-.9,5.35,1.22,9.8,5.96,12.53ZM1703.3,899.03c-23.49,0-46.09-3.08-68.18-9.24-6.15-1.71-12.64-4.69-20.42-9.35-3.47-2.09-5.09-4.02-5.11-6.08-.01-1.96,1.5-3.85,4.62-5.79,10.69-6.62,22.07-12.15,31.9-16.81,3.79-1.8,7.92-2.98,11.91-4.12,1.9-.55,3.79-1.09,5.66-1.69,4.31-1.4,6.45-2.73,7.18-4.45.74-1.77.15-4.34-1.97-8.61l-.66-1.33,5.38.27c27.93,1.42,56.82,2.88,84.57,9.71,3.03.75,6.17,1.33,9.21,1.89,5.29.97,10.77,1.98,15.85,3.91,7.32,2.76,14.56,6.97,20.92,12.17,3.62,2.94,5.27,5.7,5.09,8.42-.19,2.74-2.26,5.26-6.31,7.71l-2.32,1.41c-9.62,5.83-19.58,11.86-30.24,14.23-23.28,5.18-45.55,7.76-67.08,7.76Z"></path>
  <path class="cls-1" d="M1523.27,892.58l-1.33-.15,1.6-2.72c.83-1.41,1.62-2.76,2.38-4.13,7.39-13.31,5.36-32.47-4.51-42.71-5.33-5.52-11.81-7.93-17.78-6.56-5.97,1.35-10.77,6.26-13.18,13.5-2.06,6.17-4.33,11.92-6.75,17.09-3.15,6.76-2.94,14.36.59,20.85,3.51,6.44,9.74,10.72,17.08,11.74,1.04.15,2.07.3,3.11.47l2.13.33,2.13,2.35-.94.54c-11.84,6.78-17.21,14.22-17.32,24.03,5.5,1.56,7.17,3.78,12.46,15.69l.68,1.53-1.65-.32c-13.7-2.74-27.71-3.28-37.35,11.21l-.57.85-8.02-7.53,4.58-1.95c15.33-6.33,23.54-18.23,23.76-34.4.21-16.83-7.62-30.22-22.66-38.72-6.58-3.71-14.81-2.27-20.02,3.53-4.86,5.43-4.96,11.8-.27,18.93,1.35,2.05,2.99,3.99,4.58,5.86,1.49,1.76,3.02,3.57,4.34,5.5,1.02,1.48,1.52,3.25,2.01,4.97.21.74.42,1.48.67,2.19l.87,2.47-2.17-1.46c-16.74-11.22-19.09-11.32-31.41-1.6l-.64.51-.54-.61c-5.61-6.27-11.86-12.05-21.18-8.12-4.17,1.76-4.57,5.73-3.89,11.14.16,1.2.62,2.41,1.15,3.82.15.39.3.78.45,1.2l5.96-4.85.32,1.35c.47,1.99.97,3.86,1.44,5.65,1,3.74,1.94,7.27,2.3,10.82.82,8.18-3.11,14.93-11.07,19-2.24,1.15-6.76,1.1-8.63-.62-1.74-1.58-1.72-5.11-1.48-8.34.11-1.52,1.32-2.87,2.38-4.06.21-.24.42-.48.62-.71,2.32-2.72,3.22-5.69,2.54-8.35-.67-2.63-2.84-4.76-6.12-6.02-5.56-2.12-10.78-.95-15.46,3.53-5.65,5.38-8.02,12.44-7.26,21.57.19,2.25-1.04,5.69-2.96,6.93-8.79,5.68-14.22,13.62-15.3,22.38-1.06,8.67,2.23,17.59,9.29,25.13,11.97,12.8,24.75,17.3,39.1,13.7l1.11-.28-.03,1.15c0,.44,0,.79.01,1.06.01.54.03.96-.19,1.38-2.93,5.56-3.24,12.72-.86,20.14,2.99,9.32,9.82,17.61,17.81,21.62,14.41,7.22,31.47,2.07,41.56-12.5,7.32-10.57,11.09-22.27,11.21-34.78.06-7.19,2.44-11.57,7.96-14.65l.64-.35.46.57c20.07,25.18,37.23,30.12,55.7,16.04,19.35-14.79,19.86-34.04,1.56-58.85l-.75-1.01,1.21-.34c23.43-6.59,33.24-16.89,31.8-33.39-1.6-18.41-14.83-29.86-37.29-32.23ZM1374.79,984.85l-.25-.16c-2.62-1.71-5.08-5-1.92-10.96.5-.93,1.7-1.2,2.87-1.45.42-.09.84-.18,1.2-.3l1.06-.37,1.02,12.95-3.97.3ZM1427.97,939.15l11.09,7.29-14.7,6.87,3.61-14.16ZM1435.98,1014.02c-4.31,7.51-8.79,14.51-13.33,20.81-1.67,2.3-3.35,2.83-4.56,2.83-.09,0-.18,0-.27,0-1.85-.12-3.59-1.51-4.89-3.92-.6-1.11-1.12-2.27-1.65-3.42-.64-1.42-1.3-2.88-2.1-4.2-1.6-2.68-3.3-5.21-5.26-8.15-.88-1.31-1.79-2.67-2.74-4.12l-.38-.59.48-.5c7.35-7.5,11.71-17.17,12.58-27.95l.05-.57c.2-2.36.44-5.04-.52-6.7-5.65-9.84.71-15.24,7.12-19.51l1.51-1.02-.17,1.82c-.05.5-.08,1-.1,1.47-.06.99-.11,1.92-.32,2.85-3.41,15.15.62,28.64,11.97,40.09,2.38,2.41,5.25,6.14,2.58,10.8ZM1445.07,985.27l-1,1.53-7.02-21.91,3.3-1.15.32.16c3.52,1.72,6.01,4.65,7,8.25,1.14,4.13.21,8.79-2.61,13.12ZM1502.43,997.38c-.73.58-1.81.81-2.97.81-1.61,0-3.37-.44-4.5-1-4.29-2.1-8.41-4.46-12.77-6.95-1.76-1.01-3.56-2.03-5.41-3.06l-.36-.21-.08-.41-2.98-17.32.59-.28c5.15-2.47,10.94-1.56,14.84,2.32,5.63,5.64,10.28,12.5,14.38,18.56,1.24,1.85.8,6.28-.75,7.53ZM1532.5,931.41c-1.13,2.46-2.63,3.91-4.31,4.18-.19.03-.39.04-.59.04-1.36,0-2.73-.73-4.08-2.2-3.17-3.44-6.08-7.09-9.17-10.97-1.36-1.7-2.75-3.45-4.22-5.25l-.62-.75.82-.53c6.08-3.97,12.37-8.09,19.36-3.26,4.62,3.18,5.93,11.94,2.8,18.73Z"></path>
  <path class="cls-1" d="M1288.26,867.17c31.4,13.61,64.81,15.55,99.3,5.77,22.57-6.41,40.4-21.08,52.98-43.62,7.31-13.1,9.15-27.24,5.18-39.83-3.98-12.61-13.62-23.15-27.14-29.68-.6-.29-1.2-.6-1.79-.91-1.38-.71-2.69-1.38-4.07-1.86-7.06-2.43-10.36-7.53-10.06-15.59.28-7.55.46-15.24.64-22.67.08-3.42.17-6.84.26-10.25l.02-.87.65.02c.08-2.68.16-5.35.25-8.03.24-7.23.48-14.71.43-22.05v-1.36c0-3.73,0-8.83-1.96-10.53-3.9-3.39-5.79-7.74-7.62-11.94-1.37-3.13-2.65-6.08-4.69-8.53-10.06-12.07-22.29-18.98-34.43-19.46-.46-.02-.91-.03-1.36-.03-10.44,0-20.37,4.75-29.54,14.14l-.62.64c-4.89,5-9.96,10.18-14.22,15.78-2.02,2.64-3.44,6.53-3.82,10.4-.43,4.35-.46,8.83-.48,13.15-.02,3.01-.05,6.13-.2,9.19-.49,9.79-1.26,19.54-1.89,26.95-.91,10.66-6,18.17-15.57,22.94-6.52,3.26-13.06,7.33-19.43,12.09-25.38,18.96-33.36,46.94-21.35,74.83,8.32,19.34,21.96,33.23,40.56,41.3ZM1333.33,670.99c2.58-6.8,7.24-11.45,13.49-13.44,9.29-2.97,21.5-.07,33.5,7.95l1.28.86-1.4.65c-9.68,4.49-19.51,6.71-30.12,6.71-5.16,0-10.49-.52-16.1-1.56l-1.02-.19.37-.97ZM1269.6,787.89c2.43-10.86,8.5-19.24,18.04-24.93l1.29-.77c3.69-2.21,7.51-4.49,11.5-6.26,15.87-7.07,25.08-19.9,28.13-39.22.82-5.18,1.57-10.37,2.27-15.24l.96-6.58.64-.08,55.22-7.49v1c-.01,2.26,0,4.58.03,6.95.04,5.74.09,11.66-.22,17.63-.28,5.55-.82,11.17-1.33,16.6-.42,4.47-.86,9.09-1.15,13.63-1.11,17.21,6.19,29.55,21.71,36.67,1.65.75,3.26,1.58,4.88,2.42l.46.24c7.84,4.04,13.02,9.95,14.57,16.64,1.47,6.34-.26,13.09-5.03,19.51-5.23,7.04-13.68,16.6-24.26,22.16-17.54,9.23-34.65,13.84-51.19,13.84-19.29,0-37.83-6.26-55.47-18.79-18.21-12.92-25.29-29.05-21.06-47.92Z"></path>
  <path class="cls-1" d="M1136.85,766.22c-10.4-1.03-20.79-3.64-30.84-6.17-4.24-1.06-8.63-2.16-12.95-3.13-1.56-.35-3.25-.59-4.95-.59-3.93,0-7.85,1.31-9.97,5.73-2.59,5.39-.71,11.31,4.78,15.08,5.26,3.6,11.03,6.59,16.67,8.66,34.2,12.5,70,11.08,109.41-4.33,19.71-7.69,35.02-17.99,46.79-31.49,17.46-20.02,18.23-46.68,1.96-67.92-8-10.44-18.64-17.97-32.49-22.99-20.83-7.54-41.88-6.71-64.15-5.81l-.65.02c-41.31,1.67-71.61,22.69-92.64,64.27-3.02,5.98-4.49,14.37-4.13,23.64.15,3.82,1.82,7.15,4.72,9.39,3.41,2.65,8.07,3.58,12.81,2.54,3.59-.77,7.09-2.25,9.73-3.44.81-.37,1.51-1.16,2.24-2,.16-.18.31-.35.47-.53-.15-.13-.3-.27-.44-.4-.81-.75-1.57-1.44-2.43-1.89-1.38-.72-2.87-1.27-4.6-1.91-.79-.3-1.65-.62-2.55-.97l-.88-.35.43-.85c.55-1.08,1.04-2.12,1.53-3.12,1.01-2.13,1.97-4.14,3.16-6.01,8.01-12.62,18.89-24.01,33.28-34.83,28.28-21.28,71.93-22.47,101.56-2.74,8.83,5.88,14.16,13.49,15.83,22.6.57,3.11.23,6.38-.1,9.54-.15,1.4-.3,2.81-.37,4.2l-.04.9-3.35-.28-.12-.66c-1.29-7.29-4.85-12.77-10-15.45-5.36-2.77-12.21-2.47-19.32.87-.62.28-1.21.62-1.8.96-.55.31-1.09.62-1.66.91-3.17,1.56-6.33,3.13-9.49,4.71-7.51,3.75-15.26,7.62-23.04,11.13-5.95,2.68-14.5,1.91-21.79-1.92-5.6-2.94-9.26-7.13-10.04-11.5-.5-2.76-2.05-7.35-6.84-7.35h-.2c-3.96.1-8.37,1.76-10.97,4.14-4.27,3.9-4.12,11.48.35,17.64,4.64,6.41,11.29,9.77,20.32,10.27,15.73.79,30.92-3.62,44.23-7.58,4.33-1.29,10.47-2.74,13.91-.64,7.23,4.45,13.91,7.99,22.74,6.06l.89-.19.48,3.07-.47.3c-.77.5-1.53,1.02-2.29,1.55-1.65,1.13-3.35,2.3-5.16,3.25-24.78,13.02-50.9,18.28-77.56,15.62Z"></path>
  <path class="cls-1" d="M1068.77,577.91c-.19,7.22-.41,13.76-.62,19.83-.44,12.56-.82,23.41-.6,34.06.23,10.99,6.62,17.23,18,17.59,12.33.38,23.06,1.13,32.81,2.29,8.09.97,13.82-.1,17.55-3.26,3.57-3.03,5.48-8.1,5.83-15.51.52-11.1-.14-22.31-.93-32.79-2.38-31.85-3.47-69.3,6.51-105.63,1.99-7.24,1.38-14.16-1.87-21.18-1.02-2.21-1.97-4.44-2.93-6.66-1.04-2.41-2.07-4.82-3.19-7.2-6.2-13.29-7.97-26.25-5.4-39.65,1.08-5.61,1.32-11.19.71-16.13-.84-6.73-2.17-15.48-5.03-23.46-2.32-6.47-8.24-9.97-15.35-9.12-8.05.93-11.02,3.94-12.23,12.38-1.18,8.25-1.71,17.37-1.69,28.7.02,4.38.47,8.86.91,13.2.39,3.84.79,7.81.89,11.74.61,23.41-4.81,40.94-17.05,55.18-4.46,5.18-7.89,12.94-8.94,20.24-2.52,17.56-4.28,34.98-5.83,50.34-.55,5.38-1.05,10.44-1.56,15.04ZM1091.88,523.65c.2-12.1,3.93-23.68,11.07-34.43,2.47-3.74,4.38-7.93,6.39-12.37.96-2.12,1.96-4.31,3.06-6.55l.75-1.53,1.51,2.85c4.61,8.75,8.97,17.02,8.76,27.59-.43,21.62-.41,44.73.04,74.92.15,9.06.65,18.26,1.14,27.17.32,5.94.66,12.1.89,18.15.1,2.38-.24,4.76-.58,7.29-.17,1.21-.34,2.46-.47,3.78l-.09.84-7.5-.58c-7.82-.59-15.21-1.16-22.65-2-1.64-.18-3.3-3.44-3.28-5.17.17-32.19.39-66.43.95-99.98Z"></path>
  <path class="cls-1" d="M241.43,1594.82c-1.13-16.74-2.25-33.48-3.32-50.21-.39-6.15-1.22-12.25-2.44-18.15-1.1-5.31-4.38-8.18-9.15-7.97-5.99.31-7.87,4.94-8.41,8.78-.44,3.13-.69,6.19-.77,9.08-1.04,38.79-2.04,77.59-3.05,116.37l-.53,20.27-.57-.02c-.3,11.83-.64,23.65-.97,35.48-.9,32.14-1.84,65.36-2.23,98.05-.12,10.42,2.34,21.08,4.74,31.39l.16.7c1.17,5.03,5.56,8.41,11.49,8.83,5.92.44,10.65-2.41,13-7.71,2.71-6.07,5.78-12.95,6.26-19.61.43-6.11.92-12.22,1.41-18.34,1.74-21.8,3.54-44.34,2.64-66.37-1.92-46.89-5.14-94.52-8.24-140.58Z"></path>
  <path class="cls-1" d="M919.47,976.55c-3.65-.91-6.75-1.24-9.5-1.05-8.45.59-16.7,1.24-24.79,2.61-19.81,3.35-37.49,4.07-54.06,2.18-30.5-3.48-59.71-.43-89.36,9.32-16.89,5.56-31.62,8.92-45.02,10.29-15.78,1.61-31.94,2.01-47.56,2.41-6.75.17-13.51.33-20.25.59l-.86.03-.04-1.03-10.6-.28c-10.91-.3-21.82-.59-32.74-.81-.59,0-1.18-.03-1.78-.05-.93-.03-1.87-.06-2.8-.06-2.19,0-4.33.17-6.16.88-2.81,1.1-6.17,3.86-6.68,6.23-.31,1.41,2.54,4.72,5.21,6.62,2.38,1.71,5.7,2.49,8.9,3.14l4.11.84c10.49,2.15,21.34,4.37,32.07,6.06,52.84,8.29,98.34,4.62,139.14-11.18,18.02-6.99,37.93-9.33,62.7-7.33,20.02,1.61,43.72,3.25,67.74,3.26h.04c11.5,0,23.43-2.69,34.59-5.59,7.43-1.94,10.09-8.92,9.44-14.99-.65-6.01-4.93-10.42-11.74-12.09Z"></path>
  <path class="cls-1" d="M2456.89,1401.16c-2.89-.23-5.45-.1-7.61.37-7.04,1.59-14.09,3.14-21.14,4.69-20.05,4.42-40.78,8.99-60.98,14.19-22.47,5.79-46.71,10.8-71.89,8.52-23.64-2.15-54.55-6-84.01-16.74-1.44-.53-2.83-.79-4.13-.79-2.07,0-3.9.66-5.27,1.96-2.22,2.09-2.83,5.45-1.69,9.23,1.22,4.01,4,8.12,7.25,10.74,6.13,4.92,12.08,8.55,17.68,10.78,50.45,20.12,97.58,25.28,144.15,15.8,14.65-2.99,28.73-7.24,43.63-11.75,6.6-2,13.42-4.06,20.25-5.99l.79-.22.27.77c.83,2.4,1.51,3.93,2.31,4.2.87.28,2.66-.7,5.24-2.42,4.75-3.18,9.46-6.41,14.16-9.64,2.72-1.87,5.43-3.73,8.15-5.59,6.95-4.74,9.59-10.4,7.83-16.85-1.72-6.34-7.47-10.66-14.99-11.28Z"></path>
  <path class="cls-1" d="M1595.57,758.23l.58.27c3.39,1.56,7.22,3.32,9.45,6.22,4.55,5.92,7.02,7.24,13.58,3.97,8.74-4.35,19.02-11.42,20.97-27.52l.14-1.09,1.02.38c2.44.9,4.85,1.69,7.21,2.47,5.19,1.71,10.1,3.33,14.61,5.81,9.97,5.46,21.97,11.23,35.41,12.53,19.17,1.87,38.81,2.85,55.72,3.62,5.18.23,10.47.12,15.6,0,4.58-.1,9.33-.21,14-.06,4.15.14,8.05,2.1,10.01,3.26,2.81,1.67,5.43,2.14,7.62,1.35,2.06-.74,3.68-2.63,4.7-5.47,1.2-3.37.97-6.98-.66-10.17-1.69-3.32-4.71-5.77-8.5-6.88-4.98-1.47-10.74-2.09-17.23-2.03-7.17.14-14.45.52-21.5.89-6.97.37-14.16.75-21.26.88-1.31.03-2.62.04-3.91.04-25.84,0-46.09-5.13-63.45-16.03-14.65-9.2-28.8-14.27-43.22-15.52-6.51-.56-13.84-.04-21.2,1.53-2.26.48-5.49,4.35-5.76,6.91-.27,2.47,2,6.08,4.38,8.38,1.24,1.2,3.1,1.82,5.06,2.47,1.22.41,2.47.82,3.62,1.4,2.95,1.48,5.87,3.12,8.96,4.85,1.36.76,2.77,1.55,4.27,2.37l.93.51-.69.81c-2.78,3.26-4.69,5.52-5.69,6.68l-.39.45-.56-.2c-2.29-.81-4.46-1.63-6.56-2.43-4.59-1.74-8.92-3.38-13.31-4.42-.77-.18-1.86-.37-3.06-.37-2.7,0-5.9.98-6.99,5.29-1.15,4.49,1.49,6.71,6.1,8.83Z"></path>
  <path class="cls-1" d="M1608.24,594.05c17.93-.16,36.12-3.68,55.59-10.79l.61-.22c2.21-.79,4.71-1.68,5.77-3.21,1.96-2.79,5.22-7.48,4.53-10.36-.63-2.64-4.88-5.65-8.62-7.02-1.36-.5-3.01-.75-4.91-.75s-3.96.24-6.3.71c-15.12,3.07-32.69,6.71-50.02,10.94-9.22,2.25-13.16,6.08-12.41,12.04.73,5.7,6.03,8.62,15.76,8.67Z"></path>
  <path class="cls-1" d="M903.11,640.76c-10.23,0-20.67,1.05-30.96,4.32-4.69,1.48-9.43,4.47-12.67,8-2.11,2.29-2.88,5-2.17,7.62.75,2.77,3.15,5.03,6.41,6.02,3.1.95,6.45,1.39,9.69,1.82,1.47.19,2.95.39,4.41.63l.53.09.19.6c4.2-.66,8.39-1.29,12.59-1.93,10.53-1.59,21.41-3.24,32.04-5.26,6.33-1.21,9.88-5.28,9.48-10.89-.4-5.59-4.56-9.53-10.59-10.06-6.18-.54-12.53-.95-18.95-.95Z"></path>
  <path class="cls-1" d="M1121.23,1022.75c.51-.32,1.15-.68,1.88-1.1,2.26-1.28,5.36-3.03,7.8-5.39,2.4-2.31,3.77-3.84,3.67-4.85-.1-1.05-1.94-2.31-4.74-4.12-1.3-.84-2.19-2.18-3.05-3.48-.26-.39-.51-.78-.78-1.15-2.27-3.16-5.54-4.82-8.88-4.82-2.1,0-4.24.66-6.17,2.03-4.67,3.28-6.26,7.83-4.72,13.54,1.62,6.01,6.67,9.16,14.99,9.35Z"></path>
</svg>