<?xml version="1.0" encoding="UTF-8"?>
<svg id="Layer_1" data-name="Layer 1" xmlns="http://www.w3.org/2000/svg" viewBox="0 0 1096.99 2000">
  <defs>
    <style>
      .cls-1 {
        fill: #F3EFE2;
      }
    </style>
  </defs>
  <g>
    <path class="cls-1" d="M5.75,1895.73c-15.98-15.7,4.25-45.93,24.98-61.95,14.4-11.14,30.6-17.7,47.64-24.12l16.26-7.42c-.88-3.93-1.52-7.75-1.52-11.36v-19.21s6.66-220.77,6.66-220.77l10.69-209.61c4.2-82.35,11.12-163.22,21.49-244.66l3.49-20.15c-4.28-2.03-8.57-6.66-7.16-12.67l5.96-25.42c-26.67-31.83-44.6-72.79-57.12-112.99-33.86-108.72-13.5-204.64,18.87-310.57,5.02-16.42,11.04-31.5,18.75-46.56,7.52-14.68,18.32-26.12,32.54-34.19,12.63-7.17,24.82-13.82,38.16-19.71l54.3-23.95-13.52-7.96c-2.47,7.61-7.39,14.02-15.24,15.92-3.44.83-8.98-2.99-6.69-6.43,3.49-5.24,8.18-12.91,3.88-19.12l-15.93-23.02c-.67-1.39-1.49-2.99-1.11-2.08,1.15,17.38,10.14,26.18,2.42,44.86-5.02,12.15-22.08,20.53-28.76,12.51-4.39-5.28,10.27-8.14,9.39-16.83-1.58-15.66-12.83-10.04-26.37-22.24,3.77,12.23-5,24.57-15.03,25.85-2.01.26-5.53-2.05-6.21-3.32-2.1-3.89,7.31-6.37,6.62-15.32-.23-2.96-3.55-5.88-6.39-8.12-11.6-9.11-11.85-25.21-6.18-37.81,4-8.9,9.82-14.06,17.01-19.76,6.46-5.13,12.86-10.96,20.66-14.58,1.06-.49,4.41-.4,4.38.69l-.1,4.91c-10.1,10.73-15.29,24.04-13.94,38.66,2.15,13.82,11.02,24.08,22.54,31.23,6.48,4.02,10.18,9.25,12.91,16.96,1.79-3.72,2.31-9.04.98-13.14l-7.39-22.83c-4.92-15.22,1.83-32.81,14.74-42.12,16.91-12.19,24.3-31.97,20.26-52.98l-13-.69c9.72,23.73-5.22,45.5-20.91,65.45-.24-5.09.8-8.96,2.28-13.07l8.37-23.17c4.35-12.05-7.19-22.23-4.3-35.95-23.14-15.87-32.57-45.53-17.71-70.75l-23-9.49c-2.19-.9-6.76-4.15-6.88-6.47-.7-12.73,23.05-6.31,38.5-2.4,15.36,3.88,31.02,4.88,45.74.92-7.45-2.06-12.72-3.61-18.92-7.32l43.13-5.3c44.77-5.51,74.56-40.07,97.77-76.71,17.46-27.57,35.77-58.68,68.28-65.89,22.86-5.07,44.45,7.92,49.6,30.44,8.24-9.17,17.71-15.43,29.52-15.75,14.57-.4,26.48,8.88,32.41,21.97,8.91,19.65,12.59,40.58,12.57,62.35l-.02,36.62c12.99-10.9,26.18-18.69,42.1-22.3l-10.4-37.17-11.42-34.91c-5.86-17.92-15.08-34.19-30-44.99-15.29-10.69-33.75-13.76-50.48-5.05-1.92-.15-4.42-.56-5.51-1.29-5.6-3.77,12.02-20.07,34.5-18.39,29.78,2.22,54.76,21.97,65.14,49.8l8.55,29.19c3.02,10.32,9.16,19.55,18.91,23.58s19.56,1.65,26.49-7.04c4.28,2.6,3.92,7.06,1.31,10.72-8.63,12.06-24.48,15.07-39.15,9.43,4.42,7.62,7.36,14.24,7.8,21.56,5.56.04,10.5.77,15.88,2.94,5.64-16.42,30.6-37.93,37.07-30.79,1.26,1.39.72,5.58-.89,7.12-10.37,9.92-18.02,20.23-25.55,32.44-1.05,1.71-3.38,4.1-4.92,4.75-1.75.75-5.98-1.24-7.74-2.27-2.42,2.55-5.26,5.15-9.32,5.77-25.27,3.86-49.92,16.36-65.51,37.36-4.04,15.94-7.84,32.23-13.07,48.04l-13.82,41.8c37.36-21.28,65.2-51.84,89.38-86.51,2.29-3.29,6-5.92,9.31-7.86-.01-12.61,1.7-26.41,10-25.1,7.63,1.2.2,13.61,5.45,31.95,4.07,14.21,9.62,27.2,15.58,40.81,30.54,69.72,78.08,111.36,144.3,146.85,6.47-.51,10.84,4.4,10.08,7.29-.37,1.41-1.9,3.13-4.08,5.48,8.47,2.55,12.96,11.36,15.24,20.59,10.36-4.53,20.52-4.09,30.51.23,9.49,4.1,15.28,11.36,15.57,22.3.31,11.66-3.96,22.68-10.96,32.36,28.1,33.38,51.91,77.87,70.83,117.6,21.94,46.07,41.54,92.81,60.22,140.58,46.22,118.19,88.48,237.26,128.11,357.5,3.74,11.35-.24,20.18-10.84,24.48-1.15.47-3.53,1.88-4.44,2.58-1.09.84,1.05,4.33,1.47,5.78l6.35,22.02c-.46,2.47-1.56,3.3-2.3.17l-7.59,1.11-7.44-25.61-22.66,11.19-34.39,20.97c22.88,8.82,50.72.25,60.46,3.74l18.9,6.79c12.26,24.9-11.33,47.23-33.53,61.63-28.11,18.23-62.46,30.96-96.69,29.61-.75-.17-2.56,1-2.05,1.39l6.25,50.88c1.03,8.4-2.07,17.72-9.3,22.22l-20.25,12.58c-25.06,9.71-51.41,14.82-78.35,12.89l-3.37-.74c-.81-.18-.15,2.57.16,3.94,17.7,76.72,33.29,153.06,46.16,230.96,11.96,72.44,21.71,158.28,16.26,230.64-.81,10.73-3.18,21.23-6.52,31.19-3,8.93-9.39,14.83-17.13,19.45-46.94,27.99-112.07,43.44-166.81,50.43-132.61,16.92-270.69-.7-393.39-53.69-26.19,17.42-87-2.49-112.16-18.8l-31.16-20.19c-20.76-13.45-17.23-44.24-7.14-66.8l.45-27.36,12.47-134.14,7.54-81.67.25-2.34,1.63-10.86c.05-1.63-.92-4.13-1.53-1.39l-21.67,125.94-16.75,100.1c-1.44,8.62-8.63,9.32-6.36,14.09,2.49,5.23,3.96,12.3.05,17.2l-10.63,13.31c-14.32,17.94-30.42,33.75-50.89,44.51-22.09,11.61-46.05,17.23-70.81,13.37-8.03-1.25-16.4-3.72-22.12-9.33ZM189.04,320.57c6.52,7.83,13.28,13.88,24.08,15.16.22-8.5,2.51-18.13,9.88-23.74,2.16-.44,7.6,2.41,8.25,4.64,6.16,21.32.36,47.88,16.27,82.97,8.34,18.39,21.77,31.46,39.84,40.84,25.16,13.07,53.22,19.7,81.88,19.75,17.15.03,32.72-4.27,47.54-11.85,27.27-13.93,46.69-35.86,59.38-63.9,17.92-39.57,28.11-80.9,36.86-123.67,5.54-27.06,4.06-54.23-1.23-81.37-1.81-9.29-6.66-18.25-11.8-25.59l2.2-3.56c.31-.5-2.79-.8-3.43-.89l-16.43-2.1c-1.13-.14-4.01-.72-3.93-1.7.51-6.5,13.39-7.93,23.98-6.27-6.59-5.72-15.89-5.4-23.3-1.38l-15.24,8.27c-6.21,3.37-11.74-.11-15.26-5.29l-9.1-13.39c-3.99-5.87-11.75-7.43-17.54-6.01,15,5.61,19.4,15.94,15.31,16.53-1.17.17-3.18-.32-4.63-1l-4.83-2.23c-1.05-.49-3.32,1.8-4.57,2.86-10.78-3.92-21.44-4.12-31.77.08-7.24,8.55-13.28,17.09-19.05,26.41l-19.7,31.83c-21.34,34.47-61.23,66.54-102.75,68.83-4.64,8.85-5.01,19.9-11.21,26.93l-15.36,17.4c-1.27,1.44-4.78,1.86-6.47,1.13l-10.16-4.41-.11,13.23c-.02,1.29-4.04.9-4.87-.25-4.63-6.4-3.8-14.44,2.43-19.63l-8.42-8.76c1.69-4,6.98-5.53,10.61-2.58s6.63,7.18,10.06,11.76l3.39-19.04c-10.7,2.53-22.59,2.33-32.95,2.43-9.54,11.43-6.86,26.74,2.16,37.58ZM763.62,546.21c3.11.24,6.69-1,7.01-2.46-.2-5.73.45-12.35,2.33-17.73l8.79-25.19c2.42-6.94,1.08-14.5-1.16-21.28-26.22-6.01-48.25-19.21-69.41-35.07-50.31-37.69-85.75-89.43-101.82-151.7-26.01,40.11-65.28,73.33-110.67,88.77-13.03,40.36-13.46,81.16-1.71,121.81,12.47,43.17,47.09,79.14,90.15,92.26,61.18,18.65,132.36-4,176.48-49.4ZM214.98,452.54c-3.93-13.63-1.5-26.37,6.48-37.84,3.36-4.84,4.58-9.37.04-15.28-4,8.95-10.36,14.81-18.38,21.63-4.95,13.29-.07,22.63,11.87,31.49ZM237.92,477.89c1.51-.07,1.53-4.92.76-6.3-7.57-13.61-8.03-28.13-1.5-42.25l-3.74-6.8-7.73,16.76c-4.23,9.17-.95,18.34,2.25,27.61,1.54,4.44,3.35,11.28,9.95,10.98ZM133.09,450.64c-2.68-10.53-3.07-17-2.96-26.2-3.83,10.73-4.97,22.92,2.96,26.2ZM450.85,493.69l13.93-27.1.6-28.16-10.66,11.15c-1.15,1.2-1.04,6.14-1.27,7.79-1.66,11.71-7,23.23-2.6,36.32ZM253.91,479.8c2.86.64,4.89.77,6.74.11,1.44-.51,3.84-4.41,2.95-5.7-4.53-6.57-6.58-14.89-3.49-22.66l-10.35-8.46.71,12.7,2.23,16.94c.52,3.96-2.28,8.39-4.14,12.52,2.82-.27,5.31-3.62,5.35-5.45ZM278.43,462.64c-1.04-1.2-5.56-3.03-6.67-3.33l.34,9.92c3.52,1.66,9.21-3.27,6.33-6.59ZM426.09,512.82c3.57-5.09,4.93-5.7,8.03-8.35l6.24-5.32c-8.91-11.35-9.49-22.46-4.27-35.88l-13.27,6.96c1.18,14.71,1.54,28.7-11.64,35.16l14.9,7.43ZM335.82,509.21l8.21-8.19c4.54-4.52,6.9-10.58,7.72-17.03-18.51-.59-34.37-5.27-51.35-12.41l-.75,7.75c4.43,4.87,9.18,10.65,14.37,14.34l21.8,15.53ZM409.27,504.21c-.26-10.39.02-18.11,1.29-28.53l-11.11,3.81-2.43,18.36,12.25,6.36ZM300.09,571.38c-1.01-.83-1.37-3.98-.79-5.16l1.67-3.43c.33-.67,2.69.6,3.67,1.13-4.7-18.94,4.54-32.75,20.48-46.38-16.35-8.27-40.4-21.07-43.16-36.4-8.79,10.02-10.12,22.69-6.75,35.3,4.76,17.85,11.18,34.8,18.32,51.89l4.58,11.83,13.09,37.72,4.67-45.69c.18-1.51-2.21-5.15-3.96-5.29-4.69-.37-8.35,7.33-11.81,4.48ZM386.12,493.3c-.07-4.46.89-7.06,3.1-11.02l-16.11,1.71,9.34,11.36,3.68-2.05ZM491.13,571.63c7.86,18.13,13.82,35.93,18.9,55.14l13.86-1.17c-9.49-12.92-7.11-28.88,2.39-40.86-32.24-26.93-47.9-54.3-58.21-94.96-11.26,9.61-3.28,20.55-16.41,16.49-4.73,6.33-11.02,8.68-20.32,9.11l23.49,14.72c16.11,10.1,28.7,23.97,36.3,41.51ZM362.17,531.21c3.22-12.66,4.92-24.58,4.6-37.98-5.92,8.29-11.44,15.45-18.61,21.57,6.36,3.63,10.1,9.05,14.01,16.41ZM375.59,891.9l-3.98-7.26c-4.32-7.89-11.82-11.55-20.62-9.25l-10.96-7.25c-2.42-.77-8.61,2.02-10.29,4.18l-15.34,19.83c-4.26,5.51-10.03,9.68-11.61,16.79l5.48,7.38c.76,1.02.53,4.39-.21,5.35-2.68,3.47-6.43-2.11-15.66,3.31-11.8,6.94-14.41,18.87-10.61,30.98-3.65,6.66-9.32,16.5-2.44,23.49,9.28,9.43,24.78,2.26,30.51,5.1,4.5,2.22-8.16,11.03-19,13.08-10.38,1.96-19.01-5.25-23.01-12.67-5.26-9.74-2.77-19.72,4.7-27.74-4.01-7.33-6.4-16.42-2.43-25.51,3.22-7.38,9.49-13,17.93-16.84-3.68-1.09-6.85-1.13-10.25-.83-9.09,2.1-16.83-2.03-21.48-9.57-8.44.88-14.88-3.34-18.65-10.26-6.1-9.72-4.36-21.84,5.47-29.07-2.52-11.58,2.33-21.42,12.8-26.71l17.89-3.91c2.59-6.07,6-13.92,13.53-15.86,7.09-1.83,15.4,1.28,20.62,6.45,9.06,8.96,11.74,22.59,9.1,34.1l6.9,3.08c6.18-3.86,13.41-5.83,21.78-5.48l3.39-7.3c-12.09.16-23.51-7-27.46-19.49-2.54-8.05,5.3-11.12,6.05-22.24l1.02-15.16c1.6-23.78-3.31-46.34-8.07-69.57-8.36-40.8-20.39-79.18-34.74-118.22l-22.64-61.55c-3.44-9.35-4.56-19.94-1.87-29.28.41-1.43,2.32-4.15,1.32-5.25-1.78-1.95-2.54-5.61-2.24-8.93-2.07,1.3-7.25,5.27-8.52,8.57-11.03,28.62-19.77,57.39-25.76,87.57l30.99,6.25c2.82.57,5.84,3.76,6.67,5.93s.4,8.2-1.15,9.98l-20,22.9,53.53,109.17,24.34,62.41c-.23,1.23-1.14,4.52-2.05,4.09l-3.19-1.52-26.26-47.93-59.27-117.53c-3.25-6.45-2.78-13.03,2.35-18.21l16.02-16.19-25.1-4.18c-6.41-1.07-11.52-7.46-10.41-14.34,4.57-28.31,11.34-55.34,20.04-82.72-20.12,8.62-38.92,17.58-58.11,27.57,6.29,14.26,9.76,28.03,12.1,43.37,5.35,42.93,5.8,85.27.66,128.49,1.9,42.37,2.32,83.23.92,125.52-1.12,29.35-5.17,56.69-11.1,85.35l-16.35,79.04-11.62,54.07c36.96,11.2,74.1,17.7,111.95,19.8,12.39.69,24.58-2.95,33.16-12.4-5.28-.66-10.91-.51-14.33-1.73-8.55-3.04-8.22-12.44-8.72-19.14-6.01-2.49-12.85-5.62-14.72-13.45-2.1-8.8,1.18-18.8,8.4-24.45,6.8-5.31,14.01-3.72,20.43.95,2.31.1,6.34.94,8.44,2.57-2.23,3.97-5.5,6.91-8.99,8.6-4.66,2.25-8.03-1.19-10.01-5.91-3.82,1.26-6.51,4.89-7.35,8.7-2.88,13.05,10.72,11.34,12.91,15.92,1.81,3.78-1.32,10.82,3.67,16.09,4.41,4.65,15.25-3.53,19.04,6.75,1.74,4.71,6.73,7.02,11.94,4.63,15.49-7.09,28.01-23.79,19.95-37.58-6.24-3.26-12.1-6.25-11.64-14.95l-8.55-6.53c-5.8-9.95-1.29-22.73,7.86-27.7l-1.47-10.72c-5.54-1-10.98-4.79-12.29-11.3-4.97-24.76,16.18-43.59,25.78-38.84,1.43.71,2.79,4,2.94,5.79-6.2,2.81-10.96,6.1-13.2,12.38-4.29,12.01-5.83,22.85,4.26,28.85,4.79,6.09,12.09,7.51,19.31,4.01,8.98,3.64,17.36-.43,23.08-7.96l16.88-21.63c6.18-7.91-1.11-19.77-9.71-22.36l-5.3-11.2c-8.21-4.9-17.19-3-24.46,2.92-1.25,1.02-4.61,2.75-5.85,2.48-2.06-1.46-6.15-4.78-8.46-4.22-9.78,2.34-12.82,13.19-18.21,11.54-5.69-1.74-1.43-17.51,13.41-24.08,5.94-2.63,12.24-.82,17.22,1.74,7.72-8.97,20.91-10.71,28.35-2.03l.63-1.11ZM789.32,537.58l-9.57,12.28c5.43,3.72,12.93,5.65,20.08,3.64,18.59-5.22,31.14-23.8,28.65-42.99-.51-3.93-3.43-7.7-5.79-9.17-2.48-1.55-8.63-2.35-10.72-.84l-10.2,7.41-4.72,15.8c5.09-.84,10.19-.74,12.79,3.21,1.7,2.57-.17,7.05-2.84,8.5-5.35,2.91-11.5-3.79-14.54-2-.96.56-2.08,2.79-3.14,4.16ZM363.83,575.35l11.13,82.27c15.69-46.67,21.3-96.12,4.38-144.76l-9.76,42.7c-.24.55-2.61,4.12-3.36,3.37l-3.71-3.68c-4.64,6.24.31,12.63,1.32,20.1ZM384.16,775.09c3.27-11.51,16.1-18.32,26.8-14.2,10.94,4.21,10.37,16.34,10.5,25.06,6.09,4.26,14.29,9.79,14.4,19.83.91-12.15.59-21.99,2.7-33.02,5.82-30.54,12.87-60.08,21.79-89.8l7.88-19.83c2.63-6.63,6.87-11.98,11.55-17.44-1.42-22.75-4.42-44.27-8.8-66.51l-.6-9.46c-14.86-23.15-47.52-35.7-72.19-49.13,7.75,20.33,8.01,49.28,5.59,72-3.99,37.44-15.5,73.18-31.9,106.89-6.07,12.47-17.32,37.35-23.39,39.34-1.13.37-3.36-1.71-4.01-2.77l-8.69-14.14,6.63,48.83,7.18-25.43c.42-1.49,2.65-4.9,3.91-4.34,7.37,3.28-.45,24.85-4.73,37.91l8.77,3.9c4.39-10.67,15.35-12.78,26.62-7.7ZM347.08,556.65c.99-2.82,3.63-10.38,1.71-13.43l-9.35-14.88c-7.38.92-13.46,7.15-13.49,14.4-.02,5.68,2.49,12.34,4.4,17.57l16.73-3.67ZM152.34,782.15c4.8-23.97,10.46-45.53,16.9-68.45l-16-43.96c-1.41-3.87-1.87-7.74-2.28-12.13,1.87-2.12,3.76-4.02,5.39-4.39,1.39-.32,5.15,1.6,5.71,3.06l12.46,32.25-.62-29.33c-2.57-36.39-8.03-71.67-15.59-107.7-11.93,7.59-19.45,18.5-25.41,31.15-12.96,27.49-22.52,55.39-30.51,84.9s-16.33,59.57-19.16,91.3c-6.75,75.75,7.51,150.88,38.18,219.91l18.48,33.73,17.91-83.17c-6.06-18.27-8.75-36.86-10.58-56.29-2.9-30.72-1.17-59.94,5.13-90.85ZM999.81,1224.65l11.5-11.12c20.95-17.71,45.02-30.15,70.51-41.51l-11.64-33.58c-42.6-130.35-88.94-258.98-140.58-386.23-17.54-43.23-36.58-85.11-58.35-126.11-13.03-24.53-27.09-47.5-43.03-69.3l-15.67,10.36c4.79,4.51,9.28,10.05,11.97,16.6,13.54,32.87,25.5,65.2,36.11,99.45,20.08,64.79,38.95,129.03,55.95,194.83l48.57,207.54,29.18,125.07,5.47,14.01ZM940.84,1317.22c4.17-1.61,6.62-4.46,5.92-8.7l-27.53-166.97-36.16-175.68-5.77-27.14-16.29-63.03c-10.3-39.84-22.82-78.18-28.99-118.86l-7.67-50.54-7.53-72.05c-.19-1.79-1.86-5.38-3.02-4.64-1.76,1.13-2.83,2.41-4.96,5.32l-6.25-18.17-9.8-31.75c-1.34-4.36-2.17-9.45-2.49-13.49l-12.97-4.79c9.58,26.21,18.18,52.11,23.08,79.73l17.22,97.18,12.17,104.93,7.49,82.23,7.88,120.64c6.48,99.12,16.01,196.82,27.77,295.57,14.84,8.17,30.64,11.82,46.79,15.11,11.81,2.35,21.91,5.01,33.91,9.51l-4.82-41.5-50.97,14.95-13.69,3.19c-1.42.33-5.56-2.54-4.82-3.71l2.71-4.31c18.6-10.08,37.85-17.02,58.78-23ZM1080.59,1247.93c-6.64-5.06-12.51-4.17-19.1-3-19.5,3.46-39.31,3.06-57.6-3.02-12.35-4.1-19.35-10.9-22.2-23.8l-33.77-153.01-39.54-171.29-53.79-188.18-16.24-53.31-31.15-82.49c-2.09-.49-5.25.03-6.92.76,7.61,18.09,13.48,35.6,17.47,55.2l24.63,121c18.18,89.34,38.5,177.6,59.54,266.46,18.49,78.09,36.29,155.64,49.19,234.54l10.8,66.03c29.75.51,66.48-14.65,91.35-30.49,14.12-8.99,34.77-29.74,27.34-35.4ZM347.19,720.44l14.7-29.17-6.15-42.08-3.55-27.67-7.13-51.06c-4.79,2.02-8.06,2.41-11.89,1.29l-6.81,77.41c-.2,2.3-3.6,5.69-5.52,7.66l26.36,63.63ZM712.32,785.34c2.95,47.67-9.46,94.18-34.2,134.7,29.51,24.1,51.6,61.46,65.38,96.1,12.74,32.04,23.87,63.49,32.24,97.15l43.18,173.75c-.92,12.7.63,23.73,3.11,35.77l4.62,17.97,2.83,8.59c4.47.81,6.76,3.3,7.83,7.42l14.28,55.04c24.73,1.99,49.09-1.34,72.45-9.14,9.88-3.3,18.23-7.81,25.59-16.73-10.5-4.26-20.2-5.99-30.66-8.04-15.86-3.11-31.3-6.73-46.16-12.57-8.62-3.39-13.65-9.65-14.6-18.79l-9.99-96.41-7.69-98.6-14.75-192.5-21.15-202.36c-7.87-63.06-19.58-124.42-40.8-185.07l-19.86,17.08c9.01,12.97,20.29,39.96,9.17,49.47-2.51-7.64-2.93-13.66-6.68-20.36,2.58,11.65,4.79,23.26-2.77,33.13l-14.67,19.17c-10.37,13.55-9.44,33.35,5.71,42.04,6.66,3.82,14.79,3.66,23.46,4.16-4.18-20.28-7.02-41.2-5.51-62.79.43-6.17,4.07-12.46,7.06-18.45,4.24,9.31,5.38,18.18,7.1,27.7,3.45,19.02,5.35,37.46,5.03,57.32,15.84,5.26,28.64,17.94,30.35,34.97,1.16,11.61-2.93,23.34-10.47,31.84l-20.42,23.03c-9.53,10.74-7.95,25.05,1.95,34.5,2.1,2.01,1.9,7.49.37,9.32-6.56,7.85-28.27-7.43-31.18-27.29-3.26-22.27,16.16-33.08,11.93-44.88-1-2.79-5.58-6.78-9.42-6-12.12,2.47-19.87,12.29-32.65,9.74ZM558.49,622.96c2.16-4.05,3.4-10.08,3.7-13.61l-22.47-12.59c.36,11.72,1.33,26.41,9.25,28.29,2.44.58,8.37.08,9.53-2.1ZM497.99,630.76l-9.99-29.23,2.3,33.98,7.69-4.75ZM755.79,811.69l17.3-20.87c5.27-6.36,10.49-12.99,12.71-20.96,3.19-11.41-1.29-22.42-11.23-28.53-6.68-4.1-14.37-6.63-22.54-7.3-16.41-1.36-31.78-9.66-39.71-24.38-4.6-8.54-3.29-17.92-2.92-28.06-4.6,8.53-5.41,17.46-5.86,27.93-5.76-8.85-4.93-18.9-2.25-28.23,6.14-21.39,23.21-28.82,26.29-47.72,1.79-10.97-2.95-21.59-12.69-26.51-33.51,14.97-69.32,21.02-105.21,14.85-.36,4.25,1,10.66,4.07,12.88l37.93,8.53c9.44,2.12,19.14,5.98,25.52,13.42,19.2,22.38,28.19,71.17,33.48,102.39.89,5.23,8.85,4.78,12.21,3.06,16.25-8.3,28.92-10.16,41.82,3.05,7.13,7.31,7.61,17.84,1.94,26.93-3.9,6.26-9.22,11.77-10.84,19.51ZM578.74,704.68c18.07-10.42,30.38-27.85,39.17-46.42-20.6-4.09-26.17-19.39-25.14-39.59l-15.42-4.54c-2.65,13.77-9.96,26.38-21.62,34.63-2.57,1.82-6.73,2.55-9.77.7l2.72-6.64-14.9,3.03c-5.55,17.1-3.4,35.08,6.27,50.21,8.12,12.7,24.66,16.73,38.7,8.63ZM465.18,949.63c-8.13,5.15-13.38,18.76-6.62,27.31,3.91,4.94,5.81,8.87,5.32,15.61-.22,2.94,4.9,6.82,7.59,7.87,9.23,3.6,16.41-11.44,30.3-1.5l13.08-9.46c1.13-.82,4.56-.68,5.37.45,2.97,4.19-7.98,15.77-15.11,19.81-6.38,3.62-13.21-1.99-18.68-3.97-7.14,4.54-14.86,7.53-23.09,4.1l-21.97-9.17c-7.1-2.96-14.34,3.19-20.27,5.32-6.29-2.7-12.2-5.54-18.11.22-3.92,3.82-6.95,9.28-9.97,14.78l-8.23-2.6-14.12,10.59c-15.17,11.37-25.84,24.62-16.37,40.07,2.2-1.28,4.87-2.48,4.6-3.56l-1.01-4.12c-3.14-12.89,6.13-25.05,19.01-28.51,1.74-.47,5.39,2.11,5.07,3.6-1.2,5.63-18.16,9.26-15.72,23.18,2.07,11.78-8.78,15.68-3.81,24.82,1.23,2.27,4.95,5.24,7.95,5.6l14.04,1.72c1.65.2,4.73,2.45,4.76,4.04.03,1.36-1.93,3.77-3.22,4.46l-7.47,3.99c5.69,1.19,10.51.09,15.27-1.22,6.12,3.88,12.76,4.82,18.29-.47l11.61-11.11c9.73-1.44,17.62-4.92,26.65-10.34l8.75,10.41c4.68.37,4.14-5.84,12.61-14.99,3.18-3.43,5.95-11.97,4.7-16.87-1.82-7.12-7.12-12.35-9.77-19.03-1.65-4.16.88-10.84-6.45-12.35,2.1,8.23-.77,17.53-7.91,18.9-1.07-6.31-2.39-10.37-5.76-14.18-6.19,5.62-9.94,3.84-16.12,2.25-9.55-2.45-20.4,5.47-23.56,14.58,4.93-2.06,9.65-3.01,13.09.77,4.15-1.1,7.16-.72,9.83,3.58l-5.95,14.64c4.62-1.85,12.18-5.04,14.25-10.1l4.03-9.87c.57-1.38,4.22-2.88,5.41-2.19s2.89,3.02,3.5,4.41c3.81,8.68.66,15.8-6.78,21.25l-20.77,15.22c-7.38,5.41-16.52,4.77-24.8,2.35-9.28-2.71-15.42-9.82-15.58-19.92-.11-7.06,1.16-14.4,4.41-20.5,2.2-4.12,6.43-5.57,11.04-3.31,4.79-16.9,21.42-25.95,38.69-22.6,13.11-5.5,27.9-14.82,38.24-5.02,2.56,2.43,3.42,7.35,4.01,11.56l.9,6.43c6.76,2.41,11.06,6.14,15.16,12.78,5.88-10.37,14.35-19.05,24.89-25.37l16.4-9.85,32.09-20.76,40.55-27.15c21.91-16.52,39.55-35.71,54.27-58.79,15.96-25.04,25.05-52.24,26.83-82.13,1-16.77,1.23-32.6-.5-49.35-3.25-31.43-8.93-61.8-18.82-91.74-6.83-20.67-20.55-21.49-40.33-25.24-.98,6.23-1.97,10.65-4.35,15.35-12.73,25.1-30.51,51.39-58.78,56.86-16.41,3.17-32.99-2.83-42.71-16.43-14.73-20.61-17.34-47.86-4.9-70.85-15.81-1.77-33.88,15.76-36.79,30.27-4.63,23.05-10.14,44.88-16.87,67.45-5.19,17.4-9.14,34.13-11.9,52.3,6.36-.66,12.5,1.18,14.42,7.14l3.75,11.66c4.97-4.68,12.37-6.87,18.11-2.59l8.37-3.73c2.39-1.06,8.23-.2,10.51,1.63,1.84,1.48,3.98,5.73,3.84,8.17l-.67,11.51c6.97,2.26,13.23,8.43,10.91,16.39-2.06,7.06-7.62,13.89-14.27,17.15-5.49,2.69-12.45.97-17.08-1.93,3.08-9.5,9.97-14.33,18.23-20.26l-10.31-7.66.24-12.7-13.4,7.5-5.99-7.24-12.71,7.04c-9.72-2.9-1.78-22.31-10.7-23.45-8.05-1.03-12.3,7.82-12.13,14.64-2.47,2.38-5.18,4.66-5.92,6.74-.83,2.33.31,7.48,1.8,9.3l9.09,11.08c7.5-4.84,15.14-4.59,21.42-.51,6.82,4.43,9.4,11.63,7.56,20.08,10.96,2.01,17.15,11.87,14.15,22.14l1.61,4.56,6.26-6.01c1.45-13.65,14.73-21.44,27.81-17.88,7.35-4.17,15.15-4.89,21.74.36,3.57,4.87,3.97,10.54,2.94,17.39l23.64.29c12.6.15,24.75-3.43,36.03-7.76l-.11-18.27c1.34-23.07,13.02-55.76,28.05-73.59l-8.2-53.44c-2.87-18.71-3.43-36.64-3.01-55.63.06-2.77,3.49-6.38,5.65-6.61,1.93-.21,5.84,2.28,6.25,4.26l7.4,35.65c7.56,36.43,19.94,86.11,13.18,120.81-4.98,25.55-16.7,47.78-31.82,68.73-19.31,26.77-41.49,49.94-65.67,72.27l-24.33,26.06c-1.7,1.82-5.88,3.48-7.87,2.79s-4.84-5.55-4.06-7.53l4.56-11.6c1.95-4.96,4.97-11.91,1.9-16.78-2.51-3.98-4.18-6.82-2.89-11.54,1.71-6.28,2.15-13.51-2.42-18.79-3.62-.3-7.93,2.67-11.03,5.51-1.5-.04-5.92-2.06-6.06-3.86l-.55-6.95c-.34-4.33-11.15.58-19.14-12.15l-10.52,9.92c-4.96,4.68-19.37,9.55-17.6,22.4l1.01.9c1.13-4.11,4.23-7.76,8.28-9.65,4.09-1.91,9.25-.72,13.73.62,4.75-3.45,11.25-8.37,17.17-4.18,5.45,3.86,6.95,12.78,1.6,18.61l-7.29-10.93-9.25,9.52-8.94-4.53c-4.12,2.46-7.37,7.01-9.97,11.81-1.37.24-5.11-1.25-5.28-2.81l-.85-7.67-.52-.68ZM164.83,897.83c10.57-45.08,8.93-93.17,8.05-138.05-11.22,46.23-16.58,90.81-8.05,138.05ZM436.45,931.66l16.78,9.12c2.97-11.23,9.89-21,21.12-24.24,8.02-2.32,14.74-9.91,10.08-18.38-1.96-3.57-3.16-7.83-1.74-12.02,4.32-12.76-10.68-10.95-13.91-18.01-.62-4.53-.91-9.22-3.59-12.33-2.38-2.77-7.03-4.72-11.09-3.37-11.97,3.97-7.99-2.09-19.17-8.32-8.72,3.91-14.18,10.32-18.5,18.38-1.58,0-3.2-.11-3.96-.82-4.34-4.06,3.16-16,12.06-21.91-4.63-4.39-8.21-9.93-8.68-15.31-1.2-13.72,14.65-18.26,7.47-25.67-3.67-3.79-8.27-6.59-13.38-9.79,2.98-7.12.63-15.24-6.93-17.79-3.84-1.3-11.76,2.34-11.91,6.05l2.03,11.72c3.84,1.19,8.73,3.97,10.23,7,4.56,9.2-.63,15.92-9.02,23.92,4.98-.97,10.51-1.65,14.63,1.31,11.27,8.12,6.48,28.88-7.52,37.65-6.17,3.86-13.42,5.56-20.88,7.78-1.5,6.17-1.51,12.16-.42,18.48,6.49-7.11,13.06-10.1,21.32-11.15,1.27-1.09,3.62-3.59,5.02-3.45,6.75.64,16.43,10.11,15.79,21.29,12.58,5.25,13.98,14.31,16.37,26.12l16.96-7.73c1.15-.52,5.08,1.39,5.05,2.58-.16,6.26-12.28,13.1-21.8,13.49l-2.41,5.42ZM366.4,859.43l12.8-9.37,13.99,3.34c6.09-3.02,9.98-8.28,12.65-14.23,1.87-4.16.88-9.64-3.45-11.5l-13.73-5.88c1.89-9.62,9.69-14.97,6.16-22.44-.95-2.01-4.9-3.43-7.97-4.39-2.24-.7-3.2-5.63-4.33-8.52-2.47-6.29-16.43-8.06-18.43-1.43l-3.15,10.49-9.54-5.99c-3.11.36-7.82,3.32-9.37,5.73-4.77,7.42,3.36,14.24-4.6,20.84-4.27,3.54-3.29,11.57,1.29,14.66l12.11,8.17c3.43,2.31,7.29,5.73,9.43,8.91l-2.06,9.17c.83,1.07,6.53,3.67,8.2,2.45ZM635.68,853.03c5.05-11.86,8.63-23.95,7.89-37.12-4.92,12.5-6.97,24.27-7.89,37.12ZM279.75,869.1l-6.4-4.92c-9.2,2.45-13.87,12.51-9.71,21.29-1.74,4.46.01,8.28,4.4,9.87,9.94,2.91,19.42-.62,26.26-8.29,5.42-.74,9.37-4.09,10.64-9.29,4.78-4.31,4.98-10.39.25-15.3,3.52-9.06,1.88-19.15-5.32-25.28l-12.19-4.84c-6.14,8.54-7.44,21.54-10.34,19.3l-3.02-2.34c-3.12-2.42-9.41-.32-12.55,2.07-3.55,2.71-5.58,6.75-5.5,11.69,4.67-4.17,9.4-4.65,14.52-3.23,1.52-3.02,5.34-6.25,9.05-5.56,8.31,1.53,13.43,7.9,13,15.54-.39,6.92-4.83,13.68-12.8,14.47-4.28.42-8.81-4.44-8.12-8.45.9-5.23,14.7-1.42,7.81-6.72ZM255.36,889.75l-3.54-17.16c-1.76,2.12-3.43,7.03-2.39,10.36.71,2.3,4.19,5.76,5.93,6.8ZM535.79,891.85c.18,1.9-3.04,4.44-5.9,5.83l7.11,4.8,9.04,6.71,2.33-11.7c.12-2.37-3.54-5.95-6.13-8.26l-.99-12.65c-.17-2.13-6.37-1.98-8.12-.61-4.65,3.64-9.87,1.61-14.43.36-6.14-1.68-6.97,6.97-9.08,10.11-4.49,6.68-7.56,14.09-6.55,22.29l16.31-8.52c.1-4.65,1.14-11.04,4.94-14.13,3.84-3.13,10.9-.49,11.49,5.78ZM375.94,894.14l7.38,2.43c2.61,3.13,4.82,4.9,8.42,7.01,15.29,8.96,19.17,30.26,9.36,45.12-5.82,8.82-13.11,16.08-20.77,23.13-4.36,4.01-9.24,3.32-14.93,4.22-12.45,1.97-24.61,18-39.38,5.54-1.4,4.9-2.33,10.53-2.03,15.35,11.55,3.56,8.15,10.48,12.71,13.78,1.88,1.36,7.27,1.99,9.5,1.04l23.14-9.83,8.82.85c15.84-5.71,16.71-23.16,25.06-21.39l-3.3,16.27c7.92-6.38,16.17-6.33,23.17-1.37,5.6-4.92,12.1-8.88,19.39-8.26-4.74-10.66-2.69-20.06,2.29-29.6l-13.97-8.1c-3.29-1.9-8.44-6.74-9.97-10.64l5.93-18.93c2.98-9.5-2.17-18.48-10.96-22.77-5.96-2.91-.28-11.16-9.83-15.44-1.59-.71-3.78-2.96-5.22-4.72l-16.93,13.46-7.58,1.73-.27,1.12ZM566.17,935.61l-13.09,1.12c.9,10.36-.12,19.81-2.79,31.3,22.55-23.18,42.63-46.72,62.32-72.46-16.67,4.56-31.17,7.68-47.25,5.35l-2.92,5.31c6.99,1.87,13.24,3.79,15.82,10.38,2.84,7.28-3.72,18.28-12.09,19ZM558.29,921.28c-.88-1.65-4.78-4.04-6.74-4.54l-11.64-3c-3.69-.95-9.02-6.37-11.66-9.04-2.09,5.42-4.97,9.55-9.27,14.09l3.91,4.2c16.13-8.9,24.17,4.59,32.01,3.3,1.36-.22,4.05-3.78,3.4-5ZM352.89,1430.71c-8-32-8.48-64.4-.15-95.93,4.15-15.73,13.13-28.63,22.94-40.99,7.35-9.27,11.69-18.68,12.04-30.51.67-22.33,7.94-43.03,20.42-61.47,11.49-16.97,19.04-34.65,20.63-55.72.53-2.22.51-2.23-.24.17-7.92,12.39-18.3,27.47-31.34,29.07-1.68.21-5.65-2.3-5.67-3.91l-.05-6.16c12.97-15.2,20.88-32.72,26.12-51.98l.14-3.17c.02-.42-1.9.97-2.21,1.27-6.9,6.74-18.1,6.63-24.54-1.62-8.48,7.66-19.92,7.67-26.37-1.47-21.63-2.55-42.72-8.39-62.76-17.09-1.33,13.28-10.12,13.43-11.61,17.63-4.01,11.23-3.57,22.35-4.36,33.89l-1.74,25.63c-24.04,111.06-41.62,222.5-53.18,335.77l-16.93,166-8.07,93-1.81,63.42c2.33,3.96,6.58,8.1,10.31,11.17,22.29,18.33,45.3,34.01,69.81,49.46,41.52,26.17,85.48,45.44,132.65,59.53,105.22,31.45,212.22,40.33,321.17,24.38,32.36-4.74,63.04-12.12,93.73-22.83,18.79-6.55,55.42-21.62,60.76-37,6.03-17.4,7.92-35.18,8.22-53.83.81-49.27-2.78-97.8-9.55-147.06-13.42-97.75-33.18-193.75-56.53-289.64l-55.06-226.03c-9.96-40.9-21.42-80-34.75-119.66-17.46-51.96-39.8-99.43-79-137.74-16.69,22.15-45.73,45.11-70.14,57.93l-52.75,27.72c-9.51,5-18.93,12.5-24.94,21.3l-20.86,30.52c-4.63,6.77-7.8,13.21-16.58,17.44,9.12,14.1,20.21,27.35,34.95,36.16,3.58,2.14,6.6,4.54,5.41,8.7-.97,3.41-5.5,5.2-9.39,4.15-16.59-4.47-28.33-16.07-38.33-30.01,4.31,13.78,9.96,27.13,20.47,36.53,2.64,2.36,5.1,5.63,3.33,8.75-4.05,7.11-16.79-4.18-23.55-14.99l12.66,59.05c7.43,34.68,8.51,68.96,5.86,104.32-1.76,23.43,4.26,45.44,17.61,64.38l36.63,44.96,34.53,42.09c16.44,23.1,25.5,49.86,26.41,78.3.38,11.91-1.23,25.38-8.74,25.24-9.17-.16-7.59-22.04-24.61-37.75-9.1-8.4-22.7-12.76-35.43-12.72-15.29.05-28.22-4.62-36.15-18.84l-26.23-47.03c3.33,20.52,7.56,38.51,6.78,58.49-.92,23.4-11.48,44.57-30.55,57.84-5.21,3.62-12.28,7.1-18.43,4.37-4.49-1.99-5.67-9.76-4.14-14.27l11.74-34.66c13.02-38.45-.29-70.37-22.67-102.83-10.38-15.07-17.23-31.17-18.02-50.22-11.96,11.14-17.34,25.93-20.43,41.61-2.91,14.73-8.94,37.71-20.05,35.22-3-.67-6.3-3.95-7.38-8.29ZM416.57,1054.61l-14.16,5.64-3.1-5.38c-3.99,6.64-3.78,15.66.92,20.54s13.29,3.32,19.25.29c-3.68-1.24-7.83-4.44-7.87-8.76s2.26-7.75,4.96-12.33ZM350.25,1094.73c-1.96-7.38-1.54-11.7.41-17.82-7.2-1.49-12.47-6.32-14.43-15.1-7.44,11.39-18.52,14.22-32.17,15.38,15.26,9.41,30.98,13.82,46.19,17.55ZM163.97,1724.09l30.96-181.86,28.58-160.94c14.21-79.99,28.34-158.85,46.88-237.75l11-46.83c-9.05,2.42-17.75,3.51-26.9,2.92-33.37-2.16-65.86-7.35-99.32-16.57-14.11,102.66-23.9,204.75-29.79,308.21l-8.85,155.41-5,171.16.09,68.93,11.87,4.66,24.43,6.89,16.05-74.23ZM403.99,1342.54c4.42-2.8,8.24-7,10.87-10.9,6.18-4.91,7.76-11.57,6.67-19.27l9.88-44.83,10.69-65.69c3.61-31.93,5.69-62.86,4.48-94.24-1.72.3-4,.56-3.98,1.29l.06,3.68c2.99,33.66-5.78,66.98-24.85,95.19-11.58,17.13-18.43,36.07-18.98,57.1-.32,12.36-4.69,22.32-12.57,31.93-10.23,12.48-19.3,25.9-23.18,42.01-6.42,26.65-6.21,54.19,1.03,81.43l12.28-42.74c5.57-14.72,13.8-26.2,27.6-34.95ZM542.94,1497.76c24.04-.79,41.67,13.26,51.64,35.08-.16-41.14-25.23-71.54-50.76-101.15l-40.67-47.18c-9.41-10.92-15.73-23.86-19.9-37.77-4.2-14.02-4.39-28.43-3.69-43.14,1.08-22.57,1.45-43.93-1.34-66.45-4.3-34.75-10.58-68.28-17.96-101.92-.94,25.31-2.35,49.33-7.31,73.81-2.46,12.13-1.03,23.26-.66,35.59l.92,30.13c.75,24.58.17,48.21,3.06,72.66,2.38,20.14,5.11,40.25,14.58,58.18l26.82,50.83,12.96,24.59c6.39,12.13,18.62,17.2,32.31,16.75ZM449.53,1520.09l-8.96,31.22c20.11-10.56,31.54-29.88,30.34-51.85l-1.5-27.48c-3.45-22.81-9.94-43.75-16.94-65.69-11.25-35.28-15.58-70.55-14.42-107.95l-9.95,30.07c-2.63,7.96-7.68,14.37-13.1,20.91-1.5,25.2,1.45,40.65,15.11,61.74,10.11,15.61,17.43,31.6,21.95,49.67,4.98,19.9,3.29,39.03-2.54,59.35ZM79.88,1874.76c20.69-8.65,38.27-20.49,52.43-37.31l17.21-20.46c-.88-1.54-2.96-4.92-4.32-4.38l-5.37,2.12c-10.6,4.18-22.15-.45-32.39-3.8-5.15,5.6-10.75,9.71-17.05,13.52l-37.5,22.65c-11.64,8.54-20.93,18.81-26.35,32.57,17.23,8.59,35.54,2.54,53.34-4.9ZM231.54,1898.97c17.37,6.24,33.17,13.09,51.91,14.77-30.82-19.67-58.64-40.34-84.66-65.72-5.14,11.32-6.57,26.61.01,32.64,9.56,8.75,20.44,13.43,32.73,18.3Z"/>
    <path class="cls-1" d="M176.71,110.84c-2.97,5.66-3.66,11.48-5.43,16.76l-12.69,37.63c-5.34,15.85-34.38,24.57-47.31,40.41-13.62,14.66-21.42,33.05-20.23,53.49-.74,1.71-2.28,4.09-3.55,4.54-7.66,2.71-21.75-41.93,8.75-73.07,18.57-18.96,40.8-23.35,43.09-28.45,3.9-8.67,7.12-17.38,10.29-26.29,14.74-41.41,41.62-75.53,77.76-100.39,44.11-30.34,100.18-44.95,151.88-28.81,25.16-7.42,52.18-1.06,70.25,17.64,10.58,10.95,17.97,28.6,10.38,33.21-1.38.84-4.69-.85-5.82-2.48-13.53-19.68-32.98-32.24-56.03-35.6,4.95,5.1,9.71,8.77,10.78,15.6-76.16-39.85-160.78-5.28-213.54,54.94l-3.68-3.04c-.72-.59-3.09,1.42-3.53,2.25l-11.37,21.66Z"/>
    <path class="cls-1" d="M798.67,379.52c13.87-7.95,27.14-2.53,28.7,4.66.24,1.1-1.56,3.31-2.64,3.78-10.81-2.83-24.62,3.21-27.39,12.37-1.49,4.91.72,9.83,4.25,15.2l-7.03,11.18c-5.44,8.65-2.55,19.05,6.43,23.27,3.08,5.13,7.26,8.68,13.22,11.19-3.73-8.31-2.8-16.57,5.13-21.23-11.15-3.9-16.51-13.75-13.6-24.62,3.59-13.39,17.33-28.92,29.42-21.06,2.64-.75,7.25-2.03,9.48-1.26,2.44.85,5.14,4.91,5.71,7.47,1.27,5.67,1.77,10.11-4.64,13.72l-3.41-9.42c-.59-1.64-1.06-3.21-1.69-4.05s-3.57.58-4.59,1.23c-2.39,1.53-4.52,1.6-7.62,2.18-9.23,1.73-13.97,15.63-9.09,23.9,2.88,4.89,7.77,6.72,13.02,10.58-2.81,2.62-5.92,2.89-10.23,2.32l-1.15,7.76c-.7,4.73,3.07,8.88,7.92,8.47l17.16-1.44c10.14-8.03,19.93-7.54,20.04-25.59l7.36,1.97c2.11.56,5.8-2.55,6.74-4.51,1.25-2.59,1.53-7.4-.21-9.9-2.93-4.22-8.1-6.14-12.75-7.91-.06-3.99.71-11.01-2.64-14.26-13.02-12.61-29.95-8.16-28.97-14.49,1.5-9.65,24.47-10.58,39.31,4.29l1.55-18.42c.11-1.32,1.87-3.96,3.11-3.94s4.16,1.95,4.55,3.13c1.2,3.6-.13,8.19-1.37,12.58l19.98-11.4c-.66-17.25,14.72-31.29,17.75-26.25.55.91,1.29,3.77.86,4.74l-6,13.32c15.97-6.46,16.9-23.02,28.58-19.1l10.12-9.53c.63-.59,3.93-.17,4.67.28.99.59,1.36,3.8.57,4.73l-8.95,10.57,4.73.46c1.04.1,2.76,2.22,2.35,3.2s-2.42,3.08-3.58,3.4l-16.37,4.43-1.26,6.44c-10.15,10.55-23.45,6.74-33.87,14.31l11.41,2.47c1.02.22,2.49,3.4,2.3,4.43-.23,1.29-3.31,3.61-4.8,3.21l-17.2-4.59-16.43,6.21,1.49,12.28c7.85,2.08,14.77,7.63,15.5,16.12.77,9.01-3.69,16.48-9.97,22.43,1.03.72,3.19,1.92,3.59,1.36l1.94-2.75c4.8-6.79,12.27-10.82,17.22-7.2,1,.74.29,4.27-.74,5.17l-11.84,10.44c8.39,1.91,16.76-7.42,25.22,1.17-.73,2.45-5.07,4.31-8.52,4.99l13.04,3.91c1.63.49,3.23,4.8,2.78,6.28-1.87,6.25-12.69,4.74-21.95-1.09l1.27,8.29c.3,1.95-3.78,4.95-5.66,4.32-7.93-2.67-10.76-10.28-10.14-19.01l-14.99-8.07-5.47,8.64c9.27,3.48,20.29,1.62,18.19,6.37-2.24,5.07-11.23,6.98-17.62,2.7l1.89,17.47c.22,2.06-2.5,5.94-4.29,6.68-6.9,2.84-21.48-7.6-26.42-17.86-6.08,2.43-12.95,1.38-18.41-1.26-3.06,1.94-7.2,4.48-10.39,4.62-3.95.18-7.12-4.75-10.11-6.52-6.56-3.89-11.08-7.46-15.98-13.26-9.95-11.79-10.86-28.62,2.33-39.15-9.94-13.76-5.13-29.41,9.09-37.57ZM860.86,463.22l-11.04-.56c1.16,5.95,5.67,10.72,11.34,13.66l-.29-13.1Z"/>
    <path class="cls-1" d="M819.93,312.99c-7.59-25.54-31.46-62.29-53.26-78.44-18.82-13.95-42.7-20.17-65.87-21.31-19-.93-36.09,3.11-54.15,8.43-1.91.56-5.94-.99-6.79-2.57-.93-1.73.4-5.63,2.77-7.21,44.09-29.51,106.44-20.3,146.26,15.43,33.79,30.32,61.64,77.26,68.84,122.08.9,5.58-.17,12.08-4.04,16.6-2.16,2.52-9.25,2.46-12.66.99s-6.87-6.09-8.14-10.39l-12.96-43.61Z"/>
    <path class="cls-1" d="M101.04,420.34c-.46,20.35,17.43,29.35,11.64,37.18-2.16,2.92-5.97,2.46-9.05.85-22.72-11.94-32.34-36.72-22.26-60.73,5.53-13.16,15.74-24.3,28.94-31.04,18.99-9.7,28.42-29.3,22.33-50.48-3.47-12.06-.99-29.33,7.7-32.25,1.18-.39,3.33,2.7,3,4.05-2.25,9.09.12,18.17,3.18,26.75,6.47,18.16,3.74,37.33-8.72,51.8-14.24,16.53-36.14,26.55-36.76,53.87Z"/>
    <path class="cls-1" d="M284.16,190.72c-14.55,15.47-32.05,24.35-52.61,26.58l-3.57-2.81c-.84-.66,1.99-3.29,2.8-3.6,16.85-5.27,30.05-15.62,42.1-28.31,26.89-29.06,39.16-63.68,68.33-90.99,46.72-43.73,94.37-27.89,92.19-18.86-1.29,5.34-14.68-2.72-35.57,1.47-64.38,12.9-72.61,74.28-113.68,116.52Z"/>
    <path class="cls-1" d="M764.87,436.09l-23.2-28.33c-9.64-11.77-17.7-23.99-26.18-36.66l-40.22-60.07c-10.56-13.5-20.58-25.81-33.87-36.61l-.78-5.76c-.2-1.49,4.27-2.4,5.68-1.79,12.14,5.28,21.01,13.48,29.84,23.14,33.27,36.4,66.52,92.62,90.38,136.72,1.8,3.33,1.2,8.26-1.65,9.36Z"/>
    <path class="cls-1" d="M246.38,112.24c-21.36,22.64-45.77,43.59-76.12,52.25-1.93.55-4.96-.13-6.24-1.06s-1.55-6.18.02-6.98l19-9.62c29.11-14.74,55.84-51.73,85.79-74.91,46.25-35.81,87.77-33.54,83.18-28.03l-2.72,3.27c-25.23,5.36-47.39,16.87-67.9,32.23-12.72,10.28-23.78,20.98-34.99,32.87Z"/>
    <path class="cls-1" d="M113.52,298.22c-12.05,19.76-33.62,30.83-53.8,20.41-16.38-8.45-21.55-27.38-14.64-31.03,1.56-.82,5.22,1.45,6.06,3.37,4.2,9.61,14.05,13.86,24.52,11.69,18.87-3.91,28.31-24.22,33.32-42.84,4.95-18.39,18.94-60.07,32.59-61.42.9-.09,1.28,3.59.76,4.68l-8.71,18.4-5.2,8.9-2.56,27.39c-1.36,14.54-4.86,28.16-12.34,40.44Z"/>
    <path class="cls-1" d="M784.37,364.38l-27.5-45.91c-11.53-19.25-24.21-37.01-39.27-53.55-10.19-10.8-19.99-20.03-33.01-27.4l-1.26-5.23c-1.19-4.95,15.23-.64,26.35,9.27,37.39,31.55,64.96,73.27,79.54,120.09l-1.54,4.9c-.28.89-2.47-.96-3.31-2.17Z"/>
    <path class="cls-1" d="M545.87,87.69c-17.97-23.38-40.11-40.88-69.99-30.75-1.85.63-5.98-1.94-6.74-3.91-2.42-6.27,23.4-23.03,50.82-10.98,25.59,11.24,40.21,42.36,32.65,47.13-1.49.94-5.57.02-6.74-1.5Z"/>
    <path class="cls-1" d="M552.66,214.81c-2.45-4.59-3.8-10.99-4.69-16.26l-5.99-35.67c-2.27-13.53-8.54-25.87-18.09-35.91l-11.45-8.08c-.72-.51-1.7-2.94-1.83-3.81-.69-4.53,15.51-1.87,26.74,12.49s17.25,32.26,17.36,51.17c.1,17.51,3.38,33.26,1.89,37.21-.33.88-3.51-.31-3.95-1.13Z"/>
    <path class="cls-1" d="M144.8,215.71c-2.82-1.34-1.57-6.29.92-8.44,22.98-19.92,47.21-6.24,80.71-24.98,1.22-.68,4.35-.45,5.12.58s.07,4.08-1.03,5.14c-13.89,13.28-31.9,19.27-51.07,20.4-11.85.7-22.11,2.99-34.65,7.31Z"/>
    <path class="cls-1" d="M111.71,344.46c1.85-.32,5.21-.01,5.71,1.09,2.63,5.72-13.12,21.04-33.42,16.82-25.32-5.27-32.79-32.09-26.15-34.03,1.45-.42,4.15.35,6.32,1.18,10.65,15.36,28.98,20.38,47.55,14.95Z"/>
    <path class="cls-1" d="M225.75,240.71c-2.54,4.99-20.84,9.05-27.58,8.63-7.95-.49-15.43-4.74-22.66-7.22-12.99-4.44-21.77-2.91-22.4-8.82-.69-6.44,12.69-8.95,21.89-6.05l28.91,9.13c13.17,4.16,24.54-.96,21.85,4.33Z"/>
    <path class="cls-1" d="M542.23,296.74c-1,.8-4.68,1.81-4.81.85l-.52-3.99c9.91-15,23.78-25.27,40.74-31.64l3.97,1.49c1.11.42-.09,4.05-1.32,4.87-12.54,8.35-25.69,18.41-38.07,28.41Z"/>
    <path class="cls-1" d="M850.02,414.75c1.89.18,4.2,4.09,3.93,6.1-.82,6.23-6.52,10.21-11.85,9.81-5.89-.44-11.77-5.35-10.68-11.99.28-1.71,1.99-4.74,3.39-5.14,1.64-.46,5.09.61,6.75,1.85,1.36,1.02.4,3.97-.13,7.1l8.58-7.74Z"/>
    <path class="cls-1" d="M824.62,1843.49c-.43,1.67-3.87,3.83-5.28,3.63s-3.79-3.22-3.7-4.72l1.74-30.51c6.16-77.3,4.16-153.63-4.62-230.85-6.55-57.64-16.57-113.59-26.89-170.4l-9.85-54.21c-.33-1.84,1.93-5.83,3.5-6.58,1.8-.86,6.03,1.77,6.61,4.07l6.66,26.26,24.15,135.1c10.32,68.36,17.16,135.88,18.62,205,.83,39.04-1.13,85.6-10.95,123.2Z"/>
    <path class="cls-1" d="M296.03,274.86c-2.2.63-7.15-.4-7.9-2.3-1.59-4.04,1.73-8.61,5.45-10.4,21.24-10.23,44.33-15.96,68.01-15.67,4.11.05,8.45,3.78,8.77,6.98s-3.38,7.71-7.33,8.22c-22.93,2.97-44.63,6.81-67.01,13.17Z"/>
    <path class="cls-1" d="M383.28,405.45c18.67.85,30.68-14.83,36.82-8.2,6.66,7.2-15.26,21.33-30.96,23.06-23.07,2.54-50.91-15.38-42.49-23.78,6.14-6.13,17.63,8.05,36.64,8.92Z"/>
    <path class="cls-1" d="M341.52,311.74c1.87-.6,6.28,1.12,7.09,2.64,4.92,9.28-20.64,25.57-43.1,13.53-4.57-2.45-8.24-7.52-9.26-12.39-.38-1.83,1.8-5.59,3.21-6.52,6.95-4.57,12.48,12.24,30.9,6.32l11.15-3.59Z"/>
    <path class="cls-1" d="M496.44,285.76c-3.49,5.13-15.77-7.65-39.13-11.71-3.53-.61-6.98-3.48-7.15-6.85-.65-12.56,24.91-10.6,44.46,7.13,2.87,2.6,3.91,8.38,1.82,11.44Z"/>
    <path class="cls-1" d="M474.54,328.01c1.52-.61,5.71.61,6.47,1.84,4.72,7.62-14.35,22.01-30.74,15.07-5.54-2.34-11-7.38-12.64-14.85-.59-2.69,1.01-6.76,3.22-7.85,7.57-3.73,10.22,15.15,24.98,9.27l8.7-3.47Z"/>
    <path class="cls-1" d="M412.7,364.76c-1.36.4-5.16-.32-5.19-1.32-.14-6.05,3.32-8.48,2.54-11.2l-3.73-12.96c-.6-2.09,1.11-6.47,2.79-7.44,7.05-4.07,14.26,8.9,15.65,18.81.97,6.84-5.61,12.19-12.07,14.11Z"/>
    <path class="cls-1" d="M345.16,949.6c-7.51-.03-11.37-5.56-11.3-10.7.08-6.5,4.64-11.46,11.32-10.76-1.12-4.17-.83-8.57,1.46-11.89,2.02-2.91,7.07-5.14,10.84-3.85,7.26,2.48,10.37,9.65,9.81,17.34-.78,10.68-10.78,19.92-22.13,19.86ZM350.24,939.61l7.27-5.1-6.84-10.97-3.7,11.43-1.12,3.46c-.21.64,3.8,1.61,4.39,1.19Z"/>
    <path class="cls-1" d="M312.47,1030.53c2.29-.77,6.56,3.33,6.9,5.29.42,2.42-1.44,6.22-4.49,7.52-6,2.56-13.53,1.94-19.08-1.28-5.19-3.01-7.23-9.84-4.59-14.81.61-1.14,3.33-2.94,4.58-3.02,1.49-.09,3.91,2.46,3.64,3.93-.36,2.01-.09,5.77.79,6.45l12.25-4.09Z"/>
    <path class="cls-1" d="M314.18,1027.86c-7.34-3.7-14.25-14.16-11.48-20.01,1.65-3.48,8.23-5.37,10.04-2,3.47,6.48,4.22,13.75,1.44,22.01Z"/>
    <path class="cls-1" d="M592.93,534.18c19.47-.44,34.1-8.37,37.9-1.45.97,1.76.54,6.59-1.27,7.71-10.23,6.33-21.06,10-32.94,10.73-22.69,1.41-42.67-12.9-47.37-34.95-.71-3.31,1.51-7.61,4.25-8.2,2.4-.52,7,1.84,7.99,4.5,5.12,13.75,16.46,21.99,31.44,21.65Z"/>
    <path class="cls-1" d="M735.71,489.91c2.99-.82,7.42.51,8.67,2.52,1.35,2.18,1.03,6.87-1.1,8.65-13.29,11.16-30.83,14.49-47.03,8.56-19.78-7.24-28.38-28.93-19.86-32.42,2.38-.97,7.5.59,8.96,3.16,6.57,11.57,18.71,18.23,31.83,14.62l18.53-5.1Z"/>
    <path class="cls-1" d="M580.27,425.27c1.85-.02,4.91,3.66,4.86,5.28-.23,6.96-18.1,10.52-29.99,9.82-21.68-1.27-37.53-19.54-35.76-41.08.21-2.52,3.02-5.51,5.2-5.78,8.28-1.02,6.19,13.64,17.65,25.32,5.62,5.73,13.76,6.71,21.67,6.62l16.37-.18Z"/>
    <path class="cls-1" d="M583.59,371.49l-21.02-5.75c-1.64-.45-3.89-3.8-3.61-5.42,1.33-7.56,16.71-4.81,27.97,1.26,1.34.72,2.31,4.32,2.17,5.81s-3.87,4.54-5.51,4.09Z"/>
    <path class="cls-1" d="M604.05,477.19c-3.8,4.48-1.28,7.85-3.73,9.49-.81.54-3.43.55-4.33.11-2.84-1.41-5.13-5.58-4.9-8.61.26-3.38,2.75-6.67,6.32-8.9,1.86-1.17,6.42-1.05,7.46.56,1.24,1.91.62,5.66-.82,7.36Z"/>
    <path class="cls-1" d="M778.73,901.18c7.38,30.84,38.37,195.86,33.09,201.73-.73.81-3-.67-4.32-1.98l-36.42-173.91-3.12-25.16c-.24-1.91,3.39-5.79,5.12-5.53s3.84,2.35,5.65,4.85Z"/>
    <path class="cls-1" d="M484.22,976.33c-1.23.25-.77,5.03.45,5.07l6.92.24c1.74,2.89-2.43,8.09-5.5,9.3-4.55,1.79-10.11-.74-12.32-5.33-3.07-6.35-.93-14.68,4.38-18.76,1.61-1.24,6.08-1.27,7.85-.55,1.93.79,4.41,4.73,4.2,6.93-.12,1.25-4.34,2.77-5.98,3.1Z"/>
    <path class="cls-1" d="M521.54,959.94c4.81.86,4.96,8.57,3.41,11.41-1.96,3.58-6.26,6.98-10.88,5.39-2.49-.85-7.04-4.69-7.96-7.16-1.48-3.96,1.86-9.3,5.13-11.47l10.31,1.83Z"/>
    <path class="cls-1" d="M431.58,648.77c-2.77-3.56-8.87,2.84-13.81-.44-1.67-1.11-3.58-5.23-3.62-7.32l-.23-10.6-9.53-3.69c.07-8.08,2.95-15.03,7.37-21-.87-2.77-1.71-7.44-.66-9.87,2.94-6.83,10.9-8.07,19.53-6.53,1.84-4.7,5.41-8.82,9.57-8.92,5.5-.14,9.42,4.44,9.98,10.09,11.54-.8,18.7,6.22,22.58,15.99,3.27,8.25,4.34,14.05.55,22.52-2.15,4.81-3.29,9.76-9.9,10.88l-14.09,2.38c-.81,3.94-2.81,8.21-6.44,9.88s-8.64.04-11.29-3.36ZM445.83,634.61l9.12-1.46c1.42-.23,4.12-1.95,4.42-3.3.25-1.13-.78-3.87-1.66-4.59l-6.57-5.41c-2.63,4.56-7.86,5.65-11.71,4.67-9.26-2.36-6.95-16.1-14.17-26.68-3.89,3.97-4.07,5.48-5.72,9.49-1.38,3.33-5.4,8.66-2.81,11.98l9.04,11.61c.77.99,2.11,3.59,3.2,3.25l4.29-1.33c-1.5-3.59-1.95-4.47-1.37-5.72s5.39-2.28,6.28-1.26l7.67,8.74ZM462.13,618.29c-1.01-6.15-2.02-8.29-3.99-12.48-5.48-2.19-9.91-4.05-15.59-5.04-2.02-.35-5.4,3.73-4.64,5.36,3.27,6.96,8.87-1.05,15.21,4.41l9,7.75Z"/>
    <path class="cls-1" d="M435.06,882.47c.17-1.88,3.69-4.8,5.35-4.59,5.87.75,1.86,7.87,8.89,11.92,1.86,1.07,4.06,1.66,5.13.87,5.12-3.78-4.67-8.74-.39-13.57,1.17-1.32,4.67-1.37,6.7-.19,3.58,2.08,5.55,6.44,5.17,10.34-.33,3.36-3.19,7.13-6.16,9.43-6.9,5.35-14.86,4.52-20.43-2.21-2.61-3.15-4.74-6.7-4.26-12.01Z"/>
    <path class="cls-1" d="M392.6,834.5c.73,3.68-3.83,8.65-7.97,9.93-4.44,1.38-8.76,1.43-12.4-1.29-3.05-2.27-4.16-6.94-4.01-11.36-6.23.48-11.44-1.13-14.75-5.29s-5.7-11.15-1.51-16.44c5.8-7.32,20.73-10.41,28.72-1.43,4.55,5.11,1.79,11.65-2.48,15.83-1.49,1.45-.53,5.8.56,7.54,3.38,5.38,13.1-1.23,13.84,2.51ZM377.03,816.6c-6.96-2.96-9.61-3.23-15.3-3.78-.27,1.97.09,5.43,1.04,6.7.79,1.06,3.74,2.15,5.17,2.18l9.09-5.1Z"/>
  </g>
  <path class="cls-1" d="M691.88,1535.12c-.81-27.73-2.08-56.95-3.86-89.32-.46-8.3-.91-16.6-1.36-24.9-2.18-40.41-4.45-82.2-7.63-123.22-3.6-46.44-10.51-95.43-21.14-149.76-5.66-28.97-12.45-58.22-19.02-86.52l-3.49-15.03c-1.34-5.78-4.4-11.43-6.92-15.72-1.85-3.16-4.8-4.85-8.21-4.85-1.14,0-2.32.19-3.54.57-4.65,1.45-7.13,5.04-6.83,9.85.28,4.4,1.14,9.26,2.68,15.31,3,11.69,6.09,23.37,9.18,35.04,5.54,20.96,11.27,42.63,16.38,64.07,14.82,62.22,22.3,125.42,28.7,184.83,4.84,44.91,8.25,94.57,10.76,156.26,1.4,34.45.45,69.56-.47,103.52l-.28,10.5c-.38,14.41-1.28,29.03-2.15,43.18-.98,16.09-2.01,32.73-2.27,49.1-.25,15.23,1.19,30.76,2.58,45.78.4,4.31.8,8.62,1.16,12.92.12,1.4,1.48,2.9,2.8,4.36.45.49.9.98,1.31,1.49.52-.48,1.07-.95,1.61-1.41,1.57-1.33,3.19-2.71,3.49-4.15,2.27-10.98,4.15-21.99,5.96-32.63.6-3.52,1.19-6.99,1.78-10.38.09-7.92.21-15.71.34-23.41.27-17.52.53-34.05.39-50.86-.3-35.83-.94-71.03-1.93-104.62Z"/>
</svg>