<?xml version="1.0"?>
<svg id="Layer_1" data-name="Layer 1" xmlns="http://www.w3.org/2000/svg" viewBox="0 0 1144.87 375.13" fill="#EFEBDE">
  <path d="M91.78,205.84c18.39-1.88,35.59,3.91,51.62,17.38,16.03,13.47,24.7,29.42,26.02,47.85,1.32,18.44-4.89,35.82-18.61,52.15l-43.61,51.91-1.53-1.29,1.67-1.99c2.23-2.65,3.19-5.72,2.89-9.19-.3-3.47-1.74-6.38-4.31-8.71l-85.75-72.04c-2.45-2.06-5.35-2.8-8.71-2.22-3.36.58-6.11,2.14-8.25,4.69l-1.54,1.84-1.66-1.13,43.61-51.91c13.72-16.33,29.78-25.44,48.16-27.32ZM22.86,267.19l98,82.34,25.34-30.17c7.21-8.58,11.53-17.87,12.98-27.89,1.45-10.01,0-19.94-4.36-29.79-4.36-9.84-11.38-18.84-21.08-26.99-14.7-12.35-29.91-18.29-45.62-17.83-15.72.47-29.02,7.18-39.91,20.15l-25.34,30.17Z"></path>
  <path d="M168.96,149.53l-8.61,6.19,58.96,82c2.52,3.28,5.87,4.73,10.03,4.36,1.95-.25,3.79-1,5.53-2.25l2.11-1.52,1.33,1.51-33.29,23.93-1.17-1.62,2.27-1.63c2.49-1.79,4.03-4.17,4.6-7.13.58-2.96.01-5.63-1.7-8.02l-55.46-77.13c-1.71-2.38-4.05-3.74-7-4.08-2.95-.34-5.68.39-8.17,2.18l-2.27,1.63-1.17-1.62,40.76-29.31c10.17-7.32,19.89-10.77,29.13-10.36,9.25.41,16.6,4.41,22.04,11.99,5.45,7.58,7.62,15.62,6.52,24.14-1.11,8.52-5.07,15.8-11.88,21.85,4.55-.97,11.76.25,21.61,3.67-.11.08,3.47,1.12,10.74,3.12,7.27,2,13.02,3.49,17.25,4.47,4.23.98,7.62,1.63,10.14,1.94,6.73.91,12.69-.5,17.89-4.24l1.17,1.62-5.03,3.62c-8.55,6.15-16.47,9.3-23.75,9.44-5.47.16-11.05-.51-16.72-2.02-1.27-.4-6.75-2.25-16.43-5.55-9.68-3.3-14.84-5.05-15.48-5.25-11.06-3.05-19.14-2.74-24.22.91l-1.17-1.62c12.67-9.11,19.83-15.24,21.5-18.41,2.25-4.41,3.28-8.11,3.1-11.1-.41-6.27-2.48-12.01-6.21-17.21-4.75-6.6-10.36-10.29-16.82-11.06-6.47-.77-13.12,1.06-19.95,5.48-3,2-6.4,4.35-10.18,7.08Z"></path>
  <path d="M304.26,193.84c2.94-1.27,5.01-3.29,6.21-6.06,1.2-2.77,1.28-5.53.24-8.27l-37.66-87.22c-1.16-2.69-3.18-4.51-6.06-5.45-2.88-.94-5.78-.77-8.72.5l-2.57,1.11-.79-1.84,53.61-23.15c5.02-2.17,9.27-4.44,12.75-6.81,3.48-2.37,5.66-4.04,6.55-5.01l9.04,20.93-2.1.69-1.19-2.75c-1.11-2.57-2.92-4.4-5.42-5.5-2.51-1.09-5.11-1.06-7.8.1l-38.19,16.49,20.14,46.64,31.4-13.56c2.45-1.06,4-2.6,4.65-4.62.65-2.02.5-4.14-.45-6.34l-1.03-2.39,2.02-.87,11.1,25.71-2.02.87-1.03-2.39c-1.48-3.43-3.77-5.2-6.87-5.31-1.14.06-2.28.26-3.44.61l-31.95,13.79,20.14,46.64,28.83-12.45c5.63-2.43,9.95-5.46,12.96-9.08,3.01-3.62,4.94-7.22,5.8-10.78.86-3.56,1.37-8,1.55-13.31l1.84-.79,1.24,30.62-74.55,32.19-.79-1.84,2.57-1.11Z"></path>
  <path d="M397.27,151.38c-.76-1.47-1.7-4.6-2.83-9.4-1.13-4.8-1.44-9.86-.91-15.2l2.34-.55c.14,1.2.36,2.38.63,3.55,1.65,7.01,5.31,12.21,10.97,15.6,5.66,3.39,12.58,4.12,20.76,2.2,8.57-2.02,14.78-5.57,18.65-10.66,3.87-5.09,5.06-10.78,3.58-17.08-1.48-6.29-5.05-10.96-10.7-14.02l-46-20.8c-7.48-3.85-12.28-10.26-14.39-19.21-1.19-5.06-.9-10.06.88-15,1.78-4.94,4.87-9.26,9.27-12.97,4.4-3.71,9.97-6.36,16.72-7.95,6.75-1.59,12.85-2.41,18.32-2.47l6.42-1.51,5.39,21.13-2.14.5c-1.29-5.45-4.16-9.22-8.63-11.32-4.47-2.1-10.2-2.32-17.21-.67-7.01,1.65-12.36,4.8-16.06,9.44-3.7,4.64-4.89,9.78-3.56,15.43,1.33,5.65,5.02,9.95,11.06,12.91l46.48,21.1c7.13,3.53,11.74,9.7,13.82,18.52,2.08,8.83.5,17.08-4.75,24.75-5.25,7.68-12.67,12.64-22.27,14.91-6.36,1.5-12.9,2.22-19.63,2.16-6.73-.06-12.13-1.18-16.21-3.37Z"></path>
  <path d="M483.76,132.59c-.54-1.56-1.02-4.8-1.45-9.71-.43-4.91,0-9.97,1.29-15.17l2.39-.21c-.03,1.21,0,2.41.11,3.6.62,7.17,3.49,12.85,8.6,17.02,5.11,4.17,11.85,5.9,20.22,5.17,8.77-.76,15.43-3.38,20-7.86,4.56-4.48,6.57-9.94,6.01-16.38-.56-6.44-3.41-11.58-8.56-15.42l-42.51-27.23c-6.85-4.89-10.67-11.92-11.47-21.09-.45-5.18.56-10.09,3.04-14.72,2.47-4.63,6.16-8.46,11.05-11.5,4.89-3.03,10.79-4.85,17.69-5.45,6.91-.6,13.07-.53,18.49.2l6.58-.57,2.28,21.68-2.19.19c-.48-5.58-2.79-9.73-6.9-12.45-4.12-2.72-9.76-3.77-16.94-3.15-7.17.62-12.93,2.96-17.26,7.02-4.33,4.06-6.25,8.97-5.75,14.75.5,5.78,3.53,10.57,9.08,14.37l42.95,27.59c6.55,4.52,10.21,11.29,11,20.33.78,9.04-1.98,16.97-8.27,23.8-6.3,6.84-14.37,10.68-24.19,11.53-6.51.56-13.09.33-19.73-.7-6.65-1.03-11.83-2.92-15.55-5.68Z"></path>
  <path d="M641.5,117.4c-11.18-15.13-15.17-33.48-11.98-55.04s12.32-37.97,27.39-49.22c15.07-11.25,33.43-15.28,55.06-12.08,17.67,2.61,32.64,9.41,44.9,20.39l-.17,28.48-1.78-.26c-1.23-11.77-5.8-21.38-13.73-28.82-7.93-7.44-17.96-12.06-30.1-13.85-17.28-2.56-31.98,1.41-44.11,11.88-12.13,10.47-19.66,25.6-22.58,45.38s-.17,36.47,8.27,50.05c8.44,13.58,21,21.81,37.7,24.68,14.77,2.18,27.7-.01,38.78-6.6,11.97-7.13,20.53-20.35,25.68-39.67l1.58.23-6.97,30.71c-14.91,17.88-34.9,24.96-59.95,21.26-20.82-3.21-36.82-12.38-47.99-27.52Z"></path>
  <path d="M835.53,60.5c11.51-.84,22.94,1.15,34.29,5.97,11.35,4.82,20.73,11.66,28.12,20.51,7.39,8.86,12.01,18.89,13.84,30.1,1.83,11.21.38,22.4-4.36,33.57-4.74,11.17-11.78,19.99-21.11,26.46-9.34,6.47-19.76,10.12-31.26,10.96-11.51.84-22.23-.85-32.18-5.07-9.94-4.22-18.12-9.35-24.53-15.4-6.42-6.05-11.35-12.78-14.79-20.18-3.45-7.4-5.27-15.41-5.45-24.04-.18-8.62,1.8-17.81,5.94-27.57,4.14-9.76,10.88-17.87,20.21-24.34,9.33-6.47,19.75-10.12,31.26-10.96ZM794.71,147.25c5.13,13.69,14.56,23.45,28.31,29.28,13.75,5.83,27.35,5.85,40.82.05,13.47-5.8,23.46-16.37,29.97-31.71,6.51-15.34,7.17-29.87,1.98-43.59-5.19-13.72-14.66-23.49-28.4-29.32-13.75-5.83-27.33-5.84-40.73,0-13.41,5.83-23.37,16.41-29.88,31.75-6.51,15.34-7.2,29.86-2.07,43.55Z"></path>
  <path d="M1030.88,247.44c-11.77,14.32-25.51,21.96-41.24,22.94-15.73.97-31.21-4.81-46.46-17.33l-51.61-42.41,1.27-1.54,2.01,1.65c2.47,2.03,5.21,2.9,8.21,2.61,3-.29,5.49-1.53,7.45-3.71l59.93-72.94c1.93-2.56,2.68-5.31,2.25-8.25-.43-2.94-1.88-5.43-4.35-7.46l-1.85-1.52,1.27-1.55,51.61,42.41c10.09,8.29,17.35,17.36,21.78,27.21,4.42,9.84,5.76,19.92,4.02,30.23-1.74,10.31-6.5,20.2-14.29,29.68ZM984.81,139.69l-68.56,83.45,30.75,25.27c11.85,9.73,24.29,13.7,37.33,11.91,13.04-1.8,24.85-9.13,35.43-22.01,10.58-12.88,15.49-25.89,14.72-39.03-.77-13.14-7.07-24.58-18.92-34.31l-30.75-25.27Z"></path>
  <path d="M1001.07,304.2c1.91,2.57,4.35,4.12,7.32,4.65,2.97.53,5.67-.02,8.11-1.67l76.25-56.67c2.35-1.75,3.66-4.13,3.91-7.14.25-3.01-.58-5.8-2.48-8.37l-1.67-2.25,1.61-1.19,34.84,46.87c3.26,4.39,6.45,8,9.55,10.84,3.11,2.84,5.23,4.58,6.38,5.23l-18.3,13.6-1.15-1.88,2.41-1.79c2.25-1.67,3.62-3.85,4.11-6.54.49-2.69-.14-5.21-1.89-7.57l-24.81-33.39-40.77,30.3,20.4,27.45c1.59,2.14,3.45,3.29,5.56,3.46,2.12.17,4.14-.46,6.07-1.89l2.09-1.55,1.31,1.77-22.47,16.7-1.31-1.77,2.09-1.55c2.99-2.23,4.19-4.86,3.59-7.9-.32-1.1-.78-2.16-1.39-3.21l-20.76-27.93-40.77,30.3,18.73,25.2c3.66,4.92,7.6,8.43,11.81,10.53,4.22,2.1,8.16,3.16,11.83,3.17,3.67.02,8.1-.5,13.31-1.54l1.19,1.6-29.52,8.23-48.44-65.17,1.61-1.19,1.67,2.25Z"></path>
</svg>