<?xml version="1.0"?>
<svg id="Layer_1" data-name="Layer 1" xmlns="http://www.w3.org/2000/svg" viewBox="0 0 1183.07 2000">
  <defs>
    
  </defs>
  <path class="cls-1" d="M18.14,1919.5c6.79,1.95,12.31,3.16,17.37,3.79,25.23,3.16,49.6-3.83,74.51-21.34,17.94-12.61,32.69-29.27,46.97-45.39,2.41-2.73,4.83-5.45,7.25-8.15,3.22-3.59,4.59-6.59,4.19-9.18-.38-2.49-2.47-4.84-6.4-7.17l-.72-.43.47-.69c.9-1.33,1.92-2.64,2.89-3.9,2.11-2.72,4.29-5.53,5.41-8.61l1.12-3.06c4.12-11.23,8.38-22.83,10.77-34.59,8.4-41.39,16.59-83.55,24.5-124.31,3.58-18.46,7.17-36.92,10.78-55.38.89-4.56,1.99-9.14,3.06-13.57.49-2.03.98-4.07,1.45-6.11l.74-3.2.79,3.18c.75,3.01.61,5.79.17,9.03-2.8,20.58-4.42,41.63-5.99,61.99-1.98,25.64-4.02,52.15-8.43,78.03-3.79,22.24-6.48,45.05-9.08,67.12-1.09,9.24-2.17,18.47-3.34,27.69-.44,3.48-.84,7.17-.44,10.65.49,4.39-.44,8.19-3.11,12.7-8.46,14.32-11.24,27.35-8.25,38.73,2.82,10.75,10.87,20.02,23.9,27.54,4.16,2.4,8.22,5.1,12.15,7.71,3.2,2.13,6.5,4.33,9.83,6.34,33.25,20.12,66.42,30.05,101.41,30.38,3.06.02,6.03-1.05,9.21-2.18,1.77-.63,3.6-1.28,5.43-1.73,1.13-.27,2.6-.58,4.05-.58.82,0,1.62.1,2.36.34,46.64,15.66,94.8,24.39,140.13,31.99,17.9,3.01,36.22,4.74,54.99,6.39,4.51.4,9.02.81,13.53,1.22,22.71,2.06,46.2,4.19,69.32,4.88,44.33,1.35,91.64-1.37,148.93-8.56,40.29-5.05,81.73-15.43,134.37-33.64l.49-.17c.74-.27,1.57-.58,2.43-.52,9.77.79,14.45-5.5,18.12-12.43,5.37-10.13,8.02-21.51,8.35-35.83.27-11.73.64-23.65,1-35.18.74-23.89,1.5-48.59,1.41-72.88-.12-35.27-1.32-69.94-3.55-103.05-2.73-40.57-6.07-74.03-10.49-105.32-4.29-30.36-9.71-61.1-14.95-90.82-2.31-13.06-4.69-26.57-6.95-39.87-.21-1.25-.37-2.51-.53-3.88l-.37-2.94h.89c2.8-.02,5.52-.05,8.18-.09,5.71-.07,11.1-.15,16.5.04,27.56.96,55.99-3.05,84.36-11.84,11.81-3.66,26.84-9.47,38.29-22,6.71-7.34,9.52-15.3,8.37-23.66-1-7.16-2.52-14.39-3.99-21.38-.37-1.73-.73-3.46-1.09-5.2-1.26-6.11-2.61-12.13-4.03-18.5-.62-2.77-1.24-5.56-1.87-8.42l-.2-.89.91-.05c2.67-.17,5.27-.29,7.82-.4,5.39-.24,10.48-.47,15.52-1.18,27.24-3.86,53.32-15.05,79.72-34.22,20.2-14.66,27.86-34.99,22.8-60.41-.43-2.17-.88-4.35-1.32-6.52-3.33-16.2-6.77-32.95-4.76-50.13.51-4.27.1-8.94-1.12-13.13-4.61-15.81-8.68-28.61-12.84-40.28-8.93-25.1-20.78-58.16-33.26-91.37-6.91-18.38-14.1-37.01-21.05-55.03-10.42-27.01-21.19-54.95-31.26-82.62-19.71-54.18-44.71-111.4-78.67-180.08-9.26-18.75-20.05-37.16-30.47-54.96-4.43-7.56-9.01-15.38-13.41-23.12-9.08-15.98-20.43-33.92-40.18-44.48l-1.1-.59,1.01-.74c11.21-8.19,17.8-18.93,23.24-29.31,4.45-8.47,5.6-17.7,3.42-27.42-1.2-5.33-4.7-8.29-9.46-7.98-5.31.38-6.69,4.4-7.38,8.68l-.39,2.4c-.74,4.48-1.5,9.11-1.86,13.68-1.05,13.57-8.27,23.45-23.4,32.03-2.45,1.39-5.32,2.2-7.75,2.2-.13,0-.27,0-.4,0l-1.85-.07c-5.84-.22-11.88-.44-17.51-1.96-12.76-3.46-24.59-1.06-35.19,7.15-18.23,14.14-38.97,23.4-56.86,30.6-35.68,14.35-70.31,18.18-105.87,11.69-14.93-2.72-30.66-6.11-44.37-14.7-23.41-14.67-41.76-34.95-58.1-54.68-13.85-16.71-19.88-36.91-24.33-56.25-7.14-30.97-12.77-64.44-5.69-99.36.66-3.22.02-6.84-.59-10.35l-.19-1.11c-.94-5.51,2.22-11.01,7.03-12.27,31.79-8.33,59.1-22.04,83.52-41.93,1.73-1.41,3.46-2.81,5.2-4.21,16.1-13,32.76-26.45,43.28-45.34.29-.51.85-.71,1.26-.86.11-.04.22-.08.31-.12l.75-.38.33.78c1.94,4.68,3.88,9.33,5.82,13.98,4.13,9.9,8.4,20.14,12.49,30.22,22.47,55.38,61,102.33,117.79,143.54,16.89,12.25,33.6,19.47,51.1,22.07,1.76.26,3.59,2.01,4.42,3.52,3.69,6.78,4.31,14.43,1.84,22.77-1.99,6.69-4.26,13.4-6.46,19.89-1.31,3.86-2.62,7.72-3.87,11.6-1.87,5.76-.91,9.5,3.11,12.12,3.81,2.5,8.49,1.54,12.76-2.66,1.53-1.51,2.96-3.21,4.34-4.85.64-.76,1.28-1.53,1.94-2.28l.58-.66.59.65c2.75,3.02,5.71,4.57,8.5,4.41,2.12-.14,4.03-1.34,5.53-3.48,1.17-1.68,1.23-4.73.79-6.85-.03-.03-.52-.67-4.56-1.39-1.22-.21-2.53-.17-3.92-.12-.66.02-1.26.02-2.06.05h-1.08s.33-1.03.33-1.03c.56-1.74,1.17-3.44,1.77-5.12,1.28-3.58,2.5-6.97,3.15-10.49,2.65-14.25,3.4-30.52-11.14-43.12-.97-.83-1.23-2.23-1.54-3.85-.14-.74-.29-1.54-.53-2.35l-.62-2.13,1.82,1.26c2.16,1.51,4.18,2.97,6.12,4.38,4.05,2.94,7.87,5.71,11.87,7.96,6.05,3.41,10.6,2.71,16.22-2.53.51-.47,1.82-1.57,3.16-1.58,5.22.03,10.2.07,15.54.16l5,.08.19.48c3.99,9.92,13.4,15.27,22.07,19.19,2.51,1.14,5.07,1.02,7.23-.33,2.42-1.52,3.91-4.38,3.99-7.66.06-2.34-.24-4.76-.52-7.09-.17-1.39-.34-2.79-.44-4.17-.16-2.15.2-3.54,1.14-4.37,1-.89,2.54-1.09,5.04-.62,3.69.69,7.61.45,10.49-.63,1.84-.69,3.42-2.33,5.09-4.07.79-.82,1.6-1.66,2.47-2.45l1.34-1.2-.04,1.8c-.13,5.94.7,11.67,7.54,13.33,5.25,1.26,7.78-2.03,10.15-7.77l.26-.62.66.17c1.12.28,2.21.59,3.29.89,2.33.65,4.53,1.27,6.77,1.58,3.47.48,6.89-.88,8.75-3.45,1.47-2.04,1.66-4.4.54-6.66-2.23-4.51-5.88-8.47-9.41-12.3-1.14-1.24-2.28-2.47-3.37-3.73-.27-.32-1.16-.41-1.94-.49-.61-.06-1.24-.12-1.81-.29-2.36-.69-4.72-1.43-7.34-2.24l-4.69-1.46.83-.91c.63-.69,1.16-1.3,1.62-1.84.89-1.04,1.59-1.86,2.44-2.53,1.68-1.34,2.45-2.32,2.41-3.08-.04-.72-.85-1.58-2.49-2.63-2.24-1.44-4.76-1.9-7.15-1.3-2.51.63-4.67,2.38-6.08,4.93-.52.94-1.28,1.69-2.02,2.43-.31.31-.62.62-.91.94l-.53.59-2.12-1.95.27-.53c10.71-20.75,9.26-25.74-11.12-38.1l-.35-.22-.86-15.52.61-.17c1.82-.49,3.64-1.02,5.48-1.55,4.47-1.3,9.1-2.64,13.77-3.46,2.64-.48,5.47.17,8.19.77.68.16,1.36.31,2.03.44,1.41.28,2.81.71,4.16,1.12,2.15.66,4.18,1.28,6.24,1.36.05,0,.11,0,.16,0,1.32,0,2.47-.6,3.24-1.69,1-1.41,1.17-3.39.47-5.16-.42-1.03-1.05-2.02-1.73-3.06-.33-.51-.66-1.02-.97-1.54l-.38-.63.6-.42c2.6-1.8,5.21-3.56,7.82-5.32,5.86-3.95,11.93-8.03,17.48-12.49,6.95-5.6,13.87-8.66,21.79-9.64,2.31-.29,5.57-2.58,5.92-4.16.18-.86.13-1.49-.17-1.95-.59-.89-2.15-1.21-3.66-1.51-.68-.13-1.35-.27-1.95-.46-.4-.12-.63-.43-.93-.81-.13-.18-.31-.41-.55-.69l-.39-.46.34-.49c.69-1.02,1.42-2.03,2.16-3.06,1.79-2.51,3.65-5.11,5.15-7.85.5-.91.44-2.24.38-3.64-.02-.41-.04-.82-.04-1.22-.45-.02-.91-.05-1.37-.08-1.45-.11-2.94-.22-3.82.33-1.51.94-2.73,2.36-4.02,3.85-.73.84-1.49,1.72-2.31,2.51l-.26.25c-1.6,1.55-2.96,2.7-4.14,2.4-6.34-1.62-9.9,1.99-14.04,6.18l-.18.19c-3.01,3.06-6.26,5.97-9.4,8.79-1.41,1.27-2.84,2.54-4.23,3.83l-.53.49-2.11-1.94.29-.54c.49-.91,1.04-1.82,1.59-2.72,1.25-2.04,2.43-3.97,2.95-6.06.67-2.74.23-6.7-.57-7.12-2.04-1.07-6.5-.82-7.56.45-4.38,5.21-8.18,11.09-11.85,16.77l-1.96,3.02c-.56.87-.74,2.51-.37,3.51,1.78,4.97-1.22,6.83-4.73,8.1-1.15.41-2.26.91-3.38,1.4-.69.31-1.39.61-2.1.9-7.74,3.17-8.31,2.98-12.55-4.06-.2-.32-.35-.7-.5-1.08-.18-.46-.36-.89-.59-1.09-.38-.31-.77-.67-1.19-1.03-.95-.84-2.77-2.43-3.29-2.24-1.66.51-3.72,2.79-4,4.43-.35,2.01.03,4.17.4,6.27.16.89.31,1.75.4,2.58l.05.49-11,6.85-.4-.23c-.37-.17-.9-.41-1.39-.73-8.8-5.5-18.75-5.51-27.34-4.8-3.97.33-6.09,2.09-6.49,5.39-.4,3.31,1.92,4.27,4.61,5.38l.72.3c6.13,2.55,12.47,5.19,18.76,7.62,11.39,4.42,13.98,8.83,12.02,20.56-.11.67-.06,1.38.02,2.14l.41-.4.48.22c.91.4,1.82.78,2.74,1.16,2.14.89,4.36,1.81,6.41,2.99,1.65.94,3.05,2.28,4.4,3.58.38.37.75.73,1.13,1.08,2.66,2.46,3.81,4.42,3.73,6.38-.08,1.91-1.32,3.71-4.02,5.82-1.28.99-3.83,2.71-6.62,3.12-5.4.8-8.23,4.26-11.12,8.36-3.34,4.74-7.97,8.61-12.45,12.35l-.2.17c-2.36,1.97-5.06,3.57-7.66,5.12-.99.59-1.99,1.18-2.96,1.79l.94,2.29-6.41-.66c-4.6-.47-9.19-.94-13.79-1.44-4.51-.48-7.2-1.1-8.48-2.95-1.26-1.82-.91-4.52.05-8.28,2.15-8.42,1.53-15.48-2.02-22.91-3.81-7.95,2.22-21.66,9.81-27.31l.64-.48.47.65c1.23,1.74,2.35,2.64,3.42,2.75,1.44.2,2.82-1.12,4.31-2.47,1.8-1.64,3.88-3.46,6.45-3.21l.65.07,2.11,24.45-1.79-3.28c-2.42-4.44-4.2-7.04-8.26-5.31-3.45,1.46-4.8,5.94-3.07,10.2,2.08,5.09,8.49,8.82,14.15,8.36,4.59-.39,11.35-5.62,11.97-10.45.19-1.52-1.18-4.31-2.06-4.58-4.21-1.33-3.53-4.23-3.05-6.35.22-.95.53-1.89.83-2.82.38-1.16.74-2.26.94-3.39,1.06-6.07-.81-11.16-5.41-14.72-3.62-2.8-7.33-2.29-12.07,1.67l-.5.42-.51-.42c-5.83-4.91-10.21-5.41-15.58-1.76-9.83,6.67-16.41,15.2-19.53,25.35-2.85,9.26,2.23,19.3,11.57,22.86.81.31,1.64.58,2.58.89l2.7.91-13.68,19.51.03.31-.53.23c-.26.11-.76.1-1.15-.12l-.49-.11.13-.19-2.57-2.83c-2.74-3.01-5.57-6.12-8.22-9.3-6.76-8.1-7.13-11.73-2.09-20.47,4.5-7.78,5.95-14.88,4.58-22.31-.79-4.26.6-7.91,4.5-11.84,6.45-6.49,14.46-7.43,21.44-7.49,1.41-.01,2.91-1.01,4.5-2.06.53-.35,1.07-.71,1.61-1.03-.3-.55-.57-1.12-.84-1.69-.81-1.69-1.58-3.29-2.79-4.18-9.23-6.77-20.87-6.21-31.94,1.54-10.56,7.39-14.39,17.36-11.08,28.82,1.28,4.4,2.14,8.74-1.21,13.44-7.94,11.12-8.59,23.5-2.02,37.85.51,1.12,1.01,2.24,1.51,3.37l1.36,3.05-1.48-.29c-2.78-.54-4.63-1.65-6.42-2.72l-.24-.15c-2.02-1.2-4.05-2.39-6.09-3.54-41.18-23.34-74.91-50.15-103.12-81.94-25.44-28.67-40.39-62.97-55.95-101.58-6.08-15.09-12.4-33.23-13.18-53.28-.11-3-1.22-8.11-7.31-8.69-4.58-.45-7.91,2.04-9.19,6.79-1.03,3.81-1.36,7.91-1.67,11.88l-.06.79c-.15,1.87-.04,3.76.08,5.76.05.9.1,1.82.13,2.74l.02.75-.75.05c-7.75.59-12.38,5.07-15.55,8.91-3.42,4.13-6.81,8.28-10.19,12.43-3.95,4.83-7.89,9.66-11.88,14.46-24.68,29.7-50.88,52.26-80.09,68.97-.66.38-1.36.63-2.4,1.01-.59.21-1.3.46-2.18.81l-1.57.6.54-1.59c2.5-7.37,4.94-14.63,7.35-21.82,5.89-17.53,11.45-34.09,17.36-50.82,5.27-14.95,7.11-26.66,5.98-37.97-.5-5,.98-7.48,5.27-8.87,3.08-.99,6.14-2,9.22-3.01,8.31-2.74,16.9-5.57,25.46-7.99,8.02-2.27,16.24-4.3,24.19-6.27,4.93-1.22,9.86-2.44,14.77-3.72,5.06-1.32,7.58-3.95,7.7-8.05.13-4.56-2.33-7.9-6.94-9.4-3.93-1.29-7.09-1.73-9.72-1.4-8.06,1.06-16.22,2.5-24.11,3.9-2.29.4-4.59.81-6.88,1.21-1.09.19-2.17.51-3.31.84-.55.17-1.11.33-1.7.49l-1.04.28.06-1.08c1.36-24.79-.94-44.5-7.23-62.02-3.59-10.02-7.68-20.58-12.17-31.38-2.64-6.38-5.14-11.24-7.84-15.3-9.71-14.55-20.11-22.86-32.75-26.17-6.55-1.71-11.8-.73-15.58,2.94-1.45,1.4-2.44,4.5-2.04,6.38.3,1.37,2.98,3.43,4.63,3.56,8.3.63,13.35,5.67,16.83,9.99,11.63,14.4,18.5,30.83,20.42,48.82,1.62,15.14,3.73,30.87,6.29,46.76,1.3,8.1,2.93,18.17,8.27,21.98l.75.54-5.6,5.57c-5.22,5.2-10.61,10.57-16.05,15.84-.99.96-2.7,1.66-4.34,1.77-7.23.51-12.28,4.68-14.24,11.74l-.97,3.48c-2.54,9.03-5.17,18.37-5.33,27.55-.47,26.19-7.9,50.65-15.12,71.13-5.29,15.03-13.68,28.65-21.79,41.82-3.77,6.11-7.66,12.43-11.19,18.81-17.88,32.31-47.96,50.7-75.02,64.41-19.51,9.89-42.07,14.5-70.96,14.5h-.58c-25.87-.05-56.41-1.24-86.83-9.68-23.54-6.53-39.81-18.29-49.74-35.94-2.99-5.3-6.18-10.52-9.19-15.36-15.68-25.26-21.68-54.13-18.89-90.88.58-7.66,3.58-14.41,9.44-21.27,23-26.92,32.08-52.21,28.56-79.59l-.13-.98.98.1c.33.03.67.06,1.02.08.81.06,1.73.12,2.62.32,33.99,7.62,68.39,3.29,97.97-1.36,3.85-.61,8.05-2.18,11.82-4.43,1.56-.93,3.03-3.95,2.86-5.87-.12-1.29-2.36-3.41-4.36-4.13-2.33-.85-5.2-1.26-8.77-1.26-.18,0-.37,0-.55,0-6.94.07-13.99.27-20.82.46-4.28.12-8.56.24-12.85.34-3.7.08-7.41.22-11.13.35-15.85.59-32.27,1.18-48.09-2.71-10.3-2.53-20.57-5.87-30.5-9.11-6.49-2.12-13.2-4.3-19.86-6.24-5.67-1.65-11.83-2.57-17.82-2.65h-.02c-1.59,0-4.59,2.95-5.04,4.97-.31,1.38,1.75,4.56,3.67,5.67,7.03,4.03,14.48,7.62,21.7,11.08l.96.46c4,1.92,8.01,3.67,11.88,5.36,1.7.74,3.35,1.46,4.9,2.15l.76.34-.38.74c-.77,1.5-1.56,2.95-2.33,4.38-1.77,3.27-3.44,6.36-4.76,9.62-.73,1.8-1.07,3.74-1.42,5.79-.27,1.55-.55,3.16-1.02,4.7-2.21,7.36-4.55,14.73-6.81,21.85l-2.73,8.62-.9-.75c-3.22-2.71-6.41-5.36-9.57-7.98-7.2-5.99-14.01-11.65-20.8-17.56-7.67-6.69-13.63-13.1-17.79-22.66-9.2-21.16-14.66-43.27-19.18-64.01-2.86-13.14-2.47-26.67,1.17-40.23,5.24-19.48,13.71-36.3,25.17-49.99l.24-.29h.37c1.48.03,2.94.11,4.36.19,3.05.17,5.93.33,8.68-.16,2.45-.45,4.21-1.61,4.95-3.25.76-1.71.43-3.9-.94-6.15-2.36-3.88-5.19-7.59-7.93-11.17l-.19-.25c-2.3-3.01-4.65-6-6.99-8.98-4.51-5.75-9.18-11.69-13.45-17.78-1.55-2.21-2.41-4.87-3.24-7.44-.55-1.71-1.13-3.47-1.89-5.06l-.25-.52c-1.1-2.31-2.77-5.8-4.39-6.12-2.27-.46-6.13,1.04-8.12,3.1-3.92,4.04-5.45,9.66-4.83,17.69.91,11.88,7.47,20.77,14.41,28.62,1.83,2.07,3.77,4.08,6,6.4,1.18,1.23,2.45,2.54,3.84,4l.93.98-1.31.32c-1.38.33-2.63.68-3.8,1.01-2.45.68-4.56,1.28-6.75,1.45-1.9.16-3.87.03-5.78-.09-2.77-.17-5.4-.33-7.85.29-13.08,3.36-23.32,10.22-29.61,19.84-8.41,12.85-15.5,26.68-20.73,37.29-3.62,7.32-4.44,15.39-2.38,23.35,1.6,6.19,5.71,9.81,10.53,9.29.47-1.79.84-3.59,1.22-5.35.87-4.17,1.7-8.12,3.65-11.52,8.59-15.07,17.81-30.1,26.73-44.63l5.71-9.3c.86-1.4,2.08-2.58,3.36-3.83.64-.62,1.31-1.27,1.99-2l1.25-1.34.1,1.83c.03.46.05.76.07.96.04.39.06.68-.15.97-1.05,1.47-2.13,2.94-3.2,4.39-24.06,32.41-29.23,68.88-15.36,108.4,6.11,17.39,16.34,32.04,24.58,42.86,11.47,15.06,22.88,26.05,35.92,34.6,8.43,5.53,16.36,10.73,27.84,8.88l1.6-.26-11.38,20.29-.71-1.06c-.63-.94-1.18-1.84-1.69-2.68-.98-1.62-1.83-3.02-2.94-4.07-1.32-1.25-2.61-2.56-3.91-3.87-3.73-3.77-7.59-7.67-12.07-10.09-7.61-4.09-16.62-4.6-24.72-1.38-7.64,3.05-13.44,9.08-15.91,16.56-1.76,5.35-2.4,11.88-1.79,18.38,1.52,16.16,10.31,29.42,26.88,40.54,8.56,5.74,17.42,11.66,28.71,4.57l1.02-.65.63,4.57c.29,2.08.54,3.96.83,5.84,2.67,17.44,5.84,34.32,15.14,49.19,7,11.18,13.28,21.09,19.19,30.3,8.43,13.14,19.93,23.06,34.16,29.48,6.33,2.86,12.93,5.35,19.92,8,3.35,1.27,6.81,2.58,10.44,4l1.23.48-1.02.85c-.71.6-1.37,1.2-2,1.78-1.36,1.25-2.65,2.42-4.15,3.25-2.81,1.54-5.79,2.85-8.68,4.1-.9.39-1.8.79-2.7,1.18-16.03,7.14-32.07,14.28-48.11,21.4-4.18,1.86-8.4,3.65-12.62,5.43-9.14,3.86-18.58,7.86-27.44,12.57-19.13,10.17-38.34,22.43-49.28,43.08-7.13,13.48-16.01,30.25-21.3,47.29-5.88,18.94-10.79,38.55-15.53,57.51-2.47,9.89-5.04,20.12-7.7,30.13-11.71,43.97-16.51,89.17-14.25,134.35,1.98,39.4,8.37,73.24,19.55,103.46,11.39,30.83,25.28,66.42,45.87,98.64,1.95,3.06,3.83,6.24,5.64,9.31,1.99,3.37,4.03,6.85,6.2,10.18,3.99,6.14,7.88,11.6,11.86,16.67,3.1,3.94,2.99,9.79-.24,13.61-2.86,3.38-5.75,7-6.89,10.89-3.1,10.48-5.04,19.2-6.11,27.42-.82,6.31-1.65,12.62-2.49,18.94-3.84,29.11-7.81,59.22-10.49,88.93-2.33,25.86-3.76,52.23-5.14,77.75-.63,11.69-1.27,23.37-1.99,35.05-.94,15.35-1.9,30.7-2.85,46.05-1.43,22.98-2.86,45.96-4.26,68.94l-.29,4.79c-.63,10.33-1.29,21.01-1.55,31.53-.73,28.31-1.3,57.1-1.85,84.94l-.29,14.46c-.13,6.79-.33,13.58-.52,20.37-.46,16.46-.93,33.49-.59,50.21.31,15.28,1.3,30.77,2.26,45.74,1.31,20.32,2.66,41.33,2.25,61.61v.54s-12.53,4.41-12.53,4.41c-8.15,2.87-15.96,5.61-23.75,8.4-18.76,6.71-35.56,18.73-49.93,35.72-5.12,6.06-9.51,13.57-12.35,21.15-2.56,6.83-2.44,13.35.33,18.85,2.9,5.76,8.43,9.95,15.98,12.12ZM981.46,482.29l13.06,9.08-.44,2.33-18.36-.75-.21-2.95,5.95-7.71ZM950.59,500.84s1.38-2.94,2.78-2.95h.05c2.33,0,4.66.28,7.12.57.94.11,1.91.23,2.92.33l.84.09-2.52,13.4-2.81-2.58c-3.09-2.82-5.75-5.26-8.25-7.78-.27-.28-.3-.63-.12-1.07ZM169.86,336.64l-5.81,35.03-1.08-1.12c-2.51-2.6-4.99-5.16-7.45-7.69-6.77-6.97-13.17-13.56-19.39-20.49-1.94-2.16-3.37-5.72-3.92-9.79-.62-4.52.69-8.38,3.59-10.58,2.96-2.25,7.14-2.45,11.44-.58,1.38.61,2.71,1.34,4,2.06,1.2.67,2.45,1.36,3.71,1.92,3.45,1.55,6.93,3.01,10.62,4.55l5.04,2.13-.75,4.57ZM291.68,1924.59l-.77-.26c-2.44-.8-4.91-1.53-7.39-2.25-5.4-1.58-10.98-3.22-16.1-5.67-16.16-7.73-32.53-16.18-48.66-25.12-13.64-7.55-14.27-12.07-10.9-26.61,1.49-6.46,5.41-6.57,9.41-5.69,1.19.25,2.16,1.21,3.01,2.06l.15.15c1.42,1.4,2.79,2.86,4.17,4.31,2.6,2.75,5.29,5.6,8.24,7.99,4.99,4.03,10.21,7.98,15.26,11.79,5,3.77,10.16,7.67,15.12,11.67,6.86,5.54,13.65,11.4,20.21,17.07,2.88,2.5,5.77,4.99,8.68,7.46l.39.33-.81,2.79ZM923.73,1777.54v.96c-.41,38.76-.82,78.84-10.46,117.52-1.61,6.49-2.93,13.17-4.21,19.64-.96,4.87-1.95,9.91-3.07,14.83-.47,2.08-2.46,4.14-4.1,5.03l-3.05,1.66c-5.92,3.23-12.04,6.57-18.41,9.02-7.85,3.02-16.74,5.79-27.98,8.72-32.45,8.46-66.16,12.04-98.76,15.5-7.74.82-15.49,1.65-23.22,2.53-23.17,2.65-46.72,3.99-70.27,3.99-8.61,0-17.22-.18-25.81-.53-44.1-1.83-87.05-6.14-127.65-12.82-4.66-.77-9.32-1.52-13.99-2.28-41.71-6.75-84.84-13.73-125.27-29.31-6.67-2.57-14.48-5.76-21.84-9.9l-4.12-2.32c-31.56-17.76-64.19-36.13-94.15-57.7-6.79-4.89-13.9-10.64-22.36-18.07-4.49-3.94-5.19-9.36-5.28-14.13-.84-45.76,5.04-91.68,10.72-136.08.68-5.35,1.37-10.7,2.04-16.05,7.4-58.68,15.75-118.24,23.83-175.83,2.71-19.3,5.41-38.6,8.09-57.9.8-5.74,1.58-11.48,2.37-17.22,3.71-27.01,7.54-54.95,12.19-82.27,2.9-17.08,6.63-34.3,10.24-50.95,1.98-9.12,4.02-18.55,5.9-27.85,4.81-23.75,9.93-49.73,15.64-79.42.61-3.16.87-6.4,1.15-9.83.13-1.64.27-3.32.45-5.06l.1-.92,1.18.32c.58.15,1.8.45,2.96.87l10.94,4.07c11.91,4.43,24.23,9.01,36.28,13.67,5.22,2.03,10.66,4.53,17.1,7.89,13.83,7.19,25.61,7.19,37.07,0l.59-.37.44.54c8.41,10.49,17.75,7.99,30.11.53l1.34-.81-.16,1.57c-.16,1.48-.25,2.83-.34,4.1-.18,2.52-.34,4.7-.86,6.83-5.16,20.98-17.04,38.24-28.77,54.11-.51.68-1.02,1.36-1.54,2.03-.59.76-1.17,1.52-1.74,2.3-2.94,4.05-3.27,7.73-1,11.24,2.67,4.14,7.06,5.71,11.44,4.07,3.85-1.41,9.21-3.93,12.87-7.87,5.09-5.47,9.62-11.3,14.42-17.47,1.95-2.52,3.93-5.06,5.96-7.6l1.35-1.68.09,3.83c.04,1.31.08,2.68.06,4.06-.32,23-7.68,44.69-14.78,65.66l-1.39,4.12c-7.54,22.33-19.64,43.14-35.96,61.82-9.66,11.06-19.63,22.07-29,32.41-18.2,20.07-26.84,39.3-27.18,60.52-.45,27.5.26,59.99,8.9,92.44l.19.73c.46,1.78.98,3.8,2.08,4.78,2.73,2.44,5.21,3.7,6.95,3.53,1.6-.18,3.98-3.12,4.66-5.27,2.32-7.31,4.53-14.79,6.67-22.04,2.68-9.08,5.45-18.46,8.47-27.61,3.03-9.18,6.89-18.82,12.5-31.25,3.23-7.15,8.16-12.67,15.06-16.88l1.19-.73v1.4c0,1.68-.03,3.29-.06,4.84-.05,3.18-.1,6.18.06,9.12.73,13.15,4.29,25.18,10.6,35.76,5.93,9.95,12.34,20.5,19.71,30.48,10.14,13.75,18.82,28.66,26.53,45.6,9.42,20.68,10.13,41.19,2.16,62.7-2.89,7.8-5.2,15.99-7.42,23.91-.97,3.43-1.93,6.86-2.94,10.28-.33,1.1-.57,2.3-.71,3.59-.53,4.85.75,8.7,3.53,10.56,2.52,1.68,5.96,1.48,9.67-.58,22.91-12.64,35.27-28.51,37.76-48.53,3.16-25.37.23-51.28-3.41-75.49l-.06-.39c-.26-1.68-.53-3.41-.13-5.46l.37-1.93,1.06,1.66c.25.38.5.76.76,1.15.58.85,1.17,1.73,1.65,2.68l3.78,7.52c6.2,12.33,12.6,25.08,18.8,37.67,4.52,9.19,9.25,17.96,17.22,24.34,7.76,6.2,15.38,9.27,23.28,9.37,13.36.17,25.01,4.59,38.85,10.37,6.86,2.86,12.14,8.17,16.12,16.23,1.35,2.73,2.67,5.48,4,8.22,2.02,4.2,4.11,8.53,6.27,12.75,1.99,3.9,4.56,7.39,9.65,6.57,4.23-.67,6.56-3.66,7.12-9.17l.18-1.79c.6-5.78,1.22-11.76.53-17.44-3.26-27.16-12.27-50.22-27.56-70.5-16.47-21.86-34.57-45.1-55.3-66.84-11.35-11.9-21.73-25.08-31.77-37.83-2.82-3.58-5.65-7.17-8.5-10.73-12.05-15.07-17.04-33.26-15.71-57.26,2.89-52.43.58-107.9-7.49-179.85-.51-4.53-1.36-9.05-2.26-13.85-.45-2.36-.9-4.79-1.34-7.33l-.44-2.56,1.79,1.89c1.47,1.56,2.82,3.07,4.12,4.51,2.61,2.92,5.08,5.67,7.79,7.97,4.52,3.84,9.3,5.29,13.49,4.04,4.34-1.28,7.84-5.32,9.95-11.42-.27.04-.54.08-.8.12-1.3.19-2.42.36-3.38.79-4.72,2.16-8.62,1.08-12.27-3.4-9.25-11.37-15.54-25.04-20.37-44.32l-1.74-6.95,3.2,6.41c5.68,11.36,14.35,21.21,27.3,31,5.4,4.08,11.9,6.97,18.17,9.76l1.05.47c1.65.74,4.65.09,6.47-.94,1.47-.82,1.65-2.33,1.64-3.16-.05-2-1.28-3.93-3.05-4.83-.44-.22-.93-.37-1.41-.52-.94-.29-1.91-.6-2.61-1.3-15.62-15.61-29.35-30-39.1-48.06-.22-.38-.32-.8-.44-1.24-.05-.2-.11-.42-.18-.66l-.2-.66.63-.29c21.29-9.57,34.93-27.69,46.49-45.83,11.95-18.75,29.28-33.47,52.97-45.02,6.58-3.21,13.13-6.47,19.68-9.74,10.93-5.45,22.22-11.08,33.49-16.33,23.77-11.06,43.64-28.18,60.73-52.31,1.09-1.54,2.22-3.05,3.49-4.75l2.76-3.73.64.76c.58.69,1.14,1.33,1.66,1.95,1.07,1.25,2.04,2.39,2.97,3.57,23.5,29.76,41.78,65.19,55.89,108.33,17.05,52.11,36.56,114.1,52.04,178.89,6.37,26.65,12.25,55.19,19.06,92.56,2.11,11.57,4.25,23.14,6.39,34.71,8.93,48.34,18.15,98.32,25.4,147.75,10.65,72.67,15.52,137.86,14.89,199.32ZM447.31,958.41c-1.94-4.65-6.08-8.71-10.17-12.47-4.07-3.74-8.45-7.14-13.09-10.74-2.05-1.59-4.14-3.21-6.26-4.91l-.8-.63.82-.61c10.12-7.51,20.4-11.34,32.36-12.07,3.77-.23,6.47.5,8.32,2.23,1.9,1.75,2.85,4.51,2.91,8.41.06,3.86,1.58,6.56,4.92,8.77,9.29,6.13,13.72,15.28,13.16,27.23-.44,8.97-3.32,17.47-8.6,25.26-1.36,2-2.02,5.2-1.55,7.44,1.02,4.84.25,9.31-2.42,14.07-6.27,11.19-13.9,19.09-22.67,23.48-5.05,2.53-9.16,6.02-13.13,9.39-1.78,1.51-3.61,3.06-5.51,4.52-7.75,5.94-16.2,10.06-25.86,12.58-9.62,2.52-19.2,5.93-28.46,9.23-4.22,1.51-8.45,3.01-12.69,4.44l-1.24.43c-1.99.69-4.05,1.4-6.17,1.73-.74.11-1.45.17-2.12.17-2,0-3.65-.51-4.93-1.52-1.64-1.3-2.59-3.37-2.8-6.16-.56-7.11-3.26-10.43-9.32-11.44-.63-.11-1.27-.68-1.88-1.71-.54-.91-1.36-2.77-.95-3.97.87-2.57,2.18-4.92,3.57-7.41.54-.98,1.1-1.97,1.64-3l.38-.73.71.41c9.21,5.29,17.23,2.28,23.87-1.37,2.92-1.6,6.02-2.94,9.02-4.24,5.89-2.53,11.97-5.16,16.76-9.88,1.36-1.34,4.9-1.46,6.84-.63,4.59,2,8.95,1.41,14.16-1.89,1.02-.65,2-1.43,2.94-2.19.73-.59,1.46-1.17,2.23-1.71,2.98-2.11,5.76-4.55,8.44-6.91,4.11-3.61,8.36-7.35,13.56-10.14,12.5-6.71,19.83-29.46,14.01-43.46ZM380.21,872.02c-5.64-5.07-11.94-9.62-18.03-14.03-2.29-1.66-4.58-3.31-6.84-5-.88-.66-1.86-1.17-2.89-1.72-.75-.39-1.5-.79-2.22-1.24-3.49-2.19-5.72-4-6.05-6.27-.34-2.3,1.32-4.71,4.29-8.1,1.76-2,2.82-4.78,3.85-7.46.24-.62.47-1.23.72-1.83.34-.85.37-1.88.4-2.96.02-.56.03-1.12.09-1.66.83-7.76,4.33-13.54,9.59-15.87,5.28-2.34,11.65-1.1,17.93,3.48.48.36.96.75,1.44,1.14,2.46,2.03,4.1,3.17,6.59,1.34,3.44-2.54,2.7-6.05,1.48-10.04-.34-1.12-.83-2.18-1.34-3.31-.24-.52-.48-1.04-.7-1.57l-.11-.27.87-2.73.67.12c2.21.39,4.41.77,6.62,1.15,6.5,1.12,13.22,2.28,19.79,3.64,1.63.34,3.94,2.51,4.07,4.26.47,6.48,4.64,10.25,9.24,13.85,3.16,2.48,4.97,3.97,5.16,5.79.2,1.85-1.21,3.57-4.02,7-1.23,1.51-1.79,3.43-2.38,5.46-.29.99-.59,2.02-.96,2.99-.19.51-.43,1.01-.66,1.5-.25.52-.49,1.05-.69,1.59-.19.55-.45,1.14-.72,1.74-.56,1.25-1.19,2.67-.89,3.39.41.98,2.53,1.72,4.08,2.26l.65.23c2.02.73,4.13,1.38,6.18,2,3.84,1.18,7.82,2.39,11.45,4.23,2.72,1.37,4.3,3,4.85,4.97.56,2.01,0,4.3-1.7,7-7.53,11.96-16.1,17.35-27.66,17.35-.53,0-1.07-.03-1.56-.02-3.71,0-7.56,1.09-11.29,2.15-1.79.51-3.64,1.03-5.47,1.44-4.92,1.09-9.8,2.04-14.78,2.04-3.01,0-6.07-.34-9.2-1.22l-1.31-.36.97-.95c3.32-3.25,4.84-5.92,4.79-8.38-.05-2.28-1.41-4.54-4.27-7.11ZM340.63,694.23c.58-16.5,1.26-33.28,1.93-49.5l.41-10.17c.04-1.02.16-2.04.32-3.45.1-.8.2-1.72.32-2.85l.32-3.15,1.18,2.94c.33.82.61,1.46.83,1.98.38.89.64,1.48.8,2.11.82,3.23,1.64,6.45,2.47,9.68,2.19,8.55,4.45,17.39,6.5,26.14,3.15,13.46,6.23,27.16,9.22,40.42,1.37,6.1,2.74,12.19,4.12,18.28.1.45.19.9.27,1.36.22,1.16.41,2.25.89,3.16,4.49,8.51,2.97,16.18-4.78,24.16-1.84,1.89-3.41,4.02-5.4,6.71-1.02,1.39-2.15,2.91-3.45,4.58l-.86,1.1-23.84-62.28.97-.14c6.19-.9,7.56-4.91,7.77-11.07ZM335.13,583.23c-.13-1.35.19-3.34,1.21-4.49,2.06-2.35,4.24-4.52,6.55-6.82.87-.87,1.76-1.75,2.65-2.66l.67-.68,4.97,7.34c3.29,4.85,6.38,9.41,9.43,14.01,1.03,1.55,1.28,3.23.7,4.85-.74,2.08-2.74,3.76-5.49,4.63-3.16.99-6.22,2.44-8.86,4.17-1.67,1.11-3.24,1.67-4.64,1.67-.68,0-1.32-.13-1.92-.4-1.22-.55-2.78-1.95-3.25-5.49l-.18-1.34c-.67-4.84-1.35-9.84-1.83-14.79ZM416.43,587.05c-.15-4.91-.3-9.81-.42-14.71-.02-.64.07-1.26.16-1.91.04-.32.09-.64.12-.99l.1-.93.89.25c20.41,5.71,43.57,14.08,60.6,32.82,5.65,6.22,9.47,14.2,13.17,21.91l.25.52c5.46,11.36,9.84,21.87,13.42,32.15,1.94,5.58,3.23,11.47,4.48,17.16.66,2.99,1.34,6.09,2.1,9.1.79,3.09,1.64,6.15,2.5,9.23,1.01,3.64,2.06,7.4,2.97,11.14.37,1.51.86,4.35-.09,6.44-14.77,32.83-24.1,66.22-27.72,99.23-.88,8-.14,14.28,6.33,18.91l.58.41-3.28,5.74-.64-.26c-9.05-3.76-16.1-4.15-20.93-1.18-5.05,3.09-8.03,10.03-8.86,20.63l-.17,2.14-1.25-1.74c-5.14-7.14-11.93-11.04-21.39-12.28l-1.62-.21,1.18-1.13c.8-.76,1.54-1.45,2.24-2.09,1.37-1.26,2.55-2.36,3.63-3.53,6.43-7.04,6.12-15.46-.83-21.99-1.78-1.67-3.41-2.97-4.97-3.97-4.2-2.71-6.31-5.63-7.3-10.09-1.55-7.02-7.37-11.73-15.55-12.62-9.1-1-18.37-.26-27.32.44-1.43.11-2.93,1.35-4.68,2.78-.93.76-1.97,1.61-3.12,2.39l-.33.22-10.68-3.75.34-.77c2.29-5.23,4.58-10.43,6.86-15.62,4.84-10.96,9.83-22.31,14.6-33.48,16.7-39.14,25.19-79.52,25.24-120.01.01-10.1-.3-20.38-.61-30.33ZM390.84,703.66l-.12.51-2.74.43-.4-2.26c-.19-1.03-.38-2.06-.54-3.1-1.01-6.44-2.01-12.89-3.01-19.33-2.39-15.44-4.87-31.4-7.44-47.07-.79-4.83-1.68-9.47-3.8-13.25-4.49-7.98-4.24-16.6.69-23.65,5.22-7.45,7.39-16.05,9.48-24.37,1.55-6.17,3.16-12.54,5.99-18.42l.85-1.76.6,1.86c14.66,45.38,14.79,93.18.43,150.42ZM408.94,903.95c2.08-.81,4.23-1.68,6.42-2.57,5.09-2.07,10.36-4.2,15.8-6.05,18.42-6.26,28.41-16.06,32.38-31.78l.36-1.43,7.93,8.9-.51.53c-1.16,1.19-2.33,2.35-3.5,3.51-2.75,2.73-5.35,5.31-7.73,8.16-2.3,2.74-3.84,5.64-4.35,8.15-.24,1.19.51,2.75,1.23,4.27.25.52.49,1.03.71,1.54.45-.16.91-.3,1.37-.44,1.54-.48,3-.93,4.05-1.8,1-.83,1.76-1.97,2.57-3.18.72-1.08,1.46-2.2,2.42-3.12,3.29-3.21,6.6-6.42,10.38-8.87,9.22-5.97,13.58-5.21,20.33,3.42,3.3,4.23,6.77,5.55,11.94,4.58,5.29-.99,10.18-.1,13.88,2.5,3.13,2.21,5.12,5.5,5.74,9.51,1.38,8.84,7.33,12.38,13.63,16.13,7.57,4.5,7.77,4.87,7.03,13.21l-.1,1.14c-.4,4.59.37,9.01,2.08,11.82,3.05,5.05,3.78,9.91,2.11,14.06-1.8,4.48-6.23,7.87-12.48,9.55-14.89,4.01-25.06,12.04-31.99,25.26-1.3,2.47-2.63,3.78-4.21,4.14-.28.06-.57.1-.87.1-1.3,0-2.74-.62-4.45-1.92-1.61-1.22-3.34-2.38-5-3.5-1.58-1.06-3.22-2.16-4.78-3.32-1.81-1.36-2.15-2.74-2.12-3.66.03-.9.46-2.22,2.29-3.38,2.59-1.66,5.61-3.21,9.22-4.74,1.79-.76,3.65-1.39,5.44-2.01,2.07-.71,4.21-1.45,6.21-2.36,5.73-2.61,7.99-6.22,6.38-10.16-2-4.89-7.17-4.4-11.16-3.1-4,1.28-7.92,2.82-12.08,4.45-1.87.73-3.78,1.48-5.75,2.23l-.94.36-.58-4.59c-.36-2.82-.72-5.65-1.01-8.48-1.04-10.16-4.84-17.15-11.95-22-1.41-.96-2.66-2.82-3.19-4.74-4-14.83-14.55-21.78-28.9-19.21-15.53,2.82-25.4,8.51-31.99,18.42l-1.27,1.9-1.53-21.22.54-.21ZM508.84,1057.33l-.44.58-.61-.39c-14.21-9.14-27.79-8.55-40.34,1.72l-.53.44-.5-.47c-10.95-10.28-21.31-5.27-32.28.03l-5.26,2.52,2.83-3.03c1.23-1.32,2.35-2.77,3.43-4.17,3.34-4.33,6.79-8.81,13.77-9.85,7.04-1.05,13.18-5.82,18.27-14.18,3.48-5.72,6.66-11.6,9.73-17.28,1.29-2.38,2.54-4.71,3.79-6.96l.37-.68,4.71,2.53c4.37,2.33,8.88,4.74,13.33,7.33,1.22.7,1.99,2.79,1.93,4.23-.33,7.97,2.28,15.3,8.2,23.03,5.21,6.81,5.2,7.21-.39,14.61ZM360.92,1120.81c4.54-5.69,9.8-10.92,14.9-15.98,2.15-2.14,4.3-4.27,6.4-6.45.46-.48.99-.91,1.52-1.33.76-.61,1.47-1.19,1.92-1.89.25-.39.52-.8.79-1.21,1.22-1.84,2.6-3.93,2.43-5.56-.08-.83-1.69-1.88-3.11-2.8-.82-.54-1.67-1.09-2.43-1.71l-1-.81,1.18-.52c2.37-1.03,4.57-2.43,6.89-3.92,4.64-2.96,9.44-6.03,16.02-6.27,3.78-.14,7.59-1.74,11.27-3.3,1.63-.68,3.31-1.39,4.94-1.95l1.73-.59-.76,1.66c-.34.74-.73,1.52-1.15,2.35-.96,1.93-2.06,4.11-2.78,6.37-.67,2.08-1.19,5.78,2.76,7.17,2.99,1.02,3.98-.62,5.62-3.87l.11-.22c4.34-8.54,11.77-13.64,22.08-15.15,1.78-.26,4.07.82,7.03,3.31,3.32,2.8,6.1,3.25,8.98,1.46,13.1-8.09,26.09-3.67,37.57.22,4.3,1.46,8.1,3.7,11.76,5.86,1.98,1.17,4.02,2.38,6.11,3.43,7.28,3.7,15.38,3.67,24.05-.06,3.05-1.31,4.97-.69,7.89,1.13,3.58,2.25,9,5,14.47,5.39,3.37.22,5.95-.76,7.5-2.87,1.97-2.69,2.1-6.96.38-11.8l-4.77,2.61-2-1.51c-1.19-.9-2.38-1.8-3.59-2.66-6-4.25-12.31-5.02-19.32-2.32-3.83,1.47-8.6,3.31-13.22,3.45-.19,0-.38,0-.57,0-3.81,0-6.9-1.2-8.98-3.48-2.18-2.4-3.07-5.8-2.56-9.82.66-5.17-.48-8.98-3.94-13.16-6.68-8.1-5.4-17.7-3.35-27.65.33-1.6,1.81-2.84,3.38-4.14.73-.6,1.48-1.23,2.16-1.92l.76-.78.49.97c.4.8.72,1.55,1,2.22.48,1.16.87,2.08,1.45,2.53.37.28.74.59,1.13.9,1.93,1.55,4.25,3.45,6.03,3.28,2.07-.27,4.87-3.31,5.71-5.62,1.28-3.5,3.94-6,7.13-6.68,2.98-.65,6.12.41,8.53,2.9,2.51,2.6,4.24,2.59,7.13-.05,2.46-2.24,5.22-4.1,8.14-6.08,1.29-.88,2.62-1.77,3.96-2.73l.93-.66.29,1.11c.3,1.16.53,2.22.75,3.18.45,2.04.81,3.65,1.49,5.09.44.94,1.97,2.01,2.85,2.01.01,0,.03,0,.04,0,.03,0,.74-.05,2.25-2.68.28-.48.3-1.26.32-2.01,0-.29.02-.58.04-.85.07-.93.2-1.89.34-2.86.58-4.08,1.14-7.94-3.11-10.08-5.21-2.61-11.23-1.88-16.12,1.96-3.97,3.12-7.03,3.51-11.71,1.44-6.91-3.03-13.75-2.2-19.76,2.42-.64.49-1.31.89-2,1.21-.39.16-.7.11-1.4-.02-.4-.08-.98-.18-1.86-.31l-1.39-.2.9-1.08c1-1.19,1.9-2.35,2.76-3.46,1.8-2.32,3.5-4.51,5.56-6.22,3.3-2.74,6.84-5.28,10.27-7.75,2.37-1.7,4.82-3.46,7.16-5.26,2.95-2.27,5.77-4.67,8.76-7.2,1.33-1.14,2.7-2.29,4.1-3.46l.93-.77.32,1.17c1.76,6.35,5.74,11.13,10.91,13.12,4.78,1.85,10.09,1.18,14.9-1.89,4.01-2.54,7.43-6.48,10.53-10.35,2.26-2.82,4.62-4.29,7-4.37,2.04-.03,3.94.87,5.71,2.79,4.72,5.13,9.86,7.81,17.2,8.95,4.14.65,8.13,7.59,9.68,11.81,2.86,7.82,4.71,10.64,9.43,10.64.24,0,.49-.01.75-.02,6.17-.34,11.23-5.69,12.05-12.72,1.08-9.16-4.03-16.37-13-18.37-1.19-.26-2.37-.65-3.69-2.44l-.75-1.02,2.86-.49c1.28-.22,2.56-.44,3.83-.68,2.65-.52,5.3-1.02,7.96-1.52,7.14-1.34,14.52-2.73,21.67-4.49,1.81-.45,3.45-1.67,5.18-2.97,1.05-.79,2.15-1.61,3.3-2.25,1.02-.57,2.17-.8,3.29-1.03.46-.09.93-.19,1.38-.31l1.16-.31-.18,1.18c-.07.43-.1.88-.14,1.32-.09,1.1-.18,2.23-.69,3.22-1.37,2.66-3.05,5.75-5.15,8.46l-9.74,12.6c-14.45,18.7-29.4,38.04-44.45,56.78-4.02,5-9.12,9.23-14.06,13.31-1.05.88-2.11,1.75-3.15,2.63-7.51,6.33-11.9,12.42-13.81,19.15-.74,2.6.09,6.77,1.8,9.11,2.35,3.2,6.4,1.9,9.4.26,1.04-.56,2.1-1.3,3.44-2.39,41.07-33.39,71.79-67.7,93.91-104.88,12.61-21.19,22.67-43.8,29.9-67.21,5.95-19.27,3.86-39.47,1.85-59.01-.2-2-.41-3.99-.61-5.99-.98-9.89-2.56-19.71-4.36-30.6-3.91-23.65-11.67-48.58-24.41-78.48-.47-1.12-1.05-2.22-1.7-3.27-2.42-3.92-5.7-5.36-9.74-4.35-3.61.92-5.57,3.64-6,8.31-.17,1.87.12,3.86.44,5.74l2.12,12.56c4.28,25.36,8.72,51.59,13.19,77.36.9,5.17,2.08,10.31,3.22,15.28.5,2.2,1,4.37,1.46,6.5l.2.9-.93.04c-1.08.06-2.21.02-3.3-.02-2.39-.1-4.66-.17-6.38.69-3.03,1.51-5.87,4.49-6.92,7.25-.79,2.09-1.6,4.19-2.4,6.28-3.88,10.06-7.9,20.47-9.9,31.03-1.9,10.05-2.14,20.62-2.36,30.85-.07,3.18-.14,6.36-.25,9.53-.1,2.57-.49,5.13-4.13,5.64-1.17.17-2.34.34-3.51.52-3.62.55-7.37,1.12-11.09,1.27-7.25.28-14.6.23-21.71.18l-2.78-.02c-3.83-.02-6.46-.91-8.03-2.71-1.56-1.79-2.08-4.47-1.6-8.2.69-5.36-.56-10.31-3.45-13.56-2.4-2.71-5.75-4.13-9.71-4.13h-.13c-9.28.08-18.54,1.5-29.6,3.62-9.91,1.9-14.4,10.05-17.78,18.57-.47,1.18-.91,2.38-1.37,3.66l-.84,2.29-.72-.25c-5.91-2.01-8.02-5.25-7.25-11.16,1.39-10.91-3.78-18.77-15.81-24.02l-.5-.22.03-.54c.02-.48.03-.96.04-1.43.02-.98.04-2,.19-2.99,1.08-7.17-1.03-13.64-5.95-18.2-5.25-4.87-13.12-7-20.05-5.41-6.78,1.56-12.85,2.32-18.14-4.25-.59-.74-1.64-1.19-2.75-1.68-.56-.25-1.11-.49-1.62-.77l-.44-.24.04-.5c.24-3.23-.05-5.06-.99-6.12-1-1.13-2.9-1.66-6.56-1.82-4.61-.21-8.5-1.86-10.96-4.65-1.85-2.09-2.71-4.63-2.49-7.35.23-2.91,1.28-4.95,3.03-5.91,1.18-.65,3.24-1.08,6.32.57,1.16.62,2.16,1.53,3.12,2.41,1.08.99,2.09,1.92,3.25,2.39,3.44,1.37,6.31,1.73,7.7.94,1.61-.9,3.14-4.38,3.03-6.89-.18-4.71,1.88-9.21,5.51-12.02,3.22-2.51,7.26-3.27,11.11-2.13,2.54.76,5.47,4.03,6.15,6.86.67,2.75.84,5.64,1,8.44.14,2.37.29,4.83.74,7.16.58,2.91,2.02,6.42,3.85,7.25,1.54.7,4.4-.45,6.69-1.37.49-.19.97-.39,1.43-.56.74-.28,1.4-.91,2.1-1.58.63-.6,1.28-1.22,2.07-1.66,2.52-1.43,5.84-2.53,9.04,1.51,4.34,5.48,7.82,5.88,13.78,1.58,1.82-1.31,3.74-2.43,5.3-1.75,1.03.45,1.64,1.54,1.87,3.35.89,7.07,4.5,12.63,11.35,17.46l.82.58-.76.66c-1.02.87-2.01,1.67-2.97,2.45-1.99,1.62-3.87,3.14-5.48,4.86-3.27,3.48-6.4,6.92-8.74,10.74-1.19,1.95-1.53,3.78-.95,5.28.61,1.6,2.22,2.84,4.64,3.57,6.52,1.94,14.56-.36,20.99-6.04,5.98-5.3,8.92-12.13,7.85-18.27-.68-3.93-4.26-7.91-6.89-10.56-3.59-3.62-5.99-6.66-4.02-12.82,1.23-3.85.6-7.7-1.78-10.85-2.53-3.35-6.67-5.32-11.14-5.32-.16,0-.31,0-.47.01-1.97.06-3.67.28-5.21.66l-.36.09c-5.87,1.47-11.43,2.85-17.95,1.05-2.61-.72-5.72.04-9.03.83-1.59.39-3.24.78-4.91,1.04l-.69.11-.18-.68c-3.17-11.7-8.09-24.06-25.71-22.03l-1.11.12.27-1.09c2.11-8.62,4.17-17.17,6.21-25.67,5.16-21.4,10.04-41.63,15.46-62.15,2.8-10.64,9.19-20.46,18.98-29.19,5.98-5.32,12.12-7.35,19.28-6.38l.72.1-.04.73c-.02.31-.02.62-.02.91,0,.67,0,1.3-.19,1.94-6.35,22.53-2.84,45.33,10.46,67.77,7.05,11.9,17.69,20.12,29.97,23.13,12.54,3.07,26.1.64,38.23-6.87,15.23-9.43,27.38-23.76,38.24-45.11,2.85-5.61,2.23-7.69-1.41-13.47l-.37-.58.52-.44c3.91-3.32,4.63-7.89,2.39-15.27l-.38-1.26,1.29.26c3.55.73,7.04,1.42,10.49,2.1,9.3,1.84,18.08,3.58,26.86,5.76,3.45.85,6.71,4.02,8.29,6.6l1.57,2.55c3.86,6.26,7.84,12.72,9.99,19.69,13.34,43.36,20.7,79.38,23.16,113.33,1.88,25.89,2.45,59.68-9.92,91.46-3.52,9.03-8.48,17.65-13.28,25.97-2.4,4.17-4.89,8.47-7.16,12.78-1.09,2.06-2,4.28-2.87,6.43-.66,1.61-1.34,3.29-2.1,4.9-11.67,24.68-31.26,44.12-59.89,59.44-26.98,14.43-54.21,27.74-80.55,40.6l-2.26,1.1c-14.53,7.06-28.26,13.74-34.87,29.03l-.46,1.06-.81-.82c-1.59-1.6-3.16-3.13-4.72-4.64-3.81-3.7-7.41-7.19-10.59-11.12-1.68-2.08-1.92-5.37-2.11-8.28l-.1-1.31c-.81-9.75-5.56-16.05-13.37-17.77-3.35-.73-6.93-.72-9.81.04-5.9,1.54-11.83,3.43-17.55,5.25-2.77.88-5.54,1.76-8.32,2.61l-.73.23c-1.33.43-2.85.9-4.24.66-19.71-3.54-36.26,3.48-50.73,21.44-.64.8-1.2,1.65-1.79,2.55-.32.48-.63.96-.95,1.43-.18.24-.39.37-.55.46l-.39.22-.54-.13c-4.5-2.58-8.16-3.3-10.88-2.14-2.53,1.08-4.36,3.84-5.44,8.22-2.23,9.03-3.1,18.37-2.53,27.01.61,9.24,6.95,16.02,17.84,19.09,5.86,1.65,11.71,2.91,17.9,4.23,2.71.58,5.44,1.17,8.19,1.79l1.66.38-1.36,1.02c-1.61,1.2-3.21,2.47-4.83,3.75-4.09,3.24-8.32,6.59-13,9.14-3.4,1.86-8.84.69-11.8-.17-4.06-1.19-6.95-1.43-10.58.72-4.2,2.49-8.34,3.72-12.48,3.72-4.87,0-9.73-1.72-14.66-5.18l-1.83-1.28,2.23-.14c1.54-.1,2.99-.17,4.38-.25,3.16-.16,5.88-.3,8.63-.63,3.56-.42,6.36-1.02,8.82-1.89,5.69-2.02,7.28-5.25,5.58-11.48-.71-.17-1.41-.34-2.09-.51-1.8-.44-3.5-.86-5.22-1.17-1.48-.27-2.98-.55-4.46-.83-4.64-.88-9.43-1.78-14.17-2.29-5.44-.58-9.09-2.38-10.84-5.36-1.71-2.92-1.52-6.84.55-11.67.6-1.4,1.54-2.61,2.45-3.79.77-1,1.5-1.95,2.03-2.99l.65-1.24c1.25-2.38,2.55-4.84,2.61-7.18.37-13.6,9.39-21.11,18.17-26.66,3.72-2.36,5.91-4.06,4.87-7.83-.55-1.98-1.64-3.47-3.16-4.33-1.51-.84-3.32-1-5.22-.44-3.36.97-8.21,2.81-12.27,5.99-9.99,7.83-15.4,17.74-16.09,29.44-.09,1.64-.42,2.74-1.03,3.46-2.58,3.02-5.19,5.91-7.95,8.97l-3.73,4.15-.49-1.1c-5.41-12.09-4.94-21.86,1.44-29.87ZM612.54,940.98c-3.04-2.46-5.67-4.58-8.63-6.14-1.31-.69-2.68-.83-3.97-.41-1.6.53-2.99,1.9-3.92,3.85-.76,1.61-1.14,3.49-1.51,5.31l-.27,1.29c-1.09,5.1-3.72,8.07-8.29,9.34-3.02.84-5.99,2.07-9.14,3.37-1.46.6-2.96,1.22-4.54,1.83l-1.38.53.33-1.44c.51-2.16.92-4.29,1.33-6.38.94-4.81,1.83-9.35,3.62-13.59,1.87-4.42,5.2-8.22,8.42-11.91l1.44-1.65c1.26-1.47,4.62-2.68,6.31-1.94,4.37,1.94,8.59,1.24,13.06.48,1.36-.23,2.72-.46,4.09-.61,4.16-.46,6.36,1.18,7.66,5.66,1.06,3.67,2.46,7.32,3.81,10.85.97,2.52,1.97,5.14,2.85,7.75.17.49.36.98.54,1.48,1.17,3.08,2.5,6.57-.98,10.08l-.4.41-3.91-1.96c-3.27-1.62-6.35-3.16-9.42-4.81-.82-.44-2.52-2.03-2.11-3.14.43-1.18,1.38-2.73,2.74-3.53,1.17-.68,2.47-1.11,4.13-1.65.44-.15.91-.3,1.42-.47-1.14-.89-2.22-1.76-3.27-2.6ZM709.35,912.16c-.65-21.14,1.79-40.68,7.46-59.74l1.02-3.43.51,3.54c2.61,18.34,4.4,39.61-7.53,60l-1.38,2.35-.09-2.73ZM535.65,1521.08c20.13,26.92,39.74,50.27,59.95,71.38,14.03,14.65,25.81,31.86,37.22,48.51,2.51,3.66,5.02,7.32,7.55,10.95,7.98,11.45,12.05,31.4,11.45,40.66l-.08,1.25-1.09-.61c-.06-.04-.14-.07-.22-.11-.32-.14-.75-.33-.96-.77-9.88-20.82-28.16-32-54.34-33.24-20.12-.95-33.53-10.5-43.49-30.97-2.86-5.88-5.76-11.74-8.66-17.6-12.69-25.68-25.82-52.24-35.66-79.83-14.13-39.62-20.59-82.65-20.35-135.41.02-4.16.17-8.43.32-12.54.37-10.2.75-20.73-.9-30.73-3.32-20.23.93-39.55,5.02-58.23,1.58-7.17,3.2-14.58,4.37-21.93.8-5,1.95-10.01,3.07-14.86.52-2.25,1.04-4.51,1.53-6.77l.12-.59,3.51-.16.08.74c.61,6.22,1.25,12.44,1.9,18.66,1.43,13.82,2.91,28.12,3.98,42.21,2.17,28.64,4.4,59.13,5.69,89.45.56,13.31.37,26.86.18,39.97-.09,6.42-.18,12.84-.19,19.26-.02,23.24,6.52,43.3,19.99,61.32ZM484.24,1609.27c-3.94-18.84-12.2-36.86-25.24-55.1-10.98-15.35-21.79-32.05-22.86-52.45-.51-9.51.38-19.02,1.4-28.75.27-2.52,1.67-4.87,3.02-7.15.54-.9,1.07-1.81,1.53-2.71,2.35-4.63,4.7-9.24,7.06-13.86,4.28-8.4,8.56-16.8,12.79-25.24,1.18-2.37,2.18-4.83,3.33-7.67.58-1.43,1.19-2.94,1.88-4.57l2.26-5.35-.77,5.76c-3.56,26.85-1.02,54.19,7.77,83.57,3.29,11,6.72,22.16,10.06,32.95,5.01,16.25,10.2,33.05,14.96,49.67,7.85,27.41,8.05,56.2,7.62,81.04-.34,19.71-10.49,35.23-31.91,48.85l-1.52.97.33-1.78c.2-1.07.38-2.14.56-3.21.39-2.28.8-4.64,1.35-6.93,2.94-12.06,5.85-23.75,8.67-34.75,4.5-17.61,1.63-34.55-2.29-53.29ZM478.99,1216.65c-.37-4.09-1.12-8.13-1.9-12.41-.37-2.01-.75-4.07-1.1-6.17l-.12-.76,14.06-2.65-.22,6.12c-.15,4.23-.29,8.31-.45,12.4-.25,6.1-.39,12.31-.53,18.32-.32,13.79-.66,28.05-2.24,41.95-1.53,13.39-4.14,26.87-6.67,39.9-1.51,7.78-3.07,15.83-4.38,23.77-4.7,28.43-13.71,57.03-27.55,87.45-4.68,10.27-10.78,20.07-16.67,29.55-2.45,3.93-4.98,8-7.38,12.04-.79,1.34-2.14,2.37-3.35,3.22-20.6,14.54-28.36,36.47-32.83,53.96-2.11,8.3-4.64,16.62-7.09,24.67-1.11,3.68-2.23,7.36-3.31,11.05l-.18.62-3.35-.33-.12-.56c-.6-2.71-1.26-5.41-1.92-8.12-1.45-5.92-2.94-12.05-3.69-18.17-1.75-14.57-3.13-30.03-4.31-48.66-.83-13.16,2.32-25.52,9.13-35.75l.72-1.08c8.23-12.38,16.75-25.18,27.44-35.45,39.12-37.59,63.07-83.22,73.23-139.49,3.06-16.95,6.54-36.16,4.78-55.41ZM512.14,1181.12l-8.14-.85-.16-.48c-3.5-10.79-5.78-11.96-17.36-9.07-5.16,1.29-10.33,2.54-15.51,3.79l-7.63,1.85-2.02-2.79,3.72-2.74c2.25-1.66,4.51-3.32,6.8-4.93,2.46-1.73,4.97-3.41,7.48-5.08,5.33-3.56,10.83-7.23,15.74-11.41,4.93-4.19,6.69-10.2,4.8-16.47-.47-1.57.55-3.76,1.44-4.82,2.58-3.09,5.34-6.04,8.23-8.78,5.86-5.59,8.2-11.42,7.35-18.34l-.65-5.29,2.14,4.87c.06.15.13.29.2.43.18.37.37.74.47,1.17.09.38.13.77.17,1.16.03.33.06.66.14.98.52,2.01.97,4.05,1.42,6.1,1,4.55,2.04,9.24,3.88,13.47,4.46,10.27,5.65,21.23,3.85,35.55-.13,1.03-.74,3.16-2.07,3.84-4.01,2.05-6.01,5.62-8.14,9.41-1.61,2.87-3.28,5.84-5.91,8.22l-.26.24ZM451.65,1154.56l.36.48-.38.47c-2.54,3.17-5.79,4.75-9.88,4.75-1.39,0-2.89-.18-4.49-.55-5.23-1.21-8.24-5-8.67-10.99-.19-2.56-.32-5.11-.48-8.07l-.32-5.91,1.26.74c7.27,4.26,11.81.91,16.63-2.61,2.31-1.69,4.71-3.43,7.41-4.31l2.09-.67-1.19,1.85c-7.58,11.74-8.08,17.08-2.35,24.82ZM450.22,1123.85c-2.06.35-4.17.73-6.22-.16l-.86-.37.51-.78c.22-.33.42-.67.62-1.02.47-.79.95-1.61,1.6-2.31,6.28-6.81,14.19-11,23.53-12.47,2.99-.47,6.61.06,9.71,1.42,4.23,1.85,7.42,1.87,10.65.02,2.11-1.19,5.64-3.2,8.81.36,3.31,3.72,3.84,7.26,1.62,10.82l-.44.7c-2.2,3.56-4.47,7.24-9.69,8.46-1.75.41-3.79,2.4-5.9,5.75-4.43,7.06-11.1,10.85-17.65,13.88l-1.55.72.47-1.65c.47-1.64.87-3.2,1.26-4.7.81-3.14,1.58-6.11,2.72-8.88,1.04-2.5,1.25-4.13.66-5.14-.55-.93-1.92-1.5-4.2-1.75-1.59-.18-3.28-.05-5.05.09-.9.07-1.83.14-2.81.18l-.54.02-.22-.5c-1.57-3.66-3.97-3.25-7.06-2.72ZM1049.91,1402.66c-.43.75-.83,1.54-1.24,2.33-.92,1.78-1.87,3.62-3.17,5.21-5.55,6.78-13.38,11.17-24.64,13.82-33.06,7.75-58.82,11-83.5,10.56-8.11-.16-16.61.84-24.73,1.79l-2.22.26c-.54.06-1.04.1-1.51.1-2.84,0-4.14-1.27-4.91-4.49-3.35-14.13-6.68-28.26-10.01-42.39-10.73-45.5-21.83-92.55-33.17-138.72-12.29-49.97-25.32-100.65-37.93-149.66l-5.23-20.35c-7.24-28.18-20.94-54.33-41.9-79.95-4.51-5.53-8.8-9.93-13.11-13.47-3.29-2.71-3.77-4.87-1.89-8.58,12.22-24.12,19.87-50.38,27.28-75.78,1.17-4.02,2.35-8.05,3.53-12.06,2.7-9.1,3.42-18.99,4.13-28.55.25-3.45.52-7.01.87-10.49.38-3.79,1.58-5.2,5.37-6.3,3.43-.99,6.77-2.65,10-4.26,1.68-.83,3.41-1.69,5.15-2.46,1.1-.48,2.19-.99,3.28-1.5,3.46-1.61,7.05-3.27,10.79-4.14,3.77-.88,8.17.8,9.87,1.55,2.99,1.34,4.5,2.6,5.05,4.23.56,1.67.1,3.6-1.59,6.68-1.27,2.3-2.64,4.59-3.97,6.8-1.78,2.98-3.63,6.05-5.22,9.17-8.69,16.95-6.57,30.52,6.84,44.01,3.34,3.36,6.93,6.87,10.87,9.6,2.07,1.44,5.39,2.55,7.31,1.88,1.15-.39,2.29-1.65,3.14-3.47,1.17-2.51,1.55-5.53.9-7.17-.33-.86-.67-1.72-1-2.58-1.14-2.96-2.32-6.03-3.75-8.89-5.65-11.27-3.52-21.57,6.72-32.43,1.58-1.67,3.25-3.3,4.87-4.87,1.83-1.78,3.72-3.62,5.47-5.51l2.04-2.22c3.44-3.71,7-7.54,9.86-11.72,2.23-3.27,3.93-6.8,5.91-10.89.9-1.88,1.85-3.84,2.9-5.87l1.14-2.22.33,2.48c.6,4.52,1.16,8.95,1.71,13.3,1.22,9.65,2.36,18.76,3.85,27.92,1.54,9.54,3.3,19.23,4.99,28.59,1.64,9.01,3.32,18.32,4.83,27.52,1.18,7.24,2.18,14.63,3.15,21.77,1.18,8.69,2.39,17.68,3.94,26.45,3.02,17.14,6.25,34.54,9.38,51.37,4.6,24.78,9.36,50.41,13.54,75.7,8.34,50.5,12.78,96.05,13.57,139.26.11,6.39.16,12.79.21,19.19.14,18.29.28,37.2,2.08,55.63,1.45,14.84,5.26,29.74,8.95,44.14.97,3.79,1.94,7.58,2.87,11.36,2.23,9.07,8.55,15.56,18.8,19.29,3.56,1.3,7.11,2.62,10.66,3.95,8.33,3.11,16.94,6.32,25.53,9.08,4.72,1.52,9.67,2.43,14.91,3.39,2.47.46,5,.93,7.62,1.47l1.05.23-.54.93ZM1169.98,1253.74c-.03.98-.03,1.89-.03,2.74,0,1.74,0,3.24-.22,4.75-1.87,13.56-9.53,24.35-24.11,33.95-3.83,2.52-8.19,4.9-12.96,7.08-4.33,1.97-8.78,3.87-13.08,5.71-6.01,2.57-12.23,5.22-18.21,8.11-12.37,5.98-26.02,9.38-42.96,10.7l-.6.05-.2-.56c-.08-.22-.17-.44-.26-.67-.22-.53-.46-1.13-.59-1.76-3.49-16.84-6.89-33.71-10.3-50.57-7.39-36.59-15.03-74.43-23.42-111.45-13.77-60.72-28.94-120.35-45.09-177.22-18.33-64.53-34.65-136.18-51.38-225.48-2.72-14.52-5.48-29.02-8.24-43.52-1.57-8.26-3.14-16.51-4.7-24.76-.11-.59-.18-1.18-.24-1.79l-.17-1.42,2.39-.87.29.67c.75,1.71,1.51,3.4,2.27,5.1,1.61,3.6,3.29,7.33,4.79,11.06,25.2,62.54,42.39,114.29,54.11,162.85,3.1,12.87,6.17,25.76,9.23,38.65,9.25,38.94,18.81,79.21,29.46,118.47,7.95,29.32,13.22,59.59,18.34,88.87,3.18,18.23,6.47,37.07,10.36,55.48,2.24,10.64,4.82,21.39,7.3,31.79,2.1,8.81,4.28,17.93,6.25,26.93,3.99,18.21,15.77,28.91,37.07,33.68,20.49,4.59,37.48,3.85,53.51-2.35,4.24-1.64,8.73-2.54,13.49-3.5,2.25-.46,4.57-.93,6.95-1.49l1-.23-.03,1.02ZM1162.36,1192.11l.86-.3.39,2.15,7.22,39.18-.64.22c-14.05,4.84-30.27,7.33-43.97,7.33-11.22,0-20.75-1.67-26.02-5.09l-.9-.58.82-.68c3.1-2.57,6.17-5.19,9.23-7.8,15.64-13.34,31.81-27.13,53-34.43ZM901.93,610.49l.35.47c1.14,1.53,2.23,3.03,3.31,4.5,2.32,3.17,4.51,6.17,6.83,9.07,1.63,2.04,3.42,4.03,5.15,5.97,3.06,3.42,6.22,6.95,8.67,10.88,5.06,8.16,10.29,16.41,15.34,24.39,16.01,25.26,32.56,51.39,46.28,78.68,23.44,46.61,41.25,94.14,55.58,134.49,11.26,31.7,23.17,63.77,34.67,94.78,7.63,20.56,15.52,41.82,23.15,62.77,9.04,24.86,17.82,50.27,26.31,74.85l3.01,8.69c2.07,5.99,3.83,12.19,5.54,18.18.54,1.92,1.09,3.84,1.65,5.76l.64,2.23c3.23,11.27,6.28,21.9,16.72,28.81l1.26.83-1.4.55c-12.72,4.99-24.79,12.64-37.98,24.06-7.78,6.74-15.15,13.82-22.95,21.32-3.48,3.34-7,6.73-10.64,10.16l-.87.82-.4-1.13c-.65-1.82-1.28-3.53-1.88-5.18-1.21-3.28-2.34-6.38-3.32-9.46-10.66-33.65-17.13-67.54-23.36-102.19-13.88-77.18-26.09-141.39-46.26-206.44-2.98-9.62-6.03-19.22-9.09-28.83-9.4-29.61-19.13-60.22-26.6-90.84-8.72-35.69-19.23-67.65-32.13-97.72-7.58-17.66-17.05-34.88-26.22-51.53l-1.92-3.47c-2.92-5.3-6.62-10.07-10.55-15.11-1.75-2.25-3.57-4.58-5.3-6.96l-.61-.84,7.03-2.58ZM854.94,607.61c.31-.16.61-.36.91-.55.75-.48,1.53-.98,2.44-1.12,7.59-1.17,16.47,4.44,18.56,11.85,11.69,41.37,21.04,84.01,30.07,125.25l2.88,13.15c11.51,52.36,24.9,105.24,37.86,156.37,2.6,10.28,5.21,20.57,7.8,30.85,4.78,18.96,9.97,38.17,15,56.74,7.44,27.48,15.12,55.89,21.61,84.09,11.84,51.47,22.8,104.04,33.38,154.89,3.32,15.95,6.64,31.9,10,47.84,2.02,9.62,3.59,19.36,5.1,28.78.69,4.28,1.37,8.5,2.08,12.63l.1.58-12.85,6.33c-10.46,5.15-21.01,10.34-31.53,15.6l-.76.38c-3.78,1.86-7.34,3.62-5.74,8.62.35,1.09,1.06,1.88,2.1,2.35,2.14.94,5.5.48,9.28-1.25,1.77-.82,3.53-1.76,5.23-2.68,2.39-1.29,4.87-2.62,7.45-3.63,6.93-2.71,13.83-5.17,21.13-7.78,2.88-1.03,5.78-2.07,8.72-3.14l.76-.27.25.76c4.49,13.53,6.05,26.46,5.04,41.93l-.06.98-.95-.28c-5.27-1.58-10.52-3.13-15.75-4.68-12.9-3.83-26.23-7.78-39.25-11.78-5.34-1.64-8.61-5.87-9.97-12.94-.62-3.2-1.25-6.4-1.88-9.59-2.35-11.89-4.78-24.19-6.39-36.4-4.45-33.62-8.73-67.83-12.87-100.92-2.13-16.97-4.24-33.94-6.4-50.91-1.97-15.51-3.98-31-5.99-46.5-2.94-22.66-5.97-46.08-8.83-69.13-2.65-21.35-5.2-43.07-7.67-64.08-1.62-13.85-3.25-27.7-4.92-41.55-.43-3.58-1.14-7.45-2.23-12.19-.41-1.78-.97-4.21-2.02-4.82-5.67-3.3-6.18-8.45-6.68-13.44-.12-1.24-.25-2.51-.46-3.73-1.2-7.04-2.45-14.08-3.69-21.12-2.59-14.62-5.28-29.74-7.46-44.69-11.38-78-22.79-142.87-35.91-204.17-.98-4.58-2.03-8.69-3.2-12.57-1.97-6.53-5.02-12.56-13.88-12.56h-3.24s2.8-1.48,2.8-1.48ZM834.39,626.23l14.43-11.66.21,1.34c.26,1.69.49,3.52.74,5.42.54,4.3,1.16,9.18,2.34,13.82,2.88,11.32,5.96,22.8,8.93,33.89,3.48,12.97,7.07,26.39,10.38,39.65,6.95,27.8,13.47,56.33,19.39,84.8l.62,2.98-1.98-2.3c-.23-.26-.46-.51-.7-.76-.54-.57-1.1-1.16-1.53-1.87-4.53-7.56-11.3-12.82-20.13-15.63-3.95-1.26-5.63-3.32-5.77-7.1-.86-22.79-5.46-45.41-9.89-67.28-2.21-10.88-4.5-22.13-6.3-33.28-1.05-6.57-2.53-11.98-4.52-16.52-2.23-5.12-4.99-10.05-7.67-14.82-1.14-2.02-2.26-4.02-3.32-6l-.31-.57,5.08-4.1ZM836.31,693.73l1.12-1.22,11.23,79.57-.98-.08c-3.3-.27-6.63-.42-9.86-.56-7.5-.34-14.59-.67-21.53-2.32-4.9-1.17-9.45-5.27-12.47-11.25-3.81-7.54-4.52-16.55-1.81-22.96,1.89-4.47,4.19-8.26,6.84-11.27,6.05-6.9,12.33-13.64,18.98-20.78,2.75-2.95,5.57-5.98,8.48-9.13ZM672.18,669.83c1.89.06,3.06-.05,4.26.17,43.71,7.96,86.32.32,126.67-22.71,4.6-2.6,7.55-.88,10.06,1.38,9.54,8.58,11.16,25.72,3.34,35.26-3.64,4.45-7.68,8.67-11.59,12.76-2.75,2.88-5.59,5.85-8.26,8.87-7.18,8.11-14.41,17.02-17.03,28.78-2.92,13.12.26,26.82,8.73,37.61,8.46,10.76,20.98,17.09,34.36,17.35,9.12.18,19.87.55,30.35,1.97,10.36,1.39,18.01,8.22,24.12,14.72,3.57,3.79,4.79,8.66,3.71,14.87-1.84,10.51-6.04,18.53-12.83,24.51-1.79,1.58-3.51,3.31-5.18,5-.78.79-1.56,1.58-2.35,2.35l-.51.5-1.76-1.5.99-2.05c.44-.9.88-1.8,1.3-2.7,3.38-7.09,3.75-14.41,1.04-20.62-2.72-6.22-8.35-10.93-15.87-13.27-12.34-3.84-24.34-1.97-35.7,5.55-5.78,3.83-9.7,4.94-12.72,3.65-3.06-1.32-5.02-5.16-6.2-12.08-3.86-22.67-10.78-46.45-21.77-74.84-3.36-8.68-8.24-16.74-13-24.16-6.45-10.02-16.22-16.17-29.88-18.82-16.78-3.24-33.28-6.67-45.78-9.3-1.64-.34-3.39-1.51-4.26-2.84-1.24-1.91-2.28-3.99-3.38-6.2-.48-.97-1-2-1.55-3.07l-.62-1.19,1.34.04ZM625.79,657.77l-.12.55c-1.2,5.63-3.51,11.51-11.51,12.37-1.32.14-2.6.56-3.96,1.01-.73.24-1.45.47-2.18.67-1.47.39-2.82.59-4.06.59-1.81,0-3.37-.43-4.64-1.29-2.09-1.41-3.38-3.94-3.83-7.53-.65-5.33-.97-10.59-1.32-16.16-.15-2.42-.3-4.85-.47-7.32l-.11-1.47,32.19,18.57ZM586.75,695.67l.11-.61,14.65-.86-.09.91c-.03.31-.04.59-.05.85-.02.6-.04,1.16-.3,1.68-1.87,3.79-1.38,6.62,1.53,8.66,3.56,2.46,6.84.63,8.95-1.33,10.88-10.03,19.22-22.18,24.77-36.1.51-1.28.97-2.57,1.48-3.99.27-.77.56-1.59.88-2.45l.24-.66.68.16c.77.19,1.52.38,2.25.58,1.6.41,3.12.81,4.64,1.04,3.67.55,4.45,2.6,4.54,5.93.51,20.15,8.72,38.16,25.1,55.06l.49.51-.47.54c-2.47,2.87-4.92,5.79-7.37,8.73-5.41,6.49-11.01,13.2-17.07,19.32-7.5,7.57-16.27,11.63-24.98,11.63-.93,0-1.85-.05-2.77-.14-9.64-.96-18.54-6.96-25.06-16.87-11.41-17.36-15.39-34.56-12.17-52.61ZM381.43,527.35c26.12-4.2,48.8-15.9,65.65-25.64,16.42-9.49,35.23-21.53,50.29-38.87.46-.54,1.01-.93,1.9-1.58.53-.38,1.19-.87,2.04-1.52l1.36-1.05-.1,1.72c-3.62,63.18,21.86,117.14,77.88,164.95l.62.54-.56.6c-13.83,14.62-9.89,30.2-4.24,46.21l.34.97-1.03.07c-2.09.15-4.15.22-6.18.29-4.51.16-8.77.31-12.85,1.26-4.13.97-8.11,2.78-11.96,4.52-1.68.77-3.35,1.52-4.99,2.2l-.76.31-.27-.78c-1.88-5.41-3.77-10.86-5.66-16.32-4.15-12-8.44-24.42-12.84-36.62-10.32-28.61-29.81-51.53-57.92-68.12-11.48-6.77-23.83-12.54-35.78-18.12-2.79-1.3-5.57-2.6-8.34-3.91-11.85-5.61-13.11-5.14-26.04,2.83l-.95.58-.23-1.09c-.08-.38-.13-.77-.17-1.16-.09-.69-.17-1.34-.44-1.75-.38-.59-.77-1.25-1.16-1.94-1.01-1.76-2.28-3.95-3.31-4.06-1.68-.12-5.12,2.13-5.99,4.1-2.3,5.26-3.92,10.96-5.49,16.46l-.69,2.42c-.73,2.53-1.25,5.11-1.85,8.11-.3,1.46-.61,3.01-.97,4.7l-.37,1.73-9.93-13.93,4.18-6.67c4.03-6.45,7.83-12.54,11.86-18.64,1.02-1.53,3.28-2.52,4.95-2.79ZM317.57,526.35c.96-.06,1.64-.11,2.16-.15.9-.07,1.35-.1,1.78-.06,13.04.9,26.08,1.81,39.31,2.73l4.34.31-14.45,18.92-.22.08c-1.04.38-2.07.54-3.08.54-4.31,0-8.24-3.03-11-5.54-3.88-3.53-8.15-6.81-12.67-10.29-2.11-1.63-4.31-3.32-6.61-5.14l-1.61-1.28,2.05-.12ZM282.86,526.14l.78-1.37.62,1.45c6.05,14.2,17.32,21.31,32.37,27.63,3.88,1.62,7.73,3.5,11.8,5.49,2.04,1,4.17,2.03,6.44,3.1l.97.46-.74.78c-1.3,1.4-2.54,2.74-3.76,4.05-3.51,3.79-6.82,7.37-10.22,10.73-.51.51-1.39.71-2.3.71s-1.9-.22-2.48-.56c-2.2-1.27-4.4-2.52-6.61-3.77-6.81-3.85-13.85-7.83-20.29-12.46-12.5-9-14.84-21.86-6.59-36.25ZM324.43,668.66l-.15.3c-.06.13-.11.24-.15.32-.06.26-.2.61-.57.74l-.49.17-.35-.39c-.26-.29-.25-.56-.11-.93l.03-.54-32.12-88.82,1.29.18c8.53,1.16,16.84,5.33,25.4,12.77,1.29,1.12,1.74,3.31,2.01,5.29.89,6.39,2.07,12.53,6.64,17.51,1,1.09,1.27,3.06,1.18,4.54-.81,14.93-1.72,30.1-2.6,44.77l-.21,3.53.2.56ZM250.27,568.17c1.86-4.63,3.67-9.29,5.57-14.13l3.49-8.92.82,1.4c2.51,4.31,4.44,7.62.72,12.37-3.02,3.87-3.17,8.93-.46,15.93,4.2,10.88,8.73,21.84,13.1,32.44,1.35,3.27,2.7,6.54,4.05,9.82,2.09,5.09,4.23,10.16,6.36,15.23l2.02,4.8c2.36,5.6,4.73,11.2,7.11,16.79,5.32,12.52,10.82,25.46,15.96,38.31,6.14,15.36,12.58,31.75,17.94,48.38,1.68,5.22,2.54,10.77,3.37,16.12.64,4.14,1.3,8.42,2.34,12.5,1.32,5.19,3.14,10.35,4.91,15.35,1.12,3.16,2.28,6.44,3.3,9.69.55,1.76.51,4.03-.09,6.08-1.94,6.53-4.09,12.93-6.13,18.87-.18.52-.34,1.04-.52,1.57-.72,2.24-1.45,4.56-2.92,6.32-9.9,11.89-9.58,26.18.83,37.29,5.64,6.02,12.79,10.21,21.86,12.82,2.66.76,5.32,1.65,8.4,2.67,1.55.52,3.24,1.08,5.12,1.68l1.96.63-1.88.83c-1.13.49-2.07.95-2.91,1.35-1.59.76-2.84,1.37-4.17,1.67-1.97.45-4.25.61-6.7.46-1.02-.05-2.02-.09-3.02-.09-15.49,0-28.38,7.13-40.34,22.26-2.59,3.27-6.22,5.71-9.73,8.06-5.02,3.37-10.13,6.42-15.07,9.37l-2.21,1.32c-2.07,1.24-4.03,2.07-6.36,2.07-1.03,0-2.12-.16-3.32-.53-2.64-.79-5.45-.89-8.43-1-2.14-.08-4.35-.16-6.49-.52-10.58-1.8-11.5-2.81-12.35-13.55-.36-4.61.22-8.86,1.62-11.98.91-2.02,2.74-3.55,4.52-5.02,1.02-.84,2.07-1.72,2.91-2.66.69-.78,2.81-3.15,2.61-4.52-.18-1.16-2.08-2.96-3.63-3.43-3.12-.94-6.59-.38-9.8,1.58-3.86,2.34-6.66,6.34-7.49,10.68-.65,3.43-.95,6.96-1.26,10.7-.15,1.76-.3,3.57-.49,5.44l-.13,1.28-1.08-.7c-4.17-2.72-5.59-6.25-4.23-10.49,3.44-10.66,9.23-23.75,23.6-30.37,3.47-1.59,7.28-2.65,11.04-3.07,5.23-.58,8.71-2.51,11.25-6.27,2.63-3.87,5.55-7.46,8.32-10.76.77-.92,2.57-1.78,3.88-1.51,4.13.79,8.82,1.69,13.29,3.18,5.16,1.73,8.02,5.08,8.48,9.96.2,2.09,1.07,4.39,2.32,6.15,4.22,5.99,1.69,10.79-1.34,14.7-.7.9-.82,2.38-.96,3.93-.04.47-.08.95-.14,1.41.51.07,1.02.16,1.53.26,1.53.27,3.13.56,4.11.08,6.39-3.16,9.41-8.37,8.76-15.05-.7-7.21-1.51-14.89-3.09-22.47-.56-2.71-1.85-5.32-3.2-8.08-.65-1.33-1.32-2.7-1.94-4.13l-.24-.55.47-.38c3.93-3.15,4.46-7.7,1.6-13.92-8.3-18.07-14.78-31.85-21.02-44.69-3.07-6.33-6.34-12.7-9.51-18.87-3.16-6.17-6.43-12.55-9.52-18.89-2.95-6.08-5.83-12.31-8.62-18.35-4.01-8.67-8.17-17.64-12.57-26.29-2.84-5.57-2.29-9.28,2-13.64,5.71-5.81,9.67-10.5,12.84-15.21,4.16-6.19,5.22-12.36,2.98-17.38-2.26-5.06-7.63-8.41-15.1-9.44-5.93-.82-12.04-1.27-17.94-1.71l-2.8-.21c-4.03-.3-6.05-.45-7.11-1.72-1.04-1.24-.83-3.17-.43-7.02l.02-.24c2.34-22.36,9.83-42.33,19.38-66.11ZM178.56,584.05c9.51-4.9,18.31-9.16,26.92-13.03,6.55-2.95,13.16-5.69,20.16-8.6,3.17-1.32,6.41-2.66,9.74-4.07l1.4-.59-.33,1.48c-.49,2.2-.96,4.3-1.41,6.34-.95,4.31-1.85,8.33-2.81,12.34l-2.43,10.08c-4.01,16.6-8.15,33.76-12.39,50.6-1.6,6.37-1.21,11.61,1.17,15.58,2.36,3.92,6.71,6.68,12.96,8.23,2.83.7,5.73,1.21,8.8,1.76,1.47.26,2.98.53,4.55.83l1.05.2-.51.94c-.29.53-.54,1.02-.77,1.48-.47.91-.88,1.71-1.38,2.47-.94,1.43-1.9,2.84-2.86,4.24-1.56,2.29-3.17,4.65-4.63,7.05-4.59,7.54-4.62,15.19-.09,23.39l5.22,9.43c9.86,17.79,20.06,36.19,29.39,54.65,7.49,14.81,14.54,30.14,21.35,44.96,2.91,6.32,5.82,12.64,8.76,18.94.19.41.11.8.04,1.19-.03.16-.06.33-.09.53l-.06.59-.59.1c-.84.14-1.69.26-2.55.38-1.88.26-3.81.53-5.62,1.08-3.45,1.04-7.81,3.43-9.04,8.92-.77,3.43-2.7,4.04-5.14,4.81l-.37.12c-2.23.72-4.47,1.41-6.71,2.12-9.81,3.08-19.97,6.26-29.37,10.58-9.8,4.51-16.8,12.9-20.23,24.27-.6,1.98-2.13,3.71-3.48,5.24l-.28.31c-7.54,8.58-9.51,17.8-5.85,27.41,3.98,10.48,11.64,16.58,22.78,18.13,2.15.3,5.05,1,6.72,2.68,7.55,7.66,16.9,10.81,28.64,9.58.53-.04,1.04.03,1.62.11.3.04.64.1,1.04.13l1.4.15-.87,1.11c-.24.31-.44.59-.61.83-.35.49-.65.92-1.07,1.26-15.4,12.84-21.3,28.2-18.03,46.95.6,3.44-.83,7.19-1.47,8.65-5.44,12.32-3.7,23.45,5.36,34.02,7.87,9.2,17.94,11.64,30.75,7.46,3.16-1.03,6.32-2.04,9.48-3.05,4.08-1.3,8.16-2.59,12.22-3.94,4.09-1.36,5.51-3.09,4.89-6.01-.68-3.19-2.93-3.35-6.58-3.26l-.51.02c-3.22.08-6.44.22-9.66.37-7.14.31-14.52.65-21.72.24-4.93-.27-8.93-2.22-11.25-5.48-2.22-3.11-2.76-7.26-1.51-11.69.46-1.61.9-3.22,1.35-4.84,4.06-14.62,8.25-29.75,18.91-41.84,4.11-4.67,9.28-9.65,16.48-11.18l.32-.07.27.18c.22.15.42.25.58.34.4.23.79.44.94.88.76,2.23,1.75,4.61,3.38,5.39.74.36,1.58.36,2.56,0,2.61-.94,5.17-4.17,6.36-6.88,1.84-4.24-.37-9.32-5.37-12.35-5.37-3.27-11.54-4.26-18.87-3.03l-5.65.94-.1-.81c-1.28-9.82,5.04-13.75,11.38-16.29,1.34-.54,2.59-1.29,3.91-2.09,1.18-.71,2.4-1.45,3.71-2.02,1.21-.53,3.54-1.02,4.97-.16,4.02,2.38,6.92,1.07,10.32-1.82,8.94-7.61,17.99-14.87,25.66-20.97,1.84-1.46,4.14-2.77,7.23-4.12,4.27-1.89,9.21-3.02,13.33,2.73,3.9,5.44,9.1,7.7,16.18,7.05,5.2-.48,10.85,1.81,15.19,3.84,1.85.87,2.86,3.1,3.75,5.07.33.74.65,1.43.96,1.94l.58.95-9.64,2.02c-8.9,1.87-17.31,3.64-25.74,5.29-1.07.21-2.13-.08-3.14-.36-.61-.17-1.19-.32-1.74-.37-1.31-.11-2.64-.31-3.97-.5-3.09-.44-6.28-.9-9.09-.26-9.98,2.31-18.5,7.52-24.65,15.04-2.59,3.16-3.91,7.77-4.86,11.87-.26,1.09,1.55,3.8,2.98,4.47,1.11.52,3.18.24,5.81-.8,5.13-2.03,10.3-4.21,15.3-6.32,3.18-1.34,6.36-2.68,9.55-4,.73-.3,2.39-.69,3.36-.02,5.22,3.54,9.93,1.59,14.93-.47.77-.32,1.54-.63,2.32-.94,9.77-3.77,21.16-7.23,32.55-.47,1.46.87,2.42,2.43,3.35,3.94.26.43.52.84.78,1.24.51.76.95,1.59,1.37,2.38.65,1.24,1.27,2.42,2.14,3.33,1.46,1.53,3.09,2.96,4.66,4.36,1.77,1.56,3.6,3.17,5.22,4.95,3.42,3.73,5.02,8.65,4.4,13.5-.62,4.83-3.42,9.17-7.66,11.91-5.68,3.66-9.15,8.45-13.43,14.8-2.59,3.85-6.41,6.9-10.1,9.85-1.37,1.09-2.73,2.18-4.03,3.31-1.11.96-2.33,1.79-3.52,2.58-1.01.68-2.05,1.38-2.99,2.15-1.9,1.55-3.75,3.22-5.71,4.99-.87.79-1.78,1.6-2.73,2.45l-.74.66-1.24-2.28c-.42-.76-.74-1.33-1.02-1.92-1.48-3.06-3.59-5.01-6.1-5.65-2.48-.65-5.26.06-7.99,2.01-1.13.8-2.23,1.71-3.29,2.59-1.28,1.06-2.6,2.15-4.01,3.09-3.72,2.49-7.3,3.1-10.1,1.72-2.86-1.42-4.58-4.79-4.86-9.48-.24-3.99-.78-5.93-1.82-6.51-.95-.52-2.81-.05-5.95,1.61-.23.55-.51,1.12-.79,1.68-.64,1.3-1.3,2.64-1.08,3.57,1.78,7.39-2.24,11.46-6.49,15.78l-1.07,1.08c-5.56,5.72-6.62,13.39-3.16,22.8l.29.77-.79.24c-1.17.36-2.33.7-3.46,1.04-2.37.7-4.66,1.39-6.93,2.15-3.65,1.23-6.18,3.29-7.13,5.82-.79,2.09-.47,4.47.93,6.88,2.72,4.7,6.76,8.79,10.67,12.74,1.13,1.14,2.26,2.29,3.36,3.44.76-.2,2.59-1.14,2.86-1.55.06-4.95-.2-10.21-.45-15.28l-.11-2.26c-.11-2.21-.29-4.41-.48-6.98-.1-1.22-.2-2.52-.31-3.94l-.11-1.47,1.29.74c6.84,3.93,11.84,7.28,13.77,14.64,2.33,8.93,10.36,12.75,16.67,14.38l.52.13.06.53c.17,1.46.36,2.85.55,4.19.44,3.08.85,5.99.76,8.89-.05,1.63-.86,3.15-1.64,4.63-.43.81-.87,1.65-1.16,2.46-4.73,13.36-16.11,19.51-26.61,23.78-9.59,3.9-16.47,1.53-22.29-7.68-3.08-4.86-7.16-6.73-13.6-6.26-10.71.81-13.8-1.86-14.89-12.91-.06-.68-.1-1.37-.12-2.06-.02-.58-.04-1.17-.09-1.75-.53-6.31-2.69-8.19-9.05-7.69-5.51.43-9.43-.66-11.55-3.25-2.11-2.58-2.43-6.6-.92-11.93,1.84-6.48,5.18-10.78,10.21-13.15l.6-.28.38.54c.76,1.11,1.46,2.2,2.13,3.27,1.36,2.14,2.64,4.16,4.24,5.81,2.36,2.43,5.3,3.75,8.33,3.75.11,0,.21,0,.31,0,3.26-.1,6.39-1.7,8.81-4.51l.81-.93c1.26-1.43,2.57-2.89,3.21-4.52.76-1.94,1.12-4.58.39-5.64-.82-1.21-3.89-2.36-5.03-1.85-5.54,2.27-9.24.66-13.85-1.86-5.87-3.22-12.46-3.73-18.53-1.46-6.84,2.55-12.38,8.35-15.2,15.91-3.27,8.77-1.93,16.89,4.07,24.82,4.12,5.44,9.81,7.49,17.97,6.46l.75-.09.12.74c.16.94.29,1.86.43,2.75.27,1.84.54,3.58.93,5.28,2.68,11.72,9.72,17.45,21.51,17.51,4.25.03,6.75,1.21,9.21,4.36,5.64,7.23,13.83,9.93,25.82,8.53,8.63-1.01,16.04-4.63,22.04-10.78.73-.74,1.5-1.43,2.51-2.32.54-.48,1.15-1.01,1.85-1.65l1.19-1.08.11,1.61c.77,10.77,6.08,18.91,11.72,27.52,3.45,5.28,7.02,10.74,9.49,16.9l.61,1.52-1.57-.48c-4.63-1.43-9.16-2.85-13.62-4.25-10.38-3.26-20.17-6.34-30.18-9.11-6.49-1.79-13.25-3.15-19.77-4.45-3.23-.65-6.45-1.29-9.66-1.99-.38-.08-.76-.16-1.15-.23-1.46-.28-2.97-.56-4.23-1.34-6.11-3.75-12.8-4.56-19.9-5.42l-1.06-.13c-19.25-2.35-38.8-4.95-57.71-7.47-12.01-1.6-24.02-3.2-36.04-4.75-5.23-.67-5.97-3.22-5.5-7.68,1.1-10.4,2.08-21,3.02-31.24,1.47-16.01,3-32.55,5.03-48.76,1.52-12.12,3.53-24.38,5.48-36.25,2.58-15.75,5.26-32.04,6.8-48.16,3.2-33.23,4.83-65.13,4.86-94.82.02-23.67-.65-47.74-1.31-71.01-.7-25.15-1.44-51.15-1.29-76.72.23-38.64-2.75-76.47-5.37-105.11-.58-6.28-1.9-12.63-3.18-18.76-.83-3.97-1.68-8.07-2.33-12.14-.3-1.88,1.45-4.68,3.01-5.49ZM175.22,805.61l.38,5.97c3.12,48.72.26,96.38-8.48,141.67l-.76,3.93-.78-3.93c-9.14-46.19-1.92-89.7,8.47-141.77l1.17-5.86ZM142.87,1088.53c-2.27-1.45-4.22-2.7-6.02-4.22-12.19-10.26-19.16-23.93-24.38-35.94-14.79-34.1-23.96-69.77-27.24-106.03-1.46-16.16-2.98-32.31-4.49-48.47-1.51-16.11-3.01-32.22-4.48-48.33-2.04-22.56,2.22-44.62,6.34-65.96,7.33-37.9,17.58-75.65,30.45-112.2,4.79-13.61,11.43-26.79,17.85-39.54l2-3.97c5.32-10.6,14.38-18.44,22.53-24.72l1.09-.84.17,1.36,13.12,106.09-1.18-.39c-.62-.2-1.09-.35-1.48-.47-.68-.2-1.12-.34-1.54-.56-4.28-2.25-7.97-1.97-11.26.89-3.07,2.67-3.9,6.33-2.56,11.19.86,3.12,1.82,6.26,2.76,9.3,1,3.25,2.03,6.61,2.94,9.96,5.9,21.86,6.74,45.6,2.65,74.71-.98,7-1.88,14-2.78,21.01-1.11,8.65-2.26,17.59-3.55,26.37-3.59,24.4-1.73,49.21.06,73.19l.59,7.87c.86,11.52,1.74,23.44,2.97,35.11.17,1.66,1.1,3.28,2.07,5,.6,1.05,1.22,2.14,1.67,3.27.56,1.38,1.27,3.44.98,5.25-.77,4.82-1.63,9.63-2.49,14.44-1.12,6.32-2.29,12.85-3.23,19.29-2.11,14.43-4.01,29.14-5.85,43.36l-1.08,8.3c-.46,3.6-.81,7.15-1.21,11.25-.19,1.95-.39,4-.61,6.2l-.13,1.3-1.09-.73c-1.27-.86-2.46-1.62-3.58-2.34ZM119.34,1441.81c1.11-11.45,2.26-23.29,3.25-34.94,1-11.69,1.85-23.58,2.66-35.09,1.38-19.42,2.81-39.5,5.01-59.17,2.79-24.82,6.76-49.93,10.61-74.2.9-5.74,1.81-11.47,2.71-17.2,2.03-13.02,4.44-26.2,6.78-38.94.89-4.86,1.78-9.72,2.66-14.59.3-1.69.73-3.31,1.18-5.04.2-.78.41-1.57.61-2.37l.18-.74.75.17c3.44.77,6.83,1.56,10.18,2.34,7.33,1.71,14.26,3.33,21.37,4.64,27,4.97,54.05,7.48,80.42,7.48h.49c4.15,0,8.47-1.8,12.63-3.53,1.78-.74,3.61-1.51,5.42-2.13,1.24-.43,2.45-1.05,3.85-1.79.74-.38,1.53-.8,2.43-1.23l2.01-.98-.96,2.02c-6.03,12.69-8.19,26.02-10.29,38.91-1.1,6.75-2.23,13.73-3.91,20.45-5.73,23.03-12.23,49.14-18.01,74.96-3.02,13.49-5.84,27.27-8.56,40.6-2.7,13.18-5.48,26.81-8.47,40.17-4.43,19.84-9.11,39.97-13.63,59.43-4.66,20.08-9.49,40.83-14.05,61.29-5.84,26.23-9.34,52.59-10.39,78.38-.56,13.74-2.67,27.63-4.71,41.06-.41,2.69-.82,5.38-1.22,8.06-5.11,34.64-12.04,65.51-21.18,94.37-2,6.29-4.23,12.62-6.4,18.73-2.17,6.14-4.41,12.49-6.41,18.8-3.24,10.24-6.27,20.73-9.19,30.89-1.08,3.74-2.16,7.48-3.24,11.22-.46,1.58-.83,3.19-1.14,4.49l-.53,2.23-.81-.28c-2.42-.83-4.8-1.68-7.16-2.52-5.82-2.08-11.32-4.04-17.02-5.64-4.72-1.33-5.95-3.85-6.57-8.04-6.22-41.81-7.02-84.32-7.28-120.88l-.11-14.92c-.27-37.28-.55-75.84-.57-113.75-.02-34.41,3.35-69.14,6.6-102.73ZM32.67,1889.77c7.3-12.96,16.59-23.04,27.59-29.97,9.26-5.83,19.12-11.01,28.66-16.03,2.17-1.14,4.33-2.28,6.49-3.42,5.11-2.71,9.94-5.27,11.38-11.07l.18-.73.74.15c15.2,3.1,29.56,6.03,43.51-2.59l.43-.26,6.69,4.36-.68.68c-1.8,1.81-3.73,3.62-5.6,5.36-4.11,3.84-8.36,7.81-11.73,12.32-13.97,18.7-29.63,31.64-47.88,39.55-3.18,1.38-6.33,2.81-9.48,4.26-4.84,2.21-9.83,4.49-14.86,6.51-6.14,2.47-12.49,3.71-18.94,3.71-3.76,0-7.55-.42-11.38-1.26-4.45-.97-6.71-1.75-7.51-3.52-.8-1.79.18-4.11,2.39-8.04Z"></path>
  <path class="cls-1" d="M707.64,216.74c1.62,4.4,5.43,5.05,8.31,4.89,3.48-.24,6.9-.96,9.5-1.57,13.94-3.24,28.04-4.87,42.15-4.87,8.9,0,17.81.65,26.68,1.94,30.06,4.38,52.26,17.12,67.85,38.92,3.11,4.35,6.27,8.66,9.42,12.98,7.95,10.87,16.16,22.11,23.47,33.67,5.65,8.94,10.12,18.82,14.44,28.36,1.08,2.38,2.15,4.75,3.24,7.11,2.37,5.12,4.6,10.39,6.76,15.49,2.84,6.69,5.77,13.62,9.02,20.23,2.14,4.36,5.82,8.63,9.83,11.44,4.13,2.88,8.93,3.49,13.19,1.67s7.38-6.03,8.16-11.17c.77-5.05.67-9.27-.3-12.55-.81-2.77-1.6-5.55-2.38-8.34-2.95-10.49-6-21.34-10.81-31.08-16.75-33.97-37.93-65.1-62.94-92.51-15.6-17.1-32.32-27.75-51.12-32.55-9.1-2.32-18.15-4.12-26.14-5.7-3.13-.62-6.04-1.19-8.62-1.74-33.03-2.5-57.65,1.43-79.66,12.66-2.14,1.09-4.63,2.43-6.82,4.13-3.34,2.59-4.39,5.4-3.21,8.58Z"></path>
  <path class="cls-1" d="M550.13,242.32c1.14.88,3.17.91,5.13.95.7.01,1.42.03,2.11.08.09-.69.2-1.39.32-2.08.33-1.91.67-3.88.04-5.21-3.08-6.52-6.64-12.97-10.08-19.2-1.12-2.03-2.25-4.07-3.36-6.12-2.11-3.88-4.29-7.73-6.48-11.58-4.71-8.31-9.58-16.9-13.67-25.71-7.16-15.42-7.61-29.33-1.38-42.52,2.92-6.19,3.8-13.54,4.65-20.64l.2-1.72c.41-3.29.18-8.97-5.9-10.11-5.33-.98-7.42,2.91-9.24,7.37-2.93,7.2-5.85,14.41-8.73,21.63-12.43,31.14-33.41,53.75-62.36,67.19-24.98,11.6-45.31,21.12-63.95,29.93l-1.51.71c-4.03,1.88-8.2,3.84-11.4,6.67-2.22,1.97-4.42,6.35-3.83,8.83.7,2.92,4.44,6.71,7.03,7.12,5.02.8,12.24,1.29,18.22-.83,12.83-4.57,25.66-9.86,38.06-14.97,4.59-1.89,9.19-3.79,13.79-5.65,1.06-.43,2.11-.97,3.13-1.49.48-.24.96-.49,1.44-.73l.61-.3,1.64,2.43-.59.45c-1.84,1.39-3.65,2.84-5.46,4.27-4.02,3.21-8.18,6.52-12.63,9.22-6.24,3.79-12.77,7.28-19.09,10.67-3.79,2.03-7.59,4.06-11.34,6.16l-.61.34c-3.18,1.75-5.34,3.18-4.07,5.75.77,1.55,3.42,2.55,5.75,3.43.61.23,1.21.46,1.77.68,1,.41,2.58.15,3.72-.23,2.11-.7,4.31-1.32,6.45-1.92,5.12-1.42,10.4-2.89,14.63-5.69,19.36-12.82,35.34-23.93,50.38-36.51,8.33-6.97,15.2-16.06,21.84-24.85,1.04-1.38,2.08-2.75,3.13-4.12,5.67-7.42,5-10.74-.27-18.31l-.33-.47,6.25-7.99.41,1.51c5.52,20.18,15.6,39.34,31.72,60.29,4.3,5.6,9.98,10.25,13.88,13.27Z"></path>
  <path class="cls-1" d="M521.25,64.52c-.64-.74-1.29-1.48-1.87-2.26-12.64-16.8-28.39-29.96-46.82-39.1-18.51-9.18-38.76-14.7-56.29-19.15-26.09-6.63-49.39-5.05-71.27,4.8-17.86,8.04-34.99,16.24-50.93,24.38-19.58,10-38.92,15.07-59.14,15.53-32.81.67-64.17-7.38-93.32-24.08-1.86-1.06-3.1-3.04-4.3-4.96-.53-.84-1.07-1.71-1.65-2.45l-.19-.26.13-1.09c-.41.23-.83.45-1.24.67-1.9,1.01-3.86,2.04-4.59,3.49-1.12,2.23-.9,6.64.41,7.99,4.59,4.75,10.14,10.07,16.4,13.46,46.29,25.03,94.61,28.6,143.6,10.6,14.18-5.21,28.2-11.65,41.76-17.87,5.71-2.62,11.61-5.33,17.45-7.91,13.68-6.05,26.51-9.02,39.09-9.02,1.32,0,2.64.03,3.95.1,20.33,1,39.46,6.74,57.96,12.28,34.59,10.37,57.87,29.98,71.17,59.95.6,1.34,1.26,2.24,1.92,2.61,2.48,1.4,3.69,1.46,4.22,1.29.9-.3,2.08-1.99,2.35-3.37.39-2.06.24-4.29-.39-5.98-1.71-4.59-3.65-9.19-5.53-13.64-.73-1.73-1.46-3.46-2.18-5.2l-.71-.82Z"></path>
  <path class="cls-1" d="M434.09,84.29c-.49-1.79-3.56-4.17-5.46-4.26-6.55-.3-11.89.19-16.28,1.49-30.1,8.91-52.29,18.06-71.96,29.67-23.9,14.11-47.35,28.29-69.7,42.14-17.87,11.08-35.85,17.66-54.94,20.11-18.18,2.36-36.63-1.36-51.45-4.33-2.84-.57-5.7-1.26-8.47-1.93-4.49-1.08-9.14-2.21-13.76-2.82-1.8-.2-5.55,1.9-6.04,3.48-.41,1.31.68,3.82,2.99,6.88.86,1.14,3.01,1.7,4.74,2.16,9.55,2.52,18.99,4.93,28.41,7.35l9.46,2.43c19.71,1.57,37.75-.13,55.2-5.21,15.53-4.52,29.99-12.07,43.97-19.37l3.87-2.02c23.61-12.3,41.96-21.28,59.5-29.12,11.42-5.11,23.23-9.85,34.65-14.43,9.73-3.91,19.8-7.95,29.57-12.2,8.38-3.64,16.26-8.89,23.22-13.53,1.58-1.05,2.98-4.7,2.48-6.49Z"></path>
  <path class="cls-1" d="M777.06,319.97c-12.61-17.8-25.43-31.62-39.2-42.28-3.03-2.34-6.52-4.24-9.88-6.08-1.51-.83-3.03-1.65-4.51-2.52-5.93.6-9.1,2.43-10.92,6.29-1.81,3.85-.99,7.43,2.5,10.96,1.17,1.18,2.57,2.23,3.92,3.24l.17.13c15.09,11.3,26.65,22.88,35.37,35.39,13,18.66,25.58,38.07,37.75,56.85l1.28,1.98c6.89,10.61,13.79,21.47,20.47,31.97,7.37,11.58,14.98,23.56,22.6,35.26,2.82,4.33,6.6,8.67,11.21,12.9,1.52,1.39,5.28,2.16,6.69,1.37,1.33-.75,2.23-3.92,2.43-6.67.16-2.23-.79-4.76-1.73-6.93-3.18-7.39-5.92-13.33-8.6-18.68-17.61-35.08-39.71-71.04-69.55-113.16Z"></path>
  <path class="cls-1" d="M873.96,385.36c1.28,1.32,4.63,2.09,6.51,1.47,1.11-.36,2.07-1.82,3.08-3.37.45-.69.92-1.41,1.44-2.1-.55-2.02-1.04-4.01-1.53-5.96-1.06-4.31-2.07-8.39-3.65-12.23-18.11-43.93-47.17-84.4-88.81-123.69-4.14-3.91-9.67-6.55-15.02-9.11l-.91-.44c-.93-.44-2-.73-3.07-.73-1.82,0-3.66.82-4.83,3.14-1.42,2.81-.58,5.09,2.92,7.85,1.21.96,2.45,1.9,3.69,2.83,2.64,1.99,5.37,4.05,7.79,6.38,19.63,18.89,36.13,40.32,49.03,63.67,2.52,4.56,5.04,9.13,7.55,13.69,8.1,14.7,16.46,29.9,24.94,44.7,2.53,4.42,5.99,8.83,10.87,13.88Z"></path>
  <path class="cls-1" d="M653.26,590.12c13.18.66,28.55-2.54,45.7-9.63.79-.33,1.54-.89,2.1-1.33,3.34-2.64,4.49-5.63,3.53-9.15-1.26-4.58-4.95-5.55-7.83-5.55-3.08,0-6.25.48-9.31.95l-.8.12c-3.16.48-6.31,1.01-9.45,1.54-5.33.9-10.85,1.83-16.31,2.47-16.12,1.85-25.81-3.32-33.53-17.94-.54-1.03-1.04-2.12-1.54-3.21-1.15-2.52-2.34-5.12-4.16-6.9-1.99-1.94-6-3.68-8.58-3.09-2.18.51-4.25,4.54-5.48,6.94-.75,1.44.08,4.31.34,5.26,6.79,23.66,21.62,36.59,45.32,39.52Z"></path>
  <path class="cls-1" d="M528.01,66.17c2.87.76,5.84,1.54,8.03,4.63.4.56.91.8,1.78.82,1.47-.04,3.14-1.15,4.16-2.77.23-.37.46-.74.69-1.13,1.16-1.91,2.36-3.89,4.17-4.96,7.57-4.47,15.39-8.79,22.95-12.98,2.68-1.48,5.37-2.97,8.05-4.47l1.04-.58.26,2.5c.32.18.65.39.98.6.64.41,1.54,1.02,1.98.91,4.03-1.18,7.9-8.25,7.14-11.66-.82-3.7-5.05-6.83-10.77-5.67-5.76,1.17-10.82,2.93-15.04,5.21-5.84,3.16-11.34,6.68-17.17,10.4-2.39,1.53-4.8,3.07-7.25,4.59l-1.36.84.67-6.5c1.19-11.73,0-21.91-3.62-31.11-1.44-3.65-4.24-7.48-7.9-10.77-1.19-1.06-5.28-1.01-6.74.08-1.35,1.01-2.28,4.73-1.62,6.53,3.31,9.17,3.39,18.69,3.46,27.9v1.25c.06,5.81.55,11.73,1.03,17.46.2,2.42.4,4.83.58,7.24,1.33.8,2.87,1.21,4.48,1.63Z"></path>
  <path class="cls-1" d="M335.47,436.79c-1.85,3.23.31,7.31,5.76,10.91,2.91,1.92,6.02,3.88,9.35,4.95,5.59,1.8,11.37,3.35,16.96,4.85,2.3.62,4.59,1.24,6.89,1.87,21.98,1.91,41.18-5.85,60.4-24.43,2.26-2.18,3.52-4.68,3.56-7.02.03-1.69-.59-3.23-1.77-4.45-3.69-3.78-7.66-2.27-11.38-.07-3.69,2.16-7.39,4.3-11.09,6.45-2.87,1.66-5.75,3.33-8.61,5-10.12,5.92-21.2,7.91-32.96,5.91-6.06-1.03-12.14-2.49-18.02-3.9-2.46-.59-4.93-1.18-7.4-1.75-.71-.16-1.43-.36-2.15-.56-3.83-1.07-7.14-1.99-9.53,2.23Z"></path>
  <path class="cls-1" d="M822.06,522.75c-2.53.82-5.05,1.69-7.57,2.56-4.42,1.53-9,3.11-13.58,4.38-13.3,3.72-24.79-.43-33.13-11.94-.43-.59-.83-1.22-1.24-1.85-1.06-1.64-2.15-3.33-3.59-4.22-2.64-1.65-6.1-2.98-7.87-2.27-1.9.77-4.03,4.36-4.07,6.86-.08,3.97,1.59,8.13,3.01,10.93,8.37,16.61,23.89,21.06,37.96,23.23,13.22,1.9,30.11-3.14,39.25-11.73,4.24-3.98,5.45-8.72,3.22-12.66-2.3-4.09-6.46-5.2-12.39-3.29Z"></path>
  <path class="cls-1" d="M597.08,434.68c-3.17-4.68-5.25-10.15-7.26-15.44-.35-.93-.7-1.86-1.06-2.77-1.72-4.44-3.7-7.21-8.1-7.21-.1,0-.2,0-.3,0-4.51.12-7.54,2.96-7.9,7.41-.33,4.12-.56,10.15,1.31,14.98,8.15,21.03,22.6,31.54,44.18,32.12h.06c.29.04.67.1,1.13.18,1.23.21,3.08.52,4.85.39l1.5-.11c7.27-.52,14.78-1.07,22.05-2.26,3.49-.57,5.69-3.33,5.6-7.02-.08-3.28-2.01-5.34-6.26-6.7-1.8-.58-3.88-.88-6.19-.91-5.02-.06-10.92-.08-16.76.21-11.55.51-20.74-3.89-26.84-12.88Z"></path>
  <path class="cls-1" d="M491.87,347.88c-1.11.37-2.21.74-3.32,1.11-2.96.99-6.03,2.02-9.09,2.88-11.73,3.31-14.27,1.62-20.93-7.68-1.7-2.38-5.72-4.45-8.09-4.12-2.41.3-5.77,3.27-6.79,5.99-1.07,2.85-.37,6.98.8,9.81,3.57,8.65,10.86,13.58,22.93,15.52.39,0,.77.01,1.16.01,11.36,0,21.62-3.46,30.52-10.3,2.13-1.64,5.29-5.12,2.63-10.07-1.97-3.63-5.14-4.66-9.82-3.15Z"></path>
  <path class="cls-1" d="M681.21,227.18h.08c2.09,0,4.17-1.35,5.74-3.72.83-1.25,1.8-2.42,2.73-3.55.55-.67,1.11-1.33,1.64-2.03,2.1-2.73,4.22-5.43,6.34-8.15,5.04-6.44,10.25-13.11,14.98-19.92,2.23-3.21,2.75-6.66,1.44-9.45-1.32-2.81-4.4-4.65-8.45-5.05-.38.16-.87.31-1.43.48-1.62.51-3.85,1.2-5.28,2.59-7.08,6.86-14.53,14.33-21.07,22.38-2.26,2.79-3.83,7.33-4.17,12.14-.26,3.63.84,8.02,2.8,11.21,1.19,1.94,2.84,3.02,4.64,3.06Z"></path>
  <path class="cls-1" d="M289.1,362.63c12.57.61,23.63-3.91,31.9-13.18,2.39-2.68,4.01-6.53,1.39-9.28-1.71-1.8-5.72-2.57-8.43-2.27-3.69.4-7.38,1.72-10.96,2.98-.79.28-1.58.56-2.37.83-7.54,2.58-13.93,2.6-20.12.04-4.36-1.81-7.56-1.16-9.78,1.97-2.3,3.25-1.97,6.71,1.01,10.58,3.62,4.68,8.64,7.1,17.35,8.33Z"></path>
  <path class="cls-1" d="M410.46,389.81c.78.59,1.97.65,4.13.24,6.81-1.31,12.44-8.33,13.38-16.7l.05-.48,1.2-.45c-.48-1.34-.91-2.72-1.34-4.09-1.11-3.51-2.26-7.14-4.15-10.18-2.35-3.79-6.53-5.54-10.49-5.54-2.09,0-4.11.48-5.77,1.41-3.55,1.99-4.54,4.47-3.39,8.59,2.17,7.82,4.17,15.48,4.9,23.18.2,2.09.68,3.41,1.48,4Z"></path>
  <path class="cls-1" d="M295.52,284.38c.29-.38.55-.73.79-1,.28-2.79-.42-5.08-1.99-6.48-1.07-.95-2.48-1.44-4.1-1.44-.69,0-1.43.09-2.2.27-7.27,1.73-14.99,4.19-23.58,7.52-3.18,1.23-6.47,3.64-8.78,6.42-1.38,1.67-2.03,5.3-1.22,6.82.82,1.52,4.56,3.1,6.17,2.56,9.47-3,19.49-6.64,31.5-11.48,1.39-.56,2.51-2.03,3.4-3.2Z"></path>
  <path class="cls-1" d="M523.3,294.91c2.02-1,3.38-3.14,3.65-5.72.74-7.17-9.21-18.01-17.74-19.32-1.23-.19-2.46-.28-3.67-.28-2.52,0-4.94.4-6.95,1.18-2.12.82-3.55,2.59-3.83,4.76-.29,2.23.67,4.38,2.57,5.75,6.92,5,13.39,9.31,19.76,13.16,2.03,1.25,4.3,1.41,6.21.47Z"></path>
  <path class="cls-1" d="M624.46,379.15c7.63,2.53,15.36,4.28,21.92,5.64,2.08.45,5.74.55,6.96-3.49,1.33-4.44-1.86-6.49-3.87-7.31-3.39-1.39-6.98-2.52-10.14-3.51-1.28-.4-2.52-.79-3.69-1.17-3.97.18-7.16-.22-9.8.65-2.06.67-4.73,2.72-4.93,4.15-.2,1.45,1.95,4.51,3.54,5.04Z"></path>
  <path class="cls-1" d="M668.05,519.54c.56-.15,1.13-.93,1.72-2.37,1.34-3.27,3.01-6.27,4.94-8.92,1.62-2.22,2.07-4.99,1.18-7.42-.85-2.34-2.8-4.05-5.35-4.67-2.3-.56-4.54-.18-6.42,1.14-2.79,1.94-4.65,5.74-5.22,10.69-.31,2.97,2.37,6.92,7.37,10.85.74.58,1.34.8,1.78.7Z"></path>
  <path class="cls-1" d="M725.22,1584.6c-.75-25.76-1.93-52.9-3.59-82.96-.43-7.71-.84-15.42-1.26-23.13-2.03-37.54-4.13-76.35-7.09-114.45-3.34-43.13-9.76-88.63-19.63-139.09-5.26-26.91-11.57-54.07-17.67-80.36l-3.24-13.96c-1.24-5.36-4.09-10.62-6.43-14.6-1.72-2.93-4.45-4.5-7.63-4.5-1.05,0-2.16.17-3.29.53-4.31,1.34-6.62,4.68-6.34,9.15.26,4.09,1.05,8.6,2.49,14.22,2.79,10.86,5.65,21.71,8.52,32.55,5.15,19.46,10.47,39.59,15.21,59.51,13.76,57.79,20.71,116.49,26.66,171.67,4.49,41.72,7.67,87.83,9.99,145.13,1.3,32,.41,64.61-.44,96.15l-.26,9.75c-.36,13.38-1.19,26.96-2,40.1-.91,14.95-1.87,30.4-2.11,45.61-.23,14.15,1.1,28.57,2.4,42.52.37,4,.74,8.01,1.08,12,.11,1.3,1.38,2.7,2.6,4.05.41.45.83.91,1.22,1.39.48-.45.99-.88,1.5-1.31,1.46-1.24,2.96-2.51,3.24-3.85,2.11-10.2,3.85-20.42,5.54-30.31.56-3.27,1.11-6.49,1.66-9.64.09-7.35.2-14.59.31-21.75.25-16.27.49-31.63.36-47.24-.27-33.28-.88-65.97-1.79-97.17Z"></path>
  <path class="cls-1" d="M871.15,1572.36c-1.31-38.79-6.4-77.9-11.33-115.71-.72-5.5-1.43-11-2.14-16.5l-1.41-11.01c-2.17-17.04-4.41-34.66-6.9-51.95-.7-4.91-2.32-9.45-4.54-12.78-1.18-1.78-4.59-3.31-7.09-3.31-.27,0-.53.02-.78.05-2.11.32-4.83,3.48-5.58,5.83-.95,2.99-1.15,6.75-.6,11.48.38,3.25.74,6.5,1.1,9.75,1.39,12.37,2.82,25.16,5.09,37.56,16.54,90.15,22.22,188.6,17.36,300.98l-1.15,26.2c-1.15,26.28-2.35,53.44-3.38,80.17-.2,5.08.22,10.46,1.25,15.99.86,4.6,4.04,7.4,8.73,7.69,4.27.23,7.46-1.83,9.41-6.22,1.06-2.37,1.77-4.8,2.06-7.04.66-5.13,1.18-10.38,1.68-15.45.2-2.04.41-4.08.62-6.13l.08-.72,1.22.03c.03-10.22.11-20.44.18-30.66.17-23.15.35-47.09-.04-70.61-.72-44.22-1.95-91.13-3.85-147.65Z"></path>
  <path class="cls-1" d="M950.93,1393.29c-2.1-11.97-4.27-24.34-6.87-36.4-1.1-5.1-2.56-10.23-3.98-15.19-1.86-6.53-3.78-13.27-4.91-20.06-5.93-35.39-11.28-71.18-16.18-104.58-9.14-62.25-20.65-123.61-34.24-182.37-2.93-12.65-5.29-25.65-7.58-38.21-1.38-7.58-2.81-15.42-4.34-23.1-1.1-5.53-4-8.6-8.04-8.6-.4,0-.8.03-1.22.09-4.59.65-7.24,4.75-6.9,10.68.33,5.84,1.1,11.59,2.28,17.07,6.79,31.72,13.63,63.43,20.47,95.14,7.2,33.39,14.4,66.78,21.55,100.18,2.66,12.44,5.25,25.12,7.74,37.37,3.46,17.03,7.04,34.63,10.9,51.86l.59,2.61c5.74,25.58,11.67,52.02,11.1,78.99-.28,13.2,1.85,26.98,6.89,44.68,1.25,4.4,3.43,8.72,6.13,12.17,1.56,2,2.89,2.93,3.93,2.76,1.05-.2,2.02-1.68,2.79-4.27.41-1.39.66-2.85.89-4.26.1-.61.2-1.21.32-1.79.02-.81.06-1.61.11-2.39.11-1.65.2-3.2-.05-4.65l-1.37-7.75Z"></path>
  <path class="cls-1" d="M593.51,999.94c.74-.18,1.7-.64,2.13-1.86,2.28-6.47,6.93-6.28,11.36-6.1,1.07.04,2.18.08,3.29.05l1.08-.03-.3,1.03c-.21.74-.41,1.37-.6,1.93-.32.98-.56,1.7-.6,2.39-.12,1.9-.26,3.8-.41,5.71-.43,5.69-.87,11.58-.71,17.33.12,4.72,2.99,7.91,7.64,8.54,4.16.55,7.87-2.45,9.26-7.48.76-2.75,1.07-5.72,1.36-8.59l.15-1.44c.36-3.38.67-6.76.98-10.14.38-4.13.76-8.25,1.22-12.36.55-4.96-1.52-10.77-6.45-11.76-13.23-2.68-24.67-.56-33.98,6.27-2.42,1.78-3.86,4.35-4.05,7.25-.18,2.77.84,5.42,2.79,7.28,1.67,1.6,4.01,2.39,5.84,1.96Z"></path>
  <path class="cls-1" d="M675.02,860.54c-8.86,1.01-18.89,2.17-28.61-2.14-1.95-.86-4.01-.58-5.51.76-1.6,1.43-2.17,3.7-1.49,5.93.73,2.36,2.37,5.25,4.41,6.4,4.59,2.58,9.43,4.7,13.31,6.4,1.26.55,2.43,1.07,3.43,1.53,10.08.34,16.1-1.5,20.91-6.42,3.13-3.2,3.84-6.27,2.16-9.38-1.73-3.2-4.56-3.57-8.61-3.08Z"></path>
  <path class="cls-1" d="M546.6,1047.67c-.43-3.24-.83-6.31,3.81-7.69.15-.05.64-.54,1.14-1.65.54-1.23.62-2.14.54-2.34-1.97-3.09-4.34-6.53-7.32-7.99-.83-.4-1.62-.58-2.38-.58-3.2,0-5.68,3.08-6.72,4.63-3.52,5.23-4.27,11.34-2.29,18.66,1.62,6.06,5.87,9.82,10.52,9,4.09-.68,10.29-8.18,11.08-12.99l-8.14,2.87-.24-1.94Z"></path>
  <path class="cls-1" d="M600.33,1037.36c1.37-2.88-.32-11.46-2.63-13.3-.33-.27-1.08-.52-1.44-.57-2.49,2.82-4.91,1.66-6.86.73-.91-.44-1.76-.84-2.58-.89-2.39-.12-6.78-.34-8.04,1.14-1.53,1.78-2.16,5.84-1.32,8.52,1.81,5.76,7.23,7.69,12.31,8.82,5.58.71,8.74-.65,10.57-4.45Z"></path>
  <path class="cls-1" d="M353.66,995.03c7.98,2.64,15.39,2.17,21.99-1.39,1.37-.74,2.52-1.93,3.73-3.18,1.04-1.08,2.13-2.21,3.39-3.06,6.13-4.12,9.81-10.65,10.1-17.93.3-7.29-2.87-14.13-8.68-18.75-2.73-2.17-5.73-3.3-8.62-3.3-1.34,0-2.67.24-3.93.73-3.91,1.53-6.58,5.22-7.34,10.14-.36,2.28-.56,4.56-.78,6.98-.1,1.12-.2,2.25-.32,3.41l-.06.59-.59.1c-.77.13-1.54.25-2.32.37-1.63.25-3.32.51-4.92.92-6.06,1.57-9.88,6.03-10.23,11.92-.34,5.82,2.94,10.59,8.58,12.45ZM364.9,980.72c.24-.4.52-.8.79-1.19.55-.79,1.08-1.53,1.22-2.28.3-1.69.36-3.49.41-5.23.02-.6.04-1.19.07-1.79l-2.47-1.36,6.12-2.9,1.28,19-7.86-3.48.44-.76Z"></path>
  <path class="cls-1" d="M339.99,969.45c.95-1.4,3.28-3.15,4.93-2.83,3.87.76,5.69-.32,6.35-3.66.44-2.21.16-4.22-.81-5.66-.81-1.2-2.03-1.97-3.64-2.28-1.12-.22-2.31-.32-3.5-.32-2.5,0-5,.47-6.92,1.36-16.24,7.55-24.24,24.05-21.39,44.13,1.21,8.51,4.72,12.13,13.32,13.58.04-.12.08-.23.11-.35.25-.76.49-1.49.39-2.07-2.37-14.01,1.17-27.32,11.14-41.9Z"></path>
  <path class="cls-1" d="M294.39,1097.32c-1.23-.72-1.59-2.33-2.3-5.55l-.11-.52c-.38-1.71-1.92-3.91-2.83-4.05-.18-.03-.37-.04-.56-.04-1.67,0-3.92.95-4.62,2.02-1.5,2.31-2.41,5.43-2.38,8.15.11,9.69,5.93,14.9,18.34,16.38h.05c5.71,1.08,12.03-.33,18.26-4.06,2.47-1.48,3.83-3.6,3.73-5.81-.1-2.24-1.66-4.27-4.29-5.55-5.72-2.79-11.38-3.39-16.83-1.77-3.57,1.06-5.2,1.54-6.46.8Z"></path>
  <path class="cls-1" d="M424.38,676.64c.08.15.13.26.15.37.61,1.57,1.29,3.13,1.95,4.64,1.65,3.78,3.21,7.35,3.79,11.2.89,5.86,4,8.87,10.42,10.07,4.55.84,10.56,1.85,16.55,2.14.29.01.58.02.86.02,6.54,0,11.47-3.77,13.29-10.22l.22-.79.77.26c5.65,1.83,10.03-.9,13.57-3.83l.45-.38c1.32-1.12,2.86-2.39,4.15-2.09,6.57,1.46,8.91-2.71,11.12-7.91,2.91-6.88,2.46-15.35-1.23-23.27-3.96-8.49-11.08-15.02-19.06-17.46-4.31-1.32-7.69-3.06-10.05-5.19-4.78-4.28-9.45-6.12-13.16-5.14-3.26.86-5.77,3.83-7.46,8.83l-.26.79-.77-.31c-6-2.4-12.07-1.97-18.07,1.31-2.13,1.16-3.52,2.63-3.92,4.13-.27,1.03-.08,2.1.58,3.18,2.17,3.54,1.09,6.29.05,8.95-.16.41-.33.84-.48,1.27-1.72,4.78-3.34,9.68-4.91,14.43-.59,1.78-1.17,3.56-1.76,5.33l.4.15,2.49-1.26.3.77ZM479.99,687.68c-1.03,1.24-2.19,1.85-3.47,1.85s-2.71-.63-4.24-1.9c-2.54-2.12-5.14-4.18-7.77-6.28-1.21-.97-2.43-1.94-3.66-2.93l-1.29-1.04,1.61-.34c.82-.18,1.65-.29,2.45-.4,1.59-.22,3.1-.42,4.21-1.1,5.64-3.45,9.12-1.24,12.62,3.12,3.21,3.97,1.53,6.63-.46,9.02ZM459.39,651.51c9.26-2.32,20.91,2.62,25.39,10.75l1.44,2.62-3.66-2.27c-6.24-3.91-12.14-7.59-19.8-3.19l-.76.44-3.5-8.13.9-.22ZM431.73,664.13c2.05-4.93,3.98-9.58,6.06-14.19.54-1.22,2.39-2.91,3.86-2.65,1.79.32,3.99,1.45,4.75,2.95,3.04,6.07,5.86,12.15,8.85,18.58,1.01,2.17,2.02,4.36,3.06,6.57l.62,1.33-1.45-.23c-2.26-.34-3.88-.12-4.93.73-1.68,1.34-1.87,4.21-2.08,7.25l-.12,1.69-1.01-.43c-5.59-2.35-11.04-5.43-13.04-12-.67-2.17-1.44-3.39-2.43-3.83-.82-.37-1.89-.23-3.25.41l-1.84.86,2.95-7.07Z"></path>
  <path class="cls-1" d="M458.46,773.15c-8.24-3.43-25.35,1.64-29.99,8.88l-.2.29c-.13.19-.38.54-.39.67.03.27.04.57.06.88.04.94.1,2.11.51,2.49.44.41,2.08.53,2.99.11,11.1-5.16,21.14-2.32,27.56,7.76,3.6,5.67,3.17,8.06-2.16,12.21-.45.35-.86.82-1.37,1.42-.07.08-.14.17-.22.25,4.31,1.31,8.15,1.17,11.08-.42,2.82-1.53,4.81-4.41,5.75-8.31,2.41-9.97-3.95-22.24-13.62-26.23Z"></path>
  <path class="cls-1" d="M271.06,881.57c-.41,0-.81.04-1.19.11-2.23.44-4.97,2.57-5.63,4.37-.51,1.38,1.78,4.64,2.75,6.03.72,1.03,1.8,1.84,3.16,2.86.68.52,1.41,1.07,2.18,1.71l1.09.91-1.35.44c-7.54,2.44-8.72,5.16-8.16,8.76.63,4.08,4.7,8.24,9.56,7.96,3.16-.19,6.63-1.38,9.03-3.09,5.55-3.94,7.57-11.52,4.8-18.03-2.57-6.03-10.9-12.03-16.27-12.03Z"></path>
  <path class="cls-1" d="M503.55,946.58c7.24,1.39,15.89-3.18,20.94-11.14,2.42-3.8,3.05-7.85,1.77-11.43-1.23-3.46-4.17-6.13-8.28-7.49-1.9-.63-4.84-.27-6.16.77-1.11.86-1.67,3.76-1.36,5.53.34,1.88,1.19,3.68,2.28,5.95.52,1.09,1.08,2.26,1.65,3.58l.53,1.23-1.33-.14c-.7-.08-1.32-.11-1.88-.15-1.09-.07-2.04-.13-2.93-.4-5.53-1.66-8.47-5.64-11.21-11.12-.94-1.87-3.76-4-5.21-4-.06,0-.12,0-.18.01-2.44.34-5.15,3.83-6.04,4.97-.54.69-.62,2.26-.25,4.66,1.18,7.59,10.59,17.79,17.67,19.16Z"></path>
  <path class="cls-1" d="M429.16,859.52c-9.49,2.05-15.89-.33-20.16-7.39l-.37-.62,2.71-1.95c4.72-3.41,7.2-7.85,6.8-12.18-.38-4.13-3.3-7.68-8.2-9.99-4.33-2.04-9.87-3.16-16.91-3.42-.09,0-.18,0-.27,0-2.24,0-4.54,1.01-6.97,2.07-.9.39-1.83.8-2.75,1.15l.72,2.32-1.46-.49c-4.71-1.61-7.99-.82-10.3,2.45-3.1,4.38-1.81,8.64-.18,11.44,6.4,11.07,15.05,15.44,26.5,13.39l.91-.17.02.92c.09,5.2,1.8,9.5,4.94,12.44,3.03,2.84,7.25,4.19,12.01,3.97,4.16-.21,7.73-1.81,10.04-4.52,2.13-2.49,3.13-5.73,2.92-9.43ZM405.73,839.55c-2.92,1.61-6.29,2.31-9.46,2.31-4.39,0-8.4-1.34-10.3-3.46-.48-.54-1.2-1.95-.67-2.75.44-.67,1.67-1.8,2.75-1.61,4.2.89,8.38,1.89,13.21,3.05l6.24,1.48-1.77.98Z"></path>
</svg>