<?xml version="1.0"?>
<svg fill="#EFEBDE" id="Layer_1" data-name="Layer 1" xmlns="http://www.w3.org/2000/svg" viewBox="0 0 1461.68 2000">
  <defs>
    
  </defs>
  <path class="cls-1" d="M1361.51,1355.2c-3.83-23.08-8.75-45.53-13.5-66.35-2.9-12.78-5.77-23.31-10.29-33.18-5.46-11.92-12.2-27.76-15.95-44.5-3.4-15.18-9.14-29.79-14.68-43.93-1.22-3.1-2.43-6.2-3.63-9.31-.53-1.37-1.16-2.71-1.79-4.06-2.27-4.82-4.83-10.29-2.27-16.81-.01-.28-.66-1.66-1.67-2.81-3.24-3.68-5.75-7.83-8.17-11.83-3.65-6.02-7.08-11.71-12.91-16.25-8.44-6.56-15.04-15.48-21.43-24.1-1.45-1.96-2.9-3.92-4.37-5.84-6.97-9.14-14.28-18.29-21.35-27.13-6.72-8.41-13.68-17.11-20.34-25.81-13.63-17.81-29.47-34.02-44.51-49.1-4.57-4.58-9.06-9.25-13.54-13.93-15.01-15.64-30.52-31.81-49.33-43.99-4.97-3.22-9.68-6.94-14.24-10.54-5.59-4.42-11.38-8.99-17.57-12.54-17.92-10.25-38.04-20.65-61.53-31.79-6.57-3.11-14.15-4.76-21.48-6.34-1.61-.35-3.21-.69-4.8-1.05-4.71-1.07-9.61-1.86-14.33-2.61-9.54-1.54-19.41-3.13-28.72-7.12-7.92-3.4-16.13-5.81-23.12-7.71-11.04-3.01-22.33-5.84-33.25-8.57l-13.26-3.34c-4.6-1.17-9.18-2.43-13.76-3.67-20.58-5.63-40.02-10.94-60.11-8.93-3.97-.17-7.53-.42-10.99-.65-7.2-.49-14.01-.96-20.68-.65-24,1.12-49.69,2.48-74.83,4.9-17.22,1.65-34.64,4.51-51.5,7.26l-5.75.94c-19.1,3.12-36.68,6.34-53.73,9.85-14.01,2.88-28.91,6.07-43.51,10.46-20.68,6.21-38.53,18.31-55.77,30.02-6.08,4.12-12.37,8.39-18.69,12.35-17.56,10.98-34.49,22.75-50.16,33.84-16.77,11.87-34.96,25.22-55.57,40.81-4.98,3.77-9.48,8.45-13.84,12.97l-1.34,1.39c-2.96,3.06-5.95,6.1-8.96,9.13-8.51,8.6-17.29,17.5-24.95,26.95-11.76,14.51-22.26,29.8-33.78,46.84-15.65,23.13-33.47,50.25-46.83,79.41-4.97,10.83-10.91,21.32-16.66,31.47-6.4,11.32-13.02,23.01-18.29,35.17-8.63,19.9-17.6,43.86-18.72,70.68-.09,2.09-.13,4.19-.17,6.29-.12,5.94-.24,12.07-1.39,18-5.36,27.93-8.4,58.38-9.57,95.83-.07,2.11-.2,4.24-.33,6.36-.26,4.05-.51,8.23-.26,12.27,1.48,23.26,3.31,46.88,5.07,69.73,1.52,19.71,7.1,38.9,12.68,56.87,2.61,8.38,5.34,16.72,8.08,25.06,2.92,8.91,5.84,17.81,8.6,26.76,8.35,27.05,16.59,48.34,25.95,67.01l7.16,14.33c5.92,11.86,11.84,23.73,17.88,35.53,1.46,2.85,2.84,5.76,4.24,8.66,3.84,8.04,7.81,16.35,13.25,23.26,4.34,5.52,8.46,11.24,12.44,16.79,2.06,2.86,4.11,5.71,6.2,8.55,1.66,2.25,3.22,4.58,4.78,6.92,5.68,8.51,11.05,16.55,20.9,20.79,1.99.85,3.1,2.85,4.17,4.78.44.78.87,1.57,1.36,2.23,1.97,2.66,3.82,5.44,5.67,8.21,3.94,5.92,8.03,12.03,13.18,16.68,22.32,20.16,47.34,41.71,76.5,65.88,18.12,15.01,39.75,24.64,62.17,33.98,6.29,2.61,12.64,5.09,18.99,7.57,8.16,3.19,16.59,6.48,24.77,10.03,7.44,3.24,14.89,6.76,22.08,10.17,10.76,5.09,21.89,10.36,33.14,14.72,11.89,4.61,24.5,8.12,36.7,11.52,4.39,1.22,8.78,2.45,13.15,3.72,22.8,6.65,45.75,9.33,65.2,11.07,5.8.52,11.61.93,17.43,1.33,8.7.61,17.69,1.24,26.51,2.26,34.62,3.96,69.46.8,106.51-9.67,10.63-3.01,20.82-3.15,31.21-3.1l2.47.02c13.33.14,27.1.24,40.16-4.85,15.82-6.18,33.08-11.98,52.76-17.75,3.11-.91,6.24-1.77,9.36-2.63,10.7-2.96,21.76-6.02,31.91-10.89,2.29-1.1,4.55-2.23,6.81-3.38,3.47-1.74,6.94-3.49,10.48-5.08,3.72-1.68,7.5-3.27,11.27-4.86,4.08-1.71,8.17-3.42,12.19-5.27,6.64-3.04,13.23-6.18,19.82-9.32,12.11-5.77,24.63-11.73,37.24-16.96,31.53-13.1,52.42-27.48,67.7-46.62,2-2.5,3.97-5,5.95-7.51,4.65-5.89,9.46-11.99,14.39-17.84,3.27-3.88,7.03-7.41,10.67-10.82l1.36-1.27c1.07-1.01,2.27-1.89,3.49-2.76,1.62-1.16,3.15-2.27,4.19-3.63,4.23-5.48,8.27-11.26,12.18-16.85l4.23-6.02c.73-1.03,1.43-2.09,2.13-3.14,1.03-1.55,2.07-3.1,3.18-4.58,3.36-4.48,6.76-8.93,10.15-13.39,6.07-7.98,12.36-16.23,18.34-24.46,7.51-10.34,14.9-21.03,22.06-31.37l6.29-9.07c.46-.66.96-1.32,1.47-1.98,1.37-1.79,2.79-3.63,3.04-5.34,1.27-8.76,5.17-16.43,8.95-23.84,1.23-2.42,2.46-4.83,3.6-7.29l2.5-5.36c6.16-13.2,12.52-26.84,18.13-40.5,3.52-8.57,6.73-17.45,9.84-26.03,2.49-6.89,5.06-14,7.79-20.95,10.29-26.22,17.43-52.43,21.24-77.9,3.62-24.19,5.4-51.34,5.46-83.01.04-18.26-3.07-36.9-6.08-54.93l-.49-2.94ZM1260.26,1142.71c2.93-.53,5.9-1.06,8.92-1.57l1.21-.21.62,1.06c.4.68.81,1.33,1.21,1.98.89,1.41,1.8,2.87,2.49,4.44,2.23,5.04,4.48,10.08,6.73,15.11,6.36,14.26,12.95,29,18.98,43.68,4.34,10.56,8.26,21.47,12.06,32.02,1.83,5.09,3.66,10.17,5.54,15.24,1.46,3.92,2.93,7.83,4.4,11.74,2.72,7.2,5.43,14.4,8.02,21.64.59,1.65.7,3.38.83,5.55.07,1.12.15,2.39.3,3.89l.3,2.92-2.73-1.08c-4.53-1.8-9.23-2.13-13.77-2.45-5.73-.4-11.65-.81-17.2-4.15-1.7-1.01-4.71-.87-7.37-.75l-5.71.25c-33.65,1.46-68.44,2.95-102.63,4.71-3.9.19-7.81.34-11.74.49-13.06.49-26.57.99-39.34,3.52-12.36,2.45-24.95,3.57-37.13,4.65-6.89.62-14.02,1.25-20.98,2.11-8.75,1.09-17.68,1.94-26.31,2.77-10.62,1.02-21.61,2.07-32.32,3.56-13.92,1.93-28.03,4.25-41.68,6.49-11.69,1.92-23.78,3.91-35.71,5.64-6.65.98-13.46,1.52-20.05,2.05-5.92.48-12.03.97-17.98,1.77-12.58,1.68-25.34,3.68-37.68,5.61-6.49,1.02-12.97,2.03-19.46,3.01-1.62.24-3.27.33-5.09.41-.89.04-1.82.08-2.81.15l-1.88.13-.67-100.66.95-.51c7.26-3.86,14.9-4.84,22.29-5.78l2.29-.3c9.66-1.28,19.33-2.42,29-3.56,13.57-1.59,27.61-3.24,41.33-5.3,17.24-2.58,34.71-5.65,51.59-8.62,8.89-1.57,17.78-3.13,26.68-4.63,5.86-.99,11.74-1.9,17.61-2.81,5.43-.84,10.87-1.68,16.29-2.59,5.93-.98,11.84-2.08,18.12-3.24l10.89-1.99.44,1.55c.43,1.55.91,3.08,1.4,4.62,1.07,3.37,2.17,6.86,2.69,10.43,3.14,21.52,10.19,42.75,21.56,64.92,1.37,2.68,3.13,5.14,4.98,7.76,1.04,1.46,2.08,2.93,3.05,4.43,2.11,3.26,4.92,3.99,9.08,2.36,2.11-.83,4.19-1.75,6.62-2.83l2.71-1.19c-.04-.46-.08-.92-.12-1.39-.18-2.13-.37-4.34-.97-6.37-.94-3.16-2.59-6.25-4.19-9.24-5.4-10.1-7.65-21.11-9.82-31.75-.53-2.59-1.05-5.18-1.63-7.76-2.35-10.56-4.65-21.14-6.86-31.73-.44-2.11-.68-4.28-.94-6.57-.12-1.14-.26-2.33-.42-3.61l-.19-1.43,11.29-3.86c7.91-2.7,15.72-5.37,23.51-8.1,7.33-2.56,14.67-5.15,21.99-7.74,13.75-4.85,27.5-9.69,41.28-14.43l1.33-.44c2.45-.78,4.06-1.29,5.12-3.6,1.4-3.05,7.1-3.81,7.74-3.89,5.12-.62,10.26-1.11,15.4-1.59,5.91-.57,11.81-1.13,17.69-1.89,6.22-.8,12.32-1.89,18.78-3.05ZM1189.25,1351.59c.1,1.54.21,3.07.26,4.6.1,3.49.44,7.12.78,10.63.72,7.66,1.46,15.57-.09,23.04-1.84,8.81-2.09,17.59-2.34,26.9-.22,7.8-.45,15.87-1.66,24.26l-.24,1.69-1.71-.19c-4.37-.47-8.66-1.01-12.89-1.53-9.4-1.17-18.28-2.28-27.29-2.69-12.08-.56-24.45-.38-36.41-.24-3.59.05-7.18.1-10.77.12l-6.04.05c-20.59.16-41.87.32-62.79.78-8.14.18-16.42.62-24.43,1.05-5.42.3-10.84.59-16.27.8-2.54.1-5.1-.07-7.57-.25-1.07-.07-2.13-.15-3.19-.19l-1.27-.06-.35-1.22c-4.67-16.05-1.1-71.67,6.07-94.46l.33-1.07,1.12-.16c4.03-.55,8.12-1.16,12.26-1.76,9.59-1.41,19.52-2.87,29.46-3.88,15.23-1.54,30.77-2.45,45.8-3.33l1.43-.09c5.35-.31,10.72-.46,16.09-.61,5.93-.17,12.06-.33,18.06-.73,5.87-.4,11.85-1.03,17.63-1.63,6.12-.64,12.45-1.3,18.72-1.7,11.09-.7,22.19-1.13,33.93-1.59,5.23-.2,10.58-.41,16.12-.65l3.65-.16-2.13,2.97c-5.16,7.2-4.71,14.05-4.22,21.31ZM1041.78,1580.83c.91,13,.95,13.49,10.92,23l3.02,2.88-4.17.18c-1.28.06-2.4.15-3.43.23-1.25.1-2.39.19-3.49.19-.71,0-1.41-.03-2.1-.14-9.28-1.34-18.56-2.73-27.82-4.12-13.03-1.95-26.06-3.91-39.11-5.72-11.24-1.57-22.51-2.56-33.08-3.44l-2.77-.23c-14.52-1.21-29.54-2.47-44.31-3.13-7.02-.32-14.18-.19-21.11-.04-3.92.08-7.84.15-11.76.15-3.24.06-6.11-.16-9.42-.35-1.47-.08-2.99-.17-4.58-.24l-1.76-.08.07-1.76c.74-18.24,1.43-35.28,3.92-52.38.3-2.1.63-4.21.96-6.34,1.54-9.83,3.13-20,2.16-29.63-.46-4.6.1-8.99.65-13.24.73-5.68,1.42-11.05-.15-16.93l-.53-1.96,2.01-.26c35.16-4.53,70.27-5.84,104.22-7.11,17.63-.66,35.88-1.34,53.74-2.47,20.61-1.3,37.52-1.05,53.22.78l2.19.26-.72,2.09c-1.61,4.65-3.2,9.2-4.75,13.66-3.79,10.86-7.38,21.13-10.76,31.53-1.34,4.12-2.2,8.54-3.03,12.8-.28,1.45-.56,2.89-.86,4.33l-1.43,6.74c-3.51,16.47-7.15,33.49-5.94,50.77ZM498.61,1664.24c.24-2.43.49-4.86.67-7.29.49-6.77,4.1-10.54,11.33-11.87,14.46-2.64,28.89-5.46,43.32-8.26,10.47-2.04,20.95-4.08,31.45-6.07l1.19-.22c19.33-3.64,39.32-7.4,59.08-10.58,14.98-2.41,31.22-4.6,51.11-6.89,5.57-.64,11.15-.78,17.06-.92,2.77-.07,5.61-.14,8.55-.26l1.83-.08.02,1.83c.3,25.36,1.26,52.46,9.1,80.56l.59,2.13-2.2.12c-61.26,3.31-122.06,11.86-180.86,20.12-15.66,2.2-31.32,4.41-47.05,6.52l-1.61.21-.36-1.59c-2.7-12.03-4.01-24.89-4.21-41.68-.06-5.3.47-10.63.98-15.8ZM417.7,1642.24l-.62-1.2c-18.63-35.34-28.05-73.9-38.02-114.73l-1.01-4.12,1.78-.38c8.12-1.74,16.22-3.51,24.32-5.27,46.25-10.09,94.08-20.52,142.07-24.16l1.54-.12,25.18,116.05-1.73.37-153.52,33.56ZM814.42,1338l.73,1.7-1.73.66c-.67.26-1.31.55-1.93.83-1.43.65-2.9,1.32-4.51,1.46-9.39.82-18.78,1.57-28.18,2.32-8.03.64-16.07,1.28-24.1,1.96-7.99.68-15.98,1.43-23.96,2.19-15.55,1.47-31.62,2.98-47.49,3.92-11.6.67-23.42.73-34.85.79-7.3.03-14.6.07-21.88.26-7.53.2-15.2.64-22.62,1.07-4.23.25-8.46.49-12.7.7-.15,0-.3,0-.46,0-.92,0-1.84-.13-2.72-.26-.47-.06-.96-.14-1.46-.19l-1.01-.11-.42-.92c-3.27-7.18-2.32-14.22-1.41-21.04.17-1.27.34-2.53.49-3.78,2.01-18.13,4.49-36.5,6.9-54.27l1.79-13.29c.41-3.03.99-5.95,1.66-9.33.32-1.59.65-3.26.98-5.05l.28-1.47,1.5.02c81.85,1.2,148.23-1.32,208.99-7.82l1.99-.21-.03,2c-.11,8.2-.61,16.44-1.1,24.41-1.55,25.46-3.02,49.51,7.25,73.43ZM948.54,1369.82c.14,6.25.28,12.71-.89,19.24-1.61,8.96-.8,18.62-.02,27.96.31,3.74.62,7.47.8,11.17.12,2.66.58,5.35,1.07,8.2.24,1.41.49,2.84.71,4.33l.28,1.91-1.93.12c-8.15.52-16.25.98-24.32,1.45-18.13,1.04-36.88,2.11-55.17,3.74l-1.85.16c-24.91,2.2-50.67,4.47-76.24,4.53-18.37.03-37.11.76-55.22,1.46-8.03.32-16.08.63-24.16.89l-1.91.06.08-1.92c.09-1.84.19-3.67.3-5.49.23-3.9.46-7.94.45-11.87-.01-3.75-.16-7.5-.3-11.26-.22-5.56-.44-11.31-.23-16.99.37-9.89,1.34-17.85,3.04-25.02,1.57-6.64,7.44-11.04,16.1-12.05,25.5-2.99,52.07-5.96,78.97-8.82,14.7-1.56,29.4-3.03,44.11-4.49,9.52-.95,19.03-1.9,28.54-2.88,7.03-.71,14.06-1.46,21.09-2.2,11.45-1.21,22.91-2.42,34.37-3.52,2.5-.24,4.96-.03,7.6.17,1.23.1,2.53.21,3.9.27l2,.1-.34,1.98c-1.1,6.38-.95,12.68-.81,18.79ZM699.66,1494.22c4.33,3.65,7.96,3.47,12.94-.56,3.35-2.72,3.63-5.63.93-9.75-.54-.82-.68-1.71-.86-2.85-.1-.58-.21-1.29-.4-2.18l-.4-1.84,1.86-.28c34.92-5.35,70-5.96,105.78-5.96h6.58l-.04,1.82-2.9,116-1.8-.07c-72.29-2.7-147.4,2.95-223.22,16.8l-1.62.3-.42-1.59c-4.69-17.97-7.47-36.34-10.17-54.12-2.86-18.78-5.8-38.21-10.99-57.05l-.51-1.85,1.88-.36c33.88-6.58,69.09-10.45,107.66-11.85l.8-.03.55.58c1.67,1.75,3.23,3.47,4.73,5.14,3.22,3.54,6.25,6.89,9.61,9.71ZM528.56,1742.13c18.45-3.59,37.4-5.65,55.73-7.65,8.1-.88,16.18-1.75,24.17-2.76l2.06-.26-.06,2.07c-.42,13.71,3.15,26.6,6.59,39.07l.49,1.74c2.47,8.96,5.32,17.77,8.32,27.1,1.36,4.2,2.74,8.48,4.12,12.89l.62,1.99-10.65,1.54c-6.02.86-11.74,1.68-17.43,2.61-7.49,1.22-15,2.36-22.51,3.49-18.61,2.81-37.85,5.73-56.42,9.93-11.43,2.58-22.4,6.94-34.02,11.56-5.36,2.13-10.81,4.29-16.46,6.34l-1.12.4-.8-.87c-6.47-7.08-10.75-16.05-14.88-24.73-2.44-5.12-4.96-10.42-7.93-15.33l-1.29-2.13c-7.42-12.22-15.09-24.86-14.5-40.99l.04-1.16,1.07-.43c.51-.2,1.05-.44,1.62-.69,1.45-.64,3.1-1.38,4.88-1.83,8.55-2.17,17.08-4.44,25.61-6.71,20.46-5.44,41.62-11.08,62.75-15.18ZM629.8,1729.91l-.89-2.1,2.26-.35c2.06-.32,4.08-.66,6.08-1,4.4-.75,8.55-1.46,12.84-1.84l23.91-2.16c29-2.63,58.97-5.34,88.52-7.29,9.27-.63,18.73.34,27.89,1.28,3.63.37,7.26.73,10.88,1.01,5.61.42,11.2,1.01,16.6,1.58,2.43.26,4.82.51,7.15.73l1.64.17-2.52,98.55-1.81-.08c-3.29-.15-6.64-.4-10.02-.64-7.63-.55-15.53-1.12-23.27-.65-6.58.38-13.12-.29-19.42-.94-4.62-.48-9.39-.98-14.09-1.03-5.87-.06-11.73-.03-17.57-.02-5.2.03-10.38.03-15.58,0-5-.03-10.02-.13-15.02-.23-6.33-.12-12.66-.24-18.99-.24h-.3c-7.89,0-15.78.18-23.91.35l-12.37.25-.35-1.37c-2.27-8.98-4.14-18.17-5.95-27.08-3.82-18.8-7.77-38.24-15.73-56.92ZM781.92,1694.87c-8.3-.49-16.62-.98-24.95-1.5l-1.05-.06-.44-.96c-2.42-5.16-4.32-59.18-2.86-81.4l.1-1.58,1.59-.08c32.55-1.46,65.78-.08,97.92,1.27,25.54,1.07,51.95,2.19,78.49,1.9l2.61-.03-.93,2.43c-11.55,30.2-14.1,58.7-8.02,89.67l.46,2.34-2.37-.23c-8.81-.86-17.53-1.74-26.19-2.62-19.63-1.99-38.17-3.87-57.14-5.39-19.02-1.52-38.43-2.66-57.21-3.76ZM852.25,1728.62l.06-1.09,1.01-.44c10.5-4.59,20.3-3.46,29.74-2.39l.62.08c43.49,4.96,79.19,11.34,112.34,20.05,3.43.91,6.91,1.64,10.74,2.44,1.91.4,3.9.82,6.01,1.29l1.92.42-.62,1.86c-1.5,4.53-3.02,9.02-4.52,13.48-3.48,10.3-6.77,20.03-9.81,30.05-3.05,10.06-5.85,20.46-8.56,30.5-1.23,4.55-2.46,9.13-3.73,13.72l-.4,1.45-1.5-.15c-49.24-5.13-92.06-11.62-134.74-20.45l-1.39-.29-.02-1.42c-.4-28.96,1.05-57.49,2.85-89.11ZM960.17,1714.06c-12.62-2.87-15.7-5.06-14.63-18.55.85-10.73,1.93-21.61,2.97-32.14.59-5.93,1.18-11.86,1.73-17.8.12-1.25.17-2.52.21-3.8.2-5.22.43-11.14,5.5-16.13l.66-.64,7.51,1.36,4.89-8.99,1.29.26c16.99,3.42,34.44,6.15,51.32,8.78,35,5.46,71.19,11.11,105.91,23.37l1.9.67-.9,1.8c-13.25,26.35-27.51,58.21-32.94,94.76l-.3,2-1.94-.55c-6.36-1.81-12.54-3.6-18.59-5.37-13.28-3.87-25.83-7.52-38.55-10.77-22.87-5.86-47.04-11.65-76.04-18.24ZM1130.69,979.76l.94-1.35,1.42.85c21.5,12.79,103.48,113.4,113.77,130.79l1.23,2.08-44.91,10.52-.49-1.57c-4.01-12.76-12.4-21.79-22.95-32.27-10.6-10.53-19.69-22.74-28.48-34.55l-4.96-6.63c-4.07-5.41-7.74-11.22-11.28-16.82-2.42-3.82-4.83-7.65-7.39-11.37-2.89-4.21-5.73-7.47-8.69-9.96-5.05-4.26-8.71-5.12-12.68-2.97-3.35,1.82-6.97,9.45-5.55,13.41.89,2.5,1.77,5,2.63,7.51,3.54,10.15,7.18,20.65,12.35,30.08,10.64,19.42,26.2,35.16,38.57,46.71,3.01,2.81,6.63,5.2,10.14,7.51,1.77,1.17,3.54,2.34,5.25,3.56,3.05,2.18,6.08,4.39,9.34,6.77l6.68,4.85-1.58,1.47c-.82.76-1.48,1.48-2.08,2.12-1.23,1.32-2.3,2.47-3.78,3.04l-15.75,6.15c-23.23,9.09-47.25,18.48-71.07,27.23-17.61,6.48-35.41,11.92-52.02,16.82-4.32,1.28-8.84,1.83-13.23,2.36-2.71.33-5.43.65-8.1,1.16-8.28,1.54-16.55,3.14-24.82,4.74-12.93,2.51-26.31,5.1-39.52,7.4-9.52,1.66-19.26,2.87-28.68,4.04-3.56.44-7.13.88-10.69,1.35l-11.85,1.55c-24.41,3.2-48.83,6.4-73.26,9.48-7.06.89-14.47,1.5-22.65,1.88l-20.58.96c-23.89,1.14-48.58,2.32-72.9,2.93-14.5.37-29.24.21-43.46.08-9.5-.1-19.01-.19-28.49-.14-25.81.12-53.15.42-86.05.93-1.56.03-3.11.03-4.66.03-14.81,0-28.99-1.12-42.23-3.36l-1.63-.27.16-1.65c2.91-29.44,11.67-57,20.12-83.65,4.99-15.72,10.15-31.97,13.88-48.06l.33-1.44,1.48.07c4.71.22,9.32.49,13.85.74,10.33.58,20.07,1.14,29.9,1.14,7.26,0,14.67-.53,21.84-1.03,5.2-.37,10.4-.73,15.61-.92,3.91-.12,7.85.09,11.67.3,2.58.15,5.16.29,7.74.33,6.43.09,12.84.15,19.27.19,9.01.07,18.02.14,27.02.33,3.38.07,6.72.48,10.26.91,1.68.21,3.42.42,5.24.6l1.93.2-.37,1.91c-.49,2.55-1.01,4.98-1.51,7.35-1.03,4.81-1.99,9.36-2.54,13.88l-.84,6.87c-1.92,15.75-3.92,32.04-4.91,48.1-.39,6.11.74,12.53,1.84,18.74.35,1.95.69,3.9.99,5.84q1.2,7.72,9.78,8.34c1.27.1,2.43.14,3.71.19l1.14.05c3.43-4.17,3.02-9.5,2.62-14.67l-.08-1.07c-1.66-22.65,2.62-45.52,6.07-63.9.48-2.55,1.01-5.09,1.55-7.63.54-2.59,1.09-5.18,1.57-7.78,2.88-15.55,4.01-16.37,19.86-14.95l.92.08c9.17.83,18.65,1.69,27.97,2.18,27.28,1.43,56.51-1.97,91.97-10.7,9.04-2.23,18.17-4.79,27-7.27,5.13-1.44,10.25-2.88,15.39-4.27,1.12-.3,2.22-.26,3.47-.22.58.03,1.23.03,1.92.03l1.43-.02.32,1.39c.58,2.52,1.2,5.02,1.82,7.51,1.36,5.5,2.77,11.18,3.72,16.86,2.32,13.9,9.8,24.88,16.81,33.8,6.35,8.07,12.84,16.03,19.33,23.99,4.67,5.73,9.34,11.44,13.95,17.21,2.23,2.77,4.42,3.66,7.57,3.04,1.75-.35,3.86-.26,5.78.24,2.1.55,4.67,1.1,5.64.45.66-.43,1.13-1.71,1.48-4,1.37-8.96.08-15.62-4.21-21.59-9.06-12.59-18.63-26.21-27.25-40.43-4.41-7.28-7.7-15.28-10.88-23.01l-2.01-4.85c-1.51-3.6-2.6-7.32-3.75-11.26-.52-1.79-1.05-3.63-1.65-5.52l-.53-1.68,1.67-.55c3.11-1.01,6.22-2.04,9.33-3.06,6.67-2.2,13.34-4.42,20.07-6.44,9.24-2.78,18.51-5.5,27.77-8.21,14.49-4.25,29.47-8.64,44.11-13.23,8.53-2.68,16.92-6.38,25.04-9.97l2.57-1.13c3.29-1.46,5.75-3.33,6.11-4.67,1.85-6.81,6.92-8.5,11.83-10.13l1.05-.35c5.03-1.7,10.02-3.45,15.03-5.21,4.43-1.55,8.86-3.11,13.3-4.62l.95-.32c4.44-1.48,6.74-2.44,6.52-6.72-.1-1.89,1.34-3.45,2.49-4.69.35-.38.69-.73.91-1.05ZM566.36,1247.49l-.19,1.95c-.55,5.55-1.14,11.03-1.71,16.46-1.32,12.37-2.56,24.04-3.35,35.95-.79,11.87-1.1,23.64-1.43,36.1-.15,5.57-.3,11.22-.49,16.99l-.06,1.66-210.09,6.39.48-2.22c.7-3.25,1.3-6.34,1.89-9.3,1.22-6.25,2.38-12.14,4.14-17.81,2.76-8.89,5.88-17.83,8.9-26.47,2.23-6.36,4.45-12.73,6.56-19.12,3.3-10.04,6.47-20.12,9.66-30.19,2.18-6.92,4.36-13.86,6.59-20.77.52-1.63,1.28-3.17,2.08-4.81.4-.8.81-1.65,1.23-2.58l.58-1.25,1.35.24c62.98,11.28,116.32,18.78,171.93,18.78h1.96ZM955.98,870.66c21.59,2.59,38.44,7.67,53.03,15.95,6.59,3.75,13.57,7.15,20.32,10.43,4.96,2.42,9.93,4.84,14.81,7.42,5.01,2.65,10.08,5.88,15.49,9.91l8.26,6.09c11.1,8.17,22.58,16.62,33.29,25.63,7.95,6.7,17.3,15.02,26.39,25.93l2.04,2.45-3.15.44c-28.99,4.06-55.29,11.19-85.87,20.64l-4.33,1.33,2.27-3.92c4.77-8.26,1.32-12.67-4.95-18.97-13.85-13.93-27.7-28.31-41.09-42.21-5.49-5.7-10.98-11.4-16.48-17.08l-1.29-1.36c-1.27-1.35-2.47-2.63-3.82-3.67-7.61-5.87-10.65-12.75-9.88-22.29.22-2.72-1.89-6.05-3.92-9.27-1.03-1.61-2.08-3.27-2.9-4.94l-1.45-2.94,3.26.4ZM883.3,851.61c15.26.71,28.72,5.64,42.98,10.85,5.42,1.99,11.03,4.04,16.78,5.86l5.46,1.73-36.36,11.06-33.92-29.72,5.07.23ZM847.61,840.17l-.42,1.79c-1.91,8.03-2.01,14.56,3.65,20.18,10.19,1.72,17.75,7.31,25.07,12.71,4.5,3.33,8.75,6.47,13.58,8.78l1.05.51-.21,4.71-20.79,6.95-.77-1.05c-1.01-1.39-1.93-2.7-2.79-3.93-1.73-2.47-3.22-4.6-4.92-6.52-3.43-3.85-6.93-7.65-10.43-11.44-5.5-5.95-11.17-12.12-16.5-18.42-2.29-2.7-3.88-5.93-5.72-9.66-.91-1.87-1.91-3.9-3.12-6.11l-1.82-3.33,24.14,4.82ZM857.12,901.48l-38.69,15.1-17.36-49.09,13.35-8.54,42.7,42.53ZM712.54,834.93c5-3.48,10.29-3.3,14.97-3.16,2.27.08,4.42.15,6.46-.17,6.25-.96,13.11-1.48,21.6-1.62,5.27-.1,10.54.19,15.67.46,1.95.1,3.9.2,5.85.28,4.84.21,9.68.44,15.07.69l13,.61-4.15,2.97c-7.63,5.47-26.33,8.05-45.55,8.05-15.71,0-31.76-1.72-42.42-4.98l-3.49-1.07,2.99-2.09ZM798.02,922.02l-2.15.37c-13.22,2.3-25.97,2.88-38.71,2.88-4.73,0-9.47-.08-14.23-.18l-1.98-.04,6.56-49.75,31.14-1.89,19.36,48.6ZM705.19,866.89l17.6,4.99-.03,1.37c-.09,4.9.01,9.82.12,14.56.24,11.11.5,22.6-1.82,34.42l-.3,1.54-1.57-.11c-8.25-.58-16.47-.54-24.43-.5-12.8.06-26.04.11-39.53-2.41l-3.31-.62,53.26-53.25ZM657.25,858.74l.98,1.48-.67-1.68c6.09-4.01,12.39-8.13,20.77-5.59,1.51.46,2.72,1.38,4.11,2.44.63.48,1.3.99,2.08,1.51l1.86,1.25-10.72,9.99c-6.25,5.8-12.31,11.44-18.32,17.14l-2.24,2.11c-7.31,6.92-14.88,14.09-22,21.38-3.81,3.91-7.48,5.79-11.55,5.8-2.07,0-4.25-.5-6.6-1.46-5.35-2.2-11.05-3.99-16.56-5.73-2.47-.77-4.95-1.55-7.42-2.37l-3.51-1.16,21.65-13.93c16.59-10.66,32.27-20.73,48.15-31.19ZM526.97,880.42c9.95-8.49,20.39-11.5,30.5-14.41l.39-.11c15.62-4.49,31.67-8.48,47.19-12.33,5.66-1.41,11.31-2.81,16.95-4.24.96-.24,1.89-.12,2.71-.03.3.03.6.07.9.08l5.2.24-68.34,47.87-37.74-15.17,2.23-1.91ZM248.95,1155.83c.86-1.86,1.71-3.67,2.54-5.43,1.73-3.65,3.36-7.11,4.8-10.63,8.93-21.79,21.24-41.35,36.97-64.02l5.03-7.27c8.39-12.17,17.06-24.75,26.53-36.44,7.31-9.03,15.51-17.56,23.43-25.81,3.45-3.6,6.9-7.2,10.3-10.83,1.12-1.21,2.22-2.45,3.31-3.69,2.62-2.97,5.33-6.04,8.46-8.64,7.81-6.48,17.13-14.02,27-20.87,26.74-18.55,50.36-34.58,72.21-49.02,7.15-4.72,14.72-8.96,22.05-13.05,3.31-1.86,6.62-3.71,9.87-5.59l1.03-.6.94.72c31.57,24.12,68.98,34.09,105.15,43.73,8.2,2.19,16.41,4.37,24.58,6.72l1.34.39-.06,1.4c-.15,3.06-.21,6.17-.28,9.3-.16,7.27-.33,14.79-1.42,22.17-.92,6.23-2.62,12.4-4.26,18.37-1.14,4.15-2.33,8.45-3.23,12.7-.6,2.85-1.01,5.82-1.41,8.7-.98,7.05-1.98,14.32-5.84,21.04l2.7,2.24c4.89,3.96,8.01,6.67,9.88,6.26,1.66-.29,3.69-3.51,6.61-8.37,4.04-6.73,6.39-14.9,8.16-22.01,3.89-15.71,7.42-31.27,11.15-47.74,1.45-6.4,2.92-12.87,4.42-19.44l.32-1.38,135.02-.15,4.41,20.98c3.54,16.83,7.05,33.59,10.7,50.32,1.52,6.95,3.24,12.77,5.28,17.79,1.34,3.29,2.59,5.03,4.06,5.61,1.62.65,4.09.14,8.21-1.71,1.83-.82,3.71-1.38,5.7-1.96.47-.14.96-.28,1.44-.42-1.36-35.68-4.21-65.72-13.45-95.83l-.5-1.62,1.6-.57c11.59-4.13,23.09-8.65,34.21-13.02,24.45-9.61,49.74-19.56,76.3-25.31l1.21-.26.67,1.05c21.29,33.93,51.38,59.45,83.25,86.47l11.03,9.37-18.65,6.61c-11.93,4.24-23.41,8.31-34.91,12.31-7.52,2.62-15.53,5.25-24.5,8.04l-9.18,2.88c-17.76,5.55-36.12,11.3-54.26,16.71-5.03,1.5-10.04,3.1-15.04,4.69-10.75,3.42-21.88,6.97-33.22,9.52-23.92,5.37-46.67,7.17-69.67,5.47-8.44-.62-16.89-1.32-25.33-2.01-20.5-1.7-41.71-3.45-62.57-4.01-15.26-.42-30.84.09-45.91.57-12.73.41-25.9.82-38.87.71-35.92-.35-74.15-2.79-110.33-18.13-3.68-1.56-7.42-2.99-11.5-4.57-2.02-.78-4.12-1.59-6.36-2.47l-2.07-.81,1.25-1.84c3.71-5.45,7.33-10.84,10.9-16.17,8.33-12.41,16.21-24.15,24.64-35.8,7.49-10.35,15.57-20.52,23.38-30.36,3.42-4.31,6.85-8.62,10.23-12.96,4.1-5.25,3.77-7.12,1.38-9.55-2.04-2.09-4.7-3.49-7.28-3.86-1.8-.26-4.42-.14-6.54,1.93-3.26,3.21-6.85,6.18-10.31,9.04-7.47,6.18-14.53,12.03-19.14,20.41-1.26,2.31-3.19,4.14-5.05,5.91-1.52,1.45-2.96,2.82-3.99,4.37-8.15,12.25-18.81,28.43-28.99,45.03-1.67,2.73-2.65,5.89-3.78,9.56-.55,1.81-1.14,3.7-1.84,5.65l-.46,1.26-1.34-.1c-10.49-.72-18.53-4.12-24.55-10.39-6.65-6.92-12.96-10.87-20.46-12.79-2.94-.76-5.79-1.88-8.53-2.96-3.22-1.26-6.25-2.45-9.43-3.12-3.56-.76-6.9-.18-9.33,1.61-2.03,1.5-3.29,3.77-3.54,6.4-.49,5.16,2.03,8.74,6.91,9.8,5.34,1.16,8.3,3.26,10.9,7.75,1.69,2.95,5.57,5.27,9,7.32l.91.55c17.65,10.62,37.58,19.91,62.7,29.22,11.17,4.14,22.35,8.26,33.72,12.45l17.28,6.38-.1,1.33c-.48,6.54-2.59,12.66-4.62,18.59-.65,1.89-1.3,3.78-1.9,5.68-1.62,5.16-3.31,10.29-5,15.44-4.34,13.22-8.83,26.89-12.08,40.56-2.75,11.6-3.72,23.88-4.64,35.76-.19,2.45-.38,4.89-.59,7.34-.15,1.71.79,3.74,1.86,6.09.37.8.74,1.61,1.1,2.46h.17s1.06,2.03,1.06,2.03l-.51.73v9.66l-1.98-5.52-1.44,3.13-.08-5.54h-1.45c-2.42,0-4.92,0-7.4-.24-37.12-3.47-73.86-11.74-109.4-19.74-12.55-2.82-25.52-5.74-38.3-8.4-1.76-.37-3.35-1.09-5.05-1.85-.78-.35-1.59-.72-2.45-1.06l-1.85-.74.95-1.75c4.21-7.81,8.1-15.85,11.87-23.63,6.16-12.73,12.52-25.89,20.37-38.1,5.73-8.91,10.61-18.61,15.33-27.98,1.99-3.94,3.97-7.87,6.02-11.76,1.06-2.01,2.14-4.01,3.22-6.02,3.33-6.18,6.77-12.56,9.52-19.06,1.73-4.07,2.41-8.78,3.07-13.32l.38-2.55c.33-2.11.24-5.88-4.03-7.29-4.12-1.37-6.85-.33-8.56,3.24-.64,1.34-1.5,2.52-2.32,3.67-.61.82-1.21,1.66-1.71,2.54-3.92,7.04-7.87,14.06-11.8,21.09-10.92,19.48-22.22,39.64-32.93,59.65-6.95,13-12.54,26.67-16.64,37.13-2.42,6.22-4.93,12.65-11.71,17.56l-.72.52-.85-.26c-.88-.28-1.76-.52-2.65-.77-5.14-1.43-10.97-3.05-14.58-9.84-2.31-4.34-6.79-6.88-12.28-6.97-4.77-.08-9.5-.98-14.52-1.94-2.27-.44-4.63-.89-7.11-1.28l-2.3-.37.97-2.12ZM206.03,1337.08l2.66-.73c3.73-1.03,7.58-2.1,11.48-2.82,4.83-.89,5.27-2.97,5.06-4.88-.52-4.6-4.73-5.29-6.52-5.37-3.63-.17-7.27-.05-11.13.05-1.67.05-3.37.1-5.11.12l-1.89.03.08-1.89c.12-2.72.23-5.42.33-8.09.23-6.22.45-12.09.95-18.07,1.12-13.55,2.36-25.47,3.77-36.45.91-7.04,2.34-13.68,4.25-19.73,1.01-3.2,3.64-7.29,7.05-8.75,3.75-1.59,5.21-4.05,4.87-8.23-.83-10.33,3.11-19.1,6.93-27.59,2.17-4.82,4.42-9.82,5.73-15.03l.58-2.3,2.04,1.21c32.05,19.02,67.22,29.02,98.25,37.85,4.97,1.41,10.24,2.3,15.34,3.16,3.26.55,6.52,1.1,9.73,1.79,1.99.42,3.87,1.19,5.86,2.01.94.39,1.93.79,3,1.19l1.62.6-.55,1.63c-.87,2.59-1.76,5.12-2.63,7.63-1.96,5.64-3.81,10.97-5.5,16.43-1.89,6.13-3.81,12.24-5.73,18.36-5.82,18.58-11.84,37.78-16.88,56.87-1.91,7.23-2.33,14.97-2.77,23.15-.21,3.96-.44,8.04-.83,12.26l-.15,1.64-1.64-.03c-44.02-.69-91.04-2.72-136.71-12.89l-1.36-.3-.03-1.39c-.18-8.75,5.6-10.31,9.82-11.44ZM332.08,1790.27l-.93-1.23-53.03-69.45,1.87-.97c1.17-.61,2.22-1.18,3.18-1.71,1.98-1.07,3.69-2.01,5.51-2.74,1.66-.66,3.35-1.07,5.33-1.55.58-.14,1.2-.29,1.85-.45l3.05-22.38-28.69,10.02-.71-1.33c-1.48-2.74-2.92-5.34-4.3-7.87-2.97-5.38-5.77-10.46-8.3-15.64l-1.92-3.94c-7.24-14.84-14.74-30.19-21.5-45.55-3.69-8.38-6.92-17.59-10.47-29.85-4.21-14.5-8.08-29.33-11.83-43.68l-2.07-7.92c-1.32-5.05-2.72-10.09-4.11-15.12-3.61-13.01-7.34-26.47-9.7-39.95-1.96-11.17-2.46-22.72-2.94-33.89-.21-4.76-.41-9.52-.72-14.25-.14-2-.19-4-.24-6-.06-2.18-.11-4.37-.28-6.54-1.37-17.98-.09-36.13,1.34-51.51.11-1.21.4-2.41.73-3.72.15-.58.3-1.19.44-1.83l.37-1.67,56.24,10.23,1.04,9.57c.59,5.34,1.14,10.4,1.66,15.46.53,5.27,1.01,10.56,1.48,15.84.96,10.79,1.96,21.94,3.49,32.81,2.6,18.54,5.95,36.63,9.75,56.65.6,3.15,1.92,6.31,3.31,9.66.71,1.7,1.45,3.47,2.14,5.33l.64,1.73-7.93,2.57c-4.09,1.32-7.9,2.55-11.69,3.83-9.75,3.27-16.77,7.35-22.11,12.84-5.74,5.9-8.35,10.77-8.21,15.35.13,4.6,3.04,9.42,9.16,15.14,4.76-.36,6.57-4.6,8.14-9.3l.17-.51c3.8-11.28,12.48-14.49,21.81-17.01,12.75-3.46,25.47-6.98,38.18-10.55,1.25-.35,2.51-.92,3.73-1.47.14-.06.27-.12.4-.18-3.37-15.42-5.5-16.74-13.66-16.28l-1.62.08-.22-1.61c-.5-3.55-1.03-7.1-1.56-10.66-1.19-7.92-2.41-16.1-3.28-24.23-.74-6.92-1.3-13.86-1.86-20.79-.8-9.92-1.63-20.17-3.02-30.16-1.42-10.27-3.65-20.66-5.81-30.7-.96-4.46-1.93-8.93-2.82-13.41-.21-1.08-.45-2.16-.8-3.7l-1.12-5.13,2.34.15c47.5,2.97,95.24,1.64,141.43.35,13.08-.37,26.17-.73,39.27-1.01l1.62-.03.18,1.61c.4,3.43.8,6.77,1.2,10.04.87,7.22,1.71,14.03,2.26,20.93.6,7.56,1.05,15.12,1.49,22.67.4,6.74.79,13.47,1.3,20.19.35,4.67.78,7.39,2.02,8.42,1.28,1.06,4.3,1.01,9.71.42,5.06-9.89,4.89-20.53,4.72-31.78l-.06-4.01c-.05-5.93-.12-11.87-.19-17.79-.08-6.29-.16-12.57-.21-18.86-.01-2.07.1-4.12.25-6.56.07-1.23.15-2.56.21-4.05l.08-1.65,213.07-5.75-7.1,82.96-1.42.19c-2.22.29-4.57.7-6.99,1.13-5.6.98-11.98,2.11-18.19,1.93-14.79-.37-29.47,1.64-43.72,3.63-8.62,1.21-17.53,2.45-26.38,3.14-3.18.26-6.38.54-9.54.96-4.43.56-9.12.33-13.54-5.26-3.22-4.07-7.35-6.11-11.19-5.62-3.9.5-7.34,3.5-9.43,8.24-2.35,5.32-5.58,6.68-10.04,7.17-3.48.37-6.97.72-10.46,1.07-10.22,1.02-20.79,2.07-30.98,3.96-28.41,5.3-56.84,11.31-85.9,17.5-22.1,4.72-44.53,9.73-66.22,14.58l-22.74,5.07c-1.05.23-2.05.62-3.16,1.03-.06.03-.12.05-.17.07l7.25,18.63,37.2-6.75,1.56,9.6c1.07,6.62,2.07,12.88,3.29,19.2.37,1.87,1.21,3.71,2.1,5.66.38.83.76,1.66,1.1,2.49.1.26.28.51.44.76.41.63.91,1.41,1.01,2.4,3.04,34.17,12.14,51.07,25.65,72.96,1.08,1.75,2.14,3.51,3.24,5.33l2.6,4.28-1.32.96c-.69.5-1.3,1.01-1.89,1.5-1.32,1.1-2.58,2.15-4.16,2.71-18.45,6.63-33.47,11.87-47.27,16.49-1.7.56-3.45.31-5.15.06-.87-.12-1.8-.3-2.56-.24-1.37-.02-2.82-.08-4.28-.18-3.16-.23-6.43-.45-7.97.72-4.37,3.33-8.21,8.63-10.03,13.83-1.47,4.21-1.77,8.89-2.1,13.86-.11,1.6-.21,3.22-.36,4.85l6.5-.33.54.96c1.76,3.13,3.49,6.25,5.2,9.34,3.87,6.98,7.53,13.57,11.49,20.16,6.25,10.4,14.02,17.64,23.75,22.15,9.76,4.51,10.96,4.75,16.17-5.63-17.9-15.17-29.47-33.04-34.39-53.12l-.28-1.18.99-.69c9.34-6.58,106.8-38.43,128.74-42.08l1.16-.19.63.98c3.31,5.18,2.95,10.64,2.6,15.92-.18,2.78-.35,5.41,0,7.96.44,3.24.76,6.51,1.07,9.77.44,4.66.91,9.48,1.77,14.1.98,5.32,2.45,10.57,4.01,16.13.7,2.49,1.41,5.03,2.1,7.66l.44,1.71-1.71.45c-52.26,13.9-100.94,33.63-148.81,60.33l-1.34.75ZM437.2,1881.47c-22.83-13.82-42.91-29.75-64.17-46.62-10.78-8.55-21.92-17.39-33.38-25.86l-2.41-1.78,2.71-1.25c5.25-2.44,10.4-4.91,15.5-7.35,17.28-8.27,33.6-16.08,51.54-21.86l1.57-.51.62,1.54c12.09,30.17,29.24,57.57,44.36,80.88l.6.91-.55.94c-1.6,2.74-4.53,4.4-7.37,6.01-5.12,2.89-9.16,5.18-6.43,12.83l1.68,4.69-4.27-2.58ZM655.35,1943.24l3.87-.86c12.07-2.68,13.45-1.03,18.81,13.15l2.09,5.5-24.77-17.79ZM682.2,1918.46c-19.02,1.05-37.88,5.14-56.13,9.1l-.69.15c-2.81.61-5.65,1.07-8.48,1.55-3.11.51-6.32,1.04-9.4,1.75-7.27,1.68-8.1,4.69-7.91,7.68.32,4.96,4.35,8.48,9.79,8.56,5.27.21,10.44-.5,15.56-1.05l2.4-.26c2.61-.27,5.28-.76,7.86-1.24,1.19-.22,2.37-.44,3.56-.64l1.19-.2,9.92,16.29-3.54-.35c-1.8-.18-3.49-.28-5.09-.39-3.27-.21-6.36-.4-9.31-1.16-5.33-1.39-10.83-2.57-16.14-3.72-12.56-2.71-25.54-5.51-37.65-11.16-18.83-8.78-38.61-17.5-60.48-26.65-9-3.77-18.31-7.31-27.32-10.72-7.2-2.73-14.4-5.46-21.53-8.35-4.37-1.76-8.53-3.9-13.35-6.39-2.39-1.23-4.94-2.54-7.76-3.93l-5.01-2.47,5.52-.87c3.67-.58,7.01-.25,9.97.04,4.6.48,7.97.8,10.74-2.31l.84-.94,1.16.48c3.83,1.59,6.11,4.67,8.3,7.65,2.59,3.52,4.85,6.59,9.39,6.73,7.41-7.06,7.3-7.24,2.18-15.42-1.1-1.77-2.13-3.57-3.34-5.68l-3.05-5.28,2.06-.69c25.23-8.55,48.88-16.57,74.45-17.67l1.18-.05.5,1.06c9.83,20.74,23.76,37.51,42.58,51.28,2.41,1.76,4.33,3.44,5.86,5.13,4.81,5.28,9.64,6.3,15.21,3.17,4.44-9.84-1.39-16.5-7.55-23.57-6.87-7.87-13.47-16.16-19.85-24.19-2.07-2.61-4.15-5.21-6.23-7.81-.8-1-1.35-2.09-2.04-3.48-.35-.69-.74-1.46-1.23-2.35l-1.21-2.22,2.5-.39c2.11-.33,4.13-.69,6.1-1.03,4.28-.76,8.33-1.47,12.46-1.73,15.52-1,31.77-1.79,48.29-2.36,8.53-.4,11.49,4.66,13.28,9.53,5.74,15.53,11.83,31.1,17.56,45.6,1.37,3.47,2.99,6.92,4.71,10.58.82,1.75,1.68,3.58,2.55,5.5l.92,2.02-2.18.46c-1.41.29-2.76.62-4.05.94-2.76.68-5.37,1.32-8.05,1.47ZM726.28,1949.73c-1.29,1.63-4.19,2.53-6.6,2.53-.56,0-1.1-.05-1.57-.15-7.49-1.55-14.06-5.41-21.97-12.89l-2.7-2.55,3.68-.5c2.71-.37,5.16-.73,7.44-1.07,4.69-.69,8.75-1.3,12.8-1.58,3.71-.35,6.88,3.26,8.51,6.36,1.59,3.01,2.52,7.17.41,9.85ZM722.67,1914c-1.63.49-3.34,1.01-5.19,1.46l-1.34.33-.64-1.22c-6.41-12.13-10.59-24.74-15.02-38.09-3.5-10.55-7.12-21.45-11.93-32.05l-1.06-2.34,2.56-.16c25.78-1.66,49.22-.87,70.72.23l1.44.08,11.17,71.82-2.17-.1c-3.91-.18-7.76-.39-11.56-.59-9.82-.51-19.09-1-28.48-1.1-2.52,0-5.35.8-8.51,1.74ZM835.02,1953.96c-19.32,6.46-37.72,9.9-57.91,10.83l-1.8.08-.06-1.8c-.42-11.79-6.1-18.12-18.41-20.54-1.97-.38-3.68-1.39-5.33-2.37-.69-.4-1.37-.8-2.06-1.15l-1.07-.54.43-5.12,1.31-.27c1.09-.22,2.19-.53,3.29-.85,2.59-.74,5.26-1.48,7.99-1.23,26.35,2.65,47.35,7.43,66.09,15.03,1.62.65,3.02,1.57,4.78,2.73.9.6,1.91,1.26,3.11,1.98l3.26,1.99-3.63,1.21ZM1035.19,1898.77c-7.22,6.28-15.71,9.48-23.91,12.57-1.68.63-3.35,1.26-5,1.91l-2.72,1.07c-4.62,1.8-9.4,3.67-13.87,5.88-12.52,6.18-25.88,10.02-38.5,13.41-15.35,4.13-30.55,9.37-45.17,15.58-9.37,3.98-18.91,4.29-28.14,4.6l-4.03.15h-.19c-2.13,0-4.43-1.39-5.77-2.61-16.1-14.62-36.34-24.7-65.61-32.7-.92-.25-1.81-.63-3.11-1.21-.69-.3-1.52-.67-2.56-1.1l-.96-.4-1.29-10.31c-1.03-8.21-2.09-16.64-3.11-25.09-.93-7.68-1.8-15.37-2.68-23.08l-1.34-11.67,1.43-.42c14-4.07,83.99,3.42,129.13,13.88l2.22.51-1.04,2.02c-.3.59-.58,1.17-.86,1.75-.62,1.28-1.25,2.61-2.07,3.85-9.12,13.7-18.24,27.41-27.48,41.04-2.79,4.1-5.68,8.14-8.58,12.17-1.82,2.54-3.65,5.07-5.45,7.63-4.12,5.86-3.6,8.03.02,11.54,1.66,1.59,7.45,6.43,12.9,1.48,9.37-8.51,18.02-17.31,25.69-26.16,4.15-4.8,7.84-10.17,11.41-15.37,1.93-2.81,3.87-5.63,5.88-8.37l1.04-1.48c1.61-2.3,3.26-4.69,5.69-6.14,7.89-4.71,11.44-10.31,11.54-18.14l.03-1.94,1.93.19c2.79.29,5.5.53,8.16.76,5.91.51,11.48,1.01,17.04,1.94,3.01.5,6.03.91,9.06,1.32,9.31,1.26,18.93,2.56,28,6.63,5.91,2.65,12.01,5.4,15.34,12.45.98,2.07,2.56,3.92,4.39,6.07.9,1.06,1.83,2.16,2.74,3.33l1.03,1.33-1.26,1.1ZM1137.13,1793.14c-3.54,5.89-7.08,11.8-10.61,17.7-9.86,16.48-20.06,33.51-30.41,50.09-1.52,2.43-3.81,4.3-6.03,6.11-2.31,1.88-4.48,3.66-5.53,5.82-4.19,8.66-11.74,11.61-19.05,14.47-3.01,1.18-6.12,2.39-9.01,4.01l-1.92,1.07-.64-2.1c-.43-1.41-.91-2.72-1.37-3.99-.98-2.69-1.91-5.23-2.11-7.89-1.41-18.36-15.01-25.83-28.12-30.71-3.12-1.16-6.29-2.19-9.8-3.33l-7.05-2.32.48-1.64c3.87-13.25,8.7-26.87,14.74-41.64,2.01-4.92,3.43-9.98,4.93-15.35,2.52-9,5.12-18.31,10.79-27.13l.69-1.09,1.25.33c32.03,8.43,64.08,19.9,97.98,35.07l1.82.82-1.03,1.72ZM1145.49,1831.19l-.26-4.44c-.28-4.92,2.08-7.91,3.97-10.3,1.06-1.34,1.98-2.5,2.3-3.76.78-3.07,1.93-5.96,3.24-9.3.6-1.5,1.23-3.1,1.86-4.82l.67-1.79,12.44,5.7-24.23,28.72ZM1256.62,1704.22c-16.1,25.22-36.36,46.84-55.95,67.74-3.24,3.45-6.47,6.9-9.69,10.37l-.79.85-69.8-24.02.4-1.58c4.02-16.22,10.21-31.62,16.2-46.5,4.33-10.74,8.79-21.84,12.37-33.11l.38-1.19,1.25-.05c.85-.03,1.8.02,2.77.07,4.35.26,6.01.03,6.43-3.04.31-2.31-.15-4.89-.69-7.88-.28-1.58-.59-3.28-.82-5.13l-.37-2.94,2.77,1.06c4.06,1.55,8.1,3.08,12.15,4.62,29.06,10.99,56.51,21.38,82.87,38.28l1.49.96-.95,1.5ZM1329.93,1541.56c-15.48,45.14-32.79,93.01-59.13,138.48l-.96,1.66-1.57-1.08c-1.92-1.31-3.77-2.63-5.58-3.93-3.85-2.76-7.48-5.36-11.36-7.54-23.35-13.13-47.79-23.31-72.65-30.26-25.41-7.1-51.41-13.77-76.57-20.21-8.35-2.14-16.69-4.28-25.03-6.43-3.4-.88-6.83-1.5-10.81-2.23-1.95-.35-3.99-.73-6.18-1.16l-2.75-.54,1.66-2.25c4.57-6.2,4.7-12.84,4.84-19.87.04-2.47.09-4.95.33-7.4.85-8.58,3.11-17.1,5.3-25.34l.94-3.56c3.11-11.8,6.29-23.59,9.49-35.37,3.3-12.17,6.6-24.33,9.79-36.52.91-3.49,1.4-7.21,1.91-11.15.26-2.01.53-4.1.87-6.3l.21-1.32,1.32-.17c13.49-1.73,28.11-1.82,43.48-.29,2.63.26,5.26.51,7.9.75,9.42.87,19.16,1.75,28.57,3.65,12.5,2.52,25.07,5.65,37.22,8.68,6.04,1.5,12.07,3.01,18.13,4.45,24.42,5.8,44.25,19.72,64.09,34.69,8.2,6.18,16.09,12.57,24.44,19.33,3.76,3.05,7.59,6.15,11.53,9.3l.98.78-.41,1.19ZM1347.05,1417.21l-.35,4.76c-1.66,22.5-3.38,45.76-5.6,68.6-.57,5.82-1.86,11.42-3.36,17.93-.72,3.12-1.48,6.43-2.21,10l-.68,3.3-2.34-2.42c-18.86-19.53-34.85-35.42-54.56-47.59-19.8-12.24-41.74-17.39-64.97-22.85l-4.39-1.04.07-1.47c.16-3.38.26-6.67.36-9.89.21-6.99.42-13.6,1.14-20.23,2.97-27.3,5.39-56.47-.44-86.58l-.4-2.02,2.05-.1c5.86-.26,11.68-.57,17.46-.87,13.67-.71,26.58-1.37,39.82-1.59,11.01-.15,22.26.21,33.11.58,4.76.16,9.5.32,14.25.44l1.41.03c2.07.04,4.19.08,6.31.39,13.61,2,16.1,4.53,17.69,18.1.69,5.88,1.44,11.76,2.19,17.63,1.39,10.9,2.82,22.17,3.86,33.3.67,7.18.12,14.52-.42,21.61Z"></path>
  <polygon class="cls-1" points="490.81 1212.98 490.64 1212.99 490.64 1212.99 490.81 1212.98"></polygon>
  <path class="cls-1" d="M749.77,766.49c10-2.99,10.09-56.49,10.14-88.45.03-18.61.06-33.38,1.39-39.2-7.28-135.8-4.26-275.67-1.33-410.94l.94-44.35c-1.96-37.37-3.84-69.52-5.58-95.57-4.13-61.69-7-81.89-8.68-87.98-10.28,41.22-8.86,569.57-7.5,757.51,4.39,6.53,8.16,9.7,10.62,8.98Z"></path>
  <path class="cls-1" d="M194.47,1799.12c3.06-3.97,2.93-9.4-.36-14.53-2.72-4.25-7.71-8.02-13.35-8.02-.94,0-1.9.1-2.87.33-.82.19-1.65.35-2.49.53-2.51.51-4.88.99-6.58,2.02l-.78.48c-10.02,6.09-20.39,12.4-29.85,19.41-19.43,14.39-39.01,29.74-56.29,43.29l-.92.72c-9.23,7.24-18.78,14.72-27.26,22.86-3.27,3.15-5.39,8.08-7.44,12.84l-.51,1.19c-.37.85-.46,1.07,2.02,3.26,1.18,1.03,2.52,2.21,3.46,3.77,1.68,2.78,2.36,3.43,2.62,3.58.06-.09.96-.48,3.4-2.15,3.2-2.19,6.43-4.34,9.66-6.49,4.36-2.9,8.72-5.79,12.99-8.8,9.21-6.48,18.39-13,27.57-19.53,18.67-13.27,37.99-27.01,57.25-40.17,1.68-1.15,3.32-2.47,4.97-3.81,5.93-4.78,13.18-10.62,23.71-8.98.28-.63.6-1.22,1.05-1.8Z"></path>
  <path class="cls-1" d="M1245.42,963.89c4.86,2.34,11.98,1.07,15.86-2.84.85-.85,1.57-1.75,2.15-2.68,1.35-2.15,2.75-4.28,4.15-6.4,3.15-4.79,6.4-9.74,8.93-14.81,14.91-29.94,29.58-59.99,44.24-90.05l7.57-15.51c.94-1.92,1.62-3.97,2.1-5.39l.27-.77c.11-8.79-1.66-9.49-7.52-10.47-.51-.08-1.01-.12-1.48-.12-3.27,0-5.97,1.99-8.78,6.4-5.56,8.74-10.87,17.88-16,26.73l-4.79,8.23c-4.4,7.51-8.73,15.06-13.02,22.62l-7.31,12.84c-7.79,13.66-15.58,27.32-23.11,41.11-3.17,5.82-5.5,12.27-7.35,17.81-1.47,4.39,1.66,12.13,4.09,13.3Z"></path>
  <path class="cls-1" d="M145.41,1719.65c.33-.58.3-2.36-.03-2.93-4.87-7.53-10.29-9.99-18.51-8.54-8.01,1.41-16.24,1.55-24.21,1.68-3.42.06-6.86.12-10.27.27l-3.72.17v-.64c-.35-.02-.69-.03-1.05-.03-.2,0-.4,0-.6.01l-12.65.48c-11.86.44-23.72.87-35.56,1.61-9.48.59-19.61,1.39-29.4,3.26-3.16.6-7.25,2.03-8.77,5.38-1.42,3.13-.53,7.71,2.5,12.89,3.92,6.7,9.8,6.77,16.6,6.84l2.93.06c20.35.71,41.13-.8,63.5-4.62,5.47-.93,10.89-2.12,16.31-3.31,10.43-2.29,21.22-4.66,32.35-5.14,4.28-.18,7.83-2.69,10.56-7.45Z"></path>
  <path class="cls-1" d="M247.64,1854.64c-10.21,7.8-19.37,14.85-28.15,22.3-2.81,2.38-5.44,5.73-7.6,9.67-4.01,7.28-8.62,15.94-12.35,25.02-2.41,5.84-4.3,12.06-5.82,17.07-.53,1.74-1.02,3.36-1.48,4.81l.76,11.28c.49,7.46.92,13.95,1.41,20.44.32,4.17,2.79,6.88,8.25,9.02,2.32.91,4.06,1.14,5.2.64,1.07-.47,2.02-1.79,2.84-3.91,1.74-4.53,2.86-8.54,3.42-12.28,3.4-22.61,13.84-44.14,32.86-67.75,2.05-2.54,4.42-4.73,6.7-6.86,2.13-1.98,4.15-3.85,5.85-5.93,5.5-6.71,5.17-15.63-.81-22.19-2.11-2.32-8.75-3.11-11.08-1.33Z"></path>
  <path class="cls-1" d="M1311.15,1038.76c1.91,3.66,5.58,6.31,9.93,7.22,1.55-.61,3.13-1.18,4.71-1.75,4.04-1.46,7.85-2.84,11.19-4.84,6.38-3.86,12.62-7.94,18.87-12.02,8.5-5.55,17.29-11.29,26.33-16.38,3.63-2.04,7.04-4.44,10.65-6.98,9.35-6.57,19.01-13.36,32.66-13.71,1.74-.04,2.97-.73,3.65-2.07.89-1.74.87-4.83-1.17-7.8-3.39-4.91-7.94-7.21-14.34-7.22h-.04c-9.36,0-17.77,3.91-25.46,8.13-21.09,11.58-43.43,24.34-70.34,40.15-2.54,1.5-5.16,4.53-6.84,7.91-1.48,2.97-1.41,6.29.19,9.36Z"></path>
  <path class="cls-1" d="M1427.31,1127.23c-10.97-.02-23.65-.63-35.38-7.65-.91-.55-3.03-.7-4.28-.29-4.46,1.43-9.59,3.25-13.87,5.88-6.62,4.07-8.97,10.16-6.79,17.61,2.52,8.62,6.18,11.49,15.03,11.83,7.31.29,14.78.21,21.99.18l6.77-.04c2.81,0,5.62-.14,8.42-.26,2.97-.14,5.98-.27,9.01-.27,6.45,0,13.05.61,19.82,3.16,2.48.94,6.07,1.65,8.91-.3,2.81-1.91,4.52-6.11,4.73-11.59-.16-.46-.33-.99-.51-1.57-.52-1.69-1.3-4.25-2.54-5.23-9.54-7.58-20.08-11.42-31.32-11.45Z"></path>
  <path class="cls-1" d="M1233.04,1624.99c-1.01,2.66-2.02,5.33-3.14,7.94-2.02,4.71-1.13,9.18,2.97,14.95,1.23,1.74,3.05,2.73,5,2.73.06,0,.11,0,.16,0,2.11-.06,4.03-1.23,5.27-3.2,1.14-1.82,1.98-3.81,2.88-5.93.75-1.76,1.52-3.58,2.47-5.3,14.04-25.25,30.12-55.22,43.07-86.11.6-1.45,1.05-3,1.48-4.55.83-2.91,1.69-5.93,3.58-8.37,1.29-1.66,1.86-3.02,1.7-4.02-.22-1.32-1.77-2.59-3.76-3.94-7.01,3.42-13.6,6.72-17.33,13.27-15.8,27.75-27.73,49.15-38.7,69.37-2.26,4.16-3.99,8.75-5.66,13.18Z"></path>
</svg>