<svg xmlns="http://www.w3.org/2000/svg" viewBox="0 0 652.93 689.39" aria-label="Mesa con lámpara y tocadiscos">
<g id="hero-illustration-fill">
<path d="M135.97,230.98c1.67-1.31,3.17-2.58,4.8-3.66,1.66-1.1,3.52-1.9,5.15-3.04.59-.4,1.04-1.38,1.07-2.12.12-3.04.17-6.09-.02-9.12-.05-.83-.83-1.89-1.59-2.35-2.42-1.49-3.62-3.44-3.63-6.35,0-2.09-.82-4.19-.78-6.28.03-1.72.62-3.5,1.24-5.14.69-1.81.28-2.76-1.69-2.72-2,.03-3.99.38-5.99.42-2.14.05-2.38,1.37-2.23,3,.3,3.21,0,6.25-1.39,9.27-1.83,3.99-4.79,6.2-9.06,6.79-1.5.21-3.78-2.03-3.8-4.11-.05-4.95-.58-10,2.16-14.56.08-.14-.3-.8-.47-.81-3.46-.1-6.92-.13-10.38-.21-.39,0-.78-.27-1.17-.29-1.03-.05-2.01-.18-2.12,1.41-.19,2.57-.75,5.13-.87,7.7-.13,2.63-1.05,4.75-2.74,6.75-1.23,1.46-1.93,3.07-4.29,3.4-1.84.26-3.26.3-4.21-1.26-1.21-1.99-2.19-3.93-2.3-6.57-.18-3.76.4-7.28,1.07-10.89.08-.43-.68-1.36-1.21-1.51-2.07-.6-4.2-.98-6.32-1.42-.45-.09-.93-.05-1.36-.17-2.35-.64-3.94.89-3.43,3.26,1.16,5.38-.25,10.22-3.27,14.66-.93,1.36-4.89,2.64-6.13,2.08-2.5-1.14-3.33-3.53-3.36-5.9-.06-4.97-.14-9.97,1.87-14.75,1.2-2.86.66-3.41-2.27-3.49-3.74-.09-7.48-.31-11.23-.44-.27,0-.55.17-.82.26.23.38.47,1.09.69,1.08,2.09-.07,1.81,1.43,1.66,2.6-.71,5.6-1.3,11.12-5.71,15.53-2.48,2.47-8.03,1.3-9.5-1.45-1.84-3.45-2.41-6.99-.94-10.72.78-1.98,1.47-3.99,2.41-5.9.65-1.32.4-1.73-1-1.9-2.93-.37-3.52-.97-3.72-4.12-.32-4.95.02-9.8,2.05-14.58,1.45-3.43,1.65-7.38,2.69-11.02.68-2.38,1.9-4.6,2.79-6.93,2.26-5.89,4.4-11.82,6.69-17.69,1.15-2.93,2.43-5.82,3.79-8.66.93-1.93,2.12-3.72,3.17-5.6,2.37-4.25,4.67-8.54,7.09-12.76,1.11-1.94,2.37-3.8,3.7-5.61,1.72-2.32,3.49-4.62,5.39-6.81,2.9-3.35,5.88-6.64,8.92-9.87,2.1-2.25,4.5-4.24,6.48-6.58,4.56-5.35,10.6-8.9,15.88-13.36,3.7-3.12,7.59-6.04,11.6-8.74,4.36-2.94,8.83-5.78,13.48-8.24,6.81-3.59,13.63-7.2,21.09-9.4,1.43-.42,3.07-1.18,1.4-3.67-1.1-1.64-.75-4.24-1.11-6.4-.43-2.59-1.21-5.15-1.32-7.74-.08-1.8.44-3.75,1.18-5.41.77-1.74,3.99-1.73,5.94-.16,1.45,1.17,2.85,2.4,4.17,3.71.92.91,1.37.96,1.97-.32.91-1.93,1.88-3.87,3.11-5.61,1.46-2.07,3.05-4.09,4.89-5.81,1.69-1.6,5.33-.18,6.69,2.55.84,1.7,1.3,3.58,1.95,5.38.09.25.25.47.38.7.37-.26.75-.5,1.1-.78,1.77-1.44,3.39-3.13,5.33-4.29,2.94-1.75,6.08-.18,6.99,3.15.58,2.13,1.1,4.31,2.01,6.3.21.46,2.22.73,2.82.3,2.86-2.06,5.91-2.08,9.06-1.33,4.31,1.03,5.71,6.76,4.95,9.98-1.04,4.43-1.82,8.94-2.61,13.43-.07.37.59,1.24.94,1.26,3.49.22,6.23,2.3,8.84,4.11,5,3.47,9.86,7.26,14.3,11.42,5.07,4.75,9.61,10.08,14.43,15.11,2,2.08,4.11,4.05,6.19,6.06.61.59,1.36,1.05,1.87,1.71,2.68,3.4,5.36,6.81,7.93,10.28,2.92,3.93,5.85,7.85,8.56,11.93,2.2,3.33,4.19,6.81,6.06,10.33,2.28,4.28,4.44,8.62,6.46,13.03,2.45,5.33,4.76,10.72,7,16.14,1.32,3.18,2.35,6.48,3.57,9.71,1.19,3.15,2.58,6.23,3.65,9.43.84,2.52,1.4,5.15,1.97,7.75.6,2.7.93,5.47,1.63,8.14,1.25,4.77-.03,7.61-4.66,9.07-1.51.48-1.27,1.38-1.22,2.32.32,5.55-.67,10.9-2.39,16.15-.93,2.84-3.92,5.02-6.73,4.92-1.56-.06-2.48-.83-3.39-2.17-2.03-2.95-1.71-6.34-2.2-9.56-.28-1.86-.05-3.8-.05-5.7,0-2.56-1.79-3.95-4.33-3.54-1.19.19-2.43-.02-3.64.04-2,.11-4.07.06-5.95.62-.55.16-.95,2.21-.77,3.28.88,5.08.8,10.01-1.51,14.72-1.14,2.33-2.72,4.04-5.68,3.76-2.6-.24-3.69-1.75-4.44-4.1-.6-1.9-1.04-3.57-1-5.69.09-3.69.03-7.31,1.07-10.89.03-.13-.82-.76-1.2-.72-2.56.27-5.11.66-7.66,1.03-.67.09-1.38.12-1.98.39-.71.33-1.8.82-1.87,1.35-.27,1.92-.46,3.93-.19,5.83.56,3.82-4.02,11.41-7.75,12.26-1.86.43-3.32-.76-3.98-2.18-2.11-4.52-2.4-9.22-.35-13.89.47-1.08.53-1.64-.86-1.5-3.28.32-6.57.58-9.83,1.03-.39.05-.77,1.14-.9,1.81-.66,3.22-1.14,6.49-1.92,9.69-.24.99-1.16,1.84-1.85,2.69-.6.75-1.58,1.29-1.91,2.12-.66,1.66-1.87,1.94-3.32,1.67-2.87-.53-6.48-3.2-5.33-7.08.17-.59,0-1.26.02-1.9.06-2.06-.07-4.16.27-6.17.23-1.32.16-1.92-1.25-1.95-2.2-.05-4.4.35-6.38-1.31-1.29-1.09-3.82,2.09-4.1,3.7-.68,3.82-1.31,7.67-2.42,11.38-.98,3.27-2.69,6.21-6.84,6.24-.33,0-.76.24-.96.51-1.11,1.48.18,6.36,1.73,7.4,5.17,3.49,10.44,6.85,13.9,12.33.91,1.45,2.54,2.48,3.96,3.55,3.13,2.4,4.75,5.69,6.55,9.14,2.1,4.03,1.75,8.13,2.1,12.21.41,4.64.13,9.35.07,14.03-.02,1.46.27,3.62-2.41,1.94-.21-.13-.53-.05-.81-.07,0,.21-.1.57-.01.62,3.66,2.21,1.79,5.31,1.36,8.19-.37,2.48-.35,5.06-1.03,7.44-1.09,3.8-2.41,7.57-4.02,11.17-1.85,4.13-5.46,6.68-9.14,9.1-3.44,2.26-6.76,4.72-10.21,6.97-2.49,1.63-1.37,3.93-1.27,5.98.21,4.74.59,9.47.94,14.2.06.81-.69,3.08,1.52,1.08.28-.25.89-.17,1.34-.17,1.43-.02,2.87-.1,4.28,0,5.44.43,10.87.98,16.31,1.38,1.27.09,2.57-.26,3.86-.41.23-.02.46-.04.7-.03,3.37.16,6.74.36,10.12.44,1.04.02,2.09-.44,3.13-.42,2,.05,3.99.29,5.99.44,2.23.17,4.47.34,6.7.47,2.87.18,5.74.35,8.61.47,6.06.25,12.18.22,18.2.15,4.99-.06,10.1.4,15.18-.46,4.5-.76,9.24-.35,13.85-.08,2.3.14,3.17-1.38,3.72-2.73.25-.63-1.23-2.24-2.23-3.01-1.69-1.31-3.71-2.19-5.44-3.45-3.6-2.6-4.52-6.9-5.75-10.67-1.68-5.14-1.42-10.72.44-15.81,1.14-3.14,3.31-6.02,5.46-8.65,1.72-2.09,3.88-4.12,6.28-5.32,5.82-2.93,11.88-5.38,17.86-8,1.18-.51,3.11-.65,3.44-1.46.77-1.91.84-4.12,1.07-6.22.13-1.2-.06-2.44.04-3.65.27-3.36.57-6.72.95-10.07.37-3.24.86-6.46,1.3-9.69.02-.14.1-.28.1-.43.17-7.28.3-14.57.49-21.86.09-3.27.28-6.53.47-9.79.46-8.21.95-16.43,1.42-24.63.17-2.82.25-5.64.49-8.45.42-4.99.91-9.98,1.43-14.96.25-2.49.49-5,1.01-7.45.21-.99.97-2.29,1.8-2.63,2.25-.9,4.64-1.62,7.04-1.94,5.75-.79,11.51-1.46,17.29-1.89,2.76-.21,5.58.26,8.36.41.63.03,1.27-.02,1.9,0,6.93.31,13.86.67,20.79.94,9.55.36,19.09.76,28.64.92,5.59.09,11.19-.2,16.78-.46,2.57-.13,5.13-.61,7.7-.92.23-.03.47,0,.71,0,4.96-.16,9.92-.38,14.88-.43,1.32-.02,2.65.45,3.98.67.31.05.7.08.97-.05,3.73-1.89,7.58-1.09,11.47-.73,2.44.23,4.96-.52,7.41-.35,6.99.49,13.99,1.08,20.95,1.92,2.93.35,4.49,2.71,4.82,5.49.4,3.34.38,6.74.53,10.11.16,3.54.46,7.07.44,10.6-.02,3.89-.28,7.78-.55,11.66-.15,2.19-.61,4.36-.83,6.54-.23,2.39-.4,4.79-.48,7.18-.2,5.56-.25,11.13-.51,16.69-.2,4.27-.94,8.53-.84,12.78.13,5.28.92,10.55,1.32,15.83.16,2.08-.06,4.18.04,6.27.28,5.58-.74,11.21.84,16.76.32,1.12-.9,2.6-.79,3.86.25,3.03.07,5.96-.45,8.95-.18,1.05.47,2.65,1.29,3.42,4.05,3.8,6.3,8.82,9.38,13.28.91,1.31,2.15,2.42,3,3.76,2.3,3.63,4.27,7.48,6.74,10.99,2.64,3.74,5.82,7.08,8.53,10.78,1.38,1.88,2.37,4.08,3.27,6.24.58,1.39,1.19,1.95,2.79,2.05,5.37.31,10.71.94,16.07,1.33,1.34.09,2.72-.38,4.08-.42,5.75-.2,11.5-.42,17.26-.46,3.53-.02,7.06.33,10.6.43,2.56.07,5.14-.09,7.69.07.85.06,1.84.64,2.45,1.28,1.86,1.94,3.57,4.02,5.3,6.08.68.81,1.32,1.66,1.86,2.56,2.05,3.35,3.97,6.78,6.07,10.09,2.84,4.47,5.88,8.81,8.67,13.31,2.33,3.76,4.43,7.67,6.63,11.53,3.32,5.84,6.98,11.53,9.77,17.62,1.26,2.74,3.62,4.38,4.89,6.96,1.28,2.58,2.87,5.02,4.46,7.43,2.07,3.13,4.36,6.11,6.38,9.27.56.88.78,2.18.7,3.25-.37,4.57-1.09,9.12-1.34,13.69-.31,6.03-.68,11.99-2.88,17.7-1.29,3.35-2.42,4.08-6.49,3.87-3.82-.2-7.65-.27-11.46-.51-1.66-.1-3.32-.35-4.93-.74-2.57-.63-3.61.44-3.37,3.14.23,2.63-.02,5.29.07,7.93.28,8.47.8,16.93.88,25.39.08,8.26-.36,16.53-.37,24.79,0,2.83.77,5.66.84,8.5.08,2.97-.32,5.95-.39,8.93-.03,1.04.38,2.08.43,3.13.2,4.3.41,8.59.46,12.89.02,2.26-.29,4.52-.44,6.79-.02.23-.07.5,0,.71,1.27,3.31.33,6.6.07,9.93-.23,3,.44,6.05.35,9.08-.17,5.74-.52,11.48-.93,17.22-.38,5.28-.91,10.55-1.42,15.82-.26,2.73-1.16,5.52-.82,8.16.52,4.03-1.06,7.71-1.1,11.6-.02,2.42-.09,4.87-.5,7.26-.56,3.32-2.76,5.22-5.97,5.6-4.82.58-6.97,3.67-5.92,8.39.18.79.02,1.71-.2,2.52-1.2,4.37-1.37,8.74-.24,13.14.62,2.41-2.09,5.84-4.99,6.35-1.64.29-3.39-.07-5.07.08-3.65.32-7.3.65-10.91,1.23-3.15.51-6.22,1.57-9.37,2.01-2.47.34-3.99-1.52-4.82-3.54-.66-1.63-.91-3.51-.98-5.29-.14-3.75-.17-7.51,0-11.26.15-3.53.67-7.03.83-10.56.02-.52-1.01-1.58-1.54-1.57-4.14.02-8.28.33-12.42.36-1.97,0-3.94-.53-5.91-.61-3.02-.12-6.05-.09-9.07-.07-2.18,0-4.35.14-6.52.14-.66,0-1.32-.35-1.98-.36-6.21-.02-12.43.04-18.64-.03-3.82-.05-7.65-.47-11.46-.41-3.36.06-6.71.66-10.08.86-1.35.08-2.72-.42-4.08-.4-2.08.03-4.15.36-6.23.42-2.72.08-5.45.02-8.17.02-6.61,0-13.22-.05-19.83.01-10,.11-20.01.35-30.02.43-2.79.02-5.58-.4-8.37-.41-2.31-.01-4.63.42-6.94.41-3.03-.02-6.05-.39-9.08-.41-2.31,0-4.63.44-6.94.41-4.56-.05-9.13-.48-13.69-.4-6.14.12-12.3.3-18.39,1.02-3.54.41-6.92.53-10.42-.04-.98-.16-2.13.89-3.16.83-5.05-.34-10.08-1-15.14-1.3-4.47-.27-8.87-1.88-13.45-.61-1,.28-2.24-.19-3.35-.42-8.26-1.71-16.61-.65-24.92-.92-3.67-.12-7.35-.08-11.02,0-3.14.07-6.27.49-9.4.41-3.29-.09-6.56-.64-9.84-.87-1.3-.09-2.63.17-3.95.2-2.99.06-5.98.1-8.96.09-.75,0-1.49-.27-2.24-.3-5.25-.18-10.5-.32-15.75-.49-4.57-.15-9.13-.38-13.69-.46-10.88-.2-21.76-.37-32.65-.45-1.79,0-3.57.59-5.37.75-.85.08-1.74-.32-2.6-.29-1.76.07-3.52.27-5.28.45-4.48.46-8.96,1.04-13.45,1.38-1.74.13-3.51-.4-5.27-.41-7.06-.05-14.12-.13-21.18.02-3.79.08-7.56.67-11.35.87-1.51.08-3.04-.43-4.56-.41-2.94.06-5.89.22-8.82.52-3.39.35-6.76.92-10.14,1.34-1.83.22-3.7.21-5.5.57-.5.1-1.15,1.15-1.15,1.76.02,2.63.29,5.26.41,7.9.19,4.16.39,8.33.45,12.5.03,1.86-.21,3.74-.46,5.59-.33,2.54-2.53,4.36-5.11,4.56-5.52.42-11.04.85-16.54,1.45-2.06.22-4.04,1.22-6.08,1.33-5.42.28-7.99-3.14-8.02-7.92-.04-6.56-.56-13.11-.9-19.67-.02-.5-.2-1.05-.48-1.46-.99-1.42,2.14-4.33-1.65-4.65-1.84-.16-3.7-.02-5.55-.03-5.1,0-10.1-.79-13.23-5.19-1.36-1.91-1.68-4.78-1.84-7.26-.21-3.25.38-6.53.36-9.79-.05-6.46-.38-12.93-.41-19.4-.02-3.93.31-7.85.43-11.78.06-2.32.06-4.66,0-6.98-.12-4.06-.44-8.12-.43-12.18,0-4.69.43-9.39.41-14.08-.03-7.97-.27-15.95-.44-23.92-.14-6.15-.18-12.3-.52-18.44-.23-4.1-1.08-8.16-1.32-12.27-.16-2.8.3-5.63.4-8.45.07-1.93.01-3.86.01-5.8,0-3.44-.06-6.87.02-10.31.08-3.77.42-7.54.42-11.31,0-3.07-.96-6.18.47-9.18.04-.09-.5-.64-.81-.68-5.2-.64-10.45-.67-15.55-2.3-2.39-.77-5.13-.42-7.7-.58-4.18-.27-5.84-2.07-5.9-6.16-.12-8.26-.33-16.53-.43-24.79,0-.93.18-2.04.69-2.78,3.4-4.96,6.85-9.89,10.41-14.73,4.36-5.91,8.81-11.76,13.29-17.58,2.97-3.87,6.18-7.56,9.04-11.5,3.56-4.91,6.77-10.07,10.34-14.97,2.21-3.04,4.89-5.73,7.17-8.71,3.25-4.25,6.33-8.64,9.48-12.96,1.51-2.07,3.09-4.1,4.47-6.25.47-.74.71-1.84.59-2.71-.27-1.92.48-3.27,2.31-3.45,4.8-.49,9.6-1.01,14.4-1.42,4.46-.39,8.94-.67,13.41-.96,3.05-.2,6.11-.25,9.16-.51,1.95-.17,3.88-.59,5.82-.87.46-.06.93-.05,1.4-.05,3.44,0,6.88.05,10.32-.01,5.25-.11,10.5-.38,15.75-.43,2.55-.02,5.11.24,7.66.46,1.67.15,2.4-.32,2.33-2.19-.25-6.51-.36-13.04-.51-19.55-.06-2.46-1.96-3.38-3.77-3.91-3.67-1.07-6.33-3.62-9.28-5.76-.99-.71-1.77-1.85-2.86-2.29-5.1-2.1-7.16-6.56-8.79-11.26-.65-1.89-.83-3.99-.97-6.02-.16-2.45.04-4.92-.05-7.37-.3-7.31,1.11-14.35,3.26-21.27,1.86-5.96,3.67-11.96,5.97-17.75,1.01-2.53,3.18-4.6,4.94-7M383.82,644.22h11.75c3.99,0,7.99-.05,11.98,0,7.82.12,15.63.37,23.44.45,7.49.08,14.97,0,22.45.04,1.6,0,3.2.45,4.8.42,3.58-.06,7.17-.42,10.75-.41,5.01.02,10.09.84,15.02.29,5.39-.6,10.72-.9,16.12-.84,2.57.03,5.16-.38,7.73-.42,4.95-.07,9.89-.02,14.84-.02,3.28,0,6.56-.05,9.83.02,1.92.04,3.83.39,5.75.42,1.2.02,2.41-.43,3.61-.41,1.94.03,3.89.44,5.83.41,4.96-.07,9.92-.27,14.88-.46,1.14-.04,2.28-.38,3.41-.35,4.66.11,9.34.23,13.99.49,2.7.14,5.38.81,8.06.76,3.87-.07,7.72-.69,11.59-.85,3.91-.16,7.83.02,11.74-.1.55-.01,1.49-.87,1.52-1.39.28-3.95.45-7.9.53-11.86.08-4.44-.1-8.9.05-13.33.18-5.13.69-10.26.9-15.39.25-6.06.51-12.14.43-18.2-.04-3.47,0-6.95-.25-10.45-.34-4.74.56-9.56.76-14.35.15-3.53-.12-7.09.07-10.63.17-3.07,1.09-6,1.08-9.21-.01-5.51,1.25-11,.82-16.58-.1-1.34.48-2.73.4-4.08-.19-3.13-.6-6.24-.91-9.36-.32-3.28-.6-6.56-.96-9.84-.61-5.61-1.64-11.2-1.79-16.82-.14-5.17-.96-10.44.8-15.56.38-1.11-.2-1.84-1.63-1.86-6.7-.09-13.41-.46-20.11-.4-5.58.06-11.16.66-16.74.87-3.83.14-7.67-.03-11.5.04-3.03.06-6.05.43-9.08.42-3.69-.01-7.38-.32-11.07-.43-10.42-.34-20.83-.65-31.25-.96-5.81-.17-11.61-.32-17.41-.48-.16,0-.32,0-.47,0-7.43-.63-14.85-1.61-22.3-1.82-10.72-.32-21.46-.11-32.2-.06-2.63,0-5.27.49-7.89.4-3.39-.11-6.77-.67-10.16-.88-4.24-.25-8.49-.49-12.73-.46-8.34.05-16.68.29-25.02.44-2.43.04-4.81-.29-7.29.37-1.91.51-4.08.08-6.13.03-5.18-.12-10.36-.42-15.54-.35-3.75.05-7.5.66-11.26.86-1.51.08-3.06-.5-4.56-.4-6,.38-11.98.91-17.97,1.39-.76.06-1.51.25-2.27.25-4.58.03-9.15.03-13.72.02-.43,0-.88-.29-1.31-.26-5.66.29-11.31.76-16.98.89-4.08.09-8.17-.33-12.26-.41-3.59-.08-7.2.08-10.79-.03-8.44-.26-16.86-.75-25.31-.89-9.41-.16-18.83-.04-28.24-.04-4.89,0-9.78.05-14.68,0-8.21-.12-16.42-.4-24.63-.43-4.85-.02-9.7.29-14.55.44-5.35.17-10.71.3-16.06.48-3.98.13-7.96.33-11.94.46-5.04.18-10.08.33-15.11.48-5.41.17-10.82.24-16.22.51-3.37.17-6.72.61-10.08.92-3.44.32-6.91,1.08-10.31.83-3.6-.26-6.95,1.11-10.4.97-2.83-.11-6.39,1.77-8.34-2.13-.09-.19-.64-.16-.98-.22.01.39-.08.83.07,1.14.26.53.68.99,1.04,1.47-.65.11-1.3.24-1.96.31-.47.05-.95,0-1.43.01-5.88.16-11.76.32-17.65.47-.51.01-1.02-.02-1.53-.04.31.34.64.65.92,1.02.26.35.65.74.68,1.13.36,4.95.76,9.89.95,14.83.15,3.91-.03,7.83.05,11.74.09,4.46.35,8.91.44,13.36.07,3.6.01,7.2.01,10.79,0,2.17-.35,4.41.09,6.49.5,2.36-.14,4.35-.87,6.44-.12.35-.15.75-.16,1.12-.17,6.07-.35,12.14-.47,18.21-.07,3.44-.01,6.87-.01,10.31,0,4.87.06,9.73-.02,14.6-.06,4.03-.4,8.07-.42,12.1-.02,2.79.42,5.58.41,8.37,0,3.11-.37,6.22-.41,9.32-.02,1.76.37,3.52.41,5.28.02.96-.48,1.94-.42,2.89.41,5.55,1.03,11.08,1.36,16.63.21,3.51.04,7.03.04,10.55,0,.76-.24,1.43,1.08,1.48,4.9.2,9.78.79,14.68.86,9.23.15,18.46.15,27.68,0,5.53-.09,11.05-.71,16.58-.88,8.74-.26,17.47-.35,26.21-.5,1.46-.02,2.92.09,4.38.03,3.26-.14,6.52-.55,9.78-.46,5.43.14,10.84.76,16.26.84,3.12.05,6.24-.59,9.36-.87,2.23-.21,4.47-.29,6.7-.49,6.64-.62,13.27-1.52,19.92-1.82,5.31-.24,10.65.32,15.98.38,8.17.08,16.34.03,24.51,0,1.04,0,2.19-.65,3.12-.4,6.88,1.87,13.87.67,20.8.8,3.37.06,6.77-1.15,10.16.09.21.08.47.03.71,0,3.2-.31,6.4-.82,9.6-.91,8.57-.26,17.16-.41,25.74-.48,2.79-.02,5.58.37,8.37.42,1.6.02,3.21-.49,4.8-.4,3.36.18,6.72.55,10.07.92,3.77.42,7.53.98,11.31,1.41,3.35.38,6.71.77,10.07.93,3.35.16,6.72.12,10.07,0,2.37-.08,4.73-.43,7.09-.67.43-.04.86-.2,1.29-.16,2.82.26,5.62.75,8.44.81,3.03.06,6.05-.27,9.56-.42M191.77,352.7c.03,3.69.45,4.12,3.85,4.54,4.82.59,9.63,1.25,14.44,1.89,7.48,1.01,14.89,1.93,22.12,4.6,7.41,2.73,13.86,6.66,19.55,11.93,1.89,1.76,3.01,4.15,2,7.13-.51,1.49-.33,3.34-.04,4.96.83,4.59-.1,6.7-4.11,8.51-1.41.63-2.77,1.72-4.22,1.83-8.04.63-16.09,1.05-24.15,1.47-1.18.06-2.4-.42-3.57-.33-1.72.13-3.4.71-5.12.81-4.48.25-8.96.38-13.45.5-6.6.19-13.19.3-19.79.5-2,.06-4,.28-5.99.47-1.29.12-2.56.43-3.85.45-5.42.05-10.98-.74-16.23.22-6.44,1.17-12.79.33-19.15.74-2,.13-4.02.07-6.03,0-1.21-.05-2.4-.35-3.61-.44-2.55-.2-5.16-.74-7.64-.4-5.11.7-10.14.61-15.11-.62-1.83-.45-3.86-1.11-5.14-2.36-1.22-1.18-2.08-3.21-2.21-4.93-.23-3.08.19-6.21.39-9.31.02-.42.27-.84.49-1.22,2.52-4.36,6.27-7.25,10.93-9.03,5.61-2.14,11.17-4.5,16.88-6.35,4.5-1.46,9.28-2.06,13.8-3.48,3.26-1.03,6.35-2.67,9.39-4.29.71-.38,1.18-1.72,1.27-2.68.43-4.14.76-8.3.91-12.46.02-.62-1.11-1.78-1.78-1.84-3.75-.33-7.53-.55-11.3-.53-7.79.05-15.57.31-23.36.43-3.6.06-7.2-.11-10.79.04-4.87.2-9.74.59-14.6.94-.89.06-1.77.43-2.66.44-3.52.05-7.04-.09-10.55.09-1.09.05-2.57.62-3.12,1.45-1.71,2.56-2.95,5.44-4.59,8.07-2.44,3.93-4.93,7.84-7.65,11.58-2.33,3.22-5.08,6.13-7.54,9.27-2.8,3.57-5.41,7.3-8.25,10.84-3.83,4.78-7.99,9.3-11.67,14.18-3.43,4.54-6.37,9.45-9.61,14.13-3.22,4.64-6.49,9.23-9.86,13.75-.88,1.18-.23,1.27.6,1.35.68.06,1.38-.06,2.07-.15,2.04-.25,4.08-.83,6.1-.72,5.84.31,11.66,1.05,17.5,1.31,3.57.16,7.16-.26,10.75-.41.16,0,.32.01.47,0,4.9-.63,9.77-1.51,14.69-1.84,6.29-.42,12.61-.37,18.92-.55,4.4-.13,8.81-.25,13.21-.48,7.97-.43,15.94-1.03,23.92-1.39,6.51-.29,13.04-.5,19.55-.47,15.17.06,30.33.29,45.49.44,3.2.03,6.41-.05,9.6.02,3.27.08,6.54.5,9.79.42,5.69-.16,11.37-.66,17.06-.88,3.59-.14,7.2-.12,10.79,0,7.56.25,15.12.65,22.69.92,5.99.21,11.98.44,17.97.45,5.41,0,10.82-.31,16.22-.43,16.92-.39,33.87.81,50.77-.9,3.96-.4,7.98,0,11.98-.07,4.93-.1,9.86-.41,14.79-.42,4.16,0,8.33.34,12.49.42,4.1.08,8.2.08,12.3,0,4.61-.09,9.23-.38,13.84-.43,2.42-.02,4.84.3,7.27.44,3.02.18,6.05.39,9.08.45,2.98.06,5.96-.13,8.94-.05,2.78.07,5.56.57,8.32.5,3.2-.08,6.4-.68,9.6-.88,6.77-.43,13.55.41,20.36-.38,4.01-.47,8.28.86,12.21.18,3.94-.69,7.72-.29,11.58-.32,6.49-.06,12.99-.33,19.48-.43,3.99-.07,7.99-.18,11.98.02,6.63.34,13.25,1.27,19.88,1.3,8.26.03,16.44.6,24.63,1.47,2.77.29,5.62.22,8.4,0,3.78-.3,7.53-1.09,11.31-1.33,3.77-.24,7.56,0,11.35-.06,6.07-.11,12.14-.35,18.21-.45,4.79-.07,9.57-.01,14.36-.01,2.72,0,5.45.03,8.17-.02.56-.01,1.11-.36,1.67-.55-.27-.4-.56-.8-.8-1.21-.49-.83-1.02-1.64-1.43-2.5-3.48-7.51-7.08-14.88-11.71-21.85-3.45-5.2-6.8-10.51-10.38-15.63-2.61-3.74-5.59-7.21-8.36-10.83-1.33-1.73-2.7-3.45-3.79-5.33-2.15-3.7-3.96-7.59-6.23-11.2-.79-1.26-1.24-1.69.39-2.3.42-.16.65-.8.98-1.22-.61-.3-1.37-.99-1.8-.82-1.54.59-2.42-.11-3.49-1.04-.85-.75-2.04-1.49-3.11-1.56-3.35-.2-6.72-.14-10.07-.06-3.11.07-6.22.39-9.32.44-4.95.08-9.89.1-14.84,0-4.15-.09-8.29-.42-12.43-.57-.49-.01-1.38.45-1.45.81-.31,1.65-.44,3.34-.53,5.02-.2,3.9-.74,7.84-.39,11.69.5,5.54-1.75,10.71-1.53,16.16,0,.16.05.35-.01.47-1.45,2.35-2.45,4.72-.98,7.49.29.54.24,1.52-.07,2.07-1.29,2.31-1.21,4.79-1.38,7.31-.21,3.08-.82,6.13-1.39,9.17-.52,2.75-2.86,4.16-5.55,3.04-2.72-1.13-5.45-1.37-8.29-1.24-2.87.13-5.74.36-8.61.46-5.83.2-11.66.38-17.49.47-4.7.08-9.42.14-14.12-.02-4.08-.14-8.13.41-12.26-.75-2.57-.72-5.6.35-8.41.28-8.44-.22-16.87-.62-25.31-.91-5.27-.19-10.55-.4-15.82-.44-2.07-.02-3.48-.73-4.56-2.46-1.04-1.69-3.03-1.55-4.3.03-.51.63-1.36,1.29-2.11,1.37-1.83.2-3.7.01-5.55.07-10.5.3-21,.85-31.49.89-14.53.05-29.06-.27-43.59-.42-3.2-.03-6.4-.05-9.6.02-1.45.03-2.89.48-4.33.42-5.34-.23-10.68-.62-16.02-.91-1.11-.06-2.23.04-3.33-.02-2.04-.12-4.71-2.08-4.81-3.59-.36-5.13-.77-10.26-.93-15.39-.16-4.94-.15-9.89,0-14.83.2-6.62.93-13.23.79-19.83-.07-3.49,1.71-5.82,3.08-8.53.24-.49.47-.99.71-1.48-.56-.19-1.12-.56-1.67-.53-2.48.09-4.95.36-7.42.42-3.26.08-6.51.07-9.77,0-6.76-.13-13.52-.2-20.27-.49-8.16-.36-16.31-1.13-24.48-1.35-9.07-.24-18.14,0-27.21-.08-3.85-.02-7.7-.3-11.54-.45-.47-.02-1.04-.17-1.41.03-.5.28-1.26.88-1.21,1.26.36,2.83.88,5.64,1.36,8.94M447.59,455.74c.49-.16.98-.45,1.47-.45,6.87-.03,13.76-.2,20.62.02,9.96.31,19.91.93,29.87,1.38,4.53.21,9.07.34,13.6.48,5.67.17,11.34.35,17.02.47,2.88.06,5.76,0,8.65,0,7.88,0,15.76.01,23.64-.02.88,0,1.78-.48,2.66-.42,3.76.24,7.5.75,11.26.88,4.44.16,8.88.03,13.32.03,3.07,0,6.14-.12,9.2.03,3.12.16,6.24.86,9.36.85,3.52-.01,7.03-.66,10.56-.84,1.75-.09,3.53.27,5.29.38,3.42.2,6.83.44,10.25.5,1.84.03,3.68-.4,5.51-.4,1.03,0,2.06.44,3.08.68,0-1.14-.03-2.28.02-3.41.13-2.82.3-5.63.47-8.45.14-2.24.37-4.46.45-6.7.08-2.01.09-4.02,0-6.03-.18-3.83-3.58-.65-4.86-2.17-.12-.14-.42-.13-.65-.14-7.15-.17-14.3-.34-21.45-.48-2.17-.04-4.34.04-6.5-.01-4.96-.13-9.92-.43-14.87-.41-2.41,0-4.8.7-7.22.87-7.73.54-15.47.94-23.2,1.48-1.79.12-3.56.92-5.32.86-4.74-.14-9.47-.65-14.2-.85-1.91-.08-3.85.52-5.75.39-5.29-.35-10.55-.96-15.83-1.36-2.08-.16-4.17.04-6.26-.04-1.84-.07-3.76-.72-5.49-.36-2.49.52-4.75.42-7.07-.49-.59-.23-1.38-.05-2.06.06-1.4.23-2.78.73-4.18.77-3.52.12-7.04.1-10.55.02-4.16-.09-8.33-.35-12.49-.43-1.2-.02-2.41.44-3.61.42-2.18-.04-4.36-.39-6.55-.42-4.39-.07-8.78-.02-13.17-.02h-16.74c-7.16,0-14.33.05-21.49-.02-3.77-.04-7.53-.31-11.3-.45-4.85-.18-9.71-.35-14.56-.47-2.65-.06-5.29,0-7.93,0-3.36,0-6.72.06-10.07-.02-3.77-.09-7.54-.39-11.31-.44-5.42-.08-10.84-.08-16.26,0-5.09.07-10.18.34-15.27.44-3.36.07-6.72.01-10.08.01-4.57,0-9.16-.19-13.72.05-4.73.24-9.43,1.04-14.16,1.34-5.03.33-10.07.33-15.11.52-2.79.11-5.58.46-8.37.44-6.23-.06-12.45-.39-18.68-.42-4.16-.01-8.33.36-12.49.42-4.79.08-9.57-.03-14.35.04-2.79.04-5.59.5-8.37.41-7.01-.2-14.02-.53-21.02-.93-6.79-.39-13.56-.98-20.35-1.39-4.13-.25-8.27-.36-12.41-.49-5.48-.18-10.97-.46-16.45-.45-7.79.02-15.58.27-23.36.45-5.6.13-11.19.29-16.78.47-4.06.13-8.12.35-12.18.46-6.67.19-13.35.27-20.03.51-2.67.1-5.34.44-7.99.79-3.6.46-7.17,1.18-10.77,1.52-3.65.34-7.32.39-10.98.51-2.01.06-4.02-.05-6.03.02-2.66.1-5.32.41-7.98.42-2.31,0-4.63-.48-6.94-.39-2.89.11-5.76.65-8.65.88-2.23.18-4.14,2.63-3.8,4.88.41,2.73.77,5.49.94,8.25.16,2.48-.11,4.98.11,7.45.07.81.99,2.09,1.67,2.2,3.27.53,6.59.92,9.91,1.01,6.54.17,13.05,1.16,19.63.57,4.46-.41,8.96-.28,13.44-.54,7.1-.41,14.2-.98,21.3-1.39,4.32-.25,8.65-.34,12.97-.49,4.32-.16,8.65-.3,12.97-.48,3.13-.13,6.27-.33,9.4-.46,4.37-.18,8.75-.33,13.12-.48,4.85-.17,9.7-.37,14.55-.47,9.16-.2,18.32-.38,27.48-.46,3.11-.02,6.21.36,9.32.43,3.28.08,6.56.02,9.84.02,6.64,0,13.27.06,19.91-.01,9.48-.1,18.95-.31,28.44-.46,2.25-.03,4.5-.05,6.74,0,5.67.13,11.34.37,17.02.45,5.1.08,10.2.07,15.31,0,6.23-.09,12.46-.29,18.68-.46,5.43-.15,10.87-.29,16.3-.48,3.29-.11,6.58-.33,9.88-.46,8.43-.33,16.86-.72,25.3-.93,5.82-.14,11.64,0,17.45-.05,1.04,0,2.1-.49,3.13-.41,3.05.21,6.08.68,9.13.88,2.29.15,4.6-.06,6.89.05,5.58.26,11.16.8,16.74.88,5.51.08,11.03-.45,16.54-.37,5.84.09,11.68.78,17.53.85,6.27.07,12.55-.27,19.31-.42M476.39,268.46c-.16-.49-.42-.97-.46-1.47-.34-5.34-.7-10.68-.95-16.02-.23-4.75-.15-9.51-.54-14.24-.51-6.19-1.39-12.31-.99-18.57.26-3.98-.27-8.01-.37-12.02-.02-.8.38-1.61.43-2.42.2-2.89.33-5.79.49-8.69.15-2.55.15-5.13.52-7.65.43-2.95-.57-4.34-3.53-4.37-.76,0-1.51-.23-2.27-.25-2.46-.08-4.92-.26-7.36-.14-1.94.1-3.87.82-5.81.83-3.5.03-7.01-.26-10.51-.42-.24,0-.48.02-.72,0-4.75-.47-9.59-1.77-14.21-1.22-6.04.72-12.02.72-18.04.74-4.52.02-9.04.06-13.56-.01-2.87-.05-5.89-.94-8.57-.32-4.84,1.13-9.67.41-14.48.79-1.92.16-3.86-.03-5.79.04-3.35.12-6.69.34-10.04.45-2.08.07-4.18.06-6.26,0-2.46-.07-3.66.94-3.59,3.33.11,4.06.43,8.11.43,12.17,0,4.25-.28,8.49-.44,12.73-.01.39-.05.77-.1,1.15-.6,4.03-1.33,8.06-1.74,12.11-.19,1.88.5,3.85.37,5.74-.31,4.17-1.26,8.33-1.3,12.5-.09,8.42.2,16.84.42,25.26.09,3.52,1.01,4.26,4.55,4,.66-.05,1.29-.4,1.95-.44,6.05-.35,12.11-.95,18.16-.9,11.77.08,23.57-.85,35.3.88,2.25.34,4.49.68,6.74.94,1.57.18,3.16.11,4.72.32,4.72.64,9.43,1.98,14.13,1.93,6.96-.08,13.91-1.16,20.87-1.74,1.92-.16,3.87.11,5.79-.05,4.57-.4,9.12-1.03,13.69-1.37,2.81-.21,3.05-.27,3.07-3.6M203.43,379.59c5.02-.32,10.04-.84,15.07-.9,5.67-.07,11.34.29,17.02.41,2.88.06,5.77.03,8.65-.01.41,0,.81-.33,1.21-.51-.33-.45-.57-1.03-1-1.33-6.91-4.84-14.65-7.88-22.74-9.98-5.49-1.42-11.13-2.26-16.69-3.4-5.26-1.07-10.53-2.09-15.73-3.42-1.06-.27-2.28-1.68-2.6-2.81-1.31-4.56-2.42-9.18-3.38-13.83-.81-3.91-1.35-7.87-1.93-11.82-.39-2.66-.72-5.34-.95-8.02-.24-2.86-.46-5.74-.44-8.6,0-1.61.71-3.12,2.36-3.84,2.28-.99,4.76-1.66,6.86-2.95,3.45-2.13,6.73-4.55,9.92-7.06,1.28-1.01,2.63-2.42,3.09-3.91,1.66-5.37,3.03-10.82,4.34-16.29.68-2.85,1.06-5.78,1.44-8.69.28-2.14.59-4.32.45-6.46-.31-4.73-1.12-9.43-1.31-14.16-.16-4.04-1.13-7.7-3.42-10.98-1.3-1.87-2.91-3.54-4.21-5.41-3.79-5.44-7.21-11.35-13.86-13.75-5.05-1.83-5.62-5.86-5.66-10.18-.04-4.16.25-8.33.45-12.49.03-.74.29-1.46.46-2.18,1.14-4.7-.29-6.88-4.28-6.34-.54.07-1.3.98-1.36,1.56-.18,1.75,0,3.54-.08,5.31-.13,2.79-.64,5.46-2.33,7.84-.82,1.16-1.41,1.62-2.93,1-2.63-1.08-4.39.65-3.84,3.46.08.44-.12,1.07-.42,1.41-.15.16-1-.02-1.24-.3-1.35-1.56-3.47-3.06-3.73-4.82-.68-4.56-.61-9.23-.61-13.86,0-.71,1.18-1.42,1.81-2.13.17-.2.31-.41.47-.62-.25-.11-.5-.31-.76-.31-1.51-.03-3.03-.13-4.52.05-.51.06-1.28.84-1.33,1.36-.28,2.86-.37,5.73-.54,8.6-.31,5.02-.62,10.05-.97,15.07-.06.89-.38,1.77-.44,2.66-.16,2.04-.04,4.12-.39,6.12-.63,3.67-4.16,4.66-6.6,6.65-2.54,2.08-6.04,3.67-7.42,6.35-1.8,3.49-4.24,6.8-4.39,11.33-.14,4.14-2.41,8.16-3.35,12.32-.83,3.68-1.23,7.47-1.62,11.23-.22,2.12.02,4.28-.05,6.42-.09,2.34-.83,4.79-.34,7,.75,3.38,1.45,6.88,4.84,9.17,3.35,2.26,6.21,5.24,9.38,7.77,1.87,1.49,4.1,2.54,5.86,4.13,1.16,1.05,2.38,2.65,2.52,4.11.58,5.87.78,11.78,1.03,17.68.05,1.27-.49,2.58-.41,3.85.18,2.65.73,5.28.88,7.93.26,4.61.37,9.23.49,13.84.06,2.09.05,4.18,0,6.27-.11,5.35-2.13,6.95-7.21,5.93-.52-.11-1.68.55-1.73.96-.42,3.3-3.21,4.06-5.53,4.91-3.32,1.22-6.86,1.81-10.29,2.74-4.2,1.14-8.4,2.3-12.57,3.55-2.25.67-4.45,1.5-6.63,2.37-.34.13-.46.84-.68,1.27.43-.01.86,0,1.29-.05,3.32-.4,6.65-1.28,9.95-1.14,6.89.32,13.74,1.47,20.63,1.71,5.11.18,10.25-.65,15.39-.83,7.57-.26,15.15-.39,22.73-.47,1.99-.02,3.99.44,5.99.41,3.9-.05,7.8-.26,11.7-.45,1.92-.1,3.83-.31,6.23-.46M461.63,359.37c-4.51.4-9.02.89-13.54,1.16-4.71.28-9.44.28-14.15.52-4.47.23-8.94.64-13.41.92-1.53.09-3.09-.14-4.59.04-4.39.53-8.71,1.09-13.22.56-6.4-.75-12.89-.8-19.34-1.03-1.83-.06-3.67.38-5.51.42-3.3.07-6.61-.08-9.91.04-6.61.25-13.22.71-19.83.9-5.02.15-10.04.03-15.07.03-.47,0-.96.04-1.43,0-5.69-.62-11.36-1.46-17.06-1.84-4.6-.31-9.25-.2-13.87,0-1.51.07-3.26.53-2.85,3.08.44,2.74.45,5.57.51,8.36.03,1.2-.48,2.42-.4,3.6.21,3.45.81,6.87.86,10.32.06,4.37-.29,8.74-.38,13.12,0,.47.49,1.33.82,1.36,5.53.56,11.07,1.2,16.62,1.43,4.07.16,8.17-.37,12.25-.38,3.34,0,6.69.32,10.03.43,2.08.07,4.18-.08,6.26.03,4.55.25,9.1.84,13.64.87,6.75.05,13.51-.28,20.26-.41,2.56-.05,5.13-.07,7.69,0,10.58.29,21.15.65,31.72.93,3.52.09,7.03.01,10.55.01,4.47,0,8.98-.4,13.39.12,4.04.47,7.85,0,11.81-.49,5.84-.72,11.78-.81,17.68-1.02,2.07-.07,4.15.4,6.23.42,5.58.06,11.15.02,16.73.02h7.93c2.72,0,5.45.1,8.17-.02,5.58-.25,11.15-.76,16.74-.87,2.72-.05,3.66-.02,3.75-3.95.08-2.91.5-5.83.93-8.73.55-3.72,1.27-7.4,1.87-11.11.98-6.03,1.82-12.07,2.89-18.08.79-4.39.9-4.45-3.5-4.36-10.81.23-21.63-.57-32.45.86-5.68.75-11.46.68-17.2,1.04-7.13.44-14.25.95-21.62,1.66M219.14,127.82c-1.29-2.88-2.47-5.81-3.9-8.61-1.51-2.96-3.65-5.64-4.83-8.71-2.79-7.25-5.28-14.63-7.7-22.02-1.08-3.3-1.42-6.86-2.63-10.09-1.6-4.24-3.72-8.29-5.65-12.41-.91-1.92-1.97-3.78-2.84-5.72-1.57-3.55-2.98-7.17-4.57-10.71-1.38-3.08-2.93-6.08-4.34-9.15-.74-1.61-1.95-2.27-3.63-2.04-.54.07-1.2.37-1.49.79-.17.23.29.92.49,1.4.28.67.87,1.36.83,2.01-.21,3.53-.46,7.06-.93,10.55-.67,4.92-1.61,9.8-2.34,14.72-.83,5.62-1.58,11.24-2.31,16.88-.09.67.41,1.47.22,2.08-2.27,7.25-2.11,14.82-3.09,22.25-.5,3.77-.34,7.63-.55,11.44-.28,5.34-.68,10.68-.93,16.02-.37,7.95-.7,15.91-.95,23.87-.12,3.85-.02,7.71-.02,11.58,0,1.74.19,3.52-.03,5.23-.74,5.6-.21,6.37,5.22,6.81.16.01.32,0,.48,0,6.46.47,12.92,1.17,19.39,1.35,4,.11,8.03-.56,12.05-.87.63-.04,1.3-.14,1.9.01,4.37,1.13,8.62.25,12.88-.72,1.24-.28,2.49-.66,3.74-.69,4.07-.09,8.14,0,12.21-.07.35,0,.69-.53,1.04-.81-1.74-1.82-1.41-4.17-1.87-6.38-1.08-5.2-2.1-10.39-4.09-15.41-2.92-7.36-5.13-15-7.73-22.49-1.15-3.32-2.51-6.56-4.02-10.08M168.93,77.61c.16-.81.38-1.61.46-2.42.37-3.5.57-7.03,1.09-10.51.61-4.07,1.42-8.11,2.28-12.14.94-4.43,2.01-8.83,3.1-13.23.21-.84.61-1.53-.77-1.44-2.63.17-5.27.29-7.89.53-.28.02-.81.86-.72.99,1.09,1.65-.11,2.79-.87,3.95-4.74,7.17-9.59,14.26-14.26,21.47-2.45,3.78-4.61,7.76-6.93,11.64-1.66,2.8-3.39,5.57-5.03,8.39-.7,1.2-1.14,2.56-1.89,3.73-1.32,2.08-2.87,4.03-4.16,6.13-3.42,5.56-6.86,11.1-10.08,16.77-2.39,4.21-4.92,8.45-6.56,12.97-2.76,7.6-5.08,15.38-7.18,23.2-1.75,6.54-2.73,13.29-4.42,19.84-1.13,4.39-1.93,8.71-2.01,13.27-.03,1.55.19,1.33,1.16,1.35,8.29.15,16.58.3,24.87.49.89.02,1.78.45,2.66.43,4.09-.1,8.17-.37,12.26-.43,5.31-.08,10.63-.07,15.94,0,2.11.03,3.82.04,3.3-2.91-.22-1.25-.04-2.59-.04-3.88,0-2.25.06-4.5-.02-6.74-.05-1.61-.49-3.21-.41-4.8.21-4.32.62-8.62.9-12.93.09-1.34-.22-2.75.07-4.03.43-1.91-.04-4.29,2.3-5.44.15-.07.1-.54.15-.82-.28.04-.59.17-.83.1-.31-.1-.83-.37-.82-.55.32-5.88.82-11.75,1.02-17.64.18-5.1-.09-10.21.07-15.31.15-4.63.6-9.26.92-13.89.02-.37.13-.74.19-1.11.73-4.85,1.46-9.71,2.19-15.04M274.35,170.18c-1.03-2.67-2.15-5.31-3.08-8.01-2.43-7.09-4.77-14.21-7.16-21.31-3.07-9.12-6.55-18.06-10.93-26.65-2.8-5.5-5.42-11.08-8.11-16.63-.96-1.98-1.85-4-2.86-5.95-2.21-4.25-4.41-8.5-6.75-12.67-2.21-3.94-4.58-7.78-6.88-11.67-.68-1.15-1.24-2.38-2.04-3.43-2.35-3.09-4.85-6.07-7.2-9.17-1.39-1.85-2.54-3.88-3.9-5.75-1.65-2.26-3.34-4.48-5.13-6.64-1.17-1.41-2.3-3.29-3.84-3.82-2.18-.76-4.73-.57-7.12-.61-4.07-.07-8.15-.02-12.22,0-.36,0-.71.16-1.07.25.18.33.32.67.53.97,1.95,2.92,4.23,5.67,5.82,8.78,3.91,7.66,8.69,14.87,11.76,22.97.67,1.78,1.76,3.41,2.33,5.22,2.79,8.92,5.29,17.94,8.26,26.81,1.55,4.64,4.03,8.96,5.78,13.54,3.08,8.09,6,16.24,8.81,24.43,1.37,3.97,2.12,8.16,3.57,12.09,2.07,5.6,4,11.21,5.65,16.95,1.04,3.64,2.23,7.14,2.27,10.95,0,.39.54,1.12.76,1.09,1.56-.18,3.1-.55,4.65-.8,4.18-.65,8.34-1.45,12.54-1.87,5-.5,10.04-.73,15.07-.96,1.39-.06,1.86-.61,1.68-1.86-.29-2.02-.62-4.02-1.18-6.27M87.78,180.65c3.13.48,6.27.97,9.41,1.42,1.01.14,1.93-.1,1.09-1.35-2-3-.86-6.13-.38-9.16.34-2.07,2.14-4.17,1.83-6.02-.58-3.44.98-6.26,1.64-9.29.84-3.85,2.52-7.5,3.77-11.26,2.49-7.46,4.77-14.99,7.46-22.38,1.45-3.98,3.49-7.76,5.42-11.55,2.11-4.13,4.42-8.16,6.64-12.24,1.06-1.94,2.22-3.83,3.16-5.83,2.75-5.84,5.35-11.75,8.12-17.57,1.11-2.33,3.04-4.36,3.74-6.77,1.41-4.83,5.3-8.06,7.39-12.41.77-1.61,2.26-2.85,3.27-4.37,3.25-4.9,6.86-9.4,12.27-12.1.25-.13.56-.48.55-.72,0-.23-.41-.68-.59-.66-2.65.27-5.55.02-7.89,1.04-4.44,1.95-8.54,4.65-12.8,7.01-4.72,2.6-9.31,5.37-13.02,9.36-4.42,4.75-8.94,9.42-13.26,14.27-2.53,2.84-4.86,5.87-7.1,8.95-2.9,4-5.68,8.09-8.39,12.23-3.71,5.66-7.79,11.16-10.83,17.17-3.96,7.83-7.31,16.01-10.47,24.21-2.25,5.82-4.04,11.87-5.45,17.95-1.25,5.36-1.67,10.91-2.48,16.37-.38,2.53-.66,5.09-1.29,7.56-.47,1.85.53,2.92,1.78,3.22,5.25,1.26,10.44,2.93,16.41,2.93M376.92,349.85c-3.47-.23-6.98-.24-10.4-.76-7.27-1.11-14.49-2.53-21.75-3.74-2.85-.47-5.76-.62-8.61-1.07-3.33-.52-6.61-1.44-9.96-1.75-4.81-.45-9.28-2.06-13.65-3.84-4.15-1.7-4.1-2-6.57,1.69-2.44,3.65-4.79,7.37-7.08,11.11-.32.52-.16,1.34-.13,2.02,0,.04.72.12,1.1.09,4.05-.37,8.09-.93,12.14-1.07,3.26-.12,6.53.25,9.79.42.44.02.89.14,1.33.23,3.43.71,6.85,1.95,10.29,2.05,10.17.28,20.36.16,30.53.08,7.1-.05,14.2-.41,21.3-.42,6.6,0,13.19.4,19.79.41,6.12,0,12.26-.02,18.35-.56,2.68-.24,5.32-.26,7.98-.42,3.95-.23,7.85-1.02,11.79-1.33,5.65-.44,11.31-.66,16.97-.99,2.48-.14,4.95-.27,7.42-.48,3.28-.27,6.61-1.12,9.82-.79,2.84.29,5.6.53,8.47.39,4.93-.23,9.89.12,14.82-.12,4.18-.2,8.32-1.04,12.5-1.34,6.28-.44,12.58-.78,18.88-.92,1.92-.04,1.67-1.13,1.42-2.06-.66-2.48-1.43-4.95-2.37-7.34-.67-1.7-1.32-3.64-2.59-4.83-5.97-5.62-10.62-12.21-15.11-18.99-2.26-3.41-5.34-6.3-6.22-10.53-.1-.47-.53-.88-.82-1.32-1.46-2.25-3-4.45-4.35-6.77-.98-1.67-2.16-2.64-4.18-2.5-5.26.35-10.53.6-15.78.98-3.05.22-6.09.6-9.13.95-.41.05-.86.31-1.14.62-.12.13.06.82.26.92,3.37,1.61,4.42,5.11,6.17,7.91,3.08,4.91,2.04,10.39.15,15.29-2.76,7.16-7.53,13.04-14.79,16.09-5.47,2.3-11.22,3.95-16.88,5.77-3.5,1.11-7.13,1.32-10.81,1.57-4.46.3-8.87,1.48-13.3,2.26-1.78.31-3.56.58-5.35.87-3.12.51-6.23,1.07-9.37,1.49-3.1.42-6.22.76-9.34,1.01-4.39.36-8.79.79-13.19.85-2.72.03-5.45-.57-8.41-1.13M255.07,81.41c-.39-.55-.72-1.16-1.19-1.65-3.68-3.87-7.38-7.71-11.06-11.56-3.58-3.74-7.1-7.53-10.76-11.2-3.5-3.5-7.13-6.86-10.74-10.26-.27-.25-.77-.26-1.16-.39.07.44,0,1,.24,1.29,2.09,2.49,4.28,4.88,6.35,7.38,1.8,2.16,3.57,4.36,5.18,6.67.43.63.6,1.94.23,2.52-1.04,1.66-.2,2.26,1.07,3.01,1.23.72,2.68,1.42,3.43,2.54,2.63,3.95,5.19,7.96,7.41,12.15,2.3,4.33,4.05,8.95,6.26,13.34,3.54,7.03,7.43,13.88,10.87,20.96,2.78,5.73,5.33,11.6,7.59,17.55,2.19,5.77,4.09,11.66,5.71,17.62,1.25,4.56,3.87,8.72,3.91,13.63,0,.4.39.78.52,1.2.47,1.47,1.24,2.95,1.27,4.44.05,2.05.24,3.97,1.54,5.57.53.66,1.46,1.45,2.18,1.43,2.9-.11,5.79-.51,8.68-.81,1.44-.15,3.05.03,4.28-.56,1.54-.74,4.41-.55,3.83-3.53-.72-3.72-1.5-7.44-2.57-11.07-1.4-4.79-3.12-9.49-4.65-14.24-.39-1.2-.22-2.73-.91-3.65-3.66-4.79-4.89-10.69-7.51-15.95-1.47-2.94-2.53-6.11-4.07-9.01-2.32-4.37-4.8-8.66-7.41-12.87-2.55-4.13-5.16-8.25-8.08-12.11-3.2-4.22-6.79-8.15-10.45-12.44M458.54,161.61c-3.58.16-7.16.38-10.75.46-7.73.2-15.46.31-23.19.5-4.96.12-9.92.39-14.87.44-7,.08-14.01.07-21.01,0-3.76-.04-7.53-.44-11.3-.42-6.91.04-13.82.29-20.74.43-1.93.04-3.89-.2-5.79.05-3.8.49-7.57,1.22-11.35,1.87-.83.14-1.56.28-.57,1.37,1.39,1.52,2.55,3.24,3.91,4.78,1.09,1.24,2.29,2.38,3.49,3.52,2.18,2.07,4.19,4.21,7.77,3.72,4.19-.58,8.45-.81,12.68-.99,6.11-.26,12.24-.34,18.35-.5.48-.01.96.03,1.43,0,3.59-.31,7.18-.76,10.79-.9,2.41-.09,4.84.25,7.26.43,1.52.12,3.06.53,4.56.43,5.6-.38,11.18-1.2,16.78-1.32,9.82-.22,19.66-.08,29.49-.04,1.04,0,2.29.74,3.1.38,3.94-1.72,8.02-.48,12.01-.88,1.21-.12,2.41-.34,3.61-.46,1.03-.11,2.29.22,3.05-.27,1.91-1.25,3.52-2.95,5.39-4.28,3.11-2.21,6.31-4.27,9.47-6.41.35-.24.63-.57.95-.86-.41-.19-.84-.55-1.24-.54-2.48.1-4.96.49-7.42.41-5.26-.19-10.52-.66-15.78-.89-3.19-.14-6.4-.02-10.07-.02M498.28,226.58c-.16-.81-.47-1.62-.45-2.42.1-4.08.37-8.16.42-12.25.02-1.99-.43-3.99-.41-5.99.02-2.82.38-5.63.42-8.45.07-5.28.02-10.57.02-15.86,0-3.83,0-7.67,0-11.5,0-.39.05-.78.03-1.17-.03-.81-.09-1.62-.14-2.44-.71.3-1.52.47-2.11.92-4.17,3.16-8.34,6.33-12.43,9.6-.85.68-1.77,1.72-1.94,2.72-.41,2.43-.54,4.93-.52,7.4.02,3.53.47,7.06.39,10.59-.08,3.52-.77,7.03-.85,10.55-.08,3.45.24,6.9.44,10.35.07,1.21.63,2.48.4,3.6-.6,2.94-1.11,5.76-.03,8.77.46,1.28-.07,2.91-.14,4.39-.06,1.22-.17,2.45-.13,3.67.07,2.11.25,4.23.36,6.34.1,1.9,0,3.82.27,5.69.61,4.08,1.58,8.11,2.07,12.2.59,4.99-.24,10.57,6.35,12.46.26.08.44.45.68.65,2,1.68,3.98,3.38,6.01,5.02.32.26.86.24,1.3.36,0-.42,0-.85-.01-1.28,0-.9-.06-1.8.01-2.7.11-1.36.46-2.72.43-4.08-.08-4.4-.35-8.8-.43-13.2-.08-4.44-.06-8.88,0-13.32.02-1.68.87-3.57.34-4.99-1.32-3.53-.65-7.07-.8-10.59-.06-1.51.28-3.04.44-5.03M199.15,385.3c-8.11,0-16.23,0-24.34.02-.74,0-1.47.3-2.22.35-2.77.22-5.55.52-8.32.55-2.42.02-5.01-.9-7.21-.27-2.27.65-3.07-1.64-4.26-1.42-1.45.27-2.48,1.88-4.48,1.81-3.39-.12-6.81.39-10.21.49-4.15.13-8.31.29-12.45.11-3.33-.14-6.73-1.41-9.94-.99-3.34.43-6.6.14-9.89.31-1.34.07-2.21-.32-2.63-1.69-.15-.46-.72-.79-1.1-1.18-.09.59-.31,1.2-.25,1.77.26,2.41.66,4.81.92,7.22.28,2.66,1.04,3.49,3.78,3.36,4.79-.23,9.56-.72,14.35-.88,2.62-.09,5.25.37,7.89.41,4.79.07,9.57.02,14.35.02h10.94c5.65,0,11.31-.02,16.97.02.88,0,1.78.48,2.65.42,3.12-.23,6.24-.75,9.36-.87,2.3-.09,4.63.47,6.94.39,4.95-.18,9.88-.6,14.83-.91.63-.04,1.28.08,1.9-.01,3.94-.61,7.86-1.41,11.82-1.85,3.48-.38,7-.33,10.5-.53,4.79-.28,9.57-.62,14.35-.95,1.74-.12,2.56-1.05,2.68-2.85.1-1.48.51-2.94.81-4.41.09-.44.4-1.21.3-1.26-.51-.27-1.13-.55-1.67-.48-1.78.22-3.54.67-5.32.9-1.93.24-3.89.31-5.83.5-1.05.11-2.08.43-3.13.44-3.51.06-7.04-.13-10.54.05-7.02.37-14.04.92-21.53,1.4M73.02,107.83c-1.63,2.9-3.33,5.75-4.86,8.7-1.76,3.38-3.36,6.86-5.07,10.27-1.32,2.63-2.82,5.18-3.99,7.86-1.29,2.95-2.27,6.04-3.46,9.04-1.54,3.88-3.34,7.67-4.7,11.61-1.42,4.11-2.53,8.32-3.61,12.54-.58,2.25-.92,4.58-1.11,6.89-.04.5.98,1.53,1.55,1.57,5.16.28,10.34.31,15.5.58,2.06.11,2.77-.84,2.86-2.64.17-3.61.28-7.22.49-10.82.36-6.02.55-12.06,2.35-17.89.61-1.98.9-4.06,1.46-6.06,1.39-4.97,2.66-9.98,4.33-14.86,1.3-3.8,3.35-7.35,4.65-11.15,2.02-5.92,5.45-11.08,8.38-16.51,1.09-2.03,2.6-3.83,3.82-5.8,1.41-2.26,2.46-4.78,4.1-6.85,3.53-4.45,7.25-8.76,11.04-12.99,3.35-3.73,6.86-7.33,10.4-10.87,1.63-1.63,3.46-3.06,5.28-4.46,4.79-3.71,9.65-7.35,14.44-11.06.39-.3.49-.98.73-1.49-.55.19-1.19.24-1.64.57-4.27,3.11-8.61,6.14-12.74,9.43-5.09,4.06-10.17,8.17-14.94,12.61-3.69,3.43-6.9,7.38-10.28,11.13-3.89,4.32-7.92,8.54-11.57,13.07-4.56,5.65-8.79,11.56-13.4,17.6M329.32,271.79v1.19c0,3.75,0,3.73,3.79,2.87,1.68-.38,3.39-.6,5.07-.98,1.37-.31,2.2-.91,2.14-2.65-.16-4.49-.11-8.99-.04-13.49.1-6.31.33-12.61.45-18.92.06-3.35,0-6.71,0-10.07,0-3.44-.27-6.9.07-10.3.56-5.57,1.68-11.07,2.26-16.64.42-4.11.36-8.27.54-12.41.02-.43.31-.86.31-1.29.04-2.47,1.65-5.03-.44-7.4-2.15-2.43-4.36-4.82-6.35-7.38-.68-.87-.82-2.19-1.13-3.32-.12-.42-.05-.88-.07-1.32-.62.24-1.7.39-1.77.72-.33,1.72-.58,3.51-.49,5.25.1,2.02.79,4.02.83,6.04.06,2.7-.29,5.42-.42,8.13-.19,3.9-.34,7.8-.47,11.7-.05,1.37.06,2.75-.05,4.12-.43,5.68-.92,11.35-1.39,17.03-.05.6-.17,1.2-.27,1.79-.38,2.06-1.23,4.16-1.07,6.18.53,6.89.95,13.71-1.96,20.25-.17.39-.08.95.02,1.4.27,1.31.85,2.6.86,3.91,0,2.94-.31,5.89-.41,8.84-.07,2.08-.01,4.18-.01,6.74M173.69,10.03c-.11.43-.18.87-.34,1.28-1.15,2.93-2.46,5.81-3.43,8.8-1.08,3.33-3.54,4.14-5.94,1.56-1.53-1.65-2.72-3.61-4.11-5.41-.26-.33-.71-.52-1.07-.77-.11.41-.37.83-.32,1.22.49,4.17,1.02,8.34,1.57,12.5.21,1.52.97,2.15,2.66,2.04,2.87-.19,5.76.1,8.63-.08,10.13-.62,20.11.84,30.11,1.94,5.22.57,5.27.64,6.46-4.05.75-2.95,1.33-5.96,1.92-8.95.35-1.78-1.55-3.87-2.96-3.13-2.16,1.13-4.07,2.72-6.15,4.03-1.24.78-2.69,2.07-3.85,1.89-1.04-.15-2.27-1.87-2.65-3.13-.9-2.98-1.33-6.11-2.01-9.16-.14-.62-.5-1.19-.76-1.78-.59.29-1.26.5-1.75.91-.44.37-.73.94-1.03,1.46-1.36,2.45-2.57,4.99-4.13,7.3-.59.86-1.96,1.56-3.02,1.62-.84.05-2.36-.86-2.51-1.57-.58-2.66-.73-5.4-1-8.12-.12-1.28.16-2.67-.26-3.83-.42-1.15-1.53-1.6-2.4-.16-.61,1.01-1.13,2.07-1.69,3.58M398.81,304.63c-4.12-.4-8.22-.92-12.34-1.16-7.97-.47-15.83.77-23.69,1.92-2.35.34-4.7.94-6.35,3.03-2.14,2.71-1.56,5.04,1.82,6.05,1.22.37,2.65.06,3.87.43,6.75,2.05,13.76,1.02,20.62,1.78,3.15.35,6.43-.51,9.61-.32,4.68.27,8.57-1.76,12.56-3.59,2.39-1.09,2.86-3.41.72-4.95-1.91-1.38-4.37-2-6.83-3.18M83.02,668.02c.08-3.64.1-7.28.27-10.9.07-1.61-.57-2.04-2.07-1.97-4.36.21-8.73.36-13.1.48-2,.06-4.02.16-6.01-.02-2.68-.25-2.31,1.54-2.14,3.03.56,4.89,1.29,9.76,1.85,14.65.19,1.64-.02,3.32.04,4.98.11,2.65.69,3.3,3.07,3.04,2.31-.25,4.58-.79,6.88-1.12,3.1-.45,6.2-.93,9.32-1.18,1.41-.11,1.69-.68,1.67-1.89-.04-2.95-.01-5.91.22-9.1M582.76,652.78c-1.67.32-3.24.84-3.08,2.96.42,5.43,1.09,10.86,1.33,16.31.08,1.89.9,1.76,2.11,1.67,4.23-.32,8.46-.75,12.7-.9,1.79-.06,2.27-1.04,2.38-2.39.24-3.02.28-6.06.53-9.08.15-1.8.52-3.58.82-5.37.19-1.15.38-2.3-1.34-2.25-4.54.13-9.07.35-13.61.41-.53,0-1.07-.74-1.85-1.38M490.19,285.12c-.56-.56-1.31-1.03-1.65-1.69-1.47-2.91-4.33-3.7-7.04-4.15-2.8-.46-5.75-.17-8.62-.08-2.47.07-4.94.29-7.41.46-4.55.31-9.09.62-13.63.96-.27.02-.53.22-.8.34-.44.19-.87.38-1.31.57.44.33.86.88,1.34.95,5.14.66,8.51,4.43,12.58,6.97,1.14.71,2.66,1,4.03,1.09,1.42.1,2.88-.23,4.32-.42,1.8-.23,3.59-.48,5.39-.77,4.23-.68,8.46-1.39,12.69-2.08.99-.16,1.98-.33,2.97-.5-.87-.47-1.74-.94-2.86-1.65M170.12,191.59c-.22-.54-.4-1.52-.67-1.55-1.73-.17-3.49-.14-5.24-.12-.06,0-.22.54-.18.8.34,1.83.73,3.64,1.09,5.46.48,2.41.93,4.82,1.45,7.22.08.37.49.66.75.99.22-.23.56-.41.63-.68.67-2.25,1.4-4.5,1.88-6.79.35-1.66.36-3.39.28-5.32M295.06,185.65c0-2.42-1.73-2.12-3.31-2.15-1.79-.03-1.51,1.25-1.44,2.29.28,4.14.6,8.28.96,12.42.04.48.41.93.62,1.4.42-.41,1.05-.74,1.24-1.24,1.44-3.95,1.74-8.1,1.94-12.73M100.87,196.59c.16-1.36.48-2.72.42-4.07-.04-.9-.42-2.32-1.01-2.55-1.17-.45-2.6-.23-3.92-.29,0,.32-.15.78,0,.94,2.32,2.43.84,5.33.99,8.01.07,1.29-.25,2.59-.26,3.89,0,.32.49.77.85.91.2.08.78-.3.88-.58.72-1.92,1.36-3.86,2.03-6.27M128,195.16c.05-.85.09-1.7.18-2.54.08-.82.21-1.64.32-2.45-1.44.46-2.99.73-4.25,1.48-.51.31-.37,1.68-.54,2.56-.48,2.56,1.32,5.25-.43,7.76-.09.12.31.82.56.87.34.07.98-.12,1.1-.38,1.07-2.25,2.06-4.54,3.06-7.29M216.05,196.59c.63-2.03,1.29-4.06,1.88-6.1.1-.34.09-.86-.1-1.12-.61-.79-5.09.1-5.05,1.03.16,3.43.56,6.86.91,10.28.03.32.45.6.68.89.24-.29.6-.55.7-.88.37-1.2.65-2.42.97-4.11M239.37,187.55c-1.38.23-2.1.84-1.94,2.44.28,2.76.31,5.55.55,8.32.04.48.59.92.91,1.37.3-.38.75-.71.88-1.14.7-2.24,1.39-4.49,1.96-6.76,1.02-4.04.79-4.45-2.36-4.23M49.23,193.5c.71-2.86,1.5-5.7,2.07-8.58.11-.54-.77-1.82-1.03-1.78-.79.13-2.06.66-2.14,1.19-.5,3.14-.78,6.34-1,9.52-.05.65.45,1.34.69,2.01.39-.71.78-1.42,1.41-2.36M74.22,192.31c-.16,2.22-.37,4.44-.44,6.66-.02.53.41,1.08.62,1.62.28-.4.56-.8.83-1.2,2.63-3.91.84-8.3,1.34-12.44.02-.18-.31-.39-.47-.59-.15.21-.37.4-.44.63-.5,1.61-.96,3.23-1.44,5.32M190.82,190.88c-.95.17-2.72.28-2.73.5-.18,3.22-.17,6.45-.07,9.69.01.5.66.98,1.02,1.47.28-.57.68-1.11.81-1.71.39-1.75.73-3.51.96-5.28.19-1.46.18-2.95.02-4.67M264.83,184.93c-.4.95-1.12,1.89-1.13,2.84-.02,2.63.24,5.26.42,7.89.04.56.25,1.1.38,1.65.42-.48.92-.91,1.24-1.45.22-.36.21-.86.26-1.31.32-2.67.73-5.33.87-8.01.03-.51-1.03-1.07-2.06-1.61M148.94,201.35c-.15-.8-.49-1.62-.42-2.4.21-2.49.65-4.95.84-7.44.04-.58-.56-1.21-.87-1.82-.49.6-1.37,1.19-1.39,1.81-.14,3.47-.11,6.95-.03,10.42.01.68.45,1.35.7,2.03.39-.71.78-1.42,1.17-2.6M373.11,460.27c.05-1.03,2.29-2.12,0-3.03-.46-.19-1.26.48-1.91.76,1.02.53-.44,2.7,1.9,2.27M298.15,341.99c.32-.64.71-1.26.93-1.93.07-.22-.32-.59-.5-.88-.54.46-1.34.83-1.53,1.4-.13.41.55,1.09,1.1,1.41M309.09,322.48c-.14.5-.28.99-.42,1.48.58.14,1.17.42,1.72.37.31-.03.56-.62.84-.96-.56-.3-1.11-.6-2.14-.89M324.32,335.81c.32,0,.66.07.94-.02.42-.13.81-.39,1.2-.59-.74-.27-1.47-.55-2.21-.82-.06.4-.12.8.06,1.43M51.13,431.47c-.55.11-1.11.21-1.66.32.35.47.65.99,1.05,1.4.13.14.72.09.74.02.17-.57.25-1.16-.12-1.74M76.12,462.64c.76.36,1.51.71,2.27,1.07.02-.37.11-1.05.06-1.06-.69-.13-1.39-.18-2.33,0M439.5,308.67c.71-.18,1.43-.35,2.14-.53-.13-.3-.26-.6-.39-.9-.66.4-1.32.8-1.75,1.43M475.2,315.82c.48.31.96.63,1.47.88.04.02.35-.51.53-.79-.59-.11-1.18-.22-2-.1M138.23,78.32c.56-.29,1.11-.57,1.66-.85-.2-.31-.39-.62-.59-.93-.43.51-.87,1.03-1.07,1.78M503.75,428.62c.4-.14.8-.27,1.19-.41-.34-.34-.68-.68-1.02-1.02-.14.4-.27.8-.17,1.43M501.85,259.18c.38.09.77.19,1.15.28-.09-.57-.18-1.14-.26-1.71-.38.4-.75.8-.89,1.43M406.18,285.36c-.42-.32-.84-.63-1.26-.95-.14.31-.27.62-.41.92.48.09.95.18,1.66.03M212.96,265.84c-.36.27-.72.55-1.08.83.54.18,1.07.37,1.61.55-.1-.38-.2-.76-.53-1.37M495.9,289.88c-.48.18-.95.36-1.43.53.14.22.28.44.42.66.41-.32.83-.63,1.01-1.19M370.25,289.88c.34.24.68.48,1.02.71.14-.21.27-.42.41-.63-.4-.11-.79-.21-1.43-.08M231.75,367.93c.34.24.68.48,1.02.72.14-.21.27-.43.41-.64-.4-.1-.79-.21-1.43-.08M63.03,686.1c-.17-.31-.34-.62-.5-.92-.22.22-.44.43-.65.65.31.17.62.34,1.16.27h0Z"></path>
        <path d="M467.23,479.9c3.44-.2,6.77-.3,10.1-.35,2.64-.03,5.29,0,7.93,0,4.95,0,9.9.12,14.84-.03,6.53-.2,13.06-.67,19.59-.9,3.91-.14,7.83-.09,11.74,0,4.3.09,8.6.56,12.89.41,8.32-.29,16.65-.71,24.94-1.48,2.49-.23,4.72-.15,7.05.54.56.16,1.28-.39,1.93-.41,4.37-.2,8.75-.49,13.12-.37.88.02,2.33,1.56,2.49,2.56.71,4.6,1.37,9.26,1.43,13.91.05,3.86-.95,7.72-1.14,11.6-.16,3.23.37,6.5.25,9.74-.25,6.93.32,13.95-1.85,20.71-.09.29,0,.63,0,.95-.16,12.15-.27,24.3-.53,36.45-.03,1.66-.8,3.3-1.22,4.95-.07.29-.21.62-.14.88,2,7.89,1.21,15.93,1.42,23.92.1,3.69.29,7.38.47,11.07.09,1.74-3.1,6.64-4.82,7.35-4.89,2.02-9.82,1.84-15.02,1.11-4.18-.59-8.55.15-12.84.42-2.19.14-4.36.61-6.54.84-6.16.66-12.32,1.32-18.49,1.89-1.75.16-3.54.06-5.31.02-5.67-.14-11.34-.34-17.02-.45-1.29-.02-2.59.33-3.89.34-1.03,0-2.07-.36-3.1-.33-2.16.07-4.31.29-6.46.45-2.1.16-4.2.43-6.31.45-5.95.06-11.9-.09-17.84.06-4.18.11-8.35.68-12.54.88-2.95.15-5.92.07-8.89.02-7.02-.13-14.04-.33-21.06-.46-3.31-.06-6.62.14-9.92-.04-6.79-.37-13.56-.92-20.35-1.39-.39-.03-.79,0-1.19,0-10.99-.47-21.97-1.02-32.96-1.39-5.44-.19-10.89-.11-16.34,0-1.7.04-3.37.76-5.08.87-2.1.13-4.02-1.48-4.37-3.53-.4-2.34-.81-4.7-.94-7.06-.26-4.77-.32-9.55-.52-14.32-.06-1.61-.51-3.21-.41-4.8.2-3.36.67-6.7.94-10.05.11-1.37-.07-2.77-.02-4.15.13-4.37.43-8.75.41-13.13,0-2.17-.72-4.33-.86-6.51-.16-2.48-.1-4.97-.02-7.46.07-2.26.26-4.53.47-6.78.26-3,.68-5.99.87-8.99.15-2.34-.08-4.71.11-7.04.21-2.64.71-5.25,1.03-7.89.17-1.37.14-2.78.39-4.13.27-1.53.77-3.01,1.12-4.53.08-.35-.09-.76-.13-1.14-.19-1.91-.52-3.82-.51-5.73.01-2.73.29-5.47.43-8.21.04-.9-.06-1.8.02-2.7.28-3.28.6-6.56.95-9.84.27-2.49,2.05-4.56,4.41-4.73,2.79-.19,5.61.13,8.4-.08,4.34-.33,8.65-.96,12.98-1.36,1.68-.16,3.38-.02,5.08-.02,3.12,0,6.23.04,9.35-.03,2.5-.07,5.01-.21,7.5-.47,2.48-.26,4.93-.75,7.4-1.07.84-.11,1.73-.1,2.57.05,1.95.34,3.72.65,5.86.28,3.3-.56,6.82.32,10.24.23,4.11-.1,8.2-.65,12.3-.86,1.51-.08,3.04.36,4.57.41,2.24.08,4.49-.03,6.74.03,4.3.12,8.69.92,12.86.28,3.96-.6,7.56.52,11.45.54M495.66,562.36c-5.1,0-10.2-.05-15.31,0-11.43.13-22.86.32-34.3.46-4.31.05-8.62-.1-12.92.03-8.12.24-16.23.6-24.34.96-.53.02-1.13.44-1.54.83-5.06,4.86-10.08,9.76-15.13,14.61-1.17,1.12-2.57,2.02-3.63,3.23-2.11,2.41-3.89,5.14-6.12,7.42-4.73,4.81-9.62,9.45-14.52,14.1-3.91,3.7-7.92,7.29-11.86,10.96-.33.3-.5.77-.74,1.16.54.1,1.08.3,1.63.28,1.42-.04,2.83-.27,4.24-.24,1.36.03,2.72.44,4.08.42,2.55-.05,5.12-.55,7.65-.4,7.43.44,14.87.58,22.28,1.05,7.81.5,15.59,1.54,23.44,1.28.63-.02,1.27-.05,1.9,0,3.12.3,6.24.81,9.36.88,3.05.08,6.11-.24,9.16-.43,1.76-.11,3.52-.44,5.27-.43,2.03,0,4.05.43,6.07.41,4.37-.05,8.75-.33,13.12-.43,7.57-.19,15.15-.26,22.72-.5,7.67-.24,15.33-.75,23-.9,7.95-.16,15.91,0,23.87-.06,2.47-.02,4.96-.2,7.41-.47,6.65-.74,13.32-1.45,19.94-2.44,1.9-.28,3.11-.2,3.97,1.61.12.25,1.24.34,1.25.31,1.03-3.27,3.85-2.79,6.18-2.71,2.21.07,4.4.77,6.58,1.27,1.74.4,5.57-.92,5.93-2.54.33-1.49.92-1.75,2.17-1.69.26.01.54-.32.8-.5-.22-.3-.39-.68-.67-.88-.7-.5-2.07-.9-2.08-1.38-.14-3.94-.08-7.9.04-11.84.08-2.94,1.55-5.87,0-8.83-.2-.38-.14-.91-.12-1.37.15-5.64.28-11.28.48-16.93.1-2.79.34-5.58.43-8.37.01-.42-.34-1.19-.59-1.22-3.35-.4-6.7-.83-10.07-.96-2.38-.09-4.78.32-7.17.42-4.8.2-9.6.25-14.39.51-3.36.18-6.71.69-10.07.91-8.36.53-16.73,1.06-25.1,1.41-4.7.2-9.41.03-14.12.03-.47,0-.96-.06-1.43,0-2.09.29-4.18.63-6.74.94M399.29,499.29c.16-3.74.35-7.48.41-11.22,0-.3-.91-.9-1.33-.85-.52.06-1.38.65-1.4,1.04-.12,2.9-.06,5.81-.06,8.72,0,4.94-.06,9.88,0,14.82.11,8.18.29,16.36.47,24.53.13,5.43.3,10.86.49,16.29.03.96.66,2.09.34,2.84-1.36,3.15.16,6.32-.31,9.46-.05.36.47.86.83,1.2.07.06.66-.3.89-.57.93-1.03,1.73-2.18,2.72-3.13,1.12-1.08,1.31-1.99.89-3.63-.73-2.85-.89-5.87-1.07-8.84-.27-4.32-.24-8.65-.53-12.96-.36-5.3-.98-10.6-1.38-15.9-.26-3.33-.39-6.68-.48-10.03-.08-2.72.02-5.44-.04-8.16-.02-1.04-.3-2.09-.45-3.61M498.99,494.3c-1.59.16-3.19.28-4.78.51-.26.04-.46.55-.7.84.25.18.51.51.75.5,2.71-.11,5.41-.36,8.12-.4,4.74-.07,9.48,0,14.22-.03.4,0,.8-.23,1.19-.36-.41-.2-.8-.52-1.22-.56-2.3-.21-4.6-.42-6.91-.48-3.39-.08-6.79-.02-10.67-.02M424.51,544.98c.28-.44.59-.86.83-1.31.3-.59.91-1.37.73-1.77-.33-.74-1.13-1.29-1.78-1.86-.09-.08-.7.2-.69.26.2,1.64.44,3.28.92,4.68M462.82,495.25c1.21-.32,2.43-.58,3.59-1.01.19-.07.31-1.19.11-1.32-1.05-.71-3.61.7-3.71,2.33M556.82,509.29c-.3-1.24-2.71-2.55-3.71-1.98-.21.12-.48.46-.45.65.2,1.18,2.53,2.09,4.16,1.33M526.6,518.09c-.8,0-1.61.02-2.41.03.13.59.09,1.34.44,1.73.46.51,1.23.74,1.87,1.09.11-.71.23-1.43.33-2.15.02-.15,0-.31-.23-.71M568.01,521.42c.88-1.37.19-3.16-1.37-3.29-.52-.05-1.09.37-1.63.58.37.43.71.9,1.13,1.27.5.44,1.08.81,1.87,1.44M442.83,541.41c-1.28,0-2.56-.02-3.84.01-.23,0-.45.25-.68.39.25.19.5.52.77.53,1.41.05,2.82.06,4.23,0,.56-.02,1.11-.22,1.66-.34-.56-.2-1.11-.4-2.14-.59M378.82,541.18c-.07.56-.15,1.12-.22,1.68.6.03,1.34.29,1.75.02.46-.3.63-1.06.93-1.62-.94.35-1.21-2.3-2.47-.08M478.77,493.58c.02-.4.04-.79.06-1.19-1.41.04-2.82.07-4.22.14-.03,0-.09.59-.07.59,1.25.25,2.5.47,3.75.69.08,0,.16,0,.48-.24M490.9,538.08c.08-.27.29-.6.21-.82-.25-.7-.62-1.36-.93-2.03-.45.21-1.32.53-1.29.64.15.67.44,1.34.82,1.92.17.27.63.36,1.2.29M349.31,599.24c0,.79-.05,1.57.02,2.35.02.26.33.67.56.7.25.04.82-.28.81-.41-.09-1.19-.28-2.38-.43-3.56-.32.15-.63.3-.95.93M432.37,488.58c-.4.37-.8.73-1.19,1.1.41.11.81.28,1.22.31.62.05,1.25.06,1.87,0,.41-.03.8-.22,1.2-.33-.35-.31-.64-.74-1.05-.9-.47-.19-1.04-.13-2.04-.18M558.01,506.67c-.22.22-.44.44-.67.66.82.41,1.61.94,2.47,1.19.33.09.83-.44,1.25-.69-.62-.39-1.24-.8-1.88-1.14-.18-.1-.46-.01-1.17-.01M432.84,545.22c.45,2.02,1.6.5,2.39.39.25-.03.39-.8.59-1.23-.7-.02-1.4-.1-2.08-.03-.24.02-.44.41-.9.86M501.61,544.5c-.98-1.1-1.95-1.05-2.87.04-.14.18-.06.53-.09.81.91-.21,1.81-.41,2.96-.85M585.85,486.44c.7.09,1.4.26,2.09.23.19,0,.34-.62.51-.96-.66,0-1.33,0-1.99.02-.21,0-.41.15-.62.7M544.92,509.77c.37.55.74,1.11,1.11,1.66.26-.66.53-1.32.8-1.98-.56.02-1.11.05-1.9.32M484,510.24c-.37-.56-.73-1.11-1.09-1.66-.27.49-.54.99-.81,1.48.56.14,1.11.28,1.9.18M371.44,510.95c-.86-.09-1.71-.19-2.57-.28.02.37.05.74.07,1.12.85-.14,1.71-.28,2.57-.43.06,0,.11-.11-.07-.4M404.76,541.41c-.06.74-.21,1.49-.11,2.2.03.26.7.43,1.07.64.08-.78.24-1.55.18-2.31-.02-.28-.59-.52-1.14-.53M542.07,496.44c.74.21,1.48.43,2.22.64.05-.29.2-.82.15-.83-.57-.21-1.16-.39-1.76-.5-.18-.03-.4.14-.61.69M485.43,534.51c.63-.14,1.27-.28,1.9-.43-.25-.25-.63-.77-.74-.71-.49.24-1.95-.87-1.17,1.14M419.51,537.13c-.36.59-.73,1.18-1.03,1.81-.02.04.58.37.89.57.12-.63.25-1.27.37-1.9.01-.08,0-.16-.23-.47M487.1,492.87c.69,0,1.39.02,2.08-.01.18,0,.46-.16.5-.3.05-.17-.15-.58-.17-.58-.89.2-1.78.42-2.42.89M350.74,610.19c0-.64-.02-1.29-.04-1.94-.22.09-.64.21-.63.26.11.64.28,1.28.67,1.68M464.01,537.37c-.39-.08-.79-.17-1.18-.25.05.54.11,1.08.17,1.62.34-.3.67-.6,1.01-1.37M558.49,526.19c-.4.21-.97.35-1.13.68-.11.23.35.74.55,1.12.27-.52.54-1.04.58-1.8M589.66,479.78c-.63,0-1.26,0-1.9,0,.16.32.33.92.47.91.48-.03.95-.27,1.43-.9M391.91,564.73c.08-.28.25-.58.21-.84-.03-.21-.31-.39-.48-.58-.31.46-.7.9-.88,1.41-.09.25.19.64.3.97.2-.24.41-.47.85-.95M511.13,522.14c-.58-.21-1.16-.42-1.74-.63-.05.21-.16.6-.15.6.63.19,1.26.35,1.89.03M375.01,517.86c.15.4.3.79.45,1.19.33-.19.65-.39.98-.58-.4-.28-.79-.56-1.43-.61M354.55,595.43c-.14-.4-.27-.79-.41-1.19-.34.34-.68.68-1.02,1.02.4.13.79.27,1.43.17M355.74,493.34c-.49,0-.98.02-1.47.04.09.22.22.64.26.63.49-.11.96-.28,1.21-.67M588.47,571.87c-.14.34-.28.67-.42,1.01h1.32c-.14-.34-.28-.67-.9-1.01M409.04,555.69c.21-.26.43-.52.64-.79-.58,0-1.15-.02-1.73-.03.21.27.41.55,1.08.82M374.77,567.12c0,.47,0,.94-.01,1.41.31-.15.63-.29.95-.44-.15-.32-.3-.64-.93-.97M591.8,493.34c-.38-.1-.76-.19-1.14-.29.02.38.05.75.07,1.12.43-.2.87-.4,1.07-.83M417.37,486.92c.2.23.4.47.59.71.12-.31.24-.63.36-.94-.32-.08-.63-.17-.95.23M531.12,492.15c-.1.38-.2.76-.29,1.13.26-.07.77-.15.76-.21-.01-.39-.14-.78-.47-.92M484.24,559.97c.33,0,.65-.02.98-.03-.08-.21-.16-.43-.24-.65-.33.15-.65.3-.74.68h0Z"></path>
        <path d="M322.18,557.12c-.32,5.82-.8,11.39-.91,16.97-.16,7.56-.16,15.13,0,22.68.14,6.73-.47,13.35-1.91,19.92-.51,2.36-.48,4.85-1.07,7.19-.26,1.03-1.3,2.28-2.27,2.62-1.89.65-3.98.98-6,1.01-7.01.11-14.02-.08-21.02.08-5.74.13-11.47.83-17.22.84-5.42,0-10.84-.56-16.26-.89-2.08-.13-4.93-1.24-6.07-.28-2.58,2.17-5.45.47-7.98,1.62-.94.42-2.36-.37-3.56-.35-4.3.09-8.6.44-12.89.38-2.23-.03-4.23.09-6.41.86-1.73.61-3.95-.1-5.93-.33-6.8-.8-13.57-1.54-20.4-.05-1.92.42-4,.1-6.02.06-6.23-.14-12.45-.38-18.68-.44-2.73-.02-5.48.44-8.21.41-5.2-.04-10.39-.26-15.59-.45-2.48-.09-4.95-.29-7.42-.46-4.5-.31-8.99-.74-13.49-.91-2.3-.09-4.62.28-6.94.43-2.42.17-4.84.38-7.26.47-5.64.2-11.29.34-16.94.48-6.94.17-13.88.39-20.82.45-3.21.02-6.43-.25-9.64-.46-1.9-.13-3.58-2.03-3.72-4.22-.36-5.77-.72-11.53-.94-17.29-.14-3.83.1-7.68-.06-11.5-.16-4-.82-7.98-.84-11.98-.02-3.2,1.16-6.49.7-9.57-.41-2.76.12-5.48-.46-8.17-.13-.59-.29-1.18-.3-1.78-.18-6.44-.5-12.88-.43-19.31.06-5.53.65-11.05.87-16.58.14-3.59.13-7.2,0-10.79-.25-7.3-.79-14.6-.86-21.9-.05-4.23.54-8.47.9-12.69.14-1.54,2.55-3,5.24-3.16,3.58-.21,7.16-.4,10.75-.47,4.23-.08,8.47-.18,12.69.01,7.5.35,14.98,1.11,22.49,1.33,5.66.17,11.35-.18,17.01-.43,4.16-.19,8.3-.69,12.46-.91,4.79-.25,9.6-.52,14.39-.44,4.5.07,8.99.62,13.49.88,2,.12,4.02-.07,6.03.04,4.42.25,8.83.72,13.26.89,2.3.09,4.62-.38,6.94-.41,4.79-.07,9.59.22,14.35-.09,4.99-.33,9.95-1.21,14.92-1.83.39-.05.8,0,1.19,0,4.48-.15,8.96-.45,13.45-.42,2.57.02,5.12.64,7.69.86.79.07,1.61-.39,2.42-.42,4.61-.2,9.23-.5,13.84-.44,3.44.04,6.87.73,10.32.87,6.83.26,13.67.32,20.5.52,3.27.09,6.53.47,9.79.41,2.33-.04,4.67-.9,6.98-.81,2.51.1,4.99,1,7.5,1.31,3.73.47,7.21,1.54,10.53,3.33,3.38,1.83,4.57,3.45,3.42,6.89-1.12,3.38-.56,6.74-.89,10.1-.38,3.84-.97,7.67-1.54,11.49-.7,4.61-1.79,9.19-2.15,13.83-.38,4.79-.02,9.62-.1,14.43-.07,4.57-.28,9.13-.47,13.69-.04.89-.3,1.77-.46,2.9M172.98,609.95c-5.73.16-11.45.24-17.17.5-4.58.2-9.16.5-13.72.96-5.12.5-10.23.49-15.35.42-4.61-.06-9.27.05-13.83-.56-3.65-.49-6.76-.26-9.85,1.89-.72.51-2.69-.1-3.64-.8-.8-.6-1.33-2.08-1.3-3.15.05-2.26.55-4.5.85-6.75.16-1.2.14-2.47.51-3.6,1.01-3.06,2.19-6.06,3.28-9.1.11-.3,0-.68,0-1.02-.33.02-.72-.05-.97.1-.39.25-.68.66-1.03.99-4.73,4.41-9.45,8.83-14.19,13.22-.78.73-1.75,1.26-2.47,2.05-2.68,2.91-5.13,6.04-7.96,8.8-2.86,2.78-6.08,5.19-9.11,7.8-.39.34-.53.97-.78,1.46.49.05,1,.2,1.48.15,1.2-.13,2.39-.43,3.59-.5,6.21-.35,12.43-.66,18.64-.97,9.96-.49,19.91-1.01,29.86-1.4,4.17-.17,8.36.02,12.53-.04,8.74-.13,17.47-.31,26.21-.46.32,0,.63,0,.95,0,5.51-.16,11.02-.39,16.54-.44,2.79-.03,5.59.48,8.37.4,6.38-.19,12.74-.65,19.12-.87,1.91-.07,3.83.31,5.75.43,1.05.06,2.14-.13,3.17.04,2.28.38,4.52,1.27,6.79,1.32,4.16.11,8.33-.28,12.49-.39,2.64-.07,5.29.07,7.93-.03,3.87-.15,7.72-1.54,11.59,0,.13.05.37-.25.58-.3,1.1-.23,2.2-.58,3.31-.61,3.65-.08,7.3.02,10.94-.08.62-.02,1.66-.64,1.78-1.16,1.66-6.94,3.12-13.93,4.8-20.86.96-3.94,2.27-7.78,3.34-11.69,1.94-7.06,3.82-14.13,5.71-21.19.56-2.12-.45-3.23-2.71-2.59-4.79,1.35-9.86,1.05-14.55,3.39-2.31,1.15-4.04,2.62-5.86,4.21-.61.53-1.29.99-2,1.39-.98.55-2.68.64-1.28,2.46.15.2-.03.85-.26,1.11-3.12,3.48-6.25,6.95-9.42,10.38-.67.72-1.79,1.09-2.27,1.89-3.03,5.02-7.8,8.19-12.17,11.82-2.75,2.28-5.37,4.74-7.88,7.28-1.26,1.28-2.5,1.84-4.3,1.77-3.86-.14-7.74-.29-11.58.02-4.36.36-8.66,1.51-13.02,1.77-6.97.41-13.98.39-21.44.55M251.74,507.38c2.89-2.57,5.79-5.13,8.65-7.72.38-.34.59-.86.87-1.3-.53-.24-1.06-.71-1.58-.7-1.45.04-2.89.43-4.33.41-3.58-.06-7.16-.36-10.74-.42-4.47-.08-8.94.04-13.4-.04-4.46-.08-8.91-.41-13.36-.42-3.58-.01-7.24.83-10.73.33-7.91-1.12-15.8-.05-23.69-.36-.63-.02-1.27-.05-1.9.01-3.12.29-6.24.79-9.36.88-2.7.08-5.44-.11-8.12-.46-3.62-.48-6.47,1.02-9.26,2.97-4.05,2.84-8.12,5.64-12.22,8.41-2.66,1.79-5.43,3.41-8.05,5.24-4.07,2.85-7.97,5.95-12.11,8.69-4.51,2.99-9.21,5.68-13.82,8.53-.41.25-.71.68-1.06,1.02.47.13.94.4,1.41.38,2.24-.11,4.47-.41,6.7-.43,5.5-.06,11-.07,16.49,0,2.87.04,5.75.2,8.6.48,2.93.29,5.84.77,8.75,1.25,3.84.64,7.65,1.64,11.52,1.98,5.01.44,10.07.39,15.1.55,5.33.16,10.65.34,15.98.47,7.09.18,14.19.32,21.29.48.69.01,1.48-.11,2.07.17,2.22,1.02,5.99-.73,7.51-2.53,2.34-2.77,4.68-5.55,7.22-8.14,3-3.06,6.14-5.99,9.32-8.87,3.95-3.59,8-7.08,12.25-10.85M198.67,567.12c-.7.09-1.4.27-2.1.26-1.1-.02-2.2-.23-3.3-.25-2.88-.04-5.77.05-8.65-.03-2.08-.06-4.16-.26-6.23-.47-3.98-.39-7.98-.65-11.92-1.31-3.5-.59-6.87-2.01-10.38-2.41-5.55-.63-11.15-.93-16.73-.98-7.07-.06-14.14.22-21.21.49-.7.02-1.86.84-1.98,1.45-.51,2.69-.87,5.42-.93,8.15-.01.73,1.17,2.04,1.93,2.14,4.7.66,9.42,1.16,14.15,1.48,4.55.32,9.12.49,13.68.48,6.44-.02,12.88-.31,19.32-.42.96-.01,1.93.44,2.89.42,2.42-.05,4.83-.43,7.24-.35,3.45.13,6.89.68,10.34.82,6.3.26,12.61.48,18.92.47,8.02-.02,16.04-.26,24.07-.46,1.62-.04,2.82-.65,2.56-2.66-.12-.94-.12-1.91,0-2.85.34-2.64.05-3.02-2.72-3.03-3.68-.01-7.36.11-11.02-.03-5.82-.22-11.64-.61-17.93-.92M106.58,605.9c1.17-.08,2.35-.29,3.51-.21,3.6.25,7.2.9,10.79.86,5.82-.07,11.64-.56,17.45-.89,8.13-.46,16.26-1.02,24.39-1.4,3.91-.18,7.83.03,11.74-.05,3.54-.07,7.07-.29,10.6-.46,6.37-.31,12.74-.58,19.12-.97,3.12-.19,6.25-.52,9.35-1.01.62-.1,1.36-1.18,1.51-1.92.25-1.22-.28-2.66.14-3.76.9-2.33-.28-2.81-2.08-2.78-5.99.11-11.98.27-17.97.47-1.61.05-3.2.37-4.8.44-4.16.2-8.33.31-12.49.5-2.16.1-4.31.41-6.47.43-1.44.02-2.88-.39-4.32-.42-2.88-.07-5.77.06-8.65-.05-1.89-.08-3.77-.41-5.65-.7-3.42-.53-6.82-1.38-10.26-1.58-4.61-.28-9.25-.19-13.88-.03-3.68.13-7.35.58-11.02.92-3.28.3-6.57.58-9.83,1-.43.06-.99.83-1.12,1.36-.42,1.66-.89,3.37-.93,5.07-.04,1.64.42,3.29.89,5.18M290.3,605.43c-.8,2.69-1.63,5.36-2.34,8.06-.11.42.28.97.44,1.46.49-.18,1.01-.3,1.48-.54,1.31-.67,2.57-1.43,3.9-2.07,1.45-.7,3.01-1.19,4.4-1.98,4.57-2.57,9.06-5.29,13.64-7.85,1.47-.82,2.35-1.68,2.32-3.55-.11-5.89-.15-11.78,0-17.67.08-3.28.64-6.55.9-9.83.67-8.53,1.45-17.06,1.87-25.6.39-8.01.38-16.03.5-24.05.01-.76-.29-1.52-.45-2.28-.47.71-.98,1.4-1.39,2.14-.14.24.02.63-.04.93-.6,2.84-1.05,5.72-1.86,8.51-.96,3.31-2.19,6.53-3.37,9.77-1.91,5.23-3.88,10.44-5.83,15.66-.31.82-.48,2.14-1.04,2.34-2.01.74-2.01,1.86-1.25,3.47.19.39.14.97,0,1.41-.62,2.04-1.3,4.06-1.98,6.07-.91,2.71-1.86,5.41-2.75,8.13-.83,2.51-1.65,5.03-2.37,7.57-1.16,4.04-2.29,8.1-3.32,12.17-.6,2.39-.98,4.83-1.45,7.72M201.06,551.41c.57-.16,1.13-.45,1.7-.45,4.07-.04,8.14.03,12.22-.04,2.24-.04,3.06-1.33,2.57-3.52-.15-.65-.18-1.47.1-2.04.63-1.28.32-1.89-1.04-2.04-3.19-.33-6.39-.76-9.59-.92-3.27-.16-6.56.01-9.83-.05-6.31-.12-12.61-.35-18.92-.43-1.99-.02-4,.49-5.99.41-4.32-.18-8.63-.49-12.92-.94-2.84-.3-5.65-.85-8.45-1.42-2.69-.54-5.32-1.59-8.02-1.82-6.36-.53-12.73-.79-19.11-.98-2.86-.08-5.73.35-8.6.42-3.33.08-6.66.05-9.99,0-1.66-.02-2.4.66-2.43,2.36-.02,1.36-.27,2.72-.45,4.08-.44,3.33.63,4.46,4.07,4.54,2.64.06,5.26.28,7.9.46,7.09.47,14.19,1.08,21.29,1.37,3.6.15,7.22-.41,10.82-.39,6.04.04,12.08.27,18.12.45,4.16.13,8.33.36,12.49.46,7.86.2,15.73.33,24.07.49M162.5,558.07c.86.22,1.71.48,2.58.66,3.58.74,7.14,1.82,10.76,2.11,5.88.46,11.81.38,17.71.56,4.54.14,9.07.33,13.6.47,5.67.17,11.34.33,17.01.47,1.58.04,3.27-.35,4.74.08,2.96.86,5.17-.11,7.07-2.18,2.72-2.96,5.32-6.03,8.08-8.97,1.32-1.41,2.91-2.55,4.31-3.9,2.09-2.02,4.05-4.17,6.19-6.14,4.86-4.48,9.92-8.74,14.65-13.36,2.28-2.22,4-4.98,7.26-6.01.23-.07.49-.55.46-.8-.03-.22-.43-.57-.69-.58-2.76-.13-5.52-.31-8.28-.26-2.19.04-4.16.71-5.57,2.64-.88,1.2-1.92,2.2-3.73,1.92-1.45-.22-.82.84-.75,1.59.06.7.17,1.7-.22,2.09-4.16,4.15-8.29,8.34-12.69,12.22-3.76,3.3-7.89,6.18-11.83,9.29-2.27,1.8-4.38,3.81-6.75,5.47-.98.68-2.44.88-3.69.91-1.24.03-2.49-.62-3.74-.63-2.07,0-4.15.34-6.23.4-.88.03-1.79-.48-2.65-.41-2.49.21-4.97.84-7.46.86-4.53.03-9.06-.32-13.6-.41-4.31-.08-8.62.11-12.92-.05-4.79-.18-9.57-.78-14.35-.88-7.16-.16-14.33.01-21.49-.06-4.77-.05-9.54-.39-14.31-.4-1.35,0-2.74.6-4.04,1.09-.33.12-.4.9-.59,1.38.25.1.5.28.75.28,6.31-.13,12.62-.47,18.93-.38,7.01.1,14.01.59,21.49.9M288.87,586.39c.63-2.35,1.22-4.72,1.91-7.06,2.82-9.54,5.62-19.08,8.53-28.58,1.33-4.35,2.91-8.63,4.35-12.95,1.42-4.25,2.73-8.54,4.23-12.76,1.84-5.18,3.78-10.33,5.74-15.46,1.28-3.35,2.7-6.65,3.95-10.02.13-.35-.31-1.25-.68-1.38-.63-.23-1.41-.1-2.12-.06-3.78.21-5.74,1.48-6.41,3.93-1.54,5.62-3.14,11.23-4.75,16.83-1.73,6.02-3.48,12.04-5.25,18.05-1.71,5.79-3.79,11.49-5.11,17.37-1,4.45-3.26,8.49-3.63,13.15-.17,2.06-1.7,3.78-2.01,6.17-.64,4.93-2.4,9.72-3.85,14.53-1.23,4.08-2.69,8.09-4.01,12.14-1.11,3.42-2.19,6.86-3.26,10.3-.66,2.11-1.31,4.22-1.87,6.36-.08.3.44,1.07.67,1.06,1.56-.03,3.14-.08,4.67-.38,2.21-.43,1.84-2.5,2.21-4.01,1.16-4.84,2.17-9.72,3.37-14.55,1.01-4.09,2.2-8.13,3.31-12.67M196.77,588.06c3.23,0,6.46.05,9.68-.02,1.84-.04,3.74-.66,5.5-.38,4.36.68,7.66-.83,10.29-4.16.21-.27.35-.87.2-1.1-.17-.25-.74-.37-1.1-.32-1.48.2-2.96.72-4.44.71-5.41-.05-10.81-.26-16.22-.44-8.99-.3-17.98-.78-26.97-.9-6.94-.09-13.88.38-20.82.39-5.41.01-10.81-.21-16.22-.47-2.66-.13-5.29-.71-7.94-.88-2.32-.16-5.04-.81-6.9.13-3.71,1.87-6.96,4.68-10.38,7.13-.2.15-.22.54-.33.83.39.08.78.25,1.15.21,3.49-.38,6.96-.87,10.45-1.17,3.21-.27,6.43-.34,9.64-.5.16,0,.32,0,.48,0,5.58,0,11.17-.25,16.73.07,4.83.28,9.61,1.44,14.45,1.75,3.42.21,6.86.17,10.37-.21,7.25-.78,14.6-.5,22.39-.66M241.99,570.92c3.11-2.79,6.23-5.57,9.32-8.37,3.58-3.24,7.18-6.45,10.69-9.76,4.06-3.81,8.04-7.7,12.05-11.56.23-.22.48-.42.67-.68.61-.84,1.46-1.62,1.72-2.56.64-2.29,1.01-4.66,1.48-7,.12-.62.21-1.25.32-1.87-.65.29-1.52.4-1.91.89-.92,1.15-1.38,2.75-2.44,3.7-3.43,3.04-7.08,5.83-10.59,8.8-2.78,2.35-5.42,4.85-8.2,7.2-3.5,2.96-7.19,5.72-10.59,8.79-2.49,2.25-4.64,4.86-6.92,7.33-1.2,1.3-1.58,6.51-.57,7.9.16.21.74.38.91.26,1.3-.9,2.56-1.88,4.07-3.07M231.28,543.55c2.27-1.95,4.57-3.87,6.8-5.86,3.48-3.11,6.91-6.27,10.37-9.4,1.15-1.04,2.37-2,3.48-3.07,2.88-2.81,5.73-5.64,8.54-8.53.3-.31.23-1,.32-1.51.41-2.21.83-4.42,1.19-6.64.06-.36-.02-.92-.25-1.1-.21-.17-.87-.08-1.08.13-.51.54-.87,1.21-1.28,1.83-.54.81-.92,1.8-1.63,2.4-3.15,2.65-6.43,5.15-9.59,7.77-2.44,2.01-4.76,4.17-7.19,6.2-3.46,2.89-7.04,5.65-10.44,8.61-1.57,1.37-2.56,3.53-4.29,4.55-3.38,2-3.03,4.88-2.48,7.83.18.97.74,2.84,2.55.9,1.38-1.48,3.15-2.6,4.99-4.12M223.42,588.53c-3.05,2.43-2.8,5.82-2.55,9.14.05.63.49,2.18,1.86.65,1.19-1.31,2.7-2.33,3.96-3.57,2.88-2.81,5.63-5.73,8.55-8.49,2.88-2.72,5.9-5.27,8.82-7.94.34-.31.45-.87.66-1.32-.52.03-1.19-.12-1.53.14-1.75,1.39-3.57,2.74-5.07,4.38-1.35,1.47-2.64,1.55-4.28.79-1.87-.86-6.92.06-6.97,1.47-.08,2.49-2.3,2.93-3.47,4.75M112.77,491.68c0-.63.12-1.3-.03-1.89-.17-.6-.61-1.59-.93-1.59-1.09,0-2.2.31-3.27.63-.21.07-.36.72-.35,1.1.03.83.27,1.65.28,2.48.04,2.79-.04,5.59.03,8.39.09,3.21.61,6.43.38,9.61-.28,4.05-1.14,8.06-1.67,12.09-.05.41.28.98.61,1.25.18.14.89-.09,1.12-.36,1.26-1.46,2.44-2.93,1.97-5.14-.22-1.05-.13-2.21.01-3.3.58-4.34,1.4-8.65,1.79-13,.29-3.25.06-6.54.06-10.29M312.66,612.57c-.32-.31-.84-.94-.94-.88-1.02.63-2.02,1.31-2.93,2.08-3.06,2.59-7.03,2.88-10.55,4.28-.29.12-.54.34-.81.51.3.15.59.41.89.41,2.68.03,5.37.02,8.05.02,4.01,0,4.21-.17,5.46-4.16.2-.62.54-1.2.82-2.27M108.48,560.69c-.09.54-.19,1.08-.28,1.62.64-.13,1.66-.06,1.86-.44.73-1.33,1.26-2.79,1.71-4.25.12-.4-.34-.96-.53-1.45-.28.48-.85,1-.8,1.46.15,1.45-.42,2.32-1.96,3.07M66.13,604.48c.26.87.53,1.74.8,2.62.64-.83,1.34-1.62,1.88-2.51.13-.21-.21-.73-.35-1.1-.7.25-1.4.5-2.33,1M135.38,492.87c-.22.22-.54.41-.64.67-.2.5-.29,1.06-.42,1.59.48-.08.97-.14,1.44-.27.34-.1.69-.26.96-.49.54-.46,1.04-.98,1.55-1.47-.8,0-1.6-.02-2.88-.03M202.72,489.3c-1.22-.79-4.67.39-4.72,1.64,0,.08.66.34.9.24,1.22-.49,2.39-1.08,3.82-1.87M286.25,515.24c.54.1,1.07.2,1.61.29-.06-.58.05-1.31-.25-1.7-.25-.31-1.02-.21-1.55-.3,0,.49-.02.98.2,1.71M285.06,532.13c.11.56.22,1.11.34,1.67.36-.4.75-.77,1.08-1.19.17-.22.28-.52.32-.79.08-.53.1-1.08.14-1.62-.44.3-.91.56-1.3.91-.19.18-.23.52-.58,1.02M89.21,563.31c-.24.13-.7.3-.68.4.15.95.36,1.88.6,2.82.02.07.4.04.62.05-.1-1.01-.2-2.02-.53-3.27M96.11,559.26c.79-.16,1.58-.33,2.36-.49-.54-.38-1.08-.77-1.63-1.15-.32.47-.65.94-.74,1.64M63.98,596.15c-.48,1.8.96.71,1.48.91.29.11.75-.23,1.14-.36-.35-.34-.65-.83-1.07-.98-.37-.13-.86.12-1.55.43M292.43,488.58c-.4.11-.79.22-1.19.33.39.37.75.97,1.18,1.03.49.07,1.05-.35,1.58-.56-.37-.27-.73-.54-1.58-.81M70.41,595.43c.32-.16.93-.39.91-.48-.13-.55-.38-1.09-.65-1.59-.02-.04-.89.26-.88.36.04.5.25.98.63,1.7M273.16,550.7c-.01-.64.04-1.3-.09-1.92-.02-.12-.79-.07-1.21-.11.19.59.35,1.19.58,1.76.08.2.32.34.72.27M62.8,491.68c.22.38.44.76.66,1.14.22-.19.67-.44.63-.56-.2-.67-.45-1.34-.81-1.94-.1-.16-.62-.07-.94-.09.15.33.3.65.45,1.45M83.02,597.1c.56-.85,1.11-1.7,1.66-2.56,0-.02-.18-.17-.27-.25-.54.86-1.08,1.71-1.39,2.81M290.77,499.77c.63.16,1.26.33,1.91.44.06,0,.2-.41.3-.62-.62-.18-1.23-.38-1.85-.53-.09-.02-.23.15-.36.7M283.87,506.67c-.48-.31-.96-.63-1.47-.89-.04-.02-.35.51-.53.79.59.11,1.18.22,2,.1M74.93,506.67c.24-.37.48-.74.72-1.12-.31-.03-.72-.21-.9-.07-.4.31-.68.77-1.01,1.17.32.09.63.18,1.19.02M99.68,562.36c-.54-.1-1.08-.19-1.62-.29.02.38.04.75.07,1.12.6-.2,1.19-.4,1.55-.83M121.1,492.39c.33.3.66.61.99.91.22-.38.45-.75.67-1.13-.48,0-.95-.01-1.66.22M79.45,598.29c.22.54.44,1.07.66,1.61.22-.19.44-.37.66-.55-.36-.43-.72-.86-1.32-1.06M69.93,501.2c-.48.16-.95.32-1.43.48.12.23.23.47.35.71.36-.24.72-.48,1.08-1.19M218.9,600.19c.01.33.03.66.04,1,.27-.15.55-.29.83-.43-.21-.27-.42-.53-.87-.56M235.32,575.21c-.33.01-.69-.05-.98.08-.12.05-.06.5-.08.76.43-.2.86-.4,1.06-.84M83.74,548.79c.32.16.64.31.96.47.1-.21.2-.42.3-.64-.42-.1-.83-.21-1.25.17M83.97,538.56c-.23.2-.47.39-.71.59.31.12.63.24.94.36.08-.32.17-.63-.23-.95M267.92,487.87c-.47,0-.95,0-1.43.02,0,0,0,.42,0,.42.47.02.95.02,1.43-.45h0Z"></path>
        <path d="M191.66,282.86c-.76,5.04-2.44,9.53-5.03,13.79-.84,1.38-1.73.91-2.7,1.09-.03-.77-.23-1.56-.08-2.29,1.22-5.59,4.07-10.82,3.67-16.79-.07-1.11.45-2.25.42-3.37-.22-7.8-.47-15.64-2.94-23.1-.86-2.59-.67-5.7-3.17-7.75-.69-.57-1.05-1.84-1.09-2.81-.04-.96.52-1.95.83-2.92.97.34,2.28.39,2.85,1.07,3.19,3.76,5.07,8.25,6.95,12.78,2.48,5.97,2.29,12.2,2.21,18.37-.06,3.94-1.16,7.87-1.91,11.92h0Z"></path>
        <path d="M151.91,247.4c-.84,3.54-1.72,6.95-2.27,10.4-.77,4.93-2.59,9.68-2.18,14.82.37,4.62.36,9.27.52,13.91.05,1.55.19,3.11.07,4.65-.04.62-.66,1.2-1.03,1.79-.69-.61-1.7-1.09-1.99-1.85-.77-1.99-1.59-4.07-1.73-6.16-.27-3.89-.08-7.82-.08-11.73,0-.16.06-.36,0-.47-1.32-2.1-.35-4.37-.48-6.55-.3-5.02,1.04-9.8,2.15-14.59,1.01-4.37,2.32-8.7,5.01-12.42.36-.5.68-1.14,1.18-1.38.72-.34,1.62-.59,2.37-.45.34.06.73,1.16.68,1.75-.11,1.33-.42,2.65-.76,3.95-.38,1.42-.88,2.8-1.45,4.32h0Z"></path>
        <path d="M167.02,247.75c0-3.12-.11-6,.08-8.87.05-.72,1.06-1.39,1.64-2.08.38.63.99,1.22,1.11,1.89,1.01,5.78,1.97,11.56,2.88,17.35,1.23,7.85-.13,15.54-1.38,23.25-.55,3.4-.49,6.89-1.06,10.28-.31,1.84-1.19,3.64-2.14,5.27-.61,1.05-1.81.69-2.02-.44-.36-1.96-.57-3.99-.48-5.97.12-2.65.74-5.27.87-7.92.4-7.86.74-15.73.94-23.6.08-2.96-.28-5.94-.44-9.15h0Z"></path>
        <path d="M375.97,392.92c-6.04.16-11.85.45-17.65.42-3.12-.01-6.28-.38-9.34-1.01-.98-.21-2.43-1.78-2.4-2.69.2-5.78.69-11.54,1.22-17.3.22-2.47,2.32-3.17,4.27-3.13,2.71.04,5.41.65,8.11,1.02.75.1,1.5.31,2.25.31,8.33.02,16.65.06,24.98,0,2.99-.02,5.94.03,8.94.34,3.6.37,7.33-.54,11.01-.76,1.19-.07,2.4.4,3.61.42,3.25.06,6.51-.07,9.76.04,7.56.26,15.13.69,22.69.91,5.1.14,10.21.09,15.31,0,4.38-.07,8.75-.35,13.12-.44,3.36-.07,5.43,2.07,5.51,5.35.06,2.32.42,4.63.41,6.94,0,1.74-.15,3.54-.63,5.2-.85,2.97-3.24,4.24-6.15,4.36-5.88.24-11.77.38-17.65.49-3.56.07-7.14.07-10.71,0-5.81-.11-11.61-.32-17.41-.46-1.93-.04-3.87.08-5.79-.02-5.26-.27-10.52-.8-15.79-.88-4.93-.08-9.86.25-14.79.42-4.22.15-8.44.31-12.89.47M413.8,386.73c1.65-.09,3.31-.32,4.96-.25,3.86.17,7.72.6,11.59.69,2.73.06,5.47-.39,8.21-.42,6.29-.07,12.58-.02,18.88-.02,3.17,0,6.35.08,9.52-.06.78-.03,2.12-.69,2.2-1.21.38-2.52.48-5.09.49-7.64,0-.36-1.05-1.02-1.63-1.04-7.34-.23-14.68-.36-22.01-.52-6.44-.15-12.88-.37-19.32-.46-5.1-.08-10.2-.07-15.31,0-7.74.11-15.47.38-23.21.44-10.62.08-21.25.07-31.88-.02-2.05-.02-2.42.82-2.24,2.53.21,1.99.46,3.99.45,5.99,0,1.53.47,2.09,2.03,2.03,5.09-.22,10.18-.41,15.27-.48,4.99-.08,9.99-.05,14.99,0,1.45.01,2.88.42,4.33.43,7.4.05,14.8.02,22.68.02h0Z"></path>
        <path d="M315.4,374.71c3.56-4.33,7.98-4.83,12.98-3.73,3.34.74,6.59,5.73,6.53,8.69-.04,2.48,1.4,5.1-.36,7.48-1.21,1.64-2.42,3.28-3.67,4.89-.27.35-.67.79-1.06.84-6.18.91-13.18-.34-16.33-7.46-1.15-2.6-.19-8.53,1.9-10.72M326.94,379.83c-1.86-.23-3.73-.52-5.6-.67-.33-.02-.87.4-1.04.74-.62,1.27.59,4.43,2.36,5.03,1.35.46,3.48.48,4.47-.3,1.26-1,1.9-3.01-.2-4.79h0Z"></path>
        <path d="M496.5,384.71c-2.58-1.98-2.37-4.9-2.91-7.48-.23-1.12.11-2.43.44-3.58.77-2.68,6.68-6.9,9.45-6.91,7.82-.03,10.56,7.23,9.96,12.72-.05.42-1.12.75-1.74,1.08-.45.24-.94.41-1.41.61.37.27.7.73,1.1.8,1.66.26.91,1.25.49,1.85-3.25,4.6-11.17,5.12-15.39.92M497.81,375.55c.45.4,1.03,1.21,1.33,1.12,1.43-.42,1.86.26,1.99,1.44.2,1.84,1.56,2.41,3.03,2.39,1.64-.02,3.11-.77,3.13-2.72.02-1.82-1.23-3.21-2.79-3.3-2.13-.12-4.3.52-6.69,1.08h0Z"></path>
        <path d="M499.35,322.12c2.9.04,5.69.1,8.47.38,3.53.36,8.51,6.15,7.99,9.62-.37,2.44-2,4.27-4.24,5.63-3.41,2.07-7.12,2.8-10.95,2.75-3.91-.05-7.9-.2-11.68-1.04-2.3-.51-5.15-1.64-5.06-5.01.03-1.1.19-2.28.65-3.26,1.21-2.52,2.78-4.84,5.56-5.83,2.08-.74,4.27-1.15,6.38-1.81.97-.3,1.85-.87,2.9-1.44M497.57,333.9c.8.15,1.65.54,2.4.41,3.08-.53,6.14-1.2,9.2-1.86.36-.07.99-.44.97-.52-.14-.48-.38-1.25-.69-1.31-1.3-.23-2.65-.27-3.98-.32-.96-.04-1.93.12-2.88.02-1.49-.16-2.97-.43-4.45-.71-2.94-.57-4.55,2.03-6.88,2.88-.38.14-.67.49-1.01.75.46.22.92.62,1.39.63,1.82.07,3.64.03,5.94.03h0Z"></path>
        <path d="M162.26,529.99c-2.76-.79-5.34-1.44-7.79-2.41-4.8-1.91-6.66-6.72-3.97-11.91,2.7-5.2,7.35-7.23,12.16-9.54,5.13-2.47,10.46-3.57,16.05-3.71,4.62-.12,9.24.03,13.87-.04,3.37-.06,6.75-.55,10.1-.39,3.14.16,6.29.72,9.36,1.46,2.78.67,5.97,5.52,6.44,8.38.82,5.03-1.31,8.3-5.55,10.57-2.4,1.28-4.79,2.59-7.21,3.84-.32.17-.76.06-1.13.15-1.04.24-2.07.46-3.08.78-1.89.59-3.72,1.57-5.65,1.81-5.33.65-10.68,1.17-16.04,1.44-4.48.23-8.98.08-13.47.02-1.28-.01-2.56-.29-4.08-.45M184.16,506.91c-1.11.4-2.21,1.01-3.35,1.15-3.5.43-7.03.61-10.53,1.02-1.53.18-3.19.38-4.52,1.09-3.12,1.68-6.04,3.75-9.13,5.52-2.07,1.18-2.2,3.26-1.83,4.92.31,1.38,1.71,3.11,3.01,3.56,6.25,2.19,12.88,2.37,19.41,2.39,5.11.01,10.23-.74,15.33-1.36,6.14-.75,11.92-2.64,17.38-5.63,2.78-1.52,4.1-3.59,3.72-6.65-.35-2.79-2.51-4.16-4.87-4.75-2.64-.65-5.41-.91-8.14-.99-5.41-.14-10.82-.04-16.48-.28h0Z"></path>
        <path d="M186.06,511.9c2.8,0,5.37-.12,7.92.08.73.06,1.83.97,1.99,1.66.38,1.64-.15,3.17-1.88,3.97-3.55,1.64-7.08,3.31-11.18,2.87-2.18-.23-4.45,0-6.54-.51-3.38-.85-3.68-2.72-1.53-5.26,2.04-2.41,4.91-2.03,7.44-2.76,1.09-.32,2.36-.05,3.78-.05M180.11,517.14c2.99-.46,6.27.07,8.65-2.48.28-.3.4-.75.59-1.13-.38.09-.79.13-1.14.28-1,.45-1.93,1.18-2.96,1.37-1.79.34-3.64.35-5.46.54-.46.05-.9.28-1.34.43.47.25.95.49,1.66.98h0Z"></path>
</g>
<g id="vinyl-record-group" transform="translate(383,310)">
<g transform="scale(1,0.385)">
<g id="vinyl-spin-group">
<circle cx="64" cy="0" r="9" fill="#f1ecdf"></circle>
<circle cx="0" cy="64" r="6" fill="#f1ecdf" opacity="0.8"></circle>
<circle cx="-64" cy="0" r="9" fill="#f1ecdf"></circle>
<circle cx="0" cy="-64" r="6" fill="#f1ecdf" opacity="0.8"></circle>
</g>
</g>
</g>
</svg>
