<?xml version="1.0"?>
<svg id="Layer_1" data-name="Layer 1" xmlns="http://www.w3.org/2000/svg" viewBox="0 0 1223.23 446.49" fill="#EFEBDE">
  <path d="M105.56,443.75c1.34-2.63,1.55-5.35.63-8.17-.92-2.82-2.66-4.95-5.24-6.38l-83.95-42.7c-2.68-1.23-5.43-1.39-8.25-.47-2.82.92-4.9,2.69-6.23,5.32l-1,1.97-1.52-.77,16.88-33.18,1.52.77-1,1.97c-1.85,3.64-1.7,7.21.46,10.72,1.05,1.68,2.44,2.96,4.16,3.83l90.31,45.93,11.02-21.67c3.8-7.47,5.04-14.03,3.71-19.67-1.33-5.63-4.61-11.43-9.84-17.4l.77-1.52,20.08,21.27-31.98,62.88-1.52-.77,1-1.97Z"></path>
  <path d="M149.25,363.67c1.74-2.52,2.5-5.23,2.29-8.12-.21-2.89-1.34-5.05-3.39-6.46l-66.1-45.49c-2.05-1.41-4.47-1.7-7.25-.86-2.78.84-5.07,2.57-6.87,5.18l-1.25,1.82-1.4-.96,21.78-31.65,1.4.96-1.25,1.82c-1.73,2.52-2.53,5.17-2.38,7.96.15,2.79,1.19,4.98,3.11,6.58l66.52,45.78c2.12,1.32,4.54,1.55,7.28.67,2.73-.87,4.96-2.57,6.7-5.09l1.25-1.82,1.5.82-21.88,31.79-1.4-.96,1.35-1.96Z"></path>
  <path d="M176.14,318.31c-1.25-.64-3.45-2.34-6.6-5.1-3.15-2.76-5.87-6.12-8.14-10.06l1.34-1.53c.69.76,1.42,1.47,2.19,2.14,4.6,4.03,9.7,5.82,15.29,5.37,5.59-.45,10.74-3.36,15.44-8.73,4.93-5.63,7.47-11.16,7.63-16.59.16-5.43-1.82-9.96-5.96-13.58-4.13-3.62-8.91-5.09-14.33-4.41l-42.09,8.33c-7.08,1.03-13.56-1.03-19.44-6.18-3.33-2.91-5.59-6.51-6.8-10.81-1.21-4.3-1.21-8.81,0-13.55,1.21-4.74,3.76-9.32,7.64-13.76,3.88-4.43,7.7-8.02,11.46-10.76l3.7-4.22,14.16,11.95-1.23,1.41c-3.58-3.14-7.43-4.32-11.56-3.57-4.13.76-8.21,3.43-12.24,8.04-4.03,4.6-6.18,9.43-6.45,14.46-.27,5.04,1.45,9.18,5.16,12.43s8.38,4.4,14.02,3.47l42.57-8.36c6.67-1.08,12.91.91,18.71,5.99,5.8,5.08,8.78,11.57,8.94,19.47.16,7.9-2.52,15.01-8.04,21.31-3.66,4.18-7.83,7.91-12.51,11.19-4.68,3.28-8.97,5.17-12.88,5.67Z"></path>
  <path d="M201.96,163.14l55.19,66.42c2.33,2.63,5.3,3.55,8.92,2.75,1.64-.33,3.16-1.08,4.55-2.24l1.44-1.2,1.09,1.31-26.93,22.38-1.09-1.31,1.57-1.3c2.09-1.74,3.3-3.92,3.62-6.55.32-2.62-.27-4.93-1.78-6.92l-55.08-66.29-23.67,19.67c-2.01,1.67-3.05,3.64-3.14,5.93-.09,2.29.62,4.34,2.15,6.17l1.74,2.09-1.44,1.19-12.28-14.77c2.32-.75,5.22-2.27,8.69-4.57,3.47-2.29,5.99-4.09,7.56-5.4l42.62-35.42c6.28-5.22,10.58-9.97,12.91-14.26l12.28,14.77-1.44,1.2-1.74-2.09c-1.52-1.83-3.44-2.89-5.74-3.19-2.31-.29-4.42.36-6.34,1.95l-23.67,19.67Z"></path>
  <path d="M379.98,161.74l1.18-.68.84,1.48-30.25,17.31-.84-1.48,1.18-.67c1.87-1.07,2.93-2.52,3.18-4.37.25-1.84.05-3.33-.59-4.46-.65-1.13-1.48-2.12-2.49-2.98l-19.34-14.98-37.33,21.36,2.86,23.83c.24,1.56.68,2.91,1.33,4.04.65,1.13,1.84,2.08,3.59,2.84,1.74.77,3.6.58,5.57-.54l1.18-.68.84,1.48-28.18,16.12-.84-1.48,1.18-.67c2.07-1.18,3.75-3.09,5.05-5.73,1.3-2.63,1.82-5.77,1.57-9.42-4.8-58.36-7.37-88.88-7.73-91.55-.69-5.09-1.38-8.35-2.07-9.78l1.33-.76,82.54,59.71c6.12,4.07,11.54,4.76,16.26,2.06ZM294.9,166.74l33.64-19.25-39.66-30.97,6.02,50.22Z"></path>
  <path d="M519.56,72.77c3.54,15.35,1.55,28.57-5.96,39.66-7.51,11.09-19.43,18.52-35.78,22.28l-55.33,12.74-.38-1.66,2.15-.5c2.65-.61,4.66-2,6.02-4.18,1.36-2.17,1.82-4.49,1.37-6.94l-18.01-78.19c-.72-2.62-2.18-4.56-4.39-5.79-2.2-1.24-4.63-1.55-7.28-.94l-1.99.46-.38-1.66,55.33-12.74c10.82-2.49,20.69-2.67,29.62-.54,8.92,2.13,16.4,6.46,22.44,12.97,6.04,6.52,10.23,14.86,12.57,25.02ZM423.11,47.88l20.6,89.46,32.97-7.59c12.7-2.92,21.83-9.24,27.38-18.96,5.55-9.71,6.74-21.47,3.56-35.27-3.18-13.8-9.39-23.86-18.64-30.16-9.24-6.3-20.22-7.99-32.92-5.07l-32.97,7.59Z"></path>
  <path d="M544.1,120.95c2.72-.16,4.96-1.17,6.72-3.03,1.77-1.86,2.63-4.04,2.6-6.54l-4.66-80.62c-.14-2.49-1.23-4.53-3.25-6.11-2.02-1.59-4.39-2.3-7.11-2.14l-2.38.14-.1-1.7,49.56-2.87c4.64-.27,8.69-.84,12.16-1.72,3.47-.88,5.7-1.58,6.69-2.09l1.12,19.35-1.88-.06-.15-2.55c-.14-2.38-1.05-4.37-2.73-5.97-1.68-1.61-3.77-2.34-6.26-2.19l-35.3,2.04,2.49,43.11,29.02-1.68c2.26-.13,3.95-.91,5.06-2.34,1.11-1.43,1.61-3.16,1.49-5.2l-.13-2.21,1.87-.11,1.37,23.76-1.87.11-.13-2.21c-.18-3.17-1.5-5.25-3.94-6.24-.93-.29-1.9-.46-2.92-.51l-29.53,1.71,2.49,43.11,26.65-1.54c5.2-.3,9.54-1.46,13-3.48,3.46-2.01,6.05-4.32,7.77-6.92,1.72-2.6,3.43-5.99,5.12-10.17l1.7-.1-7.93,24.81-68.91,3.99-.1-1.7,2.38-.14Z"></path>
  <path d="M811.17,22.2c-2.8-.45-5.36.14-7.69,1.77-2.33,1.63-3.78,3.84-4.34,6.62l-14.03,86.59c-1.05,6.49-1.66,12.71-1.82,18.65l-.15,3.07-1.51-.24-75.63-112.49-13.54,83.57c-.53,3.93.74,7.12,3.79,9.57,1.42,1.15,3.03,1.87,4.82,2.16l3.19.52-.27,1.68-34.57-5.6.27-1.68,3.19.52c2.79.45,5.36-.13,7.69-1.77,2.33-1.63,3.73-3.9,4.2-6.81l14.12-87.09c1.11-6.82,1.7-12.99,1.79-18.48l.1-2.74,1.68.27,75.63,112.49,13.49-83.23c.36-2.93-.31-5.53-2-7.82-1.7-2.28-3.95-3.65-6.74-4.11l-3.19-.52.27-1.68,34.57,5.6-.27,1.68-3.02-.49Z"></path>
  <path d="M864.1,60.43c9.77-.89,19.51.63,29.24,4.55,9.72,3.92,17.79,9.59,24.21,17,6.42,7.42,10.49,15.87,12.23,25.37,1.73,9.5.67,19.03-3.19,28.59-3.86,9.57-9.7,17.17-17.54,22.81-7.84,5.64-16.64,8.9-26.4,9.79-9.77.89-18.91-.38-27.42-3.82-8.51-3.43-15.54-7.67-21.08-12.72-5.54-5.04-9.84-10.68-12.88-16.92-3.05-6.24-4.71-13.02-5-20.34-.29-7.32,1.26-15.17,4.63-23.52s8.97-15.36,16.8-20.99c7.83-5.64,16.63-8.9,26.4-9.79ZM830.74,134.78c4.57,11.56,12.74,19.71,24.51,24.45,11.77,4.75,23.34,4.55,34.69-.58,11.36-5.14,19.68-14.27,24.98-27.41,5.3-13.14,5.63-25.5,1.02-37.07-4.62-11.58-12.82-19.74-24.59-24.49-11.77-4.75-23.31-4.54-34.62.62-11.31,5.16-19.61,14.31-24.9,27.44-5.3,13.14-5.66,25.49-1.1,37.04Z"></path>
  <path d="M1057.25,165.54l-1.12-.78c-2.04-1.43-4.51-2.15-7.4-2.16-2.89-.01-5.98.84-9.25,2.56-50.62,29.35-77.06,44.76-79.32,46.22-4.31,2.8-6.96,4.82-7.96,6.05l-1.25-.88,18.6-100.01c1.13-7.37-.53-12.6-4.99-15.72l-1.12-.78.97-1.39,28.58,19.95-.97,1.39-1.12-.78c-1.77-1.23-3.53-1.53-5.29-.89-1.76.64-3,1.47-3.71,2.49-.71,1.02-1.32,2.19-1.82,3.5l-17.47,78.2,67.88-42.6c1.31-.88,2.33-1.86,3.08-2.93.74-1.07,1.09-2.56,1.04-4.46-.05-1.9-1.01-3.5-2.87-4.8l-.98-.68.97-1.39,26.49,18.49-.97,1.39Z"></path>
  <path d="M1003.59,253.08c2.18,2.14,4.72,3.36,7.61,3.65,2.89.29,5.21-.45,6.95-2.23l56.18-57.29c1.74-1.78,2.44-4.11,2.1-6.99-.35-2.88-1.66-5.43-3.92-7.66l-1.58-1.55,1.19-1.21,27.43,26.9-1.19,1.21-1.58-1.55c-2.18-2.14-4.66-3.38-7.43-3.71-2.77-.33-5.11.31-7.01,1.93l-56.54,57.65c-1.67,1.86-2.3,4.21-1.91,7.05.39,2.84,1.67,5.33,3.86,7.48l1.58,1.55-1.07,1.33-27.55-27.02,1.19-1.21,1.7,1.67Z"></path>
  <path d="M1133.5,251.85c8.71,4.51,16.11,11.03,22.2,19.56,6.09,8.53,9.84,17.65,11.26,27.36,1.42,9.71.31,19.02-3.34,27.96-3.65,8.94-9.67,16.4-18.07,22.39-8.4,5.99-17.42,9.25-27.05,9.79-9.64.54-18.81-1.44-27.52-5.95-8.71-4.51-15.73-10.5-21.06-17.97-5.33-7.47-8.97-14.83-10.93-22.06-1.96-7.24-2.54-14.3-1.75-21.2.79-6.9,3.03-13.51,6.73-19.84,3.7-6.33,9.22-12.11,16.55-17.34s15.82-8.12,25.46-8.66c9.64-.54,18.81,1.44,27.52,5.95ZM1065.38,296.57c-2.37,12.2.13,23.46,7.5,33.8,7.37,10.33,17.22,16.39,29.56,18.17,12.34,1.78,24.27-1.44,35.81-9.67,11.53-8.22,18.47-18.46,20.8-30.7,2.33-12.25-.18-23.54-7.55-33.87-7.37-10.34-17.21-16.37-29.51-18.1-12.31-1.74-24.22,1.51-35.76,9.74-11.54,8.23-18.49,18.44-20.85,30.64Z"></path>
  <path d="M1113.11,388.78c1.1-.86,3.57-2.15,7.41-3.85,3.83-1.7,8.01-2.75,12.55-3.16l.83,1.86c-.98.31-1.93.67-2.87,1.09-5.59,2.48-9.36,6.36-11.3,11.62-1.94,5.26-1.46,11.16,1.44,17.68,3.04,6.84,6.98,11.47,11.85,13.9,4.86,2.43,9.8,2.53,14.83.3,5.02-2.23,8.36-5.95,10.02-11.15l10.12-41.7c2.04-6.86,6.63-11.87,13.78-15.05,4.04-1.79,8.26-2.34,12.67-1.63,4.41.71,8.51,2.61,12.3,5.7,3.79,3.09,6.88,7.33,9.28,12.71,2.39,5.38,4.04,10.36,4.95,14.92l2.28,5.13-16.8,7.83-.76-1.71c4.35-1.93,7.05-4.93,8.1-8.99,1.05-4.06.33-8.89-2.15-14.48-2.49-5.59-5.96-9.57-10.42-11.93-4.46-2.36-8.94-2.54-13.45-.54-4.5,2-7.52,5.76-9.04,11.27l-10.29,42.15c-1.82,6.51-6.25,11.33-13.29,14.46-7.04,3.13-14.18,3.11-21.42-.06-7.24-3.17-12.56-8.59-15.96-16.25-2.25-5.08-3.89-10.43-4.9-16.05-1.01-5.63-.93-10.32.26-14.07Z"></path>
</svg>