<?xml version="1.0"?>
<svg fill="#F3EFE2" id="Layer_1" data-name="Layer 1" xmlns="http://www.w3.org/2000/svg" viewBox="0 0 2000 1505.42">
  <defs>
    
  </defs>
  <path class="cls-1" d="M2000,903.03c-12.8-304.55-223.02-570.46-531.36-611.94h0c2.16-2.37,4.19-5.08,6.84-7.31,70.73-59.45,221.53-191.47,115.08-265.78-76.05-53.09-125.15,24.35-178.2,63.54-5.87,4.34-14.16,3.53-18.99-1.94-110.19-124.71-233.19-76.45-206.3,27.51,13.13,50.78,70.7,111.55,166.22,178.31-123.23,18.02-226.76,71.94-328.3,138.39l-8.03,5.26s-5.77-6.94-10.45-10.28c-12.51-8.93-14.36-15.66-39.15-30.59-4.26-2.57-21.76-11.55-26.26-13.93-82.54-43.67-152.34-60.7-218.36-81.94,71.21-66.83,170.93-112.7,63.27-205.29-31.33-58.39-75.51-88.9-142.66-74.04-49.71,9.77-95.99-16.89-145-3.84-65.03-4.54-100.67,91.31-141.24,135.92-13.66,13.46.35,23.12,8.88,34.43-8.7,43,52.7,79.97,81.23,106.03C123.15,381.93-87.08,778.96,35.25,1098.91c127.75,338.94,485.15,510.61,912.22,272.03,4.46-2.49,33.66-25.14,33.66-25.14,0,0,5.48,4.91,8.24,7.32,391.4,341.82,1008.63,72.18,1010.63-450.08ZM1299.43,188.75c-29.53-24.52-70.47-70.58-69.85-101,.78-38.71,29.9-64.52,89.2-18.04,26.51,20.77,41.16,44.53,63.9,63.82,12.35,10.47,32.16,9.9,43.59-1.57,38.29-38.47,75.43-108.27,131.06-79.15,6.74,3.53,12.25,9.39,15.02,16.48,18.82,48.2-30.59,99.97-65.53,131.92-13.57,12.4-33.84,31.7-47.97,43.69-66.87,56.74-104.79-14-159.41-56.15ZM797.07,179.6c-51.02,31.27-77.53,118.63-147.94,80.53,57.53-88.21,33.43-105.08,147.94-80.53ZM693.49,47.88c27.92,27.4,39.76,67.72,73.48,93.26-20.81-2.03-39.22-2.5-56.9,9.83-24.06-30.23-36.09-67.04-58.98-98.67l42.4-4.42ZM578.29,63.1c1.04-21.76,37.13-9.8,49.39-10.35,11.69,31.1,28.85,58.31,45.88,86.36,14.32,34.52-39.85,71.41-52.51,104.9-75.87,55.5-85.38-28.04-105.63-85.21,6.84-36.01,50.31-59.96,62.87-95.7ZM424.32,126.05c30.38-42.44,75.53-126.87,125.6-73.71-52.1,78.95-28.31,91.2-129.29,79.26l3.69-5.55ZM421.69,202.57c-12.73-12.89-31.65-31.17-45.04-44.38,39.87,7.64,79.4,15.14,115.48-1.89,5.65,37.62,21.65,70.56,36.78,104.81-53.07,26.66-73.04-29.39-107.22-58.54ZM940.17,1316.23C177.86,1820.02-365.95,652.3,439.48,336.85c184.51-48.74,387.11,5.93,543.6,110.38,1.54,1.03,6.04,1.94,4.6,3.09-7.91,6.36-15.7,10.98-23.21,17.96-19.05,17.69-42.7,37.05-54.15,59.84C537.54,169.23-22.75,635.81,171.03,1101.95c126.69,245.93,484.08,320.43,691.94,133.1,14.84-35.8-15.08-39.3-38.13-13.39-209.2,170.41-578.09,65.78-641.42-199.55-89.03-411.54,375.73-781.48,710.58-468.83-131.23,217.76-137.93,434.37-28.03,652.46,30.74,24.22,33.41,67.09,65.35,93.77,2.82,5.39,17.67,13.4,8.85,16.7ZM1965.64,921.97c-56.87,721.81-1070.94,705.46-1147.57,1.53,34.99-761.26,1119.16-796.11,1147.57-1.53Z"></path>
  <path class="cls-1" d="M1861.1,899.33c10.47-621.92-958.15-621.39-935,5.78,2.8,603.24,984.67,615.94,935-5.78ZM996.8,1050.44l-3.43,5.78c-3.05-6.81-5.91-13.69-8.57-20.65-39.77-103.97-35.93-224.01,10.46-325.64,2.85-6.24,11.56-12.12,9.03-18.51,45.88,115.73,72.33,256.62-7.48,359.03ZM1070.37,1169.97c-.39,10.15-78.8-89.25-55.17-89.85,84.95-94.88,96.07-303.23,9.9-419.95-.78-1.05,1.24-2.32,1.88-3.48,22.89-41.03,74.22-84.13,74.22-84.13,0,0,24.5,32.12,31,47.52,79.67,188.64,59.16,398.34-61.83,549.88ZM1822.73,883.96c41.91,391.67-476.05,600.34-728.63,314.42,121.79-135.63,181.45-398.56,68.25-601.29-9.59-17.17-21.46-34.34-33.7-45.75,6.5,6.06-2.85,2.28,4.3-2.76,268.46-189.23,682.87-9.86,689.79,335.38Z"></path>
  <path class="cls-1" d="M556.76,152.73c81.24,42.54,162.08-13.74,49.04-26.34-24.84,1.86-56.6-3.17-49.04,26.34Z"></path>
</svg>