<?xml version="1.0"?>
<svg id="Layer_1" data-name="Layer 1" xmlns="http://www.w3.org/2000/svg" viewBox="0 0 934.05 1500">
  <defs>
    
  </defs>
  <path class="cls-1" d="M854.47,170.38C775.74,70.6,649.63,8.92,523.56.99,283.07-14.16,10.41,146.08.34,404.87c-4.81,123.59,41.66,241.4,88.4,353.41,49.38,118.35,103.69,234.64,161.37,349.15,65.01,129.07,133.74,256.17,202.28,383.39,6.7,12.43,25.7,12.04,32.5,0,41-72.61,79.09-147.08,119.12-220.26,40.03-73.17,79.06-146.92,116-221.7,72.31-146.4,138.98-298.31,185.84-454.95,42.84-143.2,45.03-301.33-51.39-423.53ZM872.65,565.99c-40.02,151.51-101.99,297.22-169.23,438.39-38.04,79.86-78.55,158.52-120.28,236.51-20.88,39.03-42.09,77.86-63.82,116.42-16.23,28.8-33.58,56.96-50.29,85.48-111.41-203.85-222.31-408.45-318.55-619.98-48.8-107.26-102.63-219.15-119.32-336.93-8.36-59.01-6.22-120.55,11.99-177.57,15.79-49.43,44.61-93.73,81-130.49,12.67-12.8,26.19-24.59,40.37-35.5,94.51-59.61,200.55-100.82,313.42-106.55,126.41-6.42,251.85,40.27,337.03,135.26,41.16,45.9,70,102.05,81.01,162.85,14.02,77.43-3.59,157.35-23.33,232.09Z"></path>
  <path class="cls-1" d="M807.42,366.15c-10.26-75.2-65.05-147.16-143.47-158.47-86.27-12.44-147.38,52.61-192.46,117.16-18.43-50.75-69.25-89.65-120.39-103.15-65.34-17.24-133.41,2.09-181.46,49.17-49.8,48.79-67.79,117.74-53.74,185.35,15.79,76,67.67,140.78,118.01,197.38,54.4,61.18,115.77,115.9,182.03,163.95,15.32,11.11,31,21.65,46.74,32.14,15.77,10.5,32.81,22.23,52.91,17.3,19.08-4.68,31.3-22.23,43.74-35.9,13.87-15.24,28.03-30.2,41.83-45.5,53.07-58.85,105.88-119.92,145.79-188.69,40.05-69.01,71.53-149.67,60.47-230.74ZM736.93,552.34c-31.35,60.97-73.37,115.59-120.2,165.41-23.72,25.23-48.7,49.27-73.75,73.17-9.53,9.09-23.04,27.3-36.06,31.04-11.46,3.3-30.64-13.15-39.98-18.82-59.26-36.02-114.68-77.8-165.69-124.77-86.46-79.61-213.97-213.21-139.61-339.24,31.28-53.02,90.84-89.28,153.18-84.73,30.7,2.24,59.84,13.54,85.06,30.99,12.48,8.64,23.97,18.66,34.56,29.52,10.54,10.82,12.04,27.7,24.53,36.69,7.21,5.19,17.17,5.96,25.34,2.72,9.15-3.64,11.12-12.21,16.41-19.8,11.62-16.68,24.51-32.58,39.17-46.7,28.55-27.51,64.97-48.13,105.66-46.76,57.84,1.94,106.34,52.49,122.67,105.29,21.21,68.58.53,144.16-31.27,206Z"></path>
</svg>