<?xml version="1.0"?>
<svg fill="#4B4636" id="Layer_1" data-name="Layer 1" xmlns="http://www.w3.org/2000/svg" viewBox="0 0 1225.55 2000">
  <defs>
    
  </defs>
  <path class="cls-1" d="M759.27,167.28c-1.31,9.14-2.53,18.03-3.88,26.89-.52,3.38-1.2,6.74-2.06,10.05-8.82,33.9-46.04,46.83-73.13,24.56-7.64-6.28-13.78-6.91-22.96-5.33-36.08,6.23-72.4,11.02-108.55,16.87-12.88,2.09-25.64,5.25-38.26,8.64-72.33,19.42-142.12,45.65-209.49,78.38-29.14,14.15-57.9,29.33-87.91,41.36-45.69,18.31-93.81,27.47-142.88,31.08-13.62,1-27.32,1.5-40.96,1.12-6.23-.17-12.67-2.35-18.51-4.82-7.79-3.3-11.34-9.81-10.58-16.63.78-6.94,6.01-12.67,14.73-13.83,10.54-1.41,21.26-2.27,31.88-2.09,36.93.62,72.91-5.8,107.2-18.35,36.24-13.27,71.66-29.03,106.69-45.31,44.77-20.81,89.27-42.25,137.22-54.77,43.2-11.28,86.6-21.9,130.22-31.4,17.38-3.79,35.76-2.73,53.36-5.78,24.16-4.2,48.01-10.15,71.94-15.58,1.63-.37,3.4-2.48,4.09-4.19,3.04-7.46,9.32-11.12,16.88-8.26,4.76,1.81,9.19,4.91,13.23,8.1,5.2,4.11,9.64,9.17,14.82,13.3,7.18,5.73,14.14,3.49,16.76-5.23,1.49-4.96,2.38-10.11,2.65-15.55-.79,1.03-1.6,2.05-2.38,3.09-7.3,9.74-20.13,10.58-28.07,1.3-3.19-3.73-5.67-8.39-7.31-13.05-8.71-24.79-15.98-49.9-13.82-76.68.05-.56-.22-1.14-.41-2.07-.94-.07-1.94-.38-2.8-.18-27.96,6.73-56.5,7.79-85.07,9.49-43.05,2.56-86.05,4.88-129.15,1.55-4.42-.34-8.88-.54-13.21-1.36-4.45-.84-6.06.89-6.89,5.04-4.53,22.7-5.17,45.58-3.35,68.56.73,9.22,1.82,18.44,3.33,27.56.57,3.47,2.78,6.67,4.84,11.36-1.9,4.5-7,6.63-11.6,1.88-5.03-5.2-9.75-11.51-12.2-18.22-7.77-21.34-9.23-43.68-6.82-66.12,1.21-11.29,3.96-22.42,6.13-34.25-1.45-.28-3.56-.68-5.66-1.11-34.5-7.11-69.13-13.65-103.44-21.56-17.59-4.05-34.3-12.12-51.95-15.62-37.88-7.51-75.94-14.84-114.27-19.14-27.68-3.1-56.02-1.65-83.65,3.55-11.75,2.21-23.08,6.85-34.44,10.85-4.71,1.66-9.02,2.83-12.83-1.08-3.82-3.91-3.99-8.7-1.68-13.46,3.96-8.16,10.96-13.21,18.55-17.6,16.48-9.54,34.54-14.16,53.15-17.09C120-.61,163.11-2.95,206.59,5.06c27.88,5.13,56.31,7.28,84.25,12.13,22.38,3.89,44.39,9.86,66.57,14.86,26.71,6.01,53.28,12.76,80.18,17.73,25.29,4.67,50.83,9.13,76.44,10.64,33.7,1.99,67.58.98,101.38,1.32,13.29.13,26.58.27,39.86.73,3.85.13,5.72-.86,6.95-4.7,3.67-11.51,10.63-20.74,20.97-27.14,15.89-9.83,33.56-6.9,45.53,7.42,7.24,8.67,11.98,18.63,14.47,29.58,4.14,18.25,7.97,36.58,11.96,54.87.29,1.35.74,2.66,1.32,4.74,8.24-5.26,16.03-2.22,23.7.76,36.91,14.34,72.49,31.44,104.4,55.05,33.25,24.6,54.5,56.55,56.25,99.4.8,19.46-2.58,38.36-9.15,56.28-8.5,23.19-19.16,45.59-28.7,68.41-5.27,12.61-10.69,25.21-15.09,38.13-6.34,18.63-4.61,37.36,1.59,55.75,6.14,18.24,14.46,35.3,26.34,50.64,17.63,22.76,34.97,45.74,52.19,68.82,28.61,38.34,33.04,79.87,14.92,123.74-3.31,8.02-9.32,14.94-14.16,22.32-1.16,1.77-2.61,3.36-4.76,6.11,9.26-.99,17.18-1.78,25.09-2.7,31.29-3.63,61.91,1.27,92.24,8,13.88,3.08,27.53,7.53,40.92,12.36,10.36,3.73,18.45,10.25,20.62,22.41.68,3.81,4.64,6.93,6.63,10.62,20.37,37.61,37.91,76.04,47.59,118.3,12.03,52.54,19.75,105.59,26.64,158.91,5.54,42.86-1.87,83.52-18.98,122.52-5.34,12.17-12.81,24-21.6,33.95-18.66,21.13-39.44,40.12-62.49,56.69-21.73,15.62-43.21,31.73-63.59,49.04-39.1,33.21-61.6,76.16-71.23,126.36-6.43,33.52-9.99,67.29-11.53,101.32-1.59,35.2-3.37,70.39-4.3,105.6-1.15,43.72,4.42,86.77,14.96,129.19.32,1.29.94,2.51,1.73,4.58,5.69-8.99,14.05-9.61,22.75-8.81,31.98,2.94,62.2,12.12,89.34,29.12,18.8,11.78,28.98,30.37,32.06,52.45,1.33,9.53-1.26,18.42-6.11,26.6-10.05,16.96-24.16,29.04-42.14,37.49-38.88,18.28-80.45,25.31-122.45,30.83-41.82,5.49-83.29,1.44-124.36-6.25-27.32-5.11-52.03-16.55-72.49-36.21-25.43-24.45-26.39-48.4-3.39-75.16,19.15-22.26,44.41-32.85,71.99-38.87,21.61-4.72,43.47-8.29,65.29-11.97,3.68-.62,4.8-2.35,5.23-5.27,3.68-24.64,8.55-49.18,10.67-73.96,3.89-45.62,1.21-91.36-.34-137.04-.85-25.15-.85-50.39-3.1-75.42-2.48-27.62-5.44-55.33-13.98-82-16.15-50.47-44.12-90.91-94.31-113.18-21.24-9.42-40.04-22.94-58.9-36.52-41.94-30.2-65.42-71.14-76.67-120.92-14.7-65.07-15.25-129.63,1.58-194.31,9.08-34.86,16.59-70.16,26.66-104.72,5.42-18.59,14.48-36.17,22.46-53.95,3.08-6.86,7.35-13.3,11.81-19.39,2.49-3.4,6.08-6.62,9.88-8.32,26.39-11.77,54.19-20.37,82.5-24.25,30.75-4.22,61.37-11.69,92.84-9.89,12.26.7,15.01-2.01,19.12-14.65,15.25-46.88,1.71-88.01-27.23-125.35-8.74-11.27-18.8-21.53-28.52-32.01-34.56-37.26-54.33-80.94-60.26-131.6-4.96-42.4,4.75-80.22,29.38-114.62,2.7-3.77,5.4-7.53,8.15-11.25,7.79-10.54,8.82-22.17,5.6-34.49-2.11-8.03-6.98-13.46-15.05-15.84-5.6-1.65-11.15-3.51-16.8-4.97-32.13-8.26-42.14-28.12-43.35-57.36-.3-7.15.7-14.5,2.12-21.55,2.1-10.45-.05-18.28-9.64-24.23-6.35-3.94-11.68-9.53-17.83-14.68ZM739.33,853.55c.19-.21-.4.15-.58.66-7.47,21.02-15.88,41.78-22.02,63.18-4.81,16.74-6.35,34.39-10.15,51.45-5.38,24.14-11.83,48.04-17.17,72.19-2.38,10.75-4.02,21.83-4.44,32.82-.5,13.2,1.58,26.52.9,39.7-1.24,24.25,2.69,47.79,7.88,71.2,8.88,40.01,28.57,72.99,64.55,94.4,14.84,8.83,30.35,16.56,45.68,24.56,18.19,9.49,36.7,18.37,54.7,28.19,11.94,6.51,22.15,15.48,29.8,26.9,11.02,16.45,20.14,33.86,26.47,52.73,13.57,40.47,19.51,82.13,20.53,124.65.69,28.76,1.71,57.51,2.58,86.26,1-3.32,1.51-6.68,1.87-10.05,4.53-43.23,8.08-86.61,17.35-129.19,6.53-30.03,14.52-59.83,33.46-84.73,17.74-23.33,39.56-42.88,63.03-60.42,20.48-15.31,41.3-30.16,62.09-45.05,17.66-12.64,32.72-27.95,46.64-44.49,11.4-13.54,20.13-28.3,25.23-45.54,10.7-36.11,10.73-72.77,6.72-109.57-4.41-40.46-11.66-80.51-22.86-119.68-5.51-19.29-11.19-38.69-18.9-57.16-10.69-25.61-23.43-50.36-35.11-75.56-1.63-3.51-3.47-4.3-7.01-3.11-11.25,3.77-22.65,7.13-33.87,11.02-41.48,14.37-84.17,23.03-127.79,27.33-8.11.8-16.23,1.46-24.29,2.18,1.12,18.21,8.82,36.81,20.08,49.47,1.19,1.34,2.75,2.87,2.96,4.46.34,2.51.59,6.24-.82,7.43-1.48,1.24-5.89,1.12-7.39-.22-3.35-3.01-6.64-6.77-8.28-10.89-6.08-15.28-11.39-30.86-17.25-46.23-.65-1.7-2.93-3.85-4.56-3.94-10.05-.55-20.17-1.29-30.18-.63-29.48,1.94-58.32-2.44-86.83-8.8-17.78-3.97-35.05-10.17-53.02-15.51ZM938.05,1688.92c-.53,7.22-1.09,14.43-1.6,21.65-1.99,28.11-3.92,56.25-11.04,83.67-6.11,23.54-12.23,47.08-18.9,70.46-3.96,13.86-8.81,27.48-13.66,41.06-1.25,3.49-3.42,7.18-6.25,9.41-2.24,1.77-6.81,2.81-9.08,1.67-2.27-1.15-3.27-5.31-4.22-8.35-.41-1.29.57-3.12,1.16-4.6,5.05-12.48,10.17-24.92,15.24-37.39,2.43-5.97,4.78-11.98,7.43-18.65-2.27,0-3.08-.14-3.83.02-22.18,4.81-44.65,8.59-66.45,14.76-22.66,6.42-40.93,20.41-54.94,39.48-7.76,10.56-6.65,18.1,2.92,26.91,16.66,15.32,36.61,24.7,58.45,28.4,22.13,3.75,44.71,5.22,67.16,6.68,40.12,2.62,79.96-.65,119.76-6.2,28.61-3.99,50.18-19.41,70-38.54,8.7-8.4,10.04-18.29,4.91-29.28-6.98-14.95-18.17-24.81-34.13-29.21-15.32-4.22-30.65-8.44-45.94-12.76-8.59-2.43-17.12-5.06-27.38-8.1,4.5,13.13,8.64,25.03,12.66,36.97,4.62,13.71,9.46,27.36,13.55,41.23,2.05,6.94-.41,11.9-5.14,13.93-4.69,2.02-10.14.35-14.01-5.38-3.35-4.96-6.5-10.3-8.46-15.92-9.17-26.4-18.97-52.64-26.52-79.51-13.05-46.43-21.1-93.8-21.7-142.43ZM764.59,144.23c-.44.69-.88,1.37-1.32,2.06,7.11,6.86,13.36,15.07,21.51,20.32,18.9,12.2,28.71,28.2,26.33,50.97-.12,1.19-.04,2.42.05,3.62.8,10.73,2.32,21.13,9.44,29.99,7.38,9.18,17.69,13,28.23,16.5,9.97,3.31,18.66,8.35,25.34,16.67,13.75,17.11,14.49,45.13,1.38,65.88-3.87,6.12-8.52,11.74-12.45,17.81-15.21,23.47-25.63,49-23.94,77.17,3.2,53.6,19.4,102.63,56.49,143.12,20.51,22.39,37.84,46.86,51.23,74.27,10.06,20.59,14.57,41.66,10.4,64.32-2,10.87-4.24,21.7-6.74,34.41,3.7-4.43,7.15-7.22,8.88-10.84,17.25-36,19.61-72.39.15-108.24-6.58-12.12-15.24-23.2-23.67-34.19-12.5-16.28-26.03-31.78-38.43-48.14-16.78-22.14-30.97-46.14-36.51-73.52-6.67-32.98-1-65.02,14.76-94.81,16.51-31.22,31.21-63.21,40.75-97.24,5.35-19.08,3.77-38.34-4.51-56.64-7.71-17.05-19.18-31.68-34.2-42.32-17.98-12.74-36.95-24.41-56.57-34.43-13.62-6.96-29-10.54-43.72-15.21-4.04-1.28-8.56-1.07-12.85-1.55ZM922.38,844.64c3.24-.19,5.63-.28,8-.47,21.46-1.71,42.94-3.36,64.39-5.19,12.43-1.06,25.06-1.31,37.19-3.9,22.61-4.83,44.91-11.08,67.32-16.81,1.56-.4,2.97-1.34,4.87-2.22-1.17-.83-1.59-1.32-2.12-1.49-35.18-11.13-70.43-21.74-108.04-19.46-9.23.56-18.51.4-27.78.47-7.71.05-15.5.17-20.04-7.95-18.31,14.85-23.97,34.17-23.79,57.02ZM912.11,798.14c-11.42,1.2-22.49,2.29-33.55,3.55-26.56,3.03-53.13,5.96-79.66,9.29-14.24,1.79-27.97,5.66-40.7,12.52-1.8.97-3.51,2.12-6.43,3.91,4.36,1.74,7.21,3.29,10.26,4.02,16.02,3.82,32.03,7.77,48.18,10.98,8.43,1.67,17.13,2.55,25.72,2.65,22.3.28,44.6-.06,66.9-.17,2.32-.01,4.65-.19,7.23-.3.71-15.97,1.38-31.18,2.06-46.44ZM699.22,62.27c-2.69,3.47-7.02,5.7-4.2,10.84,4.39,8.02,10.36,15.59,12.81,24.17,6.48,22.73,11.43,45.89,16.19,65.55,2.25-12.46-15.6-90.95-24.8-100.56Z"></path>
  <path class="cls-1" d="M1133.47,1176.31c-21.6.76-39.57-6.3-52.6-24.11-3.95-5.4-9.6-7.72-15.89-8.98-14.22-2.85-28.4-2.74-42.57.34-4.72,1.02-9.46,1.98-14.21,2.84-14.02,2.54-27.88,1.41-39.36-7.18-22.31-16.68-48.37-20.83-74.69-25.1-33.07-5.36-65.87-1.34-98.71,1.95-13.42,1.35-26.8,3.09-40.2,4.59-8.68.97-14.79-2.19-16.73-8.51-2.04-6.65.93-13.75,9.24-16.81,12.79-4.7,25.96-8.55,39.22-11.72,53.2-12.7,106.37-9.07,159.3,1.79,16.45,3.37,31.73,10.14,45.77,19.73,3.87,2.64,9.29,3.91,14.08,4.12,7.39.32,14.88-.49,22.26-1.4,16.66-2.06,32.95-.23,49.07,3.91,12.38,3.18,22.83,9.58,29.47,20.6,11.27,18.7,28.72,20.79,47.83,18.83,4.36-.45,8.57-2.19,12.91-3.03,6.44-1.24,11.24.71,12.7,5.29,1.78,5.56-.3,9.46-5.3,12.63-12.8,8.09-26.99,9.92-41.58,10.21Z"></path>
  <path class="cls-1" d="M974.93,1294.98c-25.14-1.74-48.19-5.65-69.53-15.59-8.66-4.04-16.35-10.9-23.26-17.72-6.16-6.07-12.17-9.75-21.1-9.11-16.05,1.14-32.17,2.36-48.24,2.05-15.01-.29-30.01-2.36-44.97-4.01-4.13-.46-8.2-2.03-12.16-3.47-26.99-9.84-36.53-34.23-23.48-59.9.91-1.78,1.97-3.53,3.21-5.09,3.39-4.27,7.71-6.93,13.15-4.65,5.17,2.16,4.38,7.08,4.05,11.54-.42,5.61-.94,11.23-1.15,16.85-.25,6.57,2.67,11.8,8.94,13.55,12.91,3.62,25.89,7.63,39.12,9.33,20.53,2.65,41.32,3.28,61.96,5.23,10.45.99,20.16,4.36,26.68,13.43,16.97,23.61,40.96,26.69,67.34,23.56,10.76-1.28,21.63-1.73,32.46-2.29,2.95-.15,6.04.4,8.92,1.16,5.1,1.35,8.54,4.56,8.88,10.13.36,5.87-2.83,10.09-8.05,11.36-7.95,1.94-16.2,2.65-22.77,3.65Z"></path>
</svg>