<?xml version="1.0"?>
<svg fill="#4B4636" id="Layer_1" data-name="Layer 1" xmlns="http://www.w3.org/2000/svg" viewBox="0 0 1435.14 2000">
  <defs>
    
  </defs>
  <g>
    <path class="cls-1" d="M720.39,1125.97c2.45,7.11,4.2,14.31,2.71,21.91-2.88,14.66-15.73,19.47-27.25,9.94-8.96-7.42-14.75-17.13-18.23-28.16-1.82-5.77-1.59-11.58,1.41-16.97,1.79-3.22.58-4.78-2.45-5.79-6.14-2.05-12.23-4.29-18.43-6.14-5.32-1.58-6.54-.52-7.29,5.02-1.53,11.31,2.07,21.44,8.63,30.09,10.55,13.9,21.44,27.64,33.27,40.45,11.31,12.25,25.59,19.57,42.44,22.85,15.02,2.92,29.74,7.78,44.25,12.79,17.42,6.01,34.59,12.81,51.64,19.81,7.88,3.23,15.84,6.91,22.71,11.85,16.85,12.13,29.9,28.1,42.23,44.65,3.96,5.32,7.88,10.75,12.44,15.53,27.8,29.11,59.58,52.92,96.21,69.75,43.96,20.2,90.4,32.69,137.76,41.66,17.36,3.29,33.31,9.42,48.25,18.41,7.5,4.52,10.27,11.86,8.1,18.57-2.22,6.87-8.55,10.89-17.45,10.13-16.03-1.38-31.68-4.3-46.53-11.1-33.27-15.23-66.39-30.84-100.16-44.87-44.98-18.68-87.4-41.41-126.12-71.19-22.47-17.28-43.4-35.92-61.01-58.11-4.51-5.68-8.06-12.13-11.88-18.33-4.24-6.87-9.85-11.34-18.19-12.21-4.15-.44-8.28-1.57-12.29-2.81-15.15-4.66-30.27-9.46-45.37-14.28-19.98-6.38-41.35-8.62-59.67-20.06-.82-.51-3.56.48-4.22,1.52-9.47,14.95-15.97,30.75-13.47,49.04.55,4,1.04,8.1.77,12.1-.31,4.66,1.35,6.19,5.82,5.59,14.09-1.88,28.2-3.63,42.31-5.45,5.13-.66,10.24-1.79,15.39-2.01,30.6-1.3,53.47,20.84,53.35,51.35-.03,9.37-2.82,17.76-9.79,24.02-5.25,4.71-10.96,9.3-17.22,12.39-9.99,4.93-20.47,8.97-30.99,12.66-14.66,5.15-29.54,9.69-44.37,14.38-3.38,1.07-5.07,3-5.28,6.59-.89,15.68-1.85,31.36-2.9,47.03-.28,4.17,1.43,4.84,5.23,4.24,11.83-1.87,23.71-3.38,35.57-5.07,1.43-.2,2.97-.36,4.22-1,5.97-3.07,11.36-1.7,16.35,2.07,8.44,6.36,15.14,14.27,19.07,24.1,6.33,15.85,4.11,30.55-7.38,43.4-7.52,8.41-16.41,15.16-26.64,20.01-7.47,3.53-14.95,7.03-22.5,10.39-2.88,1.29-4.13,3.04-3.93,6.35,1.3,21.73,3.96,43.23,10,64.21,4.17,14.5,3.11,12.31,16.25,12.12,22.81-.32,45.66-1.93,68.25,3.21,14.21,3.24,28.54,5.99,42.86,8.71,6.18,1.17,12.48,1.76,18.74,2.52,6.06.73,12.28.72,18.17,2.14,10.38,2.5,20.39,6.86,30.86,8.63,20.09,3.38,40.33,6.2,60.62,7.94,28.38,2.44,56.84,4.18,85.3,5.26,20.53.78,41.15-.57,61.69.09,26.74.86,53.37,1.39,80.03-2.01,15.41-1.97,29.11,2.55,41.23,13.12,18.53,16.16,37.55,31.8,56.88,47,28.73,22.6,59.48,41.99,92.86,57.21,10.99,5.01,21.26,11.73,31.51,18.21,3.55,2.24,6.79,5.71,8.89,9.35,4.12,7.15-.69,15.22-8.95,15.78-2.06.14-4.34.03-6.22-.71-13.98-5.55-28.78-9.74-41.62-17.28-32.12-18.85-63.39-39.15-92.58-62.45-18.99-15.16-37.94-30.36-56.9-45.53-2.93-2.34-5.78-4.11-10.04-3.82-7.69.52-15.55.94-23.15-.06-26.84-3.52-53.66-7-80.78-7.11-44.04-.18-88.05.95-132.05-3.28-25.64-2.46-51.38-3.3-76.44-10.05-4.46-1.2-9.28-1.81-13.88-1.61-23.64,1.02-46.82-1.9-70-6.27-12.01-2.26-24.4-2.59-36.64-3.51-14.83-1.12-29.7-1.79-44.53-2.97-5.8-.47-6.39-.23-4.92,5.51,5.12,19.92,10.78,39.72,15.27,59.78,3.52,15.74,8.39,30.89,14.87,45.62,5.09,11.56,9.97,23.23,14.37,35.06,1.99,5.35,5.05,8.78,10.32,10.64,15.65,5.51,31.62,9.26,48.18,11,21.24,2.24,42.48,4.74,63.56,8.12,18.87,3.03,35.99,10.66,50.19,23.9,10.3,9.61,14.79,21.55,13.08,35.51-2.71,22.15-15.09,46.65-45.95,53.07-12.17,2.53-24.66,3.48-36.98,5.35-2.25.34-5,1.04-6.42,2.58-10.79,11.71-23.59,20.83-37.46,28.26-6.27,3.36-13.58,5.87-20.61,6.48-16.49,1.43-32.7-1.66-48.05-7.63-6-2.33-10.04-1.8-14.29,2.49-2.39,2.41-5.05,4.56-7.72,6.66-8.15,6.41-17.2,10.76-27.49,12.72-17.96,3.43-35.1-.03-51.07-7.61-8.49-4.02-14.92-3.04-22.57.88-31.62,16.22-62.57,10.07-92.94-3.92-4.53-2.09-8.43-4.04-13.65-3.19-3.19.52-6.88-.13-9.96-1.28-11.82-4.44-21.2-11.98-26.24-23.81-2.65-6.22-4.66-12.79-6.22-19.38-3.61-15.29-.43-29.26,9.47-41.55,8.48-10.53,18.03-19.96,29.41-27.36,8.56-5.56,17.24-10.92,25.9-16.31,18.1-11.26,34.44-24.72,49.87-39.38,5.72-5.43,11.48-11.03,20.07-12.01,1.21-.14,2.88-2.61,3.08-4.16,1.96-15.73,5.04-31.48,5.15-47.24.25-35.3-.79-70.61-1.75-105.9-.46-16.99,2.87-13.16-13.8-17.79-22.85-6.35-44.05-15.72-63.62-29.36-18.06-12.59-30.05-30.05-40.06-48.68-10.9-20.28-5.94-37.59,12.17-51.98,3.17-2.51,6.6-4.7,9.85-7.11,1.08-.8,1.98-1.84,3.48-3.25-4.32-2.1-8.02-3.62-11.46-5.62-17.07-9.93-34.26-19.68-51.05-30.08-17.97-11.13-29.47-26.65-29.76-48.71-.17-12.95,1.6-25.57,8.2-37.03,1.97-3.42,1.6-5.06-2.52-6.04-11.62-2.76-22.5-7.21-31.78-15.02-4.21-3.55-8.51-7-12.79-10.45-10.45-8.42-17.38-19.09-20.51-32.17-1.81-7.56-3.77-15.09-5.31-22.71-2.59-12.85-3.88-25.67,2.31-38.06.63-1.25.49-3.26-.03-4.65-2.56-6.87-.44-12.68,3.58-18.2,1.17-1.61,2.25-3.29,3.91-5.73-2.58-.24-4.13-.37-5.67-.54-4.99-.54-10.19-.36-14.92-1.77-19.38-5.8-38.69-11.88-57.89-18.25-12.58-4.18-24.91-9.11-37.39-13.59-12.34-4.43-24.86-8.36-37.04-13.17-10.26-4.05-18.75-10.88-25.47-19.69-3.69-4.84-7.06-9.91-2.73-16.42-1.21-.4-1.93-.73-2.68-.88-8.87-1.8-12.62-7.3-9.72-15.78,1.64-4.79,4.19-9.6,7.47-13.43,15.5-18.14,35.63-22.98,58.42-19,20.5,3.58,40.33,9.55,59.7,17.1,1.84.72,3.79,1.13,5.69,1.68.32-.35.63-.7.95-1.05-1.38-2.63-2.7-5.3-4.15-7.9-22.63-40.29-31.63-84.12-32.41-129.73-.82-47.93-.22-95.89-.72-143.83-.53-51.18-1.81-102.35-2.35-153.52-.27-25.9-.15-51.83.8-77.71.51-13.85,2.11-27.86,5.12-41.37,2.61-11.68,9.35-22.33,20.85-27.12,10.64-4.44,22.17-7.08,33.56-9.25,5.28-1.01,11.19.7,16.7,1.74,2.21.42,4.45,2.03,6.11,3.68,3.1,3.06,2.59,5.83-.95,8.42-1.7,1.24-3.34,2.58-5.01,3.87.15.39.31.78.47,1.17,1.54.02,3.09.22,4.61.04,22.98-2.84,46.15-4.69,68.87-8.93,19.67-3.67,38.84-10.07,58.22-15.28,33.94-9.11,67.89-18.21,101.83-27.35,2.5-.67,4.93-1.58,7.39-2.38-.08-.44-.17-.88-.25-1.31-2.03-.08-4.08-.4-6.09-.21-28.2,2.69-56.52,4.55-84.55,8.43-29.71,4.11-59.39,8.06-89.39,8.92-5.45.16-11.11-.07-16.36-1.38-8.75-2.17-11.37-11.71-4.61-17.64,4.06-3.56,9.58-6.25,14.87-7.44,11.35-2.55,22.92-4.46,34.51-5.57,35.79-3.44,71.61-6.53,107.44-9.45,28.41-2.32,56.69-1.18,84.55,5.3,6.09,1.42,12.23,3.4,17.72,6.31,4.31,2.29,8.07,3.85,13.11,3.16,6.57-.89,12.56,1.66,17.32,6.17,3.61,3.43,7.39,7.08,9.76,11.37,10.45,18.98,21.06,37.93,30.35,57.49,7.35,15.47,13.26,31.67,19.08,47.81,12.81,35.5,25.62,71,37.54,106.8,9.87,29.63,19.16,59.5,27.41,89.62,8.17,29.82,14.76,60.08,22,90.16,9.76,40.58,11.85,81.7,7.5,123.07-2.18,20.73-8.49,40.16-23.13,56.1-13.13,14.28-29,24.81-45.57,34.39-3.6,2.08-8.28,3.12-12.49,3.18-8.67.12-12.84-5.84-9.07-13.59,2.75-5.65,6.85-11.09,11.57-15.22,7.16-6.25,15.24-11.5,23.19-16.79,9.18-6.1,15.82-14.18,18.4-24.78,2.86-11.77,5.63-23.72,6.65-35.74,2.56-30.26-1.79-60.14-7.1-89.84-7.94-44.37-19.51-87.9-31.05-131.43-.89-3.36-2.07-6.64-3.35-10.7-8.93,6.12-18.24,5.25-27.44,5.42-21.37.39-42.8.13-64.1,1.63-24.71,1.74-49.17,1.62-73.52-3.2-31.37-6.21-62.57-4.36-93.56,2.54-17.54,3.91-34.96,8.41-52.44,12.57-18.01,4.28-35.62,9.74-52.33,17.83-27.92,13.54-56.52,25.19-87.15,31.15-2.83.55-3.79,2.1-3.52,4.78.37,3.71.9,7.41,1.02,11.13.12,3.78,1.86,5.71,5.4,7.02,10.48,3.87,20.8,8.17,31.24,12.14,4.83,1.84,9.73,3.61,14.74,4.87,18.47,4.67,37.24,4.49,56.02,2.66,32.56-3.16,65.06-7.02,97.66-9.61,20.25-1.61,40.13-3.92,59.75-9.72,27.32-8.09,55.15-14.43,82.53-22.32,30.99-8.93,61.63-18.97,89.9-35.01,1.4-.79,2.94-1.38,4.47-1.9,5.42-1.82,9.9-.71,12.17,2.95,2.28,3.66,1.45,8.24-2.53,12.31-9.67,9.89-20.3,18.43-32.52,25.16-62.38,34.35-130.12,45.34-200.14,45.77-24.99.15-49.88.77-74.66,3.93-27.89,3.56-55.77,5.53-83.77,1.36-17.27-2.57-34.56-4.97-51.77-7.87-5.99-1.01-6.01-1.42-6.07,4.57-.53,53.54,8.95,105.75,20.92,157.61,4.73,20.49,8.6,41.31,18.62,60.17,14.15,26.62,34.16,45.72,65.18,50.74,9.91,1.6,18.92,5.62,27.21,11.21,6.01,4.05,10.35,9.36,11.09,16.87.35,3.53,2.03,3.66,4.98,2.85,12.95-3.56,25.95-6.96,38.95-10.34,20.38-5.3,40.51-12.29,61.21-15.41,33.52-5.05,48.46.93,62.97,29.85,8.51,16.97,6.57,33.63-4.48,48.58-10.04,13.59-22.1,25.42-36.92,34.04-6.3,3.67-12.46,7.59-18.88,11.02-4.02,2.14-4.99,4.38-2.52,8.42,4.07,6.65,5.8,13.98,5.46,21.83-.25,5.74.36,6.1,5.63,4.1,22.13-8.4,44.42-16.3,67.81-20.48,3.73-.67,3.94-2.5,3.58-5.82-1.09-10.1-2.53-20.28-2.3-30.39.37-16.89,2.56-33.67,9.79-49.22,1.8-3.88,1.03-5.92-1.63-8.81-10.42-11.31-20.68-22.77-30.7-34.42-14.19-16.5-17.48-36.06-14.93-56.98,1.88-15.41,10.54-24.1,26.02-24.01,10.2.06,20.74,1.61,30.52,4.53,19.04,5.7,37.79,12.46,56.4,19.48,17.19,6.48,35.19,8.67,53.13,10.68,14.27,1.6,28.79,1.04,43.2,1.44,22.5.62,44.95.95,66.95,7.14,51.05,14.36,99.66,34.77,146.99,58.38,40.87,20.39,81.29,41.69,122.41,61.55,34.56,16.69,67.13,36.53,98.68,58.17,29.92,20.52,59.76,41.16,89.4,62.07,12.15,8.58,23.87,17.8,35.41,27.19,3.39,2.76,6.2,6.76,8.06,10.76,5.08,10.91-2.2,21.27-14.19,20.28-4.43-.37-9.16-1.43-13.02-3.52-16.91-9.18-34.51-17.52-50.07-28.66-23.41-16.76-45.3-35.64-67.89-53.55-28.07-22.26-56.37-44.23-89.07-59.52-27.73-12.97-55.58-25.67-83.42-38.4-35.34-16.16-70.35-33.13-106.21-48.04-29.72-12.35-60.45-22.28-90.8-33.07-4.54-1.61-9.42-2.57-14.23-3.05-13.69-1.37-27.41-2.32-41.12-3.45-22.66-1.86-45.21-4.19-65.78-15.19-1.21-.65-2.84-.93-4.21-.79-13.5,1.35-26.44-1.4-39.26-5.13-1.91-.56-3.95-.68-7.24-1.22,1.18,3.32,1.89,5.26,2.56,7.21ZM774.36,709.87c-11.99-35.71-26.82-70.22-45.17-103.11-12.22-21.9-25.3-43.33-37.77-65.1-9.75-17-19.38-34.11-24.18-53.36-.96-3.84-3.53-3.1-6.1-2.38-13.26,3.7-26.66,6.98-39.74,11.25-38.31,12.5-78.06,18.86-117.17,27.93-42.06,9.76-84.88,12.29-127.76,14.68-10.51.59-21.01,1.4-31.52,2.04-3.07.19-5.17.94-5.49,4.65-2.18,24.85-5.23,49.64-6.58,74.53-1.41,26.02-1.34,52.13-1.69,78.21-.3,22.5-.34,45.01-.38,67.52-.01,4.88.92,5.5,5.01,3.49,33.2-16.35,68.63-25.22,104.89-31.18,56.35-9.25,113.13-14.69,170.17-15.72,23.18-.42,45.62-5.59,68.58-6.6,25.24-1.11,50.46-2.67,75.7-3.69,6.4-.26,12.85.8,20.21,1.33-.39-1.78-.56-3.18-1-4.48ZM626.94,1835.52c-15.86,19.96-35.75,35.03-57.54,47.91-12.61,7.45-23.44,17.07-33.53,27.79-9.2,9.78-8.46,34.33,2.29,43.2,2.08,1.72,3.62,2.96,6.29,1.11,5.97-4.16,12.66-4.14,19.09-1.78,5.88,2.16,11.47,5.17,17.02,8.14,7.42,3.96,14.69,8.21,21.99,12.38,9.34,5.33,18.47,4.2,27.88-.15,7.16-3.31,14.56-6.26,22.11-8.53,9.77-2.93,19.31-1.49,28.98,2.04,8.89,3.25,18.3,5.31,27.64,7.01,11.28,2.05,21.51-1.55,29.34-9.64,14.24-14.7,31.12-18.55,50.67-14.96,9.21,1.69,18.63,2.29,27.97,3.3,6.51.71,12.65-.64,18.09-4.26,7.54-5.03,14.96-10.24,22.33-15.51,1.54-1.1,3.02-2.6,3.89-4.25,4.07-7.64,10.83-10.67,18.92-11.93,8.47-1.32,17.02-2.48,25.32-4.56,12.67-3.18,21.45-11.02,25.2-23.85,2.1-7.18,1.07-10.83-5.03-15.19-13.62-9.72-29.35-14.24-45.5-17.3-7.3-1.39-14.77-2.48-22.17-2.57-20.86-.25-40.8-4.81-60.29-11.73-4.44-1.58-6.91-.88-9.57,3.19-7.9,12.09-20.21,18.39-33.15,23.49-31.65,12.46-64.35,17.18-98.18,12.5-4.75-.66-9.67-1.68-13.97-3.69-8.21-3.83-10.28-12.11-5.96-20.07.72-1.33,1.35-3.83.66-4.64-4.2-4.9-4.99-10.75-5.59-16.76-.12-1.19-.64-2.34-1.21-4.36-1.74,1.58-3.05,2.48-3.99,3.66ZM487.37,1426.4c11.91,12.64,24.73,23.91,42.2,28.16,3.44.84,6.97,1.68,10.49,1.81,10.14.35,19.37,3.57,28.2,8.22,1.56.82,3.46,1.66,4.32,3.04,3.12,5.05,7.09,4.04,11.79,2.79,8.13-2.17,16.41-3.78,24.67-5.39,4.02-.78,5.42-2.67,4.59-6.76-2.54-12.54-4.95-25.11-7.22-37.7-.82-4.53-3.04-4.26-6.59-3.03-15.29,5.28-30.65,10.38-46.04,15.35-2.55.82-5.46,1.08-8.14.85-4.66-.39-7.82-3.13-8.73-7.81-.92-4.69.93-7.83,5.36-10.18,19.46-10.33,39.84-17.89,61.52-21.98,19.55-3.69,39.17-7.13,58.54-11.65,9.53-2.22,18.61-6.47,27.79-10.09,19.13-7.54,38.31-14.99,57.22-23.05,7.08-3.02,13.81-7.16,20.15-11.57,11.45-7.97,13.04-22.08,4.05-32.84-7.73-9.25-16.99-13.48-29.61-10.81-25.65,5.44-51.7,9.12-77.19,15.17-22.33,5.3-44.12,12.84-66.16,19.38-16.3,4.83-32.67,9.41-48.88,14.51-11.25,3.54-22.29,7.74-33.4,11.72-3.04,1.09-5.89,3.03-9.01,3.58-16.45,2.9-31.48,30.3-29.22,46.29.3,7.88,3.23,15.55,9.31,21.99ZM611.26,1192.99c-.52,1.84-.83,3.83-.74,5.73.21,4.38-2.06,5.71-5.99,5.57-15.04-.56-24.56-14.47-19.66-28.8.61-1.78,1.26-3.54,2.37-6.66-4.47,1.09-7.86,1.71-11.11,2.75-19.43,6.22-38.65,13.17-58.29,18.63-20.13,5.61-39.13,13.49-57.27,23.74-13.22,7.47-26.57,14.73-39.94,21.96-2.59,1.4-3.77,3.06-3.73,6.1.04,3.87-.17,7.8-.86,11.6-3.47,18.9,2.16,36.23,8.81,53.42,2.79,7.21,7.86,12.49,13.95,17.03,10.51,7.83,20.87,15.85,31.44,23.6.89.65,3.61.38,4.24-.43,8.37-10.64,19.66-15.4,32.55-18.44,18.89-4.45,37.52-10.05,56.17-15.46,6.26-1.81,5.91-2.13,3.3-8.11-2.32-5.33-4.24-10.85-6.04-16.39-2.06-6.37-2.75-7.1-8.21-3.44-19.43,13.03-41.41,20.58-62.69,29.63-4.16,1.77-8.44,3.41-12.81,4.5-6.55,1.63-12.76-5.51-10.73-12.01,1.68-5.39,5.32-9.02,10.7-10.32,21.95-5.27,41.19-16.09,59.76-28.45,6.32-4.2,13.18-7.57,19.69-11.49,18.01-10.85,36.03-21.68,53.89-32.77,5.06-3.14,9.94-6.76,14.31-10.8,10.39-9.63,12.23-23.59,4.99-35.79-2.47-4.16-5.35-8.11-8.29-11.97-3.73-4.89-6.67-5.18-13.25-1.16,9.15,8.65,6.22,18.42,3.44,28.23ZM656.66,1850.72c17.16-.42,34.32-.95,51.49-1.34,20.49-.46,39.52-6.45,57.83-15.17,4.86-2.31,4.83-2.89,1.35-6.83-1.59-1.8-3.17-3.77-4.12-5.94-5.92-13.63-11.91-27.23-17.4-41.03-14.11-35.49-29.87-70.37-40.57-107.14-2.8-9.63-5.26-19.39-7.18-29.23-4.75-24.3-9.2-48.66-13.52-73.04-1.04-5.88-1.2-11.92-1.59-17.9-.23-3.49-1.8-4.63-5.07-3.55-.31.1-.62.18-.93.27-12.01,3.43-11.77,3.39-9.79,15.47,1.17,7.17,1.62,14.47,2.08,21.73.74,11.61,1.85,23.25,1.71,34.86-.6,49.17,4.56,98.45-1.85,147.5-2.71,20.7-6.65,41.25-10.56,61.76-1.21,6.37-4.17,12.41-6.54,19.2,1.65.14,3.17.41,4.68.37ZM730.39,1454.26c-12.23,3.15-24.52,6.08-36.63,9.65-30.28,8.93-60.44,18.3-90.73,27.21-20.96,6.16-41.14,13.81-58.71,27.2-9.77,7.44-11.83,16.75-7.47,28.34,5.49,14.58,15.08,25.52,27.77,34.03,18.07,12.12,37.1,22.5,57.2,30.83,3.42,1.42,7.11,2.2,10.66,3.3,4.17,1.29,5.73-.44,5.49-4.54-.21-3.56-.33-7.12-.39-10.68-.15-8.74-.26-17.48-.34-26.22-.04-4.96-.65-5.16-5.37-3.93-8.88,2.32-17.83,4.48-26.85,6.13-3.67.67-8.27.87-10.26-3.5-1.99-4.38,1.42-7.31,4.1-10.07,11.83-12.18,27.06-18.39,42.9-22.65,28.48-7.64,55.45-18.93,81.79-31.85,6.2-3.04,12.21-6.8,17.55-11.15,6.97-5.68,9.36-13.42,6.67-22.29-.48-1.59-1.44-3.03-2.18-4.54-.42.06-.83.12-1.25.19-.17,1.3-.28,2.61-.52,3.9-1.01,5.56-1.47,11.3-3.22,16.61-2.98,9.05-12.56,10.91-19.41,4.22-6.59-6.44-8.55-21.64-3.8-29.55,3.66-6.11,9.52-8.66,16.52-7.21,1.06.22,2.13.35,3.82.62-1.17-5.06-4.22-4.86-7.36-4.05ZM440.97,1184.92c-1.38-.82-2.11-1.37-2.92-1.72-12.47-5.4-25.08-10.5-37.39-16.23-12.94-6.02-22.35-16.43-31.44-27.04-2.77-3.23-5.48-5.41-10.12-5.48-3.43-.05-6.94-1.49-10.24-2.78-11.92-4.65-23.95-9.07-35.59-14.36-18.91-8.6-38.95-11.73-59.33-13.8-13.19-1.34-22.91,3.98-30.03,14.8-2.98,4.53-1.95,8.82,2.39,11.96,3.39,2.45,6.5,5.36,9.47,8.32,12.38,12.33,27.49,19.12,44.44,22.38,20.03,3.85,39.99,8.1,60.09,11.53,11.44,1.95,23.12,2.48,34.66,3.9,6.07.75,12.28,1.38,18.08,3.2,9.56,2.99,18.89,6.85,20.51,19.41,9.49-4.87,18.14-9.31,27.42-14.08ZM667,1400.89c-.14-3.82-1.7-4.79-5.26-3.56-7.94,2.74-15.93,5.36-23.94,7.92-2.88.92-3.46,2.67-3.19,5.54,1.3,13.97,2.47,27.95,3.48,41.94.22,2.99,1.23,4.26,4.16,3.5,8.45-2.18,16.94-4.24,25.27-6.83,1.41-.44,2.93-3.3,2.92-5.04-.04-7.26-.63-14.51-1.02-21.76-.43.02-.85.05-1.28.07-.39-7.26-.87-14.52-1.14-21.79Z"></path>
    <path class="cls-1" d="M804.3,1452.92c1.35,10.35,3.56,21.7,4.14,33.15.67,13.21.53,26.53-.42,39.72-1.29,17.91-3.7,35.75-5.62,53.61-.14,1.29-.24,2.58-.27,3.88-.16,6.29,2.21,10.47,6.86,12.19,4.9,1.81,10.8.17,14.07-4.86,2.33-3.59,4.02-7.76,5.21-11.9,10.7-37.36,9.81-74.49-2.3-111.43-2.41-7.36-3.7-15.09-6-22.5-1.07-3.43-2.73-7.1-5.23-9.51-1.63-1.57-5.67-2.09-7.85-1.19-1.71.7-2.86,4.24-3.1,6.64-.37,3.66.25,7.42.51,12.2Z"></path>
    <path class="cls-1" d="M720.24,1324.36c2.25,5.6,3.99,11.49,6.89,16.73,2.38,4.29,6.83,6.4,12.04,5.39,5.2-1.02,8.15-4.62,9.25-9.49,1.67-7.4,3.18-14.85,4.25-22.35,1.12-7.88-1.91-13.71-7.69-16.24-6-2.62-12.54-.75-17.77,5.1-4.35,4.87-6.33,11.78-5.83,20.41-.38.15-.76.3-1.14.46Z"></path>
  </g>
  <path class="cls-1" d="M286.54,356.2c13.35-6.85,20.58-4.71,25.72,7.62,4.17,10,7.29,20.47,10.37,30.88,4.91,16.57,9.55,33.24,13.99,49.94,1.13,4.25,1.62,8.81,1.51,13.21-.28,10.59-9.94,16.76-19.8,12.94-1.82-.71-3.74-1.55-5.18-2.82-23.29-20.63-48.04-39.88-69.39-62.36-32.77-34.52-52.2-76.48-59.1-123.88-.25-1.71-.34-3.44-.45-5.16-.66-10.44.93-20.21,11.39-25.29,10.39-5.05,19.2-.23,27.2,6.29,3.76,3.06,7.2,6.51,12.77,11.59.72-8.41,2.02-14.67,1.62-20.83-.86-13.51-3.43-26.94-3.66-40.44-.19-11.43.96-23.11,3.32-34.3,1.92-9.09,9.94-10.93,17.16-4.93,12.31,10.24,18.52,23.94,19.03,39.6.61,18.74.08,37.53-.33,56.3-.52,23.52-.83,47.02,5.71,69.9,2.06,7.21,5.23,14.11,8.1,21.74ZM298.42,371.57c-14.81,4.79-22.02,2.23-28.04-11.57-4.09-9.4-8.13-19.62-8.6-29.64-1.33-28.28-1.38-56.66-.82-84.98.33-16.49,3.73-33-1.52-49.23-2.64-8.17-6.67-15.6-16.17-21-1.28,6.74-3.45,12.25-3.13,17.62,1.01,16.9,2.89,33.76,4.55,50.62.94,9.54,3.21,19.1,2.84,28.57-.45,11.64-10.55,16.58-20.77,10.86-4.89-2.74-8.98-6.88-13.55-10.24-2.82-2.07-5.85-3.85-9.03-5.93-14.84,41.51,65.19,165.71,117.51,183.34-5.8-27.11-10.36-54.01-23.28-78.43Z"></path>
  <path class="cls-1" d="M372.72,238.83c-1.5-.12-3.42-.65-5.21-.36-7.91,1.28-11.36-.91-10.9-8.85,2.09-36.44,14.5-67.44,47.65-86.9,16.09-9.45,33.48-4.4,38.89,10.97,2.76,7.83.84,15.26-3.95,20.93-9.16,10.84-19.04,21.16-29.39,30.89-10.22,9.61-21.43,18.17-32.1,27.32-1.91,1.64-3.28,3.91-5,6ZM373.73,221.07c13.6-10.03,27.69-20.18,41.48-30.73,5.04-3.86,9.86-8.25,13.89-13.13,5.43-6.58,6.41-16.59,2.15-19.78-6.51-4.87-13.15-1.53-18.52,2.24-21.83,15.32-35.56,35.93-39,61.41Z"></path>
  <path class="cls-1" d="M107.84,274.47c.77,4.91,1.4,8.91,2.02,12.92-3.78-12.13-13.68-17.37-23.74-20.38-11.41-3.42-23.57-5-35.51-5.79-15.09-1-29.6-2.41-41.02-13.81-14.24-14.22-12.41-36.68,4.07-47.56,10.47-6.91,21.9-5.68,31.8-.13,11.74,6.58,23.42,14.19,32.92,23.57,10.97,10.83,19.71,23.96,29.06,36.36,3.81,5.05,5.36,10.79.41,14.83ZM90.02,264.5c-14.46-19.44-28.59-36.72-49.12-47.3-3.44-1.77-7.4-2.7-11.22-3.53-5.58-1.2-10.81-.87-14.37,4.7-3.77,5.91-3.95,12.27.37,17.26,4.05,4.67,9.28,9.49,14.94,11.38,19.03,6.36,38.49,11.45,59.4,17.5Z"></path>
  <path class="cls-1" d="M303.02,121.46c-5.71-8.81-7.82-17.42-6.05-27.57,3.37-19.38,7.72-38.38,17.83-55.42,9.21-15.51,20.68-28.96,38.2-35.77.92-.36,1.84-.74,2.8-.98,8.88-2.18,18.02-3.5,25.18,3.58,7.15,7.06,4.97,15.78,2.52,24.38-3.16,11.06-10.54,18.83-19.14,25.65-16.82,13.34-33.03,27.32-46.39,44.25-2.17,2.75-3.02,6.52-5.05,9.43-2.96,4.24-6.42,8.12-9.9,12.44ZM314.18,88.25c8.89-7.16,16.61-13.5,24.48-19.67,5.6-4.39,11.5-8.4,17.06-12.83,8.83-7.03,14.15-16.42,16.59-27.28,2.46-10.92-3.28-16.09-13.64-11.76-5.99,2.5-11.96,6.33-16.39,11.02-15.73,16.62-24.16,36.9-28.1,60.52Z"></path>
</svg>