<?xml version="1.0"?>
<svg fill="#F3EFE2" id="Layer_1" data-name="Layer 1" xmlns="http://www.w3.org/2000/svg" viewBox="0 0 2327.91 2000">
  <defs>
    
  </defs>
  <g>
    <path class="cls-1" d="M902.95,1477.46c-23.47-33.09-56.48-54.41-98.12-63.36-5.7-1.23-9.06-3.24-9.29-9.88l-1.23-34.94c-1.63-46.99-3.32-95.56-6-143.39-1.1-19.61-4.04-39.72-6.89-59.16-.97-6.6-1.93-13.2-2.83-19.79-.36-2.64-1.49-5.38-2.69-8.28-.71-1.73-1.43-3.46-1.99-5.2-.63-1.93-1.02-4.08-1.14-6.37-.29-5.21-.55-10.41-.81-15.62-.5-10.02-1-20.06-1.74-30.09-.29-3.93-1.31-8.07-2.3-12.08l-.8-3.28c-.86-3.67-2.86-5.64-6.13-6.02-1.8-.22-3.2.07-4.16.87-1.1.9-1.42,2.31-1.5,3.33l-.23,2.92c-.66,8.32-1.35,16.93-.8,25.36.65,10.04,1.72,20.28,2.75,30.19.87,8.35,1.74,16.71,2.39,25.06.66,8.51,1.02,17.12,1.37,25.45.28,6.62.55,13.25.98,19.87,1.43,22.43,2.91,44.87,4.4,67.3,1.78,26.93,3.55,53.87,5.25,80.8.9,14.38,1.35,27.51,1.35,40.14,0,5.62-.58,11-1.2,16.71-.27,2.51-.55,5.04-.77,7.62l-.21,2.42h-2.43s-1.11,0-1.11,0c-.97.02-2,.04-3.03-.06-54.02-5.03-108.32-2.74-161.39,6.83-27.53,4.99-53.87,2.36-80.51-8-37.52-14.59-60.86-40.19-71.36-78.26-5.22-18.96-4.96-38.33.78-57.57,4.05-13.57,9.18-27.01,14.15-40.01,1.72-4.5,3.44-9.01,5.12-13.52,2.21-5.94,4.54-11.85,6.87-17.74,4.17-10.55,8.48-21.45,11.96-32.37,7.33-22.97,8.28-44.32,2.9-65.26-.66-2.57-1.66-5.11-2.71-7.8-1-2.56-1.99-5.11-2.71-7.69-.5-1.79-.3-3.94.43-5.67-.49-.72-.97-1.44-1.45-2.16-2.27-3.43-4.43-6.7-7.08-9.35l-1.56,1.07-1.54-1.5c-1.3-1.26-2.54-2.49-3.75-3.7-2.43-2.43-4.75-4.73-7.23-6.9-14.71-12.83-32.8-22.66-55.32-30.06-30.05-9.86-61.41-15.62-93.23-17.1l-2.5-.15c-1.39-.09-2.55,0-4.15-.18-25.7,0-45.63-11.59-59.23-34.45-11.26-18.91-16.89-38.91-16.74-59.43.19-27.56,5.81-54.37,16.7-79.68,12.09-28.1,24.79-56.49,37.08-83.96,9.11-20.36,18.22-40.72,27.17-61.15,8.72-19.88,17.85-41.08,25.33-62.47,7.28-20.82,8.34-40.41,3.22-59.89-1.28-4.89-2.88-9.46-4.75-13.58-13.68-30.18-45.34-44.31-80.62-35.92-26.04,6.16-41.98,21.44-47.39,45.42-1.6,7.09-2.12,15.31,6.16,22.39,5.51,4.73,12.56,6.17,18.38,3.78.63-.26.81-.46.81-.46-.23.14-.85-.6-2-1.73-3.51-3.48-8.13-9.01-7.59-16.76.36-5.28,3.46-7.96,9.2-7.96,9.15,0,15.86,3.54,18.86,9.97,2.86,6.09,6.77,14.43,6.22,21.83-.95,12.77-3.48,23.18-7.75,31.82-12.41,25.17-26.29,49.95-39.43,73.17-27.88,49.22-45.86,90.86-56.6,131.04-13.07,48.92-15.84,90.64-8.74,131.29,5.02,28.68,14.92,53.04,30.26,74.47,13.04,18.22,30.9,30.18,53.09,35.55,7.62,1.85,15.3,3.47,22.97,5.1,8.86,1.88,18.02,3.82,26.98,6.1,17.05,4.32,32.39,8.35,47.56,13.93,19.16,7.04,32.34,18.04,39.19,32.67,8.13,11.84,10.49,25.64,6.61,39.54-.92,3.29-2.12,6.64-3.66,10.26-3.55,21.93-7.11,43.85-10.77,65.76-5.37,32.07-10.09,63.52-8.99,95.73.97,28.4,7.67,52.46,20.48,73.55,16.47,27.11,38.78,50.08,66.32,68.28,18.6,12.29,40.53,18.19,69,18.58,23.56.33,45.9-3.19,70.62-7.46l10.43-1.82c30.24-5.31,61.52-10.79,93.99-10.79h.15c27.06.02,51.12,3.19,73.57,9.69,47.4,13.71,79.09,41.45,99.73,87.28,13.78,30.61,1.69,38.78-8.97,45.99-5.54,3.75-10.32,6.98-11.69,13.11-.07.26-2.15,7.45,1.75,13.91,1.89,3.13,9.46,5,13.7,3.37,1.65-.62,5.32-2.09,8.83-3.5,3.39-1.36,6.63-2.66,7.83-3.1,6.72-2.5,12.5-12.41,15.6-17.73l.41-.69c6.01-10.27,6.86-22.92,2.53-37.57-8.68-29.38-22.89-53.27-43.41-73.07-30.03-28.96-66.9-46.79-112.72-54.52-41.27-6.95-84.45-5.8-132.02,3.58-27.59,5.44-57.07,10.86-87.44,12.12-31.27,1.32-57.75-8.67-80.87-30.47-38.05-35.87-57-74.92-57.92-119.35-.78-37.55,5.74-73.76,11.52-101.1l1.97-9.25c2.76-12.85,5.61-26.14,7.59-39.34,1.11-7.39,1.44-15.14,1.76-22.63.18-4.33.37-8.66.69-12.97.12-1.53.69-5.29,3.43-7.21,17.46-12.28,35.07-24.41,52.68-36.55l7.26-4.99c.6-.42,1.19-.65,2.17-1.04l5.25-2.19.5,3.36c.42,2.81.88,5.51,1.33,8.13.96,5.6,1.86,10.9,2.18,16.22,1.2,20.55-4.48,39.74-10.19,55.8-2.67,7.49-5.5,14.93-8.33,22.37-4.14,10.87-8.42,22.11-12.07,33.31-6.12,18.76-10.24,34.18-12.99,48.53-7.02,36.71,3.94,72.07,32.59,105.08,12.41,14.31,27.82,25.72,45.83,33.94,34.11,15.55,69.73,20.62,108.86,15.49,38.65-5.07,68.45-8,96.65-9.51,22.5-1.22,52.1-1.63,81.54,5.94,1.41.37,3.04.34,4.76.32,1.68-.02,3.42-.05,5.2.27,38.16,6.76,66.13,27.26,83.14,60.93,12.6,24.94,20.19,51.93,22.56,80.23.29,3.43.24,6.84.2,10.14-.02,1.55-.04,3.09-.03,4.64.03,3.98,2.54,7.23,6.25,8.09,3.48.8,8.89-.03,10.7-1.66,2.96-2.66,5.29-7.11,6.24-11.93,3.17-16.08.14-32.79-2.85-45.54-4.85-20.65-10.75-42.46-24.64-62.04ZM390.96,1128.35l-1.48-2.06c-17.21-23.98-27.32-31.56-56.91-42.67l-1.32-.49c-5.08-1.91-10.34-3.89-15.57-5.17-5.29-1.3-10.58-2.62-15.88-3.94-18.01-4.49-36.64-9.14-55.06-12.73-27.82-5.43-46.79-19.59-57.99-43.31l-1.32-2.7c-.65-1.3-1.29-2.61-1.88-3.92-15.26-33.9-21.34-70.59-18.58-112.18,2.74-41.34,15.52-79.97,27.29-112.92,12.17-34.08,30.88-65.71,48.98-96.3l10.29-17.46c6.8-11.58,13.84-23.56,19.91-35.67,6.33-12.64,8.64-25.71,6.86-38.87-1.55-11.51-5.54-20.47-12.56-28.2-6.77-7.45-15.6-11.76-27-13.16l-4.9-.6,3.23-3.73c9.49-10.96,21.78-16.59,37.56-17.21,19.52-.76,34.35,7.86,41.78,24.26,1.85,4.1,3.36,8.63,4.49,13.46,3.75,16.13,2.47,32.77-3.93,50.89-7.91,22.4-17.56,48.86-29.15,75.23-11.46,26.06-23.68,52.31-35.5,77.69-6.83,14.67-13.66,29.34-20.38,44.04-12.69,27.77-19.93,51.12-22.78,73.5-3.57,28.06,1.13,54.9,13.97,79.77,20.7,40.12,48.52,57.51,93.01,58.15.81.01,1.62.06,2.43.11l1.34.07c30.98,1.51,57.94,6.41,82.44,14.98,11.09,3.87,22.91,9.48,35.14,16.68,5.06,2.98,9.1,7,13.38,11.26,1.88,1.88,3.81,3.79,5.86,5.65l2.52,2.27-68.3,45.29Z"></path>
    <path class="cls-1" d="M349.43,661.57c12.48,17.67,67.62,67.76,88.4,85.24,39.26,33.02,81.18,67.83,135.91,112.85,2.96,2.44,5.9,4.91,8.84,7.39,12.37,10.41,25.15,21.18,40.25,29.31,1.33.11,2.65.14,3.94.09,4.28-.19,7.23-1.28,8.32-3.04.15-.24.26-.5.34-.82-35.53-40.16-78.5-75.23-120.07-109.16l-9.83-8.03c-27.17-22.23-109.86-89.84-141.5-123.04-1.96-2.06-4.12-4.01-6.41-5.81-3.67-2.87-7.17-3.59-10.4-2.14-3.25,1.47-4.22,3.87-2.96,7.33,1.2,3.33,3,6.72,5.18,9.83Z"></path>
  </g>
  <g>
    <path class="cls-1" d="M754.46,574.66c2.45,3.07,4.56,6.52,7.42,9.14,7.14,6.51,11.75,13.88,9.88,24.31,9.57.79,12.38,7.16,14.07,15.23.87,4.17,2.65,9.54,5.82,11.6,13.5,8.8,27.48,16.28,44.92,13.26,11.64-2.02,22.8,1.1,32.85,7.76,1.56,1.03,4.06,1.4,5.94,1.06,11.9-2.1,23.73-4.64,35.64-6.72,5.08-.89,10.13-.27,12.96,4.94,2.73,5.04.98,9.73-2.17,13.85-12.08,15.78-38.88,18.08-53.24,4.75-1.05-.97-2.61-1.71-4.02-1.93-13.52-2.07-27.1-3.73-40.58-6.03-25.6-4.37-51.13-9.1-61.88-39.44-7.92,4.85-16.33,8.47-22.83,14.25-17.92,15.94-32.9,34.36-42.46,56.7-1.25,2.91-2.5,5.85-4.06,8.6-3.86,6.79-9.37,10.51-17.61,9.41-2.69-.36-5.55-.04-8.27.37-17.49,2.63-31.86,11.42-43.05,24.53-9.56,11.2-20.99,17.81-35.19,20.36-20.68,3.72-39.27,12.55-56.65,23.94-12.94,8.48-25.76,17.2-38.05,26.57-22.16,16.9-38.7,38.3-50.4,63.74-5.84,12.7-13.29,24.7-20.62,36.64-2,3.27-6.13,5.29-9.41,7.7-2.16,1.59-5,2.45-6.77,4.35-11.23,12.05-25.32,17.56-41.28,20.48-13.17,2.42-26.36,5.92-38.74,10.92-7.56,3.05-14.44,9.05-20.14,15.12-9.9,10.54-10.27,22.77-2.38,36.12,7.99-7.03,11.58,3.12,16.87,5.05,3.96-11.67,7.41-22.76,11.49-33.62,3.57-9.51,9.72-17.3,18.37-22.78,4.63-2.94,9.82-3.83,14.48-.16,4.7,3.7,4.74,8.85,2.99,14.1-.82,2.46-1.91,4.84-3.14,7.91,1.57-.53,2.31-.73,3.01-1.03,5.2-2.19,10.2-2.03,14.39,1.98,4.08,3.9,4.4,9.1,2.27,13.82-2.5,5.53-6.15,10.52-9.1,15.86-2.5,4.53-4.72,9.22-7.06,13.84.6.29,1.19.59,1.79.88,1.59-2.01,2.91-4.34,4.83-5.96,5.84-4.9,11.48-10.3,18.02-14.05,6.88-3.95,14.79-5.45,21.5,1.09,4.94,4.81,5.24,14.11-.12,22.79-4.54,7.36-10.65,13.74-15.47,20.94-2.65,3.96-5.2,8.59-5.81,13.18-.97,7.3,2.81,9.43,9.37,6.03,8.97-4.64,12.85-12.77,15.61-22.08,2.67-9.04,5.24-18.5,10.09-26.41,12.02-19.62,31.01-31.83,51.62-40.11,13.02-5.23,25.53-10.75,36.93-18.71,26.36-18.4,54.52-33.12,84.97-43.6,14.35-4.94,26.61-13.59,38.58-23.08,15.34-12.16,31.96-22.73,48.12-33.84,1.72-1.18,4.07-1.46,6.14-2.1,7.56-2.36,15.26-4.36,22.68-7.11,31.12-11.57,53.2-34.52,73.87-59.2,2.91-3.48,6.24-6.64,8.93-10.28,1.31-1.77,2.81-4.79,2.15-6.38-2.71-6.53-5.95-12.89-9.51-19.01-4.46-7.68-4.75-13.34-.14-17.96,4.52-4.53,11.8-4.8,18.63-.27,10.16,6.74,17.18,15.84,19.44,28.07,1.08,5.85,1.4,11.85,2.69,17.64,1.32,5.94,2.57,12.13,5.28,17.49,8.68,17.16,17.89,34.07,27.21,50.91,2.82,5.1,6.65,9.64,10.48,15.1,3.91-14.78,12.73-25.13,22.14-35.15,4.33-4.61,8.37-9.51,12.33-14.44,15.24-18.93,31.45-36.73,53.04-48.81,1.9-1.07,3.38-3.84,4-6.11,7.03-25.69,20.6-48.07,35.48-69.69,10.05-14.6,23.86-24.24,41.62-27.49,6.91-1.27,11.95.74,14.41,5.56,2.36,4.65.9,10.38-3.99,14.98-1.73,1.62-3.81,2.87-5.56,4.47-4.68,4.27-10.13,8.02-13.74,13.08-17.01,23.81-36.56,46.14-45.44,74.89-2.46,7.97-8.33,12.34-15.16,16.61-20.19,12.64-37.75,28.09-50.2,48.94-5.34,8.95-12.14,17.05-18.45,25.39-1.86,2.46-4.34,4.46-6.93,7.07,4.26,1.44,7.91,2.79,11.63,3.92,4.84,1.47,8.72,4.12,7.59,9.63-1.09,5.33-5.82,5.82-10.44,5.57-1.58-.09-3.17-.19-4.75-.29-30.18-1.91-59.77,1.44-87.12,14.59-18.15,8.72-34.99,20.19-52.29,30.65-8.14,4.92-15.64,11.03-24.08,15.31-5,2.53-11.23,3.1-16.99,3.5-4.85.34-9.79-.98-14.71-1.28-16.41-.97-32.86-1.42-49.24-2.77-28-2.32-55.42.22-82.25,8.53-4.12,1.28-7.87,3.74-11.8,5.66.13.87.26,1.74.39,2.61,4.32.52,8.66.95,12.96,1.58,6.6.98,13.35,1.52,19.71,3.35,5.26,1.51,7.86,7.37,5.01,10.75-4.21,5.01-8.83,10.4-14.47,13.33-13.88,7.24-28.46,13.12-42.7,19.66-3.14,1.44-6.07,3.35-9.1,5.05.21.79.43,1.58.64,2.38,6.47-.85,12.93-1.77,19.41-2.52,9.41-1.1,18.83-2.17,28.27-3.06,4.08-.38,7.73.79,8.56,5.46.79,4.48-2.54,6.39-5.94,7.75-6.61,2.64-13.4,4.85-19.97,7.6-3.53,1.48-6.75,3.7-10.12,5.58.24.64.48,1.28.72,1.93,2.35.8,4.68,1.67,7.06,2.37,3.99,1.18,8.15,1.9,11.96,3.5,1.85.78,4.21,3.06,4.26,4.73.06,2.14-1.46,5-3.22,6.34-1.85,1.41-4.78,1.9-7.25,1.93-12.16.15-21.9-4.38-27.9-15.98-1.9,1.44-3.45,2.61-5.01,3.78-18.86,14.18-37.51,28.65-56.65,42.43-12.87,9.27-26.18,17.99-39.77,26.18-21.74,13.09-43.78,25.69-65.87,38.19-10.17,5.75-21.05,10.27-31.12,16.18-29.77,17.48-59.49,35.05-88.85,53.2-29.46,18.21-58.46,37.16-87.87,55.91,7.24,14.09,1,24.48-7.71,33.9-3.3,3.58-7.53,6.47-11.75,9.01-15.27,9.2-32.23,11.26-49.71,11.99-31,1.29-24.42-4.44-50.56,19.56-11.4,10.47-24.35,17.59-40.84,11.1-4.13-1.63-7.86-3.11-8.23-8.11-.36-4.84,2.69-7.49,6.87-8.37,11.1-2.35,19.2-9.38,26.66-17.07,14.44-14.87,26.48-31.57,36.24-49.91,4-7.52,8.04-15.07,12.73-22.18,8.24-12.49,19.47-21.37,34.06-25.45,9.04-2.53,17.49-1.18,24.11,5.91,6.62,7.09,7.26,15.54,4.29,24.47-.52,1.57-1.06,3.14-1.7,5.02,8.12-4.88,15.5-9.88,23.36-13.93,11.81-6.07,24.44-10.65,35.87-17.31,35.48-20.68,70.66-41.89,105.77-63.2,24.1-14.62,46.11-32.26,69.1-48.47,38.88-27.42,79.48-52.39,119.44-78.27,9.45-6.12,19.23-11.74,28.88-17.6-8.62-7.63-10.53-14.19-4.79-22.67,3.54-5.22,8.55-10.06,13.96-13.27,8.31-4.93,17.54-8.31,26.38-12.34,2.19-1,4.39-1.98,7.62-3.44-2.39-1.2-3.4-1.78-4.46-2.22-5.88-2.48-11.51-5.67-11.89-12.73-.4-7.4,4.85-11.78,10.62-15.32,1.85-1.14,3.82-2.22,5.88-2.83,7.41-2.16,14.77-5.06,22.36-5.97,27.12-3.27,54.33-5.82,81.51-8.71,1.85-.2,3.9-.58,5.41-1.56,8.05-5.25,15.34-12.15,24.03-15.81,17.19-7.23,32.37-17.54,48-27.32,14.61-9.14,29.78-17.41,44.81-25.88,3.5-1.97,7.56-3.43,10.98.15,3.64,3.81,1.09,7.29-1.16,10.66-.11.17.18.61.18.64,13-3.4,25.96-6.78,39.34-10.28-17.15-18.38-27.76-40.6-37.94-63.68-1.6,1.88-2.73,3.21-3.86,4.54-26.08,30.64-58.58,51.37-97.19,62.41-4.41,1.26-9.34.62-14.01,1.05-3.2.3-6.99-.03-9.43,1.58-9.75,6.42-20.02,12.49-28.35,20.51-17.3,16.64-37.17,28.08-59.98,35.12-16.33,5.04-30.5,13.87-43.27,25.39-17.67,15.93-35.74,31.44-54.12,46.54-10.02,8.23-21.87,13.36-35.22,11.11-4.35-.74-7.59-.89-10.81,1.99-2.65,2.37-5.87,4.35-7.82,7.2-6.35,9.29-11.85,19.17-18.41,28.3-5.26,7.31-11.1,14.36-17.6,20.56-4.63,4.42-11.04,5.13-17.25,2.16-5.83-2.78-7.24-7.99-7.54-13.81-.07-1.42-.33-2.82-.62-5.16-1.43,2.07-2.2,3.21-3,4.33-5.24,7.34-13.51,8.76-19.85,2.4-3.77-3.78-6.26-8.99-8.74-13.85-1.29-2.52-1.3-5.69-1.89-8.53-10.17,1.31-12.23.42-19.48-7.37-.94-1.01-3.07-1.84-4.29-1.49-7.09,2.03-12.35-.4-16.79-5.84-.87-1.07-2.52-2.4-3.61-2.24-7.9,1.19-11.83-3.59-14.55-9.67-5.03-11.24-5-23.07-.68-34.21,9.61-24.8,28.03-40.72,52.88-49.59,12.87-4.59,25.71-9.3,38.46-14.24,3.03-1.18,6.3-2.97,8.26-5.43,4.05-5.08,7.11-10.94,10.9-16.24,6.77-9.47,13.27-19.2,20.81-28.02,9.78-11.44,21.17-21.53,30.64-33.2,24-29.57,53.43-52.37,86.01-71.49,14.58-8.56,29.54-16.22,45.95-20.84,4.09-1.15,7.99-3.47,11.58-5.85,9.59-6.34,18.78-13.3,28.46-19.48,13.22-8.44,27.79-13.33,43.36-15.58,2.76-.4,5.92-2.85,7.53-5.27,3.5-5.26,6.2-11.06,9.1-16.71,12.2-23.75,28.16-44.16,51.78-57.56,6.09-3.45,12.74-5.91,18.09-8.35-8.1-10.86-16.97-21.51-24.45-33.06-17.06-26.33-13.79-56.92,7.84-79.07,10.33-10.58,11.6-23.37,9.43-37-.32-2-1.61-4.2-3.11-5.59-8.48-7.78-11.91-17.82-12.36-28.79-.65-16.04-.76-32.12-.66-48.18.06-9.35.97-18.69,1.52-28.25-13.47,5.51-24.07.43-33.1-9.24-3.21-3.43-6.23-7.39-8.09-11.66-6.25-14.32-9.87-29.35-9.18-45.1.67-15.22,7.44-26.99,20.98-34.38,6.78-3.71,13.75-7.11,20.75-10.39,3.26-1.53,4.54-3.66,4.92-7.27,1.95-18.52,9.74-34.28,23.87-46.46,8.25-7.1,16.89-13.84,25.89-19.95,16.69-11.33,35.01-15.61,54.93-10.32,3.53.94,5.66.06,8.1-2.77,15.67-18.15,34.2-32.72,56.83-41.01,24.32-8.91,49.37-14.5,75.54-14.91,22.69-.36,40.03,8.22,51.75,27.67,2.07,3.43,4.28,4.29,8.24,3.66,51.41-8.26,101.88,16.41,126.93,61.82.61,1.1,1.53,2.02,2.68,3.53,3.98-6.93,7.18-13.59,11.34-19.57,19.47-28,39.19-55.82,58.86-83.68,13.9-19.68,29.37-37.94,48.12-53.27,16.79-13.73,33.8-27.13,54.32-34.95,20.14-7.69,40.03-1.15,52.29,16.73,10.64,15.51,8.5,34.85-5.35,50.86-1.23,1.42-1.54,4.11-1.39,6.15.57,7.83,3.22,15.92,1.98,23.4-3.99,24.03-8.8,47.97-14.43,71.67-3.33,14.02-10.45,26.67-21.35,36.49-4.33,3.9-4.19,7.13-1.7,11.75,7.1,13.19,9.33,27.43,7.03,42.11-3.7,23.6-10.14,46.45-20.27,68.19-1.12,2.41-2.41,5.4-1.94,7.79,5.97,29.97,4.21,60.03,1.46,90.11-1.35,14.84-6.07,28.78-16.38,39.46-16.63,17.22-33.91,33.89-51.84,49.75-12.27,10.86-12.73,10.06-12.41,26.35.36,18.22.32,36.46.26,54.69-.01,3.65-.88,7.31-1.19,9.7,15.1,2.84,29.65,4.8,43.76,8.43,17.61,4.54,18.65,4.56,25.51-12.77,1.02-2.58,1.89-5.23,2.78-7.86,4.32-12.78,8.75-25.53,12.92-38.37,10.35-31.86,29.39-57.37,56.49-76.8,12.73-9.13,25.94-17.61,39.04-26.21,20.88-13.71,43.67-22.92,68.39-26.26,40.68-5.49,81.49-9.99,122.21-15.17,54.18-6.9,108.48-10.71,163.17-9.74,83.77,1.48,167.35-2.34,250.76-10.54,43.48-4.28,87.07-5.92,130.61.4,40.22,5.84,79.15,16.82,117.58,29.58,10.03,3.33,19.77,8.5,28.55,14.43,18.74,12.65,22.99,35.51,9.68,53.74-6.69,9.16-15.59,16.79-24.02,24.55-2.72,2.5-6.98,3.87-10.76,4.56-5.47,1-10.32-.97-12.85-6.36-2.37-5.07.04-8.78,3.41-12.74,7.44-8.74,14.35-17.94,21.42-27,3.46-4.43,2.39-8.21-2.28-10.82-6.74-3.76-13.32-8.12-20.52-10.67-53.64-19.01-108.66-32.04-165.83-31.29-35.64.47-71.26,3.82-106.84,6.56-72.47,5.57-145.07,5.94-217.67,5.22-41.97-.42-83.61,1.56-125.15,7.86-28.22,4.28-56.78,6.3-85.1,9.99-22.79,2.97-45.65,6.01-68.14,10.64-41.71,8.58-75.35,31.75-104.49,61.75-15.39,15.84-26.78,34.39-32.42,56.1-1.95,7.48-4.44,14.82-6.7,22.23-5.03,16.48-11.72,32.03-24.06,44.6-12.4,12.64-27.07,16.59-44.11,12.06-5.18-1.38-10.44-2.53-15.48-4.31-24.86-8.82-47.55-2.91-69.61,9.36-5.23,2.91-6.09,5.44-3.16,10.54,11.96,20.86,19.2,43.56,24.28,66.89,2.9,13.31,6.81,26.09,13.48,37.96,8.73,15.54,13.11,32.29,13.88,50.01.83,18.92,5.68,36.93,13.56,53.93,10.29,22.2,28.05,36.65,51.18,43.88,13.6,4.25,27.74,6.78,41.62,10.14,26.22,6.36,52.68,12.12,77.04,24.22,28.98,14.4,55.61,32.26,72.36,60.77,17.48,29.74,29.88,60.72,12.22,95.53-5,9.86-4.79,19.7,2.53,29.99,13.84,19.46,20.96,41.32,16.28,65.73-.04.19-.08.4-.06.59.69,5.49.65,11.25,2.5,16.31.66,1.8,5.96,1.84,9.1,2.83,1.31.41,2.51,1.18,3.72,1.84,17.43,9.45,34.56,19.51,52.36,28.21,18.82,9.21,37.09,18.94,51.65,34.39,5.27,5.59,11.53,8.43,19.29,9.26,25.47,2.74,42.42,16.23,49.8,41.09,4.15,13.99,12.05,25,24.07,33.63,27.22,19.53,44.59,46.89,58.79,76.53,1.52,3.17,2.41,6.75,2.98,10.24,1.12,6.84-.82,13.25-7,16.42-6.04,3.1-5.61,7.15-4.27,12.15.46,1.72.93,3.45,1.42,5.16,4.28,15.07,3.22,18.56-8.68,28.08.35,1.47.74,3.01,1.07,4.55,3.76,17.66-7.17,32.26-25.06,33.53-1.17.08-2.74-.09-3.42.58-7.74,7.6-17.86,7.97-27.65,9.11-4.51.53-7.5,2.44-9.98,6.29-5,7.77-12.55,10.68-21.59,9.54-16-2.02-27.87-13.14-30.55-28.98-.99-5.83-1.45-11.86-1.25-17.77.3-9.03-2.71-16.57-7.98-23.69-16.9-22.83-31.05-47.26-42.52-73.24-11.93,4.41-24.3,9.12-36.78,13.55-11.48,4.07-23.35,7.38-35.55,5.83-18.05-2.3-35.96-5.77-53.94-8.67-2.06-.33-4.57-.99-6.23-.18-15.64,7.57-31.91,6.95-48.38,4.23-6.52-1.07-13-2.39-19.49-3.6-.42.39-.83.78-1.25,1.17.79.87,1.69,1.67,2.35,2.63,14.99,22.06,22.7,46.65,24.49,73.06.41,6.07,2.98,8.29,8.32,9.32,15.96,3.08,31.89,6.28,47.8,9.59,29.01,6.03,51.19,21.48,63.25,48.92,5.79,13.17,9.29,27.38,13.46,41.23,1.28,4.26,3.52,6.65,7.57,8.27,10.28,4.13,20.43,8.58,30.6,13,24.47,10.64,44.45,26.24,58.01,49.88,4.21,7.34,10.6,14.02,17.38,19.18,10.67,8.12,22.24,15.18,33.92,21.83,19.79,11.27,30.17,30.87,26.7,52.64-1.78,11.17-6.23,21.38-13.2,30.24-5.48,6.97-5.8,13.49-.46,20.51,1.67,2.2,3.01,4.67,4.39,7.08,4.72,8.22,5.85,17.07,2.42,25.78-2.81,7.12-6.14,14.38-10.82,20.35-6.91,8.82-8.41,18.07-6.12,28.49.73,3.29,1.56,6.57,2.23,9.87,3.64,17.98-6.22,31.37-24.33,33.68-2.69.34-5.7,2.21-7.56,4.28-5.7,6.29-12.64,9.76-20.69,7.28-6.82-2.1-13.05-6.18-19.45-9.56-1.71-.9-2.88-3.02-4.62-3.61-8.5-2.87-12.34-9.74-14.9-17.39-1.75-5.23-2.25-10.86-3.66-16.21-.68-2.58-1.58-5.59-3.4-7.31-8.23-7.79-13.56-17.21-15.82-28.11-4.68-22.52-8.91-45.13-13.2-67.73-.65-3.41-.65-6.94-.89-9.73-35.34-3.79-69.76-8.7-101.63-23.53-30.9-14.38-61.62-29.28-91.61-45.46-42.2-22.77-81.32-49.51-107.57-91.47-10.08-16.12-21.81-31.21-32.68-46.84-7.57-10.89-14.75-22.06-22.54-32.78-2.5-3.43-6.07-6.39-9.72-8.62-15.22-9.3-30.29-18.96-46.1-27.17-27.42-14.23-49.36-33.93-63.72-61.3-21.04-40.11-35.05-82.47-38.41-127.95-.95-12.79-.2-25.33,4.44-37.5.83-2.18.63-5.03.14-7.41-5.28-26.04-7.03-52.29-4.3-78.72.49-4.77-.99-6.77-4.78-8.66-18.17-9.1-32.9-22.01-43.14-39.74-4.56-7.9-9.46-15.64-13.49-23.8-13.75-27.87-30.37-53.92-49.03-78.7-9.27-12.31-20.69-22.06-33.92-30.29-9.94-6.18-18.5-14.71-27.14-22.77-2.67-2.49-4.28-6.73-5.09-10.45-1.3-6,3.19-11.18,9.33-11.05,3.04.06,6.36.96,9.01,2.46,11.19,6.3,20.51,14.8,28.37,24.99,4.35,5.64,8.75,11.37,13.92,16.22,29.87,28.04,54.82,59.89,75.79,95.05,13.41,22.48,29.38,42.9,51.49,57.71,2.28,1.53,4.79,2.69,7.16,4.08,3.47,2.04,7.07,3.9,10.32,6.24,6.91,4.96,13.81,10.51,22.73,10,12.04-.69,24-3.38,36.03-3.62,28.07-.57,50.63-12.05,68.59-32.96,16.11-18.75,29.22-39.48,39.62-61.96,6.15-13.3,12.16-26.75,19.54-39.37,6.07-10.39,15.16-18.37,27.08-22.14,4.83-1.52,9.68-1.35,12.76,3.42,3.12,4.85,1,9.1-2.48,12.87-1.07,1.17-2.17,2.34-3.39,3.34-10.26,8.43-16.28,19.62-21.77,31.48-8.41,18.15-17.38,36.05-26.76,53.71-6.48,12.2-14.07,23.81-20.85,35.15,5.03,7.24,11,13.87,14.72,21.58,8.53,17.67,16.84,35.55,23.68,53.93,14.81,39.82,36.7,75.58,61.29,109.79,5.05,7.02,12.02,13.49,19.51,17.74,16.3,9.25,34.35,14.32,52.79,17.78,15.79,2.96,31.24,4.19,46.54-3.31,4.52-2.22,10.89-1.27,16.34-.81,5.9.5,11.74,1.92,17.53,3.29,30.14,7.14,59.54,5.47,87.79-7.72,5.02-2.35,9.09-6.69,13.73-9.92,2.99-2.09,6.19-5.38,9.36-5.45,12.37-.28,20.61-7.39,28.34-15.52,3.67-3.86,6.42-8.57,10.04-12.49,1.5-1.63,4.43-3.35,6.21-2.92,1.95.47,3.96,3.12,4.74,5.26.74,2.03.6,4.93-.32,6.91-2.06,4.44-4.1,9.29-7.48,12.64-6.95,6.89-14.77,12.91-22.27,19.31,2.16,6.44,6.14,13.6,6.76,21.04,1.46,17.69,8.79,32.66,17.89,47.32,9.2,14.82,18.07,29.83,20.66,47.7,1.1,7.57,5.29,14.02,11.58,18.85,2.99,2.29,5.61,2.28,9.28,1.11,4.04-1.29,9.08-1.98,12.96-.71,8.07,2.63,14.93.2,22.47-2.21-2.73-3.75-5.03-6.92-7.33-10.09-.05-.34-.12-.68-.21-1.02,1.58-5.5,3.16-11,5.03-17.52-7.01-7.81-11.94-18.52-13.65-30.52-.39-2.73.61-7.31,2.44-8.29,2.27-1.22,6.59-.49,9.12.97,10.47,6.05,17.11,15.61,22.14,26.59,3.03-9.67,3.04-9.56,14.01-10.67,2.16-.22,5.01-1.06,6.13-2.63,3.03-4.26.07-20.89-3.87-24.7-4.35-4.21-4.56-8.41.35-11.91,4.01-2.86,4.16-5.86,2.42-9.68-1.15-2.52-2.27-5.09-3.76-7.42-15.04-23.56-33.62-44.16-54.44-62.6-11.49-10.18-20-21.81-25.03-36.21-2.09-5.98-4.17-12.1-7.37-17.5-2.3-3.89-5.96-8.62-9.86-9.58-8.68-2.14-17.99-3.43-26.86-2.73-12.59.98-23.2-1.77-32.07-10.63-3.07-3.07-5.42-6.87-8.54-9.89-5.49-5.32-10.55-11.83-17.15-15.13-24.32-12.17-49.2-23.23-74.17-34.85-1.5,3.53-2.74,7.55-4.8,11.09-4.16,7.16-8.28,14.45-13.35,20.95-3.67,4.71-9.27,6.97-15.48,4.4-4.9-2.03-7.49-8.05-6.58-15.32.37-2.92,1.07-5.9,2.21-8.61,2.61-6.2,5.8-12.17,8.36-18.39,5.72-13.9,12.99-27.48,16.39-41.95,5.81-24.78-1.47-47.52-16.63-67.68-5.16-6.87-6.78-14.34-4.7-22.45,2.06-8.05,4.85-15.92,7.07-23.94,1.05-3.78,2.47-7.84,2.07-11.59-3.28-30.64-14.26-58.08-38.21-78.24-20.55-17.3-44.68-28.67-70.89-35-22.16-5.36-44.49-10.05-66.68-15.32-37.44-8.89-63.18-32.4-79.06-66.46-7.4-15.87-12.47-32.98-17.08-49.94-3.83-14.08-7.82-27.67-16.18-39.94-12.74-18.71-19.8-39.4-21.31-62.29-.85-12.95-3.85-25.88-7.08-38.52-1.72-6.72-5.19-13.38-9.32-19-6.4-8.72-14.41-16.24-21.07-24.78-7.94-10.18-16.95-18.9-28.59-24.61-5.34-2.62-12.17-3.5-16.09-7.41-8.86-8.83-18.2-6.39-28.77-5.31-23,2.35-53.19-19.54-60.6-42.25-.66-2.02-1.32-4.05-2.02-6.2-3.35,2.54-6.18,5.06-9.35,7.03-14.59,9.05-34.26,5.42-43.81-7.93-3.68-5.15-4.15-11.27-.93-15.57,3.59-4.78,8.54-5.4,13.9-3.8,3.99,1.19,7.92,2.6,11.85,3.98,9.09,3.19,10.88,2.6,16.03-5.46.75-1.17,1.49-2.35,2.13-3.58,2.12-4.13,5.27-6.52,10.07-5.53,5.04,1.04,7.19,4.81,7.46,9.52.19,3.31-.42,6.67-.71,10.49,4.37,1.07,8.98,1.62,13.1,3.33,15.74,6.52,31.34,13.36,46.95,20.2,7.62,3.34,13.72.02,15.48-8.01.66-3.01,2.47-6.22,4.7-8.32,3.08-2.9,7.3-4.55,10.63-7.24,6.63-5.36,12.92-11.13,19.47-16.59,3.76-3.14,4.77-6.69,2.31-11-2.33-4.07-5.1-6.47-10.58-5.26-9.3,2.05-16.83-5.24-16.04-14.78.59-7.09,6.21-12.92,14.33-14.71,4.35-.96,9.24-.79,13.01-2.79,9.09-4.79,18.18-9.88,26.3-16.11,9.3-7.14,7.24-17.38-3.49-22.51-7.85-3.76-15.41-2.75-22.92.82-3.22,1.53-6.29,3.46-9.62,4.64-4.74,1.68-9.18.71-12.19-3.55-3.18-4.51-2.42-9.21,1.04-13.12,2.04-2.31,4.73-4.48,7.56-5.57,7.18-2.77,14.55-5.14,21.98-7.15,2.96-.8,3.98-1.71,4.47-4.9.88-5.8,1.68-12.09,4.53-17.01,7.21-12.48,15.69-24.22,23.35-36.45,4.38-6.99,9.79-13.91,11.9-21.64,8.18-29.9-8.35-67.4-35.47-82.22-2.7-1.48-6.58-2.41-9.44-1.7-16.84,4.19-28.71-6.72-24.73-23.68,2.44-10.4,2.08-20.54-.95-30.54-6.59-21.78-19.33-39.53-39.18-50.48-20.72-11.42-42.75-16.87-65.82-4.86-8.9,4.63-18.24,1.56-24.08-6.74-1.36-1.94-2.49-4.06-3.66-6.13-10.82-18.99-26.88-27.97-48.88-25.66-7.89.83-15.86,1.15-23.68,2.42-32.41,5.24-57.75,21.28-74.17,50.12-7.7,13.52-15.18,16.48-29.28,9.49-12.26-6.08-24.28-6.16-36.69-.64-14.27,6.35-26.08,15.78-35.71,27.94-2.27,2.87-3.72,6.39-5.54,9.62.34.41.68.81,1.02,1.22,7.96-3.21,13.51.35,18.78,5.58,8.71,8.66,17.63,17.1,26.56,25.54,3.59,3.39,6.02,7.19,3.76,12.09-2.22,4.81-6.77,5.96-11.58,5.43-12.34-1.36-23.57-5.33-32.42-14.54-1.33-1.38-2.77-2.65-4.65-4.45-3.38,9.29-10.49,11.91-18.77,13.31-5.01.85-10.18,2.22-14.6,4.62-2.98,1.62-5.95,5.07-6.93,8.3-5.66,18.69-3.31,36.32,9.93,51.23,3.26,3.67,8.92,5.27,13.58,7.61.77.38,2.1-.37,3.17-.61-.31-1.21-.35-2.61-1.01-3.58-.87-1.28-2.33-2.14-3.37-3.33-8-9.17-4.19-21.32,7.72-23.72,4.39-.88,9.09-.78,13.59-.41,12.25,1.02,24.48,2.39,36.71,3.67,8.36.87,15.63-1.66,22.19-6.73,2.68-2.07,4.08-3.87,1.31-7.22-3.71-4.5-4.51-9.83-1.31-14.97,3.36-5.41,8.71-6.54,14.62-5.42,6.23,1.18,12.49,2.32,18.63,3.89,12.69,3.24,24.9,2.2,36.34-4.12,6.22-3.44,11.92-7.81,17.89-11.7,4.97-3.25,9.69-7.15,15.1-9.32,2.84-1.14,8.25-.37,10.08,1.69,2.08,2.35,1.85,7.09,1.85,10.79,0,1.71-1.64,3.59-2.89,5.09-21.08,25.27-46.12,41.85-80.98,36.45-3.2-.5-4.74.32-6.6,3.16-12.81,19.52-39.47,42.45-71.51,32.96-4.55-1.35-6.07.31-7.72,4.36-10.52,25.75-12.3,52.26-8.19,79.51.96,6.35,3.34,11.48,7.26,16.53,3.81,4.91,7.76,10.45,9.23,16.32,4.15,16.51.8,32.42-7.92,46.83-2.71,4.48-3.17,8.04-3,13.22.28,8.56,2.75,13.86,10.74,17.22,4.82,2.03,7.03,6.72,5.1,11.93-1.89,5.1-6.35,6.8-11.59,6.42-9.37-.69-15.26-5.85-18.92-14.36,2.03,13.22,8.16,24.65,15.34,35.65l-.13-.24ZM1175.7,1268.69c-6.28.61-12.83.91-18.96-.24-5.61-1.06-10.83-4.25-16.2-6.55-2.99-1.28-5.94-2.63-10.31-4.58.36,10.29.68,19.11.98,27.92.54,15.64,1.04,31.29,1.63,46.93.06,1.54.33,3.19.95,4.58,4.82,10.77,6.11,22.17,5.76,33.75-1.14,37.26,7.59,72.46,22.52,106.21,5.27,11.92,11.88,23.33,18.7,34.47,14.69,24,37.93,38.85,61.08,52.82,16.87,10.18,31.1,22.2,42.84,37.77,3.12,4.13,8,6.89,11.83,10.53,3.69,3.5,7.56,6.97,10.51,11.06,11.02,15.28,21.76,30.76,32.47,46.26,20.92,30.29,48.67,52.67,81.29,68.94,37.45,18.68,74.68,38.05,113.26,54.11,25.08,10.45,52.4,15.51,78.7,23.04,3.33.96,4.88-.07,6.21-3.31,2.87-7,7.9-10.23,13.48-9.45,5.86.82,10.44,5.53,11.12,12.97.57,6.27-.1,12.65-.12,18.98-.04,11.26-.61,22.57.17,33.78.89,12.84,2.46,25.7,4.77,38.36,1.47,8.07,4.82,15.8,7.33,23.68,2.04,6.4,4,12.84,6.16,19.2,2.22,6.52,3.95,12.73,12.92,14.17,5.45.88,10.29,5.62,15.4,8.65,3.15,1.87,5.83,2.04,9.29-.19,2.74-1.76,6.59-2,10.01-2.41,2.51-.31,5.14.49,7.67.26,7.9-.7,12.7-6.17,11.96-14.01-.52-5.51-1.76-10.96-2.72-16.42-1.76-10.02.3-19.25,5.35-28.01,2.47-4.29,4.69-8.74,6.68-13.27,3.58-8.17,4.32-16.28-.32-24.54-3.09-5.51-5.76-11.32-8-17.22-3.6-9.49-2-18.42,2.78-27.43,3.27-6.16,5.74-13.12,6.83-19.99,2.7-17.14-8.37-27.6-20.01-37.35-5.77-4.84-11.78-9.39-17.84-13.86-15.49-11.45-28.29-25.47-39.1-41.28-15.87-23.22-38.72-36.49-65.04-42.91-17.26-4.21-28.35-11.75-31.23-29.87-.92-5.81-3.45-11.37-5.34-17.01-10.43-31.24-31.93-49.91-64.19-56.11-17.09-3.29-34.23-6.31-51.36-9.35-6.64-1.18-10.66-5.14-12.26-11.43-1.27-4.99-1.77-10.16-2.93-15.18-6.68-29.04-21.01-53.76-42.31-74.52-4.82-4.7-10.01-9.2-9.73-16.97.04-1.11-1.61-2.6-2.82-3.37-22.58-14.41-37.98-35.1-50.87-57.99-14.37-25.53-24.64-52.76-34.07-80.43-5.36-15.72-11.75-31.15-22.11-44.61-3.68-4.78-5.88-10.71-9.15-16.85-24.8,19.31-53.76,25.32-83.68,28.24ZM1180.37,567.5c-10.22,14.71-25.73,20.56-44.36,17.81-1.13,3.35-2.3,6.79-3.58,10.55,21.54,9.09,42.52,19.23,57.02,38.65,7.92-4.89,15.16-10.73,23.42-14.08,8.12-3.3,11.19-8.19,11.05-16.35-.34-19.79-.46-39.59-.81-59.38-.07-3.95-.83-7.89-1.1-11.85-.61-8.95,2.74-15.94,10.74-20.28,20.46-11.11,36.46-27.23,50.67-45.28,14.44-18.35,22.62-39.08,22.13-62.69-.39-18.83-1.12-37.65-1.85-56.47-.38-9.79,3.24-17.38,10.41-24.17,4.6-4.37,8.95-10.04,10.9-15.96,4.63-14.08,8.46-28.52,11.31-43.07,2.86-14.61-.63-28.28-9.67-40.46-6.88-9.27-6.1-16.99,3.51-22.71,16.32-9.71,23.07-24.85,25.09-42.33,2.3-19.85,3.64-39.84,4.39-59.81.29-7.71-1.65-15.65-3.52-23.26-1.84-7.47.01-12.98,5.48-18.15,3.02-2.86,6.42-6.52,7.21-10.32,2.03-9.81-7.7-18.97-17.67-16.61-6.85,1.62-13.76,4.23-19.8,7.81-33.04,19.55-60.36,45.22-83.07,76.31-20.1,27.52-36,57.42-53.15,86.66-6.78,11.56-15.5,21.99-23.51,32.81-2.01,2.71-3.28,4.98.87,6.28,51.37,16.05,72.74,74.18,63.63,123.13-1.88,10.1-4.67,20.1-7.84,29.88-5.22,16.11-17.17,27.34-29.32,38.29-1.59,1.43-3.18,2.87-5.06,4.57,13.42,12.41,23.22,26.34,19.34,45.47-3.96,19.53-19.14,26.93-36.83,31.3,8.86,18.09,16.33,35.96,3.98,53.73ZM135.44,1319.04c6.3-3.18,12.2-6.44,15.9-12.78,2.28-3.9,1.43-5.81-3.12-6.21-9.48-.84-18.1,1.13-25.43,7.51-5.85,5.09-11.59,5.58-15.84,1.33-4.05-4.05-3.2-9.94,1.1-16.07,4.92-7.01,9.07-14.57,13.56-21.88-.61-.59-1.22-1.17-1.83-1.76-1.77.83-4,1.23-5.23,2.56-6.3,6.74-13.01,13.25-18.31,20.73-8.34,11.77-15.67,24.26-23.39,36.46-.39.61-.5,1.4-.89,2.55,21.34-4.71,43.55-2.39,63.49-12.45ZM338.26,1017.34c3.87-2.12,7.85-4.07,11.55-6.46,1.07-.69,1.63-2.6,1.9-4.05,1.11-5.93,2.02-11.9,3.1-18.51-13.76,8.38-20.44,20.95-16.55,29.01ZM384.61,1040.8c9.17-6.67,18.21-19.94,18.44-26-.6-.43-1.21-.86-1.81-1.29-5.25,8.61-10.49,17.23-16.62,27.29Z"></path>
    <path class="cls-1" d="M1290.43,847.86c10.17,1.57,20.3,3.66,30.53,4.62,46.34,4.32,92.5,2.6,137.85-8.07,51.88-12.21,96.45-37.79,132.65-77.31.4-.44.88-.86,1.12-1.38,5.19-11.25,14.17-10.99,24.71-9.37,32.97,5.05,66.07,8.36,99.53,5.01,18.45-1.85,35.68-7.35,52.1-15.69,13.27-6.74,23.1-16.75,28.17-30.87,1.48-4.12,4.21-4.52,7.71-4.9,27.34-2.98,54.26-7.58,78.74-21.23,18.85-10.51,35.59-23.8,50.93-38.89,6.93-6.82,11.77-14.89,13.86-24.52,3.95-18.26-9.83-38-27.09-38.18-3.74-.04-7.96,1.18-11.17,3.12-7.57,4.58-6.99,11.87.8,16,8.69,4.6,10.98,12.2,4.29,19.31-6.43,6.83-13.93,13.08-21.97,17.91-24.44,14.68-50.62,24.44-79.56,25.82-8.65.41-17.35,1.97-25.81,3.95-8.28,1.95-14.09,7.34-15.5,16.16-.42,2.63-.06,5.61.77,8.17,3.14,9.71,1.88,16.69-6.59,22.57-6.4,4.45-13.76,7.97-21.18,10.41-19.12,6.28-38.76,5.3-58.3,2.09-24.64-4.05-49.22-8.49-73.86-12.56-16.33-2.7-21.45,1.38-28.53,15.95-4.1,8.44-10.74,16.48-18.11,22.36-61.09,48.67-130.22,68.24-207.82,55.46-17.6-2.9-35.11-6.42-52.76-8.94-6.14-.87-12.73-.27-18.87.91-9.98,1.92-16.64,8.82-17.6,17.07-1.16,9.93,4.49,16,12.37,20.51,2.74,1.56,5.75,2.65,8.63,3.95,0,.19-.02.38-.03.57Z"></path>
    <path class="cls-1" d="M694.92,1045.06c.11-.95.38-2.5.43-4.06.17-5.4-1.46-9.94-6.95-11.88-5.45-1.93-9.74.43-12.98,4.7-1.78,2.35-3.18,5.02-4.52,7.67-5,9.92-11.73,18.36-20.94,24.68-18.9,12.97-39.25,22.41-62.32,24.85-4.8.51-9.7.1-14.49.12-.09-1.39-.26-1.84-.12-2.16,1.94-4.53,3.71-9.17-1.1-12.96-4.55-3.58-9.56-2.34-13.97.15-3.17,1.79-6.37,4.25-8.41,7.2-5.39,7.79-2.31,17.26,6.67,20.23,17.17,5.68,35.07,6.31,52.24,1.9,18.34-4.71,36.23-11.6,53.78-18.83,7.44-3.06,13.51-9.43,20.96-14.85,12.31,8.32,26.93,6.73,41.95,5.51,22.7-1.85,45.58-1.46,68.26-3.39,51.76-4.4,97.95-23.64,139.43-54.58,2.22-1.66,4.74-3.17,6.38-5.32,10.65-13.9,26.24-18.3,41.91-23.73,63.28-21.91,118.81-56.29,164.09-106.1,7.52-8.28,13.62-17.96,19.57-27.5,2.51-4.02,3.84-9.33,3.95-14.09.08-3.41-1.95-7.72-4.48-10.12-3.28-3.12-7.57-1.18-10.81,1.45-3.22,2.62-6.29,5.46-9.19,8.43-29.54,30.33-61.79,57.63-95.21,83.48-20.64,15.97-44.24,27.15-68.06,37.67-6.17,2.73-12.31,5.51-18.45,8.3-11.08,5.05-20.5,11.8-28.96,21.06-17.22,18.84-39.12,31.44-62.61,41.21-40.53,16.85-82.8,22.64-126.38,19.56-6.88-.49-13.67-2.27-20.5-3.47-9.48-1.66-18.95-3.34-29.17-5.15Z"></path>
    <path class="cls-1" d="M1553.24,681.8q3.94-11.96,16.04-11.95c38.05-.09,68.12-17.32,93.46-44.12,9.95-10.52,12.97-24.36,15.06-38.18.64-4.25,2.36-5.19,6.26-5.96,35.48-7,67.37-22.07,95.39-44.79,13.4-10.87,21.28-25.37,19.44-43.21-.59-5.73-3.46-11.71-6.79-16.54-3.11-4.51-8.82-5.19-14.08-2.92-5.37,2.32-8.24,7.08-7.09,12.5,3.17,14.99-4.81,24.27-15.57,32.03-20.54,14.83-43.44,24.48-68.18,29.89-5.02,1.1-10.04,2.39-14.88,4.11-8.72,3.1-13.58,9.27-13.7,18.8-.04,3.37-.31,6.73-.44,10.1-.55,14.65-6.31,26.85-17.35,36.5-13.5,11.8-28.77,20.42-46.14,25.03-7.47,1.98-14.99,4.14-22.63,5.02-15.58,1.79-25.05,9.83-28.45,25.1-4.04,18.13-15.55,30.34-32.04,37.29-9.91,4.18-20.85,5.97-31.39,8.58-4.02,1-8.23,1.18-12.33,1.89-8.27,1.44-15.05,5.47-18.96,12.97-12.3,23.59-32.01,30.79-57.23,26.94-7.42-1.13-15.02-1.09-22.52-1.75-1.63-.14-3.17-1.12-4.81-1.53-2.1-.52-4.37-1.53-6.35-1.15-6.41,1.23-12.72,2.99-19.07,4.56-8.06,2-12.81,7.01-13.33,14.03-.5,6.79,3.59,12.75,11.74,15.24,31.22,9.55,61.81,9.04,91.15-6.84,12.12-6.56,20.84-16.28,26.02-29.11.15-.37.34-.72.45-1.1,3.36-12.68,11.44-18.05,24.65-19.78,12.97-1.7,26-5.75,38.07-10.93,18.55-7.96,29.26-21.52,35.59-40.74Z"></path>
    <path class="cls-1" d="M2002.61,600.98c14.17,4.02,28.46,5.51,43.07,5.42,12.28-.08,24.59.47,36.86,1.19,29.86,1.75,59.44-.57,88.89-5.42,18.44-3.04,35.87-9.06,51.48-19.25,12.75-8.33,25.19-17.32,36.8-27.16,6.32-5.36,10.92-12.89,15.7-19.85,1.64-2.39,2.31-6.16,1.85-9.06-.38-2.46-2.59-5.57-4.79-6.52-1.66-.72-4.63,1.46-6.94,2.5-.66.3-.99,1.26-1.61,1.72-29.6,21.44-58.88,42.81-97.55,45.83-41.14,3.21-81.6-1.35-122.05-7.17-16.5-2.37-32.8-1.96-49.18.13-2.92.37-5.88,1.09-8.63,2.15-5.76,2.23-9.63,6.3-10.3,12.68-.67,6.37,2.03,11.54,7.44,14.49,6.04,3.29,12.62,5.6,18.97,8.34Z"></path>
    <path class="cls-1" d="M1448.91,643.41c1.25-6.55,2.06-12.67,3.7-18.56.94-3.38,2.47-7.36,5.05-9.37,5.87-4.57,12.34-8.51,18.96-11.96,12.3-6.41,25.21-11.7,37.28-18.5,28.99-16.34,43.28-46.14,37.73-77.5-.79-4.45-2.28-8.83-3.94-13.05-1.92-4.88-5.8-7.71-11.15-7.22-5.66.51-8.1,4.66-8.72,9.79-1.16,9.63-1.72,19.35-3.11,28.94-2.33,16.12-10.47,28.55-25.05,36.2-8.59,4.51-17.4,8.63-26.24,12.65-14.26,6.49-26,16.03-34.44,29.18-2.55,3.97-4.47,9.08-4.62,13.74-1.05,31.48-17.5,52.7-44.22,66.82-19.57,10.34-41,14.49-62.89,16.58-16.67,1.59-30.07,9.52-40.75,22.12-2.65,3.12-4.53,6.93-6.48,10.59-.91,1.7-1.29,3.75-1.61,5.69-1.09,6.67,1.49,12.81,6.84,15.93,5.8,3.38,11.63,2.76,16.69-1.3,21.42-17.17,45.68-29.23,70.77-39.86,27.87-11.82,51.07-29.47,67.77-54.99,3.34-5.1,5.75-10.8,8.42-15.89Z"></path>
    <path class="cls-1" d="M951.69,482.51c15.22,4.41,31.74,4.81,47.83-1.44,17.61-6.84,29.74-19.01,32.39-38.45,2.04-14.97-10.43-30.66-25.45-32.04-4.18-.38-9.23.94-12.79,3.21-6.93,4.42-6.38,13.16.38,17.86.97.68,2.12,1.12,3.06,1.83,7.55,5.72,7.98,15.87.73,20.56-14.6,9.45-48.91,6.04-55.56-21.47-1.84-7.61-.75-9.24,6.89-10.11,2.54-.29,5.15-.52,7.69-.26,7.58.75,12-3.3,11.64-10.96-.43-9.17-8.34-17.53-18.7-19.75-17.19-3.69-32.49,6.54-36.82,24.61-6.28,26.23,11.76,58.03,38.7,66.41Z"></path>
    <path class="cls-1" d="M1105.02,303.02c-9.54-2.4-16.74,1.92-17.13,11.53-.25,6.23.62,12.67,2,18.78,2.67,11.79,5.99,23.43,9.19,35.09,2.72,9.93,2.89,19.56-2.46,28.78-3.72,6.41-5.74,6.9-13.04,5.35-2.84-.6-8.05.05-8.78,1.67-1.13,2.5-.36,7.06,1.38,9.45,6.81,9.4,18.95,11.86,30.51,6.44,17.72-8.31,26.69-23.18,29.56-41.89,3.91-25.48-5.59-47.11-20.75-66.71-2.67-3.46-6.93-5.69-10.46-8.48Z"></path>
    <path class="cls-1" d="M946.58,384.65c12.52,3.54,26.57,1.94,39.03-8.07,10.03-8.06,12.65-22.26,6.49-33.33-4.88-8.78-14.04-11.43-22.86-6.98-3.99,2.01-5.02,4.69-3.59,8.68.47,1.31,1.44,2.75,1.2,3.93-.74,3.74-.87,8.62-3.28,10.72-2.37,2.07-7.61,2.52-10.94,1.52-10.08-3.06-18.91-21.66-15.45-31.77.59-1.71,3.08-3.5,4.97-3.89,4.85-.99,8.29-3.1,8.55-8.3.26-5.18-2.52-8.65-7.38-10.29-7.18-2.42-13.29.04-18.66,4.71-6.26,5.44-9.44,12.65-10.91,20.64-3.95,21.47,9.63,44.51,32.83,52.43Z"></path>
    <path class="cls-1" d="M1027.53,512.37c8.43,1,17.63,3.06,26.81,2.99,16.74-.14,29.64-7.92,35.55-23.95,3.36-9.13,5.22-19.06,6.03-28.78.42-5.02-1.86-11.09-4.81-15.38-5.66-8.24-14.63-6.68-18.29,2.66-2.23,5.7-3.36,11.85-5.87,17.41-8.91,19.75-17.81,24.96-39.58,23.86-2.96-.15-5.91-.66-8.87-.77-3.9-.13-8.46.21-8.93,4.78-.3,2.85,1.59,6.9,3.85,8.83,3.81,3.26,8.7,5.26,14.13,8.35Z"></path>
    <path class="cls-1" d="M806.71,475.3c-5.14,8.6-4.07,13.02,3.55,17.22,11.89,6.56,21.35,4.69,26.16-5.16,2.92-.49,6.16-.38,8.67-1.67,1.85-.96,3.77-3.74,3.78-5.71.01-1.6-2.82-4.65-4.32-4.61-13.89.43-23.51-8.75-34.34-14.96-6.61-3.78-12.96-4.78-19.79-1.76-4.09,1.81-6.85,4.98-5.97,9.86.89,4.95,4.44,6.71,9.12,6.74,4.13.03,8.25.03,13.14.05Z"></path>
    <path class="cls-1" d="M674.97,792.05c-3.52-.55-7.78-1.87-12-1.73-6.82.22-10.18,5.37-8.58,11.93,2.99,12.3,22.84,23.88,35.04,20.38,4.73-1.36,8.08-4.33,8.92-9.32.83-4.94-.95-9.14-5.3-11.67-5.62-3.27-11.49-6.12-18.07-9.59Z"></path>
    <path class="cls-1" d="M754.46,574.66c3.31,1.62,6.74,3.06,9.89,4.96,1.4.84,2.83,2.47,3.21,4,1.26,5.14,4.13,8.61,9.31,9.63,5.37,1.05,9.69-.92,12.75-5.55.87-1.31,1.89-2.53,2.86-3.77,3.58-4.58,3.89-9.17-.65-12.53-6.12-4.54-12.68-9.01-19.74-11.65-10.13-3.79-18.03,3.61-17.5,15.16,0,0-.13-.24-.13-.24Z"></path>
    <path class="cls-1" d="M792.93,451.77c2.07-1.26,4-3.05,6.25-3.7,10.79-3.12,20.62-.49,29.91,5.39,6.67,4.22,13.3,8.65,20.4,12.01,4.88,2.3,10.49,3.35,15.9,4.05,1.62.21,3.64-2.61,5.48-4.05-1.48-1.79-2.71-4.83-4.47-5.17-18.04-3.48-33.26-13.58-49.62-20.9-9.14-4.09-17.64-4.4-25.93.86-2.26,1.43-4.5,4.94-4.41,7.41.08,2.15,3.47,4.17,5.4,6.25.37-.72.73-1.44,1.1-2.16Z"></path>
    <path class="cls-1" d="M542.06,911.09c5.62.58,11.2,2.05,16.53,1.39,3.2-.4,7.18-3.5,8.69-6.46,2.04-3.99-1.01-7.73-4.76-9.65-3.29-1.69-7.03-2.54-10.58-3.7-4-1.31-7.99-3.4-12.04-3.53-2.74-.09-6.24,2.01-8.21,4.2-3.11,3.44-2.95,8.05.43,11.3,2.75,2.65,6.48,4.28,9.94,6.46Z"></path>
    <path class="cls-1" d="M462.55,964.76c-.87-4.15-.67-8.99-2.82-12.3-4.7-7.22-10.54-13.72-16.07-20.38-.94-1.14-2.66-2.32-4-2.28-2.48.06-5.66.29-7.14,1.82-.96.98,0,4.75,1.12,6.65,2.4,4.05,6.07,7.41,8.09,11.6,1.87,3.87,2.77,8.39,3.18,12.72.45,4.73,1.23,8.74,6.56,9.87,4.23.9,8.41-2.36,11.08-7.7Z"></path>
    <path class="cls-1" d="M1756.13,1555.11c-.05-.34-.12-.68-.21-1.02-4.73-4.87-8.82-10.72-14.36-14.34-5.45-3.57-9.14-.75-9.04,5.81.11,7.57,3.61,13.78,9.41,18.43,5.15,4.13,14.12,1.84,14.2-8.88Z"></path>
    <path class="cls-1" d="M1092.98,1141c6.35,2.05,12.77-.68,14.76-6.26,1.99-5.59-1.49-11.8-7.78-13.92-6.45-2.17-13.84,1.05-15.72,6.83-1.75,5.38,2.06,11.19,8.74,13.35Z"></path>
    <path class="cls-1" d="M1206.15,231.09c.43,1.8.23,5.15,1.72,6.28,2.05,1.55,5.86,2.63,8.04,1.75,5.24-2.12,10.75-4.68,14.78-8.5,14.2-13.47,28.23-27.18,41.57-41.51,15.37-16.51,29.87-33.83,44.94-50.62,1.83-2.04,4.73-3.37,7.38-4.37,4.7-1.76,8.5-4.75,8.31-9.68-.14-3.72-1.85-8.19-4.41-10.82-3.36-3.45-8.71-3.58-12.66-.57-4.5,3.43-8.67,7.51-12.23,11.91-6.84,8.45-12.24,18.22-19.85,25.84-19.15,19.19-39.31,37.36-58.8,56.21-5.38,5.2-9.91,11.29-14.67,17.11-1.48,1.81-2.43,4.06-4.12,6.97Z"></path>
    <path class="cls-1" d="M1216.59,428.65c5.43-2.22,10.92-4.29,16.26-6.7,14.42-6.49,27.23-15.44,38.45-26.52,2.84-2.81,5.06-6.6,6.51-10.35,1.58-4.07-.13-7.86-4.03-10.14-4.06-2.37-8.11-2.03-11.42,1.38-14.73,15.21-29.39,30.49-43.99,45.83-1.36,1.43-2.12,3.42-3.16,5.15.46.45.92.9,1.38,1.35Z"></path>
    <path class="cls-1" d="M1252.55,330.85c11.17-11.53,22.14-22.74,32.95-34.09,2.15-2.26,4.13-4.88,5.45-7.68,1.83-3.88,1.53-7.97-2.31-10.61-3.81-2.63-7.54-1.53-10.73,1.58-.84.82-1.61,1.74-2.31,2.7-7.67,10.54-15.34,21.07-22.96,31.64-4.24,5.89-4.19,10.89-.1,16.46Z"></path>
  </g>
</svg>