<?xml version="1.0"?>
<svg fill="#F3EFE2" id="Layer_1" data-name="Layer 1" xmlns="http://www.w3.org/2000/svg" viewBox="0 0 2929.84 1500">
  <defs>
    
  </defs>
  <path class="cls-1" d="M1960.62,825.01c-5.84.63-10.57,2.92-13.31,6.47-2.07,2.67-2.89,5.95-2.37,9.48.54,3.72,2.47,6.79,5.57,8.9,3.87,2.62,9.2,3.39,14.61,2.09,11.9-2.83,17.78-9.63,19.08-22.02.12-1.15.37-2.29.76-4.06.22-.98.48-2.16.79-3.68l.16-.79-.28.04c-2.49.36-5,.75-7.54,1.15-5.69.89-11.58,1.8-17.48,2.43Z"></path>
  <path class="cls-1" d="M1971.88,1044.75c1.78-4.09,4.7-7.6,7.53-10.99l1.47-1.78c4.25-5.2,8.56-10.36,12.88-15.53,7.99-9.57,16.26-19.46,23.97-29.49,3.63-4.72,8.29-11.95,9.93-19.6.67-3.11,1.36-6.24,2.05-9.36,3.57-16.1,7.26-32.75,7.49-49.06,1.08-77.03-9.76-133.96-35.17-184.58-1.96-3.91-3.31-7.47-4.11-10.89-.82-3.48-1.57-7.44-.21-10.56,7.4-16.97,8.36-35,9.29-52.44l.49-8.77c1.29-22.31,2.61-45.39-2.14-67.84-.46-2.18.5-4.37,1.35-6.31.3-.68.6-1.36.82-2.03,1.02-3.08,2.19-6.13,3.36-9.19,2.47-6.44,5.02-13.1,5.95-19.74,2-14.36-3.8-25.08-16.75-31.01-2.54-1.17-4.49-4.92-4.71-7.69-.41-5.2-.64-10.42-.85-15.63-.35-8.17-.7-16.62-1.84-24.77-4.91-35.16-17.55-60.86-38.64-78.57-16.42-13.78-33.98-26.81-50.97-39.41-9.2-6.83-18.4-13.65-27.48-20.63-2.76-2.12-5.02-5.92-5.5-9.23-.76-5.34-1.23-10.81-1.68-16.1-.77-9.03-1.57-18.36-3.89-27.04-9.51-35.59-20.29-66.08-55.99-78.71l-2.08-.74,1.61-3.95c.49-1.23.94-2.36,1.45-3.47,10.87-23.9,6.63-47.28-11.96-65.84-13.29-13.27-29.44-19.59-49.06-18.98-4.33.12-8.45-.29-10.52-6.36-8.12-23.83-24.24-44.68-49.26-63.75-24.91-18.98-57.72-27.87-87.78-23.76-27.45,3.74-51.44,18.23-69.36,41.88-.71.94-1.24,2.09-1.85,3.43-.32.7-.65,1.42-1.02,2.14l-1.24,2.43-2.03-1.82c-11.44-10.27-23.72-16.41-38.64-19.34-45.12-8.83-88.68.92-129.51,28.98-27.34,18.78-39.38,45.22-34.81,76.45.16,1.13-.02,2.18-.22,3.28-.08.47-.17.97-.23,1.52l-.22,1.82-1.83.04c-30.85.64-52.09,15.08-63.11,42.91-11.26,28.42-9.28,54.72,5.91,78.18l1.25,1.93-49.53,26.04-1.09-.95c-20.86-18.31-25.05-20.93-40.83-25.47-49.08-14.13-90.35.83-119.31,43.27-1.91,2.8-5.8,4.88-11.88,6.36-5.96,1.45-12.05,2.65-17.94,3.81-5.21,1.03-10.43,2.06-15.61,3.26-4.66,1.08-9.28,2.37-13.89,3.67-7.07,1.98-14.37,4.02-21.75,5.27-32.25,5.45-62.5-3.06-93.21-13.05-34.38-11.18-68.35-20.9-100.97-28.91-24.1-5.91-47.58-2.63-67.91,9.5-20.95,12.49-30.55,32.77-25.71,54.24,3.34,14.76,11.44,27.9,24.07,39.06,17.7,15.63,41.84,35,71.73,46.06l1.91.71-.64,1.93c-7.57,22.68,3.01,40.52,14.21,59.41l4.92,8.35-4.81-1.15c-4.51-1.09-8.07-2.65-11.33-4.17-30.02-13.93-64.06-29.71-100.75-35.4-28.23-4.38-51-2.12-71.68,7.1-12.57,5.6-21,14.35-23.73,24.64-2.71,10.23.08,21.39,8.07,32.29,9.21,12.55,17.48,21.06,26.03,26.77,17.1,11.43,35.09,22.18,52.49,32.58,8.77,5.24,17.54,10.48,26.23,15.82,1.1.68,6.6,4.25,6.62,8.2.05,12.15,6.18,22,11.92,30.27,17,24.52,40.98,42.57,77.74,58.53,2.6,1.13,5.23,2.21,8.04,3.38l6.22,2.58-1.14,2.05c-7.16,12.91-7.14,25.7.07,40.26l1.62,3.27-3.64-.24c-1.86-.12-3.59-.22-5.23-.3-3.35-.18-6.33-.33-9.3-.7-26.52-3.31-51.66,2.56-74.71,17.43-4.09,2.64-8.25,5.18-12.41,7.73-3.57,2.18-7.14,4.36-10.66,6.61-5.87,3.74-10.88,3.68-16.73-.24-41.44-27.71-78.14-45.86-122.78-44.12-4.88.25-10.72-4.51-14.53-8.49-6.25-6.53-12.4-13.34-18.35-19.94-9.11-10.09-18.52-20.53-28.43-30.06-18.36-17.67-38.35-28.28-59.44-31.54-16.44-2.54-35.12-3.04-58.75-1.57-12.37.77-26.08,3.61-43.15,8.93-51.34,16.02-99.17,46.28-146.19,92.51-15.23,14.97-25.19,34.97-29.61,59.46-.57,3.15-2.71,5.78-4.78,8.31-.55.68-1.1,1.35-1.61,2.02-1.66,2.21-3.43,4.35-5.19,6.48-3.46,4.19-6.73,8.15-9.23,12.6-2.54,4.53-4.71,6.79-10.14,7.33-20.38,2.02-32.76,14.73-33.98,34.87-.45,7.54-4.31,9.39-9.72,11.16-9.33,3.06-19.9,6.53-28.94,11.84-14.51,8.52-19.44,21.58-14.65,38.84.6,2.17,1.15,4.36,1.74,6.69l1.37,5.38-1.84.63c-2.12.72-4.14,1.45-6.1,2.15-4.17,1.5-8.1,2.9-12.15,4.02-13.51,3.72-20.67,10.7-22.51,21.98-2.21,13.51,2.94,24.55,14.5,31.09,8.26,4.68,20.67,11.11,33.11,12.98,20.99,3.14,42.6,4.84,63.49,6.49,5.25.41,10.51.83,15.76,1.26,5.6.46,11.36.64,15.55-1.22,12.45-5.5,24.59-3.53,36.33-1.63,2.34.38,4.68.76,7.03,1.08.74.1,1.48.22,2.23.34,2.38.39,4.63.75,6.7.46,7.94-1.15,11.82,3.52,15.6,8.01,3.43,4.07,6.78,8.26,10.13,12.46,9.32,11.66,18.95,23.72,30.41,32.9,42.92,34.37,91.52,58.08,133.4,76.73,2.6,1.16,5.62,2.32,8.24,2.21,8.25-.43,13.71,3.77,19.05,8.46,26.63,23.4,56.03,40.85,87.36,51.86,13.11,4.61,26.73,8.56,39.9,12.38,7.8,2.26,15.61,4.53,23.36,6.94,60.55,18.81,123.41,30.13,186.82,33.66,74.52,4.14,148.83-7.37,220.86-34.25,22.14-8.26,47.53-18.48,68.72-35.29,7.57-6.01,13.04-6.64,21.68-2.51,45.67,21.89,91.45,29.52,136.05,22.66,16.21-2.49,32.53-6.27,48.32-9.93,9.66-2.24,19.64-4.55,29.52-6.55,7.72-1.56,15.29-1.96,21.86-1.19,13.79,1.64,27.75,3.59,41.26,5.48,12.86,1.8,25.72,3.59,38.6,5.16,69.94,8.5,128.04-1.67,177.62-31.13.6-.35,1.16-.46,1.82-.58.3-.06.67-.13,1.14-.23l1.43-.34,2.85,4.37c1.45,2.22,2.83,4.34,4.24,6.43,17.2,25.41,42.16,55.89,82.94,66.16,16.62,4.18,30.48,7.6,44.96,10.29,2.37.44,4.74.9,7.11,1.36,17.64,3.43,35.87,6.97,53.58,1.94,20.75-5.9,41.47-13.65,59.26-20.45,38.63-14.76,67.98-42.8,87.24-83.33,12.77-26.89,18.01-54.85,23.53-88.6,1.1-6.7,3.66-9.92,9.76-12.28,19.36-7.48,31.45-17.99,38.04-33.08ZM165.73,841.1c.87-1.23,1.59-2.23,2.67-2.93,10.52-6.73,15.75-17.09,21.29-28.06,1.31-2.58,2.62-5.17,3.99-7.71,21.12-38.85,53.89-69.46,97.42-90.98,15.26-7.55,31.41-13.85,47.03-19.94,6.93-2.7,13.86-5.41,20.73-8.22,1.18-.48,2.41-.88,3.64-1.27,1.83-.59,3.56-1.14,5.06-1.99,19.46-11.03,40.61-10.67,58.74-8.86,10.93,1.09,20.22,6.19,26.13,14.36,6.03,8.33,8,18.98,5.55,30-1.38,6.19-2.66,12.41-3.94,18.63-3.23,15.65-6.58,31.84-11.36,47.35-3.33,10.82-9.02,21.02-14.52,30.87-1.76,3.15-3.51,6.29-5.19,9.45-2.8,5.27-5.93,10.43-8.95,15.43-2.43,4.01-4.86,8.03-7.15,12.12-14.87,26.66-32.12,43.02-54.3,51.51-.82.31-1.34.51-1.66.74-11.43,8.53-24.62,13.33-37.38,17.98-7.02,2.56-14.29,5.2-21.1,8.43-7.83,3.71-15.41,8.85-22.1,13.39-6.71,4.55-13.97,8.85-23.02,8.85-2.46,0-5.06-.32-7.82-1.04l-2.08-.54.58-2.07c.72-2.55,1.47-5,2.19-7.4,1.53-5.04,2.97-9.79,3.93-14.6,1.88-9.41.64-16.92-3.57-21.74-4.2-4.8-11.46-7.03-20.95-6.41-10.56.73-24.7-10.78-26.93-21.89-1.66-8.27-6.22-12.66-14.79-14.25-2.98-.55-5.31-1.19-7.32-2-4.94-1.99-6.71-4.97-7.33-7.12-.63-2.17-.71-5.69,2.48-10.08ZM1930.44,1041.65v-4.88c-.01-1.49-.02-3.01,0-4.54,1.44-81.41-1.21-152.8-8.1-218.26-1.5-14.2-3.91-28.57-6.26-42.47-1.87-11.12-3.81-22.61-5.27-33.99-1.48-11.57-2.52-23.37-3.52-34.79-1.04-11.79-2.1-23.98-3.67-35.87-2.99-22.77-15.24-41.8-25.57-55.83-9.41-12.77-22.17-15.43-36.9-7.69-1.1.58-2.21,1.13-3.34,1.69l-3.87,1.94-.72-2.4c-3.82-12.76-10.28-21-18.68-23.84-9.68-3.28-21.81.3-36.03,10.61l-1.71,1.24-1.23-1.72c-1.07-1.49-2.11-3-3.15-4.52-2.2-3.21-4.48-6.54-6.99-9.51-4.03-4.77-8.22-7.27-12.45-7.47-4.16-.13-8.4,1.85-12.68,6.05-4.52,4.44-7.94,10.37-10.4,15.04-3.04,5.75-5.76,11.83-8.38,17.71-1.22,2.74-2.45,5.49-3.71,8.21-.25.54-.59.95-.98,1.42l-2.04,2.6-6.89-5.76c-5.11-4.28-10.79-6.2-16.05-5.37-4.93.77-9.22,3.86-12.43,8.93-3.41,5.39-7.69,13.56-8.75,21.83-3.94,30.59-3.89,60.95.17,90.22,2.45,17.71,9.83,34.95,23.93,55.9,3.32,4.94,3.75,8.97,1.57,14.85-3.33,9.01-5.34,18.44-5.79,27.28-.51,9.92-.43,20.07-.35,29.89.06,7.9.12,16.07-.12,24.12l-.1,3.41c-.72,23.98-1.47,48.77-3.43,73.08-3.3,40.88-10.91,77.25-23.25,111.17-3.58,9.83.14,13.39,3.25,15.22,5.23,3.06,10.51,1.54,15.72-4.54,12.27-14.33,21.22-32.32,28.15-56.64,8.95-31.42,10.91-64.46,12.79-96.4l.06-1.07c.92-15.52,2.96-31.04,6.06-46.12,4.34-21.05,3.75-41.97,2.46-61.42-.16-2.53.3-5,.76-7.39.43-2.25.83-4.38.68-6.39-.28-3.87-.7-9.73-3.15-12.35-35.04-37.5-44.09-84.01-48.65-128.68-.85-8.28.62-16.75,2.03-24.95.57-3.31,2.23-6.11,3.84-8.82.67-1.13,1.34-2.26,1.91-3.4l.6-1.19,6.36.14,2.07,6.94c1.18,4.01,2.36,8.01,3.67,11.98.6,1.81,1.15,3.64,1.71,5.48,1.61,5.33,3.28,10.83,6.03,15.42,1.42,2.37,6.93,4.79,9.54,4.12,2.47-.61,5.49-5.02,6.87-8.76,1.06-2.88.54-6.72.05-10.44l-.16-1.16c-2.8-21.75,7.65-38.33,17.75-54.35l3.49-5.57,6.82.15.35,1.62c.64,2.95,1.36,5.89,2.08,8.84,1.67,6.84,3.41,13.92,4.07,21.05l.09.98c.69,7.65,1.37,12.09,7.25,14.38,6.4,2.49,10.73-.87,15.26-6.65.67-.85,1.36-1.7,2.05-2.53,5.23-6.24,12.12-9.35,18.95-8.61,6.9.77,13.04,5.46,16.84,12.85,1.7,3.31,4.12,5.39,6.97,6.02,2.94.66,6.14-.29,9.27-2.72,7.26-5.63,10.92-8.47,14.51-7.77,3.31.64,5.29,4,8.89,10.11l2.34,3.95c9.29,15.42,13.99,32.43,14.37,51.98.11,5.8.05,11.61,0,17.42-.09,8.68-.18,17.66.34,26.41.19,3.3.34,6.62.49,9.96.59,13.25,1.2,26.94,4.9,39.33,13.2,44.03,13.74,89.37,14.26,133.23.6,50.88-.8,101.29-2.29,148.56-.61,19.28-2.8,39.34-6.68,61.35-2.13,12.06-6.63,24.13-12.67,33.98-15.18,24.74-36.29,43.03-62.74,54.35-4.96,2.12-9.89,4.32-14.82,6.52l-8.53,3.79c-41.55,18.29-86.16,19.44-136.39,3.51-16.04-5.09-29.69-14.97-40.58-29.4-15.01-19.88-28.34-37.92-39.38-57.33-33.13-58.27-61.56-117.07-84.48-174.77-5.9-14.86-15.14-28.8-24.08-42.29-3.13-4.73-6.26-9.46-9.26-14.23-3.05-4.86-7.97-8.99-12.37-12.4-7.26-5.61-16.3-5.98-22.49-.92-6.34,5.2-7.64,13.68-3.39,22.14,5.58,11.1,11.84,22.13,17.9,32.79,4.67,8.23,9.42,16.36,14.16,24.49,9.07,15.54,18.44,31.6,26.96,47.8,8.4,15.97,16.13,32.6,23.6,48.69,3.39,7.3,6.79,14.6,10.25,21.87l6.29,13.13c4.01,8.34,8.02,16.68,11.93,25.07,2.33,5,4.5,10.08,6.69,15.23,1,2.35,2,4.71,3.04,7.09l.85,1.96-1.97.82c-41.03,17.15-86.03,32.6-136.74,29.6-31.13-1.84-63.51-1.54-96.24.86-12.97.95-26.06,4.48-38.73,7.9-6.55,1.76-13.32,3.59-20.04,5.05-30.38,6.62-57.85,11.72-86.2,7.04-36.16-5.96-73.55-12.13-105.49-34.17-6.55-4.52-14.34-5.65-21.92-3.17-9.91,3.23-20.35,6.85-29.5,12.44-65.32,39.88-139.14,60.04-219.67,60.04-6.77,0-13.58-.14-20.45-.43-67.79-2.82-136.63-14.58-204.59-34.97-38.6-11.58-76.1-23.66-110.56-44.22-12.34-7.36-25.21-15.93-35.77-28.75-4.7-5.7-12.77-9.3-21.33-12.8-42.16-17.21-83.02-41.6-121.46-72.5-11.44-9.2-21.18-20.77-30.59-31.96-1.88-2.23-3.75-4.46-5.63-6.67-12.37-14.49-27.62-21.54-46.6-21.54h-.02c-8.1,0-16.32-.35-24.27-.68-7.22-.3-14.69-.62-22.02-.67-10.8-.07-22.26,1.04-31.24,9.58-1.64,1.57-4.46,2.58-6.7,2.44-23.1-1.62-41.75-3.08-58.7-4.6-2.99-.26-6.32-1.61-9.13-3.68l-.76-.57c-3.54-2.6-7.55-5.55-7.62-9.12-.07-4.35,5.11-8.8,7.86-10.55,3.41-2.17,7.13-3.82,10.72-5.42,2.22-.99,4.44-1.98,6.6-3.09,8.87-4.58,10.98-9.59,8.06-19.17-5.29-17.38-2.07-24.61,14.36-32.23,9.5-4.39,19.31-8.93,31.37-3.82,3.13,1.32,5.94.56,7.75-.32,3.55-1.73,6.37-5.32,7.53-9.61.64-2.36.93-4.82,1.24-7.43.2-1.67.4-3.34.69-4.99,1.24-7.02,5.01-12.27,10.34-14.41,5.39-2.16,11.86-.95,17.74,3.35.28.2.56.44.84.67.34.28.84.7,1.06.76,13.6,3.39,19.86,12.94,26.63,25.06,3.65,6.54,9.57,11.78,15.83,17.32,2.3,2.03,4.59,4.07,6.77,6.17l4.44-3.72-.8,5.46c-.25,1.67-.53,3.34-.82,5-.6,3.44-1.21,7-1.38,10.46-1.06,21.11,10.98,35.82,31.42,38.39,27,3.41,49.17-6.43,65.93-29.16,2.86-3.88,6.42-6.83,9.77-8.08,19.08-7.17,36.06-14.24,50.65-28.08l2.27-2.15,1.14,2.91c4.81,12.28,14.18,12.29,25.02,11.11l5.19-.57c21.49-2.37,43.71-4.81,65.65-6.1,27.58-1.65,53.78,1.93,77.85,10.54,9.49,3.39,18.23,9.03,26.68,14.48l3.56,2.28c6.54,4.17,12.94,9.29,19.02,15.21,11.3,10.98,24.55,11.12,41.7.43,4.83-3.02,9.32-6.93,13.67-10.71l1.7-1.48c44.29-38.39,96.93-55.59,156.5-51.18,19.9,1.48,20.65,2.06,26.89,20.65,1.99,5.94,4.16,10.77,6.7,14.97,3.96,6.54,9.6,9.46,16.72,8.75,6.86-.71,11.73-4.83,14.48-12.22,4.46-12,5.52-25.19,3.34-41.53-.39-2.94-1.05-5.94-1.68-8.84-.55-2.51-1.09-5.03-1.5-7.56-3.12-19.48,1.9-36.44,14.92-50.42,7.46-8.01,7.33-11.79,4.21-17.22-3.51-6.11-10.91-9.12-18.44-7.45-11.65,2.57-20.62,9.98-25.27,20.89-4.42,10.37-7.77,21.46-11.01,32.2-1.3,4.3-2.6,8.59-3.96,12.86-.64,1.99-1.08,4.04-1.5,5.96-.19.89-.38,1.76-.58,2.58l-.44,1.86-1.89-.26c-78.96-11.03-150.2,13.02-217.88,73.47l-1.52,1.36-6.28-6.67c-3.8-4.05-7.82-8.33-11.92-12.54-17.48-17.93-40.76-28.84-71.17-33.36-4.18-.62-8.36-1.27-12.53-1.92-14.23-2.22-28.95-4.52-43.46-5.48-10.35-.69-21.03.05-31.37.76-4.29.3-8.59.59-12.87.79-1.53.07-3.1.36-5.27.76-1.23.23-2.63.49-4.3.76l-5.13.83,6.25-8.37c1.82-2.44,3.32-4.44,4.8-6.45,13.27-18.1,24.69-38.8,35.93-65.14,5.87-13.74,11.48-24.08,17.66-32.55,14.59-19.98,21.83-40.39,22.13-62.39.01-1.01.18-2.01.51-3.73.18-.94.4-2.13.66-3.71l.69-4.24,12.19,13.18c6.41,6.95,12.36,13.41,18.42,19.76,2.54,2.67,5.2,5.24,7.86,7.81,4.89,4.72,9.94,9.61,14.2,15.07,3.67,4.7,5.72,12.04,4.88,17.46-2.42,15.52-6.29,30.82-9.75,43.73-3.6,13.44-1.82,16.93,3.24,19.29,5.96,2.8,12.63-.91,17.85-9.88,11.03-18.94,20.14-39.93,12.2-65.12l-.76-2.42,2.52-.3c11.53-1.35,23.79-2.31,36.01,1.89,18.42,6.33,34.4,16.02,47.49,28.82,2.39,2.33,5.48,7.57,4.52,11.39-3.73,14.85-7.76,29.89-11.66,44.43-2.97,11.1-5.95,22.21-8.82,33.33-.36,1.38.55,4.28,1.62,5.15,5.33,4.35,11.6,4.74,18.65,1.14,10.82-5.52,18.62-13.8,23.18-24.61,2.97-7.04,5.45-14.47,7.84-21.66,1.76-5.29,3.52-10.57,5.49-15.77,1.35-3.56,4.09-6.99,7.15-8.94,10.7-6.85,20.61-12.73,30.3-17.99,22.55-12.23,52.95-26.54,88.19-28.66,1.93-.12,4.04-1.28,6.48-2.63,1.36-.75,2.79-1.54,4.33-2.24l1.09-.5.98.69c24.67,17.24,54.67,28.31,89.19,32.92,15.81,2.11,32.02,3.55,47.69,4.93,7.11.63,14.23,1.27,21.34,1.96l1.15.12c1.18.12,2.37.23,3.55.31,9.51.6,15.17,3.18,17.86,15.08,4.78,21.16,19.88,36.36,44.87,45.18,6.51,2.3,13.52,3.71,20.3,5.08,4.48.9,9.12,1.84,13.63,3.03,3.02.8,6.92,3.59,7.96,6.72,17.94,53.52,58.94,56.81,90.19,50.13,38.79-8.28,66.46-19.87,89.74-37.57,1.71-1.3,3.64-2.16,5.51-3l1.17-.53c3.51-1.61,7.08-3.12,10.65-4.63,7.21-3.04,14.67-6.19,21.35-10.21,52.11-31.45,90.59-77.41,124.42-122.41,15.59-20.73,32.41-41.05,48.68-60.69l3.91-4.72c12.57-15.18,26.75-23.76,43.37-26.22,4.25-.63,8.17-.74,11.67-.33q12.58,1.5,15.06-11.72l.93-4.93,2.86,4.12c.48.69,1.08,1.37,1.68,2.05,1.61,1.84,3.28,3.74,3.44,6.14.97,14.18,7.08,26.58,18.65,37.9,9.69,9.47,20.27,18.4,30.51,27.03l5.27,4.45c4.31,3.66,7.09,4.24,8.42,4.42,6.22,0,10.99-1.18,12.45-3.08,2.29-2.95,2.51-9.39,1.27-13.32-.93-2.97-4.1-6.36-9.15-9.8-7.6-5.16-15.57-10.11-23.28-14.89-3.91-2.42-7.81-4.85-11.69-7.31-10.36-6.58-16.62-13.92-19.69-23.09-1.24-3.72-2.07-7.99,3.91-11.61,6.18-3.73,9.78-9.19,9.87-14.97.09-5.9-3.43-11.61-9.68-15.66-3.93-2.55-8.66-4.22-13.25-5.84-13.95-4.92-23.09-15.23-27.28-30.69-1.41-5.23-.9-9.8,1.48-13.22,2.48-3.56,6.86-5.72,12.66-6.25l4.37-.36c4.52-.36,9.2-.73,13.63-1.6,5.94-1.17,9.71-3.28,11.52-6.45,1.89-3.31,1.75-7.95-.43-14.19-2.04-5.83-4.18-11.64-6.32-17.45-5.78-15.72-11.76-31.97-15.62-48.49-3.46-14.82-5.27-30.23-7.02-45.13-.97-8.23-1.96-16.74-3.23-25.04-.39-2.55-2.96-6.11-4-6.34-4.17-.51-9.33.65-10.6,2.37-2.7,3.69-4.39,9.46-4.41,15.05-.12,38.28,7.79,73.8,23.5,105.58l1.98,3.98c1.36,2.73,2.71,5.45,4.03,8.2.4.83.29,1.61.2,2.25-.03.21-.07.46-.08.75l-.13,2.18-3.34-.3c-.97-.07-1.91-.14-2.85-.32-16.96-3.19-32.02.61-42.39,10.7-10.47,10.19-14.71,25.35-11.94,42.68,2.89,18.1,8.27,28.25,25.04,47.23l2.05,2.33-2.92,1.05c-.39.14-.75.3-1.1.45-.9.39-1.84.8-2.94.87-19.19,1.35-36.27,8.61-52.22,22.2-27.81,23.71-49.35,45.01-67.78,67.04-12.98,15.5-27.61,30-41.76,44.01l-4.05,4.01c-13.31,13.2-27.01,26.43-40.27,39.23-10.08,9.72-20.16,19.45-30.16,29.26-4.2,4.12-8.22,4.8-13.28,4.86-8.83-.14-16.49,1.2-22.35,3.77-10.54,4.61-21.05,9.85-31.22,14.91-8.08,4.03-16.44,8.19-24.79,12.03l-2.83,1.31c-10.17,4.7-20.69,9.56-31.68,11.67-8.76,1.68-17.64-.81-24.34-6.85-7.27-6.54-11.11-16.41-10.27-26.39.87-10.43-3.86-17.27-13.68-19.76-2.62-.67-5.32-.98-8.17-1.32-3.29-.39-6.7-.79-9.97-1.77-12.75-3.82-27.74-8.49-42.31-14.12-3.61-1.4-6.54-4.1-9.63-6.96-1.41-1.3-2.88-2.66-4.49-3.95l-2.46-1.99,6.17-3.31c1.75-.93,3.07-1.62,4.35-2.38,7.17-4.2,10.39-9.74,9.85-16.95-.57-7.53-4.95-12.8-12.34-14.85-8.3-2.3-17.17-3.38-25.52-4.19-13.74-1.35-27.49-2.58-41.23-3.8-24.51-2.19-49.85-4.45-74.71-7.4-20.19-2.39-39.4-9.02-57.09-19.7-7.58-4.57-16.13-10.44-21.68-22.3l-1.32-2.83,3.12-.16c1.79-.09,3.43-.14,4.99-.17,3.08-.07,5.74-.14,8.24-.6,1.21-.22,2.45-.41,3.7-.6,4.33-.66,8.81-1.34,11.81-3.48,3.63-2.59,5.51-6.38,5.3-10.68-.25-5.15-3.48-9.99-8.62-12.95-6.23-3.58-13.24-6.22-20.01-8.78l-2.35-.89c-29.97-11.39-61.26-25.23-86.99-49.24-3.68-3.44-7.98-7.57-11.86-12.18-4.15-4.92-7.74-11.1-2.95-19.64,3.9-6.96.37-13.66-4.24-17.6-5.21-4.46-11.35-8.15-17.3-11.72l-2.87-1.73c-8.84-5.36-17.72-10.66-26.59-15.97-14.62-8.74-29.73-17.78-44.45-26.91-4.6-2.85-8.51-6.77-12.29-10.57-.97-.98-1.95-1.96-2.93-2.91-3.04-2.96-4.24-6.11-3.38-8.86.48-1.51,2.04-4.16,7.13-4.98l5.9-.98c11.59-1.94,23.6-3.94,35.36-3.54,24.52.87,47.14,10.25,66.41,18.98,11.58,5.24,23.18,10.93,34.39,16.43l10.99,5.38c35.2,17.12,72.97,23.1,115.49,18.31,2.88-.32,6.9-.35,9.66,1.44,32.66,21.05,69.4,22.31,104.23,20.56,9.19-.46,18.54-1.67,27.58-2.83,5.84-.75,11.68-1.5,17.53-2.07,2.59-.24,7.14,1.05,8.38,3.65,5.94,12.4,16.56,20.72,31.56,24.7,14.07,3.75,30.42,7.8,46.45,8.52,15.19.67,30.75-.01,45.8-.68,7.25-.32,14.51-.64,21.76-.82,4.12-.07,6.7.58,8.03,2.16,15.95,18.7,38.31,26.24,59.84,32.35,33.68,9.56,73.66,18.9,114.91,15.77,8.36-.64,15.43-1.77,21.6-3.45,8.25-2.25,13.21-8.24,12.94-15.64-.25-6.78-5.33-13.98-14.57-14.62-3.7-.26-7.41-.54-11.14-.83-18.26-1.4-37.14-2.84-55.3-1.09-36.52,3.51-68.21-1.2-96.88-14.39-5.51-2.53-13.09-6.89-17.87-13.26-10.65-14.19-25.02-16.69-38.96-17.28-19.15-.81-44.34-2.07-69.35-4.64-8.4-.86-16.59-3.78-24.51-6.59l-4.26-1.5c-3.04-1.06-6.15-5.63-5.93-8.75.41-5.99-.66-10.32-3.18-12.86-2.43-2.44-6.47-3.52-12.06-3.15-12.31.78-24.68,2.06-34.08,3.09-54.8,6-98-1.22-135.96-22.73-5.62-3.18-9.86-5.89-13.26-11.79-2.56-4.43-7.55-8.94-13.7-12.38-7.1-3.97-14.55-7.66-21.75-11.23-7.34-3.63-14.92-7.39-22.19-11.47-6.38-3.58-12.79-8.61-19.61-15.38-4.88-4.85-4.64-11.21.64-17.01,5.54-6.1,7.92-11.61,7.08-16.39-.86-4.9-5.16-9.41-12.78-13.42-7.72-4.07-15.71-7.99-23.43-11.79-3.84-1.89-7.69-3.78-11.52-5.69-18.49-9.24-34.35-21.04-47.15-35.05-8.81-9.65-12.16-19.48-9.44-27.69,2.62-7.88,10.69-13.5,22.74-15.81,14.99-2.87,30.96-2.62,44.98.69,27.12,6.41,53.44,15.38,77.84,24.12,35.9,12.86,66.71,16.93,96.93,12.81,9.88-1.35,19.8-4.34,29.4-7.23,3.19-.96,6.38-1.92,9.56-2.83,5.36-1.52,10.67-3.21,15.98-4.9,6.22-1.98,12.66-4.03,19.08-5.76,9.44-2.57,18.83-1.82,27.88,2.21,3.72,1.65,7.92,1.79,11.51.36,3.35-1.33,5.99-3.94,7.41-7.35,10.62-25.37,32.69-31.58,54.95-34.51,19.26-2.54,41.27-2.81,58.51,14.49,2.54,2.55,4.49,8.26,3.09,11.53-14.8,34.65-1.07,74.58,32.65,94.94.68.41,1.32.89,1.92,1.35l1.46,1.08.07.97c.21,1.18.39,2.19-.29,3.13-9.39,12.57-12.38,29.79-8.44,48.47,4.58,21.72,17.96,42.14,33.3,50.79,1.95,1.1,3.89,2.22,5.84,3.34,8.24,4.76,16.77,9.69,25.65,12.83,6.58,2.34,12.57,1.75,16.86-1.62,4.48-3.52,6.63-9.77,5.87-17.13-.2-1.92-.54-3-1.08-3.42-.5-.37-1.53-.45-3-.22-3.05.51-7.07-.5-9.52-2.38l-1.4-1.08c-12.85-9.86-26.15-20.06-38.7-30.76-15.13-12.89-18.57-29.15-9.94-47.03,2.02-4.19,6.06-8.41,10.8-11.28,4.21-2.56,6.72-6.24,6.86-10.11.14-3.67-1.82-7.16-5.54-9.83-1.16-.83-2.49-1.51-3.86-2.19-14.58-7.21-25.32-20.21-29.48-35.69-4.15-15.46-1.37-32.09,7.63-45.63,10.43-15.68,22.77-25.99,37.73-31.53,5.39-1.99,9.67-1.09,14.33,3.02,5.82,5.13,11.88,9.84,18.3,14.82,2.65,2.05,5.32,4.13,8,6.26l2.03,1.61-2,1.65c-17.87,14.8-25.37,35.31-22.27,60.98,3.17,26.29,17.24,41.62,43.04,46.86l3.11.63-3.53,5.18c-1.21,1.79-2.28,3.37-3.4,4.92-10.5,14.56-14.92,30.81-13.14,48.3,3.13,30.77,22.85,49.68,55.52,53.23,8.63.94,14.97,3.25,19.96,11.83,7.17,12.35,19.68,16.1,28.91,17.08,22.73,2.37,44.51-3.07,64.69-16.27,13.58-8.88,20.9-22.54,21.17-39.51.18-11.56-6.11-21.22-15.67-24.05-9.48-2.79-17.68,1.15-25.05,12.09-4.41,6.54-9.74,14.18-15.85,21.25-3.01,3.48-7.49,6.19-13.7,8.29l-4.69,1.59,2.12-4.48c.62-1.3,1.27-2.59,1.91-3.87,1.44-2.85,2.8-5.55,3.8-8.39,2.17-6.13.81-11.84-4.05-16.97-3.03-3.2-5.55-3.69-9.63-1.86-18.12,8.06-55.06-1.91-67.01-18.1-5.45-7.38-6.6-15.65-3.23-23.28,3.13-7.1,7.81-13.7,12.4-19.78,1.57-2.07,3.57-3.73,5.5-5.33,2.02-1.67,3.92-3.24,5.18-5.14,3.58-5.39,5.22-9.81,4.51-12.12-.82-2.67-6.04-5.73-10.41-7.02-5.14-1.52-10.55-2.62-15.78-3.69-6.05-1.23-12.31-2.51-18.3-4.45-9.19-2.98-16.34-10.28-19.61-20.03-3.36-10.04-1.92-20.97,3.86-29.23,1.38-1.98,4.95-3.8,7.33-3.05,5.82,1.8,10.04.17,13.22-5.16,2.62-4.38,4.6-11.03-.83-17.76-3.08-3.83-4.63-7.36-2.84-13.15,2.25-7.26-1.61-13.6-6.12-19.37-2.07-2.65-4.28-5.21-6.5-7.76-4.22-4.89-8.59-9.94-11.93-15.59-6.35-10.75-12.06-22.65-16.97-35.4-4.14-10.75-3.31-22.46,2.52-35.8,3.31-7.56,9.16-12.43,17.38-14.48,6.04-1.5,14.58-2.32,18.85,8.07,1.45,3.53,3.72,6.45,5.78,7.45,3.61,1.75,8.77,3.3,12.43,2.35,3.6-.92,4.08-4.29,3.74-10.59-.22-3.94-.57-7.9-.93-11.87-.93-10.38-1.9-21.11-.29-31.4,5.62-35.91,24.59-59.39,56.39-69.79,18.46-6.03,35.39-8.61,51.72-8.02,20.44.79,42.98,4.99,55.26,30.09,4.76,9.72,13.35,12.97,25.57,9.66,2.85-.77,4.02-1.69,4.17-2.24.05-.18.16-1.19-2.22-3.47-6.59-6.32-4.12-12.14-.48-17.49,18.77-27.57,66.27-42.2,97.7-30.15,28.72,11.01,47.86,32.95,64.27,55.02,2.15,2.89.88,8.42-.43,11.22-3.34,7.14-3.64,14.1-.82,19.61,2.75,5.39,8.38,9.13,15.86,10.55,3.27.62,4.26.05,4.53-.22.46-.45.58-1.6.33-3.16-.64-3.93.67-6.16,1.89-7.34,1.66-1.62,4.17-2.24,6.93-1.73l5.69,1.04c9.53,1.71,19.37,3.48,28.3,7.3,8.36,3.57,11.85,12.27,10.09,25.18-1.56,11.43-7.27,18.84-16.98,22.03-3,.99-6.19,1.26-9.18,1.41-5.71.29-9.35,1.61-10.5,3.82-1.27,2.42.41,6.09,2.06,8.75l.55.9-.39.98c-.99,2.5-2,4.78-2.95,6.93-1.86,4.23-3.47,7.87-4.26,11.61-3.38,15.97-15.31,25.87-31.15,25.87h-.16c-15.36-.07-30.7.05-46.05.16l-6.58.05c-7.92.06-13.7,3.39-17.2,9.9-3.74,6.98-3.31,14.05,1.25,20.44,3.11,4.37,6.41,7.49,9.53,9.02,28.27,13.86,52.27,14.2,73.37,1.07,13.43-8.36,25.47-18.39,34.81-29,13.55-15.42,16.59-31.23,9.03-46.98l-1.1-2.29,25.68-6.81.86.92c1.46,1.56,2.97,3.07,4.47,4.58,3.37,3.38,6.86,6.88,9.66,10.84l.31.44c5.87,8.31,11.94,16.9,15.91,26.34,4.09,9.72,7.09,20.03,9.99,30,.87,2.97,1.73,5.94,2.62,8.89,2.67,8.85,5.18,17.75,7.75,26.84l4,14.09-2.06.55c-10.31,2.77-14.96,11.29-19.89,20.31-2.13,3.91-5.83,7.34-9.89,9.39-8.91,4.49-8.93,9.21-8.17,12.37,1.57,6.54,7.87,7.18,12.89,6.58,16.19-1.95,29.83-13.78,33.94-29.44l2.62-10.09,2.46,1.65c1.23.82,2.45,1.55,3.61,2.25,2.53,1.51,4.92,2.95,6.87,4.95,5.71,5.9,11.61,11.67,17.51,17.44,14.33,14.03,29.15,28.53,41.12,44.83,22.99,31.32,33.85,68.46,32.28,110.38-.72,19.05-12.48,32.24-22.65,41.61-13.47,12.41-25.57,25.12-35.95,37.78-9.82,11.97-10.57,23.76-2.01,31.53,10.43,9.47,22.88,2.53,31.5-4.96,12.73-11.08,26.86-24.95,35.08-43.78.44-1.01,1.06-1.87,1.56-2.56l1.82-2.76,1.84,1.72c1.2,1.12,2.4,2.18,3.59,3.23,2.89,2.54,5.62,4.95,7.95,7.85,2.45,3.06,3.95,7.23,3.82,10.6l-.14,3.56c-.53,14.05-1.08,28.57-2.83,42.76-.51,4.2-.87,8.43-1.24,12.68-1.31,15.4-2.66,31.32-11.55,46.08l-.76,1.27-1.45-.29c-.78-.15-1.61-.35-2.49-.55-1.99-.46-4.25-.99-6.45-1.15-3.45-.27-7.96-.5-12.32.02-9.64,1.15-16.32,6.12-17.85,13.28-1.54,7.17.61,12.75,6.4,16.59,6.15,4.08,14.23,3.19,22.19-2.45,1.67-1.19,3.3-2.42,5.1-3.79l5.73-4.3.51,3.5c.74,5.12,1.41,10.16,2.08,15.16,1.51,11.3,2.93,21.98,5.04,32.67,2.07,10.5,4.81,20.88,7.71,31.88,1.14,4.33,2.31,8.75,3.47,13.3l.49-2.4,2.46,7.57c1.08,3.31,2.19,6.35,3.23,9.22,2.19,6.01,4.07,11.19,4.99,16.72l.74,4.43c4.9,29.4,9.96,59.8,5.03,89.89-5.13,31.32-16.15,58.21-32.73,79.91-2.82,3.68-6.93,6.9-11.28,8.82-5.84,2.56-11.87,4.63-18.25,6.81-2.69.92-5.45,1.87-8.29,2.88l-2.81,1.01Z"></path>
  <path class="cls-1" d="M2796.65,1042.36c-25.62-9.63-56.21-18.5-88.82-11.16l-2.25.51-.3-2.29c-.1-.77-.21-1.47-.31-2.13-.23-1.44-.41-2.71-.44-3.97l-1.72-83.84c-1.17-57.48-2.34-114.97-3.65-172.45-.7-30.87-1.48-61.05-3.34-90.87-1.82-29.32-10.55-47.97-28.29-60.48-15.45-10.89-30.87-21.81-46.2-32.86-.46-.33-4.53-3.36-4.51-6.81.02-3.33-1.12-3.82-5.35-3.92-4-.09-8-.07-11.99-.05l-6.88.02-.53-2.94c-.15-.76-.26-1.34-.3-1.93l-2.84-43.96c-2.05-31.79-4.1-63.59-6.24-95.38-.14-2.16-.35-4.31-.55-6.46-1.02-10.9-2.07-22.18,4.34-33.45,3.75-6.58.21-14.6-5.38-18.54-5.94-4.19-13.67-3.73-19.69,1.19-2.84,2.32-5.35,4.96-8.01,7.76-2.31,2.43-4.71,4.95-7.32,7.21-2.41,2.09-5.2,3.55-7.91,4.97-1.12.58-2.22,1.16-3.27,1.77l-3.44,2.01,1.26-17.36c.8-11.05,1.56-21.48,2.25-31.91.2-2.94.3-5.89.4-8.83.17-4.7.34-9.57.89-14.35.6-5.2,2.36-12.59,10.74-16.7l2.28-1.12.67,2.45c.39,1.41.72,2.78,1.05,4.11.66,2.7,1.29,5.25,2.21,7.6,5.37,13.68,9.98,25.16,14.99,36.69.88,2.03,1.98,3.25,3.27,3.6,1.92.5,4.28-.77,5.93-1.95,6.98-4.99,10.5-11.53,9.94-18.43-1.39-16.94-3.88-34.1-6.28-50.7l-.29-2.02c-.38-2.61-2.14-5.33-3.85-7.96l-.31-.47c-3.83-5.91-8.89-9.46-14.62-10.29-5.71-.81-11.8,1.26-17.15,5.85l-2.14,1.84c-3.29,2.84-6.69,5.78-10.26,8.43-13.44,9.98-20.99,22.72-22.43,37.87l-1.24,12.73c-2.09,21.3-4.24,43.34-4.64,64.99l-.39,19.99c-1.14,56.45-2.32,114.81,4.54,171.98.3,2.44-1.04,5.32-4.2,9.07-2.22,2.63-4.6,5.15-6.98,7.66-4.02,4.25-8.17,8.64-11.32,13.46-2.89,4.42-4.52,9.99-6.1,15.36-.49,1.66-.97,3.32-1.5,4.95-13.44,41.97-20.18,87.6-20.58,139.49-.36,46.38.05,93.55.44,139.18.18,20.41.35,40.82.46,61.23.04,6.89.03,13.77.02,20.7v11.97s-2.35-.26-2.35-.26c-2.6-.3-5.16-.67-7.68-1.04-5.32-.78-10.32-1.55-15.33-1.43l-1.39.02c-24.64.37-50.12.75-75.08,2.43-11.61.78-23.75,3.38-35.1,7.51-5.64,2.05-11.77,7.28-16.01,13.65-1.97,2.97-2.33,6.03-1.02,8.62,1.45,2.86,4.74,4.67,8.82,4.86l3.72.17c13.64.64,27.74,1.29,41.47.43,32-2.01,65.1-4.09,99.68-12.15l2.58-.6v2.65c0,7.58-.06,15.1-.12,22.57-.13,17.12-.25,33.29.28,49.79.74,23.43,1.79,50.63,4.7,77.07,3.39,30.78,16.19,44.49,47.22,50.6,31.42,6.18,66.04,6.66,105.86,1.48,43.87-5.72,62.94-23.68,70.37-66.28,3.86-22.14,6.54-44.9,9.14-66.91.85-7.21,1.7-14.41,2.59-21.61.96-7.72,1.57-15.48,2.21-23.69.3-3.87.62-7.83.97-11.91l.24-2.78,17.76,6.8c10.6,4.04,20.76,7.92,30.86,11.95,36.55,14.61,65.36,29.21,90.66,45.97,24.68,16.35,36.4,38.43,34.82,65.63-2.96,50.83-19.5,94.73-49.16,130.47-23.98,28.9-54.05,54.18-89.36,75.13-42.77,25.39-91.18,43.73-152.36,57.72-125.91,28.79-254.06,28.48-380.91-.92-69.43-16.09-123.45-37.33-170-66.83-26.04-16.5-44.22-32.86-57.24-51.51-24.21-34.7-27.64-71.78-10.18-110.22,8.77-19.31,22.01-36.92,42.93-57.09,48.18-46.45,108.9-76.38,196.87-97.05,2.22-.52,4.48-.5,6.65-.52.94,0,1.88,0,2.81-.04l1.99-.09.2,1.98c.07.64.14,1.15.2,1.58.13.87.23,1.57.12,2.35-4.47,29.9-13.79,57.85-26.4,90.62-.99,2.55-5.48,4.98-8.22,4.49-18.24-3.22-36.26.69-56.72,12.32-19.37,11-30.3,26.14-30.8,42.65-.5,16.64,9.64,32.57,28.53,44.85,24.13,15.67,48.8,23.27,73.3,22.58,27.7-.78,55.94-3.18,83.93-7.12,36.79-5.18,65.5-14.64,90.38-29.77,13.21-8.04,22.84-17.31,29.46-28.34,14.83-24.74,10.86-48.96-10.91-66.47-29.6-23.81-57.12-32.18-86.54-26.34l-2.27.45-1.35-13.19c-.48-4.77-.87-9.55-1.27-14.34-.84-10.15-1.71-20.65-3.35-30.8-7.34-45.32-15.56-105.1-13.94-165.64.18-6.57,1.68-10.49,9.14-12.43,22.43-5.81,42.21-16.59,58.79-32.06,32.87-30.68,59.84-66.6,80.13-106.76,3.16-6.25,5.73-12.99,8.21-19.5l1.48-3.86c1.89-4.91,1.02-8.51-2.65-11.02-3.32-2.28-6.09-1.39-11.01,1.47l-1.52.88c-5.88,3.43-11.96,6.97-18.56,8.17l-7.3,1.34c-15.78,2.92-32.09,5.94-48.24,5.94-37.32,0-70.76-1.52-102.26-4.64-21.66-2.15-43.3-7.38-64.22-12.44l-7.05-1.7c-3.38-.81-8-2.32-9.05-5.98-1.08-3.79,2.24-7.78,5.26-10.84,10.61-10.75,24.41-15.35,37.75-18.71,43.49-10.97,90.2-15.69,147.07-14.89,3.38.05,6.56,1.41,9.64,2.73,1.31.56,2.63,1.13,3.95,1.57l1.59.54-.04.42c3.71-2.05,5.67-4.29,4.91-7.7-.85-3.8-4.41-8.37-7.95-10.17-6.54-3.34-13.99-4.53-19.08-4.95-34.9-2.84-70.98-1.63-110.27,3.73-29.88,4.08-60.89,11.22-85.26,35.63l-2,2-1.34-2.49c-3.07-5.68-6.81-8.87-10.82-9.21-.24-.02-.48-.03-.73-.03-3.62,0-7.36,2.32-10.86,6.75-2.66,3.38-5.07,7.62-7.58,13.35-9.87,22.57-11.56,47.52-5.18,76.29,11.64,52.42,43.37,90.29,94.3,112.58,3.28,1.43,7.15,4.14,8.18,7.41,2.42,7.6,3.64,14.18,3.75,20.1.53,28.87.7,58.22.86,86.6l.08,13.94c.01,1.83-.51,3.57-.81,4.6l-.48,2.05-1.56.14c-4.02.34-7.98.54-11.88.73-8.2.41-15.94.79-23.37,2.48-67.11,15.25-123.69,40.99-172.96,78.69-35.63,27.26-61.37,56.68-78.68,89.94-25.92,49.78-23.22,99.17,8.02,146.8,13.96,21.29,32.8,39.92,59.28,58.66,41.59,29.42,91,52.07,151.06,69.26,71.44,20.45,148.06,32.49,227.72,35.77,99.94,4.12,185.99-5.53,263.01-29.48,83.64-26.01,145.32-61.15,194.1-110.59,46.78-47.42,74.97-98.16,86.17-155.14,8.82-44.93,4.07-105.08-68.68-136.53-23.72-10.25-43.18-18.19-61.23-24.98ZM2506.01,772.88c.8-10.78,1.47-21.58,2.15-32.37.99-15.77,2.01-32.08,3.41-48.1,1.12-12.82,2.98-25.76,4.78-38.27.71-4.93,1.42-9.86,2.09-14.8.95-6.98,4.43-11.12,10.97-13.03,6.21-1.82,9.7-6.23,10.11-12.76.42-6.85-2.65-11.83-8.89-14.4-6.59-2.71-6.72-6.78-6.21-11.83,4.97-48.77,3.35-98.71,1.28-145.69l-1.2-25.99,25.58,2.86v6.01c0,2.83.01,5.51,0,8.19-.28,46.5,5.93,92.96,12.68,136.24,1.77,11.36,6.74,16.62,16.11,17.04,2.21.1,4,2.01,5.5,3.79,1.71,2.01,3.3,4.17,4.9,6.34,3.14,4.27,6.11,8.31,9.93,11.17,13.33,10,24.56,17.06,35.32,22.22,16.94,8.13,25.25,19.74,26.15,36.54,1.2,22.51,2.45,45.03,3.7,67.54l1.78,32.31-4.61,2.14-1.04-1.1c-5.8-6.18-10.84-4.34-18.46-.59-25.79,12.73-54.5,19.14-85.53,19.14-5.41,0-10.89-.19-16.44-.58-2.44-.17-4.88-.37-7.33-.58-5.66-.46-11.52-.94-17.26-1.04-2.28-.04-5.55-.34-7.59-2.56-2.04-2.23-2.05-5.55-1.88-7.84ZM2663.67,1159.23c-5.42,33.83-12.3,40.35-45.99,43.64-8.69.85-17.33,1.21-25.9,1.21-25.79,0-50.88-3.33-74.75-6.88-12.55-1.87-14.19-10.78-14.33-17.32l-1.28-59.57c-.89-41.04-1.78-82.07-2.61-123.11-.08-3.77.18-7.51.46-11.47.13-1.89.27-3.83.37-5.85l.15-2.86,2.68,1c.76.28,1.4.5,1.96.69,1.17.39,2.05.7,2.84,1.14,15.65,8.68,33.12,11.3,51.96,7.83l3.88-.72c13.09-2.41,26.63-4.9,39.44-8.79,7.44-2.25,14.46-8.02,19.11-12.16,1.98-1.77,3.33-7.2,2.38-9.53-.87-2.12-5.55-4.76-8.65-4.87-18.43-.67-37.2-1.01-55.35-1.33-9.72-.18-19.44-.35-29.16-.58-7.15-.17-14.7-.68-22.44-1.52-5.81-.63-8.65-3.78-8.42-9.35,1.14-28.38,2.16-56.77,3.19-85.16l1.36-37.68c.03-.89.24-1.68.5-2.67.13-.49.28-1.06.44-1.75l.44-1.95,1.97.34c53,9.19,108.53,14.18,153.84-33.02l3.29-3.43.32,4.75c.27,4.05.58,8.1.89,12.13.64,8.47,1.31,17.24,1.61,25.87.54,15.82,1.1,31.64,1.68,47.47,1.75,48.77,3.56,99.19,4.46,148.82.88,49.03-2.59,98.39-10.33,146.71ZM2152.45,728.65c-.01-.6.08-1.2.25-2.14l.81-5.16,2.82,2.15c23.06,17.57,50.25,20.32,76.56,22.97l7.82.81c59.97,6.38,113.53,4.41,163.74-6.02.84-.18,1.63-.06,2.32.04.25.04.53.08.81.1l2.1.17-.18,2.1c-.02.21-.01.43,0,.64.01.74.02,1.75-.6,2.65-17.56,24.96-36.86,51.06-62.68,71.73-24.92,19.95-49.41,29.74-74.52,29.74-3.61,0-7.22-.2-10.86-.6-55.48-6.15-107.14-62.95-108.39-119.18ZM2248.22,984.03l.4-6.03c1.84-27.63,3.75-56.21-3.36-84.17l-.51-1.98,1.96-.56c3.79-1.09,7.39-1.9,9.9.12,1.75,1.41,2.49,3.89,2.24,7.59-3.02,45.8,1.15,92.14,5.18,136.95.83,9.23,1.66,18.46,2.43,27.68,2.01,24.1,6.17,48.48,10.2,72.05,1.23,7.2,2.46,14.4,3.63,21.6.97,5.97,3.27,12.59,6.83,19.66,1.42,2.81,5.29,5.94,7.09,5.87,1.19-.04,4.36-3.41,5.64-6.93,1.37-3.75,2.01-7.85,2.69-12.18.3-1.91.6-3.85.98-5.82l.39-2.02,2.03.34c18.95,3.2,35.63,12.23,54.1,29.3,2.67,2.47,5.35,5.43,4.91,8.7-.44,3.21-3.6,5.25-6.64,6.83-10.26,5.3-21.38,10.71-33.18,14.37-38.68,11.99-76.76,18.04-113.54,18.04-8.43,0-16.78-.32-25.05-.95-9.61-.73-19-4.4-28.08-7.95-2.44-.95-4.86-1.9-7.28-2.79-3.2-1.17-5.85-3.38-8.64-5.71-1.25-1.04-2.55-2.12-3.95-3.15l-1.77-1.29,1.37-1.71c10.22-12.82,23.01-18.93,39.06-24.16l3.82-1.24-1.16,3.85c-.46,1.52-.94,2.89-1.38,4.15-.85,2.44-1.53,4.36-1.61,6.18-.08,1.79.49,3.73,1.09,5.78l.18.64.86-.3c2.19-.75,4.25-1.45,5.7-2.67,1.63-1.36,2.82-3.49,4.07-5.73.43-.76.85-1.52,1.29-2.26l.63-1.05c3.22-5.38,6.56-10.95,14.54-12.9,3.47-.85,4.3-3.56,3.19-10.36-.56-3.44-1.19-7.27.25-10.22,28.57-58.78,36-121.75,39.51-175.59Z"></path>
  <path class="cls-1" d="M1468.65,274.1c-3.42,1.78-6.8,3.85-10.08,5.86-2.1,1.29-4.21,2.58-6.34,3.82-4.13,2.39-7.29,3.98-10.26,3.13-2.74-.8-4.55-3.41-6.93-7.96-17.8-33.97-16.68-63.95,3.43-91.67,7.49-10.33,15.94-14.94,27.04-14.78,1.76-.07,4.71-1.1,5.16-1.76.48-1.6-.26-4.85-1.57-6.42-7.95-9.65-18.29-11.39-23.76-11.57h-.14c-13.59,0-27.21,5.72-38.37,16.12-18.92,17.62-29.8,42.87-29.83,69.28-.04,26.27,10.69,51.38,29.42,68.92,4.96,4.65,11.1,8.68,17.27,11.35,16.04,6.93,30.34,1.78,38.27-13.81,4.21-8.27,7.58-17.2,10.84-25.84l.44-1.16c.44-1.16-.06-3.52-.58-3.99-.51-.3-2.72-.18-4.02.5Z"></path>
  <path class="cls-1" d="M1576.15,291.52c-4.24-3.7-9.58-5.32-14.32-4.34-3.52.73-6.28,2.86-7.77,6-1.29,2.71-1.73,5.93-2.07,8.51-.12.9-.23,1.72-.36,2.4,1.53,15.76-3.2,26.6-15.31,35.1-10.96,7.7-21.77,16.71-32.13,26.77-8.76,8.5-10.92,17.12-6.42,25.62,4.51,8.5,12.32,11.81,25.4,10.78,2.03-.16,4.12-.65,5.92-1.1,38.94-9.67,62.32-41.61,59.58-81.37-.86-12.49-4.95-21.77-12.52-28.37Z"></path>
  <path class="cls-1" d="M1928.76,497.01c-.66-2.02-.93-4.1-1.2-6.1-.12-.87-.23-1.74-.38-2.6l-.05-.3.04-.3c.72-5.88-.75-11.18-4.14-14.92-3.41-3.78-8.52-5.85-14.53-5.64-9.86.22-17.43,4.67-22.49,13.23-1.03,1.74-1.83,3.64-2.67,5.64-.93,2.19-1.89,4.47-3.19,6.57-.37.6-3.78,5.9-7.83,6.08-16.4.71-22.91,12.54-29.81,25.06l-1.42,2.57c-2.71,4.87-2.02,10.25,1.89,14.76,3.41,3.94,7.69,4.91,14.77,3.37.72-.16,1.55-.24,2.42-.24,2.56,0,5.53.72,7.5,2.37,10.55,8.89,22.64,10.7,35.93,5.39,20.33-8.13,32.08-33.79,25.16-54.92Z"></path>
  <path class="cls-1" d="M582.71,997.46c6.04,9.56,7.85,20.36,5.53,32.99-.68,3.68-1.74,7.3-2.76,10.81-.39,1.34-.78,2.67-1.15,4.01-1.39,5.06-2.81,10.11-4.21,15.16-2.88,10.3-5.76,20.6-8.47,30.94-2.46,9.41,0,16.72,6.9,20.59,6.7,3.75,15.08,1.93,21.34-4.63,3.03-3.18,5.87-7.16,8.43-11.83,8.88-16.23,13.72-33.93,14.78-54.11-.55-3.45-1.04-6.92-1.53-10.39-1.11-7.85-2.26-15.96-4.15-23.7-2.87-11.69-9.22-20.22-18.89-25.35-3.18-1.68-5.98-2.53-8.5-2.53-2.85,0-5.32,1.08-7.53,3.25-3.95,3.88-3.89,8.3.21,14.8Z"></path>
  <path class="cls-1" d="M1650.66,145.89c2.92,1.01,5.69,1.97,8.54,2.48,5.69,1.02,10.84-.26,14.13-3.53,2.92-2.91,4.07-7.16,3.23-11.96-1.22-6.91-5.22-14.44-10.21-19.19-11.63-11.08-26.3-16.78-43.6-16.93h-.21c-14,0-26.4,4.36-36.87,12.97-3.68,3.03-7.01,7.71-9.36,13.18-2.01,4.7-.61,9.6,3.84,13.45,3.52,3.04,6.97,2.36,12.75.88,6.23-1.6,11.62-2.38,16.39-2.38,2.26,0,4.38.18,6.39.53,7.47,1.3,14.78,3.78,21.85,6.18,2.98,1.01,5.96,2.02,8.95,2.95,1.4.43,2.78.91,4.17,1.39Z"></path>
  <path class="cls-1" d="M1753.29,843.04c18.66,11.88,40.03,15.56,69.3,11.89,2.31-.29,4.77-1.52,6.65-2.57,7.31-4.04,10.58-9.22,9.99-15.82-.81-9.04-8.05-11.74-12.29-12.55-13.32-2.54-26.95-4.75-40.13-6.88-4.76-.77-9.52-1.54-14.28-2.33l-.23,1.01-1.43.21c-2.05.3-4.13.53-6.2.76-4.41.49-8.97.99-13.18,2.16-3.67,1.02-6.33,3.29-7.5,6.38-1.19,3.14-.64,6.82,1.5,10.08,1.93,2.95,4.77,5.74,7.8,7.67Z"></path>
  <path class="cls-1" d="M1738.18,411.79c-1.7,0-3.55.38-5.49,1.15-5.23,2.07-9.99,5.2-15.02,8.52-2.57,1.69-5.13,3.38-7.76,4.93-2.59,1.52-5.23,2.96-7.86,4.41-3.71,2.03-7.55,4.14-11.15,6.41-4.05,2.56-6.17,4.44-6.28,5.58-.3,3.05,1.37,7.56,3.3,8.93,2.86,2.04,6.56,3.2,10.48,4.42,1.58.49,3.2.99,4.81,1.57,2.53-.74,5.08-1.4,7.62-2.05,6.12-1.57,11.91-3.06,17.2-5.64,11.78-5.75,18.34-14.08,19.49-24.75.55-5.18-.83-9.46-3.81-11.73-1.53-1.16-3.41-1.75-5.52-1.75Z"></path>
  <path class="cls-1" d="M1868.52,461.11c1.66-.43,3.38-1.79,5.04-3.11l.89-.71c4.66-3.62,7.42-9.44,7.4-15.58-.02-5.79-2.51-11-6.84-14.31-2.65-2.03-8.1-2.93-10.83-1.79-1.22.51-2.95,3.64-4.04,9.46-.24,1.26.18,2.85.64,4.54.45,1.68.91,3.42.86,5.25,0,.36-.28,8.82-4.12,9.99l-1.31.42c-3.91,1.3-10.48,3.46-13.95-4.49-1.58-3.61-4.96-7.21-9.38-5.48-3.26,1.29-6.15,4.99-8.7,8.26l-.62.78c-.44.55-.52,2.05-.61,3.63-.06,1.03-.13,2.16-.29,3.38.2.82.38,1.73.57,2.7.52,2.62,1.1,5.58,2.33,8.16,2.64,5.56,7.48,9.08,12.94,9.42,5.18.35,9.86-2.24,12.92-7.03,4.88-7.63,9.99-11.67,17.1-13.49Z"></path>
  <path class="cls-1" d="M2572.45,909.18c-.45-.07-.9-.11-1.34-.11-2.02,0-3.91.72-5.33,2.05-1.49,1.4-2.25,3.29-2.08,5.18.42,4.7,3.02,7.07,8.92,8.11l3.91-1.45c4.5-1.65,9.15-3.35,13.56-5.33.07-.81,0-2.14-.15-2.88-5.66-2.32-11.51-4.65-17.49-5.58Z"></path>
</svg>