<?xml version="1.0"?>
<svg id="Layer_1" data-name="Layer 1" xmlns="http://www.w3.org/2000/svg" viewBox="0 0 1061.83 1153.69">
  <defs>
    
  </defs>
  <path class="cls-1" d="M482.46,441c5.96,1.32,10.93,2.42,15.66,3.47,1.4-1.47,3.06-2.42,3.46-3.74,13.73-46.33,28.95-92.3,40.51-139.16,11.51-46.65,25.51-92.17,43.98-136.51,4.8-11.53,3.22-25.65,7.74-37.36,13.25-34.37,28.12-68.11,42.27-102.13,1.31-3.16,2.62-6.56,2.79-9.9.55-10.49,5.3-16.19,16.22-15.61,12.29.65,22.21,8.56,22.07,20.81-.19,16.3-2.95,32.57-4.63,48.86-.62,5.99-1.95,11.97-1.88,17.94.28,21.41.56,42.84,1.68,64.22,2.72,51.83-6.02,102.81-10.79,154.08-1.51,16.29-2.6,32.65-4.9,48.83-3.49,24.61-7.87,49.09-12.67,78.53,13.58-11.66,24.88-20.45,35.08-30.39,8.45-8.24,15.59-17.82,23.33-26.79,6.21-7.2,13.63-13.67,18.47-21.7,17.11-28.33,44.5-45.57,69.33-65.43,14.56-11.64,31.06-20.81,46.16-31.83,11.01-8.03,22.98-9.48,34.1-3.61,10.92,5.77,13.84,17.38,10.57,29.19-4.06,14.67-7.78,29.72-14.24,43.39-9.13,19.31-21.77,36.96-30.9,56.27-23.51,49.74-60.41,89.94-92.7,133.46-15.25,20.55-29.6,41.77-47.27,66.81,113.49-5.34,223.25-2.01,332.36,3.22q6.51,26.56-13.82,34.35c-69.26,26.42-138.66,52.48-207.72,79.42-20.78,8.11-40.62,18.63-64.03,29.5,51.42,40.28,106.68,70.13,158.72,104.6,52.42,34.71,107.22,65.81,160.42,98.15-6.67,25.58-12.81,28.18-34.28,20.37-79.41-28.88-159.11-56.97-238.58-85.7-37.28-13.48-74.28-27.74-111.41-41.65-4.74-1.78-9.46-3.6-18.78-7.14,5.54,23.12,10.65,42.61,14.84,62.3,10.41,48.93,19.97,98.04,30.72,146.89,6.3,28.63,14.18,56.91,21.49,85.31.85,3.31,3.06,6.28,3.9,9.59,2.51,9.91,7.23,20.48-3.75,28.38-8.54,6.14-23.43,3.94-33.16-6.29-12.49-13.13-24.8-26.73-35.17-41.53-51.22-73.11-92.55-151.83-129.66-232.84-6.42-14.01-11.4-28.69-18.11-45.77-4.51,5.66-8.39,8.94-10.26,13.12-19.02,42.35-38.09,84.67-56.4,127.33-21.4,49.86-42.05,100.05-62.98,150.11-1.32,3.15-2.13,6.51-3.22,9.76-9.76,29.08-16.35,32.45-50.39,24.11-6.5-60.95,5.99-120.99,19-180.05,13.09-59.38,33.21-117.2,50.96-178.14-15.65,6.41-31.32,12.2-46.45,19.15-47.1,21.63-94.44,42.81-140.82,65.91-33.03,16.45-64.52,35.97-97,53.55-12.59,6.81-24.11,15.75-40.62,13.72-28.48-3.49-38.84-22.09-23.73-46.68,5.4-8.79,11.83-17.26,19.14-24.51,15.95-15.83,31.35-32.78,49.51-45.7,47.84-34.05,97.15-66.01,145.61-99.19,18.14-12.42,35.54-25.93,58.79-42.99-38.33-5.22-70.48-10.06-102.74-13.88-40.28-4.78-80.67-8.62-120.98-13.09-21.44-2.38-42.85-5.06-64.21-7.99-5.86-.8-11.66-2.62-17.25-4.62-11.28-4.03-17.45-13.9-15.49-24.18,1.51-7.92,8.7-17.98,15.89-20.91,14.94-6.1,31.38-9.57,47.52-11.55,61.83-7.57,123.81-13.71,186.27-12.1,6.53.17,13.08-.81,21.23-6.06-19.96-14.27-40-28.41-59.84-42.84-18.15-13.2-36.87-25.76-53.89-40.31-20.99-17.94-40.9-37.21-60.44-56.74-11-11-20.42-23.51-20.85-40.48-.56-21.83,17.23-36.7,37.36-27.95,39.46,17.14,78,36.41,116.74,55.18,27.86,13.5,55.06,28.41,83.29,41.05,11.9,5.33,19.51,21.16,38.74,14.73-5.97-33.31-11.62-67.05-18.13-100.63-13.25-68.31-28.23-136.43-27.03-206.55.51-29.91,3.51-59.76,4.96-89.66.67-13.76,8.5-23.06,19.45-28.49,5.88-2.92,16.66-3.42,21.38.12,17.22,12.9,31.37,27.77,36.27,51.17,9.86,47.12,21.65,93.9,34.67,140.26,13.7,48.79,30.1,96.82,44.59,145.4,5.66,18.98,9.35,38.54,13.92,57.76ZM819.22,325.49c-1.41-1.43-2.82-2.86-4.23-4.3-9.33,7.47-19.65,14-27.82,22.58-26.67,27.99-52.49,56.79-78.77,85.16-12.3,13.28-24.25,26.99-37.53,39.25-18.9,17.44-38.82,33.79-58.43,50.45-4.58,3.89-9.4,7.68-14.61,10.61-13.33,7.47-24.99,3.67-31.9-9.84-10.2-19.93-5-40.66,14.74-60.31,4.63-4.61,10.63-9.42,12.24-15.19,7.2-25.77,14.72-51.65,19-78,8.42-51.81,15.16-103.91,21.69-156.01,1.75-13.97.26-28.36.26-42.55-5.04,1.56-6.91,4.01-7.74,6.77-9.92,32.94-20.36,65.74-29.28,98.95-7.38,27.48-12.32,55.6-19.42,83.16-8.36,32.45-17.8,64.63-26.93,96.88-8.18,28.91-14.88,58.26-33.3,83.33-9.57,13.02-20.91,19.41-35.45,12.75-17.07-7.82-34.24-16.86-31.39-40.77.5-4.21.44-8.76-.6-12.83-12.16-47.46-23.74-95.08-37.12-142.2-16.5-58.12-34.7-115.76-51.79-173.72-2.9-9.84-3.97-20.21-5.88-30.34-1.89.2-3.78.4-5.67.6.97,26.11-.14,52.51,3.41,78.27,5.39,39.11,14.48,77.69,21.16,116.64,10.12,59.08,19.7,118.26,29.11,177.46,2.74,17.22-1.01,22.41-21.08,31.74-5.09-6.42-10.25-13.8-16.32-20.33-5.17-5.55-10.66-11.6-17.27-14.88-50.2-24.97-100.69-49.36-151.14-73.81-8.16-3.95-16.62-7.3-24.94-10.92-1.14,1.77-2.29,3.53-3.43,5.3,9.01,8.54,17.14,18.33,27.18,25.41,38.12,26.88,76.82,52.92,115.37,79.18,15.58,10.61,31,21.53,47.12,31.26,8.69,5.24,12.38,11.59,10.66,21.25-1.79,10.1-6.34,18.62-17.4,20-17.94,2.24-35.99,4.06-54.05,4.86-23.99,1.07-48.03.99-72.06,1.41,45.33,8.73,90.45,15.36,135.51,22.37,6.73,1.05,13.52,3.14,19.71,6,18.27,8.44,20.97,23.5,5.9,36.59-15.41,13.39-31.43,26.21-48.11,37.97-39.47,27.82-79.52,54.83-119.24,82.31-3.31,2.29-5.87,5.67-9.61,9.38,51.73-22.74,101.04-45.47,151.24-66.04,27.08-11.09,53.22-29.5,88.99-16.34,9.5,9.86,11.84,22.99,4.27,41.16-17.82,42.76-33.4,86.48-48.76,130.2-5.75,16.38-8.4,33.85-13.14,53.7,5.89-2.82,8.35-3.17,8.84-4.35,16.19-38.56,31.44-77.54,48.51-115.71,9.48-21.19,20.76-41.84,33.52-61.22,7.73-11.73,19.85-20.57,29.7-30.41,9.03,2.9,16.16,5.19,18.54,5.96,9.39,21.72,17.03,39.37,24.65,57.04,1.36,3.16,2.5,6.42,3.96,9.53,27.45,58.71,54.81,117.45,82.59,176.01,2.9,6.11,8.27,11.05,12.5,16.54-1.04-27.56-5.95-52.74-11.92-77.67-9.86-41.18-21.13-82.03-30.34-123.35-4.16-18.69-2.64-37.65,12.1-53.85,19.37,5.68,38.34,11.16,57.25,16.82,14.67,4.39,33.37,1.52,38.72,22.88.78,3.13,8.79,4.64,13.61,6.52,14.49,5.66,28.97,11.37,43.62,16.6,14.34,5.13,28.88,9.7,43.34,14.51-32.47-25.15-65.67-47.8-98.14-71.46-16.64-12.13-34.51-23.83-41.98-44.66-6.08-16.96,1.04-25.73,19.19-25.26,5.71.15,11.88-.17,17.12-2.17,47.54-18.09,94.99-36.43,142.31-55.09,11.77-4.64,25.06-7.04,37.47-20.2-87.24,3.63-170.04,6.99-252.84,10.6-18.84.82-28.19-11.45-20.9-29.03,2.29-5.51,5.97-10.56,9.56-15.4,12.84-17.32,25.91-34.48,38.91-51.69,38.36-50.78,75.63-102.43,115.68-151.83,13.83-17.06,21.56-35.8,31.29-54.21Z"></path>
</svg>