<?xml version="1.0"?>
<svg fill="#C2C3B0" id="Layer_1" data-name="Layer 1" xmlns="http://www.w3.org/2000/svg" viewBox="0 0 784.76 932.74">
  <defs>
    
  </defs>
  <path class="cls-1" d="M628.73,503.72c-23.44,4.49-46.8,9.45-70.33,13.36-38.2,6.34-53.57,29.31-59.44,68.18-5.88,38.9-10.58,78.28-4.68,118.05,1.43,9.65-.41,19.76-.84,29.66-.51,11.69-2.37,23.46-1.48,35.04,3.04,39.65,10.72,79.26-.76,118.7-.82,2.82-.35,6.01-1.12,8.86-5.01,18.47-23.5,36.52-38.3,37.14-21.87.92-31.14-13.28-38.73-31.12-12.27-28.83-7.4-58.87-8.86-88.46-1.66-33.64-2.47-67.31-3.98-100.96-1.39-30.82-2.77-61.65-5.05-92.42-1.09-14.7-2.45-29.88-7.3-43.59-2.24-6.31-12.68-12.37-20.26-13.79-41.89-7.84-84.02-14.4-126.15-20.9-7.53-1.16-15.46-.49-23.11.26-14.8,1.46-29.86,6.59-44.21,4.84-39.51-4.82-79.1-.89-118.34-4.2-17.25-1.45-35.05-11.37-50.1-21.27-12.14-7.98-3.35-44.46,12.96-52.92,14.73-7.63,31.07-12.95,47.31-16.76,22.16-5.2,44.77-9.2,67.43-11.48,18.59-1.87,37.67-2.02,56.28-.18,31.79,3.14,54.75-15.62,78.86-29.99,19.35-11.53,34.59-29.83,53.85-41.55,14.36-8.74,21.09-20.39,25.27-34.86,13.21-45.66,26.23-91.38,38.79-137.23,1.77-6.44,1.08-13.73.7-20.58-2.08-37.38-5.34-74.74-6.21-112.14-.34-14.44,4.37-29,7.11-43.44C391.42,2.02,406.78.82,420.14.04c13.7-.8,20.8,10.21,25.97,21.6,1.22,2.69,1.77,5.75,2.24,8.69,7.59,46.88,15.06,93.78,22.67,140.65,5.73,35.31,11.92,70.55,17.29,105.9,2.52,16.63,3.17,33.53,5.41,50.21,4.27,31.79,19.09,48.77,51.37,49.9,49.31,1.71,95.99,15.69,143.69,25.31,18.41,3.71,37.68,2.83,56.52,4.52,32.25,2.91,50.45,39.7,32.2,65.95-3.53,5.08-10.66,8.37-16.81,10.74-7.26,2.81-15.21,4.06-22.97,5.4-36.09,6.23-72.22,12.25-108.34,18.35-.22-1.18-.44-2.37-.66-3.55ZM484.13,454.11c-24.06-21.36-46.76-41.5-68.7-60.97-25.18,25.74-51.35,52.48-77.86,79.58,33.08,8.18,65.2,16.12,97.89,24.2,15.66-13.77,32.54-28.61,48.68-42.81Z"></path>
  <path class="cls-1" d="M153.6,809.3c2.42-10.49,2.26-23.56,8.19-32.6,12.93-19.73,28.86-37.5,43.78-55.89,6.08-7.49,13.32-14.09,19.06-21.81,18.13-24.41,40.26-43.11,69.52-53.27,13.78-4.79,23.14-.49,31.02,10.39,7.4,10.21,3.17,17.78-4.17,26.25-11.66,13.45-21.86,28.18-32.76,42.3-3.02,3.92-5.58,9.38-9.65,11.12-31.46,13.49-45,45.45-69.23,66.53-23.26,20.24-23.57,22.72-55.76,6.98Z"></path>
  <path class="cls-1" d="M72,124.6c36.92,17.77,59.41,46.72,82.93,74.68,4.28,5.09,10.18,9.31,16.11,12.46,20.01,10.65,20.2,33.6,30.91,49.96,1.7,2.59-8.33,13.45-13.73,19.8-6.02,7.08-13.33,7.2-21.2,1.93-35.3-23.63-71.44-46.26-100.68-77.6-9.35-10.02-17.47-21.5-24.44-33.31-6.49-11-.87-28.6,10.44-36.61,6.22-4.4,13.24-7.67,19.67-11.31Z"></path>
  <path class="cls-1" d="M581.84,606.33c14.31,3.38,30.73,2.21,39.44,25.34,5.34,14.17,25.7,23.12,39.89,33.63,13.56,10.04,27.87,19.06,41.86,28.53,9.62,6.51,20.19,16.1,13.35,26.5-6.18,9.4-19.63,14.49-30.66,19.89-3.44,1.68-9.9-.91-14.21-3.09-22.86-11.55-48.47-14.76-69.18-34.62-14.46-13.87-33.78-23.68-45.54-41.42-14.94-22.53-2.25-53.03,25.04-54.76Z"></path>
  <path class="cls-1" d="M574.16,222.35c6.04-12.71,9.61-24.14,16.21-33.4,28.05-39.34,57.1-77.95,85.52-117.02,6.71-9.23,14.59-19.78,26.12-13.14,9.4,5.41,17.34,15.96,13.91,29.83-4,16.19-6.35,32.33-17.47,46.43-23.16,29.36-44.5,60.15-66.72,90.27-3.49,4.73-6.79,10.49-11.64,13.11-8.2,4.43-19.44,11.4-25.98,8.75-8.14-3.3-12.81-15.29-19.96-24.83Z"></path>
</svg>