<?xml version="1.0"?>
<svg id="Layer_1" data-name="Layer 1" xmlns="http://www.w3.org/2000/svg" viewBox="0 0 849.07 1096.66">
  <defs>
    
  </defs>
  <path class="cls-1" d="M161.04,523.01c27.45-.81,56.74,3.16,80.42-13.37,19.41-13.54,36.71-30.7,52.88-48.16,34.8-37.59,49.02-85.52,61.1-133.54,8.65-34.38,16.53-69.6,18.69-104.82,2.93-47.62,15.34-94.55,10.52-142.71-.7-7-.41-14.4,1.06-21.26,3.57-16.59,19.44-28.22,35.1-26.74,19.53,1.84,32.46,13.09,34.56,30.68,4.1,34.39,7.44,68.88,12,103.21,6.85,51.6,14.59,103.09,21.72,154.65,2.3,16.62,6.12,33.46,5.26,49.99-1.26,24.24,9.24,45.09,16.8,66.25,5.99,16.75,17.78,32.62,37.71,38.18,32.63,9.11,65.71,13.97,99.69,14.43,17.55.24,35.05,4.08,52.57,6.37,2.63.34,5.4.72,7.78,1.79,17.16,7.68,25.54,32.06,21.3,61.47-3.1,21.51-15.64,35.7-35.49,37.53-21.92,2.02-44.04,1.93-65.99,3.67-27.43,2.17-54.79,5.23-82.17,7.97-29.83,2.99-52.51,24.57-54.25,52.93-2.44,39.81-4.94,79.64-5.77,119.5-1.63,78.26-2.02,156.55-3.15,234.83-.4,27.44-7.9,52.24-29.29,71.11-17.86,15.76-38.69,11.86-51.21-8.54-7.41-12.08-9.78-24.3-7.46-38.24,6.61-39.66,3.64-79.53,2.31-119.43-.76-22.86,1.86-45.82,1.75-68.73-.08-15.95-3.4-31.91-3.17-47.83.53-37.25,2.45-74.48,3.49-111.73.2-7.07-.93-14.21-1.72-21.28-1.39-12.34-8.26-19.42-20.77-20.31-51.26-3.64-102.55-6.99-153.8-10.8-28.13-2.09-56.39-3.69-84.23-7.92-10.55-1.6-20.22-9.72-30-15.37-3.65-2.11-6.86-8.46-9.64-8.09-27.58,3.67-27.79-21.07-35.86-35.67-6.91-12.51,1.11-25.53,12.71-31.48,13.91-7.14,29.41-11.9,44.75-15.31,12.87-2.86,26.5-2.29,39.8-3.24ZM325.5,566.96c35.72,4.56,65.9,8.41,98.32,12.55,14.35-12.74,31.27-27.76,45.24-40.16-20.24-38.78-39.45-75.58-60.87-116.6-12.95,56.39-40.01,102-82.69,144.21Z"></path>
  <path class="cls-1" d="M587.99,202.72c6.65-9.89,11.86-21.27,20.2-29.41,44.46-43.33,89.99-85.55,134.55-128.77,22.05-21.39,43.85-18.33,58.03,10.05,2.4,4.79,4.02,11.81,2.39,15.98-6.43,16.38-13.82,32.32-21.73,47.89-26.23,51.69-72.89,83.77-114.22,120.81-10.28,9.21-23.19,21.7-40.2,10.21-15.52-10.48-36.92-18.9-39.03-46.76Z"></path>
  <path class="cls-1" d="M613.5,806.03c6.3-10.93,14.8-29.39,16.76-28.51,22.84,10.35,46.51-8.33,70.95,19.57,40.01,45.69,87.24,85.25,131.97,126.78,13.84,12.85,19.73,25.28,13.29,41.9-7.51,19.39-26.08,26.56-44.37,13.02-32.89-24.35-64.96-50.03-96.52-76.26-25.23-20.97-49.73-43.01-73.38-65.83-7.69-7.42-11.66-18.8-18.69-30.67Z"></path>
  <path class="cls-1" d="M126.25,66.82c30.06,4.42,57.72,37.46,50.14,64.57-3.12,11.16-16.15,20.53-27.44,25.45-6.57,2.86-22.55-1.76-27.56-8.09-22.38-28.27-54.69-40.13-81.95-59.97C6.14,64.54-2.06,34.59,21.31,6.61,25.21,1.95,35.45-1.5,41.2.66c22.43,8.39,45.34,17.21,65.77,30.15,8.79,5.57,11.95,21.58,19.28,36.02Z"></path>
  <path class="cls-1" d="M0,886.98c7.45-22.48,23.28-35.19,45.12-43.68,25.46-9.89,48.59-24.51,73.65-35.32,18.47-7.96,38.93-3.23,58,6.57,17.23,8.86,20.77,23.05,8.47,35.19-7.89,7.78-18.97,12.32-28.75,18.11-16.06,9.49-32.25,18.78-48.33,28.23-17.04,10.02-33.08,21.93-51.24,29.81-25.9,11.23-42.61-1.07-56.92-38.91Z"></path>
</svg>