<?xml version="1.0"?>
<svg id="Layer_1" data-name="Layer 1" xmlns="http://www.w3.org/2000/svg" viewBox="0 0 3794.84 2635.1">
  <defs>
    
  </defs>
  <polygon class="cls-1" points="631.99 207.78 631.99 207.78 631.99 207.78 631.99 207.78"></polygon>
  <path class="cls-1" d="M1188.89,2542.28c1.64-2.58,3.3-5.2,5.05-7.88l1.6-2.44,6.88.77c3.17.34,6.51.7,9.85,1.18l6.96,1.02c13.99,2.09,28.45,4.25,42.85,2.77,3.15-.33,6.38-.9,9.5-1.45,4.4-.78,8.87-1.56,13.36-1.76,17.2-.78,34.54-3.28,51.31-5.71,6.45-.93,12.86-1.86,19.28-2.69l5.52-.75c13.92-1.93,28.33-3.93,43.69.59,5.36,1.57,10.95,2.43,16.89,3.34,7.82,1.2,15.89,2.43,23.68,5.45,9.18,3.57,18.31,7.24,28.09,11.17l23.33,9.36-13.85,7.14c-2.5,1.3-4.42,2.3-6.37,3.24l-4.01,1.9c-9.65,4.53-18.7,8.79-24.8,16.73-6.16,8.05-9.17,15.4-5.03,27.19,6.96,19.83,29.03,26.43,46.26,22.56,10.49-2.35,19.05-6.81,26.92-14.03,8.04-7.39,12.11-14.99,13.21-24.62.64-5.55,1.36-11.09,2.14-17.16l1.7-13.06,4.39.26c1.02.06,2.03.08,3.04.1,2.44.06,4.96.12,7.53.61,10.22,1.96,20.7,3.31,30.82,4.61,10.95,1.42,22.03,2.85,32.91,5,30.27,5.98,60.87,7.3,86.82,7.81,13.95.27,28.51-.95,40.47-11.68,11.15-10,23.8-12.99,37.59-8.9,7.55,2.24,15.73,2.52,24.3.83,3.18-.63,6.29-1.43,9.87-2.34,2.05-.53,3.93-1.01,5.91-1.5l7.54-1.85-1.82,7.56c-4.03,16.44,2.17,28.86,18.91,37.99,6.59,3.6,16.59,3.52,25.41,3.44l2.96-.02c9.09-.04,14.93-6.76,21.7-14.54l6.24-7.08,3.53,4.01c1.09,1.24,2.14,2.49,3.19,3.75,5.8,6.87,10.79,12.79,18.41,13.13l3.28.16c9.48.47,19.25.96,26.33-2.36,17.33-8.12,24.19-21.33,20.42-39.26l-1.76-8.42,8.05,3.03c15.16,5.68,27.46,6.8,38.71,3.52,18.11-5.26,31.45,2.84,42.1,11.46.33.26.63.56.92.88,5.33,4.67,12.59,7.39,20.81,7.7,16.37.62,34.92,1.32,52.89-.21,13.51-1.16,27.18-3.53,40.41-5.82,12.25-2.13,24.85-4.31,37.55-5.59,7.53-.76,15.1-2.07,22.42-3.33,4.63-.8,9.26-1.59,13.89-2.27,2.63-.38,5.2-.27,7.26-.18.94.04,1.61.06,2.2.06h4.25l.46,4.22c.36,3.42.61,6.7.85,9.87.52,6.64,1,12.89,2.42,18.61,1.81,7.18,4.88,13.48,8.66,17.73,9.29,10.44,20.11,16.62,32.17,18.36,13.98,2.01,32.09-.71,41-14.41,10.15-15.6,8.79-28.49-4.19-39.4-4.06-3.41-9.05-6.2-13.87-8.89l-3.29-1.85c-3.86-2.2-7.87-4.21-12.13-6.34-1.99-1-4.06-2.03-6.2-3.13l-8.57-4.39,18.88-8.85c5.6-2.62,10.88-5.1,16.15-7.61,13.68-6.51,28.26-8.99,42.36-11.38,9.45-1.6,19.15-3.24,28.35-6.1,1.64-.52,3.23-.38,4.28-.23,3.21.45,6.42.87,9.63,1.28,7.55.97,15.2,1.96,22.71,3.46,15.61,3.11,31.65,4.84,47.16,6.52,11.07,1.2,22.17,2.4,33.07,4.05,18.61,2.81,38.63,1.61,61.22-3.66,3.33-.78,6.66-.85,9.89-.92,1.66-.03,2.95-.06,4.25-.15l3.03-.19,1.43,2.66c.82,1.48,1.59,2.96,2.33,4.41l.38.73c1.69,3.26,3.43,6.62,5.42,9.68,5.24,8.06,10.26,15.04,18.77,18.87,12.98,5.84,26.59,7.48,41.02,9.21l.97.12c17.13,2.06,35,1.87,54.65-.59,16.05-2.01,29.32-4.01,41.72-6.31,12.78-2.37,23.96-4.99,34.17-8.02,4.9-1.45,9.81-3.56,14.56-5.6,7.82-3.36,15.82-6.8,24.77-8.05.36-.05,1.19-.47,1.8-.78.82-.41,1.57-.79,2.34-1.08,11.08-4.26,22.18-8.54,33.31-12.75,3.62-1.37,7.24-2.7,10.87-4.03l1.18-.43c7.33-2.69,14.91-5.48,22.24-8.46,6.35-2.59,12.64-5.35,18.91-8.1,7.87-3.44,15.45-6.76,23.05-9.76,19.92-7.84,40.2-15.28,59.14-22.16,2.44-.89,4.87-1.8,7.31-2.72l1.17-.44c10.11-3.82,20.51-7.74,31.26-9.9,10.66-2.15,20.7-5.26,31.32-8.56l1.28-.4c2.52-.78,5.05-1.67,7.59-2.56,8.44-2.97,16.76-5.89,25.42-6.04,10.45-.18,21.03-1.75,31.26-3.26,12.84-1.91,26.11-3.88,39.73-3.27,11.43.51,23.18-.18,34.54-.86,6.48-.38,13.19-.78,19.8-.96,30.16-.8,53.41.04,75.39,2.75,1.13.13,2.27.25,3.42.36,6.49.64,14.56,1.44,21.22,7.51l2.73,2.49-1.76,3.25c-8.92,16.46-12.22,34-14.25,48.99-.69,4.91-.23,10.14.35,15.52.21,2.05.77,4.35,1.32,6.57,1.13,4.59,2.41,9.77,1.08,14.69-1.81,6.74-1.69,9.86.52,12.41,3.02,3.5,7.39,6.39,11.63,9.19l2.1,1.39c3.24,2.17,6.93,3.75,10.11,5.01,1.39.55,2.78,1.14,4.18,1.74,4.28,1.83,8.53,3.65,12.51,4.11,18.02,2.09,38.46,4.46,58.6.81,19.36-3.52,33.39-19.16,32.72-37.11-.5-18.61-7.47-35.27-14.22-49.11-4.24-8.68-8.75-13.89-14.6-16.9-1.42-.73-2.88-1.41-4.35-2.09-4.46-2.07-9.07-4.2-12.81-7.73-6.51-6.13-14.15-9.6-21.45-12.44l-32.58-12.68,4.19-5.05c1.13-1.36,2.1-2.62,3.01-3.78,2.06-2.63,3.75-4.79,5.87-6.75l2.23-2.09c6.98-6.5,14.89-13.86,22.95-20.39,20.51-16.61,39.52-30.63,64.59-34.11,1.1-.15,2.21-.27,3.33-.38,2.45-.25,4.78-.48,6.73-1.17,16.37-5.75,34.6-8.89,57.39-9.87,10.56-.46,20.79,1.14,32.17,5.03l3.71,1.26-.57,3.88c-.44,3.12-.92,6.19-1.4,9.24l-.14.91c-1.22,7.77-2.2,14.24-2.89,20.91-3.44,33.36,3.45,60.57,21.06,83.17,14.23,18.28,27.96,25.88,45.87,25.43,18-.45,31.72-9.24,36.68-23.49,7.14-20.46,6.69-41.5,5.2-61.19-.78-10.11-4.85-18.88-12.47-26.84-17.79-18.59-36.89-32.05-58.37-41.13-1.12-.47-2.22-1.02-3.56-1.69l-6.27-3.07,3.48-8.85c1.35-3.53,2.63-6.88,4.17-10.18,1.46-3.15,3.03-6.25,4.62-9.35,1.92-3.74,3.87-7.6,5.56-11.48,5.81-13.38,11.5-27.08,17.02-40.34l3.72-8.95c.68-1.64,1.24-3.36,1.79-5.08,1.31-3.98,2.58-7.9,5.09-11.33,10.03-13.81,13.77-30.53,17.39-46.69.85-3.89,1.72-7.75,2.65-11.57,8.17-33.16,14.84-66.98,20.29-95.7,5.45-28.6-.52-53.38-17.67-73.62-2.73-3.22-4.65-8.04-5-12.59-.38-4.89-.48-9.85-.57-14.65-.1-5.47-.22-11.67-.85-17.44l-.51-4.62c-2.49-23.03-5.05-46.57-8.85-69.44-5.79-34.99-4.14-66.46,5.11-96.18.77-2.45,1.69-4.83,2.81-7.78.81-2.06,1.53-3.89,2.32-6.03l4.74-12.67,5.6,17.16c.71,2.1,1.16,3.43,1.51,4.8,2.6,10.11,7.66,19.29,15.45,28.08,2.07,2.34,4.74,3.91,7.82,5.73,2.55,1.5,5.44,3.2,7.9,5.49,5.13,4.77,10.93,7.2,18.64,9.59,11.2,3.46,22.66,1.78,35.39-.6,13.38-2.5,23.3-10.45,30.36-24.3,15.82-31.02,10.77-66.92-13.51-96.04-2.2-2.65-5.48-5.22-9.99-7.87-20.13-11.79-41.29-14.33-62.89-7.54-1.84.58-3.63.62-4.82.64l-6.79.59.87-5.94c.59-4.09,1.12-8.14,1.64-12.15,1.18-9.06,2.25-17.41,4.06-25.86,10.14-47.48,5.5-94.67-1.04-138.59-1.34-8.89-5.12-17.7-8.78-26.22-1.74-4.05-4.16-8.06-6.5-11.95l-.35-.58c-1.6-2.65-3.25-5.39-4.71-8.18-1.48-2.81-1.43-6.04-1.12-9.1,1.81-18.93,2.79-41.19-3.23-62.72-.56-1.99-.93-4-1.36-6.34l-1.97-10.05,10.74,1.17c2.84.29,5.35.55,7.81.95,8.83,1.41,16.16-.69,23.07-6.59,5.72-4.88,7.56-11.11,9.39-18.76,3.34-14.06,3.71-33.27-13.51-44.84-1.42-.96-2.74-2.07-4.31-3.4l-7.97-6.56,6.51-3.27c16.06-8.09,22.44-20.68,20.81-40.8-.19-2.23-1.01-4.66-1.81-7.02-.6-1.81-1.11-3.35-1.5-4.91-4.08-16.06-14.85-23.19-31.15-20.61-2.69.43-5.27.47-7.76.5-1.06.01-2.01.03-2.94.07l-3.53.17-1.15-3.35c-.18-.51-.32-.87-.43-1.12-.32-.85-.85-2.16-.4-3.85,6.22-22.63,7.7-46.64,4.4-71.35-.32-2.32.1-4.97,1.14-7.06,1.24-2.47,2.52-4.9,3.81-7.32l.36-.67c1.84-3.43,3.71-6.95,5.38-10.48.7-1.48,1.43-2.96,2.14-4.45,2.83-5.82,5.56-11.43,7.01-17.02,3.55-13.57,4.72-27.92,5.85-41.8.51-6.33.99-12.33,1.67-18.32,3.63-32.6-1.21-65.14-5.88-96.62l-1.98-13.55c-.4-2.75-1.26-5.64-2.02-8.19l2.22-1.48-2.44.73c-.32-1.06-.63-2.09-.89-3.05l-1.7-6.47,17.2,1.41c7.7.65,14.92,1.25,22.14,1.71,18.29,1.16,34.74-5.39,46.31-18.44,23.27-26.19,29.22-57,17.21-89.08-7.02-18.81-19.32-29.28-37.58-32-21.45-3.19-37.13.05-52.44,10.85-15.58,10.99-24.9,23.79-29.33,40.27-.36,1.35-.91,2.55-1.47,3.71l-5.06,11.67-4.21-10.66c-7.98-20.21-16.35-43.85-14.47-68.64,1.69-22.12,4.62-46.24,9.22-75.92,3.54-22.91,5.21-44.46,4.81-65.91-.07-5.82,1.51-10.66,5.11-16.04,6.06-9.03,12.3-18.71,16.04-29.07,7.24-20.06,3.11-41.14-.87-61.53l-1.23-6.35c-2.49-13.13-5.78-26.4-8.95-39.22-1.66-6.7-3.2-12.96-4.67-19.23-1.17-4.95-2.22-9.93-3.28-14.91-3.47-16.37-7.07-33.31-14.54-48.57-.74-1.51-1.51-3.02-2.27-4.53-1.97-3.89-3.92-7.73-5.53-11.73-1.53-3.81-2.87-7.68-4.23-11.55-1.87-5.35-3.7-10.59-5.91-15.44-4.66-10.22-9.67-20.52-14.51-30.47-3.52-7.22-6.8-13.93-9.99-20.69-1.66-3.5-3.01-7.12-4.32-10.63-.67-1.79-1.25-3.35-1.87-4.91l-1.62-4.13,9.27-4.32c3.24-1.5,6.11-2.83,8.97-4.23,21.32-10.5,39.39-24.53,53.74-41.7,4.13-4.94,6.6-10.28,7.78-16.78,3.35-18.62,1.45-37.62-1.11-55.38-1.07-7.4-3.78-14.52-7.45-19.54-7.86-10.69-18.47-14.26-26-15.38-12.41-1.85-26.46,1.47-35.8,8.46-11.28,8.44-20.28,19.44-26.74,32.68-12.8,26.25-15.41,55.26-7.96,88.69.47,2.11.96,4.22,1.55,6.79l2.05,8.9-5.08.74c-2.97.43-5.82.94-8.57,1.43-6.58,1.18-12.53,2.25-18.65,2.24-21.22-.03-38.5-2.28-54.41-7.08-2.48-.75-5.13-1.3-7.68-1.83-3.02-.63-6.45-1.35-9.72-2.43-3.3-1.1-6.91-1.85-10.39-2.58-7.62-1.59-15.4-3.22-22.56-8.28-3.44-2.45-6.92-4.86-10.39-7.27-16.57-11.5-33.69-23.4-48.25-38.66-4.23-4.43-5.91-8.32-6.23-14.36l-.17-3.33,9.72-4.02c3.37-1.38,6.87-2.6,10.26-3.78,7.28-2.54,14.72-5.13,20.45-9.26,4.02-2.91,8.43-5.31,12.31-7.43,5.8-3.16,11.26-6.14,15.69-10.46.88-.85,1.86-1.52,2.79-2.16.67-.44,1.58-1.05,1.77-1.33,13.97-20.47,20.98-41.09,21.41-63.05h0c0-17.81-19.2-33.45-31.73-34.47l-5.1-.43c-8.68-.75-16.88-1.46-25.37-1.23-13.11.35-27.01,1.08-40.25,5.73-6.85,2.41-13.59,5.9-20.1,9.27-8.97,4.65-11.74,10.97-9.61,20.82.54,2.48.4,5.4-.48,8.67-4.05,15.19-4.07,29.15-.06,42.67,2.28,7.69,4.54,15.38,6.8,23.13l5.28,18.01-4,2.14c-.59.35-1.64.98-2.93,1.37-19.3,5.68-38.8,6.79-62.16,6.72-24.31-.08-50.71-.79-80.72-2.16-4.55-.2-9.22-.15-13.72-.1-9.9.11-20.09.22-30.31-2.22-6.45-1.53-13.59-2.47-22.42-2.96-11.15-.61-21.98-2.3-32.21-5.02-12.01-3.19-23.89-7.35-35.38-11.37-6.18-2.17-12.25-4.29-18.35-6.29-3.65-1.19-7.37-2.23-11.08-3.27-5.78-1.61-11.42-3.18-16.93-5.25-2.9-1.09-6.01-1.95-9.03-2.77-6.13-1.68-12.48-3.42-18.47-7.31-3.92-2.54-8.77-4.29-13.46-5.99-1.37-.49-2.73-.99-4.09-1.5-6.41-2.45-12.86-4.82-19.3-7.19-8.52-3.13-16.48-6.07-24.4-9.14-7.87-3.04-15.7-6.21-23.53-9.37l-.6-.24c-7.45-3.01-14.91-6.03-22.4-8.94-3.45-1.34-7.07-2.51-10.58-3.65-3.56-1.15-7.05-2.28-10.48-3.59-6.8-2.58-13.57-5.26-20.33-7.94-10.64-4.21-21.56-8.53-32.4-12.4-21.1-7.52-43.78-10.74-65.71-13.85l-4.26-.6c-26.61-3.79-47.12-4.35-66.52-1.83l-5.08.64c-13.4,1.66-26,3.23-37.29,9.63-3.48,1.97-7.03,4.11-8.98,6.71-4.24,5.66-8.08,11.67-12.15,18.04l-.73,1.13c-1.51,2.32-3.02,4.69-4.61,7.1l-1.59,2.43-17.68-1.98c-4.17-.46-8.35-1.03-12.54-1.6-9.2-1.25-18.69-2.54-27.89-2.59-9.77-.06-19.87,1.35-29.63,2.71l-.91.13c-2.67.37-5.36.74-8.04,1.08-8.05,1.02-16.07,2.15-24.11,3.29-12.3,1.74-25.92,3.67-39.13,5.07-3.41.36-6.83.91-10.25,1.45-12.86,2.05-25.92,4.13-39.34-1.95-.04.03-.47.06-.88.07-.76,0-1.38.01-1.97-.03-15.76-1.19-32.08-5.28-49.92-12.49-7.23-2.92-14.41-6.18-21.36-9.34l-1.07-.49c-1.68-.76-3.07-1.81-4.2-2.65l-7.54-5.19,16.5-9.39c7.47-4.22,14.52-8.2,21.52-12.42,7.37-4.43,11-12.03,13.58-18.89,1.39-3.7.21-6.85-1.82-11.67-.58-1.35-1.14-2.73-1.65-4.13-4.81-13.59-16.14-21.25-31.89-21.57-16.95-.36-29.69,4.3-40.11,14.67-8.19,8.14-12.16,15.24-13.3,23.75-.78,5.75-1.42,11.52-2.07,17.4l-1.43,12.73-4.55.65c-1.5.3-3.02.62-4.76.37-3.01-.42-6.04-.79-9.09-1.16-8.09-.98-16.45-2-24.56-4.07-5.87-1.49-12.1-2.06-18.11-2.61-5.04-.46-10.17-.93-15.31-1.9-23.09-4.38-49.96-8.96-76.66-7.94-5.2.2-10.45.17-15.54.14h-.97c-3.09-.02-6.18-.03-9.28.01-9.73.14-17.47,2.88-23.67,8.38-13.55,12.03-28.1,15.67-44.48,11.13-9.45-2.61-19.35-2.05-30.27,1.71-1.73.6-3.46.83-5.01,1.02-.67.09-1.37.18-2.1.31l-6.6,1.14,1.15-6.61c1.87-10.86.67-17.88-4.33-24.99-7.38-10.51-17.12-15.48-32.56-16.62-13.27-.99-22.84,3.07-30.14,12.81-1.2,1.59-2.67,2.73-4.1,3.82-.72.55-1.32,1.01-1.95,1.54l-4.22,3.59-2.87-4.74c-9.58-15.71-22.81-20.44-42.89-15.32-1.42.36-2.96.56-4.51.75-1.66.2-3.72.44-4.37.96-12.82,10.13-21.7,18.45-18.94,33.43.18.99.3,1.99.43,2.98l.76,5.6-4.2.98c-.33.08-.61.17-.86.25-1.03.34-2.69.88-4.61.16-12.74-4.77-25.06-5.55-36.63-2.31-17.48,4.89-30.8-3.21-39.31-9.72-.63-.47-1.23-1.02-1.83-1.59l-.96-.88c-5.75-5.09-13.04-7.74-21.62-7.85-30.5-.4-62.03-.81-92.32,6.26l-2.46.58c-6.03,1.42-12.19,2.87-18.42,3.7-12.34,1.65-24.46,2.91-38.87,4.29-2.36.23-4.8.73-7.17,1.2-5.49,1.11-11.66,2.35-17.9.67l-3.04-.82-.41-3.13c-.36-2.81-.75-5.51-1.13-8.17-.8-5.57-1.62-11.32-2.03-17.04-1.42-19.38-15.54-28.87-29.17-35.59-7.55-3.72-16.85-5.11-26.89-4-12.22,1.35-21.28,6.79-26.91,16.16-9.19,15.32-7.41,27.9,5.49,38.47,4.55,3.74,10.03,6.83,15.34,9.81l.91.51c3.76,2.11,7.79,4.05,12.06,6.09l1.1.53c1.83.88,3.75,1.81,5.79,2.81l8.96,4.44-14.95,6.69c-3.54,1.54-6.57,2.87-9.5,4.36-21,10.64-40.64,16.47-60.04,17.81-3.79.26-7.53,1.16-11.49,2.11-7.78,1.88-15.73,3.8-25.01,1.42-11.46-2.93-23.66-4.34-35.46-5.72-5.31-.62-10.11-1.18-14.89-1.85-7.19-.99-14.54-1.7-21.65-2.39-9.41-.91-19.14-1.84-28.78-3.46-20.12-3.38-40.95-.68-60.47,2.73-3.86.67-7.69.99-11.39,1.3-1.75.14-3.35.27-4.93.43l-3.19.33-1.48-2.84c-1.02-1.92-1.92-3.77-2.77-5.53-1.95-3.97-3.48-7.12-5.42-9.85l-.45-.64c-4.85-6.82-9.41-13.24-17.02-16.96-15.97-7.8-33.73-9.23-50.91-10.62l-3.92-.33c-15.71-1.29-32.51-.37-54.47,3l-7.39,1.12c-20.52,3.1-41.72,6.3-61.54,13.22-3.61,1.26-7.2,2.87-10.68,4.43-3.2,1.43-6.36,2.84-9.57,4.04-6.2,2.34-12.47,4.51-18.73,6.68-3.25,1.12-6.49,2.24-9.75,3.39-2.75.97-5.48,1.98-8.21,2.99l-6.39,2.33c-4.04,1.45-8.1,2.86-12.14,4.27l-.82.28c-9.16,3.19-18.62,6.48-27.78,10.16-6.11,2.47-12.23,5.3-18.13,8.05-9.75,4.52-19.81,9.2-30.33,12.44-8.78,2.71-17.33,6.37-25.59,9.9-9.35,3.98-18.95,8.08-29.01,10.96-7.11,2.04-14.22,4.51-21.1,6.9-5.87,2.04-12.53,4.35-19.01,6.3-3.8,1.14-7.64,1.79-11.34,2.42-4.77.82-9.18,1.57-13.1,3.18-17.82,7.34-33.45,11.14-49.16,11.94-8.08.41-16.3,1.67-24.25,2.88-11.54,1.76-23.47,3.58-35.86,3.05-15.76-.67-31.96.16-47.62.96-8.1.42-15.84.81-23.57,1.04-26.97.79-48.86-.41-68.85-3.78-3.61-.61-6.99-1.63-10.58-2.71-1.68-.51-3.35-1.02-5.11-1.5l-5.6-1.54,2.63-5.16c7.72-15.2,12.35-31.08,14.58-49.99.61-5.19.15-10.82-.31-16.26-.21-2.49-.71-4.76-1.19-6.94-1.02-4.62-2.13-9.8-.78-14.72,1.56-5.5,1.32-8.88-.76-11.68-2.48-3.35-6.13-6.57-11.16-9.83-4.33-2.81-9.56-4.84-14.16-6.64l-2.76-1.08c-4.36-1.75-8.86-3.54-13.15-4.06-16.86-2.03-36.51-3.98-56.36-1.31-11.27,1.52-18.77,8.01-26.71,14.89l-2.91,2.51c-.49.48-1.12,2.67-1.39,3.6-2.18,7.58-4.43,15.43-2.82,22.97l.54,2.5c1.58,7.33,3.19,14.82,5.43,21.86,4.47,14.08,11.12,29.64,26.56,38.29,1.14.64,2.47,1.1,3.88,1.59,3.07,1.08,6.41,2.26,8.89,4.92,6.37,6.91,15.21,10.38,22.99,13.43,5.31,2.08,10.64,4.06,15.8,5.96l8.96,3.33.41,2.75c1.23,8.37-3.39,12.69-6.46,15.57-.82.78-1.4,1.32-1.93,1.9-15.22,16.62-33.82,28.85-51.82,40.69-3.1,2.03-6.19,4.07-9.28,6.13-4.19,2.79-9.26,3.81-13.73,4.71-1.29.26-2.55.51-3.79.81-2.94.7-5.92,1.24-8.9,1.79-3.86.7-7.84,1.43-11.55,2.51-14.8,4.32-30.88,8.42-48.15,9.2-13.77.63-28,1.28-41.32-5.14l-3.14-1.51.52-3.45c.56-3.7,1.19-7.32,1.8-10.89,1.36-7.92,2.59-15.13,3.15-22.39,2.78-35.99-6.11-64.67-27.16-87.73-11.47-12.57-23.72-18.42-38.54-18.41-21.53,0-35.92,10.58-40.51,29.76-3.76,15.78-4.89,33.17-3.43,53.16.84,11.38,5.08,20.84,12.97,28.92,17.59,18,35.75,30.98,55.53,39.68,1.79.79,3.53,1.68,5.6,2.76l7.65,3.87-7.51,15.91c-3.01,6.36-5.95,12.58-8.86,18.82-1.87,4.02-3.79,8.04-5.71,12.05-4.9,10.23-9.93,20.76-14.05,31.35-.98,2.49-1.93,4.98-2.87,7.47-3.38,8.94-6.86,18.1-11.52,26.84-4.37,8.16-7.33,15.8-8.81,22.71-3.31,15.43-6.97,31.01-10.5,46.08-5.89,25.11-11.99,51.07-16.62,76.87-5.39,29.84.51,54.24,17.95,74.6,2.96,3.46,3.99,8.25,4.6,12.48.34,2.44.02,4.69-.22,6.68-.17,1.32-.39,2.52-.28,3.71,2.22,37.19,5.46,65.46,10.48,91.66,6.92,35.98,5.48,68.92-4.34,100.7-.81,2.62-1.85,5.01-3.15,8.03-.64,1.5-1.36,3.16-2.13,5.07l-4.86,11.86-5.22-15.72c-.58-1.67-.91-2.67-1.13-3.69-4.17-19.67-16.89-34.54-40-46.78-13.07-6.92-27.33-6.09-40.8-4.16-17.89,2.56-30.42,12.86-38.28,31.49-6.49,15.33-7.84,32.16-3.99,50.01,3.73,17.31,11.7,31.77,23.06,41.83,17.28,15.29,39.09,20.39,64.83,15.16,2.56-.52,5.12-1.12,7.44-1.66l9.87-2.26-1.01,6.82c-.6,4.19-1.14,8.33-1.67,12.41-1.18,9.11-2.25,17.51-4.05,25.99-10.17,48.25-5.1,97.12,1.22,138.58,1.68,10.94,3.63,20.63,10.66,28.43,3.78,4.19,5.88,9.4,7.92,14.44l1.44,3.45c1.37,3.19,1.28,6.69,1.19,9.5-.05,1.66-.31,3.26-.56,4.81-.23,1.36-.44,2.59-.44,3.91v8.97c-.1,16.46-.15,33.48,5.55,49.41.53,1.47.45,2.79.39,4.06-.04.68-.07,1.23-.07,1.89v4.99l-4.99-.28c-1.15-.06-2.28-.07-3.41-.09-2.71-.04-5.45-.08-8.21-.68-8.71-1.89-15.72.04-22.73,6.28-5.05,4.5-6.96,10.02-8.93,16.78-6.72,23.08-1.98,37.03,16.89,49.8,1.96,1.32,2.34,3.41,2.5,4.3l.97,3.19-2.47,2.02c-18.58,15.1-21.25,20.52-20.25,41.45.11,2.23.93,4.65,1.8,7.22.5,1.5.99,2.99,1.39,4.49,4.43,16.75,15.11,23.86,31.75,21.1,2.7-.45,5.34-.35,8.12-.24,1.66.06,2.88.1,4.2.1h6.6l-2.13,6.25c-9.18,26.89-7.77,53.27-5.55,73.24.27,2.34-.21,4.86-1.29,6.96-1.59,3.14-3.24,6.25-4.91,9.36-1.67,3.12-3.24,6.08-4.77,9.08-.86,1.69-1.79,3.37-2.71,5.04-2.32,4.18-4.46,8.03-5.42,11.95-8.22,33.58-9.33,67.87-9.33,96.97v.73c.03,28.95,5.64,57.7,11.06,85.49l1.95,10.01-6.26-.57c-3.42-.31-6.86-.7-10.31-1.08-7.79-.86-15.57-1.72-23.17-1.86-18.35-.35-34.47,6.35-45.38,18.86-22.85,26.19-28.7,55.9-17.36,88.28,3.64,10.38,11.16,23.94,26.22,29.56,14.71,5.48,28.96,6.49,42.31,2.99,5.76-1.51,10.62-4.49,15.78-7.65,2.14-1.31,4.29-2.62,6.5-3.84,13.66-7.52,22.59-19.2,28.14-36.75l7.36-22.2,4.75,12.27c.77,1.99,1.49,3.7,2.13,5.25,1.3,3.07,2.4,5.73,3.09,8.64l1.57,6.46c2.15,8.84,4.35,17.82,5.39,26.94,1.32,11.43,1.52,22.95.6,34.23-1.25,15.18-3.24,31.38-6.49,52.53-4.9,32.03-7.16,57.94-6.89,81.59,0,4.15-2.07,7.72-3.91,10.86-.42.73-.84,1.44-1.21,2.14-1.82,3.39-3.79,6.72-5.78,10.03-3.61,6.04-7.35,12.29-9.72,18.73-7.44,20.3-3.24,41.55.83,62.1l1.34,6.79c2.51,13.09,5.75,26.33,8.88,39.12,1.62,6.6,3.18,12.98,4.67,19.39,1.08,4.59,2.05,9.2,3.03,13.81,3.54,16.57,7.14,33.42,14.46,48.65l2.22,4.53c1.95,3.91,3.85,7.73,5.47,11.72,1.67,4.08,3.19,8.23,4.71,12.38,2.29,6.2,4.47,12.09,6.99,17.63,4.69,10.28,9.71,20.62,14.57,30.66l.67,1.38c3.51,7.23,6.89,14.19,10.19,21.18,1.37,2.87,2.21,5.85,2.83,8.03l1.74,5.37-3.19,1.96c-4.49,2.75-8.82,5.37-13.06,7.92-9.52,5.76-18.07,10.92-26.37,16.38-11.89,7.8-21.21,16.28-28.51,25.94-4.14,5.48-6.42,10.41-7.42,15.99-3.57,19.99-1.45,39.77,1.1,56.47,1.08,7.08,3.9,14.17,7.75,19.46,7.38,10.17,17.82,13.71,25.29,14.88,12.23,1.93,25.87-1.02,34.76-7.51,15-10.95,26.04-25.38,31.92-41.71,9.88-27.46,10.97-55.36,3.27-82.89-.53-1.87-.65-3.67-.76-5.41-.05-.76-.11-1.56-.2-2.42l-.41-3.89,3.76-1.12c1.17-.36,2.32-.74,3.44-1.11,2.69-.9,5.2-1.74,7.99-2.2,16.83-2.81,34.64-2.1,56.08,2.25,14.92,3.03,29.77,6.85,43.71,10.5l.94.24c6.23,1.63,12.63,3.3,18.1,6.92l2.86,1.88c19.79,13.03,40.25,26.5,57.09,44.61,3.95,4.24,5.88,8.06,6.91,13.61l.69,3.78-7.25,2.95c-1.44.59-2.76,1.13-4.1,1.65-2.9,1.14-5.86,2.2-8.82,3.25-11.33,4.01-21.85,7.74-29.58,16.4-1.55,1.74-3.63,2.36-5,2.77-12.66,3.87-21.92,12.75-28.31,27.15-4.6,10.39-8.23,20.77-10.8,30.84-2.43,9.58-1.8,19.86,2,31.39,1.29,3.92,4.41,6.33,8.03,9.13,1.7,1.3,3.42,2.64,5.01,4.15,8.04,7.6,18.89,8.03,29.39,8.44,1.89.07,3.74.15,5.58.25,11.03.65,22.55-.83,33.69-2.25l3.19-.41c5.8-.73,11.76-2.9,17.54-5l.68-.25c3.04-1.11,6.13-2.64,9.12-4.11,1.95-.97,3.84-1.9,5.75-2.77,9.7-4.36,13.04-10.95,10.8-21.38-.69-3.24-.09-6.54.51-8.73,3.96-14.33,4.04-28.32.27-41.55-2.48-8.79-5.07-17.55-7.68-26.44l-4.77-16.25,3.87-1.64c.23-.1.48-.23.73-.36,1.11-.57,2.54-1.3,4.33-1.51,5.43-.67,10.85-1.44,16.31-2.22,13.17-1.87,26.78-3.81,40.39-4.23,21.5-.66,44.72-.1,73.07,1.76,6.33.42,12.84.46,19.12.51,10.58.08,21.47.16,32.32,1.94,7.01,1.15,14.32,1.78,21.4,2.39,5.43.47,10.78.93,16.04,1.59,8.47,1.06,15.2,2.46,21.22,4.37,7.53,2.42,15.12,5.07,22.45,7.65,10,3.51,20.35,7.14,30.74,10.18l8.18,2.37c15.64,4.51,31.76,9.15,47.01,16.15l2.84,1.33c4.86,2.27,9.87,4.62,14.82,5.73,11.34,2.55,21.62,7.3,31.58,11.89,5.13,2.36,10.36,4.78,15.56,6.82,5.28,2.06,10.5,4.26,15.73,6.46,7.81,3.28,15.63,6.58,23.45,9.38,15.34,5.47,30.92,10.63,45.99,15.63l1.72.57c5.89,1.96,11.8,3.91,17.68,5.89,1.03.22,2.28.5,3.48,1.41,10.56,8.05,23.86,10.35,36.72,12.58,2.37.41,4.41.76,6.43,1.14l2.96.55c23.37,4.34,47.45,8.82,71.45,8.37,23.57-.44,47.94-.9,70.28-11.46,4.19-1.98,7.6-4.53,9.61-7.17,4.2-5.57,7.99-11.54,12-17.87l.36-.57ZM1512.61,2571.42c.05,1.94.22,3.76.39,5.46.36,3.79.76,7.7-.37,11.41-3.88,12.89-17.41,31.72-38.78,30.78-10.75-.48-16.87-4.61-19.81-13.4-.56-1.67-.85-3.34-.85-4.94,0-7.75,6.4-12.31,9.15-14.26,14.34-10.19,28.1-16.22,44.6-19.56l5.5-1.1.18,5.61ZM2289.37,2567.19c16.92,3.68,31.56,10.48,44.78,20.78,6.63,5.19,8.82,11.09,6.57,17.57-2.81,7.98-8.51,12.77-16.03,13.48-12.34,1.15-22.84-2.62-30.39-10.9-6.23-6.84-12.88-15.05-12.88-25.96,0-3.91.87-7.99,2.58-12.15l1.51-3.65,3.86.84ZM3365.24,2459.54c4.62,1.88,9.13,3.58,13.51,5.23,10.24,3.87,19.78,7.47,28.78,12.35,10.25,5.56,19.95,13.26,28.03,22.26,4.21,4.68,5.9,10.89,7.55,16.9.61,2.2,1.13,4.09,1.74,5.89.72,2.13,1.05,4.21,1.37,6.22.19,1.26.37,2.48.67,3.67,2.27,8.92,1.85,15.53-1.29,20.79-3.17,5.31-9.06,8.98-18,11.23-8.9,2.25-18.23,1.99-27.26,1.75-3.12-.09-6.24-.17-9.33-.15-2.84.02-5.58-.49-7.99-.94-1.52-.29-3.05-.58-4.58-.71-6.19-.55-11.04-3.48-15.32-6.05-1.18-.71-2.32-1.4-3.5-2.05-7.32-4.06-8.65-10.27-9.71-15.26-.21-.95-.38-1.78-.59-2.6-.39-1.53-.85-3.08-1.32-4.64-1.32-4.45-2.66-8.96-2.69-13.76v-.69c0-7.65,1.04-15.83,3.03-23.66,1.89-7.38,4.36-14.53,6.98-22.1l.28-.82c1.1-3.18,2.23-6.48,3.38-9.95l1.58-4.79,4.69,1.89ZM3596.12,2368.28c2.13.99,4.14,1.88,6.04,2.72,4.35,1.93,7.99,3.53,11.59,5.63,12.39,7.24,28.18,17.44,40.45,32.15,3.06,3.66,5.87,7.32,6.56,11.74,2.93,18.72,2.51,36.49-1.21,52.83-2.35,10.32-10.4,16.53-21,16.21-10.42-.33-18.45-3.43-24.55-9.48-17.61-17.46-26.61-34.68-28.29-54.2-.63-7.2-.92-13.19-.92-18.83,0-12.74,1.56-24.44,4.77-35.78l1.52-5.35,5.03,2.35ZM3594.58,265.65h0c-.47-.09-1.08-.2-1.9-.3l-3.34-.41-.69-3.29c-1.81-8.41-4.2-21.24-4.2-35.4,0-15.38,2.86-29.51,8.5-41.99,5.16-11.41,14.06-20.84,22.69-29.96l1.07-1.13c4.29-4.54,11.31-5.96,18.13-7.03,13.18-2.04,22.4,4.62,25.32,18.28,3.18,14.95,2.82,29.6,1.31,47-.36,4.19-2.09,8.68-4.52,11.71-15.04,18.68-34.6,32.93-58.12,42.35-1.63.65-3.01.4-4.24.17ZM3359.58,171.9c-9.3-18.98-13.92-37.44-14.13-56.46v-.05c0-9.89,2.68-20.24,7.34-28.97,3.8-7.1,11.85-12.57,21.01-14.26,15.21-2.81,30.85-3.6,47.81-2.4,10.04.71,18.74,5.38,23.27,12.51,2.88,4.52,5.45,12.14,1.38,22.75-2.36,6.18-3.93,12.14-4.64,17.71-1.37,10.6-8.32,17.01-15.32,22.68-16.71,13.51-33.73,22.09-52.06,26.24-1.76.4-3.49.96-5.48,1.59-1.36.43-2.42.77-3.59,1.11l-3.83,1.15-1.76-3.6ZM2284.39,65.69c-2.11-4.21-3.14-8.22-3.14-12.26,0-4.93,1.55-9.94,4.74-15.3,8.86-14.9,20.49-22.14,35.55-22.14,8.75,0,15.29,4.5,18.93,13.02,2.06,4.83,2.36,12.15-7.75,19.58-12.94,9.5-27.01,15.91-43.05,19.58l-3.6.83-1.68-3.31ZM1505.26,68.33c-17.47-4.29-32.04-11.15-44.58-20.97-1.85-1.45-7.48-5.87-7.48-12.85,0-1.56.29-3.17.87-4.79,2.81-7.89,8.47-12.7,15.93-13.55,11.99-1.37,22.52,2.44,30.47,11,6.31,6.81,18.05,19.47,10.28,38.38l-1.57,3.75-3.93-.97ZM429.36,175.7c-4.44-1.82-8.79-3.49-13.04-5.12-10.35-3.96-19.81-7.59-28.82-12.47-10.46-5.66-20.2-13.28-28.14-22.01-4.23-4.67-5.95-10.91-7.62-16.95-.55-2-1.1-3.98-1.74-5.86-.71-2.08-1.01-4.18-1.24-5.86-.2-1.35-.39-2.65-.74-3.85-1.08-3.53-1.62-6.91-1.62-10.02,0-4.19.99-7.96,2.92-11.21,3.49-5.84,9.86-9.73,18.94-11.58,9.1-1.86,18.51-1.43,27.61-1.02,3.41.15,6.73.3,10.03.34,2.61.03,5.06.47,7.42.9,1.46.27,2.75.51,4.05.65,13.14,1.46,23.06,9.92,27.95,23.81,8.84,24.99,1.05,46.97-7.21,70.23l-4.15,11.93-4.63-1.9ZM196.05,265.5h0c-23.33-9.3-42.9-23.52-58.15-42.26-2.53-3.11-4.22-7.09-4.51-10.64-.59-7.37-1.13-15.26-1.13-23.04,0-9.7.86-18.28,2.63-26.21,2.75-12.33,10.89-18.36,23.54-17.43,10.11.74,18.46,5.04,27.05,13.96,26.55,27.6,26.45,61.19,22.89,90.4-.33,2.66-.9,5.19-1.53,7.87-.33,1.42-.57,2.45-.78,3.48l-.68,3.3-3.35.42c-.65.08-1.16.17-1.57.25-1.33.26-2.77.53-4.42-.12ZM207.04,2377.79c.75,3.94,1.39,7.33,1.84,10.77,2.48,19.39,1.22,37.93-3.71,55.09-5.04,17.54-17.41,29.64-28.6,39.61-4.3,3.84-10.62,5.05-15.7,6.02-12.84,2.45-23.05-4.46-26.02-17.61-1.77-7.85-2.59-16-2.59-25.64,0-6.99.42-14.05,1.06-22.49.29-3.94,2.13-8.43,4.79-11.71,15.23-18.82,34.72-32.74,61.32-43.8l5.45-2.26,2.17,12.02ZM435.17,2463.34c9.22,18.84,14,37.73,14.2,56.13,0,9.78-2.78,20.71-7.61,30.04-3.92,7.61-14.58,11.5-18.98,12.81-17.81,5.35-36.34,4.5-50.48,3.16-10.01-.95-18.55-5.82-22.82-13.03-2.06-3.47-3.11-7.33-3.11-11.48,0-3.74.87-7.64,2.58-11.61,2.17-5.08,3.26-10.94,4.11-16.52,1.78-11.9,10.5-18.93,16.88-24.07,15.24-12.29,32.83-20.95,52.28-25.75,1.24-.31,2.46-.68,3.94-1.12l7.27-2.15,1.75,3.58ZM1960.47,2576.97c-.19,7.42-6.52,14.27-14.73,15.94-3.57.72-7.12.88-10.55,1.03-1.11.05-2.19.1-3.29.17-7.37.47-13.05-3.22-15.97-10.39l-2.1-5.09c-2.96-7.18-6.03-14.61-8.51-22.19q-2.2-6.75-7.43-6.79-6.24-.05-8.48,6.84c-3.09,9.54-6.72,18.77-10.78,27.46-4.68,9.97-16.24,13.39-30.17,8.92-8.8-2.83-14.26-10.25-14.26-19.38,0-1.37.13-2.78.39-4.21,2.67-14.67,8.21-24.6,17.94-32.18,5.69-4.42,10.76-10.14,15.67-15.66l.46-.52c2.13-2.39,4.26-4.77,6.45-7.07l22.37-23.6,12.06,13.08c5.92,6.47,12.05,13.15,18.22,19.53,3.47,3.58,7.17,7.08,10.76,10.47,3.57,3.37,7.27,6.86,10.77,10.46,7.98,8.2,11.5,19.08,11.18,33.19ZM3637.59,2010.65h0l3.03,1.5-.45,3.37c-2.59,18.87-9.18,36-20.12,52.37l-1.65,2.49-2.97-.43c-8.94-1.32-14.38-5.98-17.15-14.67-1.22-3.85-2.84-9.72-2.84-16.22,0-9.53,3.54-17.85,10.51-24.74,8.76-8.65,19.1-9.85,31.62-3.66ZM3767.38,1750.65c4.79,8.37,10.08,19.74,8.62,33.76-.26,1.72-.46,3.24-.65,4.76l-.12.91c-.53,4.05-1.07,8.25-1.98,12.44-2.52,11.55-9.41,20.64-19.38,25.61-10.25,5.11-22.59,5.07-33.84-.11-20.16-9.28-28.59-26.89-35.51-44.14-2.61-6.49-3.42-13.45-4.21-20.17l-.09-.7c-.3-2.5-.44-4.81-.44-6.95,0-17.31,9.22-24.74,26.21-32.39,25.28-11.37,49.05,5.36,61.39,26.99ZM3652.26,1480.58h0s1.82,1.86,1.82,1.86l-.59,2.53c-3.45,14.65-15.06,20.35-24.4,24.92l-1.56.77c-2.84,1.41-6.55,1.84-11.34,1.3-4.1-.47-7.52-2.64-9.17-5.82-.66-1.32-.99-2.7-.99-4.11,0-1.66.45-3.29,1.33-4.85,4.37-7.76,8.82-15.17,15.24-20.58,6.5-5.48,18.17-7.72,29.65,3.97ZM3690.2,1251.29c8.64,1.2,14.96,11.93,14.36,20.01l-.17,2.43c-1.26,18.53-2.96,24.72-30.25,31.45-3.84.95-7.89,1.75-12.36,2.44-6.43.99-8.12,3-8.19,9.76v.09c0,7.3,1.31,8.9,7.69,9.92l1.76.28c9.36,1.48,19.03,3.01,28.21,7.82,7.6,3.98,11.84,10.18,12.27,17.93.08,1.44.35,2.89.63,4.43.78,4.26,1.73,9.55-1.07,15.24-6.21,12.69-17.97,12.21-26.55,11.86-8.29-.34-15.75-3.06-22.17-8.1-19.92-15.64-35.66-26.91-51.04-36.52-13.55-8.48-26-13.39-38.08-15.02-1.58-.21-2.85-.83-4.32-1.54-.78-.38-1.69-.82-2.87-1.34l-8.35-3.64,7.77-4.73c1.01-.61,1.79-1.15,2.42-1.59,1.49-1.03,2.78-1.93,4.64-2.23,24.06-3.9,44.15-17.83,63.57-31.3l2.64-1.84c6.38-4.41,12.7-9.57,18.8-14.56l5.24-4.27c11.63-9.38,24.39-8.53,35.43-7ZM3652.29,1145.98l3.2,5.99-3.06,2.47c-7.87,6.34-14.89,8.98-21.47,8.07-6.23-.87-11.76-4.83-16.92-12.11l-1.06-1.45c-1.56-2.1-3.28-4.45-4.25-7.27-.72-2.07-1.69-5.18-1.69-8.23,0-1.56.25-2.99.76-4.28,2.6-6.72,9.91-7.69,15.61-5.75,9.11,3.11,19.38,7.27,26,17.41,1.06,1.62,1.95,3.32,2.86,5.14ZM3700.19,822.02h0c10.05-14.43,30.72-21.43,49.15-16.67,12.4,3.21,20.24,11.27,23.3,23.95,1.26,5.2,1.92,10.5,2.55,15.63.27,2.29.56,4.53.88,6.76l.05.74c-.67,27.55-16.93,51.41-41.43,60.83-10.51,4.04-21.63,2.69-33.99-4.14-13.05-7.2-20.97-12.84-20.97-30.33,0-3.08.25-6.65.76-10.92,2.27-18.83,11.72-34.39,19.7-45.85ZM3639.89,620.72l.17,3.31-3.05,1.29c-9.96,4.19-21.13,2.89-29.87-3.48-7.72-5.63-12.15-14.16-12.15-23.42,0-.82.04-1.63.11-2.45.61-7.11,2.32-13.97,4.96-19.86,2.2-4.92,7.76-8.56,11.98-9.85,7.93-2.44,11.17,4.77,12.56,7.85l.59,1.26c6.79,13.79,13.79,28.03,14.71,45.34ZM1834.05,63.31c0-1.95.14-3.91.42-5.87,1.17-8.21,7.66-13.87,18.28-15.93,14.9-2.9,21.86.44,27.61,13.22,3.08,6.85,5.88,14.38,9.12,24.41q2.05,6.39,7.85,6.42t7.94-6.25c2.57-7.72,6.1-17.81,10.61-27.42,5.24-11.17,17.57-14.54,32.17-8.79,9.69,3.82,14.35,13.46,11.89,24.56-2.15,9.89-5.87,21.19-17,30.04-5.87,4.67-11.16,10.58-16.29,16.3-2.52,2.8-4.79,5.32-7.11,7.75l-21.27,22.37-3.42-3.37c-4.3-4.23-8.62-8.41-12.91-12.56l-2-1.94c-11.92-11.51-24.24-23.42-35.68-35.87-6.49-7.08-10.21-16.94-10.21-27.05ZM157.11,624.89l-2.34-1.51.17-2.77c1.19-18.77,9.38-34.81,16.6-48.96,1.5-2.93,3.72-4.86,6.45-5.63,2.83-.8,5.87-.27,8.81,1.51,2.88,1.76,4.92,3.5,6.37,5.49,5.37,7.34,7.53,17.38,5.88,27.56-1.58,9.83-6.53,18.37-13.61,23.44-9.16,6.56-18.95,6.86-28.34.88ZM27.59,884.9c-4.46-7.89-9.03-17.51-9.03-28.95,0-1.55.09-3.11.27-4.71.28-2.05.52-3.96.75-5.89.54-4.35,1.09-8.84,2.06-13.3,2.51-11.33,9.65-20.6,19.58-25.45,9.94-4.86,21.66-4.77,32.14.22,13.56,6.45,22.63,14.92,28.58,26.66,5.36,10.59,11.05,23.44,12.71,38.43,2.59,22.91-6.94,31.43-26.53,39.91-25.02,10.82-48.91-6.38-60.53-26.93ZM142.71,1154.44l-2.28-2.01.89-2.91c5.02-16.56,18.99-22.63,30.59-26.07,4.16-1.23,10.98.24,13.9,4.06,2.83,3.7,2.35,10.5.19,14.29-3.11,5.44-7.02,11.61-12.35,16.13-9.15,7.76-19.56,6.58-30.94-3.5ZM102.01,1383.22c-7.6-1.62-12.01-12.68-11.79-19.29.05-.74.09-1.43.11-2.11.69-19.67,6.5-26.07,28.27-31.16,5.47-1.28,10.51-2.36,15.38-3.29,5.81-1.11,7.24-2.99,7.28-9.54.02-7.56-2.41-9.43-7.59-10.05-9.7-1.15-20.07-2.91-30.17-8.02-7.06-3.57-11.36-9.5-12.09-16.7-.15-1.42-.42-2.89-.69-4.38-.48-2.55-1-5.37-1-8.29,0-5.95,2.21-10.6,6.76-14.21,2.49-1.97,5.88-4.65,9.9-5.12,10.54-1.25,22.95-1.26,34.98,8.18,17.95,14.1,34.7,25.98,51.19,36.34,12.77,8.02,24.55,12.64,36.01,14.11,1.89.24,3.34.98,5.19,1.92,1.06.53,2.04,1.03,3.28,1.58l8.84,3.94-8.54,4.54c-1.16.62-2.02,1.13-2.73,1.54-1.64.96-2.81,1.65-4.39,1.96-17.49,3.37-33.63,10.6-49.36,22.1-4.86,3.56-9.74,7.1-14.62,10.64-9.17,6.65-18.32,13.29-27.39,20.07-11.97,8.96-24.78,7.82-36.83,5.24ZM141.77,1485.48l-1.06-3.06,2.47-2.09c6.89-5.84,13.65-8.4,20.08-7.63,6.24.76,11.93,4.62,16.91,11.46,2.5,3.44,4.73,6.58,6.44,10.24,3,6.42,1.72,10.6.11,12.98-1.63,2.43-5.14,5.25-12.57,4.86-12.98-.68-27.51-12.68-32.39-26.75ZM94.73,1813.08c-11.23,16.13-34.38,22.73-53.86,15.34-9.65-3.67-15.92-11.15-18.63-22.23-1.27-5.2-1.95-10.49-2.61-15.61-.3-2.3-.59-4.54-.93-6.76l-.06-.7c.76-27.84,16.12-50.61,41.11-61.07,12.44-5.2,23.49-1.04,32.88,3.26,18.14,8.32,24.03,19.35,21.8,40.68-2.13,19.73-11.65,35.53-19.7,47.09ZM154.65,2014.93l-.48-3.67,3.45-1.34c9.04-3.54,17.18-3.75,24.17-.62,7.03,3.13,12.35,9.36,15.81,18.53,6.21,16.65-1.5,35.87-16.9,42.01l-3.49,1.38-2.14-3.07c-11.2-16.11-17.88-33.52-20.42-53.21ZM1144.71,2558.89c-15.18,2.54-30.68,3.29-44.01,3.79-21.28.8-42.03-2.21-63.2-5.64-7.96-1.29-15.71-3.55-23.21-5.74-5.1-1.48-10.07-2.94-14.97-4.07-15.47-3.59-30.08-9.69-44.22-15.58-10.63-4.43-21.58-9-32.65-12.37-14.8-4.52-28.8-11.01-42.33-17.29l-5.7-2.63c-17.21-7.92-34.91-14.3-51.58-20.16-25.04-8.8-51.64-17.72-81.32-27.26-2.64-.85-5.3-1.74-7.94-2.62-13.3-4.46-27.04-9.07-41.27-8.63l-.64.02-1.12-.27c-12.27-6.03-25.61-7.36-38.51-8.64-3.09-.31-6.16-.61-9.23-.98-11.69-1.38-23.78-1.86-35.47-2.32-4.09-.16-8.15-.33-12.22-.53-8.59-.42-17.37-.64-25.84-.86l-7.3-.19c-6.79-.18-13.5-.36-20.08-.3-3.61.03-7.23.03-10.84.03h-.77c-11.03,0-22.44-.02-33.53.9-12.6,1.06-24.98,2.82-38.08,4.67-5.74.82-11.53,1.64-17.43,2.41l-2.73.35-6.85-9.1c-2.79-3.71-5.73-7.6-8.72-11.45-12.05-15.54-28.22-26.6-43.86-37.3-10.76-7.37-22.91-15.67-36.95-18.1-9.47-1.64-18.91-3.9-28.05-6.08-17.05-4.08-34.63-8.29-52.46-8.4-12.64-.09-25.7-.18-39.42,4.4l-4.21,1.4-3.66-9.12c-1.41-3.57-2.71-6.9-4.19-10.15-4.22-9.28-8.47-18.54-12.73-27.8-5.22-11.37-10.24-22.3-15.19-33.25-1.37-3-2.55-6.09-3.73-9.18-1.11-2.89-2.19-5.71-3.42-8.45-1.62-3.6-3.4-7.11-5.19-10.63-1.21-2.38-2.41-4.76-3.56-7.16-1.45-2.97-2.84-5.87-3.74-8.98-2.93-10.2-5.9-20.38-8.88-30.56-8.39-28.72-16.92-57.9-24.34-86.9-4.56-17.79-9.14-35.69-2.94-54.47,1.02-3.06,2.24-5.98,3.66-9.35l6.3-15.45,9.07,19.53c2.93,6.37,5.5,11.93,8.3,17.51,1.64,3.24,3.78,6.41,6.19,9.16,6.34,7.2,14.77,10.41,23.75,9.04,9.59-1.47,18.4-7.78,21.93-15.71,10.75-24.17,8.77-44.1-6.07-60.98-10.98-12.47-21.98-16.87-34.63-13.85-2.76.66-5.55.51-8.23.37-1.37-.07-2.6-.13-3.94-.13h-5.15l.44-5.13c.21-2.48.4-4.94.58-7.39.4-5.37.83-11.19,1.57-16.83,1.46-11.01,3.1-22.01,4.75-33,3.41-22.93,6.85-46.04,8.53-68.81,1.9-25.95-2.18-53.02-12.16-80.49-4.78-13.19-9.68-26.01-16.99-37.85-2.49-4.03-3.02-8.68-3.54-13.17-.25-2.17-.44-3.92-.79-5.59-1.3-6.1-2.62-12.18-3.95-18.27l-3.1-14.19c-.83-3.66-1.64-7.33-2.29-11.03-6.62-36.91-9.25-71.85-8.04-106.83l.16-4.76c.47-14.35.96-29.19,4.09-43.77,1.14-5.27,2.84-10.29,4.66-15.62.94-2.76,1.82-5.31,2.66-8l2.49-7.84,5.53,6.1c10.69,11.83,23.41,18.85,40.03,22.07,8.6,1.67,16.63-1.12,21.48-7.46,5.75-7.55,6.75-16.02,2.73-23.24-.81-1.46-1.6-2.93-2.38-4.4l-.59-1.09c-2.35-4.41-4.68-8.76-7.28-12.67-6.3-9.45-22.32-15.14-33.59-11.94-2.06.59-4.14,1.22-6.47,1.92l-9.32,2.79-.5-5.78c-2.2-24.88-2.86-47.19,11.17-68.26,7.22-10.83,15.88-21.84,30.23-29.03,6.64-3.32,13.16-7.49,19.44-11.51,5.58-3.56,11.11-7.1,16.84-10.21,12.25-6.65,24.8-10.59,38.35-12.03,8.74-.93,17.66-3.47,26.29-5.92,2.23-.64,4.36-1.25,6.48-1.83,5.15-1.42,5.6-3.45,5.6-5.24v-.03c-.03-1.83-.69-4.09-5.57-5.17-5.63-1.24-11.4-2.26-17.01-3.26-7.66-1.35-15.59-2.76-23.36-4.75-11.85-3.03-21.6-6.69-29.84-11.2l-6.26-3.4c-15.65-8.49-31.84-17.26-45.86-28.57-12.02-9.7-20.96-24.3-25.16-41.13-3.6-14.43-2.76-28.52-1.89-43.45l.43-7.36,5.21.88c.87.15,1.71.26,2.52.37,1.98.27,3.81.53,5.76,1.11,15.89,4.78,29.99-.59,38.69-14.73,1.28-2.07,2.45-4.2,3.63-6.34,1.17-2.1,2.32-4.19,3.56-6.23,5.85-9.66,2.45-18.7-1.44-24.6-3.99-6.04-11.39-8.96-20.31-8-13.48,1.46-25.97,7.34-37.15,17.49-.49.44-.95.9-1.4,1.36-.62.62-1.17,1.17-1.75,1.7-1.14,1.01-2.32,1.24-3.19,1.41l-5.98,1.34-1.17-4.42c-.86-3.19-1.82-6.37-2.78-9.55-2.17-7.21-4.4-14.55-5.36-22.13-1.99-15.77-3.01-33.01-3.01-51.23,0-22.02,1.44-42.03,2.68-57,.97-11.51,2.86-22.99,4.69-34.1l1.69-10.46c.37-2.33,1.22-4.42,1.96-6.27.4-1,.78-1.92,1.08-2.86.61-1.92,1.38-3.87,2.14-5.81l.25-.64c1.44-3.62,2.88-7.09,2.61-10-.51-16.41,5.67-29.31,12.31-42.93l1.72-3.52c8.76-18.15,14.76-38.71,18.34-62.86,4.63-31.34,1.04-61.7-3.57-89.85-2.69-16.47-4.96-32.67-7.36-49.83l-.81-5.76c-.9-6.45-1.81-12.97-2.76-19.56l-.87-6.04,6.06.67c2.19.24,4.21.5,6.11.74,3.75.47,6.89.87,9.97.99,13.27.54,24.19-5.04,33.38-17.06,12.69-16.62,14.02-35.86,4-58.83-5.59-12.79-18.62-15.27-25.89-15.61-10.45-.49-18.9,5.05-25.1,16.46-3.11,5.73-5.87,11.8-8.81,18.22-1.51,3.32-2.97,6.52-4.55,9.84l-3.57,7.64-4.65-7.06c-7.82-11.93-10.79-24.42-8.9-37.09,2.19-14.79,4.92-31.98,9.44-48.75,8.92-33.2,18.49-65.45,29.2-101.15,1.13-3.76,3.2-7.09,5.04-10.04,1.31-2.1,2.53-4.08,3.42-6.12,3.95-9.2,7.79-18.46,11.62-27.72,4.51-10.84,8.94-21.51,13.54-32.11,4.39-10.1,9.16-20.22,13.76-30.01,2.19-4.66,4.31-9.14,6.4-13.65l1.54-3.33,3.61.67c1.96.36,3.89.77,5.81,1.18,4.06.86,7.75,1.64,11.4,1.94,25.1,2.08,47.7.02,69.11-6.3,8.18-2.42,15.01-3.91,21.5-4.72,24.51-3.04,44.29-16.15,58.78-27.22l4.85-3.68c11.9-9,24.2-18.3,32.96-30.57,2.45-3.45,4.79-6.98,7.18-10.62l5.12-7.7,3.08.59c3.11.6,6.05,1.23,8.9,1.84,5.7,1.22,11.03,2.37,16.23,2.87,11.04,1.07,22.24,1.64,33.08,2.18l17.6.96c10.4.6,21.05,1.22,31.45,1.25,8.46.02,17.13-.43,25.51-.87,5.01-.27,9.73-.51,14.46-.69,3.53-.13,7.07-.16,10.62-.19,5.94-.05,12.09-.1,18.07-.68,4.76-.45,9.52-.85,14.28-1.24l.68-.06c15.86-1.31,32.26-2.67,47.69-6.26,5.91-1.37,11.95-2.51,17.8-3.6,10.59-1.99,21.54-4.04,31.86-7.6,7.96-2.75,16.13-5.35,24.03-7.86,8.85-2.81,17.51-5.56,25.91-8.49,7.4-2.58,14.88-5.43,22.12-8.19,11.4-4.35,23.04-8.79,34.82-12.35,15.48-4.69,30.31-11.7,44.66-18.48,3.81-1.8,7.54-3.56,11.28-5.29,7.99-3.69,16.33-6.48,24.41-9.18,4.87-1.63,9.88-3.31,14.73-5.15,5.79-2.21,11.53-4.61,17.28-7,9.13-3.81,19.47-8.12,29.71-11.39l8.65-2.79c20.78-6.75,42.27-13.72,65.01-15.28,2.19-.15,4.36-.51,6.65-.88,1.84-.31,3.57-.59,5.31-.79,26.21-3.09,51.66-2.84,75.64.77,3.7.56,7.26,1.39,10.56,2.48,16.38,5.39,17.51,6.5,24.11,23.81l1.53,4.01-3.79,2.04c-3.56,1.6-6.95,3.15-10.34,4.7-7.84,3.58-15.55,7.08-23.23,10.35-18.61,7.93-31.66,31.77-27.45,50.05,2.97,12.77,10.66,22.68,24.21,31.17,7.22,4.53,15.81,5.38,27.85,2.75,17.27-3.77,27.75-13.39,32.07-29.41,5.39-19.99,7.17-35.92,5.69-51.62l-.28-3,3.27-1.97c.94-.67,2.41-1.73,4.37-2.09,23.36-4.26,50.6-8.36,78.33-3.02,4.98.96,10.17,1.5,15.19,2.03,2.97.31,5.94.62,8.91,1.01,6.01.8,12.02,1.62,18.02,2.46,12.53,1.73,24.93,3.44,37.13,4.83,5.62.64,11.81.59,18.94-.17l9.09-.94c14.3-1.45,29.09-2.96,43.38-5.7,9.28-1.77,18.6-5.07,27.63-8.26,3.34-1.18,6.15-2.17,8.98-3.12,2.61-.88,5.27-2.05,7.83-3.17,4.63-2.03,9.42-4.14,14.67-5.03,8.21-1.39,14.55-5.69,19.68-9.72,4.67-3.66,9.25-4.62,13.49-5.11,8.34-.96,16.65-2.07,24.97-3.19,13.73-1.85,27.69-3.72,41.52-4.84,8.82-.72,17.78-2.05,26.46-3.34,14.78-2.2,29.91-4.46,45.3-3.97,5.84.18,11.91-.28,17.79-.72,5.08-.38,10.26-.78,15.44-.79,9.28-.03,19.89.65,28.43,9.25l3.31,3.33-3.32,3.34c-2.09,2.11-4.17,4.19-6.24,6.24l-.46.46c-4.42,4.39-8.61,8.56-12.7,12.93-11.7,12.48-14.75,32.2-7.42,47.94l1.5,3.3c3.55,7.92,6.51,14.53,13.73,18.36,14.88,7.89,27.68,8.47,40.31,1.81,12.64-6.67,20.84-14.82,25.77-25.65,5-11,4.93-22.21-.21-35.27-1.49-3.76-3.22-7.45-5.06-11.34-1.02-2.13-1.96-4.13-2.9-6.2l-2.25-4.95,5.21-1.54c8.57-2.53,17.71-4.55,27.09.82l.59.34c.47.27,1.05.61,1.33.68,24.71,6.89,41.84,23.43,60.12,42.73,11.09,11.71,18,25.31,21.13,41.58l.56,2.91c1.58,8.07,3.21,16.42,3.24,25.16,0,1.74.51,3.68,1.32,5.05.58.98,1.68,1.58,2.96,1.6,1.27.02,2.37-.53,2.95-1.48,1.06-1.71,1.58-3.53,1.45-4.39-.85-8.94,1.16-17.11,3.1-25.01.95-3.87,1.85-7.54,2.4-11.11,1.55-9.83,6.19-19.02,14.64-28.92,8.77-10.3,19.04-20.23,33.3-32.2,9.48-7.94,20.41-11.93,30.98-15.78,3.17-1.15,6.25-2.27,9.29-3.49,4.22-1.69,8.87-1.06,13.38-.46,2.1.28,4.08.54,6.14.64l6.79.33-2.67,6.25c-.73,1.7-1.37,3.29-1.97,4.8l-.42,1.03c-1.51,3.78-2.82,7.06-4.61,10.29-12.78,23.02-1.16,48.45,17.47,59.73,9.41,5.7,19.85,10.57,32.4,7.6,13.84-3.27,22.39-9.97,27.7-21.73,6.76-15.02,7.59-27.54,2.61-40.6-4.36-11.4-13.29-19.58-21.32-26.36-1.05-.88-2.14-1.7-3.38-2.63l-5.63-4.28,2.3-3.65c7.02-11.14,18.45-11.27,26.8-11.37h.96c25.65-.37,51.02,1.31,75.38,4.99,20.1,3.03,40.42,5.68,60.07,8.24l2.99.39c7.76,1.01,15.51,2.02,23.25,3.06l.33.04c13.42-1.78,23.76,4.41,32.41,10.37,4.13,2.86,9.61,4.59,14.9,6.26,1.84.58,3.68,1.16,5.48,1.79,3.42,1.19,6.83,2.41,10.24,3.64l1.35.48c11.24,4.04,22.86,8.22,34.48,11.19,10.55,2.69,21.74,4.09,32.58,5.44l1.22.15c2.54.32,5.09.64,7.62.98,5.16.69,10.85.96,17.92.84,9.31-.15,18.92-.31,28.41-1.31,10.71-1.14,21.6-2.52,32.13-3.85,8.44-1.07,16.89-2.14,25.35-3.1,3.75-.43,7.49-.91,11.25-1.39,11.92-1.54,24.01-3.11,36.03-2.96,10.35.13,20.55,1.92,30.4,3.64,4.39.77,8.47,1.48,12.5,2.06l3.76.54.28,3.79c.26,3.57.45,7.04.63,10.45l.04.75c.41,7.8.8,15.16,1.98,22.29,1.06,6.36,3.05,12.77,4.98,18.97l.23.76c.89,2.89,1.78,5.79,2.58,8.7,2.51,9.14,8.94,15.16,20.2,18.94,11.85,3.96,23.37,7.02,34.18.98,18.28-10.2,27.56-24.95,27.56-43.84,0-3.74-1.9-7.84-3.83-11.75-7.23-14.66-16.33-23.54-28.62-27.97-6.96-2.51-13.39-5.75-20.18-9.17-3.27-1.65-6.11-3.08-9.03-4.46l-3.11-1.49.45-3.41c1.68-12.39,8.35-20.23,20.42-23.98,18.31-5.7,37-6.51,54.47-6.53,20.23-.03,38.64,1.72,56.28,5.36,9.21,1.9,18.47,4.15,27.43,6.33l.15,2.66h0l.61-2.48c5.11,1.24,10.21,2.48,15.34,3.66,15.2,3.51,29.53,9.52,43.39,15.33,11.3,4.73,22.8,9.55,34.46,12.9,13.64,3.91,26.35,9.94,38.65,15.76,8.21,3.88,16.36,7.74,24.57,10.93,4.7,1.83,9.45,3.52,14.2,5.22,6.7,2.39,13.64,4.86,20.44,7.73,23.56,9.93,48.48,17.43,72.57,24.67l10.71,3.23c3.15.95,6.29,1.98,9.44,3,12.95,4.22,26.09,8.51,39.66,7.83l1.73-.09,1.38,1.06c6.04,4.61,13.44,5.21,21.27,5.85,3.37.27,7.2.58,10.93,1.29,18.29,3.49,38.16,4.91,62.53,4.48,9.97-.18,20.06.3,29.8.77,7.37.36,14.61.71,21.7.81l1.09.02c14.08.2,28.63.4,42.7-.78,16.07-1.35,32.78-3.7,49.65-6.99,7.9-1.53,13.09.76,16.81,7.45,10.6,18.95,28.13,31.8,45.07,44.23l1.16.85c2.07,1.53,4.16,3.05,6.21,4.59,15.95,11.9,35.46,19.37,59.64,22.84,5.37.78,10.72,2.2,15.45,3.47,4.6,1.22,9.37,2.49,14,3.18,23.01,3.45,45.57,5.96,68.5-1.13l4.14-1.28,3.78,9.33c1.54,3.81,3.02,7.5,4.61,11.16,4.29,9.84,8.61,19.67,12.94,29.5,8.18,18.58,16.6,37.7,24.62,56.64,19.49,46.04,28.46,79.8,39.92,126.06,2.59,10.5,4.59,21.25,6.52,31.65l.89,4.74c2.27,12.24.38,24.56-5.86,37.69-.66,1.4-1.6,2.45-2.34,3.3-1.66,1.88-3.35,2.12-3.91,2.2l-3.66,1.11-1.54-3.9-3.78-8.2c-2.98-6.58-5.7-12.48-8.66-18.19-5.47-10.55-13-16.15-23.02-17.14-12.3-1.21-25.26,6.96-29.47,18.61-7.79,21.44-7.01,37.3,2.48,51.45,11.65,17.37,23.56,23.46,39.82,20.38,2.67-.5,5.28-.4,8.03-.28,1.35.05,2.7.11,4.2.11h5.37l-2.41,18.92c-1.42,11.08-2.84,22.21-4.29,33.34-1.05,8.04-2.21,16.06-3.38,24.09-2.54,17.55-5.17,35.58-6.41,53.33-1.83,26.02,2.15,53.54,11.92,81.74,3.82,11.05,9.26,25.44,17.51,38.76,3.35,5.42,3.8,12.44,3.96,18.61.25,9.73,2.19,18.75,5.93,27.59,2.23,5.26,3.07,10.87,3.88,16.29l.32,2.08c6.14,39.71,8.47,72.25,7.28,102.36-.12,2.83-.21,5.64-.3,8.45-.43,13.6-.86,27.53-3.87,41.21-1.18,5.39-3.01,10.75-4.78,15.94-.94,2.77-1.84,5.39-2.71,8.17l-2.62,8.35-5.54-6.8c-7.65-9.4-16.62-14.29-27.72-18.74-5.83-2.33-11.06-3.5-15.56-3.47-8.65.04-15.61,3.56-19.59,9.89-3.93,6.24-4.3,14.16-.98,21.2,3.03,6.44,6.41,12.47,10.04,17.91,6.8,10.21,22.22,15.45,34.37,11.69,1.91-.59,3.81-1.14,6.01-1.79l8.92-2.63.55,5.71c2.25,24.06,3.07,47.47-11.68,69.26-6.97,10.3-15.26,20.77-28.57,27.59-4.84,2.48-9.6,5.74-13.78,8.61-4.66,3.18-9.46,6.45-14.63,9.12-1.85.96-3.72,1.95-5.6,2.95-10.34,5.5-21.03,11.17-32.52,12.72-5.73.76-11.47,2.25-17.03,3.69-6.86,1.78-13.84,3.6-21.15,4.26l-1.42.09c-.57.03-1.39.07-1.64.16-5.16,2.08-6.35,3.11-6.39,5.53,0,2.23.84,3.44,6.04,5.42.53.2,1.37.32,2.17.44.92.13,1.87.28,2.76.51,6.1,1.55,12.46,2.8,18.6,3.99,13.34,2.6,27.11,5.29,39.94,11.36,9.5,4.49,18.54,9.92,27.3,15.16l.68.41c3.39,2.03,6.77,4.05,10.19,6.02,1.06.61,2.03,1.33,3.01,2.07.93.7,1.65,1.26,2.43,1.68,30.23,16.56,44.06,43.34,42.35,81.92l-.13,2.45c-.08,1.38-.15,2.76-.19,4.14-.04,1.34-.05,2.69-.02,4.31l.02,8.85-5.57-1c-.99-.18-1.92-.32-2.79-.46-2.39-.37-4.53-.69-6.6-1.31-14.71-4.38-29.32,1.02-37.18,13.76-1.19,1.91-2.25,3.87-3.32,5.84-1.51,2.77-2.93,5.37-4.58,7.84-6.05,9.17-2.61,18.3,1.36,24.33,4.33,6.62,12.16,9.72,20.95,8.3,16.59-2.68,29.9-9.83,40.7-21.84l5.21-5.81,2.73,7.31c.77,2.05,1.6,4.01,2.4,5.92,2.12,5,4,9.4,4.83,14.28,2.41,14.31,4.42,27.23,4.6,40.55.41,26.83-.1,50.76-1.5,73.12-1.08,17.15-3.95,34.26-6.73,50.81l-.48,2.84c-.59,3.57-2.02,6.77-3.42,9.86-1.39,3.11-2.66,5.96-2.77,8.49-.89,18.9-7.8,34.68-15.11,51.39l-2.19,5.03c-18.18,41.93-23.26,86.76-15.09,133.26,4.08,23.18,7.57,46.64,10.79,68.69.68,4.69.78,9.33.88,14.24.04,2.4.09,4.74.2,7.19l.22,4.93h-4.95c-.9,0-1.82.05-2.74.09-2.89.16-5.82.31-8.75-.3-15.17-3.13-27.1,2.57-38.66,18.5-11.19,15.44-12.04,33.28-2.61,56.16,4.96,12.05,17.69,15.18,24.85,15.97,13.55,1.49,21.51-8.42,25.04-14.46,3.65-6.23,6.73-13.03,9.71-19.61,1.55-3.41,2.97-6.57,4.5-9.76l3.3-6.91,4.7,6.05c.26.35.57.67.89,1.02,1.16,1.29,2.62,2.93,3.5,5.05,4.78,11.5,6.42,22.27,5.13,32.94-3.11,25.12-9.76,49.23-17.49,75.88-7.77,26.78-14.16,48.26-20.14,67.61-1.28,4.11-3.25,7.98-4.99,11.39-.88,1.73-1.54,3.01-2.13,4.3-.47.98-.97,1.93-1.48,2.87-.59,1.1-1.07,2.01-1.48,2.95-12.05,27.67-24.07,55.37-36.09,83.07-1.79,4.11-3.56,8.23-5.4,12.52l-4.26,9.91-3.73-.71c-2.09-.4-4.16-.88-6.23-1.36-4.57-1.06-8.67-2.01-12.66-2.16-19.05-.73-44.03-.63-68.31,6.71-5.73,1.73-11.6,2.88-17.3,3.99-3.23.63-6.22,1.21-9.21,1.88-13.02,2.91-23.71,5.7-33.07,12.82-6.42,4.89-13.04,9.51-19.43,13.97-6.6,4.61-13.29,9.27-19.59,14.1-10.27,7.85-18.47,17.15-24.37,27.65-4.97,8.85-7.84,9.46-17.04,8.03l-1.17-.18c-9.78-1.5-19.87-2.49-29.62-3.44l-9.81-.97c-7.07-.72-14.38-1.47-21.54-1.63-15.14-.36-30.54-.45-45.45-.54l-11.15-.07c-25.05-.18-54.61.22-84.01,4.6-3.21.48-6.45.83-9.71,1.17-9.86,1.05-19.18,2.05-27.5,6.74-.62.35-1.91.95-3.48.92-16.21-.24-31.8,5.01-46.87,10.09-6.27,2.11-12.45,4.19-18.65,5.93-16.7,4.68-33.31,10.74-49.37,16.61-8.88,3.23-17.65,6.44-26.36,9.4-13.39,4.56-26.37,10.57-38.92,16.38-11.4,5.27-23.05,10.65-35.01,15.02-5.03,1.84-10.1,3.6-15.17,5.36-11.59,4.03-23.56,8.2-34.8,13.24-15.11,6.79-30.97,11.37-46.3,15.79-6.46,1.87-12.68,3.66-18.85,5.61-6.53,2.05-13.33,2.87-19.9,3.65-2.96.35-5.69.68-8.38,1.1-31.72,4.92-60.95,5.27-89.36,1.07-3.78-.55-7.71-1.6-12.76-3.39-15.65-5.55-16.87-6.87-21.56-23.62l-1.06-3.76,3.44-1.9c3.92-1.75,7.65-3.36,11.38-4.97,8.37-3.63,16.53-7.16,24.33-10.93,16.96-8.19,28.89-31.38,24.82-48.64-3.02-13.19-10.99-23.29-25.06-31.79-8.03-4.85-17.04-4.27-28.09-1.92-16.43,3.49-26.45,12.64-30.65,27.96-4.39,16.06-8.46,33.22-5.88,50.81.24,1.91-.44,3.32-.83,4.18-.17.36-.35.76-.54,1.27l-.98,2.63-2.77.41c-1.62.24-3.27.44-4.97.65-4.55.55-8.69,1.06-12.61,1.98-25.88,6.11-50.8,2.81-69.62-.75-4.62-.87-9.53-1.3-14.26-1.72-3.11-.27-5.92-.52-8.73-.86-5.34-.64-10.67-1.33-16.01-2.02-10.31-1.33-20.99-2.71-31.47-3.69-9.82-.92-18.6-1.02-26.84-.33-13.36,1.13-27.54,2.49-41.17,5.48-11.36,2.49-22.75,6.22-33.76,9.82l-8.48,2.76c-2.72.88-5.52,2.07-8.22,3.23-4.51,1.93-9.16,3.92-14.2,4.85-7.71,1.42-13.85,5.61-20.37,10.05l-.66.45c-3.36,2.29-7.35,3.87-10.93,4.34-20.88,2.76-42.13,5.34-62.7,7.85l-7.08.86c-3.19.39-6.38.8-9.57,1.21l-2.05.26c-9.57,1.24-20.41,2.65-30.88,3.44-20.26,1.52-41.86,3.02-63.71,3.21-6.66.06-19.06.16-25.63-10.49l-1.96-3.17,2.62-2.64c1.95-1.94,3.85-3.82,5.76-5.68,3.86-3.78,7.85-7.69,11.53-11.72,14.41-15.81,16.97-33,7.83-52.52-9.41-20.1-21.2-26.94-42.02-24.41-12.86,1.56-24.14,8.67-32.65,20.55-11.14,15.6-12.07,31.93-2.73,48.53,1.67,2.95,2.73,5.98,3.86,9.18.48,1.4.98,2.81,1.54,4.25l1.92,4.88-5.04,1.4c-8.84,2.47-18.25,4.41-27.76-1.35-1.79-1.08-4.02-1.82-6.39-2.6-1.17-.39-2.2-.73-3.22-1.11-20.57-7.6-35.1-22.71-49.16-37.33l-2.08-2.17c-11.27-11.67-18.19-25.3-21.17-41.66l-.77-4.2c-1.43-7.66-2.9-15.53-3.04-23.75-.1-5.99-1.26-6.08-4.06-6.29-2.65-.19-3.6.44-4.25,2.84-.22.85-.49,2.1-.49,2.63.94,8.69-1.01,16.59-2.9,24.21-.88,3.53-1.79,7.15-2.32,10.68-2.1,13.49-9.38,23.59-15.48,30.88-11.88,14.22-25.41,26.63-40.22,36.89-4.46,3.09-9.49,4.92-14.35,6.69-3.19,1.16-6.49,2.36-9.4,3.88-9.6,5.02-18.94,5.41-29.41,1.24l-4.52-1.81,1.95-4.47c.64-1.47,1.25-2.96,1.86-4.45,1.45-3.55,2.81-6.9,4.59-10.09,11.3-20.32,3.43-47.13-17.49-59.78-12.26-7.41-21.68-9.71-31.55-7.71-14.63,2.97-23.25,9.4-27.96,20.85-4.28,10.4-8.71,21.15-6,32.74,3.32,14.17,11.48,25.84,24.96,35.7,1.04.75,2.01,1.57,3.12,2.5l5.25,4.34-2.57,3.59c-7.62,10.6-18.77,10.78-27.74,10.94-17.76.3-32.41,0-46.06-.96-9.24-.65-18.47-2.05-27.41-3.4-4.05-.62-7.91-1.2-11.77-1.73l-73.75-10.15c-15.74,1.85-27.23-4.71-36.42-11.37-3.7-2.68-8.64-4.1-13.86-5.62-2.22-.64-4.44-1.29-6.58-2.03-3.84-1.32-7.66-2.7-11.48-4.07l-1.01-.36c-10.55-3.81-21.46-7.76-32.46-10.55-9.96-2.54-20.54-3.87-30.76-5.16-3.88-.49-7.27-.92-10.65-1.4-1.99-.28-4.04-.34-6.17-.4-3.01-.08-6.15-.16-9.29-.76-10.55-2-20.88-.25-31.81,1.61-5.99,1.01-11.94,2.02-17.96,2.43-4.04.27-8.22.92-12.27,1.55-3.64.57-7.21,1.13-10.77,1.47-5.48.54-10.95,1.15-16.44,1.76-15.56,1.71-31.51,3.47-47.33,3.73-10.13.17-20.1-1.65-29.73-3.4-4.12-.75-8.17-1.48-12.18-2.05l-3.75-.54-.3-3.77c-.3-3.89-.52-7.69-.72-11.42-.46-8.16-.88-15.76-2.2-23.11-1.67-9.25-4.55-19.15-9.06-31.15-2.18-5.81-6.62-10.18-12.81-12.64-13.79-5.46-25.2-9.98-37.37-4.46-20.05,9.09-30.21,24.31-30.21,45.23,0,.38,0,.76,0,1.13.06,3.41,2.02,7.44,4.14,11.3,5.25,9.58,13.12,21.25,27.46,26.54,7.19,2.66,14.1,6.07,20.79,9.38,2.99,1.48,5.99,2.97,9.03,4.39l2.86,1.34-.15,3.16c-.95,20-17.34,25.03-29.57,27.08ZM1184.39,123.9l.98,4.98c3.52,17.77.46,32.9-9.66,47.58-3.28,4.77-10.21,8.72-17.65,10.05-6.02,1.09-11.29.32-14.84-2.15-7.91-5.54-11.92-12.15-11.92-19.64,0-3.49.88-7.22,2.59-11.08,2.03-4.53,5.81-12.97,15.71-16.58,2.41-.88,4.73-2.22,7.18-3.64,2.35-1.36,4.76-2.74,7.39-3.84,3.28-1.36,6.66-2.19,10.23-3.06,1.96-.48,3.48-.85,5.08-1.29l4.91-1.34ZM1755.44,96.38l1.97,1.95c8.72,8.62,13.58,17.89,14.84,28.35,1.3,11.03-3.71,20.22-14.6,26.56-11.78,6.85-22.32,7.21-32.23,1.1-7.01-4.34-11.03-11.22-11.03-18.88,0-3.31.74-6.64,2.18-9.9,6.25-14.11,17.76-23.14,36.22-28.41l2.64-.76ZM2039.88,96.63l2.27.62c18.23,4.96,29.7,14.01,36.13,28.46,4.7,10.6,1.41,21.9-8.18,28.15-10.62,6.9-21.91,6.39-34.54-1.57-8.66-5.47-13.44-13.4-13.44-22.36,0-2.23.3-4.51.88-6.78,1.89-7.26,5.49-17.76,15.03-25.09l1.85-1.43ZM2611.03,123.85l4.64,1.37c1.65.48,3.23.91,4.8,1.34,3.5.95,7.12,1.93,10.6,3.36,2.46,1.01,4.72,2.34,6.7,3.51,2.32,1.36,4.52,2.65,6.74,3.36,9.85,3.12,13.69,10.56,17.04,18.56,3.84,9.1,2.03,17.63-5.37,25.34-7.38,7.67-15.57,6.5-22.67,4.81-14.04-3.34-18.39-14.39-21.89-23.27l-.82-2.08c-2.08-5.16-3.14-10.77-3.14-16.63,0-4.83.71-9.87,2.11-15.01l1.26-4.65ZM2615.67,2509.29h-.06c-.62-.05-1.34-.1-2.17-.1h-4.24l-.46-4.22c-.48-4.48-.71-8.19-.71-11.67,0-7.47,1.07-14.02,3.27-20.02,1.77-4.81,4.31-9.13,6.55-12.72,4.82-7.71,13.01-12.25,21.9-12.14,8.69.09,16.55,4.65,21.02,12.17,2.74,4.64,3.2,11.84,1.28,19.25-1.78,6.69-5.29,11.94-9.63,14.41-7.62,4.33-15.75,7.76-23.61,11.08-3,1.27-5.48,2.31-7.94,3.39-1.82.8-3.54.69-5.21.57ZM2038.38,2538.19l-1.83-1.97c-6.03-6.55-13.08-15.7-14.06-28.39-.06-.8-.09-1.56-.09-2.32,0-9.71,4.83-17.54,14.35-23.27,11.9-7.15,23.14-7.42,33.4-.8,9.56,6.17,12.84,17.78,8.02,28.24-7.2,15.6-18.32,23.96-37.17,27.95l-2.62.55ZM1754.74,2538.59l-2.18-.59c-18.1-4.89-29.53-13.87-35.97-28.25-1.41-3.16-2.12-6.43-2.12-9.74,0-6.97,3.21-13.43,8.81-17.71,9.75-7.46,23.08-7.27,35.68.49,11.17,6.89,16.52,19.72,12.76,30.54-2.87,8.16-6.1,17.33-15.14,23.93l-1.83,1.33ZM1185.37,2511.98l-5.55-1.68c-1.76-.52-3.41-.99-5-1.43-4.28-1.19-7.8-2.16-11.29-3.59-2.48-1.02-4.79-2.33-6.81-3.49-2.36-1.35-4.59-2.62-6.85-3.37-11.12-3.67-14.67-13.21-17.27-20.19-.96-2.57-1.43-5.08-1.43-7.51,0-5.8,2.69-11.43,8-16.73,7.81-7.8,16.98-5.51,21.89-4.27,12.11,3.03,16.63,12.02,20.61,19.95l.43.86c5.5,10.92,5.05,21.67,3.78,35.66l-.52,5.78Z"></path>
</svg>