<?xml version="1.0"?>
<svg id="Layer_1" data-name="Layer 1" xmlns="http://www.w3.org/2000/svg" viewBox="0 0 3000 913.57" fill="#394335">
  <defs>
    
  </defs>
  <g>
    <path class="cls-1" d="M480.97.22l-206.08,529.59L69.03.22H0l212.74,547.09h64.25L489.72.22h-8.75Z"></path>
    <path class="cls-1" d="M724.58,498.5c-.41.44-2.17,1.66-5.3,3.67-3.15,2.01-7.01,3.99-11.58,5.92-4.59,1.96-9.27,2.94-14,2.94-3.75,0-7.28-1.09-10.63-3.23-3.34-2.15-6.06-5.93-8.13-11.25-2.09-5.35-3.13-12.83-3.13-22.45v-184.37c-1.96-20.3-8.64-38.75-20.03-55.39-11.41-16.61-26.14-29.92-44.22-39.92-20.3-11.01-41.53-16.49-63.62-16.49-28.64,0-54.79,7.72-78.43,23.15-20.84,13.78-36.09,32.39-45.68,55.9l36.31,21.06c0-.54,1.41-5.22,4.27-13.97,2.85-8.78,7.09-18.91,12.72-30.46,5.63-11.52,12.66-21.82,21.06-30.87,8.42-9.02,18.26-14.11,29.51-15.22,3.21-.27,6.33-.41,9.4-.41,11.96,0,22.94,2.15,32.94,6.47,12.53,5.54,22.58,15.46,30.14,29.7,7.58,14.27,11.39,33.92,11.39,58.95v41.91c-11.69,1.82-27.83,5.24-48.4,10.33-20.57,5.08-42.12,12.09-64.65,21.06-22.53,8.97-42.48,20.22-59.87,33.7-17.37,13.48-28.64,29.49-33.78,47.97-1.39,5.57-2.09,11.2-2.09,16.91,0,10.98,2.5,22.17,7.5,33.56,6.82,15.74,16.63,28.73,29.43,39,12.77,10.3,27.45,16.77,44,19.41,4.19.57,8.26.84,12.31.84,14.73,0,28.83-3.53,42.34-10.63l14.81-7.94h.63c.54-.57,20.03-11.11,58.4-31.71.82,12.39,4.38,23.73,10.63,34,6.25,10.3,16.2,15.66,29.84,16.06,13.62-.81,27.07-5.14,40.36-12.94,13.26-7.77,26.85-17.45,40.76-28.97l-5.22-6.28ZM607.59,487.25c-11.41,6.82-22.37,11.5-32.86,14.08-10.49,2.58-19.08,3.86-25.76,3.86-8.21,0-16.6-1.25-25.25-3.75-15.27-4.73-29.76-16.06-43.37-34-10.71-15.44-16.06-29.4-16.06-41.93l.22-5c1.66-13.61,7.42-25.41,17.31-35.36,9.87-9.95,20.98-18.1,33.37-24.51,12.37-6.39,23.07-11.11,32.12-14.19,27.94-7.36,48.02-11.96,60.28-13.75v154.55Z"></path>
    <path class="cls-1" d="M861.01,498.72h-.22c-.27.41-2.2,1.76-5.73,4.08-3.56,2.28-7.58,4.26-12.09,5.92-4.54,1.69-8.67,2.53-12.42,2.53-1.39,0-2.72-.08-3.97-.22-11.96-1.66-18.07-13.83-18.34-36.5V0h-100.74v8.34l3.75.44c7.09.84,13.7,4.38,19.81,10.63,8.62,8.91,12.94,22.88,12.94,41.93v423.82l.22,7.31c.41,9.19,2.31,18.59,5.73,28.26,3.4,9.65,9.35,16.99,17.83,21.99,5,2.8,10.71,4.19,17.09,4.19,20.44,0,47.56-13.91,81.37-41.72l-5.22-6.47Z"></path>
    <path class="cls-1" d="M1522.43,1.05v385.23l-1.68,20.65c-3.32,38.13-10.35,69.49-21.06,94.09-7.09,16.28-16.47,26.06-28.16,29.4-4.73,1.14-9.32,1.66-13.75,1.66s-8.59-.52-12.83-1.52c-.98-.22-1.96-.46-2.94-.76-.24-.08-.49-.14-.73-.22-.16-.05-.33-.11-.49-.16-.76-.22-1.52-.46-2.26-.73-8.78-2.96-16.71-6.93-23.83-11.82-7.85-5.44-14.05-10.54-18.89-15.03-8.75-8.13-31.42-37.61-34.35-47.29,3.34-12.18,4.27-21.12,5.33-34.51,1.3-16.66,8.13-19.24,29.05-19.24v-2.99h-62.37v2.99c20.95,0,26.93,1.71,26.06,19.65-4.27,37.64-17.94,68.78-39.3,89.3-65.79-40.63-126.24-118.35-131.97-185.4-.3-3.45-.46-6.85-.46-10.24,0-9.46,1.9-17.61,5.19-24.46,1.03-2.2,2.23-4.24,3.53-6.14,9.38-13.78,25.11-20.68,40.85-20.68,25.63,0,51.69,17.96,51.69,52.97h3.4v-30.74c-11.09-17.09-32.45-26.03-53.81-26.03-16.58,0-33.16,5.24-45.3,16.09-1.36,1.2-2.66,2.47-3.89,3.83-.49-1.28-1.01-2.55-1.55-3.83-1.47-3.7-3.18-7.45-5.08-11.22-12.94-25.46-35.19-46.83-66.75-64.05l-10.44-5c-24.32-11.12-49.98-16.66-76.96-16.66-24.59,0-48.13,4.65-70.6,13.94-22.45,9.32-42.48,22.75-60.06,40.25-17.58,17.53-31.01,37.53-40.25,59.98-9.27,22.45-13.89,45.98-13.89,70.63s4.62,48.29,13.89,70.69c9.24,22.39,22.67,42.37,40.25,59.95,17.58,17.58,37.61,31.06,60.06,40.36,22.48,9.32,46.01,13.97,70.6,13.97s48.32-4.65,70.71-13.97c17.2-7.15,33.02-16.74,47.42-28.75,1.25-1.03,2.53-2.12,3.75-3.21.54,1.09,1.09,2.17,1.68,3.21,14.57,26.58,43.51,46.39,82.97,46.39,37.18,0,64.92-10.25,85.44-27.34,25.79,13.75,51.96,21.77,75.01,22.15.16.03.3.03.46.03,4.67.3,8.91.46,12.61.46,6.82,0,14.59-.27,23.37-.84,12.91-.81,27.34-3.53,43.27-8.13,15.93-4.59,31.61-12.09,47.04-22.53,2.77-2.09,5.49-4.21,8.13-6.47,36.44-30.3,55.14-76.67,56.12-139.12V1.05h-64.25ZM955.48,229.55c16.41-23.15,35.95-37.31,58.62-42.45,4.86-.43,9.73-.63,14.59-.63s9.67.19,14.4.63c23.34,5.27,43.37,20.08,60.06,44.43,3.34,4.57,7.17,11.28,11.47,20,4.32,8.78,7.28,17.09,8.86,24.95,1.6,7.85,2.42,14.13,2.42,18.86,0,6.82-.98,13.7-2.93,20.65h-201.27c6.11-34.46,17.39-63.29,33.78-86.45ZM1149.71,428.02c-.22.43-.41.87-.6,1.3-9.76,20.6-27.99,58.08-67.23,88.79-17.07,13.34-34,21.5-53.18,21.5-3.89,0-6.25-.08-7.09-.22-19.59-2.23-37.18-11.39-52.75-27.45-15.6-16.06-27.99-37.12-37.23-63.19-9.27-26.06-13.89-54.76-13.89-86.04,0-13.21.84-26.01,2.5-38.37h254.4c.65,21.23,6.11,42.37,14.89,62.78-19.19,10.71-32.23,25.08-39.81,40.9ZM1245.91,538.76c-38.75,0-66.31-20.22-79.44-46.66-3.02-6.03-5.27-12.39-6.74-18.92-6.58-29.27,2.91-61.72,31.93-81.77,23.92,52.1,70.06,98.65,118.33,126.86-17.53,13.24-38.86,20.49-64.08,20.49Z"></path>
    <path class="cls-1" d="M1969.92,291.61c-9.24-22.39-22.67-42.37-40.25-59.98-17.58-17.58-37.59-31.04-59.98-40.36-22.37-9.29-45.96-13.97-70.69-13.97s-48.32,4.67-70.71,13.97c-22.39,9.32-42.37,22.78-59.98,40.36-17.58,17.61-31.04,37.59-40.36,59.98-9.32,22.39-13.97,45.95-13.97,70.71s4.65,48.13,13.97,70.61c9.32,22.45,22.77,42.48,40.36,60.06,17.61,17.58,37.59,31.01,59.98,40.25,22.39,9.27,45.96,13.89,70.71,13.89s48.32-4.62,70.69-13.89c22.39-9.24,42.4-22.66,59.98-40.25,17.58-17.58,31.01-37.61,40.25-60.06,9.24-22.48,13.89-46.01,13.89-70.61s-4.65-48.32-13.89-70.71ZM1895.9,448.14c-9.27,26.06-21.71,47.12-37.34,63.19-15.65,16.06-33.26,25.22-52.89,27.45h-6.66c-3.91,0-6.28-.08-7.09-.22h-.22c-19.46-2.23-36.99-11.36-52.56-27.42-15.57-16.06-28.02-37.12-37.34-63.21-9.32-26.06-13.97-54.73-13.97-86.04s4.27-57.61,12.83-82.81c8.56-25.16,20.06-45.9,34.51-62.24,14.46-16.36,30.79-26.52,49.03-30.57h.19c4.73-.41,9.59-.62,14.62-.62s9.59.22,14.19.62c18.34,4.05,34.79,14.21,49.33,30.57,14.51,16.34,26.04,37.07,34.51,62.24,8.48,25.19,12.72,52.78,12.72,82.81s-4.62,60.2-13.86,86.26Z"></path>
    <path class="cls-1" d="M2216.36,179.18c-36.28,0-67.51,22.94-93.65,68.84-13.21,23.51-24.68,52.42-34.41,86.77-5.44,19.19-9.73,37.04-12.94,53.59v-209.4h-100.74v8.34l3.13.41c6.11.84,12.09,3.61,17.94,8.34,10.16,8.61,15.22,23.34,15.22,44.22v306.83h64.46v-108.46c3.75-31.14,10.71-65.01,20.84-101.59,5.44-19.46,12.53-39.43,21.28-59.87,7.36-15.84,16.5-27.07,27.34-33.67,10.84-6.6,19.51-10.03,26.06-10.22,6.52-.22,10.3-.33,11.25-.33,19.35,0,38.05,4.32,56.12,12.94l10,4.81,29.21-51.94c-21.55-13.07-41.93-19.62-61.12-19.62Z"></path>
    <path class="cls-1" d="M2690.24,691.86c-5.41-15.3-12.91-29.05-22.5-41.31-16.55-21.25-36.58-37.53-60.09-48.81-23.51-11.25-47.69-18.94-72.59-23.04-24.89-4.1-48.1-6.14-69.65-6.14s-40.96.9-56.12,2.72l-21.06,2.72c-8.07.68-15.84,1.66-23.34,2.91-9.76,1.39-18.1,2.09-25.03,2.09-9.19,0-16.06-1.2-20.65-3.56-7.66-4.02-11.47-9.59-11.47-16.69,0-7.5,1.93-14.86,5.84-22.09.82-1.25,2.42-4.05,4.78-8.34,2.36-4.32,5-9.05,7.94-14.19,2.91-5.14,5.44-9.7,7.61-13.67,2.15-3.97,3.45-6.22,3.86-6.77,29.62,15.57,61.53,23.35,95.74,23.35,25.44,0,49.65-4.29,72.67-12.94,23.02-8.61,43.65-21.06,61.85-37.31,18.07-16.55,31.91-35.33,41.5-56.34,9.59-20.98,14.4-43.02,14.4-66.12s-4.81-45.11-14.4-66.09c-11.96-26.14-30.25-48.54-54.84-67.18,4.29-10.41,11.12-22.17,20.44-35.25,5.84-3.48,13.07-5.22,21.69-5.22,14.19,0,30.74,3.07,49.65,9.19l7.28,2.5,13.15-50.68c-8.21-2.23-16.2-3.34-24-3.34-26.55,0-50.2,12.66-70.9,37.96l-2.5,3.13c-9.89,13.51-17.12,25.74-21.71,36.71-34.49-22.94-72.56-34.41-114.28-34.41-25.33,0-49.52,4.29-72.59,12.94-23.1,8.61-43.7,21.11-61.85,37.53-18.15,16.41-32.01,35.11-41.61,56.12-9.59,20.98-14.38,43.02-14.38,66.09s4.78,45.14,14.38,66.12c15.03,32.96,39.35,59.38,73,79.27-.41.54-1.79,2.99-4.16,7.31-2.36,4.29-5.19,9.35-8.45,15.11-3.26,5.76-6.36,11.25-9.29,16.47-2.91,5.22-5.05,9.02-6.47,11.39-3.89,6.25-7.66,13.29-11.36,21.17-3.67,7.86-5.79,14.27-6.36,19.27-.54,5.03-.84,8.29-.84,9.81,0,6.82,1.74,13.43,5.22,19.81,8.61,13.78,22.61,21.55,41.93,23.37h3.34c14.02,0,28.37-2.36,42.97-7.09l31.91-8.97c9.32-2.5,15.84-4.32,19.59-5.44,17.94-3.89,35.11-5.84,51.53-5.84,15.16,0,29.68,1.69,43.59,5.03,28.78,7.09,52.21,20.92,70.31,41.5,20.14,23.34,30.22,54.35,30.22,93.03,0,28.24-4.29,53.1-12.91,74.65-14.19,33.67-39.08,56.66-74.68,69.06-14.59,5.14-27.31,8.34-38.16,9.59l-3.56.22c-3.75.41-8.56.81-14.4,1.25-7.5.54-17.37.82-29.6.82-38.67,0-72.67-3.13-101.99-9.38-19.89-4.16-38.24-11.74-55.09-22.75-15.71-11.79-24.68-22.96-26.9-33.46-2.2-10.52-3.32-18.81-3.32-24.92,0-8.78,1.3-17.61,3.94-26.5,4.46-15.03,10.63-28.91,18.48-41.72,7.85-12.8,15.03-23.16,21.58-31.09l9.81-11.69-34.43-42.97c-17.23,13.21-30.44,29.43-39.62,48.62-9.19,19.19-13.75,39.14-13.75,59.84v2.72c.82,21.82,6.47,42.23,16.88,61.23,10.44,18.97,24.62,34.65,42.56,47.02,17.66,11.41,36.74,19.3,57.26,23.67,20.49,4.4,41.17,7.06,62.04,8.04,14.32.98,29.68,1.52,46.09,1.66,47.42,0,89.06-6.74,124.93-20.22,28.51-11.28,52.99-27.18,73.43-47.78,21.96-22.5,36.14-47.56,42.56-75.09,2.2-10.14,3.32-20.3,3.32-30.44,0-16.01-2.77-32.04-8.34-48.19ZM2317.32,347.92c0-27.94,4.43-53.59,13.34-76.97,8.89-23.34,20.9-42.64,35.98-57.89,15.08-15.22,32.23-24.7,51.42-28.45,5.14-.44,10.27-.63,15.44-.63s10.27.19,15.44.63c19.19,3.75,36.31,13.24,51.39,28.45,15.11,15.25,27.1,34.54,35.98,57.89,8.91,23.37,13.37,49.03,13.37,76.97,0,30.33-5.22,57.91-15.65,82.81-10.44,24.89-24.43,44.79-42.04,59.65-17.58,14.89-37.07,22.31-58.48,22.31s-40.93-7.42-58.51-22.31c-17.61-14.86-31.61-34.76-42.04-59.65-10.41-24.89-15.63-52.48-15.63-82.81Z"></path>
    <path class="cls-1" d="M3000,324.35v-8.34c-.16-15.98-4.89-33.37-14.19-52.15-12.94-25.44-35.19-46.8-66.75-64.03l-10.44-5c-24.35-11.14-50.01-16.69-76.96-16.69-24.62,0-48.16,4.65-70.6,13.97-22.45,9.32-42.48,22.75-60.06,40.25-17.61,17.53-31.01,37.53-40.28,59.98-9.24,22.45-13.86,45.98-13.86,70.61s4.62,48.32,13.86,70.71c9.27,22.37,22.67,42.37,40.28,59.95,17.58,17.59,37.61,31.04,60.06,40.36,22.45,9.32,45.98,13.97,70.6,13.97s48.32-4.65,70.71-13.97c22.37-9.32,42.4-22.72,60.06-40.25,5.84-5.71,11.2-11.74,16.06-18.15l-58.19-6.47c-9.59,20.3-21.42,36.64-35.47,49.03-16.28,14.32-34,21.47-53.18,21.47-3.89,0-6.25-.06-7.09-.19-19.59-2.23-37.2-11.39-52.78-27.45-15.57-16.06-27.99-37.12-37.23-63.19-9.24-26.06-13.86-54.76-13.86-86.04,0-13.21.84-26.01,2.5-38.37h276.79ZM2758.45,229.56c16.41-23.16,35.95-37.31,58.62-42.45,4.86-.44,9.73-.63,14.59-.63s9.65.19,14.38.63c23.37,5.27,43.4,20.08,60.09,44.43,3.34,4.56,7.15,11.25,11.47,20,4.29,8.78,7.26,17.09,8.86,24.95,1.6,7.85,2.39,14.13,2.39,18.86,0,6.82-.95,13.7-2.91,20.65h-201.27c6.11-34.49,17.37-63.29,33.78-86.45Z"></path>
  </g>
  <g>
    <path class="cls-1" d="M235.31,688.83c7.51-19.89,26.39-33.28,48.1-33.28,22.93,0,39.58,14.82,39.58,36.74,0,16.64-10.55,30.85-35.52,54.19l-35.31,33.28h72.46v12.18h-90.11v-12.18l44.65-42.22c17.25-16.03,31.46-29.43,31.46-45.46,0-14.82-10.96-24.35-27.4-24.35s-30.65,10.55-36.94,26.18l-10.96-5.07Z"></path>
    <path class="cls-1" d="M412.49,758.04h-69v-8.52l53.78-91.13h14.01l-52.16,87.47h53.38v-32.47h12.38v32.47h15.22v12.18h-15.22v33.89h-12.38v-33.89Z"></path>
    <path class="cls-1" d="M521.28,772.24c6.09,0,10.96,4.67,10.96,10.76s-4.87,10.76-10.96,10.76c-5.68,0-10.76-4.87-10.76-10.76s5.07-10.76,10.76-10.76Z"></path>
    <path class="cls-1" d="M626.01,669.95h-19.69v-11.57h32.07v133.55h-12.38v-121.98Z"></path>
    <path class="cls-1" d="M729.93,655.54c27.8,0,49.12,22.12,49.12,69.61s-21.31,69.61-49.12,69.61-49.12-22.12-49.12-69.61,21.31-69.61,49.12-69.61ZM729.93,782.8c21.51,0,37.14-18.06,37.14-57.64s-15.63-57.64-37.14-57.64-37.14,17.86-37.14,57.64,15.83,57.64,37.14,57.64Z"></path>
    <path class="cls-1" d="M866.93,772.24c6.09,0,10.96,4.67,10.96,10.76s-4.87,10.76-10.96,10.76c-5.68,0-10.76-4.87-10.76-10.76s5.07-10.76,10.76-10.76Z"></path>
    <path class="cls-1" d="M948.32,688.83c7.51-19.89,26.39-33.28,48.1-33.28,22.93,0,39.58,14.82,39.58,36.74,0,16.64-10.55,30.85-35.52,54.19l-35.31,33.28h72.46v12.18h-90.11v-12.18l44.65-42.22c17.25-16.03,31.46-29.43,31.46-45.46,0-14.82-10.96-24.35-27.4-24.35s-30.65,10.55-36.94,26.18l-10.96-5.07Z"></path>
    <path class="cls-1" d="M1114.34,655.54c27.8,0,49.12,22.12,49.12,69.61s-21.31,69.61-49.12,69.61-49.12-22.12-49.12-69.61,21.31-69.61,49.12-69.61ZM1114.34,782.8c21.51,0,37.14-18.06,37.14-57.64s-15.63-57.64-37.14-57.64-37.14,17.86-37.14,57.64,15.83,57.64,37.14,57.64Z"></path>
    <path class="cls-1" d="M1189.44,688.83c7.51-19.89,26.39-33.28,48.1-33.28,22.93,0,39.58,14.82,39.58,36.74,0,16.64-10.55,30.85-35.52,54.19l-35.31,33.28h72.46v12.18h-90.11v-12.18l44.65-42.22c17.25-16.03,31.46-29.43,31.46-45.46,0-14.82-10.96-24.35-27.4-24.35s-30.65,10.55-36.94,26.18l-10.96-5.07Z"></path>
    <path class="cls-1" d="M1356.88,658.38l-26.79,48.1c5.28-2.44,11.16-3.65,17.66-3.65,26.59,0,48.1,20.7,48.1,46.07s-21.51,45.87-48.1,45.87-48.3-20.5-48.3-45.87c0-8.32,2.44-16.03,6.29-22.93l37.34-67.58h13.8ZM1347.74,782.59c19.48,0,35.31-15.22,35.31-33.69s-15.83-33.89-35.31-33.89-35.72,15.22-35.72,33.89,16.03,33.69,35.72,33.69Z"></path>
  </g>
</svg>